<?xml version="1.0" encoding="UTF-8"?>
<svg version="1.1" xmlns="http://www.w3.org/2000/svg" width="400" height="400">
<path d="M0 0 C132 0 264 0 400 0 C400 132 400 264 400 400 C268 400 136 400 0 400 C0 268 0 136 0 0 Z " fill="#BAE9FE" transform="translate(0,0)"/>
<path d="M0 0 C7.92 0 15.84 0 24 0 C24 3.96 24 7.92 24 12 C28.29 12.33 32.58 12.66 37 13 C37 16.96 37 20.92 37 25 C33.04 25 29.08 25 25 25 C25 37.54 25 50.08 25 63 C28.96 63 32.92 63 37 63 C37 66.96 37 70.92 37 75 C40.96 75 44.92 75 49 75 C49 78.96 49 82.92 49 87 C41.41 87 33.82 87 26 87 C25.67 91.29 25.34 95.58 25 100 C28.96 100 32.92 100 37 100 C37 104.29 37 108.58 37 113 C40.63 113 44.26 113 48 113 C48.22786458 115.83203125 48.45572917 118.6640625 48.68359375 121.49609375 C48.73211468 123.93640779 48.73211468 123.93640779 50 125 C50.14355117 129.00220653 50.04216403 132.99441683 50 137 C53.96 137 57.92 137 62 137 C62 141.29 62 145.58 62 150 C63.959375 149.979375 65.91875 149.95875 67.9375 149.9375 C69.95832876 149.91622812 71.98035801 149.92755947 74 150 C76.83823106 152.83823106 75 157.98613514 75 162 C91.17 162 107.34 162 124 162 C124 162.66 124 163.32 124 164 C124.66 164 125.32 164 126 164 C125.34 167.63 124.68 171.26 124 175 C120.37 175 116.74 175 113 175 C113 178.63 113 182.26 113 186 C112.34 186 111.68 186 111 186 C111 186.66 111 187.32 111 188 C107.04 188 103.08 188 99 188 C99 183.71 99 179.42 99 175 C91.08 175 83.16 175 75 175 C75 179.29 75 183.58 75 188 C62.46 188 49.92 188 37 188 C37 191.96 37 195.92 37 200 C28.75 200 20.5 200 12 200 C12 195.71 12 191.42 12 187 C3.75 187 -4.5 187 -13 187 C-13 183.04 -13 179.08 -13 175 C-21.25 175 -29.5 175 -38 175 C-38 187.21 -38 199.42 -38 212 C-29.75 212 -21.5 212 -13 212 C-13 216.29 -13 220.58 -13 225 C-9.04 225 -5.08 225 -1 225 C-1 241.5 -1 258 -1 275 C-4.96 275 -8.92 275 -13 275 C-13 308 -13 341 -13 375 C-37.75 375 -62.5 375 -88 375 C-88 342 -88 309 -88 275 C-83.71 275 -79.42 275 -75 275 C-75 254.21 -75 233.42 -75 212 C-71.04 212 -67.08 212 -63 212 C-63 195.5 -63 179 -63 162 C-59.04 162 -55.08 162 -51 162 C-51 153.75 -51 145.5 -51 137 C-46.71 137 -42.42 137 -38 137 C-38 133.04 -38 129.08 -38 125 C-33.38 125 -28.76 125 -24 125 C-24.2784375 123.39125 -24.2784375 123.39125 -24.5625 121.75 C-25 118 -25 118 -24 114 C-20.37 113.67 -16.74 113.34 -13 113 C-12.67 109.04 -12.34 105.08 -12 101 C-8.37 101 -4.74 101 -1 101 C-1 96.71 -1 92.42 -1 88 C-8.92 87.67 -16.84 87.34 -25 87 C-25 83.04 -25 79.08 -25 75 C-21.04 75 -17.08 75 -13 75 C-13 71.04 -13 67.08 -13 63 C-9.04 63 -5.08 63 -1 63 C-1 50.46 -1 37.92 -1 25 C-4.96 25 -8.92 25 -13 25 C-13 21.04 -13 17.08 -13 13 C-9.04 12.67 -5.08 12.34 -1 12 C-0.67 8.04 -0.34 4.08 0 0 Z " fill="#333232" transform="translate(213,25)"/>
<path d="M0 0 C7.92 0 15.84 0 24 0 C24 3.96 24 7.92 24 12 C28.29 12.33 32.58 12.66 37 13 C37 16.96 37 20.92 37 25 C33.04 25 29.08 25 25 25 C25 37.54 25 50.08 25 63 C28.96 63 32.92 63 37 63 C37 66.96 37 70.92 37 75 C40.96 75 44.92 75 49 75 C49 78.96 49 82.92 49 87 C41.41 87 33.82 87 26 87 C25.67 91.29 25.34 95.58 25 100 C28.96 100 32.92 100 37 100 C37 104.29 37 108.58 37 113 C40.63 113 44.26 113 48 113 C48.495 118.94 48.495 118.94 49 125 C24.91 125 0.82 125 -24 125 C-25 118 -25 118 -24 114 C-18.555 113.505 -18.555 113.505 -13 113 C-12.67 109.04 -12.34 105.08 -12 101 C-8.37 101 -4.74 101 -1 101 C-1 96.71 -1 92.42 -1 88 C-8.92 87.67 -16.84 87.34 -25 87 C-25 83.04 -25 79.08 -25 75 C-21.04 75 -17.08 75 -13 75 C-13 71.04 -13 67.08 -13 63 C-9.04 63 -5.08 63 -1 63 C-1 50.46 -1 37.92 -1 25 C-4.96 25 -8.92 25 -13 25 C-13 21.04 -13 17.08 -13 13 C-7.06 12.505 -7.06 12.505 -1 12 C-0.67 8.04 -0.34 4.08 0 0 Z " fill="#525553" transform="translate(213,25)"/>
<path d="M0 0 C0.33 0 0.66 0 1 0 C1 3.96 1 7.92 1 12 C4.96 12 8.92 12 13 12 C13 16.29 13 20.58 13 25 C14.959375 24.979375 16.91875 24.95875 18.9375 24.9375 C20.95832876 24.91622812 22.98035801 24.92755947 25 25 C27.83823106 27.83823106 26 32.98613514 26 37 C42.17 37 58.34 37 75 37 C75 37.66 75 38.32 75 39 C75.66 39 76.32 39 77 39 C76.34 42.63 75.68 46.26 75 50 C71.37 50 67.74 50 64 50 C64 53.63 64 57.26 64 61 C63.34 61 62.68 61 62 61 C62 61.66 62 62.32 62 63 C58.04 63 54.08 63 50 63 C50 58.71 50 54.42 50 50 C42.08 50 34.16 50 26 50 C26 54.29 26 58.58 26 63 C20.80794615 63.02498397 15.61592839 63.04299248 10.42382812 63.05493164 C8.6627542 63.05991642 6.90168432 63.06670666 5.140625 63.07543945 C2.58853143 63.08776491 0.03649322 63.09328693 -2.515625 63.09765625 C-3.28489319 63.10281754 -4.05416138 63.10797882 -4.84674072 63.11329651 C-11.32882922 63.11394082 -17.46750059 62.54437495 -24 62 C-24 49.79 -24 37.58 -24 25 C-20.04 25 -16.08 25 -12 25 C-12 20.71 -12 16.42 -12 12 C-8.04 12 -4.08 12 0 12 C0 8.04 0 4.08 0 0 Z " fill="#646363" transform="translate(262,150)"/>
<path d="M0 0 C8.25 0 16.5 0 25 0 C25 3.96 25 7.92 25 12 C33.25 12 41.5 12 50 12 C50 16.29 50 20.58 50 25 C53.96 25 57.92 25 62 25 C62 28.96 62 32.92 62 37 C58.04 37 54.08 37 50 37 C50 45.25 50 53.5 50 62 C46.04 62 42.08 62 38 62 C38 58.04 38 54.08 38 50 C33.71 50 29.42 50 25 50 C25 45.71 25 41.42 25 37 C16.75 37 8.5 37 0 37 C0 24.79 0 12.58 0 0 Z " fill="#F0F0F0" transform="translate(175,200)"/>
<path d="M0 0 C8.91 0 17.82 0 27 0 C26.67 4.29 26.34 8.58 26 13 C29.96 13 33.92 13 38 13 C38 17.29 38 21.58 38 26 C41.63 26 45.26 26 49 26 C49.495 31.94 49.495 31.94 50 38 C25.91 38 1.82 38 -23 38 C-24 31 -24 31 -23 27 C-19.37 26.67 -15.74 26.34 -12 26 C-11.67 22.04 -11.34 18.08 -11 14 C-7.37 14 -3.74 14 0 14 C0 9.38 0 4.76 0 0 Z " fill="#FAAD07" transform="translate(212,112)"/>
<path d="M0 0 C4.29 0 8.58 0 13 0 C12.34 0.66 11.68 1.32 11 2 C9.35 2 7.7 2 6 2 C5.67 18.5 5.34 35 5 52 C4.01 52 3.02 52 2 52 C2 52.66 2 53.32 2 54 C3.32 54 4.64 54 6 54 C5.67 54.99 5.34 55.98 5 57 C5.39397335 59.63804589 5.39397335 59.63804589 6 62 C3.525 62.495 3.525 62.495 1 63 C0.21907686 65.76626325 -0.1240523 68.21646443 -0.12025452 71.08758545 C-0.12162918 71.89242874 -0.12300385 72.69727203 -0.12442017 73.52650452 C-0.12082489 74.40044357 -0.11722961 75.27438263 -0.11352539 76.17480469 C-0.11367142 77.101978 -0.11381744 78.02915131 -0.1139679 78.98442078 C-0.11327162 82.04692937 -0.10549249 85.10937704 -0.09765625 88.171875 C-0.09579106 90.2960812 -0.09436763 92.42028784 -0.09336853 94.54449463 C-0.08955131 100.13402495 -0.07972778 105.72352927 -0.06866455 111.31304932 C-0.05843337 117.01728972 -0.05386725 122.72153432 -0.04882812 128.42578125 C-0.03810482 139.61719892 -0.02103791 150.8085973 0 162 C-4.29 162 -8.58 162 -13 162 C-13 129 -13 96 -13 62 C-8.71 62 -4.42 62 0 62 C0 41.54 0 21.08 0 0 Z " fill="#282829" transform="translate(138,238)"/>
<path d="M0 0 C7.92 0 15.84 0 24 0 C24.02293088 4.94797431 24.0428516 9.89576493 24.05493164 14.84375 C24.05996653 16.52767562 24.06679481 18.21159686 24.07543945 19.89550781 C24.08754196 22.31316203 24.09323668 24.73075856 24.09765625 27.1484375 C24.10281754 27.9036972 24.10797882 28.65895691 24.11329651 29.43710327 C24.11387171 34.77225659 24.11387171 34.77225659 23 37 C15.74 37 8.48 37 1 37 C-0.14806378 11.84510251 -0.14806378 11.84510251 0 0 Z " fill="#F09594" transform="translate(288,200)"/>
<path d="M0 0 C7.92 0 15.84 0 24 0 C24 3.96 24 7.92 24 12 C27.96 12.33 31.92 12.66 36 13 C35.67 14.32 35.34 15.64 35 17 C34.96154557 18.99963028 34.95455719 21.00051633 35 23 C32.14479676 24.42760162 29.70501349 24.12981254 26.515625 24.1328125 C25.5375589 24.13424759 25.5375589 24.13424759 24.53973389 24.13571167 C23.151 24.13639341 21.76226295 24.13453952 20.37353516 24.13037109 C18.29972642 24.12512577 16.22614477 24.13026141 14.15234375 24.13671875 C5.3890416 24.1406513 -3.26413989 23.75167436 -12 23 C-12 19.7 -12 16.4 -12 13 C-6.555 12.505 -6.555 12.505 -1 12 C-0.67 8.04 -0.34 4.08 0 0 Z " fill="#841B0F" transform="translate(213,25)"/>
<path d="M0 0 C0.10343989 20.35856211 0.20358646 40.66798583 -1 61 C-4.96 61 -8.92 61 -13 61 C-13.02472041 53.25871005 -13.04286975 45.51744309 -13.05493164 37.77612305 C-13.05996013 35.14265543 -13.06678375 32.50919061 -13.07543945 29.87573242 C-13.08756988 26.09032502 -13.09324318 22.30495454 -13.09765625 18.51953125 C-13.10281754 17.34227982 -13.10797882 16.16502838 -13.11329651 14.95210266 C-13.11337204 13.85133896 -13.11344757 12.75057526 -13.11352539 11.61645508 C-13.115746 10.65048904 -13.11796661 9.68452301 -13.12025452 8.68928528 C-13.00125869 6.0281485 -12.59468968 3.59273509 -12 1 C-10.18755015 0.83278881 -8.37503867 0.66624559 -6.5625 0.5 C-5.55316406 0.4071875 -4.54382813 0.314375 -3.50390625 0.21875 C-1 0 -1 0 0 0 Z " fill="#5F5D5C" transform="translate(238,50)"/>
<path d="M0 0 C3.63 0 7.26 0 11 0 C12.77997029 4.44992574 13.21222719 6.43711531 13 11 C12.34 11 11.68 11 11 11 C11.01160156 11.77085937 11.02320313 12.54171875 11.03515625 13.3359375 C11.04417969 14.33882812 11.05320313 15.34171875 11.0625 16.375 C11.07410156 17.37273437 11.08570313 18.37046875 11.09765625 19.3984375 C11 22 11 22 10 24 C7.67843403 24.40729228 5.3431213 24.74438677 3 25 C3 23.68 3 22.36 3 21 C2.74605469 21.55429688 2.49210938 22.10859375 2.23046875 22.6796875 C1.88628906 23.40414062 1.54210937 24.12859375 1.1875 24.875 C0.85105469 25.59429687 0.51460937 26.31359375 0.16796875 27.0546875 C-1 29 -1 29 -4 31 C-4.27980375 33.69761478 -4.37203542 36.16250152 -4.328125 38.859375 C-4.32625183 39.64137268 -4.32437866 40.42337036 -4.32244873 41.22906494 C-4.31571885 42.88680266 -4.3017858 44.54452426 -4.28125 46.20214844 C-4.25029359 48.72606353 -4.24029777 51.24935196 -4.234375 53.7734375 C-4.22519617 55.38542419 -4.21481762 56.99740458 -4.203125 58.609375 C-4.19887512 59.35958923 -4.19462524 60.10980347 -4.19024658 60.88275146 C-4.13447169 65.02681394 -3.68273334 68.92086451 -3 73 C-4 74 -4 74 -7.4375 74.125 C-11 74 -11 74 -13 73 C-13 57.16 -13 41.32 -13 25 C-8.71 25 -4.42 25 0 25 C0 16.75 0 8.5 0 0 Z " fill="#27292B" transform="translate(163,163)"/>
<path d="M0 0 C1.39436279 -0.03867188 1.39436279 -0.03867188 2.81689453 -0.078125 C9.12527661 -0.09701591 9.12527661 -0.09701591 11.78125 2.1328125 C13.22897948 5.71469492 12.87946374 8.53572516 12.6875 12.375 C16.6475 12.375 20.6075 12.375 24.6875 12.375 C24.6875 12.705 24.6875 13.035 24.6875 13.375 C4.5575 13.375 -15.5725 13.375 -36.3125 13.375 C-37.4375 5.5 -37.4375 5.5 -36.3125 2.375 C-24.22665517 1.17819261 -12.14920164 0.163488 0 0 Z " fill="#F8C809" transform="translate(225.3125,136.625)"/>
<path d="M0 0 C3.96 0 7.92 0 12 0 C12 7.92 12 15.84 12 24 C4.08 24 -3.84 24 -12 24 C-12 20.04 -12 16.08 -12 12 C-8.04 12 -4.08 12 0 12 C0 8.04 0 4.08 0 0 Z " fill="#881807" transform="translate(200,88)"/>
<path d="M0 0 C3.96 0 7.92 0 12 0 C12 3.96 12 7.92 12 12 C15.96 12 19.92 12 24 12 C24 15.96 24 19.92 24 24 C16.08 24 8.16 24 0 24 C0 16.08 0 8.16 0 0 Z " fill="#83180D" transform="translate(238,88)"/>
<path d="M0 0 C0.33 0 0.66 0 1 0 C1 3.3 1 6.6 1 10 C16.51 10 32.02 10 48 10 C47.505 5.545 47.505 5.545 47 1 C47.99 0.67 48.98 0.34 50 0 C50 3.96 50 7.92 50 12 C39.95668836 12.92352291 30.0769077 13.10861338 20 13 C20 14.65 20 16.3 20 18 C17.50907189 19.24546405 16.58919267 18.7767578 14 18 C14 19.65 14 21.3 14 23 C15.32 22.67 16.64 22.34 18 22 C17.84660156 22.66386719 17.69320312 23.32773437 17.53515625 24.01171875 C16.89226979 27.60155922 16.64966009 31.17795419 16.4375 34.8125 C16.39431641 35.50537109 16.35113281 36.19824219 16.30664062 36.91210938 C16.20138547 38.60788686 16.10027137 40.30392052 16 42 C16.66 42 17.32 42 18 42 C18.17835515 46.54805635 17.99785435 49.8794254 16 54 C15.34 54 14.68 54 14 54 C14 60.27 14 66.54 14 73 C21.59 73 29.18 73 37 73 C37 65.41 37 57.82 37 50 C37.33 50 37.66 50 38 50 C38 57.92 38 65.84 38 74 C29.42 74 20.84 74 12 74 C12 53.54 12 33.08 12 12 C8.04 12 4.08 12 0 12 C0 8.04 0 4.08 0 0 Z " fill="#5F4B46" transform="translate(200,38)"/>
<path d="M0 0 C3.96 0 7.92 0 12 0 C12 4.29 12 8.58 12 13 C15.96 13 19.92 13 24 13 C24.33 16.63 24.66 20.26 25 24 C16.92530211 24.09612736 9.03498853 23.79780028 1 23 C-0.24911667 15.34916042 -0.09053426 7.72559014 0 0 Z " fill="#F9AD04" transform="translate(237,126)"/>
<path d="M0 0 C12.87 0 25.74 0 39 0 C39 7.92 39 15.84 39 24 C46.26 24 53.52 24 61 24 C61 24.33 61 24.66 61 25 C53.08 25 45.16 25 37 25 C37 17.41 37 9.82 37 2 C25.12 2.33 13.24 2.66 1 3 C1 5.64 1 8.28 1 11 C1.66 11 2.32 11 3 11 C3 11.66 3 12.32 3 13 C-1.95 13 -6.9 13 -12 13 C-12 16.96 -12 20.92 -12 25 C-15.96 25 -19.92 25 -24 25 C-23.90460938 26.49273437 -23.80921875 27.98546875 -23.7109375 29.5234375 C-23.59840927 31.47392673 -23.48646003 33.42444943 -23.375 35.375 C-23.27832031 36.85226563 -23.27832031 36.85226563 -23.1796875 38.359375 C-23.128125 39.30039063 -23.0765625 40.24140625 -23.0234375 41.2109375 C-22.97106934 42.08024902 -22.91870117 42.94956055 -22.86474609 43.84521484 C-23 46 -23 46 -25 48 C-25 40.08 -25 32.16 -25 24 C-21.04 24 -17.08 24 -13 24 C-13 20.04 -13 16.08 -13 12 C-8.71 12 -4.42 12 0 12 C0 8.04 0 4.08 0 0 Z " fill="#D1D2D6" transform="translate(250,213)"/>
<path d="M0 0 C0.66 0 1.32 0 2 0 C2 20.79 2 41.58 2 63 C-2.29 63 -6.58 63 -11 63 C-11.66 62.34 -12.32 61.68 -13 61 C-10.525 60.505 -10.525 60.505 -8 60 C-8 60.66 -8 61.32 -8 62 C-5.69 62 -3.38 62 -1 62 C-1.02545395 60.87913498 -1.02545395 60.87913498 -1.05142212 59.73562622 C-1.20934716 52.70211402 -1.35755323 45.66848044 -1.49477577 38.63453865 C-1.56567231 35.01809982 -1.64035821 31.4018212 -1.72363281 27.78564453 C-1.80382172 24.29745951 -1.87414994 20.80920365 -1.93757248 17.3206749 C-1.9762083 15.33848457 -2.02512043 13.35650327 -2.0741272 11.37454224 C-2.09429901 10.17344818 -2.11447083 8.97235413 -2.13525391 7.73486328 C-2.15746002 6.67341095 -2.17966614 5.61195862 -2.20254517 4.51834106 C-2 2 -2 2 0 0 Z " fill="#B3C9CF" transform="translate(136,237)"/>
<path d="M0 0 C0.33 0 0.66 0 1 0 C1.33 2.64 1.66 5.28 2 8 C2.66 8 3.32 8 4 8 C4 8.99 4 9.98 4 11 C4.63808594 10.98839844 5.27617187 10.97679687 5.93359375 10.96484375 C7.17302734 10.95130859 7.17302734 10.95130859 8.4375 10.9375 C9.26121094 10.92589844 10.08492188 10.91429687 10.93359375 10.90234375 C13 11 13 11 14 12 C14.07226502 13.85287502 14.0838122 15.70833878 14.0625 17.5625 C14.05347656 18.57441406 14.04445313 19.58632812 14.03515625 20.62890625 C14.02355469 21.41136719 14.01195312 22.19382813 14 23 C14.78246094 22.98839844 15.56492187 22.97679687 16.37109375 22.96484375 C17.38300781 22.95582031 18.39492188 22.94679687 19.4375 22.9375 C20.44683594 22.92589844 21.45617187 22.91429687 22.49609375 22.90234375 C25 23 25 23 26 24 C26.07226502 25.85287502 26.0838122 27.70833878 26.0625 29.5625 C26.05347656 30.57441406 26.04445313 31.58632812 26.03515625 32.62890625 C26.02355469 33.41136719 26.01195312 34.19382813 26 35 C26.93294388 34.99666908 26.93294388 34.99666908 27.88473511 34.99327087 C34.34063138 34.97119874 40.79651699 34.9560853 47.25244141 34.94506836 C49.66390417 34.94003026 52.07536386 34.93319966 54.48681641 34.92456055 C57.94694779 34.91247213 61.4070389 34.90676656 64.8671875 34.90234375 C65.95055389 34.89718246 67.03392029 34.89202118 68.15011597 34.88670349 C69.1510025 34.88662796 70.15188904 34.88655243 71.18310547 34.88647461 C72.06690887 34.884254 72.95071228 34.88203339 73.86129761 34.87974548 C76 35 76 35 78 36 C78 36.66 78 37.32 78 38 C76.68 38.33 75.36 38.66 74 39 C74 38.34 74 37.68 74 37 C57.83 37 41.66 37 25 37 C24.67 33.37 24.34 29.74 24 26 C20.04 25.67 16.08 25.34 12 25 C12 20.71 12 16.42 12 12 C8.04 12 4.08 12 0 12 C0 8.04 0 4.08 0 0 Z " fill="#D1DCE2" transform="translate(263,150)"/>
<path d="M0 0 C0.99 0 1.98 0 3 0 C3 33 3 66 3 100 C2.34 100 1.68 100 1 100 C0.67 67 0.34 34 0 0 Z " fill="#C6D7DF" transform="translate(122,300)"/>
<path d="M0 0 C2.05078125 0.03255208 4.1015625 0.06510417 6.15234375 0.09765625 C6.15234375 1.08765625 6.15234375 2.07765625 6.15234375 3.09765625 C6.81234375 3.42765625 7.47234375 3.75765625 8.15234375 4.09765625 C8.15234375 8.71765625 8.15234375 13.33765625 8.15234375 18.09765625 C5.84234375 18.09765625 3.53234375 18.09765625 1.15234375 18.09765625 C1.15234375 19.08765625 1.15234375 20.07765625 1.15234375 21.09765625 C-0.16765625 20.76765625 -1.48765625 20.43765625 -2.84765625 20.09765625 C-2.87654139 16.95184202 -2.89441548 13.80606156 -2.91015625 10.66015625 C-2.91853516 9.76232422 -2.92691406 8.86449219 -2.93554688 7.93945312 C-2.93876953 7.08544922 -2.94199219 6.23144531 -2.9453125 5.3515625 C-2.95316772 4.16542358 -2.95316772 4.16542358 -2.96118164 2.95532227 C-2.80704955 0.4331909 -2.52550843 0.13348353 0 0 Z " fill="#FB9B99" transform="translate(302.84765625,211.90234375)"/>
<path d="M0 0 C3.63 0 7.26 0 11 0 C11 7.92 11 15.84 11 24 C3.08 24 -4.84 24 -13 24 C-13 20.37 -13 16.74 -13 13 C-9.04 13 -5.08 13 -1 13 C-4 16 -4 16 -6.6875 16.1875 C-7.8321875 16.0946875 -7.8321875 16.0946875 -9 16 C-9 16.66 -9 17.32 -9 18 C-6.36 18 -3.72 18 -1 18 C-1 18.99 -1 19.98 -1 21 C1.97 20.67 4.94 20.34 8 20 C8.66 13.73 9.32 7.46 10 1 C6.7 1 3.4 1 0 1 C0 0.67 0 0.34 0 0 Z " fill="#7D1911" transform="translate(201,88)"/>
<path d="M0 0 C3.96 0 7.92 0 12 0 C12.33 4.29 12.66 8.58 13 13 C8.71 13 4.42 13 0 13 C0 8.71 0 4.42 0 0 Z " fill="#58585A" transform="translate(250,162)"/>
<path d="M0 0 C0.66 0 1.32 0 2 0 C2 8.25 2 16.5 2 25 C-1.96 25 -5.92 25 -10 25 C-10 41.5 -10 58 -10 75 C-13.96 75 -17.92 75 -22 75 C-22.33 74.34 -22.66 73.68 -23 73 C-21.88625 72.87625 -20.7725 72.7525 -19.625 72.625 C-15.96896323 72.3534187 -15.96896323 72.3534187 -14 70 C-13.34 70.33 -12.68 70.66 -12 71 C-11.67 57.47 -11.34 43.94 -11 30 C-11.66 30 -12.32 30 -13 30 C-13.33 28.68 -13.66 27.36 -14 26 C-13.34 26 -12.68 26 -12 26 C-12 25.34 -12 24.68 -12 24 C-10 23 -10 23 0 23 C0 15.41 0 7.82 0 0 Z " fill="#C3E2EC" transform="translate(160,162)"/>
<path d="M0 0 C3 3 3 3 3.34057617 4.99291992 C3.3170105 6.10050659 3.3170105 6.10050659 3.29296875 7.23046875 C3.28330078 8.03291016 3.27363281 8.83535156 3.26367188 9.66210938 C3.23853516 10.49548828 3.21339844 11.32886719 3.1875 12.1875 C3.16719727 13.4549707 3.16719727 13.4549707 3.14648438 14.74804688 C3.11115799 16.83230384 3.05735139 18.91623277 3 21 C5.64 21.33 8.28 21.66 11 22 C11 21.34 11 20.68 11 20 C12.32 20 13.64 20 15 20 C15 19.01 15 18.02 15 17 C17.31 17 19.62 17 22 17 C22 11.72 22 6.44 22 1 C22.33 1 22.66 1 23 1 C23.02894547 4.45831586 23.04678 7.91660072 23.0625 11.375 C23.07087891 12.35984375 23.07925781 13.3446875 23.08789062 14.359375 C23.09272461 15.77089844 23.09272461 15.77089844 23.09765625 17.2109375 C23.10551147 18.51490479 23.10551147 18.51490479 23.11352539 19.84521484 C23 22 23 22 22 24 C14.74 24 7.48 24 0 24 C0 16.08 0 8.16 0 0 Z " fill="#E29B9D" transform="translate(289,213)"/>
<path d="M0 0 C0.33 0 0.66 0 1 0 C1 3.96 1 7.92 1 12 C4.63 12 8.26 12 12 12 C12 12.66 12 13.32 12 14 C8.7 14 5.4 14 2 14 C2.01047363 15.11036621 2.02094727 16.22073242 2.03173828 17.36474609 C2.06787949 21.47587879 2.09087896 25.58699739 2.10986328 29.69824219 C2.11993431 31.47919067 2.13359185 33.26012257 2.15087891 35.04101562 C2.17507913 37.59769783 2.18647184 40.15416185 2.1953125 42.7109375 C2.20563507 43.50994476 2.21595764 44.30895203 2.22659302 45.13217163 C2.22699226 47.0895722 2.12241069 49.04643077 2 51 C0 53 0 53 -3.3125 53.0625 C-5.1378125 53.0315625 -5.1378125 53.0315625 -7 53 C-8.67557379 53.28520405 -10.34817245 53.59955696 -12 54 C-12 52.68 -12 51.36 -12 50 C-8.04 50 -4.08 50 0 50 C0 33.5 0 17 0 0 Z " fill="#B6C0C2" transform="translate(212,250)"/>
<path d="M0 0 C3.96 0 7.92 0 12 0 C12 3.96 12 7.92 12 12 C8.04 12 4.08 12 0 12 C0 8.04 0 4.08 0 0 Z " fill="#010101" transform="translate(188,175)"/>
<path d="M0 0 C1.2375 -0.020625 2.475 -0.04125 3.75 -0.0625 C4.44609375 -0.07410156 5.1421875 -0.08570312 5.859375 -0.09765625 C8 0 8 0 12 1 C12 4.63 12 8.26 12 12 C8.04 12 4.08 12 0 12 C0 8.04 0 4.08 0 0 Z " fill="#FA6507" transform="translate(201,126)"/>
<path d="M0 0 C0.33 0 0.66 0 1 0 C1 3.3 1 6.6 1 10 C16.51 10 32.02 10 48 10 C47.505 5.545 47.505 5.545 47 1 C47.99 0.67 48.98 0.34 50 0 C50 3.96 50 7.92 50 12 C37.79 12 25.58 12 13 12 C13 24.54 13 37.08 13 50 C12.67 50 12.34 50 12 50 C12 37.46 12 24.92 12 12 C8.04 12 4.08 12 0 12 C0 8.04 0 4.08 0 0 Z " fill="#865454" transform="translate(200,38)"/>
<path d="M0 0 C8.91 0 17.82 0 27 0 C26.67 4.29 26.34 8.58 26 13 C29.96 13 33.92 13 38 13 C38 17.29 38 21.58 38 26 C41.63 26 45.26 26 49 26 C49 26.33 49 26.66 49 27 C45.04 27 41.08 27 37 27 C37 22.71 37 18.42 37 14 C34.091875 14.061875 34.091875 14.061875 31.125 14.125 C27.8203125 14.1953125 27.8203125 14.1953125 25 14 C24.34 13.34 23.68 12.68 23 12 C23 8.7 23 5.4 23 2 C16.07 2 9.14 2 2 2 C2 5.96 2 9.92 2 14 C1.67 14 1.34 14 1 14 C0.67 9.38 0.34 4.76 0 0 Z " fill="#DCAD5A" transform="translate(212,112)"/>
<path d="M0 0 C0.33 0 0.66 0 1 0 C1 3.63 1 7.26 1 11 C17.17 11 33.34 11 50 11 C50 11.66 50 12.32 50 13 C50.66 13 51.32 13 52 13 C51.4140625 19.15234375 51.4140625 19.15234375 51 21 C50.01 21.495 50.01 21.495 49 22 C48.505 17.545 48.505 17.545 48 13 C46.58146729 13.00523682 45.16293457 13.01047363 43.70141602 13.01586914 C38.45907213 13.03391309 33.216731 13.04542978 27.97436523 13.05493164 C25.70157409 13.05997325 23.4287862 13.06680637 21.15600586 13.07543945 C17.89696449 13.08751261 14.63796583 13.09322987 11.37890625 13.09765625 C10.35599991 13.10281754 9.33309357 13.10797882 8.27919006 13.11329651 C7.33829025 13.11337204 6.39739044 13.11344757 5.42797852 13.11352539 C4.59524918 13.115746 3.76251984 13.11796661 2.90455627 13.12025452 C1 13 1 13 0 12 C-0.07244053 9.98035801 -0.08377188 7.95832876 -0.0625 5.9375 C-0.05347656 4.83277344 -0.04445313 3.72804687 -0.03515625 2.58984375 C-0.02355469 1.73519531 -0.01195312 0.88054687 0 0 Z " fill="#7F6C68" transform="translate(287,176)"/>
<path d="M0 0 C3.63 0 7.26 0 11 0 C11 3.63 11 7.26 11 11 C7.37 11 3.74 11 0 11 C-0.72795155 6.79405774 -1.04973814 4.19895255 0 0 Z " fill="#E36F19" transform="translate(189,139)"/>
<path d="M0 0 C3.63 0 7.26 0 11 0 C11.33 3.63 11.66 7.26 12 11 C8.04 11 4.08 11 0 11 C0 7.37 0 3.74 0 0 Z " fill="#DE701E" transform="translate(250,139)"/>
<path d="M0 0 C3.63 0 7.26 0 11 0 C11 3.63 11 7.26 11 11 C7.37 11 3.74 11 0 11 C0 7.37 0 3.74 0 0 Z " fill="#DA4115" transform="translate(238,126)"/>
<path d="M0 0 C2.475 0.495 2.475 0.495 5 1 C4.34 2.32 3.68 3.64 3 5 C2.34 5 1.68 5 1 5 C1 36.35 1 67.7 1 100 C0.67 100 0.34 100 0 100 C0 67 0 34 0 0 Z " fill="#382827" transform="translate(125,300)"/>
<path d="M0 0 C0.66 0 1.32 0 2 0 C2.05423638 1.91635217 2.09289963 3.83314925 2.125 5.75 C2.14820313 6.81734375 2.17140625 7.8846875 2.1953125 8.984375 C2.00487687 11.92470106 1.52670104 13.52361878 0 16 C-1.32 16 -2.64 16 -4 16 C-4 15.34 -4 14.68 -4 14 C-5.98 14.33 -7.96 14.66 -10 15 C-10.33 25.89 -10.66 36.78 -11 48 C-7.37 48 -3.74 48 0 48 C0 48.66 0 49.32 0 50 C-3.96 50 -7.92 50 -12 50 C-12 37.46 -12 24.92 -12 12 C-8.04 12 -4.08 12 0 12 C0 8.04 0 4.08 0 0 Z " fill="#CADEE8" transform="translate(250,38)"/>
<path d="M0 0 C0.33 0 0.66 0 1 0 C1 15.51 1 31.02 1 47 C-0.65 46.67 -2.3 46.34 -4 46 C-3.67 45.01 -3.34 44.02 -3 43 C-3.99 43 -4.98 43 -6 43 C-5.67 44.65 -5.34 46.3 -5 48 C-6.65 48 -8.3 48 -10 48 C-9.8125 45.6875 -9.8125 45.6875 -9 43 C-6.4375 41.1875 -6.4375 41.1875 -4 40 C-4.495 38.515 -4.495 38.515 -5 37 C-4.01 37 -3.02 37 -2 37 C-1.67 38.65 -1.34 40.3 -1 42 C-0.67 28.14 -0.34 14.28 0 0 Z " fill="#292D27" transform="translate(211,251)"/>
<path d="M0 0 C3.96 0 7.92 0 12 0 C12 12.54 12 25.08 12 38 C8.04 38 4.08 38 0 38 C0 37.01 0 36.02 0 35 C1.26839526 34.49384702 2.53983102 33.99530901 3.8125 33.5 C4.52019531 33.2215625 5.22789062 32.943125 5.95703125 32.65625 C8 32 8 32 11 32 C11 22.1 11 12.2 11 2 C7.37 1.67 3.74 1.34 0 1 C0 0.67 0 0.34 0 0 Z " fill="#C6E0EB" transform="translate(200,50)"/>
<path d="M0 0 C3.63 0 7.26 0 11 0 C11.33 0.99 11.66 1.98 12 3 C11.34 3 10.68 3 10 3 C9.67 3.66 9.34 4.32 9 5 C8.67 4.01 8.34 3.02 8 2 C7.67 2.99 7.34 3.98 7 5 C5.02 5 3.04 5 1 5 C1.10699219 6.31355469 1.21398437 7.62710938 1.32421875 8.98046875 C1.44618097 10.71608502 1.56722667 12.45176587 1.6875 14.1875 C1.76033203 15.05181641 1.83316406 15.91613281 1.90820312 16.80664062 C2.22693852 21.70016646 2.4072159 25.09100884 -1 29 C-1.66 29 -2.32 29 -3 29 C-3 28.34 -3 27.68 -3 27 C-5.97 27 -8.94 27 -12 27 C-12 26.34 -12 25.68 -12 25 C-8.04 25 -4.08 25 0 25 C0 16.75 0 8.5 0 0 Z " fill="#281F17" transform="translate(163,163)"/>
<path d="M0 0 C0 12.54 0 25.08 0 38 C-0.66 38 -1.32 38 -2 38 C-2.495 20.675 -2.495 20.675 -3 3 C-7.455 3.495 -7.455 3.495 -12 4 C-12 3.01 -12 2.02 -12 1 C-10.18755015 0.83278881 -8.37503867 0.66624559 -6.5625 0.5 C-5.55316406 0.4071875 -4.54382813 0.314375 -3.50390625 0.21875 C-1 0 -1 0 0 0 Z " fill="#736E66" transform="translate(238,50)"/>
<path d="M0 0 C0.33 0 0.66 0 1 0 C1 3.96 1 7.92 1 12 C4.96 12 8.92 12 13 12 C12.01 12.66 11.02 13.32 10 14 C10.2784375 14.928125 10.2784375 14.928125 10.5625 15.875 C11 18 11 18 10 20 C6.7 20 3.4 20 0 20 C-1.41030314 13.26188501 -0.66561666 6.80977041 0 0 Z " fill="#726E65" transform="translate(262,150)"/>
<path d="M0 0 C1.61455078 0.00483398 1.61455078 0.00483398 3.26171875 0.00976562 C4.38964844 0.01814453 5.51757812 0.02652344 6.6796875 0.03515625 C7.81535156 0.03966797 8.95101562 0.04417969 10.12109375 0.04882812 C12.93234388 0.0606401 15.7434898 0.07711118 18.5546875 0.09765625 C18.5546875 0.75765625 18.5546875 1.41765625 18.5546875 2.09765625 C10.6346875 2.09765625 2.7146875 2.09765625 -5.4453125 2.09765625 C-5.4453125 6.05765625 -5.4453125 10.01765625 -5.4453125 14.09765625 C-6.4453125 15.09765625 -6.4453125 15.09765625 -9.16796875 15.1953125 C-10.82119141 15.17791016 -10.82119141 15.17791016 -12.5078125 15.16015625 C-13.61253906 15.15113281 -14.71726563 15.14210938 -15.85546875 15.1328125 C-17.13744141 15.11541016 -17.13744141 15.11541016 -18.4453125 15.09765625 C-18.4453125 14.76765625 -18.4453125 14.43765625 -18.4453125 14.09765625 C-13.0003125 13.60265625 -13.0003125 13.60265625 -7.4453125 13.09765625 C-7.4453125 9.13765625 -7.4453125 5.17765625 -7.4453125 1.09765625 C-4.83580014 -0.20709993 -2.91829965 -0.01535947 0 0 Z " fill="#D2DFEC" transform="translate(218.4453125,22.90234375)"/>
<path d="M0 0 C0.33 0 0.66 0 1 0 C1 3.96 1 7.92 1 12 C-13.85 12 -28.7 12 -44 12 C-43.67 10.68 -43.34 9.36 -43 8 C-40.69 8 -38.38 8 -36 8 C-36 8.66 -36 9.32 -36 10 C-24.12 10.33 -12.24 10.66 0 11 C0 7.37 0 3.74 0 0 Z " fill="#625956" transform="translate(286,200)"/>
<path d="M0 0 C3.97915159 -0.02886984 7.95827653 -0.04675406 11.9375 -0.0625 C13.07380859 -0.07087891 14.21011719 -0.07925781 15.38085938 -0.08789062 C16.46044922 -0.09111328 17.54003906 -0.09433594 18.65234375 -0.09765625 C20.15269165 -0.10551147 20.15269165 -0.10551147 21.68334961 -0.11352539 C24 0 24 0 25 1 C25.07258946 3.18639453 25.08373783 5.37500389 25.0625 7.5625 C25.05347656 8.76003906 25.04445312 9.95757812 25.03515625 11.19140625 C25.02355469 12.11824219 25.01195312 13.04507813 25 14 C21.08263419 15.1700097 18.02040985 14.69584017 14 14 C14 13.67 14 13.34 14 13 C18.455 12.505 18.455 12.505 23 12 C23 8.7 23 5.4 23 2 C21.01226562 2.03480469 21.01226562 2.03480469 18.984375 2.0703125 C17.23958897 2.08907364 15.49479685 2.10727347 13.75 2.125 C12.44095703 2.15013672 12.44095703 2.15013672 11.10546875 2.17578125 C10.26113281 2.18222656 9.41679687 2.18867187 8.546875 2.1953125 C7.77182617 2.20578613 6.99677734 2.21625977 6.19824219 2.22705078 C3.74116461 1.97326556 2.12688458 1.22444152 0 0 Z " fill="#CFD3C8" transform="translate(188,112)"/>
<path d="M0 0 C2.97 0.495 2.97 0.495 6 1 C6 1.66 6 2.32 6 3 C6.99 3.66 7.98 4.32 9 5 C8.34 5.66 7.68 6.32 7 7 C6.896875 7.66 6.79375 8.32 6.6875 9 C6 11 6 11 3.8828125 12.1171875 C0.51242495 13.1493116 -2.29394178 13.19608198 -5.8125 13.125 C-6.97394531 13.10695313 -8.13539063 13.08890625 -9.33203125 13.0703125 C-10.21246094 13.04710938 -11.09289062 13.02390625 -12 13 C-12 12.67 -12 12.34 -12 12 C-8.04 12 -4.08 12 0 12 C0 8.04 0 4.08 0 0 Z " fill="#882921" transform="translate(200,88)"/>
<path d="M0 0 C0.33 0 0.66 0 1 0 C1.24900646 1.93505023 1.47356242 3.87325934 1.6875 5.8125 C1.81511719 6.89144531 1.94273437 7.97039062 2.07421875 9.08203125 C2 12 2 12 0.90625 13.84375 C-1.78311477 15.47500404 -4.06467718 15.5196063 -7.1875 15.6875 C-10.0646875 15.8421875 -10.0646875 15.8421875 -13 16 C-13 22.93 -13 29.86 -13 37 C-13.66 37 -14.32 37 -15 37 C-14.67 29.08 -14.34 21.16 -14 13 C-10.04 13 -6.08 13 -2 13 C-2 12.34 -2 11.68 -2 11 C-1.34 11 -0.68 11 0 11 C0 7.37 0 3.74 0 0 Z " fill="#D1D8DF" transform="translate(326,200)"/>
<path d="M0 0 C0.33 0 0.66 0 1 0 C1 6.93 1 13.86 1 21 C-1.52475462 22.26237731 -3.31200466 22.09856404 -6.125 22.0625 C-7.03507812 22.05347656 -7.94515625 22.04445312 -8.8828125 22.03515625 C-9.93082031 22.01775391 -9.93082031 22.01775391 -11 22 C-11 21.01 -11 20.02 -11 19 C-9.68 19 -8.36 19 -7 19 C-7 18.01 -7 17.02 -7 16 C-4.69 16 -2.38 16 0 16 C0 10.72 0 5.44 0 0 Z " fill="#F09FA3" transform="translate(311,214)"/>
<path d="M0 0 C0.66 0 1.32 0 2 0 C2.02686553 1.97909398 2.04633375 3.95828971 2.0625 5.9375 C2.07410156 7.03964844 2.08570313 8.14179688 2.09765625 9.27734375 C2 12 2 12 1 13 C-2.6691577 13.14310287 -6.32715441 13.04221662 -10 13 C-10 16.63 -10 20.26 -10 24 C-10.66 24 -11.32 24 -12 24 C-12 19.71 -12 15.42 -12 11 C-8.04 11 -4.08 11 0 11 C0 7.37 0 3.74 0 0 Z " fill="#DDD3C0" transform="translate(199,126)"/>
<path d="M0 0 C0.66 0 1.32 0 2 0 C2 8.25 2 16.5 2 25 C-1.96 25 -5.92 25 -10 25 C-10 26.65 -10 28.3 -10 30 C-10.99 30 -11.98 30 -13 30 C-13.33 28.68 -13.66 27.36 -14 26 C-13.34 26 -12.68 26 -12 26 C-12 25.34 -12 24.68 -12 24 C-10 23 -10 23 0 23 C0 15.41 0 7.82 0 0 Z " fill="#C9DCE4" transform="translate(160,162)"/>
<path d="M0 0 C0.99 0 1.98 0 3 0 C2.67 3.3 2.34 6.6 2 10 C4.64 10 7.28 10 10 10 C10 6.7 10 3.4 10 0 C10.66 0 11.32 0 12 0 C12.02687279 1.81242052 12.04633715 3.62495233 12.0625 5.4375 C12.07410156 6.44683594 12.08570313 7.45617187 12.09765625 8.49609375 C12 11 12 11 11 12 C7.3308423 12.14310287 3.67284559 12.04221662 0 12 C0 8.04 0 4.08 0 0 Z " fill="#685A56" transform="translate(313,200)"/>
<path d="M0 0 C0.33 0 0.66 0 1 0 C1.33 2.64 1.66 5.28 2 8 C2.66 8 3.32 8 4 8 C4 8.99 4 9.98 4 11 C6.97 11 9.94 11 13 11 C13 15.29 13 19.58 13 24 C16.63 24 20.26 24 24 24 C24 24.33 24 24.66 24 25 C20.04 25 16.08 25 12 25 C12 20.71 12 16.42 12 12 C8.04 12 4.08 12 0 12 C0 8.04 0 4.08 0 0 Z " fill="#C7CBCE" transform="translate(263,150)"/>
<path d="M0 0 C2.64 0 5.28 0 8 0 C8 2.64 8 5.28 8 8 C6.02 8 4.04 8 2 8 C0 2.25 0 2.25 0 0 Z " fill="#F96408" transform="translate(251,141)"/>
<path d="M0 0 C1.65 0 3.3 0 5 0 C5 3.96 5 7.92 5 12 C8.96 12 12.92 12 17 12 C17 14.97 17 17.94 17 21 C16.67 21 16.34 21 16 21 C16 18.36 16 15.72 16 13 C12.04 13 8.08 13 4 13 C3.7525 12.05125 3.505 11.1025 3.25 10.125 C2.3142923 6.91306809 2.3142923 6.91306809 -0.125 5.625 C-0.74375 5.41875 -1.3625 5.2125 -2 5 C-0.68 4.67 0.64 4.34 2 4 C2 3.01 2 2.02 2 1 C1.34 0.67 0.68 0.34 0 0 Z " fill="#755F56" transform="translate(270,163)"/>
<path d="M0 0 C0.33 0 0.66 0 1 0 C1 3.96 1 7.92 1 12 C-3.29 12 -7.58 12 -12 12 C-9 10 -9 10 -7 9 C-6.26924352 6.6859378 -5.59861742 4.35171131 -5 2 C-4.67 2 -4.34 2 -4 2 C-4 4.31 -4 6.62 -4 9 C-3.01 9.33 -2.02 9.66 -1 10 C-1.020625 8.72125 -1.04125 7.4425 -1.0625 6.125 C-1.125 2.25 -1.125 2.25 0 0 Z " fill="#C3D9DD" transform="translate(174,150)"/>
<path d="M0 0 C1.32 0 2.64 0 4 0 C3.34 4.29 2.68 8.58 2 13 C-6.25 13 -14.5 13 -23 13 C-23 12.67 -23 12.34 -23 12 C-15.41 12 -7.82 12 0 12 C0 8.04 0 4.08 0 0 Z " fill="#C8CED9" transform="translate(262,100)"/>
<path d="M0 0 C0.99 0.33 1.98 0.66 3 1 C3 3.31 3 5.62 3 8 C2.34 8 1.68 8 1 8 C1.02320313 8.77085937 1.04640625 9.54171875 1.0703125 10.3359375 C1.08835938 11.33882812 1.10640625 12.34171875 1.125 13.375 C1.14820313 14.37273437 1.17140625 15.37046875 1.1953125 16.3984375 C1 19 1 19 -1 21 C-1.02895976 17.87501937 -1.04678483 14.7500731 -1.0625 11.625 C-1.07087891 10.73554688 -1.07925781 9.84609375 -1.08789062 8.9296875 C-1.09111328 8.07890625 -1.09433594 7.228125 -1.09765625 6.3515625 C-1.10289307 5.56604004 -1.10812988 4.78051758 -1.11352539 3.97119141 C-1 2 -1 2 0 0 Z " fill="#302726" transform="translate(173,166)"/>
<path d="M0 0 C2.97 0 5.94 0 9 0 C9.33 1.65 9.66 3.3 10 5 C7.03 4.505 7.03 4.505 4 4 C4 4.66 4 5.32 4 6 C2.68 6 1.36 6 0 6 C0 4.02 0 2.04 0 0 Z " fill="#585A5B" transform="translate(250,163)"/>
<path d="M0 0 C0 0.66 0 1.32 0 2 C-8.42857143 3.28571429 -8.42857143 3.28571429 -13 2 C-13.33 5.3 -13.66 8.6 -14 12 C-14.66 12 -15.32 12 -16 12 C-16 8.37 -16 4.74 -16 1 C-13.89594609 0.83191581 -11.79175242 0.66558052 -9.6875 0.5 C-8.51574219 0.4071875 -7.34398437 0.314375 -6.13671875 0.21875 C-4.094806 0.07635011 -2.0468721 0 0 0 Z " fill="#FEBF10" transform="translate(216,137)"/>
<path d="M0 0 C2.64 0 5.28 0 8 0 C8 0.33 8 0.66 8 1 C6.02 1.66 4.04 2.32 2 3 C1.67 5.64 1.34 8.28 1 11 C4.3 11 7.6 11 11 11 C11 7.7 11 4.4 11 1 C11.33 1 11.66 1 12 1 C12 4.63 12 8.26 12 12 C8.04 12 4.08 12 0 12 C0 8.04 0 4.08 0 0 Z " fill="#F4920B" transform="translate(201,126)"/>
<path d="M0 0 C1.32 0.33 2.64 0.66 4 1 C3.34 1 2.68 1 2 1 C2.01160156 1.85464844 2.02320313 2.70929687 2.03515625 3.58984375 C2.04417969 4.69457031 2.05320313 5.79929687 2.0625 6.9375 C2.07410156 8.03964844 2.08570313 9.14179687 2.09765625 10.27734375 C2 13 2 13 1 14 C-1.01964199 14.07244053 -3.04167124 14.08377188 -5.0625 14.0625 C-6.16722656 14.05347656 -7.27195313 14.04445313 -8.41015625 14.03515625 C-9.69212891 14.01775391 -9.69212891 14.01775391 -11 14 C-11 13.67 -11 13.34 -11 13 C-5.555 12.505 -5.555 12.505 0 12 C0 8.04 0 4.08 0 0 Z " fill="#D2C9CB" transform="translate(211,24)"/>
<path d="M0 0 C1.32 0.33 2.64 0.66 4 1 C3.67 3.31 3.34 5.62 3 8 C0.36 8 -2.28 8 -5 8 C-5 6.68 -5 5.36 -5 4 C-3.5459375 3.814375 -3.5459375 3.814375 -2.0625 3.625 C-0.5465625 3.315625 -0.5465625 3.315625 1 3 C1.33 2.34 1.66 1.68 2 1 C1.34 0.67 0.68 0.34 0 0 Z " fill="#232C34" transform="translate(169,164)"/>
<path d="M0 0 C0.33 0 0.66 0 1 0 C1 3.96 1 7.92 1 12 C4.96 12 8.92 12 13 12 C13 12.33 13 12.66 13 13 C8.38 13 3.76 13 -1 13 C-2.16619714 8.33521145 -1.76990451 5.6964175 -1 1 C-0.67 0.67 -0.34 0.34 0 0 Z " fill="#8B4642" transform="translate(249,88)"/>
<path d="M0 0 C2.31 0 4.62 0 7 0 C6.67 0.99 6.34 1.98 6 3 C5.01 3 4.02 3 3 3 C3.33 4.32 3.66 5.64 4 7 C2.02 7.99 2.02 7.99 0 9 C0 6.03 0 3.06 0 0 Z " fill="#2F2821" transform="translate(175,151)"/>
<path d="M0 0 C0.33 0 0.66 0 1 0 C1 3.63 1 7.26 1 11 C4.63 11 8.26 11 12 11 C12 11.66 12 12.32 12 13 C10.18818595 13.19401633 8.37551468 13.38004375 6.5625 13.5625 C5.04849609 13.71912109 5.04849609 13.71912109 3.50390625 13.87890625 C2.67761719 13.91886719 1.85132813 13.95882812 1 14 C0 13 0 13 -0.09765625 10.05859375 C-0.08605469 8.86363281 -0.07445312 7.66867188 -0.0625 6.4375 C-0.05347656 5.23996094 -0.04445312 4.04242188 -0.03515625 2.80859375 C-0.02355469 1.88175781 -0.01195312 0.95492187 0 0 Z " fill="#F58917" transform="translate(237,126)"/>
<path d="M0 0 C0 3.96 0 7.92 0 12 C-3.96 12 -7.92 12 -12 12 C-12 11.67 -12 11.34 -12 11 C-8.7 10.67 -5.4 10.34 -2 10 C-2.33 7.03 -2.66 4.06 -3 1 C-1 0 -1 0 0 0 Z " fill="#86453C" transform="translate(250,38)"/>
<path d="M0 0 C0.66 0 1.32 0 2 0 C2.05423638 1.91635217 2.09289963 3.83314925 2.125 5.75 C2.14820313 6.81734375 2.17140625 7.8846875 2.1953125 8.984375 C2.00487687 11.92470106 1.52670104 13.52361878 0 16 C-1.32 16 -2.64 16 -4 16 C-4 15.34 -4 14.68 -4 14 C-5.98 14 -7.96 14 -10 14 C-10 13.67 -10 13.34 -10 13 C-6.7 13 -3.4 13 0 13 C0 8.71 0 4.42 0 0 Z " fill="#C6E5F3" transform="translate(250,38)"/>
<path d="M0 0 C0.33 0 0.66 0 1 0 C1.06058594 0.63808594 1.12117187 1.27617187 1.18359375 1.93359375 C1.26738281 2.75988281 1.35117188 3.58617187 1.4375 4.4375 C1.51871094 5.26121094 1.59992188 6.08492187 1.68359375 6.93359375 C1.78930815 8.98662025 1.78930815 8.98662025 3 10 C4.68183948 10.23287008 6.3712416 10.41264166 8.0625 10.5625 C8.98160156 10.64628906 9.90070313 10.73007812 10.84765625 10.81640625 C11.55792969 10.87699219 12.26820313 10.93757813 13 11 C13 11.66 13 12.32 13 13 C8.71 12.67 4.42 12.34 0 12 C0 8.04 0 4.08 0 0 Z " fill="#D5CACF" transform="translate(237,25)"/>
<path d="M0 0 C0.33 0 0.66 0 1 0 C1.33 3.96 1.66 7.92 2 12 C-7.1796875 12.1953125 -7.1796875 12.1953125 -10 12 C-10.66 11.34 -11.32 10.68 -12 10 C-10.35 9.67 -8.7 9.34 -7 9 C-7 9.66 -7 10.32 -7 11 C-4.69 11 -2.38 11 0 11 C0 7.37 0 3.74 0 0 Z " fill="#C2E1EC" transform="translate(135,288)"/>
<path d="M0 0 C0.33 0.66 0.66 1.32 1 2 C2.65 1.34 4.3 0.68 6 0 C6 1.98 6 3.96 6 6 C4.02 6 2.04 6 0 6 C-0.38218767 4.34385343 -0.71395102 2.67542976 -1 1 C-0.67 0.67 -0.34 0.34 0 0 Z " fill="#FC6304" transform="translate(192,142)"/>
<path d="M0 0 C2 3 2 3 1.7578125 5.48046875 C1.54898437 6.37378906 1.34015625 7.26710937 1.125 8.1875 C0.92132813 9.08855469 0.71765625 9.98960937 0.5078125 10.91796875 C0.25644531 11.94857422 0.25644531 11.94857422 0 13 C-0.99 13.33 -1.98 13.66 -3 14 C-2.69147815 12.041036 -2.3780582 10.08284287 -2.0625 8.125 C-1.88847656 7.03445312 -1.71445312 5.94390625 -1.53515625 4.8203125 C-1 2 -1 2 0 0 Z " fill="#C3DADF" transform="translate(339,189)"/>
<path d="M0 0 C0.33 0 0.66 0 1 0 C1 1.98 1 3.96 1 6 C-1.31 6 -3.62 6 -6 6 C-6 4.35 -6 2.7 -6 1 C-4.02 1.66 -2.04 2.32 0 3 C0 2.01 0 1.02 0 0 Z " fill="#F63709" transform="translate(246,129)"/>
<path d="M0 0 C0.66 0 1.32 0 2 0 C2.33 1.32 2.66 2.64 3 4 C2.34 4 1.68 4 1 4 C1 10.27 1 16.54 1 23 C0.67 23 0.34 23 0 23 C0 15.41 0 7.82 0 0 Z " fill="#625450" transform="translate(213,88)"/>
<path d="M0 0 C0.66 0 1.32 0 2 0 C2.02687279 1.81242052 2.04633715 3.62495233 2.0625 5.4375 C2.07410156 6.44683594 2.08570313 7.45617187 2.09765625 8.49609375 C2 11 2 11 1 12 C-0.66617115 12.04063832 -2.33388095 12.042721 -4 12 C-3.01 11.34 -2.02 10.68 -1 10 C-0.41810734 7.57478506 -0.41810734 7.57478506 -0.3125 4.875 C-0.21388672 3.50988281 -0.21388672 3.50988281 -0.11328125 2.1171875 C-0.07589844 1.41851562 -0.03851563 0.71984375 0 0 Z " fill="#7A564B" transform="translate(323,200)"/>
<path d="M0 0 C0.66 0 1.32 0 2 0 C2 2.64 2 5.28 2 8 C0.35 8 -1.3 8 -3 8 C-3 7.34 -3 6.68 -3 6 C-1.68 6 -0.36 6 1 6 C1 5.34 1 4.68 1 4 C-0.65 4 -2.3 4 -4 4 C-4 3.34 -4 2.68 -4 2 C-2.68 2 -1.36 2 0 2 C0 1.34 0 0.68 0 0 Z " fill="#392B27" transform="translate(260,154)"/>
<path d="M0 0 C0.66 0.33 1.32 0.66 2 1 C4.09048049 1.58794764 5.82365547 2 8 2 C8 2.99 8 3.98 8 5 C5.03 5 2.06 5 -1 5 C-0.67 3.35 -0.34 1.7 0 0 Z " fill="#7D1C07" transform="translate(251,101)"/>
<path d="M0 0 C0.33 0.66 0.66 1.32 1 2 C1.66 2 2.32 2 3 2 C3 3.98 3 5.96 3 8 C1.68 8 0.36 8 -1 8 C-1.04241723 5.66705225 -1.04092937 3.33297433 -1 1 C-0.67 0.67 -0.34 0.34 0 0 Z " fill="#89160C" transform="translate(245,40)"/>
<path d="M0 0 C2.97 0 5.94 0 9 0 C9.33 0.99 9.66 1.98 10 3 C7.03 3 4.06 3 1 3 C0.67 2.01 0.34 1.02 0 0 Z " fill="#676470" transform="translate(263,165)"/>
<path d="M0 0 C0.99 0 1.98 0 3 0 C3 3.3 3 6.6 3 10 C0.36 10 -2.28 10 -5 10 C-4.38125 9.71125 -3.7625 9.4225 -3.125 9.125 C-0.86674235 8.06279958 -0.86674235 8.06279958 1 6 C0.67801034 2.90073181 0.67801034 2.90073181 0 0 Z " fill="#E96F06" transform="translate(209,127)"/>
<path d="M0 0 C0.99 0 1.98 0 3 0 C3 3.96 3 7.92 3 12 C0.52075165 8.28112748 -0.08484002 5.36460914 -1 1 C-0.67 0.67 -0.34 0.34 0 0 Z " fill="#C6D3DF" transform="translate(185,100)"/>
<path d="M0 0 C2.97 0.495 2.97 0.495 6 1 C6 1.99 6 2.98 6 4 C4.35 4 2.7 4 1 4 C1 6.31 1 8.62 1 11 C0.67 11 0.34 11 0 11 C0 7.37 0 3.74 0 0 Z " fill="#91362E" transform="translate(200,88)"/>
<path d="M0 0 C3.96 0 7.92 0 12 0 C12 1.98 12 3.96 12 6 C11.34 6 10.68 6 10 6 C9.67 4.35 9.34 2.7 9 1 C6.03 1 3.06 1 0 1 C0 0.67 0 0.34 0 0 Z " fill="#524E4B" transform="translate(250,162)"/>
<path d="M0 0 C2.31 0.33 4.62 0.66 7 1 C6.67 1.99 6.34 2.98 6 4 C4.35 4 2.7 4 1 4 C0.67 2.68 0.34 1.36 0 0 Z " fill="#30271E" transform="translate(164,164)"/>
<path d="M0 0 C0.33 0 0.66 0 1 0 C1 2.31 1 4.62 1 7 C-2.3 7 -5.6 7 -9 7 C-9 6.67 -9 6.34 -9 6 C-7.88625 5.7525 -6.7725 5.505 -5.625 5.25 C-1.95384802 4.38994661 -1.95384802 4.38994661 -0.5625 1.875 C-0.376875 1.25625 -0.19125 0.6375 0 0 Z " fill="#FCA412" transform="translate(249,142)"/>
<path d="M0 0 C2.31 0 4.62 0 7 0 C7 0.66 7 1.32 7 2 C4.09399739 3.25664978 2.20395416 4 -1 4 C-0.67 2.68 -0.34 1.36 0 0 Z " fill="#515D59" transform="translate(243,208)"/>
<path d="M0 0 C2.64 0 5.28 0 8 0 C8 0.33 8 0.66 8 1 C6.02 1.66 4.04 2.32 2 3 C1.67 5.64 1.34 8.28 1 11 C0.67 11 0.34 11 0 11 C0 7.37 0 3.74 0 0 Z " fill="#D3773C" transform="translate(201,126)"/>
<path d="M0 0 C0.99 0 1.98 0 3 0 C3 0.99 3 1.98 3 3 C4.32 3.33 5.64 3.66 7 4 C7 4.66 7 5.32 7 6 C5.35 6 3.7 6 2 6 C1.34 4.02 0.68 2.04 0 0 Z " fill="#402D32" transform="translate(205,294)"/>
<path d="M0 0 C0.99 0 1.98 0 3 0 C3 3.96 3 7.92 3 12 C2.34 12 1.68 12 1 12 C1.020625 10.7625 1.04125 9.525 1.0625 8.25 C1.06766681 5.3359175 0.93015558 2.79046673 0 0 Z " fill="#FBEEF8" transform="translate(234,225)"/>
<path d="M0 0 C1.65 0 3.3 0 5 0 C4.34 1.32 3.68 2.64 3 4 C1.68 4 0.36 4 -1 4 C-0.67 2.68 -0.34 1.36 0 0 Z " fill="#263839" transform="translate(194,296)"/>
<path d="M0 0 C2.97 0 5.94 0 9 0 C9 0.33 9 0.66 9 1 C6 2 3 3 0 4 C0 2.68 0 1.36 0 0 Z " fill="#C6E4F8" transform="translate(327,200)"/>
</svg>
