<?xml version="1.0" encoding="UTF-8"?>
<svg version="1.1" xmlns="http://www.w3.org/2000/svg" width="257" height="257">
<path d="M0 0 C84.81 0 169.62 0 257 0 C257 84.81 257 169.62 257 257 C172.19 257 87.38 257 0 257 C0 172.19 0 87.38 0 0 Z " fill="#548563" transform="translate(0,0)"/>
<path d="M0 0 C84.81 0 169.62 0 257 0 C257 24.09 257 48.18 257 73 C251.72 73 246.44 73 241 73 C241 75.31 241 77.62 241 80 C239.68 80.33 238.36 80.66 237 81 C237 79.68 237 78.36 237 77 C235.68 77 234.36 77 233 77 C233 77.99 233 78.98 233 80 C232.01 80 231.02 80 230 80 C230 79.01 230 78.02 230 77 C228.68 77 227.36 77 226 77 C225.67 76.01 225.34 75.02 225 74 C224.01 73.67 223.02 73.34 222 73 C222 74.65 222 76.3 222 78 C222.99 78 223.98 78 225 78 C225 80.31 225 82.62 225 85 C222.69 85 220.38 85 218 85 C218 82.36 218 79.72 218 77 C216.01508358 77.26676204 216.01508358 77.26676204 214 78 C213.67 78.99 213.34 79.98 213 81 C211.02 81 209.04 81 207 81 C207 80.01 207 79.02 207 78 C208.32 78 209.64 78 211 78 C211 76.35 211 74.7 211 73 C202.585 73.495 202.585 73.495 194 74 C194 74.99 194 75.98 194 77 C192.68 77 191.36 77 190 77 C190 79.64 190 82.28 190 85 C186.37 85 182.74 85 179 85 C179 83.68 179 82.36 179 81 C177.68 81 176.36 81 175 81 C175 82.32 175 83.64 175 85 C174.01 85 173.02 85 172 85 C172 87.64 172 90.28 172 93 C168.04 93 164.08 93 160 93 C160 91.68 160 90.36 160 89 C158.68 89 157.36 89 156 89 C156 92.96 156 96.92 156 101 C153.36 101 150.72 101 148 101 C148 95.72 148 90.44 148 85 C144.04 85 140.08 85 136 85 C136 84.01 136 83.02 136 82 C139.96 82 143.92 82 148 82 C148 80.68 148 79.36 148 78 C149.32 78 150.64 78 152 78 C152 76.68 152 75.36 152 74 C150.68 74 149.36 74 148 74 C148 71.36 148 68.72 148 66 C146.68 66 145.36 66 144 66 C144 68.64 144 71.28 144 74 C142.68 74 141.36 74 140 74 C140 71.36 140 68.72 140 66 C137.69 66 135.38 66 133 66 C133 67.32 133 68.64 133 70 C130.36 70 127.72 70 125 70 C125 68.68 125 67.36 125 66 C123.68 66.33 122.36 66.66 121 67 C121 67.99 121 68.98 121 70 C120.01 70 119.02 70 118 70 C118 71.32 118 72.64 118 74 C115.03 74 112.06 74 109 74 C109 77.63 109 81.26 109 85 C105.37 85 101.74 85 98 85 C98 84.01 98 83.02 98 82 C96.68 82 95.36 82 94 82 C94 84.31 94 86.62 94 89 C90.37 89.33 86.74 89.66 83 90 C83 90.99 83 91.98 83 93 C80.36 93.33 77.72 93.66 75 94 C74.505 95.485 74.505 95.485 74 97 C71.69 97 69.38 97 67 97 C66.67 93.37 66.34 89.74 66 86 C65.01 86 64.02 86 63 86 C63 88.64 63 91.28 63 94 C58.05 94 53.1 94 48 94 C48 96.64 48 99.28 48 102 C45.36 102 42.72 102 40 102 C40 100.68 40 99.36 40 98 C37.36 98 34.72 98 32 98 C32 99.32 32 100.64 32 102 C29.36 102 26.72 102 24 102 C24 100.68 24 99.36 24 98 C23.01 98 22.02 98 21 98 C21 96.68 21 95.36 21 94 C19.35 94 17.7 94 16 94 C16 95.32 16 96.64 16 98 C13.69 98 11.38 98 9 98 C9 99.32 9 100.64 9 102 C6.36 102 3.72 102 1 102 C-7.24660754 69.01356983 0 34.00163395 0 0 Z " fill="#3F6754" transform="translate(0,0)"/>
<path d="M0 0 C0.78375 0.185625 1.5675 0.37125 2.375 0.5625 C4.97089775 1.25962266 4.97089775 1.25962266 7 0 C8.09838815 16.67196306 8.10875887 33.30133036 8 50 C10.31 50 12.62 50 15 50 C15 47.36 15 44.72 15 42 C17.64 42 20.28 42 23 42 C23 44.64 23 47.28 23 50 C24.32 50 25.64 50 27 50 C27 48.68 27 47.36 27 46 C29.64 46 32.28 46 35 46 C35 48.64 35 51.28 35 54 C35.99 54 36.98 54 38 54 C38 52.68 38 51.36 38 50 C39.32 50 40.64 50 42 50 C42 48.68 42 47.36 42 46 C44.64 46 47.28 46 50 46 C50 48.64 50 51.28 50 54 C49.01 54 48.02 54 47 54 C47 55.32 47 56.64 47 58 C50.465 57.505 50.465 57.505 54 57 C54 56.01 54 55.02 54 54 C57.96 54 61.92 54 66 54 C66 54.99 66 55.98 66 57 C70.95 57 75.9 57 81 57 C81 55.68 81 54.36 81 53 C82.32 53 83.64 53 85 53 C85 53.66 85 54.32 85 55 C86.32 55 87.64 55 89 55 C89 51.7 89 48.4 89 45 C91.64 45 94.28 45 97 45 C97 47.64 97 50.28 97 53 C99.64 53 102.28 53 105 53 C105.33 51.68 105.66 50.36 106 49 C106.66 49 107.32 49 108 49 C108 51.64 108 54.28 108 57 C109.32 57 110.64 57 112 57 C112 55.68 112 54.36 112 53 C114.64 53 117.28 53 120 53 C120 55.64 120 58.28 120 61 C123.96 61 127.92 61 132 61 C132 59.68 132 58.36 132 57 C134.31 57 136.62 57 139 57 C139 55.68 139 54.36 139 53 C140.32 53 141.64 53 143 53 C143 49.04 143 45.08 143 41 C144.32 41 145.64 41 147 41 C147 44.96 147 48.92 147 53 C149.64 53 152.28 53 155 53 C155 51.68 155 50.36 155 49 C156.32 49 157.64 49 159 49 C159 47.68 159 46.36 159 45 C157.68 45 156.36 45 155 45 C155 43.68 155 42.36 155 41 C156.32 41 157.64 41 159 41 C159 40.01 159 39.02 159 38 C159.99 38 160.98 38 162 38 C162 38.99 162 39.98 162 41 C163.65 41 165.3 41 167 41 C167 40.01 167 39.02 167 38 C167.99 38 168.98 38 170 38 C170 41.63 170 45.26 170 49 C172.64 49 175.28 49 178 49 C178 47.68 178 46.36 178 45 C180.64 45 183.28 45 186 45 C186 43.68 186 42.36 186 41 C187.32 41 188.64 41 190 41 C190 38.69 190 36.38 190 34 C191.984375 34.98828125 191.984375 34.98828125 194 37 C194.29561076 39.87038052 194.37943016 42.33754745 194.25 45.1875 C194.23195312 45.93708984 194.21390625 46.68667969 194.1953125 47.45898438 C194.14824109 49.3065371 194.07649766 51.15343159 194 53 C195.32 53 196.64 53 198 53 C198 56.63 198 60.26 198 64 C198.99 64 199.98 64 201 64 C201 61.69 201 59.38 201 57 C202.32 57 203.64 57 205 57 C205 63.27 205 69.54 205 76 C206.32 76 207.64 76 209 76 C209 77.32 209 78.64 209 80 C211.64 80 214.28 80 217 80 C217 80.99 217 81.98 217 83 C218.32 83 219.64 83 221 83 C221 81.68 221 80.36 221 79 C222.32 79 223.64 79 225 79 C224.67 78.01 224.34 77.02 224 76 C224 73.36 224 70.72 224 68 C229.28 68 234.56 68 240 68 C240 86.48 240 104.96 240 124 C155.19 124 70.38 124 -17 124 C-17 85.39 -17 46.78 -17 7 C-10.07 7 -3.14 7 4 7 C4 8.32 4 9.64 4 11 C4.66 11 5.32 11 6 11 C5.67 8.69 5.34 6.38 5 4 C3.35 4 1.7 4 0 4 C0 2.68 0 1.36 0 0 Z " fill="#70B772" transform="translate(17,133)"/>
<path d="M0 0 C0.87935211 0.00141495 1.75870422 0.0028299 2.66470337 0.00428772 C5.45619192 0.00985748 8.24759844 0.02240435 11.0390625 0.03515625 C12.93880092 0.04017516 14.8385406 0.04473738 16.73828125 0.04882812 C21.38023964 0.059817 26.02213719 0.07706068 30.6640625 0.09765625 C30.6640625 1.41765625 30.6640625 2.73765625 30.6640625 4.09765625 C33.3040625 4.09765625 35.9440625 4.09765625 38.6640625 4.09765625 C38.6640625 5.41765625 38.6640625 6.73765625 38.6640625 8.09765625 C39.9840625 8.09765625 41.3040625 8.09765625 42.6640625 8.09765625 C42.6640625 9.08765625 42.6640625 10.07765625 42.6640625 11.09765625 C43.9840625 11.42765625 45.3040625 11.75765625 46.6640625 12.09765625 C46.6640625 14.40765625 46.6640625 16.71765625 46.6640625 19.09765625 C47.9840625 19.09765625 49.3040625 19.09765625 50.6640625 19.09765625 C50.6640625 20.41765625 50.6640625 21.73765625 50.6640625 23.09765625 C51.6540625 23.09765625 52.6440625 23.09765625 53.6640625 23.09765625 C53.9940625 21.77765625 54.3240625 20.45765625 54.6640625 19.09765625 C55.6540625 19.09765625 56.6440625 19.09765625 57.6640625 19.09765625 C57.6640625 18.10765625 57.6640625 17.11765625 57.6640625 16.09765625 C64.2640625 16.09765625 70.8640625 16.09765625 77.6640625 16.09765625 C77.6640625 17.08765625 77.6640625 18.07765625 77.6640625 19.09765625 C78.9840625 19.42765625 80.3040625 19.75765625 81.6640625 20.09765625 C81.6640625 21.08765625 81.6640625 22.07765625 81.6640625 23.09765625 C82.9840625 23.09765625 84.3040625 23.09765625 85.6640625 23.09765625 C85.6640625 24.41765625 85.6640625 25.73765625 85.6640625 27.09765625 C87.9740625 27.09765625 90.2840625 27.09765625 92.6640625 27.09765625 C92.6640625 28.41765625 92.6640625 29.73765625 92.6640625 31.09765625 C93.9840625 31.09765625 95.3040625 31.09765625 96.6640625 31.09765625 C96.6640625 37.69765625 96.6640625 44.29765625 96.6640625 51.09765625 C95.6740625 51.09765625 94.6840625 51.09765625 93.6640625 51.09765625 C93.6640625 56.37765625 93.6640625 61.65765625 93.6640625 67.09765625 C93.0040625 67.09765625 92.3440625 67.09765625 91.6640625 67.09765625 C91.6640625 67.75765625 91.6640625 68.41765625 91.6640625 69.09765625 C92.9840625 69.09765625 94.3040625 69.09765625 95.6640625 69.09765625 C95.6640625 70.08765625 95.6640625 71.07765625 95.6640625 72.09765625 C92.1990625 72.59265625 92.1990625 72.59265625 88.6640625 73.09765625 C88.6640625 74.41765625 88.6640625 75.73765625 88.6640625 77.09765625 C87.6740625 77.09765625 86.6840625 77.09765625 85.6640625 77.09765625 C85.3340625 74.78765625 85.0040625 72.47765625 84.6640625 70.09765625 C82.3540625 70.09765625 80.0440625 70.09765625 77.6640625 70.09765625 C77.6640625 72.73765625 77.6640625 75.37765625 77.6640625 78.09765625 C75.0240625 78.09765625 72.3840625 78.09765625 69.6640625 78.09765625 C69.6640625 76.77765625 69.6640625 75.45765625 69.6640625 74.09765625 C66.72962848 74.36422197 66.72962848 74.36422197 63.6640625 75.09765625 C63.0040625 76.08765625 62.3440625 77.07765625 61.6640625 78.09765625 C59.71875 78.390625 59.71875 78.390625 57.5390625 78.28515625 C56.2603125 78.22328125 54.9815625 78.16140625 53.6640625 78.09765625 C53.6640625 76.77765625 53.6640625 75.45765625 53.6640625 74.09765625 C52.6740625 74.09765625 51.6840625 74.09765625 50.6640625 74.09765625 C50.1690625 75.58265625 50.1690625 75.58265625 49.6640625 77.09765625 C43.3940625 77.09765625 37.1240625 77.09765625 30.6640625 77.09765625 C30.6640625 79.73765625 30.6640625 82.37765625 30.6640625 85.09765625 C28.3540625 84.76765625 26.0440625 84.43765625 23.6640625 84.09765625 C23.6640625 82.11765625 23.6640625 80.13765625 23.6640625 78.09765625 C18.3840625 78.09765625 13.1040625 78.09765625 7.6640625 78.09765625 C7.6640625 79.41765625 7.6640625 80.73765625 7.6640625 82.09765625 C5.3540625 82.09765625 3.0440625 82.09765625 0.6640625 82.09765625 C0.3340625 80.77765625 0.0040625 79.45765625 -0.3359375 78.09765625 C-1.3259375 78.42765625 -2.3159375 78.75765625 -3.3359375 79.09765625 C-4.73033414 79.16431001 -6.12763625 79.18303824 -7.5234375 79.16015625 C-8.7815625 79.13953125 -10.0396875 79.11890625 -11.3359375 79.09765625 C-11.8309375 80.58265625 -11.8309375 80.58265625 -12.3359375 82.09765625 C-14.6459375 82.09765625 -16.9559375 82.09765625 -19.3359375 82.09765625 C-19.3359375 79.45765625 -19.3359375 76.81765625 -19.3359375 74.09765625 C-21.6459375 74.09765625 -23.9559375 74.09765625 -26.3359375 74.09765625 C-26.3359375 75.41765625 -26.3359375 76.73765625 -26.3359375 78.09765625 C-29.3059375 78.09765625 -32.2759375 78.09765625 -35.3359375 78.09765625 C-35.3359375 75.78765625 -35.3359375 73.47765625 -35.3359375 71.09765625 C-36.3259375 71.09765625 -37.3159375 71.09765625 -38.3359375 71.09765625 C-38.3359375 73.40765625 -38.3359375 75.71765625 -38.3359375 78.09765625 C-40.9759375 78.09765625 -43.6159375 78.09765625 -46.3359375 78.09765625 C-46.3359375 75.78765625 -46.3359375 73.47765625 -46.3359375 71.09765625 C-48.9759375 71.09765625 -51.6159375 71.09765625 -54.3359375 71.09765625 C-54.3359375 68.45765625 -54.3359375 65.81765625 -54.3359375 63.09765625 C-55.6559375 62.76765625 -56.9759375 62.43765625 -58.3359375 62.09765625 C-58.3359375 54.83765625 -58.3359375 47.57765625 -58.3359375 40.09765625 C-57.0159375 40.09765625 -55.6959375 40.09765625 -54.3359375 40.09765625 C-54.3359375 38.77765625 -54.3359375 37.45765625 -54.3359375 36.09765625 C-52.8509375 35.60265625 -52.8509375 35.60265625 -51.3359375 35.09765625 C-50.25292715 32.80167432 -49.25797459 30.46288183 -48.3359375 28.09765625 C-47.68305123 26.75752128 -47.02368155 25.42024097 -46.3359375 24.09765625 C-43.6959375 24.09765625 -41.0559375 24.09765625 -38.3359375 24.09765625 C-38.3359375 23.10765625 -38.3359375 22.11765625 -38.3359375 21.09765625 C-37.3459375 21.09765625 -36.3559375 21.09765625 -35.3359375 21.09765625 C-35.3359375 19.44765625 -35.3359375 17.79765625 -35.3359375 16.09765625 C-34.0159375 16.09765625 -32.6959375 16.09765625 -31.3359375 16.09765625 C-31.3359375 15.10765625 -31.3359375 14.11765625 -31.3359375 13.09765625 C-30.0159375 13.09765625 -28.6959375 13.09765625 -27.3359375 13.09765625 C-27.3359375 11.11765625 -27.3359375 9.13765625 -27.3359375 7.09765625 C-26.3459375 7.09765625 -25.3559375 7.09765625 -24.3359375 7.09765625 C-24.3359375 6.43765625 -24.3359375 5.77765625 -24.3359375 5.09765625 C-19.8809375 4.60265625 -19.8809375 4.60265625 -15.3359375 4.09765625 C-15.3359375 3.10765625 -15.3359375 2.11765625 -15.3359375 1.09765625 C-10.17525259 0.04289109 -5.23881743 -0.0320374 0 0 Z " fill="#6691CE" transform="translate(94.3359375,92.90234375)"/>
<path d="M0 0 C56.43 0 112.86 0 171 0 C171 12.54 171 25.08 171 38 C170.67 36.68 170.34 35.36 170 34 C168.68 34 167.36 34 166 34 C166 35.32 166 36.64 166 38 C164.68 38 163.36 38 162 38 C162 40.64 162 43.28 162 46 C161.01 46 160.02 46 159 46 C159 42.04 159 38.08 159 34 C157.35 34 155.7 34 154 34 C154 35.32 154 36.64 154 38 C153.01 38 152.02 38 151 38 C151 36.68 151 35.36 151 34 C149.68 34 148.36 34 147 34 C147 35.32 147 36.64 147 38 C145.68 38 144.36 38 143 38 C143 35.69 143 33.38 143 31 C141.68 31 140.36 31 139 31 C139 31.99 139 32.98 139 34 C137.68 34 136.36 34 135 34 C135 33.01 135 32.02 135 31 C133.68 31 132.36 31 131 31 C131 32.32 131 33.64 131 35 C126.05 35 121.1 35 116 35 C116 36.32 116 37.64 116 39 C114.68 39 113.36 39 112 39 C112 37.68 112 36.36 112 35 C110.68 35 109.36 35 108 35 C108 36.32 108 37.64 108 39 C106.68 39 105.36 39 104 39 C104 37.68 104 36.36 104 35 C102.68 35 101.36 35 100 35 C100 37.31 100 39.62 100 42 C99.01 42 98.02 42 97 42 C97 41.01 97 40.02 97 39 C95.68 39 94.36 39 93 39 C93 40.32 93 41.64 93 43 C91.68 43 90.36 43 89 43 C89 43.99 89 44.98 89 46 C82.4 46 75.8 46 69 46 C69 47.32 69 48.64 69 50 C68.01 50 67.02 50 66 50 C66 45.05 66 40.1 66 35 C70.95 35 75.9 35 81 35 C81 33.68 81 32.36 81 31 C83.64 31 86.28 31 89 31 C89 29.68 89 28.36 89 27 C83.72 27 78.44 27 73 27 C73 28.32 73 29.64 73 31 C69.37 31 65.74 31 62 31 C62 29.68 62 28.36 62 27 C60.68 27 59.36 27 58 27 C58 28.32 58 29.64 58 31 C55.36 31 52.72 31 50 31 C50 29.68 50 28.36 50 27 C47.36 27 44.72 27 42 27 C42 28.32 42 29.64 42 31 C39.36 31 36.72 31 34 31 C34 29.68 34 28.36 34 27 C33.01 27 32.02 27 31 27 C31 24.36 31 21.72 31 19 C28.36 19 25.72 19 23 19 C23 21.64 23 24.28 23 27 C19.04 27 15.08 27 11 27 C11 29.64 11 32.28 11 35 C9.68 35 8.36 35 7 35 C7 37.64 7 40.28 7 43 C4.69 43 2.38 43 0 43 C0 44.32 0 45.64 0 47 C-1.32 47 -2.64 47 -4 47 C-4 48.32 -4 49.64 -4 51 C-6.64 51 -9.28 51 -12 51 C-12 52.32 -12 53.64 -12 55 C-12.99 55 -13.98 55 -15 55 C-15 56.32 -15 57.64 -15 59 C-16.65 59 -18.3 59 -20 59 C-20 60.32 -20 61.64 -20 63 C-22.31 63 -24.62 63 -27 63 C-27 61.68 -27 60.36 -27 59 C-29.64 59 -32.28 59 -35 59 C-35 60.32 -35 61.64 -35 63 C-36.32 63 -37.64 63 -39 63 C-39 64.32 -39 65.64 -39 67 C-41.31 67 -43.62 67 -46 67 C-46 68.32 -46 69.64 -46 71 C-47.32 71 -48.64 71 -50 71 C-50 72.32 -50 73.64 -50 75 C-51.32 75 -52.64 75 -54 75 C-54 73.35 -54 71.7 -54 70 C-54.99 70 -55.98 70 -57 70 C-57 69.01 -57 68.02 -57 67 C-54.69 67 -52.38 67 -50 67 C-50 65.68 -50 64.36 -50 63 C-48.68 63 -47.36 63 -46 63 C-46.495 61.515 -46.495 61.515 -47 60 C-45.33657163 58.33657163 -43.2174291 58.63951903 -40.9375 58.4375 C-40.01839844 58.35371094 -39.09929688 58.26992188 -38.15234375 58.18359375 C-37.44207031 58.12300781 -36.73179688 58.06242187 -36 58 C-35.53477707 53.20691658 -35.53477707 53.20691658 -37.5 49.0625 C-38.2425 48.5365625 -38.2425 48.5365625 -39 48 C-37.25 44.125 -37.25 44.125 -35 43 C-34.67 42.01 -34.34 41.02 -34 40 C-33.34 40 -32.68 40 -32 40 C-32 41.32 -32 42.64 -32 44 C-29.03 44 -26.06 44 -23 44 C-23 41.69 -23 39.38 -23 37 C-24.32 36.34 -25.64 35.68 -27 35 C-27 34.01 -27 33.02 -27 32 C-26.01 32 -25.02 32 -24 32 C-24 30.68 -24 29.36 -24 28 C-22.35 28 -20.7 28 -19 28 C-19.495 24.535 -19.495 24.535 -20 21 C-22.31 20.67 -24.62 20.34 -27 20 C-27 18.68 -27 17.36 -27 16 C-22.05 16 -17.1 16 -12 16 C-12 12.04 -12 8.08 -12 4 C-10.68 4 -9.36 4 -8 4 C-8 5.32 -8 6.64 -8 8 C-5.36 8 -2.72 8 0 8 C0 5.36 0 2.72 0 0 Z " fill="#283034" transform="translate(86,0)"/>
<path d="M0 0 C1.65 0 3.3 0 5 0 C5 1.32 5 2.64 5 4 C7.64 4 10.28 4 13 4 C13 2.68 13 1.36 13 0 C15.31 0 17.62 0 20 0 C20 2.64 20 5.28 20 8 C21.32 8 22.64 8 24 8 C24 5.36 24 2.72 24 0 C25.32 0 26.64 0 28 0 C28 2.64 28 5.28 28 8 C29.32 8 30.64 8 32 8 C32 9.32 32 10.64 32 12 C30.68 12 29.36 12 28 12 C28 13.32 28 14.64 28 16 C24.04 16 20.08 16 16 16 C16 16.99 16 17.98 16 19 C19.96 19 23.92 19 28 19 C28 24.28 28 29.56 28 35 C30.64 35 33.28 35 36 35 C36 31.04 36 27.08 36 23 C37.32 23 38.64 23 40 23 C40 24.32 40 25.64 40 27 C43.96 27 47.92 27 52 27 C52 24.36 52 21.72 52 19 C52.99 19 53.98 19 55 19 C55 17.68 55 16.36 55 15 C56.32 15 57.64 15 59 15 C59 16.32 59 17.64 59 19 C62.63 19 66.26 19 70 19 C70 16.36 70 13.72 70 11 C71.32 11 72.64 11 74 11 C74 10.01 74 9.02 74 8 C77.60993172 6.86519473 80.9842327 6.89984233 84.75 6.9375 C86.50570312 6.95103516 86.50570312 6.95103516 88.296875 6.96484375 C89.18890625 6.97644531 90.0809375 6.98804687 91 7 C91 8.65 91 10.3 91 12 C89.68 12 88.36 12 87 12 C87 12.99 87 13.98 87 15 C91.1263531 14.54151632 93.25990785 14.15110598 96 11 C96.66 11 97.32 11 98 11 C98 13.64 98 16.28 98 19 C100.31 19 102.62 19 105 19 C105 16.69 105 14.38 105 12 C104.01 12 103.02 12 102 12 C102 10.35 102 8.7 102 7 C103.98 7.495 103.98 7.495 106 8 C106 8.99 106 9.98 106 11 C107.32 11 108.64 11 110 11 C110 11.99 110 12.98 110 14 C110.99 14 111.98 14 113 14 C113 13.01 113 12.02 113 11 C114.32 11 115.64 11 117 11 C117 12.32 117 13.64 117 15 C117.99 14.67 118.98 14.34 120 14 C120.33 11.69 120.66 9.38 121 7 C126.28 7 131.56 7 137 7 C137 8.32 137 9.64 137 11 C135.68 11 134.36 11 133 11 C133 13.64 133 16.28 133 19 C131.68 19 130.36 19 129 19 C129 19.99 129 20.98 129 22 C127.68 22 126.36 22 125 22 C125 23.32 125 24.64 125 26 C121.37 26 117.74 26 114 26 C114 28.64 114 31.28 114 34 C117.63 34 121.26 34 125 34 C125 35.32 125 36.64 125 38 C121.37 38.33 117.74 38.66 114 39 C113.67 39.99 113.34 40.98 113 42 C112.01 42 111.02 42 110 42 C110 39.36 110 36.72 110 34 C107.36 34 104.72 34 102 34 C102 36.64 102 39.28 102 42 C99.69 42 97.38 42 95 42 C95 39.69 95 37.38 95 35 C95.99 35 96.98 35 98 35 C98 33.68 98 32.36 98 31 C93.05 31 88.1 31 83 31 C83 32.32 83 33.64 83 35 C81.68 35 80.36 35 79 35 C79 37.64 79 40.28 79 43 C76.36 43 73.72 43 71 43 C71 41.68 71 40.36 71 39 C69.68 39 68.36 39 67 39 C67 39.99 67 40.98 67 42 C65.68 42 64.36 42 63 42 C63 43.32 63 44.64 63 46 C62.01 46.33 61.02 46.66 60 47 C60 47.99 60 48.98 60 50 C58.68 50 57.36 50 56 50 C55.67 49.01 55.34 48.02 55 47 C54.01 46.67 53.02 46.34 52 46 C52 45.01 52 44.02 52 43 C45.4 43 38.8 43 32 43 C32 43.99 32 44.98 32 46 C31.01 46.33 30.02 46.66 29 47 C28.67 47.99 28.34 48.98 28 50 C27.01 50 26.02 50 25 50 C25 48.68 25 47.36 25 46 C23.68 46 22.36 46 21 46 C21 43.69 21 41.38 21 39 C19.35 39 17.7 39 16 39 C16.33 37.68 16.66 36.36 17 35 C15.68 35 14.36 35 13 35 C13 33.68 13 32.36 13 31 C10.36 31 7.72 31 5 31 C5 29.68 5 28.36 5 27 C-10.18 27.33 -25.36 27.66 -41 28 C-41 28.99 -41 29.98 -41 31 C-43.97 31.33 -46.94 31.66 -50 32 C-50 32.66 -50 33.32 -50 34 C-50.99 34 -51.98 34 -53 34 C-53 35.98 -53 37.96 -53 40 C-54.32 40 -55.64 40 -57 40 C-57 40.99 -57 41.98 -57 43 C-58.32 43 -59.64 43 -61 43 C-61 44.65 -61 46.3 -61 48 C-61.99 48 -62.98 48 -64 48 C-64 48.99 -64 49.98 -64 51 C-66.64 51 -69.28 51 -72 51 C-72.18369141 51.85851562 -72.18369141 51.85851562 -72.37109375 52.734375 C-73.02762868 55.09953191 -73.93723512 57.07206797 -75.0625 59.25 C-75.42472656 59.95640625 -75.78695312 60.6628125 -76.16015625 61.390625 C-76.43730469 61.92171875 -76.71445313 62.4528125 -77 63 C-77.99 63 -78.98 63 -80 63 C-80 64.32 -80 65.64 -80 67 C-81.32 67 -82.64 67 -84 67 C-83.67 74.26 -83.34 81.52 -83 89 C-82.01 89.33 -81.02 89.66 -80 90 C-80 92.64 -80 95.28 -80 98 C-82.64 98 -85.28 98 -88 98 C-88 96.68 -88 95.36 -88 94 C-90.31 94 -92.62 94 -95 94 C-95.91122528 88.35652914 -96.29774046 82.77002113 -96.5625 77.0625 C-96.60568359 76.18787109 -96.64886719 75.31324219 -96.69335938 74.41210938 C-96.79846901 72.27488005 -96.89963985 70.13745762 -97 68 C-97.99 68.99 -97.99 68.99 -99 70 C-99 69.01 -99 68.02 -99 67 C-100.32 67 -101.64 67 -103 67 C-103 68.32 -103 69.64 -103 71 C-101.35 71 -99.7 71 -98 71 C-97.67 73.31 -97.34 75.62 -97 78 C-97.66 78 -98.32 78 -99 78 C-99 76.68 -99 75.36 -99 74 C-105.93 74 -112.86 74 -120 74 C-120 60.14 -120 46.28 -120 32 C-119.67 33.32 -119.34 34.64 -119 36 C-116.36 36 -113.72 36 -111 36 C-111 34.68 -111 33.36 -111 32 C-108.69 32 -106.38 32 -104 32 C-104 30.68 -104 29.36 -104 28 C-102.35 28 -100.7 28 -99 28 C-99 29.32 -99 30.64 -99 32 C-98.01 32 -97.02 32 -96 32 C-96 33.32 -96 34.64 -96 36 C-93.36 36 -90.72 36 -88 36 C-88 34.68 -88 33.36 -88 32 C-85.36 32 -82.72 32 -80 32 C-80 33.32 -80 34.64 -80 36 C-77.36 36 -74.72 36 -72 36 C-72 33.36 -72 30.72 -72 28 C-67.05 28 -62.1 28 -57 28 C-57.495 24.04 -57.495 24.04 -58 20 C-56.0625 19.4375 -56.0625 19.4375 -54 19 C-53 20 -53 20 -52.90234375 22.50390625 C-52.91394531 23.51324219 -52.92554687 24.52257812 -52.9375 25.5625 C-52.94652344 26.57441406 -52.95554687 27.58632812 -52.96484375 28.62890625 C-52.97644531 29.41136719 -52.98804687 30.19382812 -53 31 C-50.69 31 -48.38 31 -46 31 C-45.67 29.68 -45.34 28.36 -45 27 C-42.36 27 -39.72 27 -37 27 C-37 26.01 -37 25.02 -37 24 C-33.37 23.67 -29.74 23.34 -26 23 C-26 20.69 -26 18.38 -26 16 C-24.68 16 -23.36 16 -22 16 C-22 16.99 -22 17.98 -22 19 C-18.37 19 -14.74 19 -11 19 C-11 15.37 -11 11.74 -11 8 C-8.03 8 -5.06 8 -2 8 C-2 6.68 -2 5.36 -2 4 C-1.01 4 -0.02 4 1 4 C0.505 2.02 0.505 2.02 0 0 Z " fill="#558564" transform="translate(120,66)"/>
<path d="M0 0 C2.97 0 5.94 0 9 0 C9.433125 1.134375 9.86625 2.26875 10.3125 3.4375 C10.869375 4.613125 11.42625 5.78875 12 7 C12.99 7.33 13.98 7.66 15 8 C15 10.31 15 12.62 15 15 C14.34 15.33 13.68 15.66 13 16 C13 24.25 13 32.5 13 41 C15.97 41.33 18.94 41.66 22 42 C21.01 42.33 20.02 42.66 19 43 C19 44.32 19 45.64 19 47 C19.99 47 20.98 47 22 47 C22 47.99 22 48.98 22 50 C23.65 50 25.3 50 27 50 C27 52.64 27 55.28 27 58 C25.68 58 24.36 58 23 58 C23 59.32 23 60.64 23 62 C20.36 62 17.72 62 15 62 C15 63.32 15 64.64 15 66 C12.36 66 9.72 66 7 66 C7 62.37 7 58.74 7 55 C6.01 55 5.02 55 4 55 C4 55.99 4 56.98 4 58 C2.35 58 0.7 58 -1 58 C-1 57.01 -1 56.02 -1 55 C-1.99 55 -2.98 55 -4 55 C-4 55.99 -4 56.98 -4 58 C-5.32 58 -6.64 58 -8 58 C-8 59.32 -8 60.64 -8 62 C-6.68 62 -5.36 62 -4 62 C-4 63.32 -4 64.64 -4 66 C-5.32 66 -6.64 66 -8 66 C-8 67.32 -8 68.64 -8 70 C-10.64 70 -13.28 70 -16 70 C-16 66.04 -16 62.08 -16 58 C-17.32 58 -18.64 58 -20 58 C-20 61.96 -20 65.92 -20 70 C-21.32 70 -22.64 70 -24 70 C-24 71.32 -24 72.64 -24 74 C-26.31 74 -28.62 74 -31 74 C-31 75.32 -31 76.64 -31 78 C-34.96 78 -38.92 78 -43 78 C-43 75.36 -43 72.72 -43 70 C-45.64 70 -48.28 70 -51 70 C-51 71.32 -51 72.64 -51 74 C-52.32 74 -53.64 74 -55 74 C-55 71.36 -55 68.72 -55 66 C-55.99 66.495 -55.99 66.495 -57 67 C-57.495 68.485 -57.495 68.485 -58 70 C-60.64 70 -63.28 70 -66 70 C-66 67.36 -66 64.72 -66 62 C-68.64 62 -71.28 62 -74 62 C-74 65.3 -74 68.6 -74 72 C-75.32 72 -76.64 72 -78 72 C-78 71.34 -78 70.68 -78 70 C-79.32 70 -80.64 70 -82 70 C-82 71.32 -82 72.64 -82 74 C-86.95 74 -91.9 74 -97 74 C-97 73.01 -97 72.02 -97 71 C-100.96 71 -104.92 71 -109 71 C-108.67 72.32 -108.34 73.64 -108 75 C-110.64 75 -113.28 75 -116 75 C-116 73.68 -116 72.36 -116 71 C-115.01 71 -114.02 71 -113 71 C-113 68.36 -113 65.72 -113 63 C-115.64 63 -118.28 63 -121 63 C-121 64.32 -121 65.64 -121 67 C-122.32 67 -123.64 67 -125 67 C-125 68.32 -125 69.64 -125 71 C-125.99 71 -126.98 71 -128 71 C-128 68.36 -128 65.72 -128 63 C-130.64 63 -133.28 63 -136 63 C-136 64.32 -136 65.64 -136 67 C-137.32 67 -138.64 67 -140 67 C-140 64.36 -140 61.72 -140 59 C-142.64 59 -145.28 59 -148 59 C-148 61.64 -148 64.28 -148 67 C-150.31 67 -152.62 67 -155 67 C-155 59.41 -155 51.82 -155 44 C-152.69 44 -150.38 44 -148 44 C-148 45.32 -148 46.64 -148 48 C-142.72 48 -137.44 48 -132 48 C-132 50.31 -132 52.62 -132 55 C-129.36 55 -126.72 55 -124 55 C-124 52.69 -124 50.38 -124 48 C-123.01 48 -122.02 48 -121 48 C-121 50.31 -121 52.62 -121 55 C-118.03 55 -115.06 55 -112 55 C-112 53.68 -112 52.36 -112 51 C-109.69 51 -107.38 51 -105 51 C-105 53.64 -105 56.28 -105 59 C-102.6568787 58.74438677 -100.32156597 58.40729228 -98 58 C-97.505 57.01 -97.505 57.01 -97 56 C-94.49609375 55.5859375 -94.49609375 55.5859375 -91.4375 55.375 C-90.42558594 55.30023438 -89.41367188 55.22546875 -88.37109375 55.1484375 C-87.58863281 55.09945312 -86.80617188 55.05046875 -86 55 C-85.67 55.99 -85.34 56.98 -85 58 C-82.69 58.33 -80.38 58.66 -78 59 C-78 57.68 -78 56.36 -78 55 C-72.72 55 -67.44 55 -62 55 C-62 56.98 -62 58.96 -62 61 C-59.69 61.33 -57.38 61.66 -55 62 C-55 59.36 -55 56.72 -55 54 C-48.73 53.67 -42.46 53.34 -36 53 C-35.505 52.01 -35.505 52.01 -35 51 C-34.01 51 -33.02 51 -32 51 C-32 52.32 -32 53.64 -32 55 C-30.081875 54.8453125 -30.081875 54.8453125 -28.125 54.6875 C-27.40570313 54.62949219 -26.68640625 54.57148438 -25.9453125 54.51171875 C-23.60480784 54.12606964 -23.60480784 54.12606964 -22 51 C-18.875 50.8125 -18.875 50.8125 -16 51 C-16 52.32 -16 53.64 -16 55 C-13.36 55 -10.72 55 -8 55 C-8 52.36 -8 49.72 -8 47 C-5.69 47 -3.38 47 -1 47 C-0.67 49.31 -0.34 51.62 0 54 C0.99 54 1.98 54 3 54 C3 52.68 3 51.36 3 50 C6.465 49.505 6.465 49.505 10 49 C10 48.01 10 47.02 10 46 C8.68 46 7.36 46 6 46 C6 45.34 6 44.68 6 44 C6.66 44 7.32 44 8 44 C8 38.72 8 33.44 8 28 C8.99 28 9.98 28 11 28 C11 21.4 11 14.8 11 8 C9.68 8 8.36 8 7 8 C7 6.68 7 5.36 7 4 C4.69 4 2.38 4 0 4 C0 2.68 0 1.36 0 0 Z " fill="#505898" transform="translate(180,116)"/>
<path d="M0 0 C1.32 0.33 2.64 0.66 4 1 C4 7.6 4 14.2 4 21 C2.68 21 1.36 21 0 21 C0 21.99 0 22.98 0 24 C-1.32 24 -2.64 24 -4 24 C-4 25.65 -4 27.3 -4 29 C-4.99 29 -5.98 29 -7 29 C-7 29.99 -7 30.98 -7 32 C-9.64 32 -12.28 32 -15 32 C-15.18369141 32.85851562 -15.18369141 32.85851562 -15.37109375 33.734375 C-16.02762868 36.09953191 -16.93723512 38.07206797 -18.0625 40.25 C-18.42472656 40.95640625 -18.78695312 41.6628125 -19.16015625 42.390625 C-19.43730469 42.92171875 -19.71445312 43.4528125 -20 44 C-20.99 44 -21.98 44 -23 44 C-23 45.32 -23 46.64 -23 48 C-24.32 48 -25.64 48 -27 48 C-26.67 55.26 -26.34 62.52 -26 70 C-25.01 70.33 -24.02 70.66 -23 71 C-23 73.64 -23 76.28 -23 79 C-25.64 79 -28.28 79 -31 79 C-31 77.68 -31 76.36 -31 75 C-33.31 75 -35.62 75 -38 75 C-38.91122528 69.35652914 -39.29774046 63.77002113 -39.5625 58.0625 C-39.60568359 57.18787109 -39.64886719 56.31324219 -39.69335938 55.41210938 C-39.79846901 53.27488005 -39.89963985 51.13745762 -40 49 C-40.66 49.66 -41.32 50.32 -42 51 C-42 50.01 -42 49.02 -42 48 C-43.32 48 -44.64 48 -46 48 C-46 49.32 -46 50.64 -46 52 C-44.35 52 -42.7 52 -41 52 C-40.67 54.31 -40.34 56.62 -40 59 C-40.66 59 -41.32 59 -42 59 C-42 57.68 -42 56.36 -42 55 C-48.93 55 -55.86 55 -63 55 C-63 41.14 -63 27.28 -63 13 C-62.67 14.32 -62.34 15.64 -62 17 C-59.36 17 -56.72 17 -54 17 C-54 15.68 -54 14.36 -54 13 C-51.69 13 -49.38 13 -47 13 C-47 11.68 -47 10.36 -47 9 C-45.35 9 -43.7 9 -42 9 C-42 10.32 -42 11.64 -42 13 C-41.01 13 -40.02 13 -39 13 C-39 14.32 -39 15.64 -39 17 C-36.36 17 -33.72 17 -31 17 C-31 15.68 -31 14.36 -31 13 C-28.36 13 -25.72 13 -23 13 C-23 14.32 -23 15.64 -23 17 C-20.36 17 -17.72 17 -15 17 C-15 14.36 -15 11.72 -15 9 C-10.05 9 -5.1 9 0 9 C-0.185625 7.700625 -0.37125 6.40125 -0.5625 5.0625 C-0.87890625 2.84765625 -0.87890625 2.84765625 -1 1 C-0.67 0.67 -0.34 0.34 0 0 Z " fill="#558763" transform="translate(63,85)"/>
<path d="M0 0 C54.12 0 108.24 0 164 0 C164 6.27 164 12.54 164 19 C163.67 19 163.34 19 163 19 C163 16.36 163 13.72 163 11 C161.68 11 160.36 11 159 11 C158.67 10.01 158.34 9.02 158 8 C157.01 7.67 156.02 7.34 155 7 C155 8.32 155 9.64 155 11 C154.01 11 153.02 11 152 11 C151.67 10.01 151.34 9.02 151 8 C150.34 8 149.68 8 149 8 C148.67 10.31 148.34 12.62 148 15 C145.36 15 142.72 15 140 15 C140 16.32 140 17.64 140 19 C136.04 19 132.08 19 128 19 C128 20.32 128 21.64 128 23 C125.69 23 123.38 23 121 23 C121 21.68 121 20.36 121 19 C113.41 19 105.82 19 98 19 C97.505 17.515 97.505 17.515 97 16 C81.82 16 66.64 16 51 16 C51 14.68 51 13.36 51 12 C36.81 12 22.62 12 8 12 C8 10.68 8 9.36 8 8 C6.68 8 5.36 8 4 8 C4 6.68 4 5.36 4 4 C2.68 4 1.36 4 0 4 C0 2.68 0 1.36 0 0 Z " fill="#314442" transform="translate(93,0)"/>
<path d="M0 0 C3 3.625 3 3.625 3 7 C4.65 7 6.3 7 8 7 C8.33 9.31 8.66 11.62 9 14 C9.66 13.67 10.32 13.34 11 13 C11.33 13.99 11.66 14.98 12 16 C12.99 16 13.98 16 15 16 C15 16.66 15 17.32 15 18 C18.96 18 22.92 18 27 18 C27 19.32 27 20.64 27 22 C28.32 22 29.64 22 31 22 C31 23.32 31 24.64 31 26 C31.99 26 32.98 26 34 26 C34 26.99 34 27.98 34 29 C35.32 29 36.64 29 38 29 C38 30.32 38 31.64 38 33 C39.65 33 41.3 33 43 33 C43 34.32 43 35.64 43 37 C43.99 37 44.98 37 46 37 C46 44.92 46 52.84 46 61 C40.72 61 35.44 61 30 61 C30.495 66.445 30.495 66.445 31 72 C29.68 72 28.36 72 27 72 C27 73.32 27 74.64 27 76 C25.68 76 24.36 76 23 76 C23 75.01 23 74.02 23 73 C20.36 73 17.72 73 15 73 C15 71.68 15 70.36 15 69 C13.68 69 12.36 69 11 69 C11 62.73 11 56.46 11 50 C9.68 50 8.36 50 7 50 C7 52.31 7 54.62 7 57 C6.01 57 5.02 57 4 57 C4 53.37 4 49.74 4 46 C2.68 46 1.36 46 0 46 C0 40.72 0 35.44 0 30 C-0.99 29.67 -1.98 29.34 -3 29 C-3.33 28.01 -3.66 27.02 -4 26 C-3.01 26 -2.02 26 -1 26 C-1 25.01 -1 24.02 -1 23 C0.32 23 1.64 23 3 23 C3 18.71 3 14.42 3 10 C2.01 10 1.02 10 0 10 C0 9.34 0 8.68 0 8 C-1.32 8 -2.64 8 -4 8 C-4 10.31 -4 12.62 -4 15 C-6.64 15 -9.28 15 -12 15 C-12 13.68 -12 12.36 -12 11 C-10.68 11 -9.36 11 -8 11 C-8 9.68 -8 8.36 -8 7 C-6.68 7 -5.36 7 -4 7 C-4 5.68 -4 4.36 -4 3 C-2.68 3 -1.36 3 0 3 C0 2.01 0 1.02 0 0 Z " fill="#578863" transform="translate(211,140)"/>
<path d="M0 0 C1.32 0 2.64 0 4 0 C4 33 4 66 4 100 C3.01 100 2.02 100 1 100 C1 98.68 1 97.36 1 96 C-0.65 96 -2.3 96 -4 96 C-4 94.68 -4 93.36 -4 92 C-5.32 92 -6.64 92 -8 92 C-8 91.01 -8 90.02 -8 89 C-8.99 89 -9.98 89 -11 89 C-11 87.68 -11 86.36 -11 85 C-12.32 85 -13.64 85 -15 85 C-15 83.68 -15 82.36 -15 81 C-18.96 81 -22.92 81 -27 81 C-27 78.69 -27 76.38 -27 74 C-25.68 74 -24.36 74 -23 74 C-23 67.4 -23 60.8 -23 54 C-24.32 54 -25.64 54 -27 54 C-27 51.69 -27 49.38 -27 47 C-24.36 47 -21.72 47 -19 47 C-19 44.36 -19 41.72 -19 39 C-17.68 39 -16.36 39 -15 39 C-15 37.68 -15 36.36 -15 35 C-16.32 35 -17.64 35 -19 35 C-19 32.36 -19 29.72 -19 27 C-15.37 27 -11.74 27 -8 27 C-8 25.68 -8 24.36 -8 23 C-11.63 23 -15.26 23 -19 23 C-19 20.36 -19 17.72 -19 15 C-15.37 15 -11.74 15 -8 15 C-8 13.68 -8 12.36 -8 11 C-6.68 11 -5.36 11 -4 11 C-4 10.01 -4 9.02 -4 8 C-2.68 8 -1.36 8 0 8 C0 5.36 0 2.72 0 0 Z " fill="#323048" transform="translate(253,77)"/>
<path d="M0 0 C0.99 0.33 1.98 0.66 3 1 C2.34 1 1.68 1 1 1 C1 6.28 1 11.56 1 17 C0.34 17 -0.32 17 -1 17 C-1 17.66 -1 18.32 -1 19 C0.32 19 1.64 19 3 19 C3 19.99 3 20.98 3 22 C0.69 22.33 -1.62 22.66 -4 23 C-4 24.32 -4 25.64 -4 27 C-4.99 27 -5.98 27 -7 27 C-7.33 24.69 -7.66 22.38 -8 20 C-10.31 20 -12.62 20 -15 20 C-15 22.64 -15 25.28 -15 28 C-17.64 28 -20.28 28 -23 28 C-23 26.68 -23 25.36 -23 24 C-25.93443402 24.26656572 -25.93443402 24.26656572 -29 25 C-29.99 26.485 -29.99 26.485 -31 28 C-32.9453125 28.29296875 -32.9453125 28.29296875 -35.125 28.1875 C-36.40375 28.125625 -37.6825 28.06375 -39 28 C-39 26.68 -39 25.36 -39 24 C-39.99 24 -40.98 24 -42 24 C-42.495 25.485 -42.495 25.485 -43 27 C-49.27 27 -55.54 27 -62 27 C-62 29.64 -62 32.28 -62 35 C-64.31 34.67 -66.62 34.34 -69 34 C-69 32.02 -69 30.04 -69 28 C-74.28 28 -79.56 28 -85 28 C-85 29.32 -85 30.64 -85 32 C-87.31 32 -89.62 32 -92 32 C-92.495 30.02 -92.495 30.02 -93 28 C-93.99 28.33 -94.98 28.66 -96 29 C-97.39439664 29.06665376 -98.79169875 29.08538199 -100.1875 29.0625 C-102.0746875 29.0315625 -102.0746875 29.0315625 -104 29 C-104.495 30.485 -104.495 30.485 -105 32 C-107.31 32 -109.62 32 -112 32 C-112 29.36 -112 26.72 -112 24 C-114.31 24 -116.62 24 -119 24 C-119 25.32 -119 26.64 -119 28 C-121.97 28 -124.94 28 -128 28 C-128 25.69 -128 23.38 -128 21 C-128.99 21 -129.98 21 -131 21 C-131 23.31 -131 25.62 -131 28 C-133.64 28 -136.28 28 -139 28 C-139.1875 24.6875 -139.1875 24.6875 -139 21 C-137.5 19.375 -137.5 19.375 -136 18 C-135.74930087 15.37429296 -135.74930087 15.37429296 -136 13 C-134.0625 12.4375 -134.0625 12.4375 -132 12 C-131 13 -131 13 -130.9375 16.5625 C-130.958125 17.696875 -130.97875 18.83125 -131 20 C-127.37 20 -123.74 20 -120 20 C-120 18.68 -120 17.36 -120 16 C-118.02 16 -116.04 16 -114 16 C-113.67 13.69 -113.34 11.38 -113 9 C-112.67 9 -112.34 9 -112 9 C-112 11.64 -112 14.28 -112 17 C-108.04 16.505 -108.04 16.505 -104 16 C-104 13.69 -104 11.38 -104 9 C-103.01 8.67 -102.02 8.34 -101 8 C-100.67 5.69 -100.34 3.38 -100 1 C-96.37 1 -92.74 1 -89 1 C-88.505 4.465 -88.505 4.465 -88 8 C-90.92824652 8.97608217 -92.95613276 9.08226668 -96 9 C-96.33 11.31 -96.66 13.62 -97 16 C-89.08 15.505 -89.08 15.505 -81 15 C-80.505 17.475 -80.505 17.475 -80 20 C-79.01 20 -78.02 20 -77 20 C-77 22.31 -77 24.62 -77 27 C-74.36 27 -71.72 27 -69 27 C-69.495 23.535 -69.495 23.535 -70 20 C-70.99 20 -71.98 20 -73 20 C-73 18.68 -73 17.36 -73 16 C-71.68 16 -70.36 16 -69 16 C-69 15.01 -69 14.02 -69 13 C-68.34 13 -67.68 13 -67 13 C-65.4375 15.8125 -65.4375 15.8125 -64 19 C-64.495 20.485 -64.495 20.485 -65 22 C-62.69 22.33 -60.38 22.66 -58 23 C-58 22.01 -58 21.02 -58 20 C-57.01 19.34 -56.02 18.68 -55 18 C-55.495 17.01 -55.495 17.01 -56 16 C-54.02 16 -52.04 16 -50 16 C-50 14.68 -50 13.36 -50 12 C-45.05 12 -40.1 12 -35 12 C-35.33 13.32 -35.66 14.64 -36 16 C-30.06 15.67 -24.12 15.34 -18 15 C-16.04783565 11.09567131 -15.49360009 8.27786748 -15 4 C-11.04 4 -7.08 4 -3 4 C-3 5.32 -3 6.64 -3 8 C-5.64 8 -8.28 8 -11 8 C-11 10.64 -11 13.28 -11 16 C-7.37 16 -3.74 16 0 16 C0 10.72 0 5.44 0 0 Z " fill="#5B6FB1" transform="translate(187,143)"/>
<path d="M0 0 C28.38 0 56.76 0 86 0 C86 2.64 86 5.28 86 8 C83.36 8 80.72 8 78 8 C78 6.68 78 5.36 78 4 C76.68 4 75.36 4 74 4 C74 7.96 74 11.92 74 16 C69.05 16.33 64.1 16.66 59 17 C58.505 18.485 58.505 18.485 58 20 C57.01 20 56.02 20 55 20 C55 21.32 55 22.64 55 24 C52.36 24 49.72 24 47 24 C47 22.68 47 21.36 47 20 C44.36 20 41.72 20 39 20 C39 22.64 39 25.28 39 28 C36.69 28 34.38 28 32 28 C32 25.36 32 22.72 32 20 C28.04 20 24.08 20 20 20 C20 21.32 20 22.64 20 24 C17.36 24 14.72 24 12 24 C11.67 21.69 11.34 19.38 11 17 C10.01 17 9.02 17 8 17 C8 15.68 8 14.36 8 13 C6.68 13 5.36 13 4 13 C4 11.68 4 10.36 4 9 C2.68 9 1.36 9 0 9 C0 6.03 0 3.06 0 0 Z " fill="#487B5C" transform="translate(0,0)"/>
<path d="M0 0 C1.32 0.33 2.64 0.66 4 1 C4 1.99 4 2.98 4 4 C5.32 4 6.64 4 8 4 C8 4.99 8 5.98 8 7 C8.99 7 9.98 7 11 7 C11 6.01 11 5.02 11 4 C12.32 4 13.64 4 15 4 C15 5.32 15 6.64 15 8 C15.99 7.67 16.98 7.34 18 7 C18.33 4.69 18.66 2.38 19 0 C24.28 0 29.56 0 35 0 C35 1.32 35 2.64 35 4 C33.68 4 32.36 4 31 4 C31 6.64 31 9.28 31 12 C29.68 12 28.36 12 27 12 C27 12.99 27 13.98 27 15 C25.68 15 24.36 15 23 15 C23 16.32 23 17.64 23 19 C19.37 19 15.74 19 12 19 C12 21.64 12 24.28 12 27 C15.63 27 19.26 27 23 27 C23 28.32 23 29.64 23 31 C19.37 31.33 15.74 31.66 12 32 C11.67 32.99 11.34 33.98 11 35 C10.01 35 9.02 35 8 35 C8 32.36 8 29.72 8 27 C5.36 27 2.72 27 0 27 C0 29.64 0 32.28 0 35 C-2.31 35 -4.62 35 -7 35 C-7 32.69 -7 30.38 -7 28 C-6.01 28 -5.02 28 -4 28 C-4 26.68 -4 25.36 -4 24 C-8.95 24 -13.9 24 -19 24 C-19 25.32 -19 26.64 -19 28 C-20.32 28 -21.64 28 -23 28 C-23 30.64 -23 33.28 -23 36 C-25.64 36 -28.28 36 -31 36 C-31 34.68 -31 33.36 -31 32 C-29.68 32 -28.36 32 -27 32 C-27 28.04 -27 24.08 -27 20 C-28.32 20 -29.64 20 -31 20 C-31.33 18.02 -31.66 16.04 -32 14 C-31.34 14 -30.68 14 -30 14 C-30.20625 13.38125 -30.4125 12.7625 -30.625 12.125 C-30.74875 11.42375 -30.8725 10.7225 -31 10 C-30.34 9.34 -29.68 8.68 -29 8 C-29 8.66 -29 9.32 -29 10 C-28.2575 9.649375 -27.515 9.29875 -26.75 8.9375 C-23.8677274 7.95490707 -22.78823655 7.9673198 -20 9 C-20.99 9 -21.98 9 -23 9 C-23 9.99 -23 10.98 -23 12 C-19.37 12 -15.74 12 -12 12 C-12 10.68 -12 9.36 -12 8 C-11.01 7.67 -10.02 7.34 -9 7 C-8.484375 6.484375 -7.96875 5.96875 -7.4375 5.4375 C-6.963125 4.963125 -6.48875 4.48875 -6 4 C-5.34 4 -4.68 4 -4 4 C-4 6.64 -4 9.28 -4 12 C-1.69 12 0.62 12 3 12 C3 9.69 3 7.38 3 5 C2.01 5 1.02 5 0 5 C0 3.35 0 1.7 0 0 Z " fill="#568564" transform="translate(222,73)"/>
<path d="M0 0 C3.96 0 7.92 0 12 0 C12 2.64 12 5.28 12 8 C13.32 8 14.64 8 16 8 C16 6.68 16 5.36 16 4 C19.96 4 23.92 4 28 4 C28 7.63 28 11.26 28 15 C29.32 15 30.64 15 32 15 C32 17.64 32 20.28 32 23 C30.35 23 28.7 23 27 23 C27 25.64 27 28.28 27 31 C26.01 31 25.02 31 24 31 C24 32.32 24 33.64 24 35 C25.32 35 26.64 35 28 35 C28 36.32 28 37.64 28 39 C26.68 39 25.36 39 24 39 C24 39.99 24 40.98 24 42 C21.36 42 18.72 42 16 42 C16 43.32 16 44.64 16 46 C12.37 46 8.74 46 5 46 C5 44.68 5 43.36 5 42 C3.35 42 1.7 42 0 42 C0 28.14 0 14.28 0 0 Z " fill="#283E42" transform="translate(0,36)"/>
<path d="M0 0 C29.7 0 59.4 0 90 0 C90 2.64 90 5.28 90 8 C87.36 8 84.72 8 82 8 C82 6.68 82 5.36 82 4 C78.04 4 74.08 4 70 4 C70 5.32 70 6.64 70 8 C72.64 8 75.28 8 78 8 C78 10.64 78 13.28 78 16 C69.09 16 60.18 16 51 16 C51 14.68 51 13.36 51 12 C36.81 12 22.62 12 8 12 C8 10.68 8 9.36 8 8 C6.68 8 5.36 8 4 8 C4 6.68 4 5.36 4 4 C2.68 4 1.36 4 0 4 C0 2.68 0 1.36 0 0 Z " fill="#516E61" transform="translate(93,0)"/>
<path d="M0 0 C1.75570312 0.01353516 1.75570312 0.01353516 3.546875 0.02734375 C4.43890625 0.03894531 5.3309375 0.05054687 6.25 0.0625 C6.25 1.7125 6.25 3.3625 6.25 5.0625 C4.93 5.0625 3.61 5.0625 2.25 5.0625 C2.25 6.0525 2.25 7.0425 2.25 8.0625 C3.24 8.0625 4.23 8.0625 5.25 8.0625 C5.25 9.3825 5.25 10.7025 5.25 12.0625 C1.62 12.0625 -2.01 12.0625 -5.75 12.0625 C-6.245 10.0825 -6.245 10.0825 -6.75 8.0625 C-7.08 9.3825 -7.41 10.7025 -7.75 12.0625 C-8.245 10.5775 -8.245 10.5775 -8.75 9.0625 C-10.07 9.3925 -11.39 9.7225 -12.75 10.0625 C-13.08 13.3625 -13.41 16.6625 -13.75 20.0625 C-12.43 20.0625 -11.11 20.0625 -9.75 20.0625 C-9.75 24.0225 -9.75 27.9825 -9.75 32.0625 C-12.39 32.0625 -15.03 32.0625 -17.75 32.0625 C-17.75 33.0525 -17.75 34.0425 -17.75 35.0625 C-19.07 35.0625 -20.39 35.0625 -21.75 35.0625 C-21.75 36.3825 -21.75 37.7025 -21.75 39.0625 C-24.06 39.0625 -26.37 39.0625 -28.75 39.0625 C-28.75 37.7425 -28.75 36.4225 -28.75 35.0625 C-29.389375 34.77375 -30.02875 34.485 -30.6875 34.1875 C-32.75 33.0625 -32.75 33.0625 -33.75 31.0625 C-36.46446979 30.75008545 -39.08909361 30.54913408 -41.8125 30.4375 C-42.57111328 30.39882812 -43.32972656 30.36015625 -44.11132812 30.3203125 C-45.99047195 30.22576438 -47.87020336 30.14303244 -49.75 30.0625 C-48.76 28.5775 -48.76 28.5775 -47.75 27.0625 C-47.58286431 24.43718476 -47.58286431 24.43718476 -47.75 22.0625 C-46.76 22.0625 -45.77 22.0625 -44.75 22.0625 C-44.75 21.4025 -44.75 20.7425 -44.75 20.0625 C-40.79 20.0625 -36.83 20.0625 -32.75 20.0625 C-32.75 17.4225 -32.75 14.7825 -32.75 12.0625 C-31.76 12.0625 -30.77 12.0625 -29.75 12.0625 C-29.75 10.7425 -29.75 9.4225 -29.75 8.0625 C-28.43 8.0625 -27.11 8.0625 -25.75 8.0625 C-25.75 9.3825 -25.75 10.7025 -25.75 12.0625 C-22.12 12.0625 -18.49 12.0625 -14.75 12.0625 C-14.75 9.4225 -14.75 6.7825 -14.75 4.0625 C-13.43 4.0625 -12.11 4.0625 -10.75 4.0625 C-10.75 3.0725 -10.75 2.0825 -10.75 1.0625 C-7.14006828 -0.07230527 -3.7657673 -0.03765767 0 0 Z " fill="#568764" transform="translate(204.75,72.9375)"/>
<path d="M0 0 C0.66 0 1.32 0 2 0 C2 0.66 2 1.32 2 2 C2.66 2 3.32 2 4 2 C4 1.34 4 0.68 4 0 C6.31 0 8.62 0 11 0 C11 0.99 11 1.98 11 3 C12.32 3 13.64 3 15 3 C15 14.55 15 26.1 15 38 C14.01 38 13.02 38 12 38 C12 35.36 12 32.72 12 30 C10.68 30 9.36 30 8 30 C8 31.32 8 32.64 8 34 C6.68 34 5.36 34 4 34 C4 32.68 4 31.36 4 30 C2.68 30 1.36 30 0 30 C0 32.64 0 35.28 0 38 C-1.32 38 -2.64 38 -4 38 C-4 37.01 -4 36.02 -4 35 C-6.31 35 -8.62 35 -11 35 C-11 33.68 -11 32.36 -11 31 C-12.32 31 -13.64 31 -15 31 C-15 29.68 -15 28.36 -15 27 C-16.32 27 -17.64 27 -19 27 C-19 24.36 -19 21.72 -19 19 C-20.32 19 -21.64 19 -23 19 C-23 18.01 -23 17.02 -23 16 C-21.68 16 -20.36 16 -19 16 C-19 14.35 -19 12.7 -19 11 C-16.69 11 -14.38 11 -12 11 C-11.67 12.32 -11.34 13.64 -11 15 C-9.68 15 -8.36 15 -7 15 C-7 14.01 -7 13.02 -7 12 C-6.01 12 -5.02 12 -4 12 C-4 12.99 -4 13.98 -4 15 C-2.68 15 -1.36 15 0 15 C0 13.68 0 12.36 0 11 C1.32 11 2.64 11 4 11 C4 12.32 4 13.64 4 15 C5.32 15 6.64 15 8 15 C8 11.04 8 7.08 8 3 C5.36 3 2.72 3 0 3 C0 2.01 0 1.02 0 0 Z " fill="#558B62" transform="translate(242,213)"/>
<path d="M0 0 C2.97 0 5.94 0 9 0 C9.433125 1.134375 9.86625 2.26875 10.3125 3.4375 C10.869375 4.613125 11.42625 5.78875 12 7 C12.99 7.33 13.98 7.66 15 8 C15 10.31 15 12.62 15 15 C14.01 15.495 14.01 15.495 13 16 C13 24.25 13 32.5 13 41 C15.97 41.33 18.94 41.66 22 42 C21.01 42.33 20.02 42.66 19 43 C19 44.32 19 45.64 19 47 C19.99 47 20.98 47 22 47 C22 47.99 22 48.98 22 50 C23.65 50 25.3 50 27 50 C27 52.64 27 55.28 27 58 C25.68 58 24.36 58 23 58 C23 59.32 23 60.64 23 62 C20.36 62 17.72 62 15 62 C15 63.32 15 64.64 15 66 C12.36 66 9.72 66 7 66 C7 62.37 7 58.74 7 55 C6.01 55 5.02 55 4 55 C4 55.99 4 56.98 4 58 C2.35 58 0.7 58 -1 58 C-1 57.01 -1 56.02 -1 55 C-1.99 55 -2.98 55 -4 55 C-4 55.99 -4 56.98 -4 58 C-5.32 58 -6.64 58 -8 58 C-8 59.32 -8 60.64 -8 62 C-6.68 62 -5.36 62 -4 62 C-4 63.32 -4 64.64 -4 66 C-5.32 66 -6.64 66 -8 66 C-8 67.32 -8 68.64 -8 70 C-10.64 70 -13.28 70 -16 70 C-16.05386629 67.87527424 -16.09273071 65.75016348 -16.125 63.625 C-16.14820313 62.44164062 -16.17140625 61.25828125 -16.1953125 60.0390625 C-16 57 -16 57 -14 55 C-10.875 54.875 -10.875 54.875 -8 55 C-8 52.36 -8 49.72 -8 47 C-5.69 47 -3.38 47 -1 47 C-0.67 49.31 -0.34 51.62 0 54 C0.99 54 1.98 54 3 54 C3 52.68 3 51.36 3 50 C6.465 49.505 6.465 49.505 10 49 C10 48.01 10 47.02 10 46 C8.68 46 7.36 46 6 46 C6 45.34 6 44.68 6 44 C6.66 44 7.32 44 8 44 C8 38.72 8 33.44 8 28 C8.99 28 9.98 28 11 28 C11 21.4 11 14.8 11 8 C9.68 8 8.36 8 7 8 C7 6.68 7 5.36 7 4 C4.69 4 2.38 4 0 4 C0 2.68 0 1.36 0 0 Z " fill="#4F5B92" transform="translate(180,116)"/>
<path d="M0 0 C3.63 0 7.26 0 11 0 C11.495 3.465 11.495 3.465 12 7 C9.07175348 7.97608217 7.04386724 8.08226668 4 8 C3.67 10.31 3.34 12.62 3 15 C5.64 15 8.28 15 11 15 C11 17.31 11 19.62 11 22 C9.865625 22.474375 8.73125 22.94875 7.5625 23.4375 C4.24259834 24.63622083 4.24259834 24.63622083 3 26 C0.66702567 26.04092937 -1.66705225 26.04241723 -4 26 C-4 25.01 -4 24.02 -4 23 C-8.95 23 -13.9 23 -19 23 C-19 24.32 -19 25.64 -19 27 C-21.97 27 -24.94 27 -28 27 C-28 24.69 -28 22.38 -28 20 C-28.99 20 -29.98 20 -31 20 C-31 22.31 -31 24.62 -31 27 C-33.64 27 -36.28 27 -39 27 C-39.1875 23.6875 -39.1875 23.6875 -39 20 C-37.5 18.375 -37.5 18.375 -36 17 C-35.74930087 14.37429296 -35.74930087 14.37429296 -36 12 C-34.0625 11.4375 -34.0625 11.4375 -32 11 C-31 12 -31 12 -30.9375 15.5625 C-30.958125 16.696875 -30.97875 17.83125 -31 19 C-27.37 19 -23.74 19 -20 19 C-20 17.68 -20 16.36 -20 15 C-18.02 15 -16.04 15 -14 15 C-13.67 12.69 -13.34 10.38 -13 8 C-12.67 8 -12.34 8 -12 8 C-12 10.64 -12 13.28 -12 16 C-9.36 15.67 -6.72 15.34 -4 15 C-4 12.69 -4 10.38 -4 8 C-3.01 7.67 -2.02 7.34 -1 7 C-0.67 4.69 -0.34 2.38 0 0 Z " fill="#6381C3" transform="translate(87,144)"/>
<path d="M0 0 C1.32 0 2.64 0 4 0 C4.33 0.99 4.66 1.98 5 3 C5.99 3.33 6.98 3.66 8 4 C8 5.32 8 6.64 8 8 C9.32 8 10.64 8 12 8 C12 8.99 12 9.98 12 11 C13.32 11.33 14.64 11.66 16 12 C16 12.99 16 13.98 16 15 C14.68 15 13.36 15 12 15 C12 16.32 12 17.64 12 19 C10.68 19 9.36 19 8 19 C8 20.32 8 21.64 8 23 C6.68 23 5.36 23 4 23 C4 24.32 4 25.64 4 27 C6.64 27 9.28 27 12 27 C12 24.69 12 22.38 12 20 C13.32 20 14.64 20 16 20 C16 20.66 16 21.32 16 22 C16.99 22 17.98 22 19 22 C19 26.29 19 30.58 19 35 C17.68 35 16.36 35 15 35 C15 35.99 15 36.98 15 38 C12.36 38 9.72 38 7 38 C7 37.01 7 36.02 7 35 C6.01 35 5.02 35 4 35 C4 33.68 4 32.36 4 31 C1.69 30.34 -0.62 29.68 -3 29 C-3 20.75 -3 12.5 -3 4 C-2.01 3.67 -1.02 3.34 0 3 C0 2.01 0 1.02 0 0 Z " fill="#893251" transform="translate(195,128)"/>
<path d="M0 0 C4.95 0 9.9 0 15 0 C15 0.99 15 1.98 15 3 C13.68 3 12.36 3 11 3 C11 5.97 11 8.94 11 12 C13.64 12 16.28 12 19 12 C19 12.99 19 13.98 19 15 C17.68 15 16.36 15 15 15 C15 16.32 15 17.64 15 19 C13.68 19 12.36 19 11 19 C11 20.32 11 21.64 11 23 C10.01 23 9.02 23 8 23 C8 24.32 8 25.64 8 27 C5.36 27 2.72 27 0 27 C0 25.68 0 24.36 0 23 C1.32 23 2.64 23 4 23 C4 20.36 4 17.72 4 15 C1.36 15 -1.28 15 -4 15 C-4 17.64 -4 20.28 -4 23 C-5.32 23 -6.64 23 -8 23 C-8 21.68 -8 20.36 -8 19 C-12.95 19 -17.9 19 -23 19 C-23.33 17.68 -23.66 16.36 -24 15 C-22.68 15 -21.36 15 -20 15 C-20 13.68 -20 12.36 -20 11 C-18.68 11 -17.36 11 -16 11 C-16 10.01 -16 9.02 -16 8 C-14.68 8 -13.36 8 -12 8 C-12 9.32 -12 10.64 -12 12 C-9.36 12 -6.72 12 -4 12 C-4 9.36 -4 6.72 -4 4 C-2.68 4 -1.36 4 0 4 C0 2.68 0 1.36 0 0 Z " fill="#406B53" transform="translate(203,97)"/>
<path d="M0 0 C2.31 0 4.62 0 7 0 C7 2.64 7 5.28 7 8 C9.3431213 7.74438677 11.67843403 7.40729228 14 7 C14.33 6.34 14.66 5.68 15 5 C17.50390625 4.5859375 17.50390625 4.5859375 20.5625 4.375 C21.57441406 4.30023438 22.58632812 4.22546875 23.62890625 4.1484375 C24.41136719 4.09945312 25.19382812 4.05046875 26 4 C26.33 4.99 26.66 5.98 27 7 C29.31 7.33 31.62 7.66 34 8 C34 6.68 34 5.36 34 4 C39.28 4 44.56 4 50 4 C50 5.98 50 7.96 50 10 C52.31 10.33 54.62 10.66 57 11 C56 14 56 14 54 15 C51.3276379 15.13415472 48.67749512 15.04318541 46 15 C46 13.68 46 12.36 46 11 C42.7 11 39.4 11 36 11 C35.67 11.99 35.34 12.98 35 14 C34.34 14 33.68 14 33 14 C32.34 15.32 31.68 16.64 31 18 C25.72 18 20.44 18 15 18 C15 17.34 15 16.68 15 16 C12.36 16 9.72 16 7 16 C7 14.68 7 13.36 7 12 C5.68 12 4.36 12 3 12 C3 9.36 3 6.72 3 4 C2.01 4 1.02 4 0 4 C0 2.68 0 1.36 0 0 Z " fill="#515899" transform="translate(68,167)"/>
<path d="M0 0 C2.64 0 5.28 0 8 0 C8 2.64 8 5.28 8 8 C10.64 8 13.28 8 16 8 C16.33 6.68 16.66 5.36 17 4 C17.66 4 18.32 4 19 4 C19 6.64 19 9.28 19 12 C14.05 12 9.1 12 4 12 C4 14.64 4 17.28 4 20 C0.37 20 -3.26 20 -7 20 C-7.495 18.02 -7.495 18.02 -8 16 C-15.59 16 -23.18 16 -31 16 C-31 17.32 -31 18.64 -31 20 C-33.64 20 -36.28 20 -39 20 C-39 19.01 -39 18.02 -39 17 C-40.32 16.67 -41.64 16.34 -43 16 C-43 13.69 -43 11.38 -43 9 C-42.67 10.32 -42.34 11.64 -42 13 C-38.535 12.505 -38.535 12.505 -35 12 C-35 11.01 -35 10.02 -35 9 C-31.04 9 -27.08 9 -23 9 C-23 9.99 -23 10.98 -23 12 C-18.05 12 -13.1 12 -8 12 C-8 10.68 -8 9.36 -8 8 C-6.68 8 -5.36 8 -4 8 C-4 8.66 -4 9.32 -4 10 C-2.68 10 -1.36 10 0 10 C0 6.7 0 3.4 0 0 Z " fill="#578A63" transform="translate(106,178)"/>
<path d="M0 0 C12.87 0 25.74 0 39 0 C39 2.97 39 5.94 39 9 C35.04 9 31.08 9 27 9 C27 11.31 27 13.62 27 16 C24.36 16 21.72 16 19 16 C19 15.01 19 14.02 19 13 C15.37 13 11.74 13 8 13 C8 11.68 8 10.36 8 9 C6.68 9 5.36 9 4 9 C4 7.68 4 6.36 4 5 C2.68 5 1.36 5 0 5 C0 3.35 0 1.7 0 0 Z " fill="#57955E" transform="translate(8,0)"/>
<path d="M0 0 C0 2.64 0 5.28 0 8 C1.32 8 2.64 8 4 8 C4 9.32 4 10.64 4 12 C6.64 12 9.28 12 12 12 C12 12.66 12 13.32 12 14 C14.62748631 13.94014838 17.24916995 13.85323776 19.875 13.75 C20.62136719 13.73582031 21.36773437 13.72164062 22.13671875 13.70703125 C24.57138381 13.64013659 24.57138381 13.64013659 28 13 C29.60337399 11.09371218 29.60337399 11.09371218 30 9 C30.66 9 31.32 9 32 9 C32.33 8.34 32.66 7.68 33 7 C33.66 7 34.32 7 35 7 C35 10.3 35 13.6 35 17 C33.68 17 32.36 17 31 17 C31 16.34 31 15.68 31 15 C29.68 15 28.36 15 27 15 C27 16.32 27 17.64 27 19 C22.05 19 17.1 19 12 19 C12 18.01 12 17.02 12 16 C8.04 16 4.08 16 0 16 C0.33 17.32 0.66 18.64 1 20 C-1.64 20 -4.28 20 -7 20 C-7 18.68 -7 17.36 -7 16 C-6.01 16 -5.02 16 -4 16 C-4 13.36 -4 10.72 -4 8 C-6.64 8 -9.28 8 -12 8 C-12 9.32 -12 10.64 -12 12 C-13.32 12 -14.64 12 -16 12 C-16 13.32 -16 14.64 -16 16 C-16.99 16 -17.98 16 -19 16 C-19 13.36 -19 10.72 -19 8 C-17.68 8 -16.36 8 -15 8 C-15 6.68 -15 5.36 -15 4 C-13.68 4 -12.36 4 -11 4 C-11 3.01 -11 2.02 -11 1 C-7.26513121 0.4254048 -3.78706732 0 0 0 Z " fill="#413E74" transform="translate(71,171)"/>
<path d="M0 0 C2.64 0 5.28 0 8 0 C8 2.64 8 5.28 8 8 C8.99 8 9.98 8 11 8 C11.33 7.01 11.66 6.02 12 5 C12 7.31 12 9.62 12 12 C13.32 12 14.64 12 16 12 C16 13.32 16 14.64 16 16 C14.68 16 13.36 16 12 16 C12 18.64 12 21.28 12 24 C9.36 24 6.72 24 4 24 C4 26.31 4 28.62 4 31 C5.32 31 6.64 31 8 31 C8 33.64 8 36.28 8 39 C4.04 39 0.08 39 -4 39 C-4 36.69 -4 34.38 -4 32 C-2.68 32 -1.36 32 0 32 C0 26.72 0 21.44 0 16 C1.32 16 2.64 16 4 16 C4 13.36 4 10.72 4 8 C2.68 8 1.36 8 0 8 C0 5.36 0 2.72 0 0 Z " fill="#436859" transform="translate(222,100)"/>
<path d="M0 0 C1.32 0 2.64 0 4 0 C4 1.32 4 2.64 4 4 C5.98 3.34 7.96 2.68 10 2 C15.57142857 7.14285714 15.57142857 7.14285714 16 11 C16.99 10.67 17.98 10.34 19 10 C19.268125 10.804375 19.53625 11.60875 19.8125 12.4375 C20.204375 13.283125 20.59625 14.12875 21 15 C21.99 15.33 22.98 15.66 24 16 C23.67 18.31 23.34 20.62 23 23 C20.69 23 18.38 23 16 23 C16 21.68 16 20.36 16 19 C14.2984375 19.0309375 14.2984375 19.0309375 12.5625 19.0625 C9 19 9 19 8 18 C7.95919217 16.00041636 7.95745644 13.99954746 8 12 C5.36 11.67 2.72 11.34 0 11 C0 7.37 0 3.74 0 0 Z " fill="#524440" transform="translate(198,0)"/>
<path d="M0 0 C5.28 0 10.56 0 16 0 C16 1.32 16 2.64 16 4 C17.32 4 18.64 4 20 4 C20 6.31 20 8.62 20 11 C18.68 11 17.36 11 16 11 C15.67 12.32 15.34 13.64 15 15 C11.37 15 7.74 15 4 15 C4 13.68 4 12.36 4 11 C2.68 11 1.36 11 0 11 C0 7.37 0 3.74 0 0 Z " fill="#3F6B51" transform="translate(1,106)"/>
<path d="M0 0 C2.64 0 5.28 0 8 0 C8 2.64 8 5.28 8 8 C8.99 8 9.98 8 11 8 C11.33 5.36 11.66 2.72 12 0 C12.99 0 13.98 0 15 0 C15.33 2.31 15.66 4.62 16 7 C16.99 7 17.98 7 19 7 C19 12.28 19 17.56 19 23 C15.37 23 11.74 23 8 23 C8 20.36 8 17.72 8 15 C10.64 15 13.28 15 16 15 C16 13.68 16 12.36 16 11 C12.04 11 8.08 11 4 11 C4 10.01 4 9.02 4 8 C2.68 8 1.36 8 0 8 C0 5.36 0 2.72 0 0 Z " fill="#6580C3" transform="translate(168,136)"/>
<path d="M0 0 C0.33 0 0.66 0 1 0 C1 4.95 1 9.9 1 15 C-1.31 15 -3.62 15 -6 15 C-6 16.32 -6 17.64 -6 19 C-8.97 19 -11.94 19 -15 19 C-15 16.69 -15 14.38 -15 12 C-15.99 12 -16.98 12 -18 12 C-18 14.31 -18 16.62 -18 19 C-20.64 19 -23.28 19 -26 19 C-26.1875 15.6875 -26.1875 15.6875 -26 12 C-24.5 10.375 -24.5 10.375 -23 9 C-22.74930087 6.37429296 -22.74930087 6.37429296 -23 4 C-21.0625 3.4375 -21.0625 3.4375 -19 3 C-18 4 -18 4 -17.9375 7.5625 C-17.958125 8.696875 -17.97875 9.83125 -18 11 C-14.37 11 -10.74 11 -7 11 C-7 9.68 -7 8.36 -7 7 C-5.02 7 -3.04 7 -1 7 C-0.67 4.69 -0.34 2.38 0 0 Z " fill="#5C6FB2" transform="translate(74,152)"/>
<path d="M0 0 C3.63 0 7.26 0 11 0 C11 7.59 11 15.18 11 23 C8.69 23 6.38 23 4 23 C4 21.68 4 20.36 4 19 C2.68 19 1.36 19 0 19 C0 12.73 0 6.46 0 0 Z " fill="#323145" transform="translate(25,133)"/>
<path d="M0 0 C1.32 0 2.64 0 4 0 C4 1.32 4 2.64 4 4 C6.64 4 9.28 4 12 4 C12 6.31 12 8.62 12 11 C10.68 11 9.36 11 8 11 C8.0721875 11.68964844 8.144375 12.37929687 8.21875 13.08984375 C8.81193942 19.09588659 9.09892295 24.9657 9 31 C7.35 31 5.7 31 4 31 C4 28.36 4 25.72 4 23 C2.68 22.67 1.36 22.34 0 22 C0 14.74 0 7.48 0 0 Z " fill="#6481C2" transform="translate(36,133)"/>
<path d="M0 0 C2.31 0 4.62 0 7 0 C7 1.32 7 2.64 7 4 C9.64 4 12.28 4 15 4 C15 4.66 15 5.32 15 6 C12.36 6 9.72 6 7 6 C7.89335797 8.35785318 7.89335797 8.35785318 11.0625 9.125 C12.5165625 9.558125 12.5165625 9.558125 14 10 C13.01 10.99 12.02 11.98 11 13 C12.65 13.33 14.3 13.66 16 14 C16 16.64 16 19.28 16 22 C16.99 22.33 17.98 22.66 19 23 C17.68 23 16.36 23 15 23 C15 20.36 15 17.72 15 15 C12.36 15 9.72 15 7 15 C7 17.64 7 20.28 7 23 C4.69 23 2.38 23 0 23 C0 15.41 0 7.82 0 0 Z " fill="#4C5D8C" transform="translate(25,160)"/>
<path d="M0 0 C5.05365292 -0.09897181 10.10674024 -0.17151603 15.16113281 -0.21972656 C16.87998279 -0.23982628 18.59876452 -0.26711089 20.31738281 -0.30175781 C22.78988489 -0.35035034 25.2614821 -0.37298435 27.734375 -0.390625 C28.88459137 -0.42159271 28.88459137 -0.42159271 30.05804443 -0.45318604 C33.56125319 -0.45465513 35.61858501 -0.26892939 38.51660156 1.77441406 C40 4 40 4 40 8 C41.32 8.33 42.64 8.66 44 9 C44 9.99 44 10.98 44 12 C42.68 12 41.36 12 40 12 C39.505 10.515 39.505 10.515 39 9 C38.01 8.67 37.02 8.34 36 8 C36 7.01 36 6.02 36 5 C29.4 5 22.8 5 16 5 C16 5.99 16 6.98 16 8 C15.01 8.33 14.02 8.66 13 9 C12.67 9.99 12.34 10.98 12 12 C11.01 12 10.02 12 9 12 C9 10.68 9 9.36 9 8 C7.68 8 6.36 8 5 8 C5 5.69 5 3.38 5 1 C3.35 1 1.7 1 0 1 C0 0.67 0 0.34 0 0 Z " fill="#5873AC" transform="translate(136,104)"/>
<path d="M0 0 C2.97 0 5.94 0 9 0 C9.433125 1.134375 9.86625 2.26875 10.3125 3.4375 C11.1478125 5.2009375 11.1478125 5.2009375 12 7 C12.99 7.33 13.98 7.66 15 8 C15 10.31 15 12.62 15 15 C14.01 15.495 14.01 15.495 13 16 C13 24.25 13 32.5 13 41 C15.97 41.33 18.94 41.66 22 42 C20.515 42.495 20.515 42.495 19 43 C19 44.32 19 45.64 19 47 C16.36 47 13.72 47 11 47 C11 45.68 11 44.36 11 43 C10.01 43 9.02 43 8 43 C8 38.05 8 33.1 8 28 C8.99 28 9.98 28 11 28 C11 21.4 11 14.8 11 8 C9.68 8 8.36 8 7 8 C7 6.68 7 5.36 7 4 C4.69 4 2.38 4 0 4 C0 2.68 0 1.36 0 0 Z " fill="#4E678D" transform="translate(180,116)"/>
<path d="M0 0 C3.96 0 7.92 0 12 0 C12 1.32 12 2.64 12 4 C13.32 4 14.64 4 16 4 C16 5.32 16 6.64 16 8 C16.99 8 17.98 8 19 8 C19 8.99 19 9.98 19 11 C20.32 11.33 21.64 11.66 23 12 C22.01 12 21.02 12 20 12 C20 13.32 20 14.64 20 16 C16.04 16 12.08 16 8 16 C8 13.36 8 10.72 8 8 C6.68 8 5.36 8 4 8 C4 6.68 4 5.36 4 4 C2.68 4 1.36 4 0 4 C0 2.68 0 1.36 0 0 Z " fill="#456758" transform="translate(226,158)"/>
<path d="M0 0 C1.75570312 0.01353516 1.75570312 0.01353516 3.546875 0.02734375 C4.43890625 0.03894531 5.3309375 0.05054687 6.25 0.0625 C6.25 1.7125 6.25 3.3625 6.25 5.0625 C4.93 5.0625 3.61 5.0625 2.25 5.0625 C2.25 6.0525 2.25 7.0425 2.25 8.0625 C3.24 8.0625 4.23 8.0625 5.25 8.0625 C5.25 9.3825 5.25 10.7025 5.25 12.0625 C1.62 12.0625 -2.01 12.0625 -5.75 12.0625 C-6.08 10.7425 -6.41 9.4225 -6.75 8.0625 C-7.08 9.3825 -7.41 10.7025 -7.75 12.0625 C-8.08 11.0725 -8.41 10.0825 -8.75 9.0625 C-11.61724686 9.63594937 -12.6114515 9.9239515 -14.75 12.0625 C-14.75 9.4225 -14.75 6.7825 -14.75 4.0625 C-13.43 4.0625 -12.11 4.0625 -10.75 4.0625 C-10.75 3.0725 -10.75 2.0825 -10.75 1.0625 C-7.14006828 -0.07230527 -3.7657673 -0.03765767 0 0 Z " fill="#5D856C" transform="translate(204.75,72.9375)"/>
<path d="M0 0 C5.61 0 11.22 0 17 0 C17 0.33 17 0.66 17 1 C16.030625 1.268125 15.06125 1.53625 14.0625 1.8125 C13.051875 2.204375 12.04125 2.59625 11 3 C10.67 3.99 10.34 4.98 10 6 C10.66 6 11.32 6 12 6 C12 8.97 12 11.94 12 15 C5.91176471 15.44117647 5.91176471 15.44117647 3 15 C1.125 12.5 1.125 12.5 0 10 C-0.99 10 -1.98 10 -3 10 C-3 7.69 -3 5.38 -3 3 C-2.01 3 -1.02 3 0 3 C0 2.01 0 1.02 0 0 Z " fill="#6B91CF" transform="translate(152,109)"/>
<path d="M0 0 C3.3 0.33 6.6 0.66 10 1 C10 3.64 10 6.28 10 9 C11.32 9 12.64 9 14 9 C14 10.32 14 11.64 14 13 C14.99 13 15.98 13 17 13 C17.33 15.31 17.66 17.62 18 20 C15.36 20 12.72 20 10 20 C10 17.69 10 15.38 10 13 C9.01 13.33 8.02 13.66 7 14 C6.34 12.35 5.68 10.7 5 9 C2.69 9 0.38 9 -2 9 C-2.25 3.375 -2.25 3.375 0 0 Z " fill="#6481C3" transform="translate(100,150)"/>
<path d="M0 0 C4.95 0 9.9 0 15 0 C15 4.95 15 9.9 15 15 C13.68 15 12.36 15 11 15 C11 14.01 11 13.02 11 12 C8.69 12 6.38 12 4 12 C3.67 10.35 3.34 8.7 3 7 C2.01 7 1.02 7 0 7 C0 4.69 0 2.38 0 0 Z " fill="#F7FCF7" transform="translate(242,201)"/>
<path d="M0 0 C2.31 0 4.62 0 7 0 C7 0.99 7 1.98 7 3 C8.32 3 9.64 3 11 3 C11 4.65 11 6.3 11 8 C9.68 8 8.36 8 7 8 C7 8.99 7 9.98 7 11 C5.68 11 4.36 11 3 11 C3 12.65 3 14.3 3 16 C2.01 16 1.02 16 0 16 C0 16.99 0 17.98 0 19 C-2.64 19 -5.28 19 -8 19 C-8.12246094 19.57234375 -8.24492188 20.1446875 -8.37109375 20.734375 C-9.02762868 23.09953191 -9.93723512 25.07206797 -11.0625 27.25 C-11.42472656 27.95640625 -11.78695312 28.6628125 -12.16015625 29.390625 C-12.43730469 29.92171875 -12.71445312 30.4528125 -13 31 C-13.99 31 -14.98 31 -16 31 C-15.46231128 27.1286412 -14.422527 25.02815875 -12 22 C-11.67 21.01 -11.34 20.02 -11 19 C-6.80666667 15.14666667 -6.80666667 15.14666667 -3.9375 14.625 C-0.70191218 13.58126199 0.3303712 10.8025912 2 8 C1.34 7.67 0.68 7.34 0 7 C0 4.69 0 2.38 0 0 Z " fill="#4B6985" transform="translate(56,98)"/>
<path d="M0 0 C1.32 0 2.64 0 4 0 C4 5.28 4 10.56 4 16 C1.43106162 17.28446919 -0.76576337 17.32977144 -3.625 17.5625 C-5.12933594 17.68818359 -5.12933594 17.68818359 -6.6640625 17.81640625 C-7.43492187 17.87699219 -8.20578125 17.93757813 -9 18 C-9.33 18.99 -9.66 19.98 -10 21 C-10.66 21 -11.32 21 -12 21 C-12 21.66 -12 22.32 -12 23 C-13.77155654 22.88570603 -15.54226229 22.75816963 -17.3125 22.625 C-18.29863281 22.55539063 -19.28476563 22.48578125 -20.30078125 22.4140625 C-23 22 -23 22 -26 20 C-26.6875 17.875 -26.6875 17.875 -27 16 C-28.32 16 -29.64 16 -31 16 C-31 14.68 -31 13.36 -31 12 C-28.36 12 -25.72 12 -23 12 C-23 14.64 -23 17.28 -23 20 C-19.04 20 -15.08 20 -11 20 C-11 18.68 -11 17.36 -11 16 C-8.69 16 -6.38 16 -4 16 C-4 14.68 -4 13.36 -4 12 C-2.68 12 -1.36 12 0 12 C0 8.04 0 4.08 0 0 Z " fill="#79AE85" transform="translate(160,174)"/>
<path d="M0 0 C1.32 0 2.64 0 4 0 C4 1.32 4 2.64 4 4 C4.99 4 5.98 4 7 4 C7 5.32 7 6.64 7 8 C5.68 8 4.36 8 3 8 C3 9.32 3 10.64 3 12 C1.68 12 0.36 12 -1 12 C-1.33 13.65 -1.66 15.3 -2 17 C-2.66 17 -3.32 17 -4 17 C-4 17.99 -4 18.98 -4 20 C-7.96 20.33 -11.92 20.66 -16 21 C-16 19.35 -16 17.7 -16 16 C-13.36 16 -10.72 16 -8 16 C-8 13.36 -8 10.72 -8 8 C-5.69 8 -3.38 8 -1 8 C-1 6.68 -1 5.36 -1 4 C0.32 4 1.64 4 3 4 C3 3.01 3 2.02 3 1 C2.01 0.67 1.02 0.34 0 0 Z " fill="#477058" transform="translate(250,173)"/>
<path d="M0 0 C0 0.99 0 1.98 0 3 C1.32 3.33 2.64 3.66 4 4 C4 4.99 4 5.98 4 7 C5.32 7 6.64 7 8 7 C8 8.32 8 9.64 8 11 C6.68 11 5.36 11 4 11 C4 13.64 4 16.28 4 19 C2.68 19 1.36 19 0 19 C0 16.36 0 13.72 0 11 C-0.66 11 -1.32 11 -2 11 C-2 10.34 -2 9.68 -2 9 C-2.66 9 -3.32 9 -4 9 C-4.66 10.32 -5.32 11.64 -6 13 C-6.28875 12.030625 -6.5775 11.06125 -6.875 10.0625 C-7.64214682 6.89335797 -7.64214682 6.89335797 -10 6 C-9.875 4.125 -9.875 4.125 -9 2 C-5.82254537 0.61849799 -3.46877176 0 0 0 Z " fill="#6792CE" transform="translate(172,109)"/>
<path d="M0 0 C2.64 0 5.28 0 8 0 C8 2.64 8 5.28 8 8 C10.64 8 13.28 8 16 8 C16.33 6.68 16.66 5.36 17 4 C17.66 4 18.32 4 19 4 C19 6.64 19 9.28 19 12 C11.41 12 3.82 12 -4 12 C-4 11.34 -4 10.68 -4 10 C-2.68 10 -1.36 10 0 10 C0 6.7 0 3.4 0 0 Z " fill="#518B5F" transform="translate(106,178)"/>
<path d="M0 0 C4.78717542 -0.04943465 9.57420227 -0.08573582 14.36157227 -0.10986328 C15.99017932 -0.11992142 17.61876832 -0.13356958 19.24731445 -0.15087891 C21.58809872 -0.17513574 23.92864424 -0.18648483 26.26953125 -0.1953125 C27.36186821 -0.21079636 27.36186821 -0.21079636 28.47627258 -0.22659302 C32.21275069 -0.22742249 33.80675056 -0.12883296 37 2 C39.32387947 2.39387788 41.65793749 2.73486085 44 3 C44.495 4.485 44.495 4.485 45 6 C45.99 6.33 46.98 6.66 48 7 C47.67 8.32 47.34 9.64 47 11 C46.01 11 45.02 11 44 11 C44 9.68 44 8.36 44 7 C41.36 7 38.72 7 36 7 C36 5.68 36 4.36 36 3 C23.79 3 11.58 3 -1 3 C-0.67 2.01 -0.34 1.02 0 0 Z " fill="#4C5B96" transform="translate(89,90)"/>
<path d="M0 0 C3 3.625 3 3.625 3 7 C4.65 7 6.3 7 8 7 C8 10.63 8 14.26 8 18 C6.35 18.33 4.7 18.66 3 19 C3 16.03 3 13.06 3 10 C2.01 10 1.02 10 0 10 C0 9.34 0 8.68 0 8 C-1.32 8 -2.64 8 -4 8 C-4 10.31 -4 12.62 -4 15 C-6.64 15 -9.28 15 -12 15 C-12 13.68 -12 12.36 -12 11 C-10.68 11 -9.36 11 -8 11 C-8 9.68 -8 8.36 -8 7 C-6.68 7 -5.36 7 -4 7 C-4 5.68 -4 4.36 -4 3 C-2.68 3 -1.36 3 0 3 C0 2.01 0 1.02 0 0 Z " fill="#6C906E" transform="translate(211,140)"/>
<path d="M0 0 C3.63 0 7.26 0 11 0 C11 0.99 11 1.98 11 3 C10.01 3 9.02 3 8 3 C8 4.65 8 6.3 8 8 C6.68 8 5.36 8 4 8 C4 8.99 4 9.98 4 11 C6.64 11 9.28 11 12 11 C12 12.65 12 14.3 12 16 C6.72 16 1.44 16 -4 16 C-4 14.68 -4 13.36 -4 12 C-2.68 12 -1.36 12 0 12 C0 10.68 0 9.36 0 8 C0.99 8 1.98 8 3 8 C3 6.68 3 5.36 3 4 C2.01 4 1.02 4 0 4 C0 2.68 0 1.36 0 0 Z " fill="#C4D6CC" transform="translate(214,54)"/>
<path d="M0 0 C0.99 0 1.98 0 3 0 C3 0.99 3 1.98 3 3 C4.65 3 6.3 3 8 3 C8 5.64 8 8.28 8 11 C1.73 11 -4.54 11 -11 11 C-11 9.68 -11 8.36 -11 7 C-12.32 7 -13.64 7 -15 7 C-15 6.01 -15 5.02 -15 4 C-12.36 3.67 -9.72 3.34 -7 3 C-7 3.66 -7 4.32 -7 5 C-3.7 5.33 -0.4 5.66 3 6 C2.01 5.34 1.02 4.68 0 4 C0 2.68 0 1.36 0 0 Z " fill="#525692" transform="translate(199,163)"/>
<path d="M0 0 C0.99 0 1.98 0 3 0 C3.474375 1.134375 3.94875 2.26875 4.4375 3.4375 C5.63622083 6.75740166 5.63622083 6.75740166 7 8 C7.125 11.5 7.125 11.5 7 15 C6 16 6 16 2.9375 16.0625 C1.968125 16.041875 0.99875 16.02125 0 16 C0 18.31 0 20.62 0 23 C-0.99 23 -1.98 23 -3 23 C-3 16.73 -3 10.46 -3 4 C-2.01 3.67 -1.02 3.34 0 3 C0 2.01 0 1.02 0 0 Z " fill="#B44662" transform="translate(195,128)"/>
<path d="M0 0 C0.66 0 1.32 0 2 0 C2 3.3 2 6.6 2 10 C0.68 10 -0.64 10 -2 10 C-2 9.34 -2 8.68 -2 8 C-3.32 8 -4.64 8 -6 8 C-6 9.32 -6 10.64 -6 12 C-10.95 12 -15.9 12 -21 12 C-21 11.01 -21 10.02 -21 9 C-24.96 9 -28.92 9 -33 9 C-33 8.67 -33 8.34 -33 8 C-32.16227051 7.96036133 -31.32454102 7.92072266 -30.46142578 7.87988281 C-27.35554525 7.72374773 -24.25124813 7.55038305 -21.14697266 7.36523438 C-19.80294895 7.28863703 -18.45851402 7.21893292 -17.11376953 7.15625 C-15.18167628 7.06499246 -13.2509076 6.94693085 -11.3203125 6.828125 C-10.15773926 6.7652832 -8.99516602 6.70244141 -7.79736328 6.63769531 C-4.86569551 6.30353399 -4.86569551 6.30353399 -3.60498047 3.94824219 C-3.40533691 3.30532227 -3.20569336 2.66240234 -3 2 C-2.34 2 -1.68 2 -1 2 C-0.67 1.34 -0.34 0.68 0 0 Z " fill="#4B5F7F" transform="translate(104,178)"/>
<path d="M0 0 C5.28 0 10.56 0 16 0 C16 1.32 16 2.64 16 4 C13.36 4 10.72 4 8 4 C8 5.32 8 6.64 8 8 C5.56131832 8.1079859 3.12740867 8.18726589 0.6875 8.25 C-0.00279297 8.28351562 -0.69308594 8.31703125 -1.40429688 8.3515625 C-3.42578125 8.390625 -3.42578125 8.390625 -7 8 C-7.99 6.68 -8.98 5.36 -10 4 C-6.7 4 -3.4 4 0 4 C0 2.68 0 1.36 0 0 Z " fill="#476257" transform="translate(159,27)"/>
<path d="M0 0 C1.32 0 2.64 0 4 0 C4 1.32 4 2.64 4 4 C3.01 4.33 2.02 4.66 1 5 C0.67 5.99 0.34 6.98 0 8 C-0.99 8.33 -1.98 8.66 -3 9 C-3.33 12.3 -3.66 15.6 -4 19 C-5.32 19 -6.64 19 -8 19 C-8 16.36 -8 13.72 -8 11 C-8.99 11.495 -8.99 11.495 -10 12 C-10.33 12.99 -10.66 13.98 -11 15 C-13.64 15 -16.28 15 -19 15 C-19 13.68 -19 12.36 -19 11 C-15.7 10.67 -12.4 10.34 -9 10 C-8.67 9.01 -8.34 8.02 -8 7 C-6.68 7 -5.36 7 -4 7 C-4 5.68 -4 4.36 -4 3 C-2.68 3 -1.36 3 0 3 C0 2.01 0 1.02 0 0 Z " fill="#454478" transform="translate(133,171)"/>
<path d="M0 0 C5.94 0 11.88 0 18 0 C18 1.65 18 3.3 18 5 C16.68 5 15.36 5 14 5 C14 5.99 14 6.98 14 8 C11.11788698 8.96070434 9.30149956 9.10581883 6.3125 9.0625 C5.10013672 9.04896484 5.10013672 9.04896484 3.86328125 9.03515625 C2.94095703 9.01775391 2.94095703 9.01775391 2 9 C2.33 6.36 2.66 3.72 3 1 C2.01 0.67 1.02 0.34 0 0 Z " fill="#57935E" transform="translate(48,0)"/>
<path d="M0 0 C2.64 0 5.28 0 8 0 C8 3.96 8 7.92 8 12 C6.68 12 5.36 12 4 12 C4 13.32 4 14.64 4 16 C2.68 16 1.36 16 0 16 C0 10.72 0 5.44 0 0 Z " fill="#477B5D" transform="translate(0,20)"/>
<path d="M0 0 C3.96 0 7.92 0 12 0 C12 1.32 12 2.64 12 4 C9.36 4 6.72 4 4 4 C4 6.97 4 9.94 4 13 C4.99 13 5.98 13 7 13 C7 13.66 7 14.32 7 15 C4.03 15 1.06 15 -2 15 C-3.12896218 10.48415129 -2.91189414 10.71757194 -1 7 C-0.61250787 4.67504723 -0.27017161 2.34148732 0 0 Z " fill="#5C71B5" transform="translate(172,147)"/>
<path d="M0 0 C1.32 0 2.64 0 4 0 C4 1.32 4 2.64 4 4 C8.95 4 13.9 4 19 4 C19 5.32 19 6.64 19 8 C16.36 8 13.72 8 11 8 C11 9.32 11 10.64 11 12 C8.36 12 5.72 12 3 12 C3 8.37 3 4.74 3 1 C2.01 0.67 1.02 0.34 0 0 Z " fill="#548C5C" transform="translate(184,170)"/>
<path d="M0 0 C0.33 1.32 0.66 2.64 1 4 C0 5 0 5 -2.22485352 5.11352539 C-3.18319092 5.10828857 -4.14152832 5.10305176 -5.12890625 5.09765625 C-6.68061523 5.09282227 -6.68061523 5.09282227 -8.26367188 5.08789062 C-9.35228516 5.07951172 -10.44089844 5.07113281 -11.5625 5.0625 C-13.2012207 5.05573242 -13.2012207 5.05573242 -14.87304688 5.04882812 C-17.58208495 5.03699826 -20.29101599 5.02051543 -23 5 C-23 3.68 -23 2.36 -23 1 C-15.41 0.67 -7.82 0.34 0 0 Z " fill="#67AC6C" transform="translate(153,247)"/>
<path d="M0 0 C0.99 0 1.98 0 3 0 C3 2.64 3 5.28 3 8 C1.68 8 0.36 8 -1 8 C-1 8.99 -1 9.98 -1 11 C-3.64 11 -6.28 11 -9 11 C-9 10.01 -9 9.02 -9 8 C-9.99 8 -10.98 8 -12 8 C-12 6.68 -12 5.36 -12 4 C-8.04 4 -4.08 4 0 4 C0 2.68 0 1.36 0 0 Z " fill="#432B3D" transform="translate(211,155)"/>
<path d="M0 0 C0 1.32 0 2.64 0 4 C1.32 4.33 2.64 4.66 4 5 C4 5.99 4 6.98 4 8 C2.68 8 1.36 8 0 8 C-0.33 7.01 -0.66 6.02 -1 5 C-1.99 4.67 -2.98 4.34 -4 4 C-4 2.68 -4 1.36 -4 0 C-10.6 0 -17.2 0 -24 0 C-24 -0.99 -24 -1.98 -24 -3 C-20.93781928 -3.27646774 -17.8783422 -3.52190671 -14.8125 -3.75 C-13.94818359 -3.83121094 -13.08386719 -3.91242188 -12.19335938 -3.99609375 C-6.88709395 -4.36204309 -3.64921837 -4.38208418 0 0 Z " fill="#4B628B" transform="translate(176,108)"/>
<path d="M0 0 C1.22126839 0.00212242 1.22126839 0.00212242 2.46720886 0.00428772 C5.05500031 0.00986308 7.64270367 0.02241101 10.23046875 0.03515625 C11.99023312 0.04017444 13.74999886 0.04473679 15.50976562 0.04882812 C19.81253369 0.05982444 24.11523631 0.07707204 28.41796875 0.09765625 C28.41796875 0.75765625 28.41796875 1.41765625 28.41796875 2.09765625 C16.53796875 2.09765625 4.65796875 2.09765625 -7.58203125 2.09765625 C-7.91203125 2.75765625 -8.24203125 3.41765625 -8.58203125 4.09765625 C-10.6484375 4.51171875 -10.6484375 4.51171875 -13.14453125 4.72265625 C-13.97082031 4.79742187 -14.79710938 4.8721875 -15.6484375 4.94921875 C-16.60556641 5.02269531 -16.60556641 5.02269531 -17.58203125 5.09765625 C-17.58203125 6.08765625 -17.58203125 7.07765625 -17.58203125 8.09765625 C-22.03703125 8.59265625 -22.03703125 8.59265625 -26.58203125 9.09765625 C-26.58203125 9.75765625 -26.58203125 10.41765625 -26.58203125 11.09765625 C-27.57203125 11.09765625 -28.56203125 11.09765625 -29.58203125 11.09765625 C-29.58203125 10.10765625 -29.58203125 9.11765625 -29.58203125 8.09765625 C-27.27203125 8.09765625 -24.96203125 8.09765625 -22.58203125 8.09765625 C-22.25203125 6.77765625 -21.92203125 5.45765625 -21.58203125 4.09765625 C-18.94203125 4.09765625 -16.30203125 4.09765625 -13.58203125 4.09765625 C-13.58203125 3.10765625 -13.58203125 2.11765625 -13.58203125 1.09765625 C-9.06146029 -0.03937161 -4.62863342 -0.03049009 0 0 Z " fill="#517479" transform="translate(96.58203125,88.90234375)"/>
<path d="M0 0 C1.32 0 2.64 0 4 0 C4 0.99 4 1.98 4 3 C5.32 3 6.64 3 8 3 C8 4.32 8 5.64 8 7 C6.68 7 5.36 7 4 7 C4 8.32 4 9.64 4 11 C1.36 11 -1.28 11 -4 11 C-4 8.36 -4 5.72 -4 3 C-2.68 3 -1.36 3 0 3 C0 2.01 0 1.02 0 0 Z " fill="#455E62" transform="translate(168,175)"/>
<path d="M0 0 C0.99 0.33 1.98 0.66 3 1 C2.34 1 1.68 1 1 1 C1 6.28 1 11.56 1 17 C0.34 17 -0.32 17 -1 17 C-1 17.66 -1 18.32 -1 19 C0.32 19 1.64 19 3 19 C3 19.99 3 20.98 3 22 C0.69 22.33 -1.62 22.66 -4 23 C-4 24.32 -4 25.64 -4 27 C-4.99 27 -5.98 27 -7 27 C-8.125 19.375 -8.125 19.375 -7 16 C-4.69 16 -2.38 16 0 16 C0 10.72 0 5.44 0 0 Z " fill="#5160A2" transform="translate(187,143)"/>
<path d="M0 0 C3.63 0 7.26 0 11 0 C11 0.99 11 1.98 11 3 C9.68 3 8.36 3 7 3 C7 4.32 7 5.64 7 7 C8.32 7 9.64 7 11 7 C11 8.32 11 9.64 11 11 C7.37 11 3.74 11 0 11 C0 10.01 0 9.02 0 8 C0.99 8 1.98 8 3 8 C3 6.35 3 4.7 3 3 C2.01 3 1.02 3 0 3 C0 2.01 0 1.02 0 0 Z " fill="#ABC5B3" transform="translate(199,74)"/>
<path d="M0 0 C2.64 0 5.28 0 8 0 C8.28571429 8.57142857 8.28571429 8.57142857 6 12 C4 11 2 10 0 9 C-0.33 9.99 -0.66 10.98 -1 12 C-1.33 10.68 -1.66 9.36 -2 8 C-1.34 8 -0.68 8 0 8 C0 5.36 0 2.72 0 0 Z " fill="#78B876" transform="translate(44,179)"/>
<path d="M0 0 C0 4.29 0 8.58 0 13 C-0.99 13 -1.98 13 -3 13 C-3 11.68 -3 10.36 -3 9 C-4.65 9 -6.3 9 -8 9 C-8.66 6.36 -9.32 3.72 -10 1 C-5.81354102 -1.03342293 -4.92422885 -0.98484577 0 0 Z " fill="#333448" transform="translate(257,164)"/>
<path d="M0 0 C0 2.64 0 5.28 0 8 C-2.64 8 -5.28 8 -8 8 C-8 6.68 -8 5.36 -8 4 C-9.98 4 -11.96 4 -14 4 C-13.34 3.67 -12.68 3.34 -12 3 C-12 2.01 -12 1.02 -12 0 C-3.42857143 -1.28571429 -3.42857143 -1.28571429 0 0 Z " fill="#5B8570" transform="translate(40,156)"/>
<path d="M0 0 C2.64 0 5.28 0 8 0 C8 3.96 8 7.92 8 12 C6.68 12 5.36 12 4 12 C4 10.68 4 9.36 4 8 C2.68 8 1.36 8 0 8 C0 5.36 0 2.72 0 0 Z " fill="#F0EFF3" transform="translate(249,150)"/>
<path d="M0 0 C2.64 0 5.28 0 8 0 C8 3.96 8 7.92 8 12 C5.36 12 2.72 12 0 12 C0 10.68 0 9.36 0 8 C1.32 8 2.64 8 4 8 C4 6.68 4 5.36 4 4 C2.68 4 1.36 4 0 4 C0 2.68 0 1.36 0 0 Z " fill="#8FB699" transform="translate(187,93)"/>
<path d="M0 0 C3.96 0 7.92 0 12 0 C12 1.32 12 2.64 12 4 C10.68 4 9.36 4 8 4 C8 5.32 8 6.64 8 8 C5.36 8 2.72 8 0 8 C0 5.36 0 2.72 0 0 Z " fill="#5F9069" transform="translate(151,0)"/>
<path d="M0 0 C1.32 0 2.64 0 4 0 C4 0.66 4 1.32 4 2 C5.98 2 7.96 2 10 2 C9.67 4.97 9.34 7.94 9 11 C9.99 11 10.98 11 12 11 C12.33 12.32 12.66 13.64 13 15 C10.36 15 7.72 15 5 15 C5 13.68 5 12.36 5 11 C5.99 11 6.98 11 8 11 C8 8.36 8 5.72 8 3 C5.36 3 2.72 3 0 3 C0 4.32 0 5.64 0 7 C-1.32 7 -2.64 7 -4 7 C-4 8.32 -4 9.64 -4 11 C-4.99 11 -5.98 11 -7 11 C-7 8.69 -7 6.38 -7 4 C-6.67 4.66 -6.34 5.32 -6 6 C-4.35 6 -2.7 6 -1 6 C-0.67 4.02 -0.34 2.04 0 0 Z " fill="#3E4F5D" transform="translate(59,176)"/>
<path d="M0 0 C0 1.32 0 2.64 0 4 C2.64 4 5.28 4 8 4 C8 5.32 8 6.64 8 8 C9.32 8.33 10.64 8.66 12 9 C11.67 9.66 11.34 10.32 11 11 C7.7 10.34 4.4 9.68 1 9 C1 8.34 1 7.68 1 7 C-1.64 7.33 -4.28 7.66 -7 8 C-7.33 8.99 -7.66 9.98 -8 11 C-8 9.68 -8 8.36 -8 7 C-4.535 6.505 -4.535 6.505 -1 6 C-1 5.01 -1 4.02 -1 3 C-2.32 3 -3.64 3 -5 3 C-5 2.34 -5 1.68 -5 1 C-3 0 -3 0 0 0 Z " fill="#555898" transform="translate(191,159)"/>
<path d="M0 0 C0.33 0.66 0.66 1.32 1 2 C1.99 2 2.98 2 4 2 C4 2.66 4 3.32 4 4 C3.01 4 2.02 4 1 4 C1 4.99 1 5.98 1 7 C-1.64 7 -4.28 7 -7 7 C-7.12246094 7.57234375 -7.24492188 8.1446875 -7.37109375 8.734375 C-8.02762868 11.09953191 -8.93723512 13.07206797 -10.0625 15.25 C-10.42472656 15.95640625 -10.78695312 16.6628125 -11.16015625 17.390625 C-11.43730469 17.92171875 -11.71445312 18.4528125 -12 19 C-12.99 19 -13.98 19 -15 19 C-14.46231128 15.1286412 -13.422527 13.02815875 -11 10 C-10.67 9.01 -10.34 8.02 -10 7 C-7.06178099 4.30001497 -4.87415968 2.83017707 -1 2 C-0.67 1.34 -0.34 0.68 0 0 Z " fill="#507884" transform="translate(55,110)"/>
<path d="M0 0 C2.31 0 4.62 0 7 0 C7 1.32 7 2.64 7 4 C5.865625 4.28875 4.73125 4.5775 3.5625 4.875 C2.386875 5.24625 1.21125 5.6175 0 6 C-0.33 6.66 -0.66 7.32 -1 8 C-4.63 8 -8.26 8 -12 8 C-12 6.68 -12 5.36 -12 4 C-6.555 3.505 -6.555 3.505 -1 3 C-0.67 2.01 -0.34 1.02 0 0 Z " fill="#67AE6C" transform="translate(119,248)"/>
<path d="M0 0 C1.02613403 0.23771118 1.02613403 0.23771118 2.07299805 0.48022461 C5.35452412 1.0629562 8.50059921 1.21367487 11.83203125 1.31640625 C13.12431641 1.35830078 14.41660156 1.40019531 15.74804688 1.44335938 C17.10286192 1.48316352 18.45767967 1.52287591 19.8125 1.5625 C21.18686105 1.60573723 22.56121024 1.64935312 23.93554688 1.69335938 C27.29026669 1.7992979 30.6450586 1.90137189 34 2 C34 2.66 34 3.32 34 4 C29.96151684 4.02481344 25.92306353 4.0429136 21.88452148 4.05493164 C20.51211778 4.05994454 19.13971938 4.06675658 17.76733398 4.07543945 C15.78892349 4.08763857 13.8104732 4.09272248 11.83203125 4.09765625 C10.04889526 4.10551147 10.04889526 4.10551147 8.22973633 4.11352539 C5.35262513 4.01239479 2.79326587 3.66550193 0 3 C0 2.01 0 1.02 0 0 Z " fill="#577981" transform="translate(137,101)"/>
<path d="M0 0 C0.99 0 1.98 0 3 0 C3 0.99 3 1.98 3 3 C4.65 3 6.3 3 8 3 C8 5.64 8 8.28 8 11 C4.04 11 0.08 11 -4 11 C-4 10.01 -4 9.02 -4 8 C-1.36 8 1.28 8 4 8 C3.67 7.01 3.34 6.02 3 5 C2.01 4.67 1.02 4.34 0 4 C0 2.68 0 1.36 0 0 Z " fill="#46416E" transform="translate(199,163)"/>
<path d="M0 0 C2.64 0 5.28 0 8 0 C8 2.64 8 5.28 8 8 C7.01 7.34 6.02 6.68 5 6 C5 5.01 5 4.02 5 3 C4.01 3.495 4.01 3.495 3 4 C3.66 5.65 4.32 7.3 5 9 C-0.28 9 -5.56 9 -11 9 C-11 11.31 -11 13.62 -11 16 C-11.33 16 -11.66 16 -12 16 C-12 13.36 -12 10.72 -12 8 C-8.04 8 -4.08 8 0 8 C0 5.36 0 2.72 0 0 Z " fill="#3E5B4F" transform="translate(109,19)"/>
<path d="M0 0 C2.64 0 5.28 0 8 0 C8 2.64 8 5.28 8 8 C5.36 8 2.72 8 0 8 C0 5.36 0 2.72 0 0 Z " fill="#79B77E" transform="translate(106,178)"/>
<path d="M0 0 C2.64 0 5.28 0 8 0 C8 2.64 8 5.28 8 8 C5.36 8 2.72 8 0 8 C0 5.36 0 2.72 0 0 Z " fill="#78A690" transform="translate(32,175)"/>
<path d="M0 0 C2.64 0 5.28 0 8 0 C8 2.64 8 5.28 8 8 C5.36 8 2.72 8 0 8 C0 5.36 0 2.72 0 0 Z " fill="#DB99E5" transform="translate(156,116)"/>
<path d="M0 0 C2.64 0 5.28 0 8 0 C8 2.64 8 5.28 8 8 C5.36 8 2.72 8 0 8 C0 5.36 0 2.72 0 0 Z " fill="#243632" transform="translate(109,31)"/>
<path d="M0 0 C0.33 0 0.66 0 1 0 C1.33 1.65 1.66 3.3 2 5 C4.97 5.33 7.94 5.66 11 6 C10.01 6.33 9.02 6.66 8 7 C8 8.32 8 9.64 8 11 C5.36 11 2.72 11 0 11 C0 9.68 0 8.36 0 7 C-0.99 7 -1.98 7 -3 7 C-3 5.68 -3 4.36 -3 3 C-2.01 3 -1.02 3 0 3 C0 2.01 0 1.02 0 0 Z " fill="#5E396B" transform="translate(191,152)"/>
<path d="M0 0 C0.33 0.66 0.66 1.32 1 2 C-2.96 2 -6.92 2 -11 2 C-11 2.99 -11 3.98 -11 5 C-12.32 5 -13.64 5 -15 5 C-15 6.32 -15 7.64 -15 9 C-16.32 9 -17.64 9 -19 9 C-19 6.36 -19 3.72 -19 1 C-12.73 0.67 -6.46 0.34 0 0 Z " fill="#545D9F" transform="translate(144,169)"/>
<path d="M0 0 C2.33294775 -0.04241723 4.66702567 -0.04092937 7 0 C8 1 8 1 8.0625 4.0625 C8.041875 5.031875 8.02125 6.00125 8 7 C5.36 7.33 2.72 7.66 0 8 C0 5.36 0 2.72 0 0 Z " fill="#657EC2" transform="translate(141,159)"/>
<path d="M0 0 C1.32 0 2.64 0 4 0 C4 0.99 4 1.98 4 3 C5.32 3.33 6.64 3.66 8 4 C8 4.99 8 5.98 8 7 C6.68 7 5.36 7 4 7 C4 8.32 4 9.64 4 11 C2.35 11 0.7 11 -1 11 C-0.67 7.37 -0.34 3.74 0 0 Z " fill="#3F2938" transform="translate(203,136)"/>
<path d="M0 0 C0.66 0 1.32 0 2 0 C3.90608098 3.21182149 4.22266247 5.53882603 4.125 9.25 C4.10695312 10.14203125 4.08890625 11.0340625 4.0703125 11.953125 C4.03550781 12.96632812 4.03550781 12.96632812 4 14 C3.34 14 2.68 14 2 14 C2 13.01 2 12.02 2 11 C1.01 11 0.02 11 -1 11 C-1 10.01 -1 9.02 -1 8 C-1.66 8 -2.32 8 -3 8 C-3 6.68 -3 5.36 -3 4 C-2.34 3.67 -1.68 3.34 -1 3 C-0.67 2.01 -0.34 1.02 0 0 Z " fill="#C0445F" transform="translate(196,129)"/>
<path d="M0 0 C-0.66 0 -1.32 0 -2 0 C-2 0.99 -2 1.98 -2 3 C-7.445 4.485 -7.445 4.485 -13 6 C-13 6.66 -13 7.32 -13 8 C-15.64 8 -18.28 8 -21 8 C-21 7.34 -21 6.68 -21 6 C-20.01 6 -19.02 6 -18 6 C-18 5.34 -18 4.68 -18 4 C-13.545 3.505 -13.545 3.505 -9 3 C-9 2.01 -9 1.02 -9 0 C-3.375 -1.125 -3.375 -1.125 0 0 Z " fill="#6088A7" transform="translate(88,94)"/>
<path d="M0 0 C0.99 0 1.98 0 3 0 C3 1.32 3 2.64 3 4 C5.64 4 8.28 4 11 4 C11 4.99 11 5.98 11 7 C6.38 7 1.76 7 -3 7 C-3.33 6.01 -3.66 5.02 -4 4 C-2.68 4 -1.36 4 0 4 C0 2.68 0 1.36 0 0 Z " fill="#F2FDF5" transform="translate(214,62)"/>
<path d="M0 0 C0.99 0 1.98 0 3 0 C3 5.94 3 11.88 3 18 C1.68 17.34 0.36 16.68 -1 16 C-2.29239315 11.75356537 -2.01965815 9.80170946 0 6 C0.16724737 2.83304044 0.16724737 2.83304044 0 0 Z " fill="#79B977" transform="translate(219,190)"/>
<path d="M0 0 C0.33 0 0.66 0 1 0 C1.02901394 3.4374823 1.04680335 6.87493312 1.0625 10.3125 C1.07087891 11.28896484 1.07925781 12.26542969 1.08789062 13.27148438 C1.09111328 14.20927734 1.09433594 15.14707031 1.09765625 16.11328125 C1.10289307 16.97735596 1.10812988 17.84143066 1.11352539 18.73168945 C1 21 1 21 0 24 C-0.99 24 -1.98 24 -3 24 C-3 20.37 -3 16.74 -3 13 C-2.01 13 -1.02 13 0 13 C0 8.71 0 4.42 0 0 Z " fill="#71568D" transform="translate(191,131)"/>
<path d="M0 0 C1.32 0 2.64 0 4 0 C4 1.32 4 2.64 4 4 C6.31 4 8.62 4 11 4 C11 4.33 11 4.66 11 5 C8.69 5 6.38 5 4 5 C4 6.98 4 8.96 4 11 C3.34 11 2.68 11 2 11 C1.67 11.66 1.34 12.32 1 13 C0 12 0 12 -0.09765625 9.27734375 C-0.08605469 8.17519531 -0.07445313 7.07304687 -0.0625 5.9375 C-0.05347656 4.83277344 -0.04445313 3.72804688 -0.03515625 2.58984375 C-0.02355469 1.73519531 -0.01195313 0.88054688 0 0 Z " fill="#27423F" transform="translate(74,4)"/>
<path d="M0 0 C2.64 0 5.28 0 8 0 C8 2.31 8 4.62 8 7 C6 4 6 4 6 2 C4.68 2.33 3.36 2.66 2 3 C1.5978125 4.7015625 1.5978125 4.7015625 1.1875 6.4375 C0.795625 7.613125 0.40375 8.78875 0 10 C-0.99 10.33 -1.98 10.66 -3 11 C-3 8.69 -3 6.38 -3 4 C-2.01 4 -1.02 4 0 4 C0 2.68 0 1.36 0 0 Z " fill="#73AD80" transform="translate(59,179)"/>
<path d="M0 0 C1.98 0 3.96 0 6 0 C6.13277344 0.61488281 6.26554688 1.22976562 6.40234375 1.86328125 C6.57894531 2.67152344 6.75554687 3.47976562 6.9375 4.3125 C7.19853516 5.51326172 7.19853516 5.51326172 7.46484375 6.73828125 C7.99886159 9.145401 7.99886159 9.145401 9 12 C8.01 12 7.02 12 6 12 C6 10.68 6 9.36 6 8 C5.38125 7.9175 4.7625 7.835 4.125 7.75 C2 7 2 7 0.75 5.125 C0 3 0 3 0 0 Z " fill="#548565" transform="translate(189,116)"/>
<path d="M0 0 C0.33 0 0.66 0 1 0 C1 7.26 1 14.52 1 22 C0.34 22 -0.32 22 -1 22 C-1 19.36 -1 16.72 -1 14 C-1.66 14 -2.32 14 -3 14 C-2.88512252 12.41590006 -2.75765492 10.83271037 -2.625 9.25 C-2.55539063 8.36828125 -2.48578125 7.4865625 -2.4140625 6.578125 C-2.00149945 4.00933618 -1.28839043 2.24158985 0 0 Z " fill="#2A2F4E" transform="translate(35,134)"/>
<path d="M0 0 C2.31 0 4.62 0 7 0 C7 2.31 7 4.62 7 7 C4.69 7 2.38 7 0 7 C0 4.69 0 2.38 0 0 Z " fill="#222F2E" transform="translate(140,43)"/>
<path d="M0 0 C0.33 1.32 0.66 2.64 1 4 C1.99 4 2.98 4 4 4 C4 5.98 4 7.96 4 10 C1.69 10 -0.62 10 -3 10 C-3 8.02 -3 6.04 -3 4 C-2.01 3.67 -1.02 3.34 0 3 C0 2.01 0 1.02 0 0 Z " fill="#6CB26D" transform="translate(253,247)"/>
<path d="M0 0 C3.96 0 7.92 0 12 0 C12 1.32 12 2.64 12 4 C8.04 4 4.08 4 0 4 C0 2.68 0 1.36 0 0 Z " fill="#404A69" transform="translate(137,190)"/>
<path d="M0 0 C3.96 0 7.92 0 12 0 C12 1.32 12 2.64 12 4 C8.04 4 4.08 4 0 4 C0 2.68 0 1.36 0 0 Z " fill="#558E61" transform="translate(32,183)"/>
<path d="M0 0 C1.32 0 2.64 0 4 0 C4 2.64 4 5.28 4 8 C1.36 8 -1.28 8 -4 8 C-4 6.68 -4 5.36 -4 4 C-2.68 4 -1.36 4 0 4 C0 2.68 0 1.36 0 0 Z " fill="#BE846A" transform="translate(203,147)"/>
<path d="M0 0 C2.64 0 5.28 0 8 0 C8.33 2.31 8.66 4.62 9 7 C7.02 7 5.04 7 3 7 C3 6.01 3 5.02 3 4 C2.01 3.67 1.02 3.34 0 3 C0 2.01 0 1.02 0 0 Z " fill="#4B4541" transform="translate(237,0)"/>
<path d="M0 0 C1.32 0 2.64 0 4 0 C4 1.32 4 2.64 4 4 C8.95 4 13.9 4 19 4 C19 4.33 19 4.66 19 5 C16.02148438 5.29296875 16.02148438 5.29296875 13.04296875 5.5859375 C10.70011858 5.92665391 10.70011858 5.92665391 8 8 C7.01 8 6.02 8 5 8 C4.34 9.32 3.68 10.64 3 12 C3 8.37 3 4.74 3 1 C2.01 0.67 1.02 0.34 0 0 Z " fill="#598570" transform="translate(184,170)"/>
<path d="M0 0 C0 1.32 0 2.64 0 4 C-2.31 4 -4.62 4 -7 4 C-7 4.99 -7 5.98 -7 7 C-8.32 7 -9.64 7 -11 7 C-10.61502006 4.76711635 -10.10506663 3.16343698 -8.875 1.25 C-6.00254099 -0.66497267 -3.35516417 -0.18991495 0 0 Z " fill="#484543" transform="translate(240,11)"/>
<path d="M0 0 C4.95 0 9.9 0 15 0 C15 0.99 15 1.98 15 3 C10.05 3 5.1 3 0 3 C0 2.01 0 1.02 0 0 Z " fill="#446A5A" transform="translate(83,187)"/>
<path d="M0 0 C1.32 0 2.64 0 4 0 C4 1.32 4 2.64 4 4 C-0.95 4 -5.9 4 -11 4 C-10.67 3.01 -10.34 2.02 -10 1 C-2.25 0.875 -2.25 0.875 0 2 C0 1.34 0 0.68 0 0 Z " fill="#658B78" transform="translate(36,129)"/>
<path d="M0 0 C0.99 0.33 1.98 0.66 3 1 C2.34 1 1.68 1 1 1 C0.67 2.32 0.34 3.64 0 5 C-0.66 5 -1.32 5 -2 5 C-2 8.63 -2 12.26 -2 16 C-1.34 16 -0.68 16 0 16 C0 18.31 0 20.62 0 23 C-0.99 23 -1.98 23 -3 23 C-3 16.73 -3 10.46 -3 4 C-2.01 3.67 -1.02 3.34 0 3 C0 2.01 0 1.02 0 0 Z " fill="#AC4A6F" transform="translate(195,128)"/>
<path d="M0 0 C1.32 0.33 2.64 0.66 4 1 C4 1.99 4 2.98 4 4 C5.32 4 6.64 4 8 4 C8 4.99 8 5.98 8 7 C8.99 7 9.98 7 11 7 C11.33 6.01 11.66 5.02 12 4 C11.67 5.65 11.34 7.3 11 9 C9.68 9 8.36 9 7 9 C7 7.68 7 6.36 7 5 C6.01 5 5.02 5 4 5 C4 6.98 4 8.96 4 11 C3.67 11 3.34 11 3 11 C3 9.02 3 7.04 3 5 C2.01 5 1.02 5 0 5 C0 3.35 0 1.7 0 0 Z " fill="#4D7C5E" transform="translate(222,73)"/>
<path d="M0 0 C0.66 0 1.32 0 2 0 C2 2.64 2 5.28 2 8 C-0.64 7.67 -3.28 7.34 -6 7 C-6 6.34 -6 5.68 -6 5 C-6.66 4.67 -7.32 4.34 -8 4 C-5.69 4 -3.38 4 -1 4 C-0.67 2.68 -0.34 1.36 0 0 Z " fill="#5C836D" transform="translate(123,182)"/>
<path d="M0 0 C3.63 0 7.26 0 11 0 C11 0.99 11 1.98 11 3 C9.35 3 7.7 3 6 3 C6 4.32 6 5.64 6 7 C5.34 7 4.68 7 4 7 C3.67 6.01 3.34 5.02 3 4 C2.01 3.67 1.02 3.34 0 3 C0 2.01 0 1.02 0 0 Z " fill="#B4CABC" transform="translate(199,74)"/>
<path d="M0 0 C0.66 0 1.32 0 2 0 C2.1875 2.375 2.1875 2.375 2 5 C-1.20380017 7.13586678 -2.01939967 7.23132175 -5.6875 7.125 C-6.49574219 7.10695312 -7.30398437 7.08890625 -8.13671875 7.0703125 C-9.05904297 7.03550781 -9.05904297 7.03550781 -10 7 C-10 6.34 -10 5.68 -10 5 C-10.66 4.67 -11.32 4.34 -12 4 C-8.04 4 -4.08 4 0 4 C0 2.68 0 1.36 0 0 Z " fill="#571E42" transform="translate(211,155)"/>
<path d="M0 0 C-0.33 1.32 -0.66 2.64 -1 4 C-1.66 4 -2.32 4 -3 4 C-3 4.66 -3 5.32 -3 6 C-2.01 6 -1.02 6 0 6 C0 6.66 0 7.32 0 8 C-1.65 8.33 -3.3 8.66 -5 9 C-5 8.01 -5 7.02 -5 6 C-6.32 5.67 -7.64 5.34 -9 5 C-8.67 4.01 -8.34 3.02 -8 2 C-8 2.66 -8 3.32 -8 4 C-7.236875 3.34 -6.47375 2.68 -5.6875 2 C-3 0 -3 0 0 0 Z " fill="#618064" transform="translate(208,126)"/>
<path d="M0 0 C2.31 0 4.62 0 7 0 C7 1.32 7 2.64 7 4 C6.01 4 5.02 4 4 4 C4 4.99 4 5.98 4 7 C2.68 7 1.36 7 0 7 C0 4.69 0 2.38 0 0 Z " fill="#3F6954" transform="translate(56,98)"/>
<path d="M0 0 C1.32 0 2.64 0 4 0 C4 1.32 4 2.64 4 4 C4.99 4 5.98 4 7 4 C7 5.32 7 6.64 7 8 C5.68 8 4.36 8 3 8 C2.67 8.99 2.34 9.98 2 11 C1.34 11 0.68 11 0 11 C0 9.02 0 7.04 0 5 C0.66 5 1.32 5 2 5 C2.33 3.68 2.66 2.36 3 1 C2.01 0.67 1.02 0.34 0 0 Z " fill="#426354" transform="translate(250,173)"/>
<path d="M0 0 C2.31 0 4.62 0 7 0 C7.33 0.99 7.66 1.98 8 3 C8.99 3.33 9.98 3.66 11 4 C10.67 5.32 10.34 6.64 10 8 C9.01 8 8.02 8 7 8 C6.67 6.68 6.34 5.36 6 4 C3.03 3.505 3.03 3.505 0 3 C0 2.01 0 1.02 0 0 Z " fill="#486584" transform="translate(126,93)"/>
<path d="M0 0 C0.33 0 0.66 0 1 0 C1 2.64 1 5.28 1 8 C1.99 8 2.98 8 4 8 C4.33 9.32 4.66 10.64 5 12 C2.36 12 -0.28 12 -3 12 C-3 10.68 -3 9.36 -3 8 C-2.01 8 -1.02 8 0 8 C0 5.36 0 2.72 0 0 Z " fill="#49705A" transform="translate(67,179)"/>
<path d="M0 0 C2.31 0 4.62 0 7 0 C7 1.98 7 3.96 7 6 C6.34 5.34 5.68 4.68 5 4 C4.01 4.495 4.01 4.495 3 5 C3 5.66 3 6.32 3 7 C2.01 7.33 1.02 7.66 0 8 C0 5.36 0 2.72 0 0 Z " fill="#202B2E" transform="translate(86,0)"/>
<path d="M0 0 C2.31 0 4.62 0 7 0 C7.33 1.98 7.66 3.96 8 6 C4 6 4 6 2.25 4.5 C1.8375 4.005 1.425 3.51 1 3 C0.67 3.66 0.34 4.32 0 5 C0 3.35 0 1.7 0 0 Z " fill="#4D5B9C" transform="translate(172,163)"/>
<path d="M0 0 C4.95 0 9.9 0 15 0 C15 0.33 15 0.66 15 1 C12.36 1 9.72 1 7 1 C7 1.99 7 2.98 7 4 C4.69 4 2.38 4 0 4 C0 2.68 0 1.36 0 0 Z " fill="#2B4843" transform="translate(59,16)"/>
<path d="M0 0 C0.66 0 1.32 0 2 0 C2 1.98 2 3.96 2 6 C4.31 6.33 6.62 6.66 9 7 C8 10 8 10 6 11 C4.00039988 11.039992 1.99952758 11.04346799 0 11 C0 10.34 0 9.68 0 9 C1.32 8.67 2.64 8.34 4 8 C3.01 8 2.02 8 1 8 C0.67 5.36 0.34 2.72 0 0 Z " fill="#555DA1" transform="translate(116,171)"/>
<path d="M0 0 C0.78375 0.185625 1.5675 0.37125 2.375 0.5625 C4.97089775 1.25962266 4.97089775 1.25962266 7 0 C7 3.63 7 7.26 7 11 C5 8 5 8 5 4 C3.35 4 1.7 4 0 4 C0 2.68 0 1.36 0 0 Z " fill="#669873" transform="translate(17,133)"/>
<path d="M0 0 C1.32 0 2.64 0 4 0 C4 1.32 4 2.64 4 4 C3.01 4 2.02 4 1 4 C1 9.94 1 15.88 1 22 C0.67 22 0.34 22 0 22 C0 14.74 0 7.48 0 0 Z " fill="#58699C" transform="translate(36,133)"/>
<path d="M0 0 C0.625 1.8125 0.625 1.8125 1 4 C0.01 5.485 0.01 5.485 -1 7 C-1 7.66 -1 8.32 -1 9 C-0.34 9.66 0.32 10.32 1 11 C-1.64 11 -4.28 11 -7 11 C-7 10.01 -7 9.02 -7 8 C-5.68 8 -4.36 8 -3 8 C-3 6.35 -3 4.7 -3 3 C-2.01 3 -1.02 3 0 3 C0 2.01 0 1.02 0 0 Z " fill="#577665" transform="translate(225,54)"/>
<path d="M0 0 C1.32 0 2.64 0 4 0 C4 1.32 4 2.64 4 4 C3.01 4.33 2.02 4.66 1 5 C0.67 5.66 0.34 6.32 0 7 C-1.32 7 -2.64 7 -4 7 C-4 5.68 -4 4.36 -4 3 C-2.68 3 -1.36 3 0 3 C0 2.01 0 1.02 0 0 Z " fill="#424282" transform="translate(133,171)"/>
<path d="M0 0 C2.31 0 4.62 0 7 0 C7 0.99 7 1.98 7 3 C5.68 3 4.36 3 3 3 C3 4.32 3 5.64 3 7 C2.01 7 1.02 7 0 7 C0 4.69 0 2.38 0 0 Z " fill="#5F6CAD" transform="translate(180,163)"/>
<path d="M0 0 C0.99 0 1.98 0 3 0 C3 3.63 3 7.26 3 11 C2.01 11 1.02 11 0 11 C0 7.37 0 3.74 0 0 Z " fill="#7BB57B" transform="translate(215,148)"/>
<path d="M0 0 C1.32 0 2.64 0 4 0 C4.33 2.64 4.66 5.28 5 8 C3.35 8 1.7 8 0 8 C0 5.36 0 2.72 0 0 Z " fill="#5972A9" transform="translate(40,156)"/>
<path d="M0 0 C3.63 0 7.26 0 11 0 C11 0.99 11 1.98 11 3 C7.37 3 3.74 3 0 3 C0 2.01 0 1.02 0 0 Z " fill="#5E7C6F" transform="translate(234,101)"/>
<path d="M0 0 C0.33 0 0.66 0 1 0 C1 2.31 1 4.62 1 7 C1.99 7 2.98 7 4 7 C4.33 9.31 4.66 11.62 5 14 C4.34 14 3.68 14 3 14 C3 13.34 3 12.68 3 12 C1.02 12 -0.96 12 -3 12 C-1.68 11.67 -0.36 11.34 1 11 C0.67 10.01 0.34 9.02 0 8 C-0.12781786 5.32605036 -0.04391871 2.67904143 0 0 Z " fill="#739B7B" transform="translate(241,201)"/>
<path d="M0 0 C2.64 0 5.28 0 8 0 C8 1.32 8 2.64 8 4 C5.36 4 2.72 4 0 4 C0 2.68 0 1.36 0 0 Z " fill="#7AAD8A" transform="translate(32,160)"/>
<path d="M0 0 C2.31 0 4.62 0 7 0 C7 0.66 7 1.32 7 2 C5.68 2 4.36 2 3 2 C3.33 3.65 3.66 5.3 4 7 C2.68 7 1.36 7 0 7 C0 4.69 0 2.38 0 0 Z " fill="#29343F" transform="translate(226,124)"/>
<path d="M0 0 C1.32 0 2.64 0 4 0 C4 2.64 4 5.28 4 8 C2.68 8 1.36 8 0 8 C0 5.36 0 2.72 0 0 Z " fill="#2F3A65" transform="translate(172,120)"/>
<path d="M0 0 C2.64 0 5.28 0 8 0 C8 1.32 8 2.64 8 4 C5.36 4 2.72 4 0 4 C0 2.68 0 1.36 0 0 Z " fill="#BB77C7" transform="translate(156,116)"/>
<path d="M0 0 C0.99 0 1.98 0 3 0 C3 3.3 3 6.6 3 10 C2.01 10.33 1.02 10.66 0 11 C0 7.37 0 3.74 0 0 Z " fill="#7DB284" transform="translate(161,175)"/>
<path d="M0 0 C0.33 0 0.66 0 1 0 C1 6.27 1 12.54 1 19 C0.67 19 0.34 19 0 19 C0 16.36 0 13.72 0 11 C-0.99 11 -1.98 11 -3 11 C-3 9.68 -3 8.36 -3 7 C-2.01 7 -1.02 7 0 7 C0 4.69 0 2.38 0 0 Z " fill="#474444" transform="translate(256,0)"/>
<path d="M0 0 C1.32 0 2.64 0 4 0 C4 1.98 4 3.96 4 6 C2.02 6 0.04 6 -2 6 C-2 5.01 -2 4.02 -2 3 C-1.34 3 -0.68 3 0 3 C0 2.01 0 1.02 0 0 Z " fill="#76B778" transform="translate(35,177)"/>
<path d="M0 0 C2.31 0 4.62 0 7 0 C7.33 1.32 7.66 2.64 8 4 C5.69 4 3.38 4 1 4 C0.67 2.68 0.34 1.36 0 0 Z " fill="#5973B5" transform="translate(83,159)"/>
<path d="M0 0 C0.33 0.99 0.66 1.98 1 3 C2.32 3 3.64 3 5 3 C5 4.32 5 5.64 5 7 C2.36 7 -0.28 7 -3 7 C-3 6.34 -3 5.68 -3 5 C-2.34 4.67 -1.68 4.34 -1 4 C-0.34786708 1.97536745 -0.34786708 1.97536745 0 0 Z " fill="#638DC4" transform="translate(175,113)"/>
<path d="M0 0 C0.66 0 1.32 0 2 0 C2 0.66 2 1.32 2 2 C4.97 2.495 4.97 2.495 8 3 C8.33 4.65 8.66 6.3 9 8 C8.67 7.01 8.34 6.02 8 5 C5.69 5 3.38 5 1 5 C0.67 3.35 0.34 1.7 0 0 Z " fill="#CFE0D3" transform="translate(245,208)"/>
<path d="M0 0 C2.64 0 5.28 0 8 0 C8 2.64 8 5.28 8 8 C7.67 8 7.34 8 7 8 C7 6.02 7 4.04 7 2 C5.35 2.33 3.7 2.66 2 3 C1.67 4.65 1.34 6.3 1 8 C0.67 8 0.34 8 0 8 C0 5.36 0 2.72 0 0 Z " fill="#77A38F" transform="translate(106,178)"/>
<path d="M0 0 C1.32 0 2.64 0 4 0 C4 0.66 4 1.32 4 2 C5.32 2.66 6.64 3.32 8 4 C7.34 4 6.68 4 6 4 C6 4.66 6 5.32 6 6 C7.65 6 9.3 6 11 6 C11 6.33 11 6.66 11 7 C8.69 7 6.38 7 4 7 C4 5.68 4 4.36 4 3 C2.68 3 1.36 3 0 3 C0 2.01 0 1.02 0 0 Z " fill="#465282" transform="translate(184,167)"/>
<path d="M0 0 C1.98 0 3.96 0 6 0 C4.02 0.99 4.02 0.99 2 2 C1.67 7.61 1.34 13.22 1 19 C0.67 19 0.34 19 0 19 C0 12.73 0 6.46 0 0 Z " fill="#1F2F30" transform="translate(25,133)"/>
<path d="M0 0 C0.33 0 0.66 0 1 0 C1 2.97 1 5.94 1 9 C-0.65 9 -2.3 9 -4 9 C-2.25 2.25 -2.25 2.25 0 0 Z " fill="#5D7CB7" transform="translate(47,120)"/>
<path d="M0 0 C0.66 0 1.32 0 2 0 C2 2.31 2 4.62 2 7 C-0.31 7 -2.62 7 -5 7 C-5 5.35 -5 3.7 -5 2 C-3.02 2.99 -3.02 2.99 -1 4 C-0.67 2.68 -0.34 1.36 0 0 Z " fill="#507661" transform="translate(83,1)"/>
<path d="M0 0 C2.31 0 4.62 0 7 0 C7 1.32 7 2.64 7 4 C4.69 4 2.38 4 0 4 C0 2.68 0 1.36 0 0 Z " fill="#3F3C6D" transform="translate(149,186)"/>
<path d="M0 0 C0.33 0.99 0.66 1.98 1 3 C3.01822917 2.90234375 5.03645833 2.8046875 7.0546875 2.70703125 C7.69664062 2.80371094 8.33859375 2.90039062 9 3 C9.99 4.485 9.99 4.485 11 6 C9.3739713 5.93999894 7.74898451 5.8512115 6.125 5.75 C4.76761719 5.68039063 4.76761719 5.68039063 3.3828125 5.609375 C1 5 1 5 -0.3203125 2.953125 C-0.54460937 2.30859375 -0.76890625 1.6640625 -1 1 C-0.67 0.67 -0.34 0.34 0 0 Z " fill="#8A3642" transform="translate(198,152)"/>
<path d="M0 0 C0.99 0 1.98 0 3 0 C3 1.32 3 2.64 3 4 C3.99 4 4.98 4 6 4 C6.33 3.01 6.66 2.02 7 1 C7 3.31 7 5.62 7 8 C5.35 7.67 3.7 7.34 2 7 C2 5.02 2 3.04 2 1 C1.34 0.67 0.68 0.34 0 0 Z " fill="#6183C3" transform="translate(142,112)"/>
<path d="M0 0 C3.3 0 6.6 0 10 0 C10 0.99 10 1.98 10 3 C7.36 2.67 4.72 2.34 2 2 C2 2.66 2 3.32 2 4 C1.34 4 0.68 4 0 4 C0 2.68 0 1.36 0 0 Z " fill="#505C85" transform="translate(137,186)"/>
<path d="M0 0 C1.32 0 2.64 0 4 0 C4.33 1.98 4.66 3.96 5 6 C3.35 6 1.7 6 0 6 C0 4.02 0 2.04 0 0 Z " fill="#3E6C4C" transform="translate(222,101)"/>
<path d="M0 0 C3.3 0 6.6 0 10 0 C10 0.99 10 1.98 10 3 C7.03 3 4.06 3 1 3 C0.67 2.01 0.34 1.02 0 0 Z " fill="#5D8277" transform="translate(125,90)"/>
<path d="M0 0 C3.63 0 7.26 0 11 0 C10.01 0.33 9.02 0.66 8 1 C8 2.32 8 3.64 8 5 C6.68 5 5.36 5 4 5 C4 3.68 4 2.36 4 1 C2.68 0.67 1.36 0.34 0 0 Z " fill="#478054" transform="translate(16,0)"/>
<path d="M0 0 C2.31 0 4.62 0 7 0 C7 0.66 7 1.32 7 2 C6.071875 2.4021875 6.071875 2.4021875 5.125 2.8125 C2.7004767 3.95556848 2.7004767 3.95556848 1 7 C0 6 0 6 -0.0625 2.9375 C-0.041875 1.968125 -0.02125 0.99875 0 0 Z " fill="#78B57A" transform="translate(110,190)"/>
<path d="M0 0 C0 1.32 0 2.64 0 4 C-2.31 4 -4.62 4 -7 4 C-7 3.01 -7 2.02 -7 1 C-4.53721199 -0.231394 -2.7204945 -0.07159196 0 0 Z " fill="#6084C4" transform="translate(152,143)"/>
<path d="M0 0 C0.33 0.99 0.66 1.98 1 3 C3.01508358 3.73323796 3.01508358 3.73323796 5 4 C5 4.99 5 5.98 5 7 C3.68 7 2.36 7 1 7 C0.67 8.32 0.34 9.64 0 11 C0 7.37 0 3.74 0 0 Z " fill="#364C45" transform="translate(206,136)"/>
<path d="M0 0 C0.99 1.485 0.99 1.485 2 3 C2.99 3.33 3.98 3.66 5 4 C5 8.29 5 12.58 5 17 C4.67 17 4.34 17 4 17 C3.96261719 16.39671875 3.92523438 15.7934375 3.88671875 15.171875 C3.49933456 10.46249855 3.13475784 7.67993312 0 4 C0 2.68 0 1.36 0 0 Z " fill="#91555F" transform="translate(198,128)"/>
<path d="M0 0 C0.33 0.66 0.66 1.32 1 2 C1.99 2 2.98 2 4 2 C4 2.66 4 3.32 4 4 C3.01 4 2.02 4 1 4 C1 4.99 1 5.98 1 7 C-0.32 7 -1.64 7 -3 7 C-3 3 -3 3 -1.5 1.25 C-1.005 0.8375 -0.51 0.425 0 0 Z " fill="#4E7197" transform="translate(55,110)"/>
<path d="M0 0 C-0.66 0 -1.32 0 -2 0 C-2 0.99 -2 1.98 -2 3 C-4.31 3.33 -6.62 3.66 -9 4 C-9 2.68 -9 1.36 -9 0 C-3.375 -1.125 -3.375 -1.125 0 0 Z " fill="#6385B2" transform="translate(88,94)"/>
<path d="M0 0 C0.99 0 1.98 0 3 0 C3.33 2.64 3.66 5.28 4 8 C2.68 8 1.36 8 0 8 C0 5.36 0 2.72 0 0 Z " fill="#3F4D62" transform="translate(125,182)"/>
<path d="M0 0 C2.31 0 4.62 0 7 0 C7 1.32 7 2.64 7 4 C5.68 4 4.36 4 3 4 C2.67 5.32 2.34 6.64 2 8 C1.34 5.36 0.68 2.72 0 0 Z " fill="#608C6A" transform="translate(184,97)"/>
<path d="M0 0 C1.32 0 2.64 0 4 0 C4 2.31 4 4.62 4 7 C2.68 6.67 1.36 6.34 0 6 C0 4.02 0 2.04 0 0 Z " fill="#486256" transform="translate(225,31)"/>
<path d="M0 0 C1.32 0 2.64 0 4 0 C4 1.32 4 2.64 4 4 C1.36 4 -1.28 4 -4 4 C-4 3.34 -4 2.68 -4 2 C-2.68 2 -1.36 2 0 2 C0 1.34 0 0.68 0 0 Z " fill="#436E54" transform="translate(106,186)"/>
<path d="M0 0 C2.64 0 5.28 0 8 0 C8 1.32 8 2.64 8 4 C6.35 4 4.7 4 3 4 C3 3.01 3 2.02 3 1 C2.01 0.67 1.02 0.34 0 0 Z " fill="#4F6376" transform="translate(176,170)"/>
<path d="M0 0 C2.64 0.66 5.28 1.32 8 2 C8 2.66 8 3.32 8 4 C5.36 4 2.72 4 0 4 C0 2.68 0 1.36 0 0 Z " fill="#493F79" transform="translate(191,159)"/>
<path d="M0 0 C1.76462683 3.08809695 2 4.23312136 2 8 C1.01 7.67 0.02 7.34 -1 7 C-0.67 6.01 -0.34 5.02 0 4 C-1.32 3.34 -2.64 2.68 -4 2 C-2.68 1.34 -1.36 0.68 0 0 Z " fill="#8C3A41" transform="translate(201,143)"/>
<path d="M0 0 C2.31 0 4.62 0 7 0 C7 2.31 7 4.62 7 7 C5 4 5 4 5 2 C3.35 2.33 1.7 2.66 0 3 C0 2.01 0 1.02 0 0 Z " fill="#82AA8C" transform="translate(60,179)"/>
<path d="M0 0 C2.64 0 5.28 0 8 0 C7.67 1.32 7.34 2.64 7 4 C7 3.34 7 2.68 7 2 C3.06924356 2.57452746 3.06924356 2.57452746 0 5 C0 3.35 0 1.7 0 0 Z " fill="#7DA790" transform="translate(44,179)"/>
<path d="M0 0 C0.33 0.66 0.66 1.32 1 2 C1.99 2 2.98 2 4 2 C4 3.65 4 5.3 4 7 C3.67 6.34 3.34 5.68 3 5 C1.35 5.33 -0.3 5.66 -2 6 C-1.34 4.02 -0.68 2.04 0 0 Z " fill="#77474F" transform="translate(210,148)"/>
<path d="M0 0 C0.99 0 1.98 0 3 0 C3 2.31 3 4.62 3 7 C2.01 7.33 1.02 7.66 0 8 C0 5.36 0 2.72 0 0 Z " fill="#565B84" transform="translate(192,124)"/>
<path d="M0 0 C1.32 0 2.64 0 4 0 C4 1.32 4 2.64 4 4 C1.29120665 5.35439668 -1.00933268 5.06501451 -4 5 C-2.68 4.67 -1.36 4.34 0 4 C0 2.68 0 1.36 0 0 Z " fill="#415950" transform="translate(233,34)"/>
<path d="M0 0 C1.485 0.99 1.485 0.99 3 2 C3.1875 4.625 3.1875 4.625 3 7 C1.68 6.67 0.36 6.34 -1 6 C-1.042721 4.33388095 -1.04063832 2.66617115 -1 1 C-0.67 0.67 -0.34 0.34 0 0 Z " fill="#667EC1" transform="translate(45,157)"/>
<path d="M0 0 C0.99 0 1.98 0 3 0 C3 1.98 3 3.96 3 6 C1.68 6 0.36 6 -1 6 C-0.67 4.02 -0.34 2.04 0 0 Z " fill="#C7945B" transform="translate(203,148)"/>
<path d="M0 0 C0.33 0 0.66 0 1 0 C1 2.64 1 5.28 1 8 C-0.32 8 -1.64 8 -3 8 C-3 6.68 -3 5.36 -3 4 C-2.01 4 -1.02 4 0 4 C0 2.68 0 1.36 0 0 Z " fill="#579165" transform="translate(55,183)"/>
<path d="M0 0 C0.99 0 1.98 0 3 0 C3 0.99 3 1.98 3 3 C1.35 3.33 -0.3 3.66 -2 4 C-2 4.99 -2 5.98 -2 7 C-2.66 7 -3.32 7 -4 7 C-4 5.68 -4 4.36 -4 3 C-2.68 3 -1.36 3 0 3 C0 2.01 0 1.02 0 0 Z " fill="#7CAD8D" transform="translate(176,171)"/>
<path d="M0 0 C1.32 0 2.64 0 4 0 C4 1.65 4 3.3 4 5 C2.68 5 1.36 5 0 5 C0 3.35 0 1.7 0 0 Z " fill="#6084C4" transform="translate(156,140)"/>
<path d="M0 0 C3.16717283 1.58358642 4.73268318 2.45263699 6.3125 5.6875 C6.539375 6.450625 6.76625 7.21375 7 8 C6.01 8 5.02 8 4 8 C4 6.68 4 5.36 4 4 C2.68 3.67 1.36 3.34 0 3 C0 2.01 0 1.02 0 0 Z " fill="#5F7D78" transform="translate(191,120)"/>
<path d="M0 0 C1.32 0 2.64 0 4 0 C3.34 1.32 2.68 2.64 2 4 C0.35 4 -1.3 4 -3 4 C-3.33 4.99 -3.66 5.98 -4 7 C-4 5.68 -4 4.36 -4 3 C-2.68 3 -1.36 3 0 3 C0 2.01 0 1.02 0 0 Z " fill="#6687C4" transform="translate(63,106)"/>
<path d="M0 0 C0.99 0.33 1.98 0.66 3 1 C3 2.98 3 4.96 3 7 C2.01 7.33 1.02 7.66 0 8 C0 5.36 0 2.72 0 0 Z " fill="#447F52" transform="translate(47,0)"/>
<path d="M0 0 C0.99 0 1.98 0 3 0 C3 1.32 3 2.64 3 4 C0.36 4 -2.28 4 -5 4 C-4.0409375 3.8453125 -4.0409375 3.8453125 -3.0625 3.6875 C-2.381875 3.460625 -1.70125 3.23375 -1 3 C-0.67 2.01 -0.34 1.02 0 0 Z " fill="#3E6D55" transform="translate(169,182)"/>
<path d="M0 0 C3.63 0 7.26 0 11 0 C11 0.33 11 0.66 11 1 C8.36 1.33 5.72 1.66 3 2 C3 2.66 3 3.32 3 4 C2.01 4 1.02 4 0 4 C0 2.68 0 1.36 0 0 Z " fill="#DEF1E7" transform="translate(214,54)"/>
<path d="M0 0 C2.88437779 1.29299694 4.87219421 2.65941363 7 5 C5.68 5.33 4.36 5.66 3 6 C3 5.01 3 4.02 3 3 C1.68 3 0.36 3 -1 3 C-0.67 2.01 -0.34 1.02 0 0 Z " fill="#424240" transform="translate(206,2)"/>
<path d="M0 0 C0.99 0 1.98 0 3 0 C2.67 1.98 2.34 3.96 2 6 C0.68 6 -0.64 6 -2 6 C-2 5.34 -2 4.68 -2 4 C-1.34 4 -0.68 4 0 4 C0 2.68 0 1.36 0 0 Z " fill="#5B846B" transform="translate(246,170)"/>
<path d="M0 0 C2 3 2 3 2 6 C0.68 6 -0.64 6 -2 6 C-1.125 1.125 -1.125 1.125 0 0 Z " fill="#29333B" transform="translate(31,150)"/>
<path d="M0 0 C1.32 0.33 2.64 0.66 4 1 C3.01 1.495 3.01 1.495 2 2 C1.27840576 3.64363134 0.60648579 5.31050386 0 7 C-0.99 7 -1.98 7 -3 7 C-3 6.01 -3 5.02 -3 4 C-2.01 4 -1.02 4 0 4 C0 2.68 0 1.36 0 0 Z " fill="#2C4644" transform="translate(62,28)"/>
<path d="M0 0 C0.33 0 0.66 0 1 0 C1 1.65 1 3.3 1 5 C2.98 5.495 2.98 5.495 5 6 C4.67 6.66 4.34 7.32 4 8 C2.68 7.67 1.36 7.34 0 7 C0 4.69 0 2.38 0 0 Z " fill="#5B9663" transform="translate(63,187)"/>
<path d="M0 0 C0.99 0.66 1.98 1.32 3 2 C2.34 2 1.68 2 1 2 C1 2.66 1 3.32 1 4 C1.66 4.33 2.32 4.66 3 5 C0.69 5 -1.62 5 -4 5 C-3.34 4.67 -2.68 4.34 -2 4 C-2 3.34 -2 2.68 -2 2 C-1.34 2 -0.68 2 0 2 C0 1.34 0 0.68 0 0 Z " fill="#4A5A88" transform="translate(133,181)"/>
<path d="M0 0 C1.32 0 2.64 0 4 0 C4 1.32 4 2.64 4 4 C2.68 4.33 1.36 4.66 0 5 C0 3.35 0 1.7 0 0 Z " fill="#414687" transform="translate(102,171)"/>
<path d="M0 0 C0.66 0 1.32 0 2 0 C2 0.66 2 1.32 2 2 C3.32 2.33 4.64 2.66 6 3 C6 3.99 6 4.98 6 6 C5.01 6 4.02 6 3 6 C3 5.01 3 4.02 3 3 C2.01 3 1.02 3 0 3 C0 2.01 0 1.02 0 0 Z " fill="#492957" transform="translate(199,160)"/>
<path d="M0 0 C0.66 0 1.32 0 2 0 C1.814375 0.598125 1.62875 1.19625 1.4375 1.8125 C0.77906313 4.16408762 0.77906313 4.16408762 2 7 C0.68 7 -0.64 7 -2 7 C-1.34 4.69 -0.68 2.38 0 0 Z " fill="#B44962" transform="translate(196,129)"/>
<path d="M0 0 C0.66 0 1.32 0 2 0 C2 2.31 2 4.62 2 7 C1.01 7 0.02 7 -1 7 C-0.67 4.69 -0.34 2.38 0 0 Z " fill="#4C6562" transform="translate(228,132)"/>
<path d="M0 0 C1.32 0 2.64 0 4 0 C4.33 1.32 4.66 2.64 5 4 C3.35 4 1.7 4 0 4 C0 2.68 0 1.36 0 0 Z " fill="#456F52" transform="translate(191,89)"/>
</svg>
