<svg width="208" height="208" viewBox="0 0 208 208" fill="none" xmlns="http://www.w3.org/2000/svg">
	<g clip-path="url(#clip0_2033_1824)">
		<path d="M0 0C68.64 0 137.28 0 208 0C208 68.64 208 137.28 208 208C139.36 208 70.72 208 0 208C0 139.36 0 70.72 0 0Z" fill="#2DFE68" />
		<path d="M124 83C137.86 83 151.72 83 166 83C166 96.86 166 110.72 166 125C152.14 125 138.28 125 124 125C124 111.14 124 97.28 124 83Z" fill="#000100" />
		<path d="M41 83C54.86 83 68.72 83 83 83C83 96.86 83 110.72 83 125C69.14 125 55.28 125 41 125C41 111.14 41 97.28 41 83Z" fill="#010001" />
		<path d="M40.0001 81C45.9266 80.9506 51.853 80.9143 57.7797 80.8901C59.7963 80.8801 61.8129 80.8664 63.8295 80.8491C66.7262 80.8249 69.6228 80.8135 72.5197 80.8047C73.4229 80.7944 74.3261 80.784 75.2567 80.7734C76.0973 80.7733 76.938 80.7731 77.8041 80.7729C78.5436 80.7685 79.283 80.7641 80.0449 80.7595C82.0001 81 82.0001 81 85.0001 83C85.3989 84.835 85.3989 84.835 85.4325 87.0825C85.4622 88.3436 85.4622 88.3436 85.4925 89.6302C85.4989 90.5385 85.5053 91.4469 85.5119 92.3828C85.5298 93.3122 85.5478 94.2416 85.5663 95.1992C85.6205 98.1744 85.6543 101.149 85.6876 104.125C85.7208 106.139 85.7553 108.154 85.7912 110.168C85.8763 115.112 85.943 120.056 86.0001 125C83.1391 126.621 81.0957 127.249 77.8141 127.243C76.593 127.248 76.593 127.248 75.3472 127.252C74.4772 127.245 73.6073 127.238 72.7111 127.23C71.8114 127.23 70.9118 127.23 69.9849 127.229C68.087 127.226 66.189 127.218 64.2912 127.206C61.379 127.188 58.4671 127.185 55.5548 127.186C53.7111 127.181 51.8673 127.175 50.0236 127.168C49.1496 127.167 48.2757 127.166 47.3752 127.165C41.2323 127.116 41.2323 127.116 39.0001 126C38.9755 119.913 38.9573 113.826 38.9452 107.738C38.9402 105.666 38.9333 103.594 38.9247 101.522C38.9126 98.5488 38.9069 95.5752 38.9025 92.6016C38.8973 91.6713 38.8922 90.7411 38.8868 89.7826C38.8868 88.9219 38.8867 88.0611 38.8866 87.1743C38.8844 86.4149 38.8822 85.6554 38.8799 84.873C39.0001 83 39.0001 83 40.0001 81ZM41.0001 83C41.0001 96.86 41.0001 110.72 41.0001 125C54.8601 125 68.7201 125 83.0001 125C83.0001 111.14 83.0001 97.28 83.0001 83C69.1401 83 55.2801 83 41.0001 83Z" fill="#4FE977" />
		<path d="M41 83C54.86 83 68.72 83 83 83C83 96.86 83 110.72 83 125C69.14 125 55.28 125 41 125C41 111.14 41 97.28 41 83ZM43 85C42.9754 90.2511 42.9572 95.5021 42.9451 100.753C42.94 102.541 42.9332 104.329 42.9246 106.116C42.9125 108.681 42.9068 111.245 42.9023 113.809C42.8972 114.613 42.892 115.417 42.8867 116.245C42.8865 118.164 42.938 120.082 43 122C44.7883 123.788 47.1958 123.128 49.5764 123.139C50.3556 123.137 51.1347 123.135 51.9375 123.133C53.1304 123.134 53.1304 123.134 54.3474 123.136C56.0321 123.136 57.7167 123.135 59.4014 123.13C61.989 123.125 64.5764 123.13 67.1641 123.137C68.7969 123.136 70.4297 123.135 72.0625 123.133C72.8417 123.135 73.6208 123.137 74.4236 123.139C78.0079 123.458 78.0079 123.458 81 122C81.101 119.345 81.1397 116.717 81.1328 114.062C81.1338 113.267 81.1347 112.472 81.1357 111.653C81.1364 109.968 81.1345 108.283 81.1304 106.599C81.125 104.011 81.1303 101.424 81.1367 98.8359C81.1361 97.2031 81.1348 95.5703 81.1328 93.9375C81.1348 93.1583 81.1369 92.3792 81.1389 91.5764C81.4584 87.9921 81.4584 87.9921 80 85C77.2611 84.9114 74.5475 84.8848 71.8086 84.9023C70.9888 84.9038 70.1689 84.9052 69.3242 84.9066C66.6953 84.9122 64.0664 84.9248 61.4375 84.9375C59.6595 84.9425 57.8815 84.9471 56.1035 84.9512C51.7356 84.9622 47.3678 84.9795 43 85Z" fill="#002C05" />
		<path d="M124 83C137.86 83 151.72 83 166 83C166 96.86 166 110.72 166 125C152.14 125 138.28 125 124 125C124 111.14 124 97.28 124 83ZM125 86C125 97.88 125 109.76 125 122C128.744 123.248 132.233 123.143 136.133 123.133C136.925 123.134 137.718 123.135 138.534 123.136C140.207 123.136 141.88 123.135 143.552 123.13C146.122 123.125 148.692 123.13 151.262 123.137C152.885 123.136 154.509 123.135 156.133 123.133C157.292 123.136 157.292 123.136 158.475 123.139C162.032 123.454 162.032 123.454 165 122C165.089 119.261 165.115 116.547 165.098 113.809C165.096 112.579 165.096 112.579 165.093 111.324C165.088 108.695 165.075 106.066 165.062 103.438C165.057 101.66 165.053 99.8815 165.049 98.1035C165.038 93.7356 165.021 89.3678 165 85C159.625 84.9753 154.25 84.9572 148.875 84.9451C147.045 84.94 145.216 84.9332 143.386 84.9246C140.76 84.9125 138.134 84.9068 135.508 84.9023C134.687 84.8972 133.866 84.892 133.02 84.8867C128.878 84.7765 128.878 84.7765 125 86Z" fill="#003107" />
		<path d="M125 80C130.821 80.1179 136.642 80.2422 142.462 80.3723C144.444 80.4157 146.426 80.4574 148.407 80.4973C151.25 80.5549 154.092 80.6186 156.934 80.6836C157.825 80.7003 158.717 80.717 159.636 80.7342C165.886 80.8861 165.886 80.8861 167 82C167.089 85.0298 167.115 88.0367 167.098 91.0664C167.096 91.975 167.095 92.8837 167.093 93.8198C167.088 96.7341 167.075 99.6483 167.062 102.562C167.057 104.533 167.053 106.504 167.049 108.475C167.038 113.316 167.021 118.158 167 123C166.67 123 166.34 123 166 123C166 109.8 166 96.6 166 83C152.14 83 138.28 83 124 83C124.33 82.01 124.66 81.02 125 80Z" fill="#54E87C" />
		<path d="M123 84C123.33 84 123.66 84 124 84C124 97.53 124 111.06 124 125C137.53 125 151.06 125 165 125C161.232 127.512 158.096 127.403 153.719 127.52C152.909 127.546 152.099 127.572 151.265 127.6C149.553 127.652 147.842 127.7 146.13 127.743C143.509 127.812 140.89 127.908 138.27 128.006C136.607 128.054 134.944 128.1 133.281 128.145C132.497 128.176 131.712 128.207 130.904 128.239C125.464 128.341 125.464 128.341 123.285 126.739C121.697 124.59 121.662 123.543 121.751 120.896C121.772 120.075 121.792 119.255 121.813 118.409C121.85 117.528 121.887 116.646 121.926 115.738C121.952 114.832 121.979 113.927 122.006 112.993C122.094 110.099 122.203 107.206 122.313 104.312C122.376 102.351 122.438 100.389 122.498 98.4277C122.649 93.6178 122.82 88.8089 123 84Z" fill="#4FE978" />
		<path d="M167 83C167.33 83 167.66 83 168 83C168.02 83.8826 168.04 84.7652 168.06 85.6746C168.138 88.9642 168.225 92.2534 168.317 95.5427C168.356 96.9635 168.39 98.3844 168.422 99.8054C168.468 101.854 168.526 103.901 168.586 105.949C168.617 107.18 168.649 108.411 168.681 109.678C168.988 112.874 169.727 115.087 171 118C170.977 120.676 170.977 120.676 170.625 123.312C170.514 124.196 170.403 125.079 170.289 125.988C170.194 126.652 170.098 127.316 170 128C169.34 128 168.68 128 168 128C167.67 127.34 167.34 126.68 167 126C166.67 126.66 166.34 127.32 166 128C165.34 128 164.68 128 164 128C164.321 127.366 164.643 126.731 164.974 126.077C166.354 121.937 166.355 118.1 166.414 113.762C166.433 112.881 166.453 112 166.473 111.093C166.532 108.291 166.579 105.489 166.625 102.688C166.663 100.783 166.702 98.8789 166.742 96.9746C166.838 92.3165 166.922 87.6584 167 83Z" fill="#36F86D" />
		<path d="M122 82C122.66 82 123.32 82 124 82C123.67 95.53 123.34 109.06 123 123C122.67 123 122.34 123 122 123C122 114.09 122 105.18 122 96C121.34 96 120.68 96 120 96C120.33 95.01 120.66 94.02 121 93C121.222 91.1079 121.406 89.2112 121.562 87.3125C121.646 86.3186 121.73 85.3248 121.816 84.3008C121.877 83.5415 121.938 82.7823 122 82Z" fill="#38F86D" />
	</g>
	<defs>
		<clipPath id="clip0_2033_1824">
			<rect width="208" height="208" fill="white" />
		</clipPath>
	</defs>
</svg>
