<?xml version="1.0" encoding="UTF-8"?>
<svg version="1.1" xmlns="http://www.w3.org/2000/svg" width="400" height="400">
<path d="M0 0 C132 0 264 0 400 0 C400 132 400 264 400 400 C268 400 136 400 0 400 C0 268 0 136 0 0 Z " fill="#373737" transform="translate(0,0)"/>
<path d="M0 0 C132 0 264 0 400 0 C400.20625 53.79 400.4125 107.58 400.625 163 C400.71604004 179.97824219 400.80708008 196.95648438 400.90087891 214.44921875 C400.94604492 235.19726563 400.94604492 235.19726563 400.95443726 244.91333008 C400.9637462 251.69298121 401.00035517 258.47180415 401.05575562 265.2512207 C401.11962634 273.07879396 401.14830982 280.90557563 401.1344495 288.73341113 C401.12845103 292.73401546 401.13763662 296.73285316 401.19215131 300.7331295 C401.40936065 317.47669759 401.40324259 330.82539538 390 344 C388.48402571 346.03784718 387.02861744 348.11304248 385.5625 350.1875 C381.35077498 355.67550533 376.89456794 360.94593819 372.3828125 366.1875 C370.04256226 368.87102467 370.04256226 368.87102467 368.3046875 371.375 C367.65886719 372.179375 367.65886719 372.179375 367 373 C366.34 373 365.68 373 365 373 C365 337.03 365 301.06 365 264 C360.71 264 356.42 264 352 264 C352 259.71 352 255.42 352 251 C347.38 251 342.76 251 338 251 C338 228.89 338 206.78 338 184 C333.38 184 328.76 184 324 184 C324 170.47 324 156.94 324 143 C319.71 143 315.42 143 311 143 C311 134.09 311 125.18 311 116 C306.71 116 302.42 116 298 116 C298 111.71 298 107.42 298 103 C293.38 103 288.76 103 284 103 C284 98.38 284 93.76 284 89 C279.38 89 274.76 89 270 89 C270 84.71 270 80.42 270 76 C243.6 76 217.2 76 190 76 C190 80.29 190 84.58 190 89 C181.09 89 172.18 89 163 89 C163 93.62 163 98.24 163 103 C158.38 103 153.76 103 149 103 C149 107.29 149 111.58 149 116 C144.71 116 140.42 116 136 116 C136 120.62 136 125.24 136 130 C131.38 130 126.76 130 122 130 C122 138.91 122 147.82 122 157 C117.71 157 113.42 157 109 157 C109 170.2 109 183.4 109 197 C104.38 197 99.76 197 95 197 C95 219.11 95 241.22 95 264 C90.38 264 85.76 264 81 264 C81 268.62 81 273.24 81 278 C72.09 278 63.18 278 54 278 C54 282.29 54 286.58 54 291 C49.71 291 45.42 291 41 291 C41 295.62 41 300.24 41 305 C36.38 305 31.76 305 27 305 C27 309.62 27 314.24 27 319 C24.87887536 316.17183382 23.51084809 314.2497814 22.1328125 311.1640625 C21.80700195 310.43662842 21.48119141 309.70919434 21.14550781 308.9597168 C20.80874023 308.18926025 20.47197266 307.41880371 20.125 306.625 C19.77276367 305.82425049 19.42052734 305.02350098 19.05761719 304.19848633 C16.03300583 297.23647417 13.3781771 290.21152265 11 283 C10.64164063 281.92363281 10.28328125 280.84726562 9.9140625 279.73828125 C6.24377633 268.29968263 4.0226994 256.81042031 2.375 244.9375 C2.19022095 243.60924194 2.19022095 243.60924194 2.00170898 242.25415039 C0.09611113 227.8824922 -0.13986355 213.70961477 -0.11352539 199.23706055 C-0.1132186 197.02275755 -0.11335333 194.80845445 -0.11389065 192.5941515 C-0.11411522 186.69630668 -0.10834446 180.79848239 -0.10128021 174.9006424 C-0.09556009 169.35421183 -0.09531572 163.8077861 -0.09460449 158.26135254 C-0.08936958 142.07006567 -0.07540834 125.87878257 -0.0625 109.6875 C-0.041875 73.490625 -0.02125 37.29375 0 0 Z " fill="#C3A354" transform="translate(0,0)"/>
<path d="M0 0 C17.82 0 35.64 0 54 0 C54 4.62 54 9.24 54 14 C58.29 14 62.58 14 67 14 C67 22.91 67 31.82 67 41 C71.62 41 76.24 41 81 41 C81 72.35 81 103.7 81 136 C85.29 136 89.58 136 94 136 C94 184.84 94 233.68 94 284 C31.96 284 -30.08 284 -94 284 C-94 275.09 -94 266.18 -94 257 C-89.71 257 -85.42 257 -81 257 C-81 252.38 -81 247.76 -81 243 C-76.38 243 -71.76 243 -67 243 C-67 207.69 -67 172.38 -67 136 C-62.71 136 -58.42 136 -54 136 C-54 113.56 -54 91.12 -54 68 C-49.38 68 -44.76 68 -40 68 C-40 59.09 -40 50.18 -40 41 C-35.71 41 -31.42 41 -27 41 C-27 36.38 -27 31.76 -27 27 C-22.71 27 -18.42 27 -14 27 C-14 22.71 -14 18.42 -14 14 C-9.38 14 -4.76 14 0 14 C0 9.38 0 4.76 0 0 Z " fill="#EEF9FD" transform="translate(230,116)"/>
<path d="M0 0 C4.62 0 9.24 0 14 0 C14.02682614 3.97921094 14.04675393 7.95824341 14.0625 11.9375 C14.07087891 13.07380859 14.07925781 14.21011719 14.08789062 15.38085938 C14.09111328 16.46044922 14.09433594 17.54003906 14.09765625 18.65234375 C14.10289307 19.65257568 14.10812988 20.65280762 14.11352539 21.68334961 C14 24 14 24 13 25 C12.91128727 28.02977804 12.8848065 31.03667022 12.90234375 34.06640625 C12.9037587 34.97502914 12.90517365 35.88365204 12.90663147 36.81980896 C12.91224807 39.73407221 12.92480335 42.64825981 12.9375 45.5625 C12.94251286 47.53320202 12.94707614 49.50390524 12.95117188 51.47460938 C12.96222289 56.31643559 12.97949862 61.15820495 13 66 C8.71 66 4.42 66 0 66 C0 80.19 0 94.38 0 109 C0.66 109.33 1.32 109.66 2 110 C1.34 110 0.68 110 0 110 C0 117.92 0 125.84 0 134 C-4.29 134.33 -8.58 134.66 -13 135 C-13 174.93 -13 214.86 -13 256 C-8.71 256 -4.42 256 0 256 C0 251.71 0 247.42 0 243 C4.29 243 8.58 243 13 243 C13 251.91 13 260.82 13 270 C-31.55 270 -76.1 270 -122 270 C-122 210.93 -122 151.86 -122 91 C-121.67 91 -121.34 91 -121 91 C-120.89042969 92.29550781 -120.78085938 93.59101563 -120.66796875 94.92578125 C-119.1401132 112.33277485 -116.9738296 129.2110806 -112 146 C-111.47986328 147.85431641 -111.47986328 147.85431641 -110.94921875 149.74609375 C-107.23613854 162.61060396 -101.98441634 175.03116731 -96 187 C-95.67 183.04 -95.34 179.08 -95 175 C-90.38 175 -85.76 175 -81 175 C-81 170.38 -81 165.76 -81 161 C-76.71 161 -72.42 161 -68 161 C-68 156.71 -68 152.42 -68 148 C-59.09 148 -50.18 148 -41 148 C-41 143.38 -41 138.76 -41 134 C-36.38 134 -31.76 134 -27 134 C-27 111.89 -27 89.78 -27 67 C-22.38 67 -17.76 67 -13 67 C-13 53.8 -13 40.6 -13 27 C-8.71 27 -4.42 27 0 27 C0 18.09 0 9.18 0 0 Z " fill="#212120" transform="translate(122,130)"/>
<path d="M0 0 C22.44 0 44.88 0 68 0 C68 4.62 68 9.24 68 14 C72.62 14 77.24 14 82 14 C82 40.4 82 66.8 82 94 C86.29 94 90.58 94 95 94 C95 98.62 95 103.24 95 108 C90.38 108 85.76 108 81 108 C81 112.62 81 117.24 81 122 C76.71 122 72.42 122 68 122 C68 130.91 68 139.82 68 149 C63.71 149 59.42 149 55 149 C55 153.29 55 157.58 55 162 C32.56 162 10.12 162 -13 162 C-13 157.71 -13 153.42 -13 149 C-17.29 149 -21.58 149 -26 149 C-26 108.74 -26 68.48 -26 27 C-21.71 27 -17.42 27 -13 27 C-13.020625 24.875625 -13.04125 22.75125 -13.0625 20.5625 C-13.08373783 18.37500389 -13.07258946 16.18639453 -13 14 C-12 13 -12 13 -9.27734375 12.90234375 C-6.18489583 12.93489583 -3.09244792 12.96744792 0 13 C0 8.71 0 4.42 0 0 Z " fill="#487497" transform="translate(216,170)"/>
<path d="M0 0 C0.33 0 0.66 0 1 0 C1 4.29 1 8.58 1 13 C5.29 13 9.58 13 14 13 C14 21.91 14 30.82 14 40 C18.29 40 22.58 40 27 40 C27 53.53 27 67.06 27 81 C31.62 81 36.24 81 41 81 C41 103.11 41 125.22 41 148 C45.62 148 50.24 148 55 148 C55 152.29 55 156.58 55 161 C59.29 161 63.58 161 68 161 C68 196.97 68 232.94 68 270 C68.66 270 69.32 270 70 270 C70.25136719 269.42507813 70.50273437 268.85015625 70.76171875 268.2578125 C72.16247136 265.70375885 73.78840058 263.97044986 75.8125 261.875 C85.40957854 251.39560941 93.42188776 239.44174562 100.609375 227.2109375 C101.29773438 226.11652344 101.29773438 226.11652344 102 225 C102.33 225 102.66 225 103 225 C103 248.76 103 272.52 103 297 C77.92 297 52.84 297 27 297 C27 248.16 27 199.32 27 149 C22.71 149 18.42 149 14 149 C14 117.65 14 86.3 14 54 C9.38 54 4.76 54 0 54 C0 45.09 0 36.18 0 27 C-4.29 27 -8.58 27 -13 27 C-13 22.38 -13 17.76 -13 13 C-8.71 13 -4.42 13 0 13 C0 8.71 0 4.42 0 0 Z " fill="#100E0C" transform="translate(297,103)"/>
<path d="M0 0 C44.22 0 88.44 0 134 0 C130.36242092 2.72818431 126.81338089 4.62743993 122.75 6.5625 C106.48779484 14.51976521 91.6195589 24.60489626 78.30078125 36.8828125 C76.21508832 38.80207493 74.09043777 40.6570513 71.9375 42.5 C62.80956835 50.51432399 55.2683764 59.31750288 48 69 C47.35562988 69.85319824 47.35562988 69.85319824 46.69824219 70.72363281 C18.41277324 108.41581661 3.84543865 153.20019752 1 200 C0.67 200 0.34 200 0 200 C0 134 0 68 0 0 Z " fill="#131642" transform="translate(0,0)"/>
<path d="M0 0 C8.91 0 17.82 0 27 0 C27 4.29 27 8.58 27 13 C22.71 13 18.42 13 14 13 C14.495 19.435 14.495 19.435 15 26 C19.29 26.33 23.58 26.66 28 27 C28 22.38 28 17.76 28 13 C37.27734375 12.90234375 37.27734375 12.90234375 40 13 C43.07318149 16.07318149 41 21.65386506 41 26 C49.91 26 58.82 26 68 26 C68 30.62 68 35.24 68 40 C63.38 40 58.76 40 54 40 C54 44.62 54 49.24 54 54 C49.71 54 45.42 54 41 54 C41 62.91 41 71.82 41 81 C36.71 81 32.42 81 28 81 C28 85.29 28 89.58 28 94 C5.56 94 -16.88 94 -40 94 C-40 89.71 -40 85.42 -40 81 C-44.29 81 -48.58 81 -53 81 C-53 58.23 -53 35.46 -53 12 C-48.71 12 -44.42 12 -40 12 C-36.69176113 15.30823887 -39 21.32144372 -39 26 C-30.42 26 -21.84 26 -13 26 C-13 21.71 -13 17.42 -13 13 C-8.71 13 -4.42 13 0 13 C0 8.71 0 4.42 0 0 Z " fill="#FCCF5E" transform="translate(243,238)"/>
<path d="M0 0 C0.33 0 0.66 0 1 0 C1.10957031 1.29550781 1.21914063 2.59101563 1.33203125 3.92578125 C2.8598868 21.33277485 5.0261704 38.2110806 10 55 C10.34675781 56.23621094 10.69351562 57.47242188 11.05078125 58.74609375 C13.89408091 68.59770233 17.78651488 77.90786999 21.9140625 87.28515625 C22.26976318 88.09412354 22.62546387 88.90309082 22.99194336 89.73657227 C23.61998933 91.14674765 24.2594842 92.55194841 24.91625977 93.94897461 C27.53897013 99.64973245 27.65110395 104.78965025 28 111 C32.29 111 36.58 111 41 111 C40.95359375 112.02480469 40.9071875 113.04960937 40.859375 114.10546875 C40.82183989 115.46611656 40.78544159 116.82679605 40.75 118.1875 C40.71648438 118.86103516 40.68296875 119.53457031 40.6484375 120.22851562 C40.5512487 125.20944148 41.5922387 127.44709331 45 131 C47 134 47 134 47 138 C47.99 137.67 48.98 137.34 50 137 C50 137.66 50 138.32 50 139 C50.66 138.67 51.32 138.34 52 138 C51.02546875 136.71802734 51.02546875 136.71802734 50.03125 135.41015625 C49.18737471 134.29436558 48.3436315 133.17847501 47.5 132.0625 C47.07074219 131.49853516 46.64148437 130.93457031 46.19921875 130.35351562 C43 126.11328125 43 126.11328125 43 125 C51.25 125 59.5 125 68 125 C68 129.29 68 133.58 68 138 C72.62 138 77.24 138 82 138 C82 146.91 82 155.82 82 165 C86.29 165 90.58 165 95 165 C95 168.96 95 172.92 95 177 C90 175 90 175 89 174 C89.495 176.475 89.495 176.475 90 179 C60.3 179 30.6 179 0 179 C0 119.93 0 60.86 0 0 Z " fill="#12153F" transform="translate(0,221)"/>
<path d="M0 0 C0.33 0 0.66 0 1 0 C1 4.29 1 8.58 1 13 C5.29 13 9.58 13 14 13 C14 21.91 14 30.82 14 40 C18.29 40 22.58 40 27 40 C27 53.53 27 67.06 27 81 C31.62 81 36.24 81 41 81 C41 103.11 41 125.22 41 148 C45.62 148 50.24 148 55 148 C55 152.29 55 156.58 55 161 C59.29 161 63.58 161 68 161 C68 161.33 68 161.66 68 162 C63.71 162 59.42 162 55 162 C55 184.11 55 206.22 55 229 C50.38 229 45.76 229 41 229 C40.505 216.13 40.505 216.13 40 203 C36.04 202.67 32.08 202.34 28 202 C28 233.35 28 264.7 28 297 C27.67 297 27.34 297 27 297 C27 248.16 27 199.32 27 149 C22.71 149 18.42 149 14 149 C14 117.65 14 86.3 14 54 C9.38 54 4.76 54 0 54 C0 45.09 0 36.18 0 27 C-4.29 27 -8.58 27 -13 27 C-13 22.38 -13 17.76 -13 13 C-8.71 13 -4.42 13 0 13 C0 8.71 0 4.42 0 0 Z " fill="#100F0C" transform="translate(297,103)"/>
<path d="M0 0 C34.32 0 68.64 0 104 0 C104 30.69 104 61.38 104 93 C101.40769596 90.40769596 99.91903287 88.39727345 98.0625 85.3125 C85.36492505 65.10818263 69.64815912 46.86652989 51 32 C49.87854655 31.08768157 48.75746416 30.17490685 47.63671875 29.26171875 C40.10645224 23.17523705 32.39049146 17.86708224 24 13 C22.80822049 12.29099163 21.61682241 11.58134175 20.42578125 10.87109375 C13.83207139 6.97901036 7.24984261 3.53911538 0 1 C0 0.67 0 0.34 0 0 Z " fill="#141645" transform="translate(296,0)"/>
<path d="M0 0 C26.73 0 53.46 0 81 0 C81 0.99 81 1.98 81 3 C82.6254308 2.85904936 84.25034051 2.71207913 85.875 2.5625 C86.77992188 2.48128906 87.68484375 2.40007812 88.6171875 2.31640625 C91.01110861 2.13010715 91.01110861 2.13010715 93 1 C93 9.25 93 17.5 93 26 C88.71 26 84.42 26 80 26 C80 30.62 80 35.24 80 40 C57.89 40 35.78 40 13 40 C13 35.71 13 31.42 13 27 C8.71 27 4.42 27 0 27 C0 18.09 0 9.18 0 0 Z " fill="#1F1E1E" transform="translate(190,292)"/>
<path d="M0 0 C4.29 0 8.58 0 13 0 C13 4.29 13 8.58 13 13 C17.62 13 22.24 13 27 13 C27 26.53 27 40.06 27 54 C22.38 54 17.76 54 13 54 C13 62.91 13 71.82 13 81 C4.09 81 -4.82 81 -14 81 C-14 67.47 -14 53.94 -14 40 C-9.38 40 -4.76 40 0 40 C0 26.8 0 13.6 0 0 Z " fill="#EBF5F8" transform="translate(136,157)"/>
<path d="M0 0 C9.27734375 -0.09765625 9.27734375 -0.09765625 12 0 C13.61986179 1.61986179 13.12601929 3.39232394 13.12698364 5.63122559 C13.12980347 6.63243942 13.13262329 7.63365326 13.13552856 8.66520691 C13.13350433 9.77277847 13.1314801 10.88035004 13.12939453 12.02148438 C13.13114685 13.18069901 13.13289917 14.33991364 13.13470459 15.53425598 C13.13912595 19.38743563 13.13618411 23.24056983 13.1328125 27.09375 C13.13348546 29.75793516 13.1344537 32.42211891 13.13571167 35.08630371 C13.13753322 40.67847186 13.13512745 46.27062682 13.13037109 51.86279297 C13.1249285 58.33672502 13.12669117 64.81062558 13.1321975 71.28455687 C13.13672906 76.83359405 13.13737897 82.38262174 13.13475883 87.93166018 C13.13319629 91.24995308 13.13339174 94.56822786 13.13629532 97.88652039 C13.13882017 101.58387414 13.13498361 105.28116647 13.12939453 108.97851562 C13.13141876 110.08608719 13.13344299 111.19365875 13.13552856 112.33479309 C13.13270874 113.33600693 13.12988892 114.33722076 13.12698364 115.36877441 C13.12660662 116.24410072 13.12622959 117.11942703 13.12584114 118.02127838 C13 120 13 120 12 121 C8.04 121 4.08 121 0 121 C0 112.09 0 103.18 0 94 C-4.62 94 -9.24 94 -14 94 C-14 89.71 -14 85.42 -14 81 C-9.38 81 -4.76 81 0 81 C-0.11799958 73.63090704 -0.24222971 66.26195596 -0.37231445 58.89306641 C-0.41570903 56.38463216 -0.4573807 53.87616751 -0.49731445 51.36767578 C-0.55490757 47.76846132 -0.61863343 44.16940058 -0.68359375 40.5703125 C-0.70030624 39.44319855 -0.71701874 38.31608459 -0.73423767 37.15481567 C-0.75418289 36.11388763 -0.77412811 35.07295959 -0.79467773 34.00048828 C-0.81022202 33.08115509 -0.8257663 32.1618219 -0.84178162 31.21463013 C-0.8610678 28.95924846 -0.8610678 28.95924846 -2 27 C-10.25 27 -18.5 27 -27 27 C-27 22.38 -27 17.76 -27 13 C-18.09 13 -9.18 13 0 13 C0 8.71 0 4.42 0 0 Z " fill="#0E0E0D" transform="translate(82,265)"/>
<path d="M0 0 C0.33 0 0.66 0 1 0 C1 23.76 1 47.52 1 72 C-15.17 72 -31.34 72 -48 72 C-48.33 68.04 -48.66 64.08 -49 60 C-48.34 60 -47.68 60 -47 60 C-47 59.34 -47 58.68 -47 58 C-42.71 58 -38.42 58 -34 58 C-34.020625 56.370625 -34.04125 54.74125 -34.0625 53.0625 C-34.08386068 51.37500659 -34.07205511 49.68608966 -34 48 C-33.505 47.505 -33.505 47.505 -33 47 C-33.66 46.67 -34.32 46.34 -35 46 C-34.67 45.34 -34.34 44.68 -34 44 C-33.34 44.33 -32.68 44.66 -32 45 C-31.74863281 44.42507813 -31.49726563 43.85015625 -31.23828125 43.2578125 C-29.83752864 40.70375885 -28.21159942 38.97044986 -26.1875 36.875 C-16.59042146 26.39560941 -8.57811224 14.44174562 -1.390625 2.2109375 C-0.93171875 1.48132813 -0.4728125 0.75171875 0 0 Z " fill="#131540" transform="translate(399,328)"/>
<path d="M0 0 C26.4 0 52.8 0 80 0 C80 3.96 80 7.92 80 12 C71.09 12 62.18 12 53 12 C53 20.58 53 29.16 53 38 C49.04 38 45.08 38 41 38 C41 29.42 41 20.84 41 12 C31.76 12 22.52 12 13 12 C13 16.29 13 20.58 13 25 C8.71 25 4.42 25 0 25 C0 16.75 0 8.5 0 0 Z " fill="#010102" transform="translate(190,293)"/>
<path d="M0 0 C26.4 0 52.8 0 80 0 C80 4.29 80 8.58 80 13 C40.895 13.495 40.895 13.495 1 14 C0.67 18.29 0.34 22.58 0 27 C-8.91 27 -17.82 27 -27 27 C-27 22.38 -27 17.76 -27 13 C-18.09 13 -9.18 13 0 13 C0 8.71 0 4.42 0 0 Z " fill="#0F0F0E" transform="translate(190,76)"/>
<path d="M0 0 C3.96 0 7.92 0 12 0 C13.71987206 1.71987206 13.11974788 3.90877029 13.12442017 6.20132446 C13.12082489 6.94578827 13.11722961 7.69025208 13.11352539 8.45727539 C13.11367142 9.23770706 13.11381744 10.01813873 13.1139679 10.82221985 C13.11326858 13.4140598 13.10547536 16.00582878 13.09765625 18.59765625 C13.09579213 20.3898464 13.0943682 22.18203706 13.09336853 23.97422791 C13.08954284 28.70070797 13.07971212 33.42715752 13.06866455 38.15362549 C13.05845153 42.9728555 13.05387115 47.79209042 13.04882812 52.61132812 C13.03808989 62.07423219 13.02101286 71.53711356 13 81 C17.62 81 22.24 81 27 81 C26.67 81.99 26.34 82.98 26 84 C26 87.63 26 91.26 26 95 C17.42 95 8.84 95 0 95 C0 63.65 0 32.3 0 0 Z " fill="#0D0E0E" transform="translate(325,305)"/>
<path d="M0 0 C4.62 0 9.24 0 14 0 C14.02682614 3.97921094 14.04675393 7.95824341 14.0625 11.9375 C14.07087891 13.07380859 14.07925781 14.21011719 14.08789062 15.38085938 C14.09272461 17.00024414 14.09272461 17.00024414 14.09765625 18.65234375 C14.10551147 20.15269165 14.10551147 20.15269165 14.11352539 21.68334961 C14 24 14 24 13 25 C12.91128727 28.02977804 12.8848065 31.03667022 12.90234375 34.06640625 C12.90446617 35.42934059 12.90446617 35.42934059 12.90663147 36.81980896 C12.91224807 39.73407221 12.92480335 42.64825981 12.9375 45.5625 C12.94251286 47.53320202 12.94707614 49.50390524 12.95117188 51.47460938 C12.96222289 56.31643559 12.97949862 61.15820495 13 66 C11.10479822 66.17370098 9.20877398 66.33842399 7.3125 66.5 C6.25675781 66.5928125 5.20101562 66.685625 4.11328125 66.78125 C-1.58356145 67.08421599 -7.29510691 67 -13 67 C-13 53.8 -13 40.6 -13 27 C-8.71 27 -4.42 27 0 27 C0 18.09 0 9.18 0 0 Z " fill="#21211F" transform="translate(122,130)"/>
<path d="M0 0 C0.33 0 0.66 0 1 0 C1 26.4 1 52.8 1 80 C-3.62 80 -8.24 80 -13 80 C-13.495 74.06 -13.495 74.06 -14 68 C-17.96 67.67 -21.92 67.34 -26 67 C-26 71.62 -26 76.24 -26 81 C-36.05859375 81.09765625 -36.05859375 81.09765625 -39 81 C-40 80 -40 80 -40.09765625 77.05859375 C-40.06510417 73.70572917 -40.03255208 70.35286458 -40 67 C-35.71 67 -31.42 67 -27 67 C-27 62.71 -27 58.42 -27 54 C-31.29 54 -35.58 54 -40 54 C-40 49.38 -40 44.76 -40 40 C-29.94140625 39.90234375 -29.94140625 39.90234375 -27 40 C-26.67 40.33 -26.34 40.66 -26 41 C-24.00200428 41.09873816 -22.00042842 41.12971799 -20 41.125 C-18.906875 41.12757813 -17.81375 41.13015625 -16.6875 41.1328125 C-14.08169646 41.30547755 -14.08169646 41.30547755 -13 40 C-8.71 40 -4.42 40 0 40 C0 26.8 0 13.6 0 0 Z " fill="#557D9C" transform="translate(297,184)"/>
<path d="M0 0 C0.33 0 0.66 0 1 0 C1 4.29 1 8.58 1 13 C5.29 13 9.58 13 14 13 C14 21.91 14 30.82 14 40 C18.29 40 22.58 40 27 40 C27 53.53 27 67.06 27 81 C22.71 81 18.42 81 14 81 C14 72.09 14 63.18 14 54 C9.38 54 4.76 54 0 54 C0 45.09 0 36.18 0 27 C-4.29 27 -8.58 27 -13 27 C-13 22.38 -13 17.76 -13 13 C-8.71 13 -4.42 13 0 13 C0 8.71 0 4.42 0 0 Z " fill="#3D3A32" transform="translate(297,103)"/>
<path d="M0 0 C4.62 0 9.24 0 14 0 C14 71.28 14 142.56 14 216 C13.67 216 13.34 216 13 216 C13 167.16 13 118.32 13 68 C8.71 68 4.42 68 0 68 C0 45.56 0 23.12 0 0 Z " fill="#3F4041" transform="translate(311,184)"/>
<path d="M0 0 C4.29 0 8.58 0 13 0 C13 4.62 13 9.24 13 14 C17.29 14 21.58 14 26 14 C26 18.29 26 22.58 26 27 C21.71 27 17.42 27 13 27 C13 31.29 13 35.58 13 40 C4.42 40 -4.16 40 -13 40 C-13.495 32.575 -13.495 32.575 -14 25 C-17.3 25 -20.6 25 -24 25 C-22.68 23.35 -21.36 21.7 -20 20 C-20.66 19.67 -21.32 19.34 -22 19 C-21 18 -21 18 -18.0625 17.9375 C-16.5465625 17.9684375 -16.5465625 17.9684375 -15 18 C-14.34 18 -13.68 18 -13 18 C-12.34 17.34 -11.68 16.68 -11 16 C-11.99 15.34 -12.98 14.68 -14 14 C-7.565 13.505 -7.565 13.505 -1 13 C-0.67 8.71 -0.34 4.42 0 0 Z " fill="#477497" transform="translate(217,224)"/>
<path d="M0 0 C4.29 0 8.58 0 13 0 C13 13.86 13 27.72 13 42 C13.66 42.33 14.32 42.66 15 43 C14.34 43 13.68 43 13 43 C13 50.92 13 58.84 13 67 C6.565 67.495 6.565 67.495 0 68 C0 107.93 0 147.86 0 189 C-0.33 189 -0.66 189 -1 189 C-1.02332612 164.50511696 -1.04097776 140.01023557 -1.05181217 115.51534367 C-1.05697574 104.1427937 -1.0640196 92.77025062 -1.07543945 81.39770508 C-1.08538443 71.48923136 -1.09185298 61.58076263 -1.09408849 51.67228407 C-1.09539592 46.42237095 -1.09848376 41.17247211 -1.10573006 35.92256355 C-1.11248734 30.98723004 -1.11461756 26.05191675 -1.11310768 21.11657906 C-1.11338414 19.2996459 -1.11539099 17.4827121 -1.11920547 15.66578293 C-1.12413818 13.19631711 -1.12299987 10.72692894 -1.12025452 8.25746155 C-1.12316736 7.52887611 -1.1260802 6.80029067 -1.12908131 6.04962689 C-1.11412121 1.11412121 -1.11412121 1.11412121 0 0 Z " fill="#222322" transform="translate(109,197)"/>
<path d="M0 0 C4.62 0 9.24 0 14 0 C14 4.29 14 8.58 14 13 C18.29 13 22.58 13 27 13 C27 13.33 27 13.66 27 14 C22.71 14 18.42 14 14 14 C14 36.11 14 58.22 14 81 C9.38 81 4.76 81 0 81 C0 58.89 0 36.78 0 14 C4.29 14 8.58 14 13 14 C13 9.71 13 5.42 13 1 C8.71 1 4.42 1 0 1 C0 0.67 0 0.34 0 0 Z " fill="#353534" transform="translate(338,251)"/>
<path d="M0 0 C4.29 0 8.58 0 13 0 C16.30823887 3.30823887 14 9.32144372 14 14 C22.58 14 31.16 14 40 14 C40 14.33 40 14.66 40 15 C31.09 15 22.18 15 13 15 C13 19.29 13 23.58 13 28 C17.29 28 21.58 28 26 28 C26 32.29 26 36.58 26 41 C48.44 41 70.88 41 94 41 C94 50.24 94 59.48 94 69 C89.71 69 85.42 69 81 69 C81 73.29 81 77.58 81 82 C80.67 82 80.34 82 80 82 C80 77.38 80 72.76 80 68 C84.29 68 88.58 68 93 68 C92.67 60.08 92.34 52.16 92 44 C91.67 44.33 91.34 44.66 91 45 C89.31391034 45.07205511 87.62499341 45.08386068 85.9375 45.0625 C85.01839844 45.05347656 84.09929687 45.04445313 83.15234375 45.03515625 C82.44207031 45.02355469 81.73179687 45.01195312 81 45 C81 44.01 81 43.02 81 42 C54.27 42 27.54 42 0 42 C0 28.14 0 14.28 0 0 Z " fill="#BB9229" transform="translate(190,250)"/>
<path d="M0 0 C8.58 0 17.16 0 26 0 C26 4.29 26 8.58 26 13 C21.71 13 17.42 13 13 13 C13 26.53 13 40.06 13 54 C8.71 53.67 4.42 53.34 0 53 C0 35.51 0 18.02 0 0 Z " fill="#212122" transform="translate(325,252)"/>
<path d="M0 0 C3.96 0 7.92 0 12 0 C13.38425411 2.76850823 13.11959962 5.00419184 13.11352539 8.10205078 C13.11344986 9.38322784 13.11337433 10.66440491 13.11329651 11.98440552 C13.10818948 13.38804157 13.10297348 14.79167723 13.09765625 16.1953125 C13.09579146 17.62734935 13.09436784 19.05938684 13.09336853 20.49142456 C13.08954819 24.26273354 13.07972202 28.03400407 13.06866455 31.80529785 C13.05844005 35.65274536 13.05386868 39.50019907 13.04882812 43.34765625 C13.03809932 50.89845706 13.02050643 58.44921825 13 66 C8.71 66 4.42 66 0 66 C0 44.22 0 22.44 0 0 Z " fill="#0F0E0C" transform="translate(96,198)"/>
<path d="M0 0 C8.25 0 16.5 0 25 0 C25 4.29 25 8.58 25 13 C29.62 13 34.24 13 39 13 C39 21.91 39 30.82 39 40 C43.29 40 47.58 40 52 40 C52 43.96 52 47.92 52 52 C34.10808565 44.84323426 18.15578691 25.1168669 6.5625 10.125 C6.13751221 9.57779297 5.71252441 9.03058594 5.2746582 8.46679688 C3.1625048 5.69782308 1.56995066 3.13990132 0 0 Z " fill="#C1A157" transform="translate(43,346)"/>
<path d="M0 0 C8.91 0 17.82 0 27 0 C27 8.91 27 17.82 27 27 C18.09 27 9.18 27 0 27 C0 22.71 0 18.42 0 14 C-4.29 14 -8.58 14 -13 14 C-13 13.67 -13 13.34 -13 13 C-8.71 13 -4.42 13 0 13 C0 8.71 0 4.42 0 0 Z " fill="#25445E" transform="translate(203,305)"/>
<path d="M0 0 C4.29 0 8.58 0 13 0 C13 8.91 13 17.82 13 27 C-0.2 27 -13.4 27 -27 27 C-26.67 22.38 -26.34 17.76 -26 13 C-17.42 13 -8.84 13 0 13 C0 8.71 0 4.42 0 0 Z " fill="#0F0F0F" transform="translate(122,373)"/>
<path d="M0 0 C4.29 0 8.58 0 13 0 C13 17.82 13 35.64 13 54 C8.71 54 4.42 54 0 54 C0 36.18 0 18.36 0 0 Z " fill="#202020" transform="translate(338,332)"/>
<path d="M0 0 C4.29 0 8.58 0 13 0 C13 13.53 13 27.06 13 41 C8.71 41 4.42 41 0 41 C0 27.47 0 13.94 0 0 Z " fill="#0F0F0F" transform="translate(149,318)"/>
<path d="M0 0 C4.29 0 8.58 0 13 0 C13 13.2 13 26.4 13 40 C8.71 40 4.42 40 0 40 C0 26.8 0 13.6 0 0 Z " fill="#0F0E0E" transform="translate(311,144)"/>
<path d="M0 0 C3.96 0 7.92 0 12 0 C13 1 13 1 13.11352539 4.69360352 C13.11336624 6.33871292 13.10766988 7.98382731 13.09765625 9.62890625 C13.0962413 10.49313705 13.09482635 11.35736786 13.09336853 12.24778748 C13.08775239 15.01939292 13.07519719 17.7909188 13.0625 20.5625 C13.05748708 22.4368478 13.05292381 24.31119685 13.04882812 26.18554688 C13.03777772 30.79039544 13.0205023 35.39518421 13 40 C8.71 40 4.42 40 0 40 C0 26.8 0 13.6 0 0 Z " fill="#0E0E0E" transform="translate(109,157)"/>
<path d="M0 0 C4.29 0 8.58 0 13 0 C13 8.58 13 17.16 13 26 C4.2912007 26.69670394 -4.26496791 27.10652478 -13 27 C-13 22.38 -13 17.76 -13 13 C-8.71 13 -4.42 13 0 13 C0 8.71 0 4.42 0 0 Z " fill="#23211D" transform="translate(149,103)"/>
<path d="M0 0 C3.96 0 7.92 0 12 0 C12.33 4.29 12.66 8.58 13 13 C17.62 13 22.24 13 27 13 C27 17.29 27 21.58 27 26 C18.09 26 9.18 26 0 26 C0 20.72 0 15.44 0 10 C-1.32 10.33 -2.64 10.66 -4 11 C-4 10.34 -4 9.68 -4 9 C-3.01 8.67 -2.02 8.34 -1 8 C-0.67 5.36 -0.34 2.72 0 0 Z " fill="#191525" transform="translate(149,144)"/>
<path d="M0 0 C0.33 0 0.66 0 1 0 C1.19582583 4.31216481 1.38027074 8.6247409 1.5625 12.9375 C1.64661133 14.78504883 1.64661133 14.78504883 1.73242188 16.66992188 C1.78076172 17.83974609 1.82910156 19.00957031 1.87890625 20.21484375 C1.9260376 21.29886475 1.97316895 22.38288574 2.02172852 23.49975586 C2 26 2 26 1 27 C-1.35313555 27.07271741 -3.70833668 27.08370868 -6.0625 27.0625 C-7.35285156 27.05347656 -8.64320313 27.04445312 -9.97265625 27.03515625 C-10.97167969 27.02355469 -11.97070312 27.01195312 -13 27 C-12.98839844 27.68707031 -12.97679687 28.37414062 -12.96484375 29.08203125 C-12.95582031 29.98308594 -12.94679687 30.88414062 -12.9375 31.8125 C-12.92589844 32.70582031 -12.91429687 33.59914062 -12.90234375 34.51953125 C-13 37 -13 37 -14 40 C-9.38 39.67 -4.76 39.34 0 39 C0 42.63 0 46.26 0 50 C-0.33 50 -0.66 50 -1 50 C-1 47.03 -1 44.06 -1 41 C-4.96 41 -8.92 41 -13 41 C-13 43.64 -13 46.28 -13 49 C-14.98 49.495 -14.98 49.495 -17 50 C-15.68 50.33 -14.36 50.66 -13 51 C-13 51.99 -13 52.98 -13 54 C-17.29 54 -21.58 54 -26 54 C-26 67.2 -26 80.4 -26 94 C-30.62 94 -35.24 94 -40 94 C-40 93.67 -40 93.34 -40 93 C-35.71 93 -31.42 93 -27 93 C-27.495 72.21 -27.495 72.21 -28 51 C-27.34 51 -26.68 51 -26 51 C-26.03552979 50.30849854 -26.07105957 49.61699707 -26.10766602 48.90454102 C-26.26465181 45.79077094 -26.41368123 42.67667062 -26.5625 39.5625 C-26.61857422 38.47388672 -26.67464844 37.38527344 -26.73242188 36.26367188 C-26.78076172 35.22919922 -26.82910156 34.19472656 -26.87890625 33.12890625 C-26.9260376 32.17056885 -26.97316895 31.21223145 -27.02172852 30.22485352 C-27 28 -27 28 -26 27 C-17.38216734 25.77750535 -8.68112736 25.91318873 0 26 C0 17.42 0 8.84 0 0 Z " fill="#29292A" transform="translate(162,103)"/>
<path d="M0 0 C1.95157013 0.00022659 1.95157013 0.00022659 3.94256592 0.00045776 C5.35787103 0.01067032 6.77317457 0.0211023 8.18847656 0.03173828 C9.6400737 0.03547007 11.09167336 0.03831626 12.54327393 0.04031372 C16.35735064 0.04793714 20.17127418 0.06757443 23.98529053 0.08972168 C27.87982105 0.110208 31.7743764 0.11932139 35.66894531 0.12939453 C43.30573377 0.15082163 50.94239617 0.18494186 58.57910156 0.22705078 C59.07410156 2.20705078 59.07410156 2.20705078 59.57910156 4.22705078 C63.20910156 4.55705078 66.83910156 4.88705078 70.57910156 5.22705078 C70.57910156 5.55705078 70.57910156 5.88705078 70.57910156 6.22705078 C44.17910156 6.22705078 17.77910156 6.22705078 -9.42089844 6.22705078 C-9.42089844 10.51705078 -9.42089844 14.80705078 -9.42089844 19.22705078 C-18.33089844 19.22705078 -27.24089844 19.22705078 -36.42089844 19.22705078 C-36.42089844 18.89705078 -36.42089844 18.56705078 -36.42089844 18.22705078 C-35.72939697 18.17170166 -35.03789551 18.11635254 -34.32543945 18.05932617 C-31.2110263 17.80741547 -28.09722749 17.54857727 -24.98339844 17.28955078 C-23.89478516 17.20253906 -22.80617187 17.11552734 -21.68457031 17.02587891 C-20.65009766 16.93886719 -19.615625 16.85185547 -18.54980469 16.76220703 C-17.59146729 16.68365479 -16.63312988 16.60510254 -15.64575195 16.52416992 C-13.45179955 16.46038007 -13.45179955 16.46038007 -12.42089844 15.22705078 C-12.44152344 13.98955078 -12.46214844 12.75205078 -12.48339844 11.47705078 C-12.51507455 7.9419971 -12.25444682 5.34408304 -10.42089844 2.22705078 C-7.00618209 -0.05093902 -4.03545752 -0.01564131 0 0 Z " fill="#B19452" transform="translate(199.4208984375,69.77294921875)"/>
<path d="M0 0 C4.62 0 9.24 0 14 0 C14 4.62 14 9.24 14 14 C9.71 14 5.42 14 1 14 C1.020625 16.124375 1.04125 18.24875 1.0625 20.4375 C1.08373783 22.62499611 1.07258946 24.81360547 1 27 C0 28 0 28 -2.94140625 28.09765625 C-6.29427083 28.06510417 -9.64713542 28.03255208 -13 28 C-13 23.38 -13 18.76 -13 14 C-8.71 14 -4.42 14 0 14 C0 9.38 0 4.76 0 0 Z " fill="#0D161F" transform="translate(216,210)"/>
<path d="M0 0 C0.33 0.66 0.66 1.32 1 2 C7.6 2 14.2 2 21 2 C22 5 22 5 22 15 C8.635 15.495 8.635 15.495 -5 16 C-5 11.71 -5 7.42 -5 3 C-3.35 2.67 -1.7 2.34 0 2 C0 1.34 0 0.68 0 0 Z " fill="#0E0E0E" transform="translate(46,330)"/>
<path d="M0 0 C16.78279168 -0.22679448 16.78279168 -0.22679448 25 1 C26 3 26 3 26 14 C17.09 14 8.18 14 -1 14 C-0.67 9.38 -0.34 4.76 0 0 Z " fill="#0E0D0D" transform="translate(96,386)"/>
<path d="M0 0 C4.29 0 8.58 0 13 0 C13 8.25 13 16.5 13 25 C4 27 4 27 0 26 C-1.04616643 22.8615007 -1.04169366 20.94961697 -0.87890625 17.67578125 C-0.83056641 16.64775391 -0.78222656 15.61972656 -0.73242188 14.56054688 C-0.67634766 13.48869141 -0.62027344 12.41683594 -0.5625 11.3125 C-0.51029297 10.22904297 -0.45808594 9.14558594 -0.40429688 8.02929688 C-0.27458981 5.35261466 -0.13795206 2.67626994 0 0 Z " fill="#0F0D0D" transform="translate(28,306)"/>
<path d="M0 0 C4.29 0 8.58 0 13 0 C13.02690805 3.93754535 13.0467945 7.87490782 13.0625 11.8125 C13.07087891 12.93205078 13.07925781 14.05160156 13.08789062 15.20507812 C13.09111328 16.27822266 13.09433594 17.35136719 13.09765625 18.45703125 C13.10289307 19.44678955 13.10812988 20.43654785 13.11352539 21.45629883 C13 24 13 24 12 27 C8.04 27 4.08 27 0 27 C0 18.09 0 9.18 0 0 Z " fill="#0E0D0C" transform="translate(123,130)"/>
<path d="M0 0 C4.29 0 8.58 0 13 0 C13 8.58 13 17.16 13 26 C9.04 26 5.08 26 1 26 C0.233884 17.28543051 -0.09612779 8.7476288 0 0 Z " fill="#0F0F0D" transform="translate(297,117)"/>
<path d="M0 0 C0.33 0 0.66 0 1 0 C1 3.63 1 7.26 1 11 C5.29 11 9.58 11 14 11 C15.90002233 16.61063307 16.27673115 21.52456216 16.22705078 27.42358398 C16.22734283 28.3414418 16.22763489 29.25929962 16.22793579 30.20497131 C16.22654983 33.21877718 16.21102324 36.23233142 16.1953125 39.24609375 C16.19157976 41.34359095 16.18873402 43.4410899 16.18673706 45.53858948 C16.17912115 51.04426942 16.15949021 56.54984291 16.1373291 62.05548096 C16.11682664 67.67955078 16.10772594 73.3036379 16.09765625 78.92773438 C16.07624239 89.95186954 16.04213113 100.9759259 16 112 C17.485 112.495 17.485 112.495 19 113 C19.226875 112.195625 19.45375 111.39125 19.6875 110.5625 C20.3371875 109.2940625 20.3371875 109.2940625 21 108 C23.625 107.1875 23.625 107.1875 26 107 C18.67924528 116.91194969 18.67924528 116.91194969 15 121 C14.34 121 13.68 121 13 121 C13 85.03 13 49.06 13 12 C8.71 12 4.42 12 0 12 C0 8.04 0 4.08 0 0 Z " fill="#B39A64" transform="translate(352,252)"/>
<path d="M0 0 C2.45898655 -0.08076963 4.91533742 -0.14037143 7.375 -0.1875 C8.07367188 -0.21263672 8.77234375 -0.23777344 9.4921875 -0.26367188 C11.5234375 -0.29296875 11.5234375 -0.29296875 15 0 C17.49611143 3.74416714 17.64054717 6.66513426 17 11 C15.88834334 14.12230523 14.52469964 17.05950784 13 20 C11.51360014 18.52181229 10.04168987 17.04547985 8.625 15.5 C6.95445422 13.85053547 6.95445422 13.85053547 4.4375 12.5 C2 11 2 11 0 8 C-1.23943662 2.47887324 -1.23943662 2.47887324 0 0 Z " fill="#C3A256" transform="translate(49,347)"/>
<path d="M0 0 C0.33 0 0.66 0 1 0 C1 4.29 1 8.58 1 13 C2.959375 12.979375 4.91875 12.95875 6.9375 12.9375 C8.95832876 12.91622812 10.98035801 12.92755947 13 13 C14 14 14 14 14.09765625 16.94140625 C14.06510417 20.29427083 14.03255208 23.64713542 14 27 C9.38 27 4.76 27 0 27 C0 18.09 0 9.18 0 0 Z " fill="#434444" transform="translate(297,130)"/>
<path d="M0 0 C4.62 0 9.24 0 14 0 C14 4.62 14 9.24 14 14 C9.38 14 4.76 14 0 14 C0 9.38 0 4.76 0 0 Z " fill="#080E17" transform="translate(230,224)"/>
<path d="M0 0 C4.29 0 8.58 0 13 0 C13 4.62 13 9.24 13 14 C8.71 14 4.42 14 0 14 C0 9.38 0 4.76 0 0 Z " fill="#050910" transform="translate(284,224)"/>
<path d="M0 0 C4.29 0 8.58 0 13 0 C13 4.62 13 9.24 13 14 C8.71 14 4.42 14 0 14 C0 9.38 0 4.76 0 0 Z " fill="#E7EEF2" transform="translate(163,143)"/>
<path d="M0 0 C31.02 0 62.04 0 94 0 C94 9.24 94 18.48 94 28 C89.71 28 85.42 28 81 28 C81 32.29 81 36.58 81 41 C80.67 41 80.34 41 80 41 C80 36.38 80 31.76 80 27 C84.29 27 88.58 27 93 27 C92.67 19.08 92.34 11.16 92 3 C91.67 3.33 91.34 3.66 91 4 C89.31391034 4.07205511 87.62499341 4.08386068 85.9375 4.0625 C85.01839844 4.05347656 84.09929687 4.04445313 83.15234375 4.03515625 C82.44207031 4.02355469 81.73179687 4.01195312 81 4 C81 3.01 81 2.02 81 1 C54.27 1 27.54 1 0 1 C0 0.67 0 0.34 0 0 Z " fill="#7D681D" transform="translate(190,291)"/>
<path d="M0 0 C2.79947917 0.06510417 5.59895833 0.13020833 8.3984375 0.1953125 C8.3984375 4.8153125 8.3984375 9.4353125 8.3984375 14.1953125 C4.1084375 14.1953125 -0.1815625 14.1953125 -4.6015625 14.1953125 C-4.796875 5.015625 -4.796875 5.015625 -4.6015625 2.1953125 C-2.6015625 0.1953125 -2.6015625 0.1953125 0 0 Z " fill="#202020" transform="translate(126.6015625,385.8046875)"/>
<path d="M0 0 C0.33 0 0.66 0 1 0 C1 3.96 1 7.92 1 12 C2.39025391 11.98259766 2.39025391 11.98259766 3.80859375 11.96484375 C5.00613281 11.95582031 6.20367187 11.94679688 7.4375 11.9375 C8.63246094 11.92589844 9.82742188 11.91429687 11.05859375 11.90234375 C14 12 14 12 15 13 C15.07313567 15.53049402 15.09247527 18.03304837 15.0625 20.5625 C15.05798828 21.27341797 15.05347656 21.98433594 15.04882812 22.71679688 C15.03700864 24.47790013 15.01907263 26.23896036 15 28 C12.35541621 29.32229189 10.32238699 29.09677194 7.375 29.0625 C6.37210937 29.05347656 5.36921875 29.04445313 4.3359375 29.03515625 C3.56507813 29.02355469 2.79421875 29.01195312 2 29 C2.05220703 30.26457031 2.05220703 30.26457031 2.10546875 31.5546875 C2.13253906 32.65039062 2.15960938 33.74609375 2.1875 34.875 C2.23970703 36.51082031 2.23970703 36.51082031 2.29296875 38.1796875 C2.19628906 39.11039062 2.09960938 40.04109375 2 41 C-2.68510747 44.12340498 -7.42515007 43.64033226 -13 44 C-13 51.59 -13 59.18 -13 67 C-13.33 67 -13.66 67 -14 67 C-14 58.42 -14 49.84 -14 41 C-9.71 41 -5.42 41 -1 41 C-1 36.38 -1 31.76 -1 27 C3.62 27 8.24 27 13 27 C13 22.38 13 17.76 13 13 C8.71 13 4.42 13 0 13 C0 8.71 0 4.42 0 0 Z " fill="#F9F2DA" transform="translate(298,251)"/>
<path d="M0 0 C4.29 0 8.58 0 13 0 C13 4.29 13 8.58 13 13 C8.71 13 4.42 13 0 13 C0 8.71 0 4.42 0 0 Z " fill="#080707" transform="translate(284,251)"/>
<path d="M0 0 C4.29 0 8.58 0 13 0 C13 4.29 13 8.58 13 13 C8.71 13 4.42 13 0 13 C0 8.71 0 4.42 0 0 Z " fill="#030403" transform="translate(257,224)"/>
<path d="M0 0 C4.29 0 8.58 0 13 0 C13 4.29 13 8.58 13 13 C8.71 13 4.42 13 0 13 C0 8.71 0 4.42 0 0 Z " fill="#010105" transform="translate(271,211)"/>
<path d="M0 0 C4.29 0 8.58 0 13 0 C13 4.29 13 8.58 13 13 C8.71 13 4.42 13 0 13 C0 8.71 0 4.42 0 0 Z " fill="#0E0E0F" transform="translate(284,103)"/>
<path d="M0 0 C4.29 0 8.58 0 13 0 C13 4.29 13 8.58 13 13 C8.71 13 4.42 13 0 13 C0 8.71 0 4.42 0 0 Z " fill="#100F0D" transform="translate(270,90)"/>
<path d="M0 0 C4.29 0 8.58 0 13 0 C13.09765625 9.27734375 13.09765625 9.27734375 13 12 C12 13 12 13 9.27734375 13.09765625 C6.18489583 13.06510417 3.09244792 13.03255208 0 13 C0 8.71 0 4.42 0 0 Z " fill="#0F0E0C" transform="translate(136,117)"/>
<path d="M0 0 C0.33 0 0.66 0 1 0 C1 4.62 1 9.24 1 14 C-7.91 14 -16.82 14 -26 14 C-26 18.29 -26 22.58 -26 27 C-30.29 27 -34.58 27 -39 27 C-39 31.62 -39 36.24 -39 41 C-43.29 41 -47.58 41 -52 41 C-49.81956172 38.81956172 -48.97566473 38.43759775 -46 38 C-44.65923157 38.30204124 -43.32406984 38.63158726 -42 39 C-42.02320313 38.31292969 -42.04640625 37.62585938 -42.0703125 36.91796875 C-42.08835937 36.01691406 -42.10640625 35.11585938 -42.125 34.1875 C-42.14820313 33.29417969 -42.17140625 32.40085937 -42.1953125 31.48046875 C-42 29 -42 29 -40 26 C-39.01 26 -38.02 26 -37 26 C-36.67 25.34 -36.34 24.68 -36 24 C-35.01 24 -34.02 24 -33 24 C-33 24.66 -33 25.32 -33 26 C-31.35 26 -29.7 26 -28 26 C-27.67 21.38 -27.34 16.76 -27 12 C-18.42 12 -9.84 12 -1 12 C-0.67 8.04 -0.34 4.08 0 0 Z " fill="#B69E62" transform="translate(80,264)"/>
<path d="M0 0 C0.33 0 0.66 0 1 0 C1 22.11 1 44.22 1 67 C-3.29 67 -7.58 67 -12 67 C-11.505 66.01 -11.505 66.01 -11 65 C-7.7 65 -4.4 65 -1 65 C-1.02545395 63.82275864 -1.02545395 63.82275864 -1.05142212 62.62173462 C-1.20933698 55.23502151 -1.35754391 47.84820836 -1.49477577 40.46108437 C-1.565677 36.66304993 -1.64036549 32.86516786 -1.72363281 29.06738281 C-1.80381246 25.40412699 -1.87414357 21.74080373 -1.93757248 18.07722092 C-1.96354921 16.67767718 -1.99310874 15.27819533 -2.02626419 13.87880325 C-2.07200215 11.9228175 -2.10396396 9.96652413 -2.13525391 8.01025391 C-2.15746002 6.8955069 -2.17966614 5.78075989 -2.20254517 4.63223267 C-2 2 -2 2 0 0 Z " fill="#B59C64" transform="translate(94,197)"/>
<path d="M0 0 C3.96 0 7.92 0 12 0 C12 4.29 12 8.58 12 13 C8.04 13 4.08 13 0 13 C0 8.71 0 4.42 0 0 Z " fill="#0D0D0E" transform="translate(136,359)"/>
<path d="M0 0 C4.29 0 8.58 0 13 0 C13 3.96 13 7.92 13 12 C8.71 12 4.42 12 0 12 C0 8.04 0 4.08 0 0 Z " fill="#0F0D0B" transform="translate(338,252)"/>
<path d="M0 0 C4.29 0 8.58 0 13 0 C13 3.96 13 7.92 13 12 C8.71 12 4.42 12 0 12 C0 8.04 0 4.08 0 0 Z " fill="#020303" transform="translate(257,252)"/>
<path d="M0 0 C4.29 0 8.58 0 13 0 C13 3.96 13 7.92 13 12 C8.71 12 4.42 12 0 12 C0 8.04 0 4.08 0 0 Z " fill="#353536" transform="translate(325,252)"/>
<path d="M0 0 C3.96 0 7.92 0 12 0 C12 4.29 12 8.58 12 13 C8.04 13 4.08 13 0 13 C0 8.71 0 4.42 0 0 Z " fill="#0E0D0F" transform="translate(150,103)"/>
<path d="M0 0 C3.96 0 7.92 0 12 0 C12 3.96 12 7.92 12 12 C8.04 12 4.08 12 0 12 C0 8.04 0 4.08 0 0 Z " fill="#010208" transform="translate(204,225)"/>
<path d="M0 0 C2.31 0.33 4.62 0.66 7 1 C7 1.66 7 2.32 7 3 C8.43333021 3.39063507 9.87192679 3.76198474 11.3125 4.125 C12.11300781 4.33382813 12.91351563 4.54265625 13.73828125 4.7578125 C16.28207233 5.27427334 16.28207233 5.27427334 19 3 C22.1875 2.875 22.1875 2.875 25 3 C24.43628586 6.26954202 23.50037734 7.82575883 21 10 C21.99 9.67 22.98 9.34 24 9 C24.12375 9.8971875 24.12375 9.8971875 24.25 10.8125 C25.20548903 13.599343 26.6450848 14.32876986 29 16 C29 16.66 29 17.32 29 18 C31.76276177 17.47731534 34.3260876 16.89130413 37 16 C36.38722388 18.96175123 35.74627478 20.38058783 34 23 C33.03320312 22.27554687 32.06640625 21.55109375 31.0703125 20.8046875 C23.91692101 15.47879134 16.80129279 10.35174155 9 6 C8.13890625 5.5153125 7.2778125 5.030625 6.390625 4.53125 C4.26599612 3.34356926 2.1364358 2.16626689 0 1 C0 0.67 0 0.34 0 0 Z " fill="#1B1936" transform="translate(311,7)"/>
<path d="M0 0 C0.33 0 0.66 0 1 0 C1 8.91 1 17.82 1 27 C5.29 27 9.58 27 14 27 C14 30.96 14 34.92 14 39 C9.39320751 37.157283 6.90519431 35.51040484 3.1875 32.375 C2.21167969 31.55773437 1.23585938 30.74046875 0.23046875 29.8984375 C-0.50558594 29.27195312 -1.24164063 28.64546875 -2 28 C-1.34 27.67 -0.68 27.34 0 27 C0 18.09 0 9.18 0 0 Z " fill="#8E7D4C" transform="translate(81,359)"/>
<path d="M0 0 C0.33 0 0.66 0 1 0 C1.10957031 1.29550781 1.21914063 2.59101563 1.33203125 3.92578125 C2.72577565 19.77662006 5.01484464 35.37183369 8 51 C7.34 50.67 6.68 50.34 6 50 C5.3671875 47.93359375 5.3671875 47.93359375 4.875 45.4375 C4.62363281 44.19806641 4.62363281 44.19806641 4.3671875 42.93359375 C4.24601563 42.29550781 4.12484375 41.65742188 4 41 C3.34 41 2.68 41 2 41 C1.67 42.98 1.34 44.96 1 47 C0.67 47 0.34 47 0 47 C0 31.49 0 15.98 0 0 Z " fill="#1F1B31" transform="translate(0,221)"/>
<path d="M0 0 C0.66 0 1.32 0 2 0 C1.85966889 1.97956441 1.7125877 3.95865141 1.5625 5.9375 C1.48128906 7.03964844 1.40007813 8.14179688 1.31640625 9.27734375 C1 12 1 12 0 13 C-1.85287502 13.07226502 -3.70833878 13.0838122 -5.5625 13.0625 C-6.57441406 13.05347656 -7.58632813 13.04445313 -8.62890625 13.03515625 C-9.41136719 13.02355469 -10.19382813 13.01195312 -11 13 C-11.05399736 11.54207116 -11.09279177 10.08357288 -11.125 8.625 C-11.15980469 7.40683594 -11.15980469 7.40683594 -11.1953125 6.1640625 C-11 4 -11 4 -9 2 C-7.08984375 1.62109375 -7.08984375 1.62109375 -4.9375 1.4375 C-1.23263383 1.44086552 -1.23263383 1.44086552 0 0 Z " fill="#0E0D0D" transform="translate(53,292)"/>
<path d="M0 0 C8.91 0 17.82 0 27 0 C27 4.29 27 8.58 27 13 C22.71 13 18.42 13 14 13 C16.62647188 11.24901874 19.28775382 9.61268692 22 8 C23.32 8.99 24.64 9.98 26 11 C26 8.03 26 5.06 26 2 C18.08 1.67 10.16 1.34 2 1 C2 4.96 2 8.92 2 13 C1 14 1 14 -1.94140625 14.09765625 C-3.73384766 14.08025391 -3.73384766 14.08025391 -5.5625 14.0625 C-7.35880859 14.04896484 -7.35880859 14.04896484 -9.19140625 14.03515625 C-10.11824219 14.02355469 -11.04507813 14.01195312 -12 14 C-12 17.96 -12 21.92 -12 26 C-12.33 26 -12.66 26 -13 26 C-13 21.71 -13 17.42 -13 13 C-8.71 13 -4.42 13 0 13 C0 8.71 0 4.42 0 0 Z " fill="#CEBE7F" transform="translate(243,238)"/>
<path d="M0 0 C26.4 0 52.8 0 80 0 C80 3.96 80 7.92 80 12 C79.67 12 79.34 12 79 12 C78.01 7.05 78.01 7.05 77 2 C52.25 1.67 27.5 1.34 2 1 C1.67 4.96 1.34 8.92 1 13 C0.67 13 0.34 13 0 13 C0 8.71 0 4.42 0 0 Z " fill="#150700" transform="translate(190,76)"/>
<path d="M0 0 C0.99 0.495 0.99 0.495 2 1 C2.59772099 3.9829661 2.74337815 6.96330805 3 10 C6.96 10 10.92 10 15 10 C16.101173 13.30351899 16.03109831 15.51387172 15.87890625 18.98046875 C15.83056641 20.14384766 15.78222656 21.30722656 15.73242188 22.50585938 C15.67634766 23.72080078 15.62027344 24.93574219 15.5625 26.1875 C15.51029297 27.41404297 15.45808594 28.64058594 15.40429688 29.90429688 C15.27451599 32.93645018 15.13954569 35.96828294 15 39 C18.63 39 22.26 39 26 39 C26 39.33 26 39.66 26 40 C22.04 40 18.08 40 14 40 C14 31.09 14 22.18 14 13 C9.38 13 4.76 13 0 13 C0 8.71 0 4.42 0 0 Z " fill="#170B02" transform="translate(68,346)"/>
<path d="M0 0 C1.1632063 3.4896189 0.90189188 3.76177958 -0.5625 6.9375 C-2.80628861 12.23033933 -4.48760498 17.62216336 -6.125 23.125 C-6.37838135 23.9718335 -6.6317627 24.81866699 -6.89282227 25.69116211 C-8.39261684 30.76651444 -9.75280066 35.85678747 -11 41 C-11.33 41 -11.66 41 -12 41 C-15.34951456 31.39805825 -15.34951456 31.39805825 -14.3125 27.25 C-13.879375 26.5075 -13.44625 25.765 -13 25 C-12.34644531 24.86207031 -11.69289063 24.72414062 -11.01953125 24.58203125 C-10.01986328 24.29392578 -10.01986328 24.29392578 -9 24 C-6.63855454 18.82298494 -5.28393383 13.53079189 -4 8 C-4.66 7.67 -5.32 7.34 -6 7 C-5.195625 6.21625 -4.39125 5.4325 -3.5625 4.625 C-1.01309583 2.28017144 -1.01309583 2.28017144 0 0 Z " fill="#191832" transform="translate(17,119)"/>
<path d="M0 0 C4.95 0 9.9 0 15 0 C15.33 3.96 15.66 7.92 16 12 C19.3 12 22.6 12 26 12 C26 12.99 26 13.98 26 15 C22.04 14.67 18.08 14.34 14 14 C14 18.62 14 23.24 14 28 C9.71 28 5.42 28 1 28 C1 27.67 1 27.34 1 27 C4.96 27 8.92 27 13 27 C13 23.04 13 19.08 13 15 C8.71 15 4.42 15 0 15 C0 14.67 0 14.34 0 14 C4.29 14 8.58 14 13 14 C13 9.71 13 5.42 13 1 C8.71 1 4.42 1 0 1 C0 0.67 0 0.34 0 0 Z " fill="#727255" transform="translate(257,237)"/>
<path d="M0 0 C8.74870005 3.35651725 16.67970585 8.3365911 24.625 13.25 C25.3363208 13.68634766 26.0476416 14.12269531 26.78051758 14.57226562 C31.88055233 17.76110466 31.88055233 17.76110466 33 20 C31.35 20 29.7 20 28 20 C28 19.01 28 18.02 28 17 C26.02 16.34 24.04 15.68 22 15 C22 14.34 22 13.68 22 13 C21.34 13 20.68 13 20 13 C21.15173355 15.46800047 22.04783565 17.04783565 24 19 C22.25 19.6875 22.25 19.6875 20 20 C17.8125 18.875 17.8125 18.875 16 17 C15.835 16.154375 15.67 15.30875 15.5 14.4375 C15.335 13.633125 15.17 12.82875 15 12 C13.03241727 10.63979849 13.03241727 10.63979849 11 10 C11.33 9.01 11.66 8.02 12 7 C10.700625 6.5978125 10.700625 6.5978125 9.375 6.1875 C6.08208036 5.02888013 3.08872125 3.61790161 0 2 C0 1.34 0 0.68 0 0 Z " fill="#BCA065" transform="translate(304,4)"/>
<path d="M0 0 C0.33 0 0.66 0 1 0 C1 4.29 1 8.58 1 13 C-3.29 13 -7.58 13 -12 13 C-12 17.62 -12 22.24 -12 27 C-16.62 27 -21.24 27 -26 27 C-25.67 26.34 -25.34 25.68 -25 25 C-22.35139573 24.40644386 -19.70802678 24.25790731 -17 24 C-16.06213918 18.94990405 -16.06213918 18.94990405 -17 14 C-11.99791398 10.91618969 -6.70008452 11.87608512 -1 12 C-0.67 8.04 -0.34 4.08 0 0 Z " fill="#B79E66" transform="translate(161,89)"/>
<path d="M0 0 C3.96 0 7.92 0 12 0 C12 0.99 12 1.98 12 3 C8.7 2.67 5.4 2.34 2 2 C2 14.54 2 27.08 2 40 C1.34 40 0.68 40 0 40 C0 26.8 0 13.6 0 0 Z " fill="#120902" transform="translate(109,157)"/>
<path d="M0 0 C0.99 0.495 0.99 0.495 2 1 C2 8.59 2 16.18 2 24 C4.97 23.67 7.94 23.34 11 23 C11.33 22.34 11.66 21.68 12 21 C13 22 13 22 13 27 C8.71 27 4.42 27 0 27 C0 18.09 0 9.18 0 0 Z " fill="#B59D60" transform="translate(311,116)"/>
<path d="M0 0 C0.33 0 0.66 0 1 0 C1.08075665 2.29109597 1.13907731 4.58299267 1.1875 6.875 C1.23970703 8.78925781 1.23970703 8.78925781 1.29296875 10.7421875 C1.19628906 11.81726563 1.09960938 12.89234375 1 14 C-1.91506455 15.94337637 -2.82971692 16.27674667 -6.125 16.5625 C-9.77463966 16.56686899 -9.77463966 16.56686899 -11 18 C-11.23287008 19.68183948 -11.41264166 21.3712416 -11.5625 23.0625 C-11.706875 24.691875 -11.85125 26.32125 -12 28 C-16.62 28 -21.24 28 -26 28 C-26 32.62 -26 37.24 -26 42 C-26.66 41.67 -27.32 41.34 -28 41 C-27.67 36.38 -27.34 31.76 -27 27 C-22.38 27 -17.76 27 -13 27 C-13 22.38 -13 17.76 -13 13 C-8.71 13 -4.42 13 0 13 C0 8.71 0 4.42 0 0 Z " fill="#3F3117" transform="translate(54,278)"/>
<path d="M0 0 C2.97 0 5.94 0 9 0 C5.52664132 2.87389576 1.66626597 4.70141534 -2.375 6.625 C-8.77975148 9.73212408 -14.76193054 13.2185241 -20.65771484 17.20556641 C-24.81546716 20 -24.81546716 20 -27 20 C-26.505 18.515 -26.505 18.515 -26 17 C-25.01 17 -24.02 17 -23 17 C-22.95875 16.401875 -22.9175 15.80375 -22.875 15.1875 C-22 13 -22 13 -19.1875 11.25 C-16 10 -16 10 -12 10 C-12 9.34 -12 8.68 -12 8 C-11.01 7.67 -10.02 7.34 -9 7 C-9 6.01 -9 5.02 -9 4 C-6.36 4 -3.72 4 -1 4 C-0.67 2.68 -0.34 1.36 0 0 Z " fill="#221D2D" transform="translate(125,0)"/>
<path d="M0 0 C0.33 0 0.66 0 1 0 C1 5.61 1 11.22 1 17 C-3.29 17 -7.58 17 -12 17 C-12 25.91 -12 34.82 -12 44 C-12.33 44 -12.66 44 -13 44 C-13 35.09 -13 26.18 -13 17 C-17.29 17 -21.58 17 -26 17 C-26 16.67 -26 16.34 -26 16 C-23.03 16 -20.06 16 -17 16 C-17 15.34 -17 14.68 -17 14 C-16.01 13.67 -15.02 13.34 -14 13 C-13.67 10.03 -13.34 7.06 -13 4 C-12.67 4 -12.34 4 -12 4 C-12 7.96 -12 11.92 -12 16 C-8.04 16 -4.08 16 0 16 C0 10.72 0 5.44 0 0 Z " fill="#444747" transform="translate(148,356)"/>
<path d="M0 0 C8.25 0 16.5 0 25 0 C25 4.29 25 8.58 25 13 C29.29 13 33.58 13 38 13 C38 13.33 38 13.66 38 14 C35.68802845 14.19390729 33.3753971 14.37996367 31.0625 14.5625 C29.77472656 14.66691406 28.48695312 14.77132813 27.16015625 14.87890625 C26.11730469 14.91886719 25.07445312 14.95882813 24 15 C22.35696827 13.35696827 22.68137147 11.31992705 22.5 9.0625 C22.24785057 5.39442535 22.24785057 5.39442535 21 2 C18.45058627 1.68758629 15.99638487 1.48696579 13.4375 1.375 C12.72658203 1.33632813 12.01566406 1.29765625 11.28320312 1.2578125 C9.52257575 1.16328217 7.76132272 1.08054183 6 1 C6 3.31 6 5.62 6 8 C1.125 3.375 1.125 3.375 0 0 Z " fill="#B09964" transform="translate(43,346)"/>
<path d="M0 0 C4.29 0 8.58 0 13 0 C13 8.91 13 17.82 13 27 C8.71 27 4.42 27 0 27 C0 31.29 0 35.58 0 40 C-0.33 40 -0.66 40 -1 40 C-1 35.38 -1 30.76 -1 26 C3.29 26 7.58 26 12 26 C11.67 18.08 11.34 10.16 11 2 C10.67 2.33 10.34 2.66 10 3 C8.31391034 3.07205511 6.62499341 3.08386068 4.9375 3.0625 C4.01839844 3.05347656 3.09929687 3.04445313 2.15234375 3.03515625 C1.44207031 3.02355469 0.73179687 3.01195312 0 3 C0 2.01 0 1.02 0 0 Z " fill="#54534D" transform="translate(271,292)"/>
<path d="M0 0 C2 3 2 3 2.9375 5.375 C3.91343041 8.05505343 3.91343041 8.05505343 5.625 10.375 C7 13 7 13 6.9375 16.125 C7.02561478 21.58811651 9.00100952 25.96550546 11 31 C11.7805728 32.99621896 12.55177312 34.99613408 13.3125 37 C13.65925781 37.886875 14.00601562 38.77375 14.36328125 39.6875 C15 42 15 42 14 45 C9.64074271 35.21933136 5.60367866 25.44629721 2.5 15.1875 C2.11787354 13.94468262 2.11787354 13.94468262 1.72802734 12.67675781 C0.45789444 8.33142576 -0.29483415 4.57730016 0 0 Z " fill="#B09B68" transform="translate(7,264)"/>
<path d="M0 0 C1.65 0 3.3 0 5 0 C5 0.66 5 1.32 5 2 C5.98613281 1.9278125 6.97226563 1.855625 7.98828125 1.78125 C17.76477482 1.12441923 27.51394729 0.89079881 37.3125 0.875 C39.07364136 0.86823242 39.07364136 0.86823242 40.87036133 0.86132812 C42.53748169 0.86422852 42.53748169 0.86422852 44.23828125 0.8671875 C45.7238855 0.86887939 45.7238855 0.86887939 47.23950195 0.87060547 C49.92545238 0.99650568 52.38316419 1.39870995 55 2 C55 2.33 55 2.66 55 3 C36.85 3 18.7 3 0 3 C0 2.01 0 1.02 0 0 Z " fill="#F7D46F" transform="translate(217,288)"/>
<path d="M0 0 C8.07571257 6.35747586 14.57992715 14.28075238 20 23 C17.625 22.8125 17.625 22.8125 15 22 C13.9375 19.625 13.9375 19.625 13 17 C10.04951123 14.14786086 9.28899863 14 5 14 C4.938125 13.071875 4.87625 12.14375 4.8125 11.1875 C4.31172896 7.8109337 4.31172896 7.8109337 1.4375 6.125 C0.633125 5.75375 -0.17125 5.3825 -1 5 C-0.67 3.35 -0.34 1.7 0 0 Z " fill="#B99F64" transform="translate(363,46)"/>
<path d="M0 0 C1.19372997 3.74698574 0.47235194 6.0843379 -0.59375 9.84375 C-1.03432452 12.18218398 -0.88393872 13.91146414 -0.5 16.25 C-0.0163669 19.87724825 0.05910864 21.0930231 -2 24 C-2.99 23.67 -3.98 23.34 -5 23 C-5.66 25.97 -6.32 28.94 -7 32 C-7.66 32 -8.32 32 -9 32 C-8.44581616 24.75162726 -6.30790447 18.34510583 -3.9375 11.5 C-3.56044922 10.39140625 -3.18339844 9.2828125 -2.79492188 8.140625 C-1.87009261 5.42467071 -0.93831284 2.71131919 0 0 Z " fill="#B29765" transform="translate(16,124)"/>
<path d="M0 0 C3.41528405 3.41528405 4.79570109 6.45622818 6.6875 10.8125 C7.00783203 11.51181641 7.32816406 12.21113281 7.65820312 12.93164062 C9.49682095 17.12243478 10.3883285 20.33273107 10 25 C8.47700477 22.06279492 7.19899698 19.0831351 6 16 C5.01 16.99 4.02 17.98 3 19 C3 18.34 3 17.68 3 17 C2.34 17 1.68 17 1 17 C0.67 11.39 0.34 5.78 0 0 Z " fill="#1A1734" transform="translate(17,301)"/>
<path d="M0 0 C2.14576637 -0.02685938 4.29162645 -0.04633088 6.4375 -0.0625 C7.63246094 -0.07410156 8.82742187 -0.08570313 10.05859375 -0.09765625 C13 0 13 0 14 1 C14 5.29 14 9.58 14 14 C22.58 14 31.16 14 40 14 C40 14.33 40 14.66 40 15 C35.52084672 15.02886338 31.04171709 15.04675187 26.5625 15.0625 C25.28310547 15.07087891 24.00371094 15.07925781 22.68554688 15.08789062 C20.86313477 15.09272461 20.86313477 15.09272461 19.00390625 15.09765625 C17.87799072 15.10289307 16.7520752 15.10812988 15.59204102 15.11352539 C13 15 13 15 12 14 C11.85644883 9.99779347 11.95783597 6.00558317 12 2 C8.04 2 4.08 2 0 2 C0 1.34 0 0.68 0 0 Z " fill="#898E6D" transform="translate(190,250)"/>
<path d="M0 0 C4.29 0 8.58 0 13 0 C13 4.62 13 9.24 13 14 C12.67 14 12.34 14 12 14 C12 9.71 12 5.42 12 1 C9.03 1.99 6.06 2.98 3 4 C2.86722656 4.71027344 2.73445313 5.42054688 2.59765625 6.15234375 C2.33275391 7.53099609 2.33275391 7.53099609 2.0625 8.9375 C1.88847656 9.85402344 1.71445313 10.77054688 1.53515625 11.71484375 C1 14 1 14 0 15 C-2.35313555 15.07271741 -4.70833668 15.08370868 -7.0625 15.0625 C-8.35285156 15.05347656 -9.64320313 15.04445312 -10.97265625 15.03515625 C-11.97167969 15.02355469 -12.97070312 15.01195312 -14 15 C-14 14.67 -14 14.34 -14 14 C-7.565 13.505 -7.565 13.505 -1 13 C-0.67 8.71 -0.34 4.42 0 0 Z " fill="#446682" transform="translate(217,224)"/>
<path d="M0 0 C8.58 0 17.16 0 26 0 C26 0.99 26 1.98 26 3 C25.35675781 2.82597656 24.71351563 2.65195313 24.05078125 2.47265625 C20.02374389 1.84874905 16.23759587 2.14214515 12.1875 2.4375 C11.39923828 2.48970703 10.61097656 2.54191406 9.79882812 2.59570312 C7.86548471 2.72459269 5.93267836 2.86149494 4 3 C3.84660156 3.77730469 3.69320312 4.55460937 3.53515625 5.35546875 C3.08271418 7.59125912 2.57230119 9.79255257 2 12 C1.34 12 0.68 12 0 12 C0 8.04 0 4.08 0 0 Z " fill="#120A03" transform="translate(163,90)"/>
<path d="M0 0 C0.33 1.32 0.66 2.64 1 4 C1.99 3.67 2.98 3.34 4 3 C4.33 5.31 4.66 7.62 5 10 C0.71 10 -3.58 10 -8 10 C-7.67 8.68 -7.34 7.36 -7 6 C-7 6.66 -7 7.32 -7 8 C-6.34 8 -5.68 8 -5 8 C-4.9175 7.05125 -4.835 6.1025 -4.75 5.125 C-4 2 -4 2 -1.9375 0.625 C-1.298125 0.41875 -0.65875 0.2125 0 0 Z " fill="#56798C" transform="translate(252,228)"/>
<path d="M0 0 C0.6171875 1.87109375 0.6171875 1.87109375 1 4 C-0.875 6.0625 -0.875 6.0625 -3 8 C-3.33 8.99 -3.66 9.98 -4 11 C-4.825 11.61875 -5.65 12.2375 -6.5 12.875 C-9.22803317 14.73529037 -9.22803317 14.73529037 -9.4375 17.5 C-10 20 -10 20 -13.0625 22.3125 C-14.031875 22.869375 -15.00125 23.42625 -16 24 C-16 23.34 -16 22.68 -16 22 C-16.99 22 -17.98 22 -19 22 C-18.67 21.34 -18.34 20.68 -18 20 C-17.34 20.33 -16.68 20.66 -16 21 C-15.63841797 20.15888672 -15.63841797 20.15888672 -15.26953125 19.30078125 C-13.7382177 16.52556993 -11.85403695 14.49968649 -9.6875 12.1875 C-6.10983918 8.29246605 -2.95313397 4.38206977 0 0 Z " fill="#1E192B" transform="translate(383,352)"/>
<path d="M0 0 C2.13285008 3.91166431 2.57568008 7.6200325 3 12 C3.55194317 17.22673456 4.18646278 22.38732644 5.125 27.5625 C5.93174072 32.13192986 6.17821161 36.3664982 6 41 C2.78751008 36.18126513 2.6872025 30.66135225 1.875 25 C1.69324219 23.81792969 1.51148438 22.63585937 1.32421875 21.41796875 C0.26916216 14.22295879 -0.250367 7.26991588 0 0 Z " fill="#B39D69" transform="translate(1,223)"/>
<path d="M0 0 C4.29 0 8.58 0 13 0 C13 4.62 13 9.24 13 14 C8.71 14 4.42 14 0 14 C0 13.34 0 12.68 0 12 C3.63 12 7.26 12 11 12 C11 8.7 11 5.4 11 2 C7.37 2 3.74 2 0 2 C0 1.34 0 0.68 0 0 Z " fill="#F0D888" transform="translate(298,264)"/>
<path d="M0 0 C0.33 0 0.66 0 1 0 C0.51183483 5.57536015 -0.1498554 11.09271571 -1 16.625 C-2.14698994 24.39714081 -2.61313389 32.16087097 -3 40 C-3.33 40 -3.66 40 -4 40 C-4.09981078 35.74998034 -4.17190512 31.50060405 -4.21972656 27.24975586 C-4.23968751 25.80757748 -4.26686663 24.3654784 -4.30175781 22.92358398 C-4.49808631 14.59405874 -4.52968781 7.34223072 0 0 Z " fill="#221A2A" transform="translate(4,160)"/>
<path d="M0 0 C4.29 0 8.58 0 13 0 C13 3.96 13 7.92 13 12 C8.71 12 4.42 12 0 12 C0 8.04 0 4.08 0 0 Z M2 1 C1.67 3.97 1.34 6.94 1 10 C4.25303044 11.62651522 7.39225602 11.11453156 11 11 C12.20561184 10.01732141 12.20561184 10.01732141 12.09765625 8.15234375 C12.08605469 7.42144531 12.07445312 6.69054687 12.0625 5.9375 C12.041875 4.638125 12.02125 3.33875 12 2 C10.68 1.67 9.36 1.34 8 1 C7.01 2.485 7.01 2.485 6 4 C5.34 4 4.68 4 4 4 C3.67 3.01 3.34 2.02 3 1 C2.67 1 2.34 1 2 1 Z " fill="#150700" transform="translate(257,252)"/>
<path d="M0 0 C1.07878418 0.01047363 2.15756836 0.02094727 3.26904297 0.03173828 C5.01894531 0.04140625 5.01894531 0.04140625 6.80419922 0.05126953 C8.02751953 0.06802734 9.25083984 0.08478516 10.51123047 0.10205078 C11.74228516 0.11107422 12.97333984 0.12009766 14.24169922 0.12939453 C17.29006862 0.1530253 20.33805429 0.18597024 23.38623047 0.22705078 C23.38623047 0.55705078 23.38623047 0.88705078 23.38623047 1.22705078 C15.46623047 1.55705078 7.54623047 1.88705078 -0.61376953 2.22705078 C2.35623047 6.18705078 5.32623047 10.14705078 8.38623047 14.22705078 C5.38623047 15.22705078 5.38623047 15.22705078 2.38623047 14.22705078 C1.63328354 12.52473598 0.88711245 10.81808941 0.21435547 9.08251953 C-0.96765378 6.43414976 -2.71070667 4.39260507 -4.61376953 2.22705078 C-2.61376953 0.22705078 -2.61376953 0.22705078 0 0 Z " fill="#372E2E" transform="translate(44.61376953125,344.77294921875)"/>
<path d="M0 0 C3.96 0 7.92 0 12 0 C12 3.96 12 7.92 12 12 C11.67 12 11.34 12 11 12 C11 8.37 11 4.74 11 1 C9.700625 1.144375 8.40125 1.28875 7.0625 1.4375 C6.33160156 1.51871094 5.60070312 1.59992188 4.84765625 1.68359375 C2.98859771 1.81886614 2.98859771 1.81886614 2 3 C1.91144839 5.6662603 1.88475327 8.30647114 1.90234375 10.97265625 C1.9037587 11.77029892 1.90517365 12.56794159 1.90663147 13.38975525 C1.91224684 15.94737435 1.92480188 18.50490718 1.9375 21.0625 C1.94251302 22.79231645 1.94707627 24.52213426 1.95117188 26.25195312 C1.96222125 30.50133553 1.97949614 34.75065312 2 39 C1.34 39 0.68 39 0 39 C0 26.13 0 13.26 0 0 Z " fill="#AD9447" transform="translate(190,252)"/>
<path d="M0 0 C0.33 0 0.66 0 1 0 C1 4.29 1 8.58 1 13 C-7.58 13 -16.16 13 -25 13 C-25 9.04 -25 5.08 -25 1 C-24.67 1 -24.34 1 -24 1 C-24 4.3 -24 7.6 -24 11 C-16.41 11 -8.82 11 -1 11 C-1 7.7 -1 4.4 -1 1 C-0.67 0.67 -0.34 0.34 0 0 Z " fill="#5C727D" transform="translate(229,251)"/>
<path d="M0 0 C0 3.69349436 -0.88153908 5.00493457 -3 8 C-5.69366015 10.42429413 -7.55448619 11.8514954 -11 13 C-12.04892238 14.63631892 -13.04906703 16.30485863 -14 18 C-14.66 18.66 -15.32 19.32 -16 20 C-18.125 19.625 -18.125 19.625 -20 19 C-17.60838068 16.57913227 -15.21096558 14.16408349 -12.8125 11.75 C-12.13896484 11.06808594 -11.46542969 10.38617188 -10.77148438 9.68359375 C-7.32936311 6.22468165 -3.90714016 2.94363181 0 0 Z " fill="#B29C6A" transform="translate(79,35)"/>
<path d="M0 0 C0.33 0 0.66 0 1 0 C1.2216805 3.87940869 0.88370767 6.57507696 -1 10 C-3.70102706 12.75520239 -6.29622662 14.76540887 -10 16 C-10.33 16.66 -10.66 17.32 -11 18 C-11.66 17.67 -12.32 17.34 -13 17 C-12.31292969 16.10796875 -11.62585937 15.2159375 -10.91796875 14.296875 C-10.00779952 13.11459332 -9.097644 11.9323011 -8.1875 10.75 C-7.73568359 10.16347656 -7.28386719 9.57695313 -6.81835938 8.97265625 C-6.37685547 8.39902344 -5.93535156 7.82539062 -5.48046875 7.234375 C-5.05169434 6.67814453 -4.62291992 6.12191406 -4.18115234 5.54882812 C-3.18213866 4.23883582 -2.20739545 2.91038843 -1.23828125 1.578125 C-0.82964844 1.05734375 -0.42101563 0.5365625 0 0 Z " fill="#BDA35B" transform="translate(58,55)"/>
<path d="M0 0 C0 0.99 0 1.98 0 3 C-2.97 4.32 -5.94 5.64 -9 7 C-7.02 7 -5.04 7 -3 7 C-3 7.66 -3 8.32 -3 9 C-6.08819394 10.54409697 -9.19002045 9.96502134 -12.58984375 9.83984375 C-15.2646372 9.81653352 -15.2646372 9.81653352 -18 12 C-18.99 11.67 -19.98 11.34 -21 11 C-5.35051546 0 -5.35051546 0 0 0 Z " fill="#BEA163" transform="translate(127,4)"/>
<path d="M0 0 C3 1 3 1 4 3 C4.99 2.67 5.98 2.34 7 2 C6.773125 2.845625 6.54625 3.69125 6.3125 4.5625 C6.00493611 7.94570279 6.15029846 8.83684328 7.5 11.75 C7.995 12.8225 8.49 13.895 9 15 C8.67 15.66 8.34 16.32 8 17 C4.37 12.05 0.74 7.1 -3 2 C-2.01 1.34 -1.02 0.68 0 0 Z " fill="#1E1833" transform="translate(385,66)"/>
<path d="M0 0 C0.66 0 1.32 0 2 0 C1.67 1.32 1.34 2.64 1 4 C-0.32 4 -1.64 4 -3 4 C-3 4.66 -3 5.32 -3 6 C-2.01 6.33 -1.02 6.66 0 7 C0 7.99 0 8.98 0 10 C-4.22857143 14 -4.22857143 14 -8 14 C-7.505 13.1028125 -7.505 13.1028125 -7 12.1875 C-5.79212012 9.94613529 -5.79212012 9.94613529 -6 7 C-6.99 7.66 -7.98 8.32 -9 9 C-9.99 8.67 -10.98 8.34 -12 8 C-11.21753906 7.50628906 -10.43507813 7.01257813 -9.62890625 6.50390625 C-8.61699219 5.86324219 -7.60507813 5.22257812 -6.5625 4.5625 C-5.55316406 3.92441406 -4.54382813 3.28632813 -3.50390625 2.62890625 C-1.15446165 1.22350458 -1.15446165 1.22350458 0 0 Z " fill="#BCA063" transform="translate(104,16)"/>
<path d="M0 0 C1.97909398 -0.02686553 3.95828971 -0.04633375 5.9375 -0.0625 C7.03964844 -0.07410156 8.14179688 -0.08570313 9.27734375 -0.09765625 C12 0 12 0 13 1 C13.14355117 5.00220653 13.04216403 8.99441683 13 13 C17.29 13 21.58 13 26 13 C26 13.33 26 13.66 26 14 C23.68756208 14.02685412 21.3750373 14.04632841 19.0625 14.0625 C17.77472656 14.07410156 16.48695313 14.08570313 15.16015625 14.09765625 C12 14 12 14 11 13 C10.85689713 9.3308423 10.95778338 5.67284559 11 2 C7.37 2.33 3.74 2.66 0 3 C0 2.01 0 1.02 0 0 Z " fill="#C8B069" transform="translate(271,251)"/>
<path d="M0 0 C4.29 0 8.58 0 13 0 C13 4.29 13 8.58 13 13 C8.71 13 4.42 13 0 13 C0 8.71 0 4.42 0 0 Z M1 3 C1 5.97 1 8.94 1 12 C4.63 12 8.26 12 12 12 C12 8.37 12 4.74 12 1 C7.91621923 1 4.87684087 1.80712589 1 3 Z " fill="#050F1A" transform="translate(217,211)"/>
<path d="M0 0 C0.33 1.32 0.66 2.64 1 4 C-3.68510747 7.12340498 -8.42515007 6.64033226 -14 7 C-14 14.59 -14 22.18 -14 30 C-14.33 30 -14.66 30 -15 30 C-15 21.42 -15 12.84 -15 4 C-10.05 3.67 -5.1 3.34 0 3 C0 2.01 0 1.02 0 0 Z " fill="#E8E9DE" transform="translate(299,288)"/>
<path d="M0 0 C0.99 0.495 0.99 0.495 2 1 C2.59355614 3.64860427 2.74209269 6.29197322 3 9 C4.32 9 5.64 9 7 9 C7 9.66 7 10.32 7 11 C9.60452271 10.85913398 12.20850197 10.71251536 14.8125 10.5625 C15.55048828 10.52318359 16.28847656 10.48386719 17.04882812 10.44335938 C20.23071342 10.25618965 22.96162378 10.01279207 26 9 C26.33 9.99 26.66 10.98 27 12 C13.635 12.495 13.635 12.495 0 13 C0 8.71 0 4.42 0 0 Z " fill="#110905" transform="translate(41,333)"/>
<path d="M0 0 C0.33 0 0.66 0 1 0 C1.02505615 1.00377686 1.0501123 2.00755371 1.07592773 3.04174805 C1.17035296 6.7785236 1.27048686 10.51512843 1.37231445 14.25170898 C1.41553083 15.86657711 1.45721489 17.48148702 1.49731445 19.09643555 C1.55534048 21.42249117 1.61894029 23.74833904 1.68359375 26.07421875 C1.70030624 26.79212082 1.71701874 27.51002289 1.73423767 28.24967957 C1.84236012 31.93771676 2.13964048 35.4085348 3 39 C6.3 39 9.6 39 13 39 C13 39.33 13 39.66 13 40 C8.71 40 4.42 40 0 40 C0 26.8 0 13.6 0 0 Z " fill="#B9A25F" transform="translate(325,143)"/>
<path d="M0 0 C3.59147806 1.33397757 6.8843916 2.74983838 10 5 C10.8125 7.1875 10.8125 7.1875 11 9 C11.99 9 12.98 9 14 9 C14.66 9.66 15.32 10.32 16 11 C16.99 11 17.98 11 19 11 C19.66 12.65 20.32 14.3 21 16 C20.34 16.66 19.68 17.32 19 18 C18.62230469 17.59910156 18.24460937 17.19820312 17.85546875 16.78515625 C13.29882021 12.0791094 8.39211755 7.982044 3.2578125 3.91796875 C1 2 1 2 0 0 Z " fill="#1C172D" transform="translate(346,30)"/>
<path d="M0 0 C4.29 0 8.58 0 13 0 C13 2.64 13 5.28 13 8 C11.02 7.01 9.04 6.02 7 5 C7.33 4.01 7.66 3.02 8 2 C5.69 1.67 3.38 1.34 1 1 C1 4.63 1 8.26 1 12 C0.67 12 0.34 12 0 12 C0 8.04 0 4.08 0 0 Z " fill="#070E19" transform="translate(257,224)"/>
<path d="M0 0 C4.29 0 8.58 0 13 0 C13 4.29 13 8.58 13 13 C8.71 13 4.42 13 0 13 C4.39828259 10.8008587 7.18550592 10.48144941 12 10 C12 7.36 12 4.72 12 2 C11.38511719 2.02320313 10.77023437 2.04640625 10.13671875 2.0703125 C8.92435547 2.09738281 8.92435547 2.09738281 7.6875 2.125 C6.88699219 2.14820313 6.08648437 2.17140625 5.26171875 2.1953125 C3 2 3 2 0 0 Z " fill="#4D6A84" transform="translate(284,238)"/>
<path d="M0 0 C3.96 0 7.92 0 12 0 C12 8.58 12 17.16 12 26 C8 25 8 25 6.75 22.9375 C6.5025 22.298125 6.255 21.65875 6 21 C6.66 21 7.32 21 8 21 C8 21.66 8 22.32 8 23 C8.99 23 9.98 23 11 23 C10.82597656 22.18273437 10.65195313 21.36546875 10.47265625 20.5234375 C9.92558531 16.44527233 10.11615144 12.71018969 10.4375 8.625 C10.48970703 7.88894531 10.54191406 7.15289062 10.59570312 6.39453125 C10.72417723 4.59589371 10.86120949 2.79787091 11 1 C7.37 1 3.74 1 0 1 C0 0.67 0 0.34 0 0 Z " fill="#BCA46C" transform="translate(69,360)"/>
<path d="M0 0 C4.29 0 8.58 0 13 0 C13 4.29 13 8.58 13 13 C8.71 13 4.42 13 0 13 C0.33 12.34 0.66 11.68 1 11 C3.28515625 10.5859375 3.28515625 10.5859375 6.0625 10.375 C7.44115234 10.26285156 7.44115234 10.26285156 8.84765625 10.1484375 C9.91306641 10.07496094 9.91306641 10.07496094 11 10 C11 7.03 11 4.06 11 1 C7.37 1 3.74 1 0 1 C0 0.67 0 0.34 0 0 Z " fill="#59717B" transform="translate(230,238)"/>
<path d="M0 0 C0.33 0 0.66 0 1 0 C0.96519531 0.91523438 0.93039062 1.83046875 0.89453125 2.7734375 C0.86746094 3.96195313 0.84039062 5.15046875 0.8125 6.375 C0.77769531 7.55835938 0.74289062 8.74171875 0.70703125 9.9609375 C0.80371094 10.96382812 0.90039062 11.96671875 1 13 C1.99 13.66 2.98 14.32 4 15 C3.67 16.32 3.34 17.64 3 19 C2.01 19 1.02 19 0 19 C-0.33 20.32 -0.66 21.64 -1 23 C-2.1736381 14.94313304 -1.67968453 7.95420855 0 0 Z " fill="#B19560" transform="translate(4,165)"/>
<path d="M0 0 C0.33 0 0.66 0 1 0 C1.19335938 1.24394531 1.38671875 2.48789063 1.5859375 3.76953125 C2.95479623 12.53286802 4.33566962 21.28674096 6 30 C5.34 29.67 4.68 29.34 4 29 C3.2863409 26.68060793 2.6252708 24.34476551 2 22 C1.65195312 21.27941406 1.30390625 20.55882812 0.9453125 19.81640625 C-0.36834139 15.9025862 -0.21425708 12.28302679 -0.125 8.1875 C-0.11597656 7.39923828 -0.10695312 6.61097656 -0.09765625 5.79882812 C-0.07422504 3.86575334 -0.03835838 1.9328362 0 0 Z " fill="#2F252D" transform="translate(2,242)"/>
<path d="M0 0 C4.29 0 8.58 0 13 0 C13 4.29 13 8.58 13 13 C8.71 13 4.42 13 0 13 C0 8.71 0 4.42 0 0 Z M1 3 C0.75746187 5.21072977 0.75746187 5.21072977 0.875 7.625 C0.91625 9.06875 0.9575 10.5125 1 12 C4.63 12 8.26 12 12 12 C12 8.37 12 4.74 12 1 C5.89593317 0.33413645 5.89593317 0.33413645 1 3 Z " fill="#04111F" transform="translate(271,211)"/>
<path d="M0 0 C1.18504475 3.55513425 0.79812031 4.02646252 -0.6875 7.3125 C-3.40626519 13.70680838 -5.18668078 20.30615139 -7 27 C-7.33 27 -7.66 27 -8 27 C-7.59060025 20.23784552 -6.43046191 14.32837252 -4 8 C-4.66 7.67 -5.32 7.34 -6 7 C-5.195625 6.21625 -4.39125 5.4325 -3.5625 4.625 C-1.01309583 2.28017144 -1.01309583 2.28017144 0 0 Z " fill="#251E2E" transform="translate(17,119)"/>
<path d="M0 0 C3.96 0 7.92 0 12 0 C12 4.29 12 8.58 12 13 C11.34 13 10.68 13 10 13 C10 9.37 10 5.74 10 2 C6.7 2 3.4 2 0 2 C0 1.34 0 0.68 0 0 Z " fill="#150A03" transform="translate(285,103)"/>
<path d="M0 0 C0.66 0.33 1.32 0.66 2 1 C0.00503547 6.24990666 -2.23684167 9.83001375 -6 14 C-6.33 13.01 -6.66 12.02 -7 11 C-6.34 11 -5.68 11 -5 11 C-3.89155081 7.67465243 -4.15545644 5.37817425 -5 2 C-2.625 0.9375 -2.625 0.9375 0 0 Z " fill="#1D1931" transform="translate(53,56)"/>
<path d="M0 0 C1.65 0 3.3 0 5 0 C1.88708633 5.83152493 -1.19627262 11.58700334 -5 17 C-5.66 16.67 -6.32 16.34 -7 16 C-6.690625 15.401875 -6.38125 14.80375 -6.0625 14.1875 C-4.89790296 11.91043228 -4.89790296 11.91043228 -4 9 C-3.34 8.67 -2.68 8.34 -2 8 C-1.31527335 6.11235097 -1.31527335 6.11235097 -0.875 3.9375 C-0.62363281 2.83728516 -0.62363281 2.83728516 -0.3671875 1.71484375 C-0.24601562 1.14894531 -0.12484375 0.58304687 0 0 Z " fill="#AE9A69" transform="translate(395,327)"/>
<path d="M0 0 C2.0625 0.4375 2.0625 0.4375 4 1 C2.38150935 2.83946539 0.75581169 4.67151417 -0.875 6.5 C-1.33519531 7.02464844 -1.79539062 7.54929687 -2.26953125 8.08984375 C-3.47172076 9.43141755 -4.73245946 10.71999185 -6 12 C-6.66 12 -7.32 12 -8 12 C-7.25 7.25 -7.25 7.25 -5 5 C-4.34 5.33 -3.68 5.66 -3 6 C-2.690625 5.195625 -2.38125 4.39125 -2.0625 3.5625 C-1 1 -1 1 0 0 Z " fill="#B69E6D" transform="translate(374,359)"/>
<path d="M0 0 C2.31 0 4.62 0 7 0 C7 3.3 7 6.6 7 10 C3.60582235 6.87378374 1.3937282 4.43458973 0 0 Z " fill="#B4A067" transform="translate(34,332)"/>
<path d="M0 0 C2.31 0.33 4.62 0.66 7 1 C7 1.66 7 2.32 7 3 C7.825 3.20625 8.65 3.4125 9.5 3.625 C13.95935597 5.37688985 17.29553846 8.01010465 21 11 C20.67 11.66 20.34 12.32 20 13 C19.31035156 12.55269531 18.62070312 12.10539062 17.91015625 11.64453125 C12.04878888 7.87363784 6.14365212 4.29178398 0 1 C0 0.67 0 0.34 0 0 Z " fill="#2D232C" transform="translate(311,7)"/>
<path d="M0 0 C0.33 0 0.66 0 1 0 C1 4.62 1 9.24 1 14 C-3.29 14 -7.58 14 -12 14 C-12 13.34 -12 12.68 -12 12 C-6.555 11.505 -6.555 11.505 -1 11 C-0.67 7.37 -0.34 3.74 0 0 Z " fill="#F1D788" transform="translate(296,278)"/>
<path d="M0 0 C1.4540625 0.0309375 1.4540625 0.0309375 2.9375 0.0625 C3.2675 1.0525 3.5975 2.0425 3.9375 3.0625 C-3.9825 3.0625 -11.9025 3.0625 -20.0625 3.0625 C-20.0625 2.7325 -20.0625 2.4025 -20.0625 2.0625 C-14.68488402 1.37962813 -9.49031107 1.0625 -4.0625 1.0625 C-3.0625 0.0625 -3.0625 0.0625 0 0 Z " fill="#B59537" transform="translate(212.0625,287.9375)"/>
<path d="M0 0 C2.64 0 5.28 0 8 0 C8 1.65 8 3.3 8 5 C4.37673261 6.2077558 3.35853631 5.54311128 0 4 C0 2.68 0 1.36 0 0 Z " fill="#C3A15E" transform="translate(86,387)"/>
<path d="M0 0 C0.66 0.33 1.32 0.66 2 1 C-1.3 7.93 -4.6 14.86 -8 22 C-9.28148025 18.15555926 -8.43706699 17.25070263 -6.6875 13.6875 C-4.85050943 9.84002531 -3.21813572 6.09736562 -2 2 C-1.34 2 -0.68 2 0 2 C0 1.34 0 0.68 0 0 Z " fill="#261D24" transform="translate(27,97)"/>
<path d="M0 0 C2.375 1.0625 2.375 1.0625 5 3 C6.3125 6.6875 6.3125 6.6875 7 10 C5.68 10 4.36 10 3 10 C2.7525 9.195625 2.505 8.39125 2.25 7.5625 C1.27761141 4.828919 1.27761141 4.828919 -1.125 4.1875 C-1.74375 4.125625 -2.3625 4.06375 -3 4 C-3 3.34 -3 2.68 -3 2 C-2.01 1.34 -1.02 0.68 0 0 Z " fill="#181935" transform="translate(83,390)"/>
<path d="M0 0 C1.12025107 3.33027019 0.89423549 5.36541892 -0.1875 8.6875 C-0.42855469 9.47511719 -0.66960938 10.26273438 -0.91796875 11.07421875 C-2 13 -2 13 -4.11328125 13.76953125 C-4.73589844 13.84558594 -5.35851562 13.92164062 -6 14 C-4.16508812 9.25981099 -2.08058541 4.63586749 0 0 Z " fill="#AD9862" transform="translate(28,98)"/>
<path d="M0 0 C3.63 0 7.26 0 11 0 C11 0.33 11 0.66 11 1 C8.36 1.33 5.72 1.66 3 2 C2.67 5.63 2.34 9.26 2 13 C1.34 13 0.68 13 0 13 C0 8.71 0 4.42 0 0 Z " fill="#120A01" transform="translate(150,103)"/>
<path d="M0 0 C2.47859908 2.2008849 3.61210366 4.06372969 4.6875 7.1875 C4.93886719 7.90292969 5.19023437 8.61835938 5.44921875 9.35546875 C5.63097656 9.89816406 5.81273437 10.44085938 6 11 C4.02 11.99 4.02 11.99 2 13 C1.66127487 11.58461283 1.32925376 10.16762037 1 8.75 C0.814375 7.96109375 0.62875 7.1721875 0.4375 6.359375 C0 4 0 4 0 0 Z " fill="#221C2C" transform="translate(17,301)"/>
<path d="M0 0 C0 3.96 0 7.92 0 12 C-2.40785992 8.7895201 -3.68197635 6.64991166 -5 3 C-1.125 0 -1.125 0 0 0 Z " fill="#B2A36B" transform="translate(27,307)"/>
<path d="M0 0 C2.97 0 5.94 0 9 0 C9 0.33 9 0.66 9 1 C7.824375 1.1546875 7.824375 1.1546875 6.625 1.3125 C3.66954819 1.77595022 3.66954819 1.77595022 2 5 C2.33 5.99 2.66 6.98 3 8 C2.5625 10.1875 2.5625 10.1875 2 12 C1.34 12 0.68 12 0 12 C0 8.04 0 4.08 0 0 Z " fill="#100A02" transform="translate(82,266)"/>
<path d="M0 0 C0.66 0.66 1.32 1.32 2 2 C1.96644181 6.03816945 1.42777699 9.97889632 1 14 C-2.96 14 -6.92 14 -11 14 C-11 13.67 -11 13.34 -11 13 C-10.36191406 12.93941406 -9.72382813 12.87882812 -9.06640625 12.81640625 C-8.24011719 12.73261719 -7.41382813 12.64882812 -6.5625 12.5625 C-5.73878906 12.48128906 -4.91507813 12.40007812 -4.06640625 12.31640625 C-2.01337975 12.21069185 -2.01337975 12.21069185 -1 11 C-1 9.00249552 -1.00355875 7.00444719 -1.0625 5.0078125 C-1 3 -1 3 0 0 Z " fill="#B9A260" transform="translate(188,74)"/>
<path d="M0 0 C0 0.99 0 1.98 0 3 C-4.96284034 5.37113483 -9.45949887 7.43174347 -15 8 C-12.61753661 5.31874582 -10.1454496 3.88576541 -6.9375 2.3125 C-5.62072266 1.65701172 -5.62072266 1.65701172 -4.27734375 0.98828125 C-2 0 -2 0 0 0 Z " fill="#AA9868" transform="translate(127,4)"/>
<path d="M0 0 C0.75 1.75 0.75 1.75 1 4 C-0.875 6.0625 -0.875 6.0625 -3 8 C-3.33 8.99 -3.66 9.98 -4 11 C-5.65 11.33 -7.3 11.66 -9 12 C-6 8 -3 4 0 0 Z " fill="#2F2237" transform="translate(383,352)"/>
<path d="M0 0 C2.01920337 1.30406884 4.01924973 2.63823419 6 4 C6 4.33 6 4.66 6 5 C1.71 5 -2.58 5 -7 5 C-6.01 4.34 -5.02 3.68 -4 3 C-2.66209359 2.00612666 -1.32781878 1.0073108 0 0 Z " fill="#E5C968" transform="translate(264,246)"/>
<path d="M0 0 C0.33 0.99 0.66 1.98 1 3 C-0.25017143 5.45404022 -1.5239875 7.69099035 -3 10 C-3.35964844 10.59039062 -3.71929687 11.18078125 -4.08984375 11.7890625 C-4.99721989 13.2340162 -5.99245381 14.62302021 -7 16 C-7.66 16 -8.32 16 -9 16 C-7.56691865 12.04093183 -5.66858051 8.71281819 -3.375 5.1875 C-2.74335937 4.21167969 -2.11171875 3.23585938 -1.4609375 2.23046875 C-0.73777344 1.12638672 -0.73777344 1.12638672 0 0 Z " fill="#AC9670" transform="translate(38,82)"/>
<path d="M0 0 C2.61724095 2.36797991 4.32861729 4.89600354 6 8 C6 8.66 6 9.32 6 10 C4.02 10 2.04 10 0 10 C0.185625 9.278125 0.37125 8.55625 0.5625 7.8125 C1.01995307 4.87173027 0.73516357 2.85896942 0 0 Z " fill="#AF9B62" transform="translate(392,82)"/>
<path d="M0 0 C2.97 0.495 2.97 0.495 6 1 C6 1.99 6 2.98 6 4 C7.9375006 6.18777466 7.9375006 6.18777466 10 8 C9.67 8.99 9.34 9.98 9 11 C7.49703315 9.35687553 5.99769719 7.71042916 4.5 6.0625 C3.6646875 5.14597656 2.829375 4.22945312 1.96875 3.28515625 C0 1 0 1 0 0 Z " fill="#261C2E" transform="translate(366,48)"/>
<path d="M0 0 C0.99 0.33 1.98 0.66 3 1 C2.67 1.33 2.34 1.66 2 2 C1.76712992 3.68183948 1.58735834 5.3712416 1.4375 7.0625 C1.293125 8.691875 1.14875 10.32125 1 12 C-3.29 12 -7.58 12 -12 12 C-12 11.67 -12 11.34 -12 11 C-6.06 10.505 -6.06 10.505 0 10 C-0.185625 8.535625 -0.37125 7.07125 -0.5625 5.5625 C-0.75462854 4.04681929 -0.91062197 2.52519276 -1 1 C-0.67 0.67 -0.34 0.34 0 0 Z " fill="#0C0E1F" transform="translate(364,374)"/>
<path d="M0 0 C0.66 0.99 1.32 1.98 2 3 C4.16463326 3.50584474 4.16463326 3.50584474 6.5625 3.5625 C9.00390625 3.69140625 9.00390625 3.69140625 11 4 C11.33 4.66 11.66 5.32 12 6 C7.71 6 3.42 6 -1 6 C-0.67 4.02 -0.34 2.04 0 0 Z " fill="#B89E68" transform="translate(299,110)"/>
<path d="M0 0 C3.91939465 3.80411834 7.49102731 7.81576108 11 12 C9.33333333 12 7.66666667 12 6 12 C5.731875 11.236875 5.46375 10.47375 5.1875 9.6875 C4.19741865 7.00940089 4.19741865 7.00940089 2.4375 5.4375 C0.70553268 3.70553268 0.41012318 2.37871446 0 0 Z " fill="#AE986F" transform="translate(372,56)"/>
<path d="M0 0 C1.84851083 2.77276624 2.5205764 4.39992766 3.25 7.5625 C3.44078125 8.34753906 3.6315625 9.13257813 3.828125 9.94140625 C3.88484375 10.62074219 3.9415625 11.30007813 4 12 C3.34 12.66 2.68 13.32 2 14 C-0.28062828 10.57905758 -0.21925007 9.31812778 -0.125 5.3125 C-0.10695313 4.31863281 -0.08890625 3.32476562 -0.0703125 2.30078125 C-0.04710937 1.54152344 -0.02390625 0.78226562 0 0 Z " fill="#2A1F35" transform="translate(8,273)"/>
<path d="M0 0 C0 0.99 0 1.98 0 3 C-4.29 3 -8.58 3 -13 3 C-13 2.34 -13 1.68 -13 1 C-11.39602723 0.83147753 -9.7918131 0.66525114 -8.1875 0.5 C-7.29417969 0.4071875 -6.40085938 0.314375 -5.48046875 0.21875 C-3 0 -3 0 0 0 Z " fill="#404447" transform="translate(149,154)"/>
<path d="M0 0 C-1.64383544 1.16948002 -3.29012269 2.3355145 -4.9375 3.5 C-6.31228516 4.47453125 -6.31228516 4.47453125 -7.71484375 5.46875 C-10 7 -10 7 -11 7 C-11 5.35 -11 3.7 -11 2 C-9.68 2 -8.36 2 -7 2 C-6.67 1.34 -6.34 0.68 -6 0 C-3 -1 -3 -1 0 0 Z " fill="#2A2031" transform="translate(98,21)"/>
<path d="M0 0 C3.63 0 7.26 0 11 0 C11 0.33 11 0.66 11 1 C7.92382812 1.29296875 7.92382812 1.29296875 4.84765625 1.5859375 C4.23792969 1.72257812 3.62820312 1.85921875 3 2 C1.73242991 4.14921378 1.73242991 4.14921378 2.0625 7.5 C2 11 2 11 0 13 C0 8.71 0 4.42 0 0 Z " fill="#130902" transform="translate(55,279)"/>
<path d="M0 0 C1.32 0.33 2.64 0.66 4 1 C3.67 1.33 3.34 1.66 3 2 C2.92794489 3.68608966 2.91613932 5.37500659 2.9375 7.0625 C2.94652344 7.98160156 2.95554688 8.90070313 2.96484375 9.84765625 C2.97644531 10.55792969 2.98804688 11.26820313 3 12 C2.01 12 1.02 12 0 12 C0 8.04 0 4.08 0 0 Z " fill="#150803" transform="translate(136,117)"/>
<path d="M0 0 C2.93200474 2.85276137 5.64315404 5.65079784 8 9 C7.67 9.66 7.34 10.32 7 11 C6.01 10.34 5.02 9.68 4 9 C3.67 9.66 3.34 10.32 3 11 C2.01 7.37 1.02 3.74 0 0 Z " fill="#AD9967" transform="translate(384,71)"/>
<path d="M0 0 C9.59453303 5.0022779 9.59453303 5.0022779 13 9 C11.35 9 9.7 9 8 9 C8 8.01 8 7.02 8 6 C6.02 5.34 4.04 4.68 2 4 C2 3.34 2 2.68 2 2 C1.34 2 0.68 2 0 2 C0 1.34 0 0.68 0 0 Z " fill="#AD976B" transform="translate(324,15)"/>
<path d="M0 0 C3.35337589 0.99694959 4.72713571 1.58565053 6.6875 4.5625 C7.120625 5.366875 7.55375 6.17125 8 7 C8.66 7.33 9.32 7.66 10 8 C9.67 8.99 9.34 9.98 9 11 C5.74251349 7.83299923 2.72824638 4.63766184 0 1 C0 0.67 0 0.34 0 0 Z " fill="#AF9B69" transform="translate(54,360)"/>
<path d="M0 0 C3.59412911 1.33496224 6.92170156 2.69127617 10 5 C10.8125 7.6875 10.8125 7.6875 11 10 C7.19364503 6.79239749 3.45436433 3.59253891 0 0 Z " fill="#322730" transform="translate(346,30)"/>
<path d="M0 0 C0.33 0 0.66 0 1 0 C1 3.63 1 7.26 1 11 C-0.32 10.34 -1.64 9.68 -3 9 C-2.44271087 5.65626525 -1.64826111 2.96687001 0 0 Z " fill="#AD996D" transform="translate(94,387)"/>
<path d="M0 0 C0.33 1.32 0.66 2.64 1 4 C0.34 4 -0.32 4 -1 4 C-1.4021875 5.7015625 -1.4021875 5.7015625 -1.8125 7.4375 C-2.204375 8.613125 -2.59625 9.78875 -3 11 C-3.99 11.33 -4.98 11.66 -6 12 C-6 12.66 -6 13.32 -6 14 C-6.66 13.67 -7.32 13.34 -8 13 C-5.36 8.71 -2.72 4.42 0 0 Z " fill="#322729" transform="translate(399,328)"/>
<path d="M0 0 C0.99 0 1.98 0 3 0 C3 0.66 3 1.32 3 2 C3.99 2 4.98 2 6 2 C6 4.31 6 6.62 6 9 C3.03134491 6.45543849 1.6380249 3.51005335 0 0 Z " fill="#251D34" transform="translate(394,84)"/>
<path d="M0 0 C-1.1427919 1.16964602 -2.28931715 2.33564556 -3.4375 3.5 C-4.07558594 4.1496875 -4.71367188 4.799375 -5.37109375 5.46875 C-7 7 -7 7 -8 7 C-8.3125 4.6875 -8.3125 4.6875 -8 2 C-3.92125984 -1.30708661 -3.92125984 -1.30708661 0 0 Z " fill="#261C2E" transform="translate(72,42)"/>
<path d="M0 0 C0.66 0.33 1.32 0.66 2 1 C1.1875 3.4375 1.1875 3.4375 0 6 C-0.99 6.33 -1.98 6.66 -3 7 C-3.33 7.66 -3.66 8.32 -4 9 C-4.66 8.67 -5.32 8.34 -6 8 C-4.02 5.36 -2.04 2.72 0 0 Z " fill="#AF996C" transform="translate(51,64)"/>
<path d="M0 0 C1.2065625 0.0309375 1.2065625 0.0309375 2.4375 0.0625 C0.04792731 3.30549151 -1.7672869 5.57152342 -5.5625 7.0625 C-6.2225 6.4025 -6.8825 5.7425 -7.5625 5.0625 C-5.9125 4.7325 -4.2625 4.4025 -2.5625 4.0625 C-2.8925 3.0725 -3.2225 2.0825 -3.5625 1.0625 C-2.5625 0.0625 -2.5625 0.0625 0 0 Z " fill="#312632" transform="translate(84.5625,27.9375)"/>
<path d="M0 0 C0.33 0.99 0.66 1.98 1 3 C-1.52956528 6.0916909 -4.22454612 6.90931332 -8 8 C-3.375 2.25 -3.375 2.25 0 0 Z " fill="#B39C6C" transform="translate(91,25)"/>
<path d="M0 0 C2.0625 0.4375 2.0625 0.4375 4 1 C2.35 2.98 0.7 4.96 -1 7 C-1.66 6.67 -2.32 6.34 -3 6 C-1.125 1.125 -1.125 1.125 0 0 Z " fill="#B09C61" transform="translate(374,359)"/>
<path d="M0 0 C1.50560497 2.85410334 2.63216796 5.68124642 3.625 8.75 C3.88539062 9.54921875 4.14578125 10.3484375 4.4140625 11.171875 C4.60742188 11.77515625 4.80078125 12.3784375 5 13 C4.34 13 3.68 13 3 13 C-0.42857143 4.57142857 -0.42857143 4.57142857 0 0 Z " fill="#2B2225" transform="translate(12,286)"/>
<path d="M0 0 C0.33 0.66 0.66 1.32 1 2 C1.70125 1.649375 2.4025 1.29875 3.125 0.9375 C6.50268586 -0.1639193 8.58080593 0.20483859 12 1 C12 1.66 12 2.32 12 3 C8.04 3 4.08 3 0 3 C0 2.01 0 1.02 0 0 Z " fill="#000613" transform="translate(231,234)"/>
<path d="M0 0 C4.29 0 8.58 0 13 0 C13 0.33 13 0.66 13 1 C8.71 1.66 4.42 2.32 0 3 C0 2.01 0 1.02 0 0 Z " fill="#180B01" transform="translate(123,130)"/>
<path d="M0 0 C1.29608947 0.93137592 2.58671632 1.8703566 3.875 2.8125 C4.59429687 3.33457031 5.31359375 3.85664062 6.0546875 4.39453125 C8 6 8 6 10 9 C9.01 9 8.02 9 7 9 C7 8.34 7 7.68 7 7 C6.401875 6.731875 5.80375 6.46375 5.1875 6.1875 C3.00152146 5.00082594 1.58667406 3.90400887 0 2 C0 1.34 0 0.68 0 0 Z " fill="#AF9870" transform="translate(350,34)"/>
<path d="M0 0 C2.31 0 4.62 0 7 0 C7 3.3 7 6.6 7 10 C6.67 10 6.34 10 6 10 C6 7.03 6 4.06 6 1 C4.35 1.66 2.7 2.32 1 3 C0.67 2.01 0.34 1.02 0 0 Z " fill="#988969" transform="translate(34,332)"/>
<path d="M0 0 C1.32 0.66 2.64 1.32 4 2 C3.01 3.98 2.02 5.96 1 8 C0.67 8 0.34 8 0 8 C-0.38063221 5.6739143 -0.71269945 3.33944736 -1 1 C-0.67 0.67 -0.34 0.34 0 0 Z " fill="#271F3C" transform="translate(34,80)"/>
<path d="M0 0 C0.99 0.99 1.98 1.98 3 3 C-2.75 7 -2.75 7 -5 7 C-4.67 6.01 -4.34 5.02 -4 4 C-3.01 4 -2.02 4 -1 4 C-0.67 2.68 -0.34 1.36 0 0 Z " fill="#302636" transform="translate(103,13)"/>
<path d="M0 0 C-0.33 0.99 -0.66 1.98 -1 3 C-3.0625 3.6875 -3.0625 3.6875 -5 4 C-5.33 2.68 -5.66 1.36 -6 0 C-3.50907189 -1.24546405 -2.58919267 -0.7767578 0 0 Z " fill="#201B43" transform="translate(312,2)"/>
<path d="M0 0 C2.52588702 2.36292656 3.88820837 3.66462511 5 7 C3.68 7 2.36 7 1 7 C0.67 4.69 0.34 2.38 0 0 Z " fill="#271C28" transform="translate(34,334)"/>
<path d="M0 0 C1.65 0 3.3 0 5 0 C2.375 4.875 2.375 4.875 -1 6 C-0.67 4.02 -0.34 2.04 0 0 Z " fill="#B89E65" transform="translate(395,327)"/>
<path d="M0 0 C1.98 0.495 1.98 0.495 4 1 C2.69593116 3.01920337 1.36176581 5.01924973 0 7 C-0.33 7 -0.66 7 -1 7 C-0.67 4.69 -0.34 2.38 0 0 Z " fill="#251E29" transform="translate(30,89)"/>
<path d="M0 0 C1.65 1.65 3.3 3.3 5 5 C3.35 5.33 1.7 5.66 0 6 C-1.125 2.25 -1.125 2.25 0 0 Z " fill="#AF9767" transform="translate(363,46)"/>
<path d="M0 0 C0 1.65 0 3.3 0 5 C-3.875 3.25 -3.875 3.25 -5 1 C-3 0 -3 0 0 0 Z " fill="#AB975E" transform="translate(68,370)"/>
<path d="M0 0 C1.65 0 3.3 0 5 0 C5 1.98 5 3.96 5 6 C3.2925002 4.71937515 1.62626404 3.38232443 0 2 C0 1.34 0 0.68 0 0 Z " fill="#294259" transform="translate(224,306)"/>
<path d="M0 0 C0.66 0.33 1.32 0.66 2 1 C1.34 3.31 0.68 5.62 0 8 C-0.66 7.67 -1.32 7.34 -2 7 C-1.34 4.69 -0.68 2.38 0 0 Z " fill="#AC9866" transform="translate(19,117)"/>
<path d="M0 0 C0.33 0 0.66 0 1 0 C1 1.65 1 3.3 1 5 C-0.98 5.66 -2.96 6.32 -5 7 C-4.19152271 5.83054208 -3.37810888 4.66449539 -2.5625 3.5 C-2.11003906 2.8503125 -1.65757813 2.200625 -1.19140625 1.53125 C-0.79824219 1.0259375 -0.40507813 0.520625 0 0 Z " fill="#AB9568" transform="translate(58,55)"/>
<path d="M0 0 C3.057952 1.73559438 5.63379989 3.38472619 8 6 C7.01 6.33 6.02 6.66 5 7 C3.29115995 5.37660195 1.62553283 3.70680947 0 2 C0 1.34 0 0.68 0 0 Z " fill="#B09D6F" transform="translate(342,28)"/>
</svg>
