<?xml version="1.0" encoding="UTF-8"?>
<svg version="1.1" xmlns="http://www.w3.org/2000/svg" width="400" height="400">
<path d="M0 0 C132 0 264 0 400 0 C400 132 400 264 400 400 C268 400 136 400 0 400 C0 268 0 136 0 0 Z " fill="#0225FC" transform="translate(0,0)"/>
<path d="M0 0 C47.52 0 95.04 0 144 0 C144 6.6 144 13.2 144 20 C149.28 20 154.56 20 160 20 C160 26.6 160 33.2 160 40 C165.28 40 170.56 40 176 40 C176.15517503 56.17094425 176.30340747 72.34193177 176.4429636 88.51301765 C176.5079592 96.02515294 176.57521133 103.53725411 176.64819336 111.04931641 C176.7119575 117.61321579 176.77106312 124.17713962 176.82505554 130.74112689 C176.85367147 134.20179817 176.88429109 137.66241967 176.92053413 141.12302017 C177.11370813 160.11829557 176.77294637 179.02312214 176 198 C170.72 198 165.44 198 160 198 C160 204.6 160 211.2 160 218 C154.72 218 149.44 218 144 218 C144 224.6 144 231.2 144 238 C138.72 238 133.44 238 128 238 C128 244.6 128 251.2 128 258 C91.04 258 54.08 258 16 258 C16 251.4 16 244.8 16 238 C10.72 238 5.44 238 0 238 C0 231.4 0 224.8 0 218 C-5.28 218 -10.56 218 -16 218 C-16 211.4 -16 204.8 -16 198 C-21.28 198 -26.56 198 -32 198 C-32 145.86 -32 93.72 -32 40 C-26.72 40 -21.44 40 -16 40 C-16 33.4 -16 26.8 -16 20 C-10.72 20 -5.44 20 0 20 C0 13.4 0 6.8 0 0 Z " fill="#E8D0C0" transform="translate(128,71)"/>
<path d="M0 0 C44.55 0 89.1 0 135 0 C135 5.94 135 11.88 135 18 C139.95 18 144.9 18 150 18 C150 24.27 150 30.54 150 37 C154.95 37 159.9 37 165 37 C165 86.17 165 135.34 165 186 C160.05 186 155.1 186 150 186 C150 155.31 150 124.62 150 93 C145.05 93 140.1 93 135 93 C135 87.06 135 81.12 135 75 C130.05 75 125.1 75 120 75 C120 68.73 120 62.46 120 56 C85.02 56 50.04 56 14 56 C14 61.94 14 67.88 14 74 C9.05 74 4.1 74 -1 74 C-1 80.27 -1 86.54 -1 93 C-5.62 93 -10.24 93 -15 93 C-15 123.69 -15 154.38 -15 186 C-10.38 186 -5.76 186 -1 186 C0 187 0 187 0.11352539 188.76586914 C0.10828857 189.51473389 0.10305176 190.26359863 0.09765625 191.03515625 C0.09443359 191.84404297 0.09121094 192.65292969 0.08789062 193.48632812 C0.07951172 194.33646484 0.07113281 195.18660156 0.0625 196.0625 C0.05798828 196.91650391 0.05347656 197.77050781 0.04882812 198.65039062 C0.03700373 200.76695663 0.01906769 202.88348685 0 205 C4.95 205 9.9 205 15 205 C15 211.27 15 217.54 15 224 C49.65 224 84.3 224 120 224 C120 230.27 120 236.54 120 243 C85.02 243 50.04 243 14 243 C14 236.73 14 230.46 14 224 C9.05 224 4.1 224 -1 224 C-1 218.06 -1 212.12 -1 206 C-5.95 206 -10.9 206 -16 206 C-16 199.73 -16 193.46 -16 187 C-20.95 187 -25.9 187 -31 187 C-31 137.5 -31 88 -31 37 C-25.72 37 -20.44 37 -15 37 C-15 31.06 -15 25.12 -15 19 C-10.05 19 -5.1 19 0 19 C0 12.73 0 6.46 0 0 Z " fill="#020101" transform="translate(133,79)"/>
<path d="M0 0 C19.8 0 39.6 0 60 0 C60 6.27 60 12.54 60 19 C64.95 19 69.9 19 75 19 C75 12.73 75 6.46 75 0 C94.8 0 114.6 0 135 0 C135 18.48 135 36.96 135 56 C115.2 56 95.4 56 75 56 C75 49.73 75 43.46 75 37 C70.05 37 65.1 37 60 37 C60 43.27 60 49.54 60 56 C40.2 56 20.4 56 0 56 C0 37.52 0 19.04 0 0 Z " fill="#030203" transform="translate(133,172)"/>
<path d="M0 0 C47.52 0 95.04 0 144 0 C144 6.6 144 13.2 144 20 C149.28 20 154.56 20 160 20 C160 26.6 160 33.2 160 40 C165.28 40 170.56 40 176 40 C176.15517503 56.17094425 176.30340747 72.34193177 176.4429636 88.51301765 C176.5079592 96.02515294 176.57521133 103.53725411 176.64819336 111.04931641 C176.7119575 117.61321579 176.77106312 124.17713962 176.82505554 130.74112689 C176.85367147 134.20179817 176.88429109 137.66241967 176.92053413 141.12302017 C177.11370813 160.11829557 176.77294637 179.02312214 176 198 C170.72 198 165.44 198 160 198 C160 204.6 160 211.2 160 218 C154.72 218 149.44 218 144 218 C144 224.6 144 231.2 144 238 C138.72 238 133.44 238 128 238 C128 244.6 128 251.2 128 258 C91.04 258 54.08 258 16 258 C16 251.4 16 244.8 16 238 C10.72 238 5.44 238 0 238 C0 231.4 0 224.8 0 218 C-5.28 218 -10.56 218 -16 218 C-16 211.4 -16 204.8 -16 198 C-21.28 198 -26.56 198 -32 198 C-32 145.86 -32 93.72 -32 40 C-26.72 40 -21.44 40 -16 40 C-16 33.4 -16 26.8 -16 20 C-10.72 20 -5.44 20 0 20 C0 13.4 0 6.8 0 0 Z M5 8 C5 14.27 5 20.54 5 27 C0.05 27 -4.9 27 -10 27 C-10 32.94 -10 38.88 -10 45 C-15.28 45 -20.56 45 -26 45 C-26 94.5 -26 144 -26 195 C-21.05 195 -16.1 195 -11 195 C-11 201.27 -11 207.54 -11 214 C-6.05 214 -1.1 214 4 214 C4 219.94 4 225.88 4 232 C8.95 232 13.9 232 19 232 C19 238.27 19 244.54 19 251 C53.98 251 88.96 251 125 251 C125 244.73 125 238.46 125 232 C129.95 232 134.9 232 140 232 C140 225.73 140 219.46 140 213 C145.28 213 150.56 213 156 213 C156 207.06 156 201.12 156 195 C160.95 195 165.9 195 171 195 C171 145.5 171 96 171 45 C165.72 45 160.44 45 155 45 C155 38.73 155 32.46 155 26 C150.05 26 145.1 26 140 26 C140 20.06 140 14.12 140 8 C95.45 8 50.9 8 5 8 Z " fill="#FCFCFB" transform="translate(128,71)"/>
<path d="M0 0 C34.98 0 69.96 0 106 0 C106 6.27 106 12.54 106 19 C110.95 19 115.9 19 121 19 C121 24.94 121 30.88 121 37 C101.2 37 81.4 37 61 37 C61 43.27 61 49.54 61 56 C56.05 56 51.1 56 46 56 C46 49.73 46 43.46 46 37 C26.2 37 6.4 37 -14 37 C-14 55.48 -14 73.96 -14 93 C5.8 93 25.6 93 46 93 C46 93.33 46 93.66 46 94 C25.87 94 5.74 94 -15 94 C-15 68.92 -15 43.84 -15 18 C-10.05 18 -5.1 18 0 18 C0 12.06 0 6.12 0 0 Z " fill="#E7CFBF" transform="translate(147,135)"/>
<path d="M0 0 C47.52 0 95.04 0 144 0 C144 6.6 144 13.2 144 20 C149.28 20 154.56 20 160 20 C160 26.6 160 33.2 160 40 C165.28 40 170.56 40 176 40 C176.15517503 56.17094425 176.30340747 72.34193177 176.4429636 88.51301765 C176.5079592 96.02515294 176.57521133 103.53725411 176.64819336 111.04931641 C176.7119575 117.61321579 176.77106312 124.17713962 176.82505554 130.74112689 C176.85367147 134.20179817 176.88429109 137.66241967 176.92053413 141.12302017 C177.11369325 160.1168326 176.78580501 179.02468529 176 198 C175.67 198 175.34 198 175 198 C175 146.19 175 94.38 175 41 C169.72 41 164.44 41 159 41 C159 40.34 159 39.68 159 39 C158.34 39 157.68 39 157 39 C156.67 40.98 156.34 42.96 156 45 C155.67 45 155.34 45 155 45 C155 38.73 155 32.46 155 26 C150.05 26 145.1 26 140 26 C140 20.06 140 14.12 140 8 C95.45 8 50.9 8 5 8 C5 14.27 5 20.54 5 27 C0.05 27 -4.9 27 -10 27 C-10 32.94 -10 38.88 -10 45 C-15.28 45 -20.56 45 -26 45 C-26.33 45.66 -26.66 46.32 -27 47 C-27.33 46.34 -27.66 45.68 -28 45 C-29.485 45.495 -29.485 45.495 -31 46 C-31 96.16 -31 146.32 -31 198 C-31.33 198 -31.66 198 -32 198 C-32 145.86 -32 93.72 -32 40 C-26.72 40 -21.44 40 -16 40 C-16 33.4 -16 26.8 -16 20 C-10.72 20 -5.44 20 0 20 C0 13.4 0 6.8 0 0 Z " fill="#F0F4FD" transform="translate(128,71)"/>
<path d="M0 0 C25.08 0 50.16 0 76 0 C76 6.27 76 12.54 76 19 C50.92 19 25.84 19 0 19 C0 12.73 0 6.46 0 0 Z " fill="#080606" transform="translate(162,247)"/>
<path d="M0 0 C2.36109579 1.79990269 2.95733004 2.69015453 3.36914349 5.68051434 C3.36637811 6.76915185 3.36361273 7.85778936 3.36076355 8.97941589 C3.36488754 10.22883469 3.36901154 11.47825348 3.3732605 12.76553345 C3.36264306 14.15252901 3.35173863 15.53952239 3.34057617 16.92651367 C3.33973008 18.38506554 3.3402047 19.84361868 3.34190369 21.3021698 C3.34276576 25.26478724 3.32510583 29.22713323 3.30418181 33.18968749 C3.2854503 37.32967621 3.28366736 41.46967088 3.28010559 45.60969543 C3.27077474 53.45075082 3.24614693 61.29168099 3.21605712 69.13268119 C3.18254543 78.05880269 3.16603524 86.98493011 3.15097082 95.91109884 C3.11959824 114.2741389 3.06621453 132.6370548 3 151 C7.95 151 12.9 151 18 151 C18 157.27 18 163.54 18 170 C22.95 170 27.9 170 33 170 C33 175.94 33 181.88 33 188 C37.95 188 42.9 188 48 188 C48 188.33 48 188.66 48 189 C45.69 189.33 43.38 189.66 41 190 C42.32 190.33 43.64 190.66 45 191 C45 191.66 45 192.32 45 193 C40.05 193 35.1 193 30 193 C30 186.4 30 179.8 30 173 C24.72 173 19.44 173 14 173 C13.67 167.06 13.34 161.12 13 155 C8.05 154.67 3.1 154.34 -2 154 C-2 103.84 -2 53.68 -2 2 C-1.34 2 -0.68 2 0 2 C0 1.34 0 0.68 0 0 Z " fill="#F9FCFE" transform="translate(99,115)"/>
<path d="M0 0 C0.33 0 0.66 0 1 0 C1 49.17 1 98.34 1 149 C5.62 149 10.24 149 15 149 C15 118.31 15 87.62 15 56 C15.33 56 15.66 56 16 56 C16 86.69 16 117.38 16 149 C20.62 149 25.24 149 30 149 C31 150 31 150 31.11352539 151.76586914 C31.10828857 152.51473389 31.10305176 153.26359863 31.09765625 154.03515625 C31.09443359 154.84404297 31.09121094 155.65292969 31.08789062 156.48632812 C31.07951172 157.33646484 31.07113281 158.18660156 31.0625 159.0625 C31.05798828 159.91650391 31.05347656 160.77050781 31.04882812 161.65039062 C31.03700373 163.76695663 31.01906769 165.88348685 31 168 C35.95 168 40.9 168 46 168 C46 180.21 46 192.42 46 205 C80.65 205 115.3 205 151 205 C151 205.33 151 205.66 151 206 C116.02 206 81.04 206 45 206 C45 199.73 45 193.46 45 187 C40.05 187 35.1 187 30 187 C30 181.06 30 175.12 30 169 C25.05 169 20.1 169 15 169 C15 162.73 15 156.46 15 150 C10.05 150 5.1 150 0 150 C0 100.5 0 51 0 0 Z " fill="#605C59" transform="translate(102,116)"/>
<path d="M0 0 C0.99 0.33 1.98 0.66 3 1 C3 1.66 3 2.32 3 3 C8.28 3 13.56 3 19 3 C19 54.81 19 106.62 19 160 C13.72 160 8.44 160 3 160 C2.01 161.98 2.01 161.98 1 164 C0.67 164 0.34 164 0 164 C0 161.69 0 159.38 0 157 C4.95 157 9.9 157 15 157 C15 107.5 15 58 15 7 C10.05 7 5.1 7 0 7 C0 4.69 0 2.38 0 0 Z " fill="#F9FCFE" transform="translate(284,109)"/>
<path d="M0 0 C35.97 0 71.94 0 109 0 C109 6.6 109 13.2 109 20 C114.28 20 119.56 20 125 20 C125 26.6 125 33.2 125 40 C130.28 40 135.56 40 141 40 C141.15517503 56.17094425 141.30340747 72.34193177 141.4429636 88.51301765 C141.5079592 96.02515294 141.57521133 103.53725411 141.64819336 111.04931641 C141.7119575 117.61321579 141.77106312 124.17713962 141.82505554 130.74112689 C141.85367147 134.20179817 141.88429109 137.66241967 141.92053413 141.12302017 C142.11369325 160.1168326 141.78580501 179.02468529 141 198 C140.67 198 140.34 198 140 198 C140 146.19 140 94.38 140 41 C134.72 41 129.44 41 124 41 C124 40.34 124 39.68 124 39 C123.34 39 122.68 39 122 39 C121.67 40.98 121.34 42.96 121 45 C120.67 45 120.34 45 120 45 C120 38.73 120 32.46 120 26 C115.05 26 110.1 26 105 26 C105 20.06 105 14.12 105 8 C60.45 8 15.9 8 -30 8 C-30 14.27 -30 20.54 -30 27 C-34.95 27 -39.9 27 -45 27 C-45 32.94 -45 38.88 -45 45 C-45.33 45 -45.66 45 -46 45 C-46 38.73 -46 32.46 -46 26 C-41.05 26 -36.1 26 -31 26 C-31 19.73 -31 13.46 -31 7 C13.88 6.67 58.76 6.34 105 6 C105.66 4.68 106.32 3.36 107 2 C71.69 1.67 36.38 1.34 0 1 C0 0.67 0 0.34 0 0 Z " fill="#B3BADB" transform="translate(163,71)"/>
<path d="M0 0 C10.23 0 20.46 0 31 0 C31 6.27 31 12.54 31 19 C20.77 19 10.54 19 0 19 C0 12.73 0 6.46 0 0 Z " fill="#A9E2F9" transform="translate(147,191)"/>
<path d="M0 0 C9.9 0 19.8 0 30 0 C30 6.27 30 12.54 30 19 C20.1 19 10.2 19 0 19 C0 12.73 0 6.46 0 0 Z " fill="#A8DCF0" transform="translate(223,191)"/>
<path d="M0 0 C0.33 0 0.66 0 1 0 C1 5.94 1 11.88 1 18 C-4.28 18 -9.56 18 -15 18 C-15 70.14 -15 122.28 -15 176 C-9.72 176 -4.44 176 1 176 C1 182.6 1 189.2 1 196 C6.28 196 11.56 196 17 196 C17 202.27 17 208.54 17 215 C16.67 215 16.34 215 16 215 C16 209.39 16 203.78 16 198 C11.10846529 198.0395679 11.10846529 198.0395679 6.21704102 198.09008789 C4.47778283 198.09724913 2.73854696 198.05024702 1 198 C0 197 0 197 -0.11352539 195.14233398 C-0.10828857 194.35157471 -0.10305176 193.56081543 -0.09765625 192.74609375 C-0.09443359 191.89208984 -0.09121094 191.03808594 -0.08789062 190.15820312 C-0.07951172 189.26037109 -0.07113281 188.36253906 -0.0625 187.4375 C-0.05798828 186.53580078 -0.05347656 185.63410156 -0.04882812 184.70507812 C-0.03700225 182.46998686 -0.0205222 180.23502563 0 178 C-1.07121094 178.01160156 -2.14242187 178.02320313 -3.24609375 178.03515625 C-4.64322743 178.04453299 -6.04036299 178.05363331 -7.4375 178.0625 C-8.14455078 178.07087891 -8.85160156 178.07925781 -9.58007812 178.08789062 C-11.38693559 178.09653588 -13.19387603 178.05220011 -15 178 C-16.6195516 176.3804484 -16.13490904 174.60356998 -16.14476013 172.36445618 C-16.15165863 171.36205399 -16.15855713 170.35965179 -16.16566467 169.32687378 C-16.16827805 168.2178067 -16.17089142 167.10873962 -16.17358398 165.96606445 C-16.180271 164.80512772 -16.18695801 163.64419098 -16.19384766 162.44807434 C-16.207938 159.91677734 -16.21981921 157.38546733 -16.22979546 154.85415077 C-16.24615128 150.84919334 -16.26917598 146.84430774 -16.29469299 142.83940125 C-16.36594995 131.44873079 -16.42559392 120.05801387 -16.47680664 108.66723633 C-16.50514642 102.38070913 -16.54055186 96.09426026 -16.58346039 89.80781525 C-16.60581093 86.48097646 -16.62317907 83.15422515 -16.63390923 79.82732582 C-16.64606225 76.11174141 -16.67021426 72.39641166 -16.69702148 68.6809082 C-16.69761063 67.58196228 -16.69819977 66.48301636 -16.69880676 65.35076904 C-16.74856855 60.14586694 -16.99416478 55.88537439 -19 51 C-19.13525391 48.75830078 -19.13525391 48.75830078 -18.9765625 46.6953125 C-18.925 45.94765625 -18.8734375 45.2 -18.8203125 44.4296875 C-18.75585938 43.66914063 -18.69140625 42.90859375 -18.625 42.125 C-18.53992188 40.949375 -18.53992188 40.949375 -18.453125 39.75 C-18.31282139 37.83251738 -18.15789804 35.91611401 -18 34 C-18.33 34 -18.66 34 -19 34 C-19 32.02 -19 30.04 -19 28 C-18.01 27.67 -17.02 27.34 -16 27 C-16.01160156 26.28972656 -16.02320312 25.57945313 -16.03515625 24.84765625 C-16.04869141 23.46900391 -16.04869141 23.46900391 -16.0625 22.0625 C-16.07410156 21.14597656 -16.08570312 20.22945312 -16.09765625 19.28515625 C-16 17 -16 17 -15 16 C-12.4672235 15.92679837 -9.96896082 15.90772431 -7.4375 15.9375 C-4.983125 15.958125 -2.52875 15.97875 0 16 C0 10.72 0 5.44 0 0 Z " fill="#132DC1" transform="translate(111,93)"/>
<path d="M0 0 C0.33 0 0.66 0 1 0 C1 5.94 1 11.88 1 18 C6.28 18 11.56 18 17 18 C17 24.6 17 31.2 17 38 C22.28 38 27.56 38 33 38 C33 44.27 33 50.54 33 57 C35.97 56.505 35.97 56.505 39 56 C40.5552243 55.92927877 42.11303026 55.9007473 43.66976929 55.91770935 C44.55308929 55.92474884 45.4364093 55.93178833 46.34649658 55.93904114 C47.29740173 55.95198715 48.24830688 55.96493317 49.22802734 55.97827148 C50.75089859 55.9926828 50.75089859 55.9926828 52.30453491 56.00738525 C55.64840861 56.04027266 58.99214745 56.080644 62.3359375 56.12109375 C64.659063 56.14540489 66.98219345 56.16924795 69.30532837 56.19264221 C75.41108848 56.25538419 81.51676077 56.32447881 87.62243652 56.39489746 C93.85632335 56.46567026 100.0902723 56.53043366 106.32421875 56.59570312 C118.54954744 56.72458802 130.77479178 56.86018432 143 57 C143 51.06 143 45.12 143 39 C143.33 39 143.66 39 144 39 C144 45.6 144 52.2 144 59 C107.04 59 70.08 59 32 59 C32 52.4 32 45.8 32 39 C26.72 39 21.44 39 16 39 C16 32.4 16 25.8 16 19 C10.72 19 5.44 19 0 19 C0 12.73 0 6.46 0 0 Z " fill="#BDCCFE" transform="translate(112,270)"/>
<path d="M0 0 C0.33 0 0.66 0 1 0 C1 6.27 1 12.54 1 19 C6.61 19 12.22 19 18 19 C18 19.99 18 20.98 18 22 C18.66 22 19.32 22 20 22 C19.34 26.95 18.68 31.9 18 37 C19.98 37 21.96 37 24 37 C24.33 34.36 24.66 31.72 25 29 C25.61875 29.185625 26.2375 29.37125 26.875 29.5625 C29.04160178 30.23686176 29.04160178 30.23686176 31 29 C33.69327256 35.04212516 33.26606424 41.13638131 33.22705078 47.61474609 C33.22734283 48.88358643 33.22763489 50.15242676 33.22793579 51.4597168 C33.22850801 54.92625027 33.21677494 58.39264445 33.20278788 61.85914564 C33.19025871 65.48662574 33.1891083 69.11410927 33.18673706 72.74160767 C33.18052871 79.605053 33.16412664 86.46843439 33.14403808 93.3318516 C33.12165899 101.14803616 33.1106806 108.96422382 33.10064721 116.78043246 C33.07975982 132.85365904 33.04459642 148.92682135 33 165 C32.67 165 32.34 165 32 165 C32 123.75 32 82.5 32 40 C26.72 40 21.44 40 16 40 C16 33.4 16 26.8 16 20 C10.72 20 5.44 20 0 20 C0 13.4 0 6.8 0 0 Z " fill="#0D29C9" transform="translate(272,71)"/>
<path d="M0 0 C4.95 0 9.9 0 15 0 C15 6.27 15 12.54 15 19 C10.05 19 5.1 19 0 19 C0 12.73 0 6.46 0 0 Z " fill="#090707" transform="translate(253,284)"/>
<path d="M0 0 C4.95 0 9.9 0 15 0 C15 5.94 15 11.88 15 18 C10.05 18 5.1 18 0 18 C0 12.06 0 6.12 0 0 Z " fill="#060404" transform="translate(268,266)"/>
<path d="M0 0 C4.62 0 9.24 0 14 0 C14 5.94 14 11.88 14 18 C9.38 18 4.76 18 0 18 C0 12.06 0 6.12 0 0 Z " fill="#020102" transform="translate(133,285)"/>
<path d="M0 0 C4.62 0 9.24 0 14 0 C14 5.94 14 11.88 14 18 C9.38 18 4.76 18 0 18 C0 12.06 0 6.12 0 0 Z " fill="#030101" transform="translate(118,266)"/>
<path d="M0 0 C0.33 0 0.66 0 1 0 C1 6.6 1 13.2 1 20 C-4.28 20 -9.56 20 -15 20 C-15 26.6 -15 33.2 -15 40 C-20.28 40 -25.56 40 -31 40 C-31 39.67 -31 39.34 -31 39 C-26.05 39 -21.1 39 -16 39 C-16.33 37.35 -16.66 35.7 -17 34 C-17.66 34 -18.32 34 -19 34 C-19 27.73 -19 21.46 -19 15 C-13.72 15 -8.44 15 -3 15 C-3.061875 13.2675 -3.12375 11.535 -3.1875 9.75 C-3.30909576 6.34531873 -3.34890523 4.568029 -1.55078125 1.640625 C-0.78314453 0.82851563 -0.78314453 0.82851563 0 0 Z " fill="#DDE4F3" transform="translate(287,269)"/>
<path d="M0 0 C35.97 0 71.94 0 109 0 C109 0.66 109 1.32 109 2 C97.95856508 2.20226633 86.91692586 2.38920726 75.875 2.5625 C74.65886583 2.5815999 74.65886583 2.5815999 73.4181633 2.60108566 C48.92236782 2.98120552 24.48162943 3.11613756 0 2 C0 1.34 0 0.68 0 0 Z " fill="#0C24D5" transform="translate(147,329)"/>
<path d="M0 0 C29.15829994 -0.09022294 58.31127661 0.17622082 87.46795654 0.46356201 C93.75141238 0.52511701 100.03488665 0.58473025 106.31835938 0.64453125 C118.54559117 0.7611741 130.77280185 0.87988554 143 1 C143 1.33 143 1.66 143 2 C96.47 2 49.94 2 2 2 C1.67 7.94 1.34 13.88 1 20 C0.67 20 0.34 20 0 20 C0 13.4 0 6.8 0 0 Z " fill="#ECFAFF" transform="translate(128,71)"/>
<path d="M0 0 C0.33 0 0.66 0 1 0 C1 5.94 1 11.88 1 18 C-4.28 18 -9.56 18 -15 18 C-15 34.83 -15 51.66 -15 69 C-15.66 69 -16.32 69 -17 69 C-16.97679688 68.20335937 -16.95359375 67.40671875 -16.9296875 66.5859375 C-16.91164063 65.52632813 -16.89359375 64.46671875 -16.875 63.375 C-16.84019531 61.80878906 -16.84019531 61.80878906 -16.8046875 60.2109375 C-16.84783093 57.0007973 -16.84783093 57.0007973 -18.03125 54.15625 C-19.31024444 49.98920361 -18.98939191 46.42482457 -18.625 42.125 C-18.53992188 40.949375 -18.53992188 40.949375 -18.453125 39.75 C-18.31282139 37.83251738 -18.15789804 35.91611401 -18 34 C-18.33 34 -18.66 34 -19 34 C-19 32.02 -19 30.04 -19 28 C-18.01 27.67 -17.02 27.34 -16 27 C-16.01160156 26.28972656 -16.02320312 25.57945313 -16.03515625 24.84765625 C-16.04869141 23.46900391 -16.04869141 23.46900391 -16.0625 22.0625 C-16.07410156 21.14597656 -16.08570312 20.22945312 -16.09765625 19.28515625 C-16 17 -16 17 -15 16 C-12.4672235 15.92679837 -9.96896082 15.90772431 -7.4375 15.9375 C-4.983125 15.958125 -2.52875 15.97875 0 16 C0 10.72 0 5.44 0 0 Z " fill="#0F2CD0" transform="translate(111,93)"/>
<path d="M0 0 C0.99 0.33 1.98 0.66 3 1 C2.34 1 1.68 1 1 1 C1 1.66 1 2.32 1 3 C23.77 2.505 23.77 2.505 47 2 C47 2.66 47 3.32 47 4 C48.19625 3.91621094 49.3925 3.83242187 50.625 3.74609375 C70.4255891 2.54959678 90.19171738 3.35507917 110 4 C110 4.33 110 4.66 110 5 C96.85629177 5.02320341 83.71258844 5.04095584 70.56886387 5.05181217 C64.46525408 5.0570235 58.36165834 5.06408934 52.25805664 5.07543945 C46.36418966 5.08633056 40.47033616 5.09229002 34.57645988 5.09487724 C32.33148931 5.09672028 30.08651945 5.10031925 27.84155464 5.10573006 C24.68935698 5.1130231 21.53721455 5.11398746 18.38500977 5.11352539 C17.002883 5.1189183 17.002883 5.1189183 15.59283447 5.12442017 C9.98475795 5.11556526 4.56391755 4.7121594 -1 4 C-0.67 2.68 -0.34 1.36 0 0 Z " fill="#0B27EB" transform="translate(161,65)"/>
<path d="M0 0 C10.23 0 20.46 0 31 0 C31 6.27 31 12.54 31 19 C20.77 19 10.54 19 0 19 C0 12.73 0 6.46 0 0 Z M2 1 C2 6.28 2 11.56 2 17 C10.91 17 19.82 17 29 17 C29 11.72 29 6.44 29 1 C20.09 1 11.18 1 2 1 Z " fill="#94B9C5" transform="translate(147,191)"/>
<path d="M0 0 C0 1.65 0 3.3 0 5 C-4.95 5.33 -9.9 5.66 -15 6 C-15.33 11.94 -15.66 17.88 -16 24 C-18.97 24 -21.94 24 -25 24 C-25 23.67 -25 23.34 -25 23 C-23.02 23 -21.04 23 -19 23 C-18.67 15.41 -18.34 7.82 -18 0 C-14.101875 -0.2784375 -14.101875 -0.2784375 -10.125 -0.5625 C-9.30789551 -0.62381104 -8.49079102 -0.68512207 -7.64892578 -0.74829102 C-2.22222222 -1.11111111 -2.22222222 -1.11111111 0 0 Z " fill="#F1F3F6" transform="translate(271,303)"/>
<path d="M0 0 C0.66 2.31 1.32 4.62 2 7 C2.99 7 3.98 7 5 7 C4.67 7.99 4.34 8.98 4 10 C4.33 10.99 4.66 11.98 5 13 C3.02 13.99 3.02 13.99 1 15 C1 14.01 1 13.02 1 12 C0.67 12.66 0.34 13.32 0 14 C-0.66 14 -1.32 14 -2 14 C-2.66 12.68 -3.32 11.36 -4 10 C-5.98 10.99 -5.98 10.99 -8 12 C-7.67 10.35 -7.34 8.7 -7 7 C-7.99 7 -8.98 7 -10 7 C-9.9375 5.1875 -9.9375 5.1875 -9 3 C-3.10714286 0 -3.10714286 0 0 0 Z " fill="#0629F7" transform="translate(28,299)"/>
<path d="M0 0 C4.83811423 -0.02306304 9.67603459 -0.04294421 14.51416016 -0.05493164 C16.15707041 -0.05993363 17.79997627 -0.06673733 19.44287109 -0.07543945 C21.81609181 -0.0876874 24.18925323 -0.09326979 26.5625 -0.09765625 C27.28679199 -0.10281754 28.01108398 -0.10797882 28.75732422 -0.11329651 C33.5874339 -0.11381759 38.21690863 0.31972765 43 1 C43 1.33 43 1.66 43 2 C29.47 2 15.94 2 2 2 C1.67 7.94 1.34 13.88 1 20 C0.67 20 0.34 20 0 20 C0 13.4 0 6.8 0 0 Z " fill="#BFCEFE" transform="translate(128,71)"/>
<path d="M0 0 C1 1 1 1 1.0625 3.5625 C1.041875 4.366875 1.02125 5.17125 1 6 C1.99 6 2.98 6 4 6 C4.33 5.34 4.66 4.68 5 4 C5 6.79784711 4.62804225 8.9790678 4 11.6875 C3.814375 12.49574219 3.62875 13.30398437 3.4375 14.13671875 C3.2209375 15.05904297 3.2209375 15.05904297 3 16 C1.35 15.67 -0.3 15.34 -2 15 C-2 14.34 -2 13.68 -2 13 C-2.99 13 -3.98 13 -5 13 C-5 12.01 -5 11.02 -5 10 C-3.68 10 -2.36 10 -1 10 C-1 8.68 -1 7.36 -1 6 C-1.66 6 -2.32 6 -3 6 C-3 5.34 -3 4.68 -3 4 C-3.99 4.33 -4.98 4.66 -6 5 C-6.33 3.68 -6.66 2.36 -7 1 C-4.51588385 -0.24205807 -2.74800896 -0.14092354 0 0 Z " fill="#092CF4" transform="translate(11,194)"/>
<path d="M0 0 C2.31 0 4.62 0 7 0 C7.33 0.99 7.66 1.98 8 3 C8.66 3 9.32 3 10 3 C10.19573608 4.43640171 10.38127816 5.87419504 10.5625 7.3125 C10.66691406 8.11300781 10.77132812 8.91351563 10.87890625 9.73828125 C11 12 11 12 10 15 C9.01 15 8.02 15 7 15 C6.855625 14.21625 6.71125 13.4325 6.5625 12.625 C6.12201075 10.03578982 6.12201075 10.03578982 5 8 C5 6.33333333 5 4.66666667 5 3 C4.67 2.34 4.34 1.68 4 1 C3.67 1.66 3.34 2.32 3 3 C2.01 2.67 1.02 2.34 0 2 C0 1.34 0 0.68 0 0 Z M-2 1 C-1.34 1.33 -0.68 1.66 0 2 C0 3.65 0 5.3 0 7 C-0.99 7 -1.98 7 -3 7 C-3.33 5.35 -3.66 3.7 -4 2 C-3.34 1.67 -2.68 1.34 -2 1 Z " fill="#0627FB" transform="translate(205,0)"/>
<path d="M0 0 C1.26582219 3.86723631 1.1118765 7.73151262 1.0625 11.75 C1.05798828 12.44738281 1.05347656 13.14476562 1.04882812 13.86328125 C1.0371002 15.57555803 1.01916653 17.28779033 1 19 C0.01 18.67 -0.98 18.34 -2 18 C-2 15.36 -2 12.72 -2 10 C-2.66 9.67 -3.32 9.34 -4 9 C-4.8125 6.125 -4.8125 6.125 -5 3 C-3.41464922 0.73521317 -2.79754986 0 0 0 Z " fill="#1032F6" transform="translate(399,318)"/>
<path d="M0 0 C0.33 0 0.66 0 1 0 C1.02505615 0.76666992 1.0501123 1.53333984 1.07592773 2.32324219 C1.19201423 5.79899283 1.31468366 9.27448092 1.4375 12.75 C1.47681641 13.9565625 1.51613281 15.163125 1.55664062 16.40625 C1.59853516 17.56640625 1.64042969 18.7265625 1.68359375 19.921875 C1.72025146 20.99018555 1.75690918 22.05849609 1.79467773 23.15917969 C1.97098598 25.59856462 2.37342201 27.65289792 3 30 C3.34146341 36.48780488 3.34146341 36.48780488 1 40 C1.66 40.33 2.32 40.66 3 41 C2.01 41 1.02 41 0 41 C0 27.47 0 13.94 0 0 Z " fill="#0626EA" transform="translate(305,207)"/>
<path d="M0 0 C2.28204688 3.14765087 2.51785939 5.66967201 2.8125 9.5 C-0.1575 9.005 -0.1575 9.005 -3.1875 8.5 C-3.5175 6.85 -3.8475 5.2 -4.1875 3.5 C-4.8475 3.5 -5.5075 3.5 -6.1875 3.5 C-6.1875 2.18 -6.1875 0.86 -6.1875 -0.5 C-3.35882226 -1.71229046 -2.59906528 -1.78221619 0 0 Z " fill="#0323F2" transform="translate(111.1875,34.5)"/>
<path d="M0 0 C1.98 0 3.96 0 6 0 C6 0.66 6 1.32 6 2 C6.99 2.33 7.98 2.66 9 3 C9 3.99 9 4.98 9 6 C8.360625 6.12375 7.72125 6.2475 7.0625 6.375 C6.0415625 6.684375 6.0415625 6.684375 5 7 C4.67 7.66 4.34 8.32 4 9 C3.34 9 2.68 9 2 9 C2 7.68 2 6.36 2 5 C1.34 5 0.68 5 0 5 C0 3.35 0 1.7 0 0 Z " fill="#1033F5" transform="translate(24,247)"/>
<path d="M0 0 C4.95 0 9.9 0 15 0 C15 0.33 15 0.66 15 1 C12.36 1.33 9.72 1.66 7 2 C11.29 2.33 15.58 2.66 20 3 C20 3.33 20 3.66 20 4 C15.05 4 10.1 4 5 4 C4.67 4.66 4.34 5.32 4 6 C3.67 5.34 3.34 4.68 3 4 C2.01 4.33 1.02 4.66 0 5 C0 3.35 0 1.7 0 0 Z " fill="#F1F6F8" transform="translate(97,112)"/>
<path d="M0 0 C4.62 0 9.24 0 14 0 C14.33 1.32 14.66 2.64 15 4 C13.68 4.33 12.36 4.66 11 5 C11 4.34 11 3.68 11 3 C9.02 3.99 9.02 3.99 7 5 C7 4.01 7 3.02 7 2 C5.68 2 4.36 2 3 2 C2.34 4.97 1.68 7.94 1 11 C0.67 11 0.34 11 0 11 C0 7.37 0 3.74 0 0 Z " fill="#0326EA" transform="translate(289,271)"/>
<path d="M0 0 C0.99 0.33 1.98 0.66 3 1 C3.6875 3.0625 3.6875 3.0625 4 5 C4.66 5 5.32 5 6 5 C6 5.66 6 6.32 6 7 C6.99 6.67 7.98 6.34 9 6 C9.33 6.66 9.66 7.32 10 8 C9.34 8 8.68 8 8 8 C8 8.66 8 9.32 8 10 C3.05 10 -1.9 10 -7 10 C-7 9.67 -7 9.34 -7 9 C-2.545 8.505 -2.545 8.505 2 8 C1.67 7.34 1.34 6.68 1 6 C1.33 5.01 1.66 4.02 2 3 C1.34 2.67 0.68 2.34 0 2 C0 1.34 0 0.68 0 0 Z " fill="#0626EC" transform="translate(280,80)"/>
<path d="M0 0 C1.875 0.25 1.875 0.25 4 1 C5.25 3.0625 5.25 3.0625 6 5 C5.34 5 4.68 5 4 5 C4 5.99 4 6.98 4 8 C4.66 8 5.32 8 6 8 C6 8.66 6 9.32 6 10 C5.34 10 4.68 10 4 10 C3.67 10.99 3.34 11.98 3 13 C2.01 13 1.02 13 0 13 C0.12568359 11.96939453 0.12568359 11.96939453 0.25390625 10.91796875 C0.35574219 10.01691406 0.45757812 9.11585937 0.5625 8.1875 C0.66691406 7.29417969 0.77132812 6.40085937 0.87890625 5.48046875 C1.15658709 2.86624428 1.15658709 2.86624428 0 0 Z " fill="#0628EA" transform="translate(90,68)"/>
<path d="M0 0 C2 0 4 0 6 0 C7.6415049 3.2830098 6.51888624 6.42545033 6 10 C4.68 10 3.36 10 2 10 C2 8.02 2 6.04 2 4 C1.34 4 0.68 4 0 4 C0 2.68 0 1.36 0 0 Z " fill="#1A3DED" transform="translate(81,301)"/>
<path d="M0 0 C0.66 0.99 1.32 1.98 2 3 C1.34 3 0.68 3 0 3 C-0.6878236 5.35367713 -0.6878236 5.35367713 -1 8 C-0.01 9.485 -0.01 9.485 1 11 C1 11.66 1 12.32 1 13 C-1.31 13 -3.62 13 -6 13 C-6.33 13.99 -6.66 14.98 -7 16 C-7.33 15.34 -7.66 14.68 -8 14 C-7.02727325 12.64664105 -6.0260734 11.31337396 -5 10 C-4.67 10 -4.34 10 -4 10 C-3.67 8.02 -3.34 6.04 -3 4 C-2.34 4 -1.68 4 -1 4 C-0.67 2.68 -0.34 1.36 0 0 Z " fill="#0426ED" transform="translate(30,234)"/>
<path d="M0 0 C4 1 4 1 6 3 C5.625 5.625 5.625 5.625 5 8 C3.35 8.33 1.7 8.66 0 9 C0 6.03 0 3.06 0 0 Z " fill="#1335EB" transform="translate(0,112)"/>
<path d="M0 0 C0.33 0.99 0.66 1.98 1 3 C-3.62 3.33 -8.24 3.66 -13 4 C-13.28875 5.464375 -13.5775 6.92875 -13.875 8.4375 C-14.3671875 10.93359375 -14.3671875 10.93359375 -15 13 C-15.99 13.495 -15.99 13.495 -17 14 C-16.67 12.02 -16.34 10.04 -16 8 C-17.32 8.33 -18.64 8.66 -20 9 C-19.67 7.68 -19.34 6.36 -19 5 C-17.68 5 -16.36 5 -15 5 C-14.67 4.01 -14.34 3.02 -14 2 C-9.38 2 -4.76 2 0 2 C0 1.34 0 0.68 0 0 Z " fill="#0526E5" transform="translate(126,87)"/>
<path d="M0 0 C1.32 0 2.64 0 4 0 C4.625 2.8125 4.625 2.8125 5 6 C4.01 7.485 4.01 7.485 3 9 C1.68 8.34 0.36 7.68 -1 7 C-0.67 4.69 -0.34 2.38 0 0 Z " fill="#0828E9" transform="translate(128,11)"/>
<path d="M0 0 C0.99 0.33 1.98 0.66 3 1 C2.67 3.64 2.34 6.28 2 9 C2.66 9.33 3.32 9.66 4 10 C3.67 10.66 3.34 11.32 3 12 C0 11 0 11 -1.25 9.25 C-2.1873112 6.4380664 -1.815773 4.8181249 -1 2 C-0.67 1.34 -0.34 0.68 0 0 Z M4 6 C4 6.99 4 7.98 4 9 C3.34 9 2.68 9 2 9 C2 8.34 2 7.68 2 7 C2.66 6.67 3.32 6.34 4 6 Z " fill="#0324EC" transform="translate(381,67)"/>
<path d="M0 0 C0.99 0.33 1.98 0.66 3 1 C3.66 4.3 4.32 7.6 5 11 C4.34 11 3.68 11 3 11 C3 10.01 3 9.02 3 8 C2.01 8 1.02 8 0 8 C-0.66 5.69 -1.32 3.38 -2 1 C-1.34 0.67 -0.68 0.34 0 0 Z " fill="#0F2FF1" transform="translate(29,268)"/>
<path d="M0 0 C0.33 0 0.66 0 1 0 C1.125 7.625 1.125 7.625 0 11 C-1.32 11 -2.64 11 -4 11 C-4.33 9.35 -4.66 7.7 -5 6 C-3.68 5.67 -2.36 5.34 -1 5 C-0.67 3.35 -0.34 1.7 0 0 Z " fill="#183CE9" transform="translate(89,245)"/>
<path d="M0 0 C2.625 0.375 2.625 0.375 5 1 C5.33 1.99 5.66 2.98 6 4 C2.375 7 2.375 7 -1 7 C-1.625 4.625 -1.625 4.625 -2 2 C-1.34 1.34 -0.68 0.68 0 0 Z " fill="#0C30F7" transform="translate(312,350)"/>
<path d="M0 0 C4.95 0 9.9 0 15 0 C15 0.33 15 0.66 15 1 C9.06 1.495 9.06 1.495 3 2 C3.33 3.32 3.66 4.64 4 6 C3.01 6 2.02 6 1 6 C1 7.65 1 9.3 1 11 C0.67 11 0.34 11 0 11 C0 7.37 0 3.74 0 0 Z " fill="#0626E9" transform="translate(257,310)"/>
<path d="M0 0 C0.66 0 1.32 0 2 0 C2.66 1.32 3.32 2.64 4 4 C5.32 3.67 6.64 3.34 8 3 C8.33 3.66 8.66 4.32 9 5 C8.67 5.66 8.34 6.32 8 7 C8.66 7.33 9.32 7.66 10 8 C7.58287634 8.86325845 6.35009306 9.1132654 3.875 8.3125 C1.63796199 6.74657339 0.92723836 5.5499055 0 3 C0 2.01 0 1.02 0 0 Z " fill="#183AFA" transform="translate(67,135)"/>
<path d="M0 0 C5.28 0 10.56 0 16 0 C16 0.33 16 0.66 16 1 C13.69 1.33 11.38 1.66 9 2 C9 2.33 9 2.66 9 3 C6.03 3 3.06 3 0 3 C0 2.01 0 1.02 0 0 Z " fill="#EFEEED" transform="translate(131,303)"/>
<path d="M0 0 C2.31 0.66 4.62 1.32 7 2 C7 3.98 7 5.96 7 8 C5 7 5 7 4 6 C4 7.32 4 8.64 4 10 C3.34 10 2.68 10 2 10 C1.67 8.02 1.34 6.04 1 4 C1.66 4 2.32 4 3 4 C3 3.34 3 2.68 3 2 C2.01 2 1.02 2 0 2 C0 1.34 0 0.68 0 0 Z " fill="#0E32FC" transform="translate(32,296)"/>
<path d="M0 0 C0.66 0 1.32 0 2 0 C2 0.66 2 1.32 2 2 C2.66 2 3.32 2 4 2 C4 2.99 4 3.98 4 5 C2.68 4.67 1.36 4.34 0 4 C0.33 5.65 0.66 7.3 1 9 C-0.32 9 -1.64 9 -3 9 C-3.25532751 5.93606987 -3.21861333 4.36766788 -1.625 1.6875 C-0.820625 0.8521875 -0.820625 0.8521875 0 0 Z " fill="#2245F4" transform="translate(71,238)"/>
<path d="M0 0 C0 1.32 0 2.64 0 4 C-0.66 4 -1.32 4 -2 4 C-2 4.99 -2 5.98 -2 7 C-1.01 7 -0.02 7 1 7 C1 7.66 1 8.32 1 9 C-1.97 8.505 -1.97 8.505 -5 8 C-5.33 7.01 -5.66 6.02 -6 5 C-5.34 5 -4.68 5 -4 5 C-4 4.34 -4 3.68 -4 3 C-4.66 2.67 -5.32 2.34 -6 2 C-2.25 0 -2.25 0 0 0 Z " fill="#0225EB" transform="translate(315,82)"/>
<path d="M0 0 C2.625 0.375 2.625 0.375 5 1 C5.33 2.98 5.66 4.96 6 7 C5.01 7 4.02 7 3 7 C3 6.01 3 5.02 3 4 C2.34 4 1.68 4 1 4 C0.67 4.66 0.34 5.32 0 6 C-0.66 4.68 -1.32 3.36 -2 2 C-1.34 1.34 -0.68 0.68 0 0 Z " fill="#0325ED" transform="translate(243,57)"/>
<path d="M0 0 C3.3 0 6.6 0 10 0 C9.34 1.65 8.68 3.3 8 5 C6.35 5 4.7 5 3 5 C3 4.01 3 3.02 3 2 C2.01 1.67 1.02 1.34 0 1 C0 0.67 0 0.34 0 0 Z " fill="#1F44EB" transform="translate(117,48)"/>
<path d="M0 0 C-0.33 1.32 -0.66 2.64 -1 4 C-1.33 3.01 -1.66 2.02 -2 1 C-2.99 1.99 -3.98 2.98 -5 4 C-3.68 4.33 -2.36 4.66 -1 5 C-1.33 5.66 -1.66 6.32 -2 7 C-3.65 6.67 -5.3 6.34 -7 6 C-7.33 4.02 -7.66 2.04 -8 0 C-4.71023192 -1.09658936 -3.28696233 -0.79953138 0 0 Z " fill="#0626EA" transform="translate(265,336)"/>
<path d="M0 0 C-0.45822468 3.46941546 -0.89131683 6.67395049 -2 10 C-2.66 9.67 -3.32 9.34 -4 9 C-3.67 7.68 -3.34 6.36 -3 5 C-3.99 5 -4.98 5 -6 5 C-5.625 3.0625 -5.625 3.0625 -5 1 C-3 0 -3 0 0 0 Z " fill="#1236FA" transform="translate(24,301)"/>
<path d="M0 0 C2 3.75 2 3.75 2 6 C1.195625 6.268125 0.39125 6.53625 -0.4375 6.8125 C-1.283125 7.204375 -2.12875 7.59625 -3 8 C-3.33 8.99 -3.66 9.98 -4 11 C-4.66 9.35 -5.32 7.7 -6 6 C-5.01 6 -4.02 6 -3 6 C-3 4.35 -3 2.7 -3 1 C-2.01 0.67 -1.02 0.34 0 0 Z " fill="#1537ED" transform="translate(30,181)"/>
<path d="M0 0 C0.66 0.66 1.32 1.32 2 2 C1.96712417 4.72869407 1.43602229 7.2966618 1 10 C0.01 10 -0.98 10 -2 10 C-2.59732819 7.23735711 -3 4.83967231 -3 2 C-2.01 2 -1.02 2 0 2 C0 1.34 0 0.68 0 0 Z " fill="#193AF1" transform="translate(214,5)"/>
<path d="M0 0 C0.928125 0.2784375 0.928125 0.2784375 1.875 0.5625 C4.04160178 1.23686176 4.04160178 1.23686176 6 0 C4.25 5.75 4.25 5.75 2 8 C1.01 8 0.02 8 -1 8 C-0.67 5.36 -0.34 2.72 0 0 Z " fill="#1F41F3" transform="translate(297,100)"/>
<path d="M0 0 C0.33 0.66 0.66 1.32 1 2 C1.5775 1.773125 2.155 1.54625 2.75 1.3125 C5 1 5 1 7.125 2.375 C7.74375 2.91125 8.3625 3.4475 9 4 C9.66 4.33 10.32 4.66 11 5 C9.02 5.99 9.02 5.99 7 7 C7 6.01 7 5.02 7 4 C4.525 5.485 4.525 5.485 2 7 C1.34 6.34 0.68 5.68 0 5 C0.66 5 1.32 5 2 5 C2 4.34 2 3.68 2 3 C0.68 3.33 -0.64 3.66 -2 4 C-2 3.34 -2 2.68 -2 2 C-1.34 2 -0.68 2 0 2 C0 1.34 0 0.68 0 0 Z " fill="#0121F1" transform="translate(172,41)"/>
<path d="M0 0 C0.33 0 0.66 0 1 0 C1.33 3.63 1.66 7.26 2 11 C2.99 11.33 3.98 11.66 5 12 C3.625 14 3.625 14 2 16 C1.34 16 0.68 16 0 16 C0 10.72 0 5.44 0 0 Z " fill="#EDD9CC" transform="translate(148,287)"/>
<path d="M0 0 C1.32 0.66 2.64 1.32 4 2 C4 3.98 4 5.96 4 8 C3.01 8.33 2.02 8.66 1 9 C1 8.34 1 7.68 1 7 C0.01 7 -0.98 7 -2 7 C-2 6.01 -2 5.02 -2 4 C-1.01 4 -0.02 4 1 4 C0.67 2.68 0.34 1.36 0 0 Z " fill="#1A3BF3" transform="translate(41,195)"/>
<path d="M0 0 C0.66 0 1.32 0 2 0 C2 0.66 2 1.32 2 2 C2.66 2.33 3.32 2.66 4 3 C4 6 4 6 3 8 C2.34 8 1.68 8 1 8 C1 7.34 1 6.68 1 6 C-1.475 5.01 -1.475 5.01 -4 4 C-3.01 3.67 -2.02 3.34 -1 3 C-0.67 2.01 -0.34 1.02 0 0 Z " fill="#2043F3" transform="translate(340,160)"/>
<path d="M0 0 C1.98 0 3.96 0 6 0 C5.125 4.875 5.125 4.875 4 6 C2.33382885 6.04063832 0.66611905 6.042721 -1 6 C-1 5.01 -1 4.02 -1 3 C0.32 3.33 1.64 3.66 3 4 C3 3.34 3 2.68 3 2 C2.01 2 1.02 2 0 2 C0 1.34 0 0.68 0 0 Z " fill="#1637EE" transform="translate(259,0)"/>
<path d="M0 0 C2.97 0.495 2.97 0.495 6 1 C5.34 2.65 4.68 4.3 4 6 C2.68 6 1.36 6 0 6 C0 4.02 0 2.04 0 0 Z " fill="#1737F1" transform="translate(16,191)"/>
<path d="M0 0 C0.33 0.99 0.66 1.98 1 3 C1.66 3 2.32 3 3 3 C3 2.01 3 1.02 3 0 C4.32 0 5.64 0 7 0 C6.67 1.65 6.34 3.3 6 5 C3.69 5 1.38 5 -1 5 C-0.67 3.35 -0.34 1.7 0 0 Z " fill="#0324ED" transform="translate(55,155)"/>
<path d="M0 0 C1.65 0.33 3.3 0.66 5 1 C4.34 2.32 3.68 3.64 3 5 C2.34 5 1.68 5 1 5 C0.34 6.65 -0.32 8.3 -1 10 C-1.66 9.67 -2.32 9.34 -3 9 C-3 6 -3 6 -1 4 C-0.3574765 1.93125966 -0.3574765 1.93125966 0 0 Z " fill="#0E32FC" transform="translate(336,102)"/>
<path d="M0 0 C2.0625 0.4375 2.0625 0.4375 4 1 C3.34 2.32 2.68 3.64 2 5 C2.66 5 3.32 5 4 5 C4.33 4.01 4.66 3.02 5 2 C5.33 3.65 5.66 5.3 6 7 C4.35 7.33 2.7 7.66 1 8 C0.34 5.69 -0.32 3.38 -1 1 C-0.67 0.67 -0.34 0.34 0 0 Z " fill="#0225EC" transform="translate(345,32)"/>
<path d="M0 0 C1.5625 1.25 1.5625 1.25 3 3 C2.6875 5.1875 2.6875 5.1875 2 7 C0.35 6.67 -1.3 6.34 -3 6 C-3 4.68 -3 3.36 -3 2 C-2.01 1.34 -1.02 0.68 0 0 Z " fill="#1939F3" transform="translate(109,379)"/>
<path d="M0 0 C1.32 0 2.64 0 4 0 C4 6.27 4 12.54 4 19 C3.67 19 3.34 19 3 19 C2.92652344 17.28490234 2.92652344 17.28490234 2.8515625 15.53515625 C2.77654811 14.04424527 2.70099972 12.55336108 2.625 11.0625 C2.5940625 10.30775391 2.563125 9.55300781 2.53125 8.77539062 C2.4273685 6.84492605 2.22104386 4.92057919 2 3 C1.34 2.67 0.68 2.34 0 2 C0 1.34 0 0.68 0 0 Z " fill="#132DC0" transform="translate(140,309)"/>
<path d="M0 0 C1.32 0.33 2.64 0.66 4 1 C3.01 1 2.02 1 1 1 C1 1.66 1 2.32 1 3 C1.66 3 2.32 3 3 3 C3 3.99 3 4.98 3 6 C2.34 6 1.68 6 1 6 C1 6.66 1 7.32 1 8 C-1.51083114 6.74458443 -1.87125446 5.49936512 -3 3 C-2.34 3 -1.68 3 -1 3 C-0.67 2.01 -0.34 1.02 0 0 Z " fill="#2446F9" transform="translate(339,67)"/>
<path d="M0 0 C0.99 0 1.98 0 3 0 C3 0.99 3 1.98 3 3 C3.99 3 4.98 3 6 3 C6 2.01 6 1.02 6 0 C6.99 0.33 7.98 0.66 9 1 C8.67 2.32 8.34 3.64 8 5 C6.02 5 4.04 5 2 5 C2 4.34 2 3.68 2 3 C1.01 2.67 0.02 2.34 -1 2 C-0.67 1.34 -0.34 0.68 0 0 Z " fill="#0424ED" transform="translate(100,352)"/>
<path d="M0 0 C0.66 0 1.32 0 2 0 C1.67 0.99 1.34 1.98 1 3 C-2.3 3.66 -5.6 4.32 -9 5 C-9.33 3.68 -9.66 2.36 -10 1 C-6.7 1.33 -3.4 1.66 0 2 C0 1.34 0 0.68 0 0 Z " fill="#1939F0" transform="translate(138,309)"/>
<path d="M0 0 C1.98 0.99 1.98 0.99 4 2 C4 2.66 4 3.32 4 4 C4.66 4 5.32 4 6 4 C6 4.99 6 5.98 6 7 C5.01 7.33 4.02 7.66 3 8 C3 7.34 3 6.68 3 6 C2.34 6 1.68 6 1 6 C0.67 4.02 0.34 2.04 0 0 Z " fill="#1E3FF2" transform="translate(394,200)"/>
<path d="M0 0 C0.66 0 1.32 0 2 0 C2.33 1.98 2.66 3.96 3 6 C3.66 6 4.32 6 5 6 C5 6.66 5 7.32 5 8 C3.35 7.67 1.7 7.34 0 7 C0 4.69 0 2.38 0 0 Z " fill="#0226EA" transform="translate(392,200)"/>
<path d="M0 0 C0.99 0.33 1.98 0.66 3 1 C3 1.66 3 2.32 3 3 C2.34 3 1.68 3 1 3 C1 3.99 1 4.98 1 6 C1.66 6 2.32 6 3 6 C3 6.66 3 7.32 3 8 C2.01 8.33 1.02 8.66 0 9 C-1 8 -1 8 -1.125 4.5 C-1 1 -1 1 0 0 Z " fill="#072AE5" transform="translate(289,21)"/>
<path d="M0 0 C4.875 1.75 4.875 1.75 6 4 C5.34 4 4.68 4 4 4 C4.2784375 4.928125 4.2784375 4.928125 4.5625 5.875 C5 8 5 8 4 10 C3.34 10 2.68 10 2 10 C1.67 9.01 1.34 8.02 1 7 C1.66 6.01 2.32 5.02 3 4 C2.01 4 1.02 4 0 4 C0 2.68 0 1.36 0 0 Z " fill="#0221EB" transform="translate(0,371)"/>
<path d="M0 0 C1.32 0 2.64 0 4 0 C4.08226668 3.04386724 3.97608217 5.07175348 3 8 C2.01 8 1.02 8 0 8 C-0.33 8.66 -0.66 9.32 -1 10 C-1 9.01 -1 8.02 -1 7 C-0.34 7 0.32 7 1 7 C0.67 4.69 0.34 2.38 0 0 Z " fill="#0424E2" transform="translate(225,354)"/>
<path d="M0 0 C1.65 0 3.3 0 5 0 C6 3 6 3 5 6 C4.01 5.67 3.02 5.34 2 5 C2 4.34 2 3.68 2 3 C1.01 2.67 0.02 2.34 -1 2 C-0.67 1.34 -0.34 0.68 0 0 Z " fill="#1336FB" transform="translate(164,332)"/>
<path d="M0 0 C1.98 0.495 1.98 0.495 4 1 C4 1.99 4 2.98 4 4 C3.01 4 2.02 4 1 4 C1 4.66 1 5.32 1 6 C1.66 6.33 2.32 6.66 3 7 C2.01 7.33 1.02 7.66 0 8 C-1.125 2.25 -1.125 2.25 0 0 Z " fill="#2949F1" transform="translate(316,341)"/>
<path d="M0 0 C0.99 0 1.98 0 3 0 C3 2.64 3 5.28 3 8 C2.01 7.67 1.02 7.34 0 7 C0 4.69 0 2.38 0 0 Z " fill="#294AE4" transform="translate(397,329)"/>
<path d="M0 0 C0.99 0.33 1.98 0.66 3 1 C3 2.98 3 4.96 3 7 C1.68 7.33 0.36 7.66 -1 8 C-1 7.01 -1 6.02 -1 5 C-0.34 5 0.32 5 1 5 C1 4.34 1 3.68 1 3 C0.34 3 -0.32 3 -1 3 C-0.67 2.01 -0.34 1.02 0 0 Z " fill="#0728E7" transform="translate(81,52)"/>
<path d="M0 0 C0.66 0.33 1.32 0.66 2 1 C1.67 1.66 1.34 2.32 1 3 C1.66 3.33 2.32 3.66 3 4 C1.02 4.99 -0.96 5.98 -3 7 C-3.33 5.02 -3.66 3.04 -4 1 C-2.68 1.33 -1.36 1.66 0 2 C0 1.34 0 0.68 0 0 Z " fill="#1436FA" transform="translate(29,330)"/>
<path d="M0 0 C1.65 0.33 3.3 0.66 5 1 C4.34 2.32 3.68 3.64 3 5 C1.68 4.67 0.36 4.34 -1 4 C-0.67 2.68 -0.34 1.36 0 0 Z " fill="#1D41F3" transform="translate(74,304)"/>
<path d="M0 0 C0.33 0.66 0.66 1.32 1 2 C1.66 2 2.32 2 3 2 C3 1.34 3 0.68 3 0 C3.99 0 4.98 0 6 0 C6.33 0.99 6.66 1.98 7 3 C5.02 3.66 3.04 4.32 1 5 C0.67 3.35 0.34 1.7 0 0 Z " fill="#2346F6" transform="translate(331,286)"/>
<path d="M0 0 C1.32 0 2.64 0 4 0 C4.33 1.98 4.66 3.96 5 6 C4.67 5.34 4.34 4.68 4 4 C3.071875 4.309375 3.071875 4.309375 2.125 4.625 C1.42375 4.74875 0.7225 4.8725 0 5 C-0.66 4.34 -1.32 3.68 -2 3 C-1.34 3 -0.68 3 0 3 C0 2.01 0 1.02 0 0 Z " fill="#0A29ED" transform="translate(75,240)"/>
<path d="M0 0 C1.65 0 3.3 0 5 0 C5.66 1.65 6.32 3.3 7 5 C6.01 5.495 6.01 5.495 5 6 C4.67 4.35 4.34 2.7 4 1 C3.34 1 2.68 1 2 1 C2 1.99 2 2.98 2 4 C1.01 4 0.02 4 -1 4 C-0.67 2.68 -0.34 1.36 0 0 Z " fill="#0628EA" transform="translate(65,134)"/>
<path d="M0 0 C0.66 0.33 1.32 0.66 2 1 C2 1.66 2 2.32 2 3 C2.99 3 3.98 3 5 3 C5 3.66 5 4.32 5 5 C3 6 3 6 0 7 C-0.33 7.99 -0.66 8.98 -1 10 C-1 8.68 -1 7.36 -1 6 C-0.34 6 0.32 6 1 6 C0.649375 5.38125 0.29875 4.7625 -0.0625 4.125 C-0.371875 3.42375 -0.68125 2.7225 -1 2 C-0.67 1.34 -0.34 0.68 0 0 Z " fill="#0324ED" transform="translate(338,96)"/>
<path d="M0 0 C3.82097239 0.53069061 6.06171403 1.49701566 9 4 C8.67 4.66 8.34 5.32 8 6 C5.525 5.01 5.525 5.01 3 4 C3 3.34 3 2.68 3 2 C2.01 2 1.02 2 0 2 C0 1.34 0 0.68 0 0 Z M4 5 C4.66 5 5.32 5 6 5 C5.67 5.66 5.34 6.32 5 7 C4.67 6.34 4.34 5.68 4 5 Z " fill="#0123EE" transform="translate(368,16)"/>
<path d="M0 0 C2.475 0.495 2.475 0.495 5 1 C4.01 1.495 4.01 1.495 3 2 C3 3.32 3 4.64 3 6 C2.34 6 1.68 6 1 6 C0.67 6.99 0.34 7.98 0 9 C0 6.03 0 3.06 0 0 Z " fill="#2446F4" transform="translate(223,355)"/>
<path d="M0 0 C3.51716303 3.51716303 3.54676163 5.19567333 4 10 C3.01 9.67 2.02 9.34 1 9 C0.67 6.03 0.34 3.06 0 0 Z " fill="#0325ED" transform="translate(393,323)"/>
<path d="M0 0 C0.99 0.33 1.98 0.66 3 1 C3 2.98 3 4.96 3 7 C1.68 6.34 0.36 5.68 -1 5 C-0.67 3.35 -0.34 1.7 0 0 Z " fill="#274BEF" transform="translate(124,323)"/>
<path d="M0 0 C1.65 0 3.3 0 5 0 C5 1.32 5 2.64 5 4 C3.02 4.33 1.04 4.66 -1 5 C-0.67 3.35 -0.34 1.7 0 0 Z " fill="#0E2FFA" transform="translate(68,268)"/>
<path d="M0 0 C0 0.99 0 1.98 0 3 C-1.65 3.33 -3.3 3.66 -5 4 C-5.33 2.68 -5.66 1.36 -6 0 C-3.50907189 -1.24546405 -2.58919267 -0.7767578 0 0 Z " fill="#254BEF" transform="translate(10,195)"/>
<path d="M0 0 C0.99 0 1.98 0 3 0 C3.33 0.99 3.66 1.98 4 3 C4.66 3.33 5.32 3.66 6 4 C6 4.66 6 5.32 6 6 C4.35 5.67 2.7 5.34 1 5 C1 4.34 1 3.68 1 3 C0.34 2.67 -0.32 2.34 -1 2 C-0.67 1.34 -0.34 0.68 0 0 Z " fill="#1A3FF9" transform="translate(18,89)"/>
<path d="M0 0 C0.33 0.99 0.66 1.98 1 3 C-1.475 4.485 -1.475 4.485 -4 6 C-4.99 4.68 -5.98 3.36 -7 2 C-4.92446352 1.4465236 -3.15634036 1 -1 1 C-0.67 0.67 -0.34 0.34 0 0 Z " fill="#183BFB" transform="translate(295,81)"/>
<path d="M0 0 C2.475 0.495 2.475 0.495 5 1 C4.67 2.32 4.34 3.64 4 5 C3.01 5 2.02 5 1 5 C0.67 3.35 0.34 1.7 0 0 Z " fill="#1C41EE" transform="translate(271,354)"/>
<path d="M0 0 C0.66 0.33 1.32 0.66 2 1 C2 2.98 2 4.96 2 7 C0.68 6.34 -0.64 5.68 -2 5 C-2 4.01 -2 3.02 -2 2 C-1.34 2 -0.68 2 0 2 C0 1.34 0 0.68 0 0 Z " fill="#0225EC" transform="translate(334,289)"/>
<path d="M0 0 C0.99 0.33 1.98 0.66 3 1 C3.6875 3.0625 3.6875 3.0625 4 5 C2.68 4.67 1.36 4.34 0 4 C0 4.66 0 5.32 0 6 C-0.66 6 -1.32 6 -2 6 C-1.49396008 3.83125748 -1.00016187 2.00032373 0 0 Z " fill="#0626E6" transform="translate(334,282)"/>
<path d="M0 0 C0.12375 0.639375 0.2475 1.27875 0.375 1.9375 C0.684375 2.9584375 0.684375 2.9584375 1 4 C1.66 4.33 2.32 4.66 3 5 C0.69 5 -1.62 5 -4 5 C-4.33 4.34 -4.66 3.68 -5 3 C-4.34 2.34 -3.68 1.68 -3 1 C-3 1.66 -3 2.32 -3 3 C-2.34 3 -1.68 3 -1 3 C-0.67 2.01 -0.34 1.02 0 0 Z " fill="#0326EC" transform="translate(54,187)"/>
<path d="M0 0 C1.98 0.495 1.98 0.495 4 1 C4 2.65 4 4.3 4 6 C3.01 6 2.02 6 1 6 C1 5.34 1 4.68 1 4 C0.34 3.67 -0.32 3.34 -1 3 C-0.67 2.01 -0.34 1.02 0 0 Z " fill="#1135F7" transform="translate(354,155)"/>
<path d="M0 0 C0.66 0 1.32 0 2 0 C3.625 2 3.625 2 5 4 C4.67 4.66 4.34 5.32 4 6 C1.03 5.505 1.03 5.505 -2 5 C-1.34 4.67 -0.68 4.34 0 4 C0 2.68 0 1.36 0 0 Z " fill="#0524EA" transform="translate(363,32)"/>
<path d="M0 0 C0.66 0.33 1.32 0.66 2 1 C2 2.32 2 3.64 2 5 C-0.31 5 -2.62 5 -5 5 C-4.67 3.68 -4.34 2.36 -4 1 C-4 1.99 -4 2.98 -4 4 C-3.01 4 -2.02 4 -1 4 C-0.67 2.68 -0.34 1.36 0 0 Z " fill="#0527E3" transform="translate(216,11)"/>
<path d="M0 0 C0.99 0 1.98 0 3 0 C2.49396008 2.16874252 2.00016187 3.99967627 1 6 C0.01 5.67 -0.98 5.34 -2 5 C-1.34 3.35 -0.68 1.7 0 0 Z " fill="#1A3CF6" transform="translate(44,367)"/>
<path d="M0 0 C3.3 0 6.6 0 10 0 C10 0.66 10 1.32 10 2 C5.94568308 3.15837626 3.78187881 2.83691257 0 1 C0 0.67 0 0.34 0 0 Z " fill="#0B27BD" transform="translate(128,309)"/>
<path d="M0 0 C1.32 0 2.64 0 4 0 C4 0.66 4 1.32 4 2 C3.01 2.495 3.01 2.495 2 3 C1.34786708 5.02463255 1.34786708 5.02463255 1 7 C0.34 7 -0.32 7 -1 7 C-0.67 4.69 -0.34 2.38 0 0 Z " fill="#2244FB" transform="translate(295,290)"/>
<path d="M0 0 C1.32 0 2.64 0 4 0 C4 2.31 4 4.62 4 7 C3.01 7 2.02 7 1 7 C1.020625 6.21625 1.04125 5.4325 1.0625 4.625 C1.18684063 2.01885039 1.18684063 2.01885039 0 0 Z " fill="#2046F4" transform="translate(62,201)"/>
<path d="M0 0 C1.67542976 0.28604898 3.34385343 0.61781233 5 1 C4.67 1.66 4.34 2.32 4 3 C3.01 2.67 2.02 2.34 1 2 C1 2.99 1 3.98 1 5 C1.99 5.33 2.98 5.66 4 6 C2.68 6 1.36 6 0 6 C-0.38218767 4.34385343 -0.71395102 2.67542976 -1 1 C-0.67 0.67 -0.34 0.34 0 0 Z " fill="#0324E1" transform="translate(38,197)"/>
<path d="M0 0 C1.65 0.33 3.3 0.66 5 1 C5 2.32 5 3.64 5 5 C3.02 5 1.04 5 -1 5 C-0.67 3.35 -0.34 1.7 0 0 Z " fill="#0123EE" transform="translate(385,146)"/>
<path d="M0 0 C0 0.66 0 1.32 0 2 C-0.66 2 -1.32 2 -2 2 C-2.33 2.99 -2.66 3.98 -3 5 C-3.99 5 -4.98 5 -6 5 C-5.625 3.0625 -5.625 3.0625 -5 1 C-3 0 -3 0 0 0 Z " fill="#1535EE" transform="translate(96,76)"/>
<path d="M0 0 C-0.33 1.98 -0.66 3.96 -1 6 C-1.99 5.67 -2.98 5.34 -4 5 C-4 3.68 -4 2.36 -4 1 C-2 0 -2 0 0 0 Z " fill="#3E5AEA" transform="translate(132,14)"/>
<path d="M0 0 C0.33 0.66 0.66 1.32 1 2 C0.01 3.485 0.01 3.485 -1 5 C-1.99 4.67 -2.98 4.34 -4 4 C-4.99 4.33 -5.98 4.66 -7 5 C-7 4.01 -7 3.02 -7 2 C-4.69 1.34 -2.38 0.68 0 0 Z " fill="#163AFC" transform="translate(94,8)"/>
<path d="M0 0 C0.66 0.33 1.32 0.66 2 1 C3 4 3 4 3 7 C2.34 7 1.68 7 1 7 C1 6.34 1 5.68 1 5 C0.34 4.67 -0.32 4.34 -1 4 C-1 1 -1 1 0 0 Z " fill="#183BFB" transform="translate(156,385)"/>
<path d="M0 0 C0.33 0.99 0.66 1.98 1 3 C0.67 3.66 0.34 4.32 0 5 C-0.99 5.33 -1.98 5.66 -3 6 C-3.66 5.34 -4.32 4.68 -5 4 C-3.35 2.68 -1.7 1.36 0 0 Z " fill="#0224EC" transform="translate(310,355)"/>
<path d="M0 0 C0.99 0.66 1.98 1.32 3 2 C2.34 2 1.68 2 1 2 C0.67 3.32 0.34 4.64 0 6 C-0.33 5.01 -0.66 4.02 -1 3 C-3.01508358 2.26676204 -3.01508358 2.26676204 -5 2 C-4.01 1.67 -3.02 1.34 -2 1 C-1.34 0.67 -0.68 0.34 0 0 Z " fill="#0025EC" transform="translate(62,202)"/>
<path d="M0 0 C0.66 0.33 1.32 0.66 2 1 C1.67 2.32 1.34 3.64 1 5 C-0.32 4.67 -1.64 4.34 -3 4 C-3 3.01 -3 2.02 -3 1 C-2.01 0.67 -1.02 0.34 0 0 Z " fill="#1A3CF8" transform="translate(157,49)"/>
<path d="M0 0 C0.99 0 1.98 0 3 0 C3 1.65 3 3.3 3 5 C1.68 5 0.36 5 -1 5 C-0.67 3.35 -0.34 1.7 0 0 Z " fill="#3257EA" transform="translate(110,37)"/>
<path d="M0 0 C1.32 0.33 2.64 0.66 4 1 C3.67 1.66 3.34 2.32 3 3 C0.4375 3.625 0.4375 3.625 -2 4 C-1.34 2.68 -0.68 1.36 0 0 Z " fill="#0C32F9" transform="translate(124,396)"/>
<path d="M0 0 C0.99 0 1.98 0 3 0 C2.625 2.9375 2.625 2.9375 2 6 C1.01 6.495 1.01 6.495 0 7 C0 4.69 0 2.38 0 0 Z " fill="#0A2BF5" transform="translate(306,187)"/>
<path d="M0 0 C2.97 0.495 2.97 0.495 6 1 C6 1.99 6 2.98 6 4 C4.35 4 2.7 4 1 4 C0.67 2.68 0.34 1.36 0 0 Z " fill="#2644F5" transform="translate(362,140)"/>
<path d="M0 0 C0.66 0 1.32 0 2 0 C2.1875 2.375 2.1875 2.375 2 5 C1.01 5.66 0.02 6.32 -1 7 C-1.04254356 5.00045254 -1.04080783 2.99958364 -1 1 C-0.67 0.67 -0.34 0.34 0 0 Z " fill="#0528EE" transform="translate(93,120)"/>
<path d="M0 0 C2.475 0.495 2.475 0.495 5 1 C4.67 2.65 4.34 4.3 4 6 C3.01 5.67 2.02 5.34 1 5 C1.33 4.01 1.66 3.02 2 2 C1.34 2 0.68 2 0 2 C0 1.34 0 0.68 0 0 Z " fill="#1C3EF8" transform="translate(305,25)"/>
</svg>
