<?xml version="1.0" encoding="UTF-8"?>
<!DOCTYPE svg PUBLIC "-//W3C//DTD SVG 1.1//EN" "http://www.w3.org/Graphics/SVG/1.1/DTD/svg11.dtd">
<svg xmlns="http://www.w3.org/2000/svg" version="1.1" width="400px" height="400px" style="shape-rendering:geometricPrecision; text-rendering:geometricPrecision; image-rendering:optimizeQuality; fill-rule:evenodd; clip-rule:evenodd" xmlns:xlink="http://www.w3.org/1999/xlink">
<g><path style="opacity:1" fill="#000000" d="M -0.5,-0.5 C 132.833,-0.5 266.167,-0.5 399.5,-0.5C 399.5,132.833 399.5,266.167 399.5,399.5C 266.167,399.5 132.833,399.5 -0.5,399.5C -0.5,266.167 -0.5,132.833 -0.5,-0.5 Z"/></g>
<g><path style="opacity:1" fill="#91908f" d="M 127.5,78.5 C 178.193,78.0372 228.859,78.5372 279.5,80C 302.772,87.5982 316.272,103.432 320,127.5C 320.667,175.5 320.667,223.5 320,271.5C 315.962,299.205 300.129,315.372 272.5,320C 223.833,320.667 175.167,320.667 126.5,320C 98.8887,315.389 83.0554,299.222 79,271.5C 78.0372,220.808 78.3705,170.142 80,119.5C 85.3727,102.247 96.206,89.7468 112.5,82C 117.545,80.4253 122.545,79.2587 127.5,78.5 Z"/></g>
<g><path style="opacity:1" fill="#e9e5e4" d="M 123.5,81.5 C 174.168,81.3333 224.834,81.5 275.5,82C 300.359,88.227 314.192,104.06 317,129.5C 317.667,176.167 317.667,222.833 317,269.5C 313.892,296.882 298.725,312.716 271.5,317C 223.5,317.667 175.5,317.667 127.5,317C 100.275,312.716 85.1082,296.882 82,269.5C 81.3333,222.5 81.3333,175.5 82,128.5C 85.2127,103.382 99.0461,87.7156 123.5,81.5 Z"/></g>
<g><path style="opacity:1" fill="#010101" d="M 288.5,177.5 C 287.848,189.429 284.682,200.762 279,211.5C 268.209,224.985 254.376,229.485 237.5,225C 224.34,220.754 212.34,214.421 201.5,206C 188.626,192.893 173.292,183.893 155.5,179C 135.194,177.288 121.694,186.122 115,205.5C 114.333,208.167 113.667,210.833 113,213.5C 112.5,199.837 112.333,186.171 112.5,172.5C 117.855,135.354 138.189,123.521 173.5,137C 179.96,140.064 186.293,143.397 192.5,147C 205.99,156.491 219.99,165.157 234.5,173C 270.901,188.281 288.734,176.115 288,136.5C 288.5,150.163 288.667,163.829 288.5,177.5 Z"/></g>
<g><path style="opacity:1" fill="#353534" d="M 112.5,172.5 C 112.333,186.171 112.5,199.837 113,213.5C 113.667,210.833 114.333,208.167 115,205.5C 121.694,186.122 135.194,177.288 155.5,179C 173.292,183.893 188.626,192.893 201.5,206C 212.34,214.421 224.34,220.754 237.5,225C 254.376,229.485 268.209,224.985 279,211.5C 284.682,200.762 287.848,189.429 288.5,177.5C 288.5,184.833 288.5,192.167 288.5,199.5C 287.52,210.962 284.353,221.962 279,232.5C 269.738,244.588 257.572,249.422 242.5,247C 230.16,244.161 218.826,239.161 208.5,232C 198.068,222.899 187.068,214.565 175.5,207C 141.421,190.54 120.087,200.707 111.5,237.5C 111.169,215.66 111.503,193.994 112.5,172.5 Z"/></g>
<g><path style="opacity:1" fill="#9d9a99" d="M 288.5,199.5 C 290.585,218.487 286.419,235.821 276,251.5C 265.978,262.032 253.811,265.532 239.5,262C 228.059,258.612 217.392,253.612 207.5,247C 197.976,239.082 188.31,231.415 178.5,224C 141.526,205.737 119.359,216.904 112,257.5C 111.5,250.842 111.334,244.175 111.5,237.5C 120.087,200.707 141.421,190.54 175.5,207C 187.068,214.565 198.068,222.899 208.5,232C 218.826,239.161 230.16,244.161 242.5,247C 257.572,249.422 269.738,244.588 279,232.5C 284.353,221.962 287.52,210.962 288.5,199.5 Z"/></g>
</svg>
