<?xml version="1.0" encoding="UTF-8"?>
<!DOCTYPE svg PUBLIC "-//W3C//DTD SVG 1.1//EN" "http://www.w3.org/Graphics/SVG/1.1/DTD/svg11.dtd">
<svg xmlns="http://www.w3.org/2000/svg" version="1.1" width="400px" height="400px" style="shape-rendering:geometricPrecision; text-rendering:geometricPrecision; image-rendering:optimizeQuality; fill-rule:evenodd; clip-rule:evenodd" xmlns:xlink="http://www.w3.org/1999/xlink">
<g><path style="opacity:1" fill="#232728" d="M -0.5,-0.5 C 132.833,-0.5 266.167,-0.5 399.5,-0.5C 399.5,4.83333 399.5,10.1667 399.5,15.5C 383.5,15.5 367.5,15.5 351.5,15.5C 351.5,17.1667 351.5,18.8333 351.5,20.5C 367.5,20.5 383.5,20.5 399.5,20.5C 399.5,68.8333 399.5,117.167 399.5,165.5C 394.167,165.5 388.833,165.5 383.5,165.5C 383.5,163.5 383.5,161.5 383.5,159.5C 382.5,159.5 381.5,159.5 380.5,159.5C 380.664,162.187 380.497,164.854 380,167.5C 371.572,174.2 372.739,176.866 383.5,175.5C 383.5,177.833 383.5,180.167 383.5,182.5C 388.833,182.5 394.167,182.5 399.5,182.5C 399.5,206.833 399.5,231.167 399.5,255.5C 395.407,255.478 391.407,254.811 387.5,253.5C 380.934,255.154 374.267,255.821 367.5,255.5C 367.5,258.167 367.5,260.833 367.5,263.5C 366.5,263.5 365.5,263.5 364.5,263.5C 364.5,260.833 364.5,258.167 364.5,255.5C 362.833,255.5 361.167,255.5 359.5,255.5C 359.416,260.467 358.082,260.8 355.5,256.5C 356.407,253.579 356.74,250.579 356.5,247.5C 353.167,247.5 349.833,247.5 346.5,247.5C 345.991,258.147 345.158,258.147 344,247.5C 343.502,250.817 343.335,254.15 343.5,257.5C 348.049,256.925 351.882,258.258 355,261.5C 355.617,262.449 355.451,263.282 354.5,264C 348.389,264.353 342.055,264.52 335.5,264.5C 335.662,262.473 335.495,260.473 335,258.5C 328.952,256.772 329.118,255.772 335.5,255.5C 335.426,234.322 335.426,212.989 335.5,191.5C 334.022,191.238 332.689,191.571 331.5,192.5C 333.117,194.632 333.617,196.965 333,199.5C 331.252,202.291 329.419,204.958 327.5,207.5C 327.662,205.473 327.495,203.473 327,201.5C 326.583,200.244 325.75,199.577 324.5,199.5C 324.167,199.5 323.833,199.5 323.5,199.5C 324.833,198.833 326.167,198.167 327.5,197.5C 328.275,195.612 328.275,193.612 327.5,191.5C 318.833,191.5 310.167,191.5 301.5,191.5C 301.784,185.583 301.117,179.916 299.5,174.5C 299.158,173.662 298.492,173.328 297.5,173.5C 296.737,172.732 295.737,172.232 294.5,172C 289.177,171.501 283.844,171.334 278.5,171.5C 278.357,169.738 278.691,168.071 279.5,166.5C 281.684,167.108 283.684,166.441 285.5,164.5C 284.252,162.31 282.586,161.977 280.5,163.5C 279.14,162.82 277.807,162.153 276.5,161.5C 276.197,149.628 276.531,137.795 277.5,126C 277.06,122.391 275.06,120.891 271.5,121.5C 265.907,121.807 260.407,121.473 255,120.5C 251.45,121.592 247.783,122.259 244,122.5C 212.94,121.864 181.94,121.197 151,120.5C 142.578,121.318 134.078,121.818 125.5,122C 123.667,122.5 122.5,123.667 122,125.5C 121.789,131.218 121.289,136.885 120.5,142.5C 122.949,144.626 122.616,146.292 119.5,147.5C 115.5,147.5 111.5,147.5 107.5,147.5C 103.628,146.44 99.6276,146.607 95.5,148C 96.1667,148.333 96.8333,148.667 97.5,149C 95.8446,150.444 95.178,152.278 95.5,154.5C 92.2084,154.12 89.8751,155.453 88.5,158.5C 90.7427,159.474 93.076,159.808 95.5,159.5C 96.1611,181.406 96.1611,202.739 95.5,223.5C 95.2043,233.928 95.8709,244.262 97.5,254.5C 95.7077,259.745 94.8744,265.412 95,271.5C 92.9779,266.367 92.1446,261.033 92.5,255.5C 91.1667,255.5 89.8333,255.5 88.5,255.5C 88.3877,262.18 88.0543,268.847 87.5,275.5C 90.1667,275.5 92.8333,275.5 95.5,275.5C 95.3921,280.87 95.7255,286.203 96.5,291.5C 96.4431,292.609 96.1098,293.609 95.5,294.5C 94.791,295.404 93.791,295.737 92.5,295.5C 92.5,292.833 92.5,290.167 92.5,287.5C 90.8333,287.5 89.1667,287.5 87.5,287.5C 87.5,286.167 87.5,284.833 87.5,283.5C 84.8333,283.5 82.1667,283.5 79.5,283.5C 79.5,286.167 79.5,288.833 79.5,291.5C 82.1667,291.5 84.8333,291.5 87.5,291.5C 87.5,294.5 87.5,297.5 87.5,300.5C 90.7107,300.988 93.544,300.321 96,298.5C 96.3826,299.056 96.8826,299.389 97.5,299.5C 97.762,300.978 97.4287,302.311 96.5,303.5C 90.8803,302.738 85.2136,302.738 79.5,303.5C 79.5,306.5 79.5,309.5 79.5,312.5C 63.1449,312.028 46.9782,311.695 31,311.5C 30.1445,322.107 28.9778,322.107 27.5,311.5C 26.0222,322.107 24.8555,322.107 24,311.5C 23.5026,314.146 23.3359,316.813 23.5,319.5C 18.1667,319.5 12.8333,319.5 7.5,319.5C 7.5,316.833 7.5,314.167 7.5,311.5C 4.83333,311.5 2.16667,311.5 -0.5,311.5C -0.5,207.5 -0.5,103.5 -0.5,-0.5 Z"/></g>
<g><path style="opacity:1" fill="#222924" d="M 399.5,15.5 C 399.5,17.1667 399.5,18.8333 399.5,20.5C 383.5,20.5 367.5,20.5 351.5,20.5C 351.5,18.8333 351.5,17.1667 351.5,15.5C 367.5,15.5 383.5,15.5 399.5,15.5 Z"/></g>
<g><path style="opacity:1" fill="#25222e" d="M 271.5,121.5 C 264.345,122.329 257.011,122.829 249.5,123C 207.833,123.333 166.167,123.667 124.5,124C 123.788,132.135 123.122,140.301 122.5,148.5C 121.209,148.737 120.209,148.404 119.5,147.5C 122.616,146.292 122.949,144.626 120.5,142.5C 121.289,136.885 121.789,131.218 122,125.5C 122.5,123.667 123.667,122.5 125.5,122C 134.078,121.818 142.578,121.318 151,120.5C 181.94,121.197 212.94,121.864 244,122.5C 247.783,122.259 251.45,121.592 255,120.5C 260.407,121.473 265.907,121.807 271.5,121.5 Z"/></g>
<g><path style="opacity:1" fill="#2f243d" d="M 271.5,121.5 C 275.06,120.891 277.06,122.391 277.5,126C 276.531,137.795 276.197,149.628 276.5,161.5C 277.45,165.458 277.45,169.458 276.5,173.5C 283.5,173.5 290.5,173.5 297.5,173.5C 298.492,173.328 299.158,173.662 299.5,174.5C 291.5,174.5 283.5,174.5 275.5,174.5C 274.515,157.911 274.182,141.244 274.5,124.5C 266.167,124.5 257.833,124.5 249.5,124.5C 215.833,124.5 182.167,124.5 148.5,124.5C 141.5,124.5 134.5,124.5 127.5,124.5C 127.5,125.5 127.5,126.5 127.5,127.5C 126.5,127.5 125.5,127.5 124.5,127.5C 124.5,134.167 124.5,140.833 124.5,147.5C 123.833,147.833 123.167,148.167 122.5,148.5C 123.122,140.301 123.788,132.135 124.5,124C 166.167,123.667 207.833,123.333 249.5,123C 257.011,122.829 264.345,122.329 271.5,121.5 Z"/></g>
<g><path style="opacity:1" fill="#3d2f55" d="M 148.5,124.5 C 182.167,124.5 215.833,124.5 249.5,124.5C 249.5,124.833 249.5,125.167 249.5,125.5C 221.984,125.263 194.651,125.93 167.5,127.5C 161.5,127.5 155.5,127.5 149.5,127.5C 149.443,126.391 149.11,125.391 148.5,124.5 Z"/></g>
<g><path style="opacity:1" fill="#402f5a" d="M 249.5,125.5 C 249.5,125.833 249.5,126.167 249.5,126.5C 249.167,126.5 248.833,126.5 248.5,126.5C 221.514,127.416 194.514,127.75 167.5,127.5C 194.651,125.93 221.984,125.263 249.5,125.5 Z"/></g>
<g><path style="opacity:1" fill="#2b214a" d="M 148.5,124.5 C 149.11,125.391 149.443,126.391 149.5,127.5C 142.167,127.5 134.833,127.5 127.5,127.5C 127.5,126.5 127.5,125.5 127.5,124.5C 134.5,124.5 141.5,124.5 148.5,124.5 Z"/></g>
<g><path style="opacity:1" fill="#2e1f53" d="M 127.5,127.5 C 134.833,127.5 142.167,127.5 149.5,127.5C 149.5,134.833 149.5,142.167 149.5,149.5C 141.192,149.556 133.192,149.556 125.5,149.5C 126.289,148.085 126.956,146.585 127.5,145C 127.318,139.275 127.318,133.442 127.5,127.5 Z"/></g>
<g><path style="opacity:1" fill="#402c64" d="M 248.5,126.5 C 246.757,127.641 245.757,129.308 245.5,131.5C 246.438,138.141 246.438,144.808 245.5,151.5C 245.89,158.175 246.39,164.842 247,171.5C 247.671,172.252 248.504,172.586 249.5,172.5C 249.5,173.167 249.5,173.833 249.5,174.5C 249.5,182.5 249.5,190.5 249.5,198.5C 248.691,196.708 248.191,194.708 248,192.5C 232.897,193.823 217.73,193.823 202.5,192.5C 201.546,186.896 201.212,181.229 201.5,175.5C 203.226,175.185 204.893,175.019 206.5,175C 205.194,180.446 205.194,185.946 206.5,191.5C 207.833,182.833 207.833,174.167 206.5,165.5C 202.359,168.546 197.359,170.713 191.5,172C 178.133,172.832 164.799,172.499 151.5,171C 148.99,169.641 146.824,168.474 145,167.5C 144.691,168.766 144.191,169.933 143.5,171C 144.071,172.205 144.738,173.372 145.5,174.5C 145.895,180.591 146.895,186.425 148.5,192C 141.524,192.892 134.524,193.392 127.5,193.5C 127.5,194.833 127.5,196.167 127.5,197.5C 126.5,197.5 125.5,197.5 124.5,197.5C 124.5,181.5 124.5,165.5 124.5,149.5C 124.833,149.5 125.167,149.5 125.5,149.5C 133.192,149.556 141.192,149.556 149.5,149.5C 149.5,142.167 149.5,134.833 149.5,127.5C 155.5,127.5 161.5,127.5 167.5,127.5C 194.514,127.75 221.514,127.416 248.5,126.5 Z"/></g>
<g><path style="opacity:1" fill="#462966" d="M 248.5,126.5 C 248.833,126.5 249.167,126.5 249.5,126.5C 249.5,141.833 249.5,157.167 249.5,172.5C 248.504,172.586 247.671,172.252 247,171.5C 246.39,164.842 245.89,158.175 245.5,151.5C 246.438,144.808 246.438,138.141 245.5,131.5C 245.757,129.308 246.757,127.641 248.5,126.5 Z"/></g>
<g><path style="opacity:1" fill="#2a2149" d="M 127.5,127.5 C 127.318,133.442 127.318,139.275 127.5,145C 126.956,146.585 126.289,148.085 125.5,149.5C 125.167,149.5 124.833,149.5 124.5,149.5C 124.5,148.833 124.5,148.167 124.5,147.5C 124.5,140.833 124.5,134.167 124.5,127.5C 125.5,127.5 126.5,127.5 127.5,127.5 Z"/></g>
<g><path style="opacity:1" fill="#2f224f" d="M 122.5,152.5 C 121.852,154.086 121.352,155.753 121,157.5C 119.267,151.845 116.434,150.845 112.5,154.5C 113.167,155.833 113.833,157.167 114.5,158.5C 113.675,159.386 112.675,159.719 111.5,159.5C 111.5,157.5 111.5,155.5 111.5,153.5C 108.881,153.232 106.381,153.565 104,154.5C 104.106,167.471 103.273,180.304 101.5,193C 102.233,194.766 102.567,196.599 102.5,198.5C 109.833,198.5 117.167,198.5 124.5,198.5C 124.5,198.833 124.5,199.167 124.5,199.5C 124.167,199.5 123.833,199.5 123.5,199.5C 116.167,199.5 108.833,199.5 101.5,199.5C 100.386,185.532 100.219,171.532 101,157.5C 101.792,155.413 102.959,153.579 104.5,152C 108.019,151.623 111.519,151.123 115,150.5C 117.472,151.322 119.972,151.989 122.5,152.5 Z"/></g>
<g><path style="opacity:1" fill="#6b4c7d" d="M 249.5,125.5 C 249.5,125.167 249.5,124.833 249.5,124.5C 257.833,124.5 266.167,124.5 274.5,124.5C 274.182,141.244 274.515,157.911 275.5,174.5C 274.833,174.5 274.167,174.5 273.5,174.5C 273.833,158.819 273.499,143.152 272.5,127.5C 265.04,125.58 257.373,124.913 249.5,125.5 Z"/></g>
<g><path style="opacity:1" fill="#2a2242" d="M 124.5,147.5 C 124.5,148.167 124.5,148.833 124.5,149.5C 123.094,149.973 122.427,150.973 122.5,152.5C 119.972,151.989 117.472,151.322 115,150.5C 111.519,151.123 108.019,151.623 104.5,152C 102.959,153.579 101.792,155.413 101,157.5C 100.219,171.532 100.386,185.532 101.5,199.5C 101.167,199.5 100.833,199.5 100.5,199.5C 100.167,199.5 99.8333,199.5 99.5,199.5C 99.0603,183.11 99.5603,166.776 101,150.5C 108.266,149.849 115.432,149.182 122.5,148.5C 123.167,148.167 123.833,147.833 124.5,147.5 Z"/></g>
<g><path style="opacity:1" fill="#2f1f53" d="M 124.5,149.5 C 124.5,165.5 124.5,181.5 124.5,197.5C 124.5,197.833 124.5,198.167 124.5,198.5C 117.167,198.5 109.833,198.5 102.5,198.5C 102.567,196.599 102.233,194.766 101.5,193C 103.273,180.304 104.106,167.471 104,154.5C 106.381,153.565 108.881,153.232 111.5,153.5C 111.5,155.5 111.5,157.5 111.5,159.5C 112.675,159.719 113.675,159.386 114.5,158.5C 113.833,157.167 113.167,155.833 112.5,154.5C 116.434,150.845 119.267,151.845 121,157.5C 121.352,155.753 121.852,154.086 122.5,152.5C 122.427,150.973 123.094,149.973 124.5,149.5 Z"/></g>
<g><path style="opacity:1" fill="#252528" d="M 399.5,165.5 C 399.5,171.167 399.5,176.833 399.5,182.5C 394.167,182.5 388.833,182.5 383.5,182.5C 383.5,180.167 383.5,177.833 383.5,175.5C 372.739,176.866 371.572,174.2 380,167.5C 380.497,164.854 380.664,162.187 380.5,159.5C 381.5,159.5 382.5,159.5 383.5,159.5C 383.5,161.5 383.5,163.5 383.5,165.5C 388.833,165.5 394.167,165.5 399.5,165.5 Z"/></g>
<g><path style="opacity:1" fill="#23232a" d="M 276.5,161.5 C 277.807,162.153 279.14,162.82 280.5,163.5C 282.586,161.977 284.252,162.31 285.5,164.5C 283.684,166.441 281.684,167.108 279.5,166.5C 278.691,168.071 278.357,169.738 278.5,171.5C 283.844,171.334 289.177,171.501 294.5,172C 295.737,172.232 296.737,172.732 297.5,173.5C 290.5,173.5 283.5,173.5 276.5,173.5C 277.45,169.458 277.45,165.458 276.5,161.5 Z"/></g>
<g><path style="opacity:1" fill="#3e3163" d="M 249.5,198.5 C 249.5,198.833 249.5,199.167 249.5,199.5C 232.833,199.5 216.167,199.5 199.5,199.5C 199.5,199.167 199.5,198.833 199.5,198.5C 199.5,190.5 199.5,182.5 199.5,174.5C 182.833,174.5 166.167,174.5 149.5,174.5C 149.5,182.5 149.5,190.5 149.5,198.5C 141.35,199.493 133.017,199.826 124.5,199.5C 124.5,199.167 124.5,198.833 124.5,198.5C 124.5,198.167 124.5,197.833 124.5,197.5C 125.5,197.5 126.5,197.5 127.5,197.5C 127.5,196.167 127.5,194.833 127.5,193.5C 134.524,193.392 141.524,192.892 148.5,192C 146.895,186.425 145.895,180.591 145.5,174.5C 144.738,173.372 144.071,172.205 143.5,171C 144.191,169.933 144.691,168.766 145,167.5C 146.824,168.474 148.99,169.641 151.5,171C 164.799,172.499 178.133,172.832 191.5,172C 197.359,170.713 202.359,168.546 206.5,165.5C 207.833,174.167 207.833,182.833 206.5,191.5C 205.194,185.946 205.194,180.446 206.5,175C 204.893,175.019 203.226,175.185 201.5,175.5C 201.212,181.229 201.546,186.896 202.5,192.5C 217.73,193.823 232.897,193.823 248,192.5C 248.191,194.708 248.691,196.708 249.5,198.5 Z"/></g>
<g><path style="opacity:1" fill="#865b9e" d="M 249.5,125.5 C 257.373,124.913 265.04,125.58 272.5,127.5C 273.499,143.152 273.833,158.819 273.5,174.5C 265.5,174.5 257.5,174.5 249.5,174.5C 249.5,173.833 249.5,173.167 249.5,172.5C 249.5,157.167 249.5,141.833 249.5,126.5C 249.5,126.167 249.5,125.833 249.5,125.5 Z"/></g>
<g><path style="opacity:1" fill="#8d55a8" d="M 251.5,127.5 C 258.202,127.336 264.869,127.669 271.5,128.5C 271.5,143.167 271.5,157.833 271.5,172.5C 265.158,172.666 258.825,172.5 252.5,172C 249.916,168.383 249.916,164.717 252.5,161C 251.532,149.872 251.199,138.706 251.5,127.5 Z"/></g>
<g><path style="opacity:1" fill="#8f7eab" d="M 199.5,198.5 C 199.167,198.5 198.833,198.5 198.5,198.5C 198.5,190.833 198.5,183.167 198.5,175.5C 182.5,175.5 166.5,175.5 150.5,175.5C 150.5,183.167 150.5,190.833 150.5,198.5C 150.167,198.5 149.833,198.5 149.5,198.5C 149.5,190.5 149.5,182.5 149.5,174.5C 166.167,174.5 182.833,174.5 199.5,174.5C 199.5,182.5 199.5,190.5 199.5,198.5 Z"/></g>
<g><path style="opacity:1" fill="#24252a" d="M 107.5,147.5 C 103.923,147.205 100.757,148.205 98,150.5C 97.1807,169.24 97.3474,187.907 98.5,206.5C 97.8826,206.611 97.3826,206.944 97,207.5C 96.8267,213.016 96.3267,218.349 95.5,223.5C 96.1611,202.739 96.1611,181.406 95.5,159.5C 93.076,159.808 90.7427,159.474 88.5,158.5C 89.8751,155.453 92.2084,154.12 95.5,154.5C 95.178,152.278 95.8446,150.444 97.5,149C 96.8333,148.667 96.1667,148.333 95.5,148C 99.6276,146.607 103.628,146.44 107.5,147.5 Z"/></g>
<g><path style="opacity:1" fill="#a38eb8" d="M 249.5,174.5 C 257.5,174.5 265.5,174.5 273.5,174.5C 274.167,174.5 274.833,174.5 275.5,174.5C 275.5,174.833 275.5,175.167 275.5,175.5C 274.417,175.539 273.417,175.873 272.5,176.5C 271.526,178.743 271.192,181.076 271.5,183.5C 266.167,183.167 260.833,182.833 255.5,182.5C 255.5,185.5 255.5,188.5 255.5,191.5C 263.833,191.5 272.167,191.5 280.5,191.5C 280.5,188.5 280.5,185.5 280.5,182.5C 282.833,182.5 285.167,182.5 287.5,182.5C 287.5,185.5 287.5,188.5 287.5,191.5C 288.833,191.5 290.167,191.5 291.5,191.5C 291.665,187.818 291.499,184.152 291,180.5C 290.5,179.333 289.667,178.5 288.5,178C 289.756,177.583 290.423,176.75 290.5,175.5C 292.5,175.5 294.5,175.5 296.5,175.5C 296.02,181.102 296.02,186.769 296.5,192.5C 281.496,192.333 266.496,192.5 251.5,193C 250.594,194.699 250.261,196.533 250.5,198.5C 250.167,198.5 249.833,198.5 249.5,198.5C 249.5,190.5 249.5,182.5 249.5,174.5 Z"/></g>
<g><path style="opacity:1" fill="#a290b7" d="M 198.5,198.5 C 182.5,198.5 166.5,198.5 150.5,198.5C 150.5,190.833 150.5,183.167 150.5,175.5C 166.5,175.5 182.5,175.5 198.5,175.5C 198.5,183.167 198.5,190.833 198.5,198.5 Z"/></g>
<g><path style="opacity:1" fill="#a190b6" d="M 275.5,175.5 C 280.5,175.5 285.5,175.5 290.5,175.5C 290.423,176.75 289.756,177.583 288.5,178C 289.667,178.5 290.5,179.333 291,180.5C 291.499,184.152 291.665,187.818 291.5,191.5C 290.167,191.5 288.833,191.5 287.5,191.5C 287.5,188.5 287.5,185.5 287.5,182.5C 285.167,182.5 282.833,182.5 280.5,182.5C 280.5,185.5 280.5,188.5 280.5,191.5C 272.167,191.5 263.833,191.5 255.5,191.5C 255.5,188.5 255.5,185.5 255.5,182.5C 260.833,182.833 266.167,183.167 271.5,183.5C 271.192,181.076 271.526,178.743 272.5,176.5C 273.417,175.873 274.417,175.539 275.5,175.5 Z"/></g>
<g><path style="opacity:1" fill="#85869e" d="M 275.5,175.5 C 275.5,175.167 275.5,174.833 275.5,174.5C 283.5,174.5 291.5,174.5 299.5,174.5C 299.5,182.5 299.5,190.5 299.5,198.5C 299.5,198.833 299.5,199.167 299.5,199.5C 298.833,199.5 298.167,199.5 297.5,199.5C 281.5,199.5 265.5,199.5 249.5,199.5C 249.5,199.167 249.5,198.833 249.5,198.5C 249.833,198.5 250.167,198.5 250.5,198.5C 266.5,198.5 282.5,198.5 298.5,198.5C 299.132,190.427 298.465,182.76 296.5,175.5C 294.5,175.5 292.5,175.5 290.5,175.5C 285.5,175.5 280.5,175.5 275.5,175.5 Z"/></g>
<g><path style="opacity:1" fill="#28252d" d="M 299.5,174.5 C 301.117,179.916 301.784,185.583 301.5,191.5C 310.167,191.5 318.833,191.5 327.5,191.5C 328.275,193.612 328.275,195.612 327.5,197.5C 324.873,196.908 322.206,196.575 319.5,196.5C 319.5,195.5 319.5,194.5 319.5,193.5C 313.242,193.81 307.076,193.476 301,192.5C 300.809,194.708 300.309,196.708 299.5,198.5C 299.5,190.5 299.5,182.5 299.5,174.5 Z"/></g>
<g><path style="opacity:1" fill="#9f92b5" d="M 296.5,175.5 C 298.465,182.76 299.132,190.427 298.5,198.5C 282.5,198.5 266.5,198.5 250.5,198.5C 250.261,196.533 250.594,194.699 251.5,193C 266.496,192.5 281.496,192.333 296.5,192.5C 296.02,186.769 296.02,181.102 296.5,175.5 Z"/></g>
<g><path style="opacity:1" fill="#1e2a31" d="M 327.5,197.5 C 326.167,198.167 324.833,198.833 323.5,199.5C 315.5,199.5 307.5,199.5 299.5,199.5C 299.5,199.167 299.5,198.833 299.5,198.5C 300.309,196.708 300.809,194.708 301,192.5C 307.076,193.476 313.242,193.81 319.5,193.5C 319.5,194.5 319.5,195.5 319.5,196.5C 322.206,196.575 324.873,196.908 327.5,197.5 Z"/></g>
<g><path style="opacity:1" fill="#7296b3" d="M 149.5,198.5 C 149.833,198.5 150.167,198.5 150.5,198.5C 166.5,198.5 182.5,198.5 198.5,198.5C 198.833,198.5 199.167,198.5 199.5,198.5C 199.5,198.833 199.5,199.167 199.5,199.5C 183.325,199.17 167.325,199.504 151.5,200.5C 150.833,200.5 150.167,200.5 149.5,200.5C 142.167,200.5 134.833,200.5 127.5,200.5C 126.504,200.414 125.671,200.748 125,201.5C 124.5,208.826 124.334,216.159 124.5,223.5C 123.508,216.018 123.175,208.352 123.5,200.5C 123.5,200.167 123.5,199.833 123.5,199.5C 123.833,199.5 124.167,199.5 124.5,199.5C 133.017,199.826 141.35,199.493 149.5,198.5 Z"/></g>
<g><path style="opacity:1" fill="#9b8eac" d="M 99.5,199.5 C 99.8333,199.5 100.167,199.5 100.5,199.5C 101.072,200.973 101.905,202.307 103,203.5C 104.494,202.253 105.994,202.253 107.5,203.5C 106.624,204.251 105.624,204.751 104.5,205C 106.044,205.29 107.377,205.956 108.5,207C 106.527,207.495 104.527,207.662 102.5,207.5C 102.334,217.517 102.667,227.517 103.5,237.5C 102.461,240.864 101.461,244.864 100.5,249.5C 100.167,249.5 99.8333,249.5 99.5,249.5C 99.5,232.833 99.5,216.167 99.5,199.5 Z"/></g>
<g><path style="opacity:1" fill="#428e9a" d="M 151.5,200.5 C 167.325,199.504 183.325,199.17 199.5,199.5C 216.167,199.5 232.833,199.5 249.5,199.5C 265.5,199.5 281.5,199.5 297.5,199.5C 296.737,200.268 295.737,200.768 294.5,201C 277.349,201.014 260.349,201.681 243.5,203C 260.021,203.797 276.521,203.631 293,202.5C 294.607,202.769 295.774,203.603 296.5,205C 273.752,205.198 251.085,205.365 228.5,205.5C 228.5,204.167 228.5,202.833 228.5,201.5C 227.167,201.5 225.833,201.5 224.5,201.5C 216.35,200.507 208.017,200.174 199.5,200.5C 199.167,200.5 198.833,200.5 198.5,200.5C 182.833,200.5 167.167,200.5 151.5,200.5 Z"/></g>
<g><path style="opacity:1" fill="#37929a" d="M 149.5,200.5 C 150.167,200.5 150.833,200.5 151.5,200.5C 167.167,200.5 182.833,200.5 198.5,200.5C 197.753,207.925 197.42,215.591 197.5,223.5C 189.5,223.5 181.5,223.5 173.5,223.5C 173.304,229.099 172.638,234.599 171.5,240C 172.38,241.356 172.714,242.856 172.5,244.5C 171.022,244.238 169.689,244.571 168.5,245.5C 170.655,246.001 172.322,247.001 173.5,248.5C 165.833,248.5 158.167,248.5 150.5,248.5C 150.826,240.316 150.492,232.316 149.5,224.5C 149.5,224.167 149.5,223.833 149.5,223.5C 149.5,215.833 149.5,208.167 149.5,200.5 Z"/></g>
<g><path style="opacity:1" fill="#37939a" d="M 297.5,199.5 C 298.167,199.5 298.833,199.5 299.5,199.5C 307.5,199.5 315.5,199.5 323.5,199.5C 323.833,199.5 324.167,199.5 324.5,199.5C 324.5,216.167 324.5,232.833 324.5,249.5C 316.167,249.5 307.833,249.5 299.5,249.5C 299.167,249.5 298.833,249.5 298.5,249.5C 290.5,249.5 282.5,249.5 274.5,249.5C 274.5,249.167 274.5,248.833 274.5,248.5C 266.471,248.656 258.471,248.323 250.5,247.5C 250.5,245.5 250.5,243.5 250.5,241.5C 251.817,235.322 251.817,228.988 250.5,222.5C 247.212,220.572 243.879,218.739 240.5,217C 239.887,214.853 239.221,212.686 238.5,210.5C 235.023,212.337 235.023,214.504 238.5,217C 236.983,218.685 235.316,220.185 233.5,221.5C 229.424,218.534 226.757,219.534 225.5,224.5C 225.167,224.5 224.833,224.5 224.5,224.5C 224.5,216.833 224.5,209.167 224.5,201.5C 225.833,201.5 227.167,201.5 228.5,201.5C 228.5,202.833 228.5,204.167 228.5,205.5C 251.085,205.365 273.752,205.198 296.5,205C 295.774,203.603 294.607,202.769 293,202.5C 276.521,203.631 260.021,203.797 243.5,203C 260.349,201.681 277.349,201.014 294.5,201C 295.737,200.768 296.737,200.268 297.5,199.5 Z"/></g>
<g><path style="opacity:1" fill="#26222e" d="M 98.5,206.5 C 98.5,237.5 98.5,268.5 98.5,299.5C 98.1667,299.5 97.8333,299.5 97.5,299.5C 97.2041,297.597 96.5375,295.93 95.5,294.5C 96.1098,293.609 96.4431,292.609 96.5,291.5C 96.9453,279.262 97.2786,266.929 97.5,254.5C 95.8709,244.262 95.2043,233.928 95.5,223.5C 96.3267,218.349 96.8267,213.016 97,207.5C 97.3826,206.944 97.8826,206.611 98.5,206.5 Z"/></g>
<g><path style="opacity:1" fill="#a18fb6" d="M 100.5,199.5 C 100.833,199.5 101.167,199.5 101.5,199.5C 108.833,199.5 116.167,199.5 123.5,199.5C 123.5,199.833 123.5,200.167 123.5,200.5C 122.414,200.62 121.747,201.287 121.5,202.5C 122.007,207.427 122.007,212.427 121.5,217.5C 121.667,220.833 121.833,224.167 122,227.5C 122.333,228.167 122.667,228.833 123,229.5C 123.198,227.618 123.698,225.952 124.5,224.5C 124.5,232.833 124.5,241.167 124.5,249.5C 116.5,249.5 108.5,249.5 100.5,249.5C 101.461,244.864 102.461,240.864 103.5,237.5C 102.667,227.517 102.334,217.517 102.5,207.5C 104.527,207.662 106.527,207.495 108.5,207C 107.377,205.956 106.044,205.29 104.5,205C 105.624,204.751 106.624,204.251 107.5,203.5C 105.994,202.253 104.494,202.253 103,203.5C 101.905,202.307 101.072,200.973 100.5,199.5 Z"/></g>
<g><path style="opacity:1" fill="#42b6b6" d="M 199.5,200.5 C 208.017,200.174 216.35,200.507 224.5,201.5C 224.5,209.167 224.5,216.833 224.5,224.5C 223.538,231.412 223.205,238.412 223.5,245.5C 223.5,246.5 223.5,247.5 223.5,248.5C 207.5,248.5 191.5,248.5 175.5,248.5C 174.533,240.586 174.199,232.586 174.5,224.5C 182.833,224.5 191.167,224.5 199.5,224.5C 199.5,216.5 199.5,208.5 199.5,200.5 Z"/></g>
<g><path style="opacity:1" fill="#3c8f9a" d="M 250.5,241.5 C 250.819,236.637 250.486,231.97 249.5,227.5C 249.5,226.167 249.5,224.833 249.5,223.5C 241.414,223.199 233.414,223.533 225.5,224.5C 226.757,219.534 229.424,218.534 233.5,221.5C 235.316,220.185 236.983,218.685 238.5,217C 235.023,214.504 235.023,212.337 238.5,210.5C 239.221,212.686 239.887,214.853 240.5,217C 243.879,218.739 247.212,220.572 250.5,222.5C 251.817,228.988 251.817,235.322 250.5,241.5 Z"/></g>
<g><path style="opacity:1" fill="#4aabc0" d="M 127.5,200.5 C 134.833,200.5 142.167,200.5 149.5,200.5C 149.5,208.167 149.5,215.833 149.5,223.5C 147.5,223.5 145.5,223.5 143.5,223.5C 142.384,221.492 140.551,220.492 138,220.5C 134.588,221.029 131.088,221.029 127.5,220.5C 127.318,213.713 127.318,207.046 127.5,200.5 Z"/></g>
<g><path style="opacity:1" fill="#8b92b5" d="M 123.5,200.5 C 123.175,208.352 123.508,216.018 124.5,223.5C 130.833,223.5 137.167,223.5 143.5,223.5C 145.5,223.5 147.5,223.5 149.5,223.5C 149.5,223.833 149.5,224.167 149.5,224.5C 142.167,224.5 134.833,224.5 127.5,224.5C 126.5,224.5 125.5,224.5 124.5,224.5C 123.698,225.952 123.198,227.618 123,229.5C 122.667,228.833 122.333,228.167 122,227.5C 121.833,224.167 121.667,220.833 121.5,217.5C 122.007,212.427 122.007,207.427 121.5,202.5C 121.747,201.287 122.414,200.62 123.5,200.5 Z"/></g>
<g><path style="opacity:1" fill="#5aa5bf" d="M 127.5,200.5 C 127.318,207.046 127.318,213.713 127.5,220.5C 131.088,221.029 134.588,221.029 138,220.5C 140.551,220.492 142.384,221.492 143.5,223.5C 137.167,223.5 130.833,223.5 124.5,223.5C 124.334,216.159 124.5,208.826 125,201.5C 125.671,200.748 126.504,200.414 127.5,200.5 Z"/></g>
<g><path style="opacity:1" fill="#339a9e" d="M 198.5,200.5 C 198.833,200.5 199.167,200.5 199.5,200.5C 199.5,208.5 199.5,216.5 199.5,224.5C 191.167,224.5 182.833,224.5 174.5,224.5C 174.199,232.586 174.533,240.586 175.5,248.5C 174.833,248.5 174.167,248.5 173.5,248.5C 172.322,247.001 170.655,246.001 168.5,245.5C 169.689,244.571 171.022,244.238 172.5,244.5C 172.714,242.856 172.38,241.356 171.5,240C 172.638,234.599 173.304,229.099 173.5,223.5C 181.5,223.5 189.5,223.5 197.5,223.5C 197.42,215.591 197.753,207.925 198.5,200.5 Z"/></g>
<g><path style="opacity:1" fill="#113135" d="M 324.5,199.5 C 325.75,199.577 326.583,200.244 327,201.5C 327.495,203.473 327.662,205.473 327.5,207.5C 326.25,219.508 326.25,231.675 327.5,244C 327.333,245.5 327.167,247 327,248.5C 326.329,249.252 325.496,249.586 324.5,249.5C 324.5,232.833 324.5,216.167 324.5,199.5 Z"/></g>
<g><path style="opacity:1" fill="#4ab2b3" d="M 274.5,248.5 C 274.334,240.826 274.5,233.159 275,225.5C 283,224.833 291,224.167 299,223.5C 299.5,215.841 299.666,208.174 299.5,200.5C 307.5,200.5 315.5,200.5 323.5,200.5C 323.5,216.5 323.5,232.5 323.5,248.5C 307.167,248.5 290.833,248.5 274.5,248.5 Z"/></g>
<g><path style="opacity:1" fill="#40b7b7" d="M 300.5,202.5 C 307.648,201.508 314.981,201.175 322.5,201.5C 322.667,214.504 322.5,227.504 322,240.5C 321.788,242.78 320.955,244.78 319.5,246.5C 304.821,247.442 290.155,247.109 275.5,245.5C 277.424,240.076 278.091,234.576 277.5,229C 278.337,227.413 279.67,226.58 281.5,226.5C 283.455,227.453 285.122,228.787 286.5,230.5C 287.452,228.955 287.785,227.288 287.5,225.5C 291.833,225.5 296.167,225.5 300.5,225.5C 300.5,219.167 300.5,212.833 300.5,206.5C 306.789,205.628 313.122,205.295 319.5,205.5C 319.5,204.5 319.5,203.5 319.5,202.5C 313.016,202.644 306.683,202.644 300.5,202.5 Z"/></g>
<g><path style="opacity:1" fill="#2f476c" d="M 127.5,225.5 C 127.5,225.167 127.5,224.833 127.5,224.5C 134.833,224.5 142.167,224.5 149.5,224.5C 149.5,232.5 149.5,240.5 149.5,248.5C 149.167,248.5 148.833,248.5 148.5,248.5C 148.5,240.833 148.5,233.167 148.5,225.5C 141.5,225.5 134.5,225.5 127.5,225.5 Z"/></g>
<g><path style="opacity:1" fill="#5a4878" d="M 124.5,224.5 C 125.5,224.5 126.5,224.5 127.5,224.5C 127.5,224.833 127.5,225.167 127.5,225.5C 125.744,226.552 125.077,228.219 125.5,230.5C 125.823,237.022 125.49,243.355 124.5,249.5C 124.5,241.167 124.5,232.833 124.5,224.5 Z"/></g>
<g><path style="opacity:1" fill="#402c63" d="M 148.5,248.5 C 148.833,248.5 149.167,248.5 149.5,248.5C 149.5,248.833 149.5,249.167 149.5,249.5C 149.5,257.833 149.5,266.167 149.5,274.5C 157.316,275.492 165.316,275.826 173.5,275.5C 173.174,283.684 173.508,291.684 174.5,299.5C 181.833,299.5 189.167,299.5 196.5,299.5C 198.123,307.365 199.123,315.365 199.5,323.5C 201.099,323.232 202.432,323.566 203.5,324.5C 201.901,324.232 200.568,324.566 199.5,325.5C 199.5,328.833 199.5,332.167 199.5,335.5C 198.5,335.5 197.5,335.5 196.5,335.5C 196.014,340.699 196.681,345.699 198.5,350.5C 205.134,351.497 211.8,351.83 218.5,351.5C 218.833,356.833 219.167,362.167 219.5,367.5C 220.833,367.5 222.167,367.5 223.5,367.5C 223.198,370.059 223.532,372.393 224.5,374.5C 232.5,374.5 240.5,374.5 248.5,374.5C 248.5,382.833 248.5,391.167 248.5,399.5C 198.833,399.5 149.167,399.5 99.5,399.5C 99.5,383.5 99.5,367.5 99.5,351.5C 99.3284,350.508 99.6618,349.842 100.5,349.5C 108.5,349.5 116.5,349.5 124.5,349.5C 124.565,341.457 124.565,333.623 124.5,326C 125.244,324.961 126.244,324.461 127.5,324.5C 134.833,324.5 142.167,324.5 149.5,324.5C 149.5,316.167 149.5,307.833 149.5,299.5C 142.167,299.5 134.833,299.5 127.5,299.5C 126.5,299.5 125.5,299.5 124.5,299.5C 124.175,283.256 124.509,267.089 125.5,251C 117.173,250.5 108.84,250.334 100.5,250.5C 100.167,250.5 99.8333,250.5 99.5,250.5C 99.5,250.167 99.5,249.833 99.5,249.5C 99.8333,249.5 100.167,249.5 100.5,249.5C 108.5,249.5 116.5,249.5 124.5,249.5C 125.49,243.355 125.823,237.022 125.5,230.5C 127.104,229.713 127.771,228.38 127.5,226.5C 134.202,226.336 140.869,226.669 147.5,227.5C 147.5,233.167 147.5,238.833 147.5,244.5C 146.178,244.67 145.011,244.337 144,243.5C 143.506,245.134 143.34,246.801 143.5,248.5C 145.167,248.5 146.833,248.5 148.5,248.5 Z"/></g>
<g><path style="opacity:1" fill="#69a6b1" d="M 224.5,224.5 C 224.833,224.5 225.167,224.5 225.5,224.5C 224.902,231.632 224.235,238.632 223.5,245.5C 223.205,238.412 223.538,231.412 224.5,224.5 Z"/></g>
<g><path style="opacity:1" fill="#a190b6" d="M 226.5,226.5 C 233.457,227.386 240.457,227.72 247.5,227.5C 247.176,234.354 247.509,241.021 248.5,247.5C 248.414,248.496 248.748,249.329 249.5,250C 265.83,250.5 282.163,250.667 298.5,250.5C 298.5,258.167 298.5,265.833 298.5,273.5C 290.316,273.174 282.316,273.508 274.5,274.5C 273.509,280.979 273.176,287.646 273.5,294.5C 261.838,295.092 250.171,295.758 238.5,296.5C 232.298,296.47 226.132,296.137 220,295.5C 213.112,296.972 206.278,297.972 199.5,298.5C 191.5,298.5 183.5,298.5 175.5,298.5C 175.826,290.316 175.492,282.316 174.5,274.5C 166.167,274.5 157.833,274.5 149.5,274.5C 149.5,266.167 149.5,257.833 149.5,249.5C 149.833,249.5 150.167,249.5 150.5,249.5C 150.5,249.833 150.5,250.167 150.5,250.5C 150.215,252.288 150.548,253.955 151.5,255.5C 152.429,254.311 152.762,252.978 152.5,251.5C 156.162,250.637 158.328,251.97 159,255.5C 159.49,254.207 159.657,252.873 159.5,251.5C 181.232,250.851 202.732,251.518 224,253.5C 224.791,252.255 225.291,250.922 225.5,249.5C 226.492,242.018 226.825,234.352 226.5,226.5 Z"/></g>
<g><path style="opacity:1" fill="#323261" d="M 127.5,225.5 C 134.5,225.5 141.5,225.5 148.5,225.5C 148.5,233.167 148.5,240.833 148.5,248.5C 146.833,248.5 145.167,248.5 143.5,248.5C 143.34,246.801 143.506,245.134 144,243.5C 145.011,244.337 146.178,244.67 147.5,244.5C 147.5,238.833 147.5,233.167 147.5,227.5C 140.869,226.669 134.202,226.336 127.5,226.5C 127.771,228.38 127.104,229.713 125.5,230.5C 125.077,228.219 125.744,226.552 127.5,225.5 Z"/></g>
<g><path style="opacity:1" fill="#252429" d="M 399.5,255.5 C 399.5,293.833 399.5,332.167 399.5,370.5C 396.833,370.5 394.167,370.5 391.5,370.5C 391.5,369.5 391.5,368.5 391.5,367.5C 388.833,367.5 386.167,367.5 383.5,367.5C 383.5,369.833 383.5,372.167 383.5,374.5C 380.167,374.5 376.833,374.5 373.5,374.5C 373.5,372.167 373.5,369.833 373.5,367.5C 372.167,367.5 370.833,367.5 369.5,367.5C 369.5,369.833 369.5,372.167 369.5,374.5C 355.5,374.5 341.5,374.5 327.5,374.5C 327.5,373.5 327.5,372.5 327.5,371.5C 322.167,371.5 316.833,371.5 311.5,371.5C 311.5,372.833 311.5,374.167 311.5,375.5C 314.167,375.5 316.833,375.5 319.5,375.5C 319.5,378.167 319.5,380.833 319.5,383.5C 306.167,383.5 292.833,383.5 279.5,383.5C 279.5,380.833 279.5,378.167 279.5,375.5C 276.833,375.5 274.167,375.5 271.5,375.5C 271.5,378.167 271.5,380.833 271.5,383.5C 270.5,383.5 269.5,383.5 268.5,383.5C 267.833,372.833 267.167,372.833 266.5,383.5C 265.5,383.5 264.5,383.5 263.5,383.5C 263.833,378.167 264.167,372.833 264.5,367.5C 261.5,367.5 258.5,367.5 255.5,367.5C 255.5,362.167 255.5,356.833 255.5,351.5C 254.5,351.5 253.5,351.5 252.5,351.5C 251.596,350.791 251.263,349.791 251.5,348.5C 255.068,348.241 256.401,346.241 255.5,342.5C 251.675,341.789 248.675,342.955 246.5,346C 241.274,346.12 236.107,346.286 231,346.5C 229.941,346.37 229.108,345.87 228.5,345C 231.041,342.607 231.041,340.44 228.5,338.5C 227.723,333.916 227.223,329.25 227,324.5C 226.5,324 226,323.5 225.5,323C 218.508,322.5 211.508,322.334 204.5,322.5C 204.068,321.29 203.401,320.29 202.5,319.5C 202.172,314.125 202.505,308.792 203.5,303.5C 205.167,300.833 206.833,300.833 208.5,303.5C 211.965,301.719 215.132,301.719 218,303.5C 236.761,303.425 255.595,303.425 274.5,303.5C 274.5,302.5 274.5,301.5 274.5,300.5C 274.5,300.167 274.5,299.833 274.5,299.5C 275.434,298.432 275.768,297.099 275.5,295.5C 276.49,289.355 276.823,283.022 276.5,276.5C 285.54,276.748 294.54,276.415 303.5,275.5C 303.5,272.167 303.5,268.833 303.5,265.5C 308.833,265.5 314.167,265.5 319.5,265.5C 319.5,264.167 319.5,262.833 319.5,261.5C 313.833,261.5 308.167,261.5 302.5,261.5C 302.28,257.522 301.28,253.855 299.5,250.5C 299.5,250.167 299.5,249.833 299.5,249.5C 307.833,249.5 316.167,249.5 324.5,249.5C 325.496,249.586 326.329,249.252 327,248.5C 327.167,247 327.333,245.5 327.5,244C 326.25,231.675 326.25,219.508 327.5,207.5C 329.419,204.958 331.252,202.291 333,199.5C 333.617,196.965 333.117,194.632 331.5,192.5C 332.689,191.571 334.022,191.238 335.5,191.5C 335.426,212.989 335.426,234.322 335.5,255.5C 329.118,255.772 328.952,256.772 335,258.5C 335.495,260.473 335.662,262.473 335.5,264.5C 342.055,264.52 348.389,264.353 354.5,264C 355.451,263.282 355.617,262.449 355,261.5C 351.882,258.258 348.049,256.925 343.5,257.5C 343.335,254.15 343.502,250.817 344,247.5C 345.158,258.147 345.991,258.147 346.5,247.5C 349.833,247.5 353.167,247.5 356.5,247.5C 356.74,250.579 356.407,253.579 355.5,256.5C 358.082,260.8 359.416,260.467 359.5,255.5C 361.167,255.5 362.833,255.5 364.5,255.5C 364.5,258.167 364.5,260.833 364.5,263.5C 365.5,263.5 366.5,263.5 367.5,263.5C 367.5,260.833 367.5,258.167 367.5,255.5C 374.267,255.821 380.934,255.154 387.5,253.5C 391.407,254.811 395.407,255.478 399.5,255.5 Z"/></g>
<g><path style="opacity:1" fill="#21282a" d="M 330.5,207.5 C 331.5,207.5 332.5,207.5 333.5,207.5C 333.237,218.205 333.57,228.872 334.5,239.5C 333.167,239.5 331.833,239.5 330.5,239.5C 330.5,228.833 330.5,218.167 330.5,207.5 Z"/></g>
<g><path style="opacity:1" fill="#558499" d="M 149.5,224.5 C 150.492,232.316 150.826,240.316 150.5,248.5C 158.167,248.5 165.833,248.5 173.5,248.5C 174.167,248.5 174.833,248.5 175.5,248.5C 167.35,249.493 159.017,249.826 150.5,249.5C 150.167,249.5 149.833,249.5 149.5,249.5C 149.5,249.167 149.5,248.833 149.5,248.5C 149.5,240.5 149.5,232.5 149.5,224.5 Z"/></g>
<g><path style="opacity:1" fill="#58889c" d="M 249.5,227.5 C 250.486,231.97 250.819,236.637 250.5,241.5C 250.5,243.5 250.5,245.5 250.5,247.5C 258.471,248.323 266.471,248.656 274.5,248.5C 274.5,248.833 274.5,249.167 274.5,249.5C 266.493,249.666 258.493,249.5 250.5,249C 249.52,241.921 249.187,234.755 249.5,227.5 Z"/></g>
<g><path style="opacity:1" fill="#7c9bb2" d="M 249.5,227.5 C 249.187,234.755 249.52,241.921 250.5,249C 258.493,249.5 266.493,249.666 274.5,249.5C 282.5,249.5 290.5,249.5 298.5,249.5C 298.5,249.833 298.5,250.167 298.5,250.5C 282.163,250.667 265.83,250.5 249.5,250C 248.748,249.329 248.414,248.496 248.5,247.5C 248.813,240.245 248.48,233.079 247.5,226C 240.321,225.179 233.321,225.345 226.5,226.5C 226.825,234.352 226.492,242.018 225.5,249.5C 200.575,250.49 175.575,250.823 150.5,250.5C 150.5,250.167 150.5,249.833 150.5,249.5C 159.017,249.826 167.35,249.493 175.5,248.5C 191.5,248.5 207.5,248.5 223.5,248.5C 223.5,247.5 223.5,246.5 223.5,245.5C 224.235,238.632 224.902,231.632 225.5,224.5C 233.414,223.533 241.414,223.199 249.5,223.5C 249.5,224.833 249.5,226.167 249.5,227.5 Z"/></g>
<g><path style="opacity:1" fill="#9497b8" d="M 226.5,226.5 C 233.321,225.345 240.321,225.179 247.5,226C 248.48,233.079 248.813,240.245 248.5,247.5C 247.509,241.021 247.176,234.354 247.5,227.5C 240.457,227.72 233.457,227.386 226.5,226.5 Z"/></g>
<g><path style="opacity:1" fill="#9595b6" d="M 225.5,249.5 C 225.291,250.922 224.791,252.255 224,253.5C 202.732,251.518 181.232,250.851 159.5,251.5C 159.657,252.873 159.49,254.207 159,255.5C 158.328,251.97 156.162,250.637 152.5,251.5C 152.762,252.978 152.429,254.311 151.5,255.5C 150.548,253.955 150.215,252.288 150.5,250.5C 175.575,250.823 200.575,250.49 225.5,249.5 Z"/></g>
<g><path style="opacity:1" fill="#2e1f52" d="M 100.5,250.5 C 108.84,250.334 117.173,250.5 125.5,251C 124.509,267.089 124.175,283.256 124.5,299.5C 125.5,299.5 126.5,299.5 127.5,299.5C 127.5,300.833 127.5,302.167 127.5,303.5C 128.5,303.5 129.5,303.5 130.5,303.5C 130.5,308.833 130.5,314.167 130.5,319.5C 133.833,319.5 137.167,319.5 140.5,319.5C 140.5,314.167 140.5,308.833 140.5,303.5C 142.833,303.5 145.167,303.5 147.5,303.5C 147.5,308.833 147.5,314.167 147.5,319.5C 146.5,319.5 145.5,319.5 144.5,319.5C 144.5,320.5 144.5,321.5 144.5,322.5C 138.583,322.216 132.916,322.883 127.5,324.5C 126.244,324.461 125.244,324.961 124.5,326C 124.565,333.623 124.565,341.457 124.5,349.5C 116.5,349.5 108.5,349.5 100.5,349.5C 101.383,344.897 101.717,340.23 101.5,335.5C 101.344,331.342 103.177,328.675 107,327.5C 108.395,327.78 109.562,328.447 110.5,329.5C 107.923,333.237 107.923,336.903 110.5,340.5C 113.421,339.593 116.421,339.26 119.5,339.5C 119.155,334.454 116.488,332.12 111.5,332.5C 111.5,330.833 111.5,329.167 111.5,327.5C 115.131,328.412 118.797,328.579 122.5,328C 123.252,327.329 123.586,326.496 123.5,325.5C 124.048,323.468 125.381,322.468 127.5,322.5C 125.35,315.951 125.017,309.284 126.5,302.5C 125.312,300.738 123.645,299.738 121.5,299.5C 120.866,298.053 119.699,297.387 118,297.5C 115.914,298.418 113.747,299.085 111.5,299.5C 108.316,297.586 104.649,296.92 100.5,297.5C 100.684,281.9 100.684,266.234 100.5,250.5 Z"/></g>
<g><path style="opacity:1" fill="#24242b" d="M 97.5,254.5 C 97.2786,266.929 96.9453,279.262 96.5,291.5C 95.7255,286.203 95.3921,280.87 95.5,275.5C 92.8333,275.5 90.1667,275.5 87.5,275.5C 88.0543,268.847 88.3877,262.18 88.5,255.5C 89.8333,255.5 91.1667,255.5 92.5,255.5C 92.1446,261.033 92.9779,266.367 95,271.5C 94.8744,265.412 95.7077,259.745 97.5,254.5 Z"/></g>
<g><path style="opacity:1" fill="#2a2143" d="M 99.5,250.5 C 99.8333,250.5 100.167,250.5 100.5,250.5C 100.684,266.234 100.684,281.9 100.5,297.5C 104.649,296.92 108.316,297.586 111.5,299.5C 107.563,299.793 103.73,299.46 100,298.5C 99.5001,282.503 99.3334,266.503 99.5,250.5 Z"/></g>
<g><path style="opacity:1" fill="#25222e" d="M 299.5,250.5 C 301.28,253.855 302.28,257.522 302.5,261.5C 308.167,261.5 313.833,261.5 319.5,261.5C 319.5,262.833 319.5,264.167 319.5,265.5C 314.167,265.5 308.833,265.5 303.5,265.5C 303.5,268.833 303.5,272.167 303.5,275.5C 294.54,276.415 285.54,276.748 276.5,276.5C 276.823,283.022 276.49,289.355 275.5,295.5C 275.5,288.833 275.5,282.167 275.5,275.5C 283.684,275.826 291.684,275.492 299.5,274.5C 299.5,266.5 299.5,258.5 299.5,250.5 Z"/></g>
<g><path style="opacity:1" fill="#867b92" d="M 298.5,249.5 C 298.833,249.5 299.167,249.5 299.5,249.5C 299.5,249.833 299.5,250.167 299.5,250.5C 299.5,258.5 299.5,266.5 299.5,274.5C 291.167,274.5 282.833,274.5 274.5,274.5C 282.316,273.508 290.316,273.174 298.5,273.5C 298.5,265.833 298.5,258.167 298.5,250.5C 298.5,250.167 298.5,249.833 298.5,249.5 Z"/></g>
<g><path style="opacity:1" fill="#242429" d="M 95.5,294.5 C 96.5375,295.93 97.2041,297.597 97.5,299.5C 96.8826,299.389 96.3826,299.056 96,298.5C 93.544,300.321 90.7107,300.988 87.5,300.5C 87.5,297.5 87.5,294.5 87.5,291.5C 84.8333,291.5 82.1667,291.5 79.5,291.5C 79.5,288.833 79.5,286.167 79.5,283.5C 82.1667,283.5 84.8333,283.5 87.5,283.5C 87.5,284.833 87.5,286.167 87.5,287.5C 89.1667,287.5 90.8333,287.5 92.5,287.5C 92.5,290.167 92.5,292.833 92.5,295.5C 93.791,295.737 94.791,295.404 95.5,294.5 Z"/></g>
<g><path style="opacity:1" fill="#524070" d="M 149.5,274.5 C 157.833,274.5 166.167,274.5 174.5,274.5C 174.5,282.833 174.5,291.167 174.5,299.5C 173.508,291.684 173.174,283.684 173.5,275.5C 165.316,275.826 157.316,275.492 149.5,274.5 Z"/></g>
<g><path style="opacity:1" fill="#3b3044" d="M 274.5,274.5 C 282.833,274.5 291.167,274.5 299.5,274.5C 291.684,275.492 283.684,275.826 275.5,275.5C 275.5,282.167 275.5,288.833 275.5,295.5C 275.768,297.099 275.434,298.432 274.5,299.5C 274.5,291.167 274.5,282.833 274.5,274.5 Z"/></g>
<g><path style="opacity:1" fill="#a193b2" d="M 273.5,294.5 C 273.5,295.833 273.5,297.167 273.5,298.5C 249.167,298.5 224.833,298.5 200.5,298.5C 200.167,298.5 199.833,298.5 199.5,298.5C 206.278,297.972 213.112,296.972 220,295.5C 226.132,296.137 232.298,296.47 238.5,296.5C 250.171,295.758 261.838,295.092 273.5,294.5 Z"/></g>
<g><path style="opacity:1" fill="#8d7ba9" d="M 174.5,274.5 C 175.492,282.316 175.826,290.316 175.5,298.5C 183.5,298.5 191.5,298.5 199.5,298.5C 199.833,298.5 200.167,298.5 200.5,298.5C 200.5,298.833 200.5,299.167 200.5,299.5C 200.167,299.5 199.833,299.5 199.5,299.5C 198.5,299.5 197.5,299.5 196.5,299.5C 189.167,299.5 181.833,299.5 174.5,299.5C 174.5,291.167 174.5,282.833 174.5,274.5 Z"/></g>
<g><path style="opacity:1" fill="#887d96" d="M 274.5,274.5 C 274.5,282.833 274.5,291.167 274.5,299.5C 249.833,299.5 225.167,299.5 200.5,299.5C 200.5,299.167 200.5,298.833 200.5,298.5C 224.833,298.5 249.167,298.5 273.5,298.5C 273.5,297.167 273.5,295.833 273.5,294.5C 273.176,287.646 273.509,280.979 274.5,274.5 Z"/></g>
<g><path style="opacity:1" fill="#30283b" d="M 199.5,299.5 C 199.833,299.5 200.167,299.5 200.5,299.5C 225.167,299.5 249.833,299.5 274.5,299.5C 274.5,299.833 274.5,300.167 274.5,300.5C 250.167,300.5 225.833,300.5 201.5,300.5C 201.177,307.022 201.51,313.355 202.5,319.5C 203.401,320.29 204.068,321.29 204.5,322.5C 202.089,322.863 200.589,321.863 200,319.5C 199.5,312.842 199.334,306.175 199.5,299.5 Z"/></g>
<g><path style="opacity:1" fill="#282335" d="M 107.5,147.5 C 111.5,147.5 115.5,147.5 119.5,147.5C 120.209,148.404 121.209,148.737 122.5,148.5C 115.432,149.182 108.266,149.849 101,150.5C 99.5603,166.776 99.0603,183.11 99.5,199.5C 99.5,216.167 99.5,232.833 99.5,249.5C 99.5,249.833 99.5,250.167 99.5,250.5C 99.3334,266.503 99.5001,282.503 100,298.5C 103.73,299.46 107.563,299.793 111.5,299.5C 113.747,299.085 115.914,298.418 118,297.5C 119.699,297.387 120.866,298.053 121.5,299.5C 121.783,300.289 122.283,300.956 123,301.5C 123.667,308.167 123.667,314.833 123,321.5C 122.167,322.333 121.333,323.167 120.5,324C 114.833,324.333 109.167,324.667 103.5,325C 102.177,325.816 101.511,326.983 101.5,328.5C 100.883,328.611 100.383,328.944 100,329.5C 99.8333,330.833 99.6667,332.167 99.5,333.5C 101.069,338.215 100.736,342.715 98.5,347C 97.552,347.483 96.552,347.649 95.5,347.5C 95.5,347.167 95.5,346.833 95.5,346.5C 96.3886,344.09 97.0552,341.59 97.5,339C 93.5193,326.16 98.186,319.66 111.5,319.5C 111.5,320.5 111.5,321.5 111.5,322.5C 115.603,323.231 119.103,322.231 122,319.5C 122.667,314.167 122.667,308.833 122,303.5C 118.569,301.052 115.069,301.052 111.5,303.5C 109.726,303.113 108.059,302.447 106.5,301.5C 102.576,304.846 99.9094,304.179 98.5,299.5C 98.5,268.5 98.5,237.5 98.5,206.5C 97.3474,187.907 97.1807,169.24 98,150.5C 100.757,148.205 103.923,147.205 107.5,147.5 Z"/></g>
<g><path style="opacity:1" fill="#26222e" d="M 274.5,300.5 C 274.5,301.5 274.5,302.5 274.5,303.5C 255.595,303.425 236.761,303.425 218,303.5C 215.132,301.719 211.965,301.719 208.5,303.5C 206.833,300.833 205.167,300.833 203.5,303.5C 202.505,308.792 202.172,314.125 202.5,319.5C 201.51,313.355 201.177,307.022 201.5,300.5C 225.833,300.5 250.167,300.5 274.5,300.5 Z"/></g>
<g><path style="opacity:1" fill="#2b2043" d="M 121.5,299.5 C 123.645,299.738 125.312,300.738 126.5,302.5C 125.017,309.284 125.35,315.951 127.5,322.5C 125.381,322.468 124.048,323.468 123.5,325.5C 119.831,326.751 116.164,326.751 112.5,325.5C 108.589,325.935 104.922,326.935 101.5,328.5C 101.511,326.983 102.177,325.816 103.5,325C 109.167,324.667 114.833,324.333 120.5,324C 121.333,323.167 122.167,322.333 123,321.5C 123.667,314.833 123.667,308.167 123,301.5C 122.283,300.956 121.783,300.289 121.5,299.5 Z"/></g>
<g><path style="opacity:1" fill="#2e1f54" d="M 127.5,299.5 C 134.833,299.5 142.167,299.5 149.5,299.5C 149.5,307.833 149.5,316.167 149.5,324.5C 142.167,324.5 134.833,324.5 127.5,324.5C 132.916,322.883 138.583,322.216 144.5,322.5C 144.5,321.5 144.5,320.5 144.5,319.5C 145.5,319.5 146.5,319.5 147.5,319.5C 147.5,314.167 147.5,308.833 147.5,303.5C 145.167,303.5 142.833,303.5 140.5,303.5C 140.5,308.833 140.5,314.167 140.5,319.5C 137.167,319.5 133.833,319.5 130.5,319.5C 130.5,314.167 130.5,308.833 130.5,303.5C 129.5,303.5 128.5,303.5 127.5,303.5C 127.5,302.167 127.5,300.833 127.5,299.5 Z"/></g>
<g><path style="opacity:1" fill="#252429" d="M 97.5,299.5 C 97.8333,299.5 98.1667,299.5 98.5,299.5C 99.9094,304.179 102.576,304.846 106.5,301.5C 108.059,302.447 109.726,303.113 111.5,303.5C 115.069,301.052 118.569,301.052 122,303.5C 122.667,308.833 122.667,314.167 122,319.5C 119.103,322.231 115.603,323.231 111.5,322.5C 111.5,321.5 111.5,320.5 111.5,319.5C 98.186,319.66 93.5193,326.16 97.5,339C 97.0552,341.59 96.3886,344.09 95.5,346.5C 92.1463,345.49 88.813,345.49 85.5,346.5C 82.8232,346.251 80.4899,345.251 78.5,343.5C 75.8666,344.301 74.0333,345.967 73,348.5C 70.8982,365.405 70.0649,382.405 70.5,399.5C 46.8333,399.5 23.1667,399.5 -0.5,399.5C -0.5,370.167 -0.5,340.833 -0.5,311.5C 2.16667,311.5 4.83333,311.5 7.5,311.5C 7.5,314.167 7.5,316.833 7.5,319.5C 12.8333,319.5 18.1667,319.5 23.5,319.5C 23.3359,316.813 23.5026,314.146 24,311.5C 24.8555,322.107 26.0222,322.107 27.5,311.5C 28.9778,322.107 30.1445,322.107 31,311.5C 46.9782,311.695 63.1449,312.028 79.5,312.5C 79.5,309.5 79.5,306.5 79.5,303.5C 85.2136,302.738 90.8803,302.738 96.5,303.5C 97.4287,302.311 97.762,300.978 97.5,299.5 Z"/></g>
<g><path style="opacity:1" fill="#301f39" d="M 204.5,322.5 C 211.508,322.334 218.508,322.5 225.5,323C 226,323.5 226.5,324 227,324.5C 227.223,329.25 227.723,333.916 228.5,338.5C 228.679,340.954 228.013,343.121 226.5,345C 226.743,345.902 227.077,346.735 227.5,347.5C 226.833,347.5 226.167,347.5 225.5,347.5C 225.167,347.5 224.833,347.5 224.5,347.5C 224.5,339.833 224.5,332.167 224.5,324.5C 217.833,323.833 211.167,323.167 204.5,322.5 Z"/></g>
<g><path style="opacity:1" fill="#3e2a4e" d="M 196.5,299.5 C 197.5,299.5 198.5,299.5 199.5,299.5C 199.334,306.175 199.5,312.842 200,319.5C 200.589,321.863 202.089,322.863 204.5,322.5C 211.167,323.167 217.833,323.833 224.5,324.5C 217.5,324.5 210.5,324.5 203.5,324.5C 202.432,323.566 201.099,323.232 199.5,323.5C 199.123,315.365 198.123,307.365 196.5,299.5 Z"/></g>
<g><path style="opacity:1" fill="#2e204f" d="M 123.5,325.5 C 123.586,326.496 123.252,327.329 122.5,328C 118.797,328.579 115.131,328.412 111.5,327.5C 111.5,329.167 111.5,330.833 111.5,332.5C 116.488,332.12 119.155,334.454 119.5,339.5C 116.421,339.26 113.421,339.593 110.5,340.5C 107.923,336.903 107.923,333.237 110.5,329.5C 109.562,328.447 108.395,327.78 107,327.5C 103.177,328.675 101.344,331.342 101.5,335.5C 100.897,333.374 100.897,331.041 101.5,328.5C 104.922,326.935 108.589,325.935 112.5,325.5C 116.164,326.751 119.831,326.751 123.5,325.5 Z"/></g>
<g><path style="opacity:1" fill="#6f507d" d="M 199.5,325.5 C 200.568,324.566 201.901,324.232 203.5,324.5C 210.5,324.5 217.5,324.5 224.5,324.5C 224.5,332.167 224.5,339.833 224.5,347.5C 224.5,348.167 224.167,348.5 223.5,348.5C 223.5,345.833 223.5,343.167 223.5,340.5C 223.5,335.5 223.5,330.5 223.5,325.5C 215.5,325.5 207.5,325.5 199.5,325.5 Z"/></g>
<g><path style="opacity:1" fill="#83589d" d="M 199.5,325.5 C 207.5,325.5 215.5,325.5 223.5,325.5C 223.5,330.5 223.5,335.5 223.5,340.5C 222.034,339.653 221.2,338.32 221,336.5C 221,333.018 220.833,329.684 220.5,326.5C 214.19,327.19 207.857,327.524 201.5,327.5C 202.82,332.405 202.487,337.238 200.5,342C 201.495,345.502 203.829,347.002 207.5,346.5C 207.5,346.833 207.5,347.167 207.5,347.5C 212.64,348.488 217.974,348.821 223.5,348.5C 223.5,348.833 223.5,349.167 223.5,349.5C 215.5,349.5 207.5,349.5 199.5,349.5C 199.5,344.833 199.5,340.167 199.5,335.5C 199.5,332.167 199.5,328.833 199.5,325.5 Z"/></g>
<g><path style="opacity:1" fill="#8c56a6" d="M 223.5,340.5 C 223.5,343.167 223.5,345.833 223.5,348.5C 217.974,348.821 212.64,348.488 207.5,347.5C 210.78,346.247 214.114,346.247 217.5,347.5C 219.33,347.42 220.663,346.587 221.5,345C 220.994,341.46 219.66,338.293 217.5,335.5C 216.299,337.909 214.633,339.909 212.5,341.5C 210.622,340.358 208.788,339.358 207,338.5C 206.641,341.544 205.974,341.878 205,339.5C 204.13,340.108 203.63,340.941 203.5,342C 205.018,343.351 206.351,344.851 207.5,346.5C 203.829,347.002 201.495,345.502 200.5,342C 202.487,337.238 202.82,332.405 201.5,327.5C 207.857,327.524 214.19,327.19 220.5,326.5C 220.833,329.684 221,333.018 221,336.5C 221.2,338.32 222.034,339.653 223.5,340.5 Z"/></g>
<g><path style="opacity:1" fill="#8e54aa" d="M 207.5,347.5 C 207.5,347.167 207.5,346.833 207.5,346.5C 206.351,344.851 205.018,343.351 203.5,342C 203.63,340.941 204.13,340.108 205,339.5C 205.974,341.878 206.641,341.544 207,338.5C 208.788,339.358 210.622,340.358 212.5,341.5C 214.633,339.909 216.299,337.909 217.5,335.5C 219.66,338.293 220.994,341.46 221.5,345C 220.663,346.587 219.33,347.42 217.5,347.5C 214.114,346.247 210.78,346.247 207.5,347.5 Z"/></g>
<g><path style="opacity:1" fill="#26222e" d="M 95.5,346.5 C 95.5,346.833 95.5,347.167 95.5,347.5C 89.6182,347.768 83.7849,347.434 78,346.5C 76.395,347.101 75.0616,348.101 74,349.5C 72.6674,366.137 72.1674,382.803 72.5,399.5C 71.8333,399.5 71.1667,399.5 70.5,399.5C 70.0649,382.405 70.8982,365.405 73,348.5C 74.0333,345.967 75.8666,344.301 78.5,343.5C 80.4899,345.251 82.8232,346.251 85.5,346.5C 88.813,345.49 92.1463,345.49 95.5,346.5 Z"/></g>
<g><path style="opacity:1" fill="#292030" d="M 228.5,338.5 C 231.041,340.44 231.041,342.607 228.5,345C 229.108,345.87 229.941,346.37 231,346.5C 236.107,346.286 241.274,346.12 246.5,346C 248.675,342.955 251.675,341.789 255.5,342.5C 256.401,346.241 255.068,348.241 251.5,348.5C 251.263,349.791 251.596,350.791 252.5,351.5C 252.864,359.403 252.197,367.07 250.5,374.5C 250.826,365.983 250.493,357.65 249.5,349.5C 242.167,348.833 234.833,348.167 227.5,347.5C 227.077,346.735 226.743,345.902 226.5,345C 228.013,343.121 228.679,340.954 228.5,338.5 Z"/></g>
<g><path style="opacity:1" fill="#40244c" d="M 225.5,347.5 C 226.167,347.5 226.833,347.5 227.5,347.5C 234.833,348.167 242.167,348.833 249.5,349.5C 241.833,349.5 234.167,349.5 226.5,349.5C 226.167,349.5 225.833,349.5 225.5,349.5C 225.5,348.833 225.5,348.167 225.5,347.5 Z"/></g>
<g><path style="opacity:1" fill="#815c94" d="M 226.5,349.5 C 234.167,349.5 241.833,349.5 249.5,349.5C 249.826,358.017 249.493,366.35 248.5,374.5C 246.393,373.532 244.059,373.198 241.5,373.5C 241.5,372.5 241.5,371.5 241.5,370.5C 243.484,370.383 245.15,371.05 246.5,372.5C 246.833,371.667 247.167,370.833 247.5,370C 246.606,363.869 246.273,357.702 246.5,351.5C 239.901,351.131 233.234,351.131 226.5,351.5C 226.5,350.833 226.5,350.167 226.5,349.5 Z"/></g>
<g><path style="opacity:1" fill="#2a2245" d="M 101.5,328.5 C 100.897,331.041 100.897,333.374 101.5,335.5C 101.717,340.23 101.383,344.897 100.5,349.5C 99.6618,349.842 99.3284,350.508 99.5,351.5C 92.5,351.5 85.5,351.5 78.5,351.5C 77.8333,351.5 77.1667,351.5 76.5,351.5C 82.8333,350.167 89.1667,348.833 95.5,347.5C 96.552,347.649 97.552,347.483 98.5,347C 100.736,342.715 101.069,338.215 99.5,333.5C 99.6667,332.167 99.8333,330.833 100,329.5C 100.383,328.944 100.883,328.611 101.5,328.5 Z"/></g>
<g><path style="opacity:1" fill="#2d204c" d="M 76.5,351.5 C 77.1667,351.5 77.8333,351.5 78.5,351.5C 77.7242,367.514 77.3909,383.514 77.5,399.5C 76.8333,399.5 76.1667,399.5 75.5,399.5C 75.1703,383.325 75.5036,367.325 76.5,351.5 Z"/></g>
<g><path style="opacity:1" fill="#2e1f54" d="M 78.5,351.5 C 85.5,351.5 92.5,351.5 99.5,351.5C 99.5,367.5 99.5,383.5 99.5,399.5C 92.1667,399.5 84.8333,399.5 77.5,399.5C 77.3909,383.514 77.7242,367.514 78.5,351.5 Z"/></g>
<g><path style="opacity:1" fill="#8d56a7" d="M 241.5,373.5 C 240.833,373.5 240.167,373.5 239.5,373.5C 239.719,372.325 239.386,371.325 238.5,370.5C 234.9,372.758 231.4,372.758 228,370.5C 227.534,364.3 227.034,357.967 226.5,351.5C 233.234,351.131 239.901,351.131 246.5,351.5C 246.273,357.702 246.606,363.869 247.5,370C 247.167,370.833 246.833,371.667 246.5,372.5C 245.15,371.05 243.484,370.383 241.5,370.5C 241.5,371.5 241.5,372.5 241.5,373.5 Z"/></g>
<g><path style="opacity:1" fill="#3a294b" d="M 249.5,349.5 C 250.493,357.65 250.826,365.983 250.5,374.5C 249.593,382.792 249.26,391.125 249.5,399.5C 249.167,399.5 248.833,399.5 248.5,399.5C 248.5,391.167 248.5,382.833 248.5,374.5C 249.493,366.35 249.826,358.017 249.5,349.5 Z"/></g>
<g><path style="opacity:1" fill="#583377" d="M 224.5,347.5 C 224.833,347.5 225.167,347.5 225.5,347.5C 225.5,348.167 225.5,348.833 225.5,349.5C 224.507,357.65 224.174,365.983 224.5,374.5C 223.532,372.393 223.198,370.059 223.5,367.5C 223.5,361.5 223.5,355.5 223.5,349.5C 223.5,349.167 223.5,348.833 223.5,348.5C 224.167,348.5 224.5,348.167 224.5,347.5 Z"/></g>
<g><path style="opacity:1" fill="#282139" d="M 95.5,347.5 C 89.1667,348.833 82.8333,350.167 76.5,351.5C 75.5036,367.325 75.1703,383.325 75.5,399.5C 74.5,399.5 73.5,399.5 72.5,399.5C 72.1674,382.803 72.6674,366.137 74,349.5C 75.0616,348.101 76.395,347.101 78,346.5C 83.7849,347.434 89.6182,347.768 95.5,347.5 Z"/></g>
<g><path style="opacity:1" fill="#442a66" d="M 199.5,335.5 C 199.5,340.167 199.5,344.833 199.5,349.5C 207.5,349.5 215.5,349.5 223.5,349.5C 223.5,355.5 223.5,361.5 223.5,367.5C 222.167,367.5 220.833,367.5 219.5,367.5C 219.167,362.167 218.833,356.833 218.5,351.5C 211.8,351.83 205.134,351.497 198.5,350.5C 196.681,345.699 196.014,340.699 196.5,335.5C 197.5,335.5 198.5,335.5 199.5,335.5 Z"/></g>
<g><path style="opacity:1" fill="#26232a" d="M 252.5,351.5 C 253.5,351.5 254.5,351.5 255.5,351.5C 255.5,356.833 255.5,362.167 255.5,367.5C 258.5,367.5 261.5,367.5 264.5,367.5C 264.167,372.833 263.833,378.167 263.5,383.5C 264.5,383.5 265.5,383.5 266.5,383.5C 267.167,372.833 267.833,372.833 268.5,383.5C 269.5,383.5 270.5,383.5 271.5,383.5C 271.5,380.833 271.5,378.167 271.5,375.5C 274.167,375.5 276.833,375.5 279.5,375.5C 279.5,378.167 279.5,380.833 279.5,383.5C 292.833,383.5 306.167,383.5 319.5,383.5C 319.5,380.833 319.5,378.167 319.5,375.5C 316.833,375.5 314.167,375.5 311.5,375.5C 311.5,374.167 311.5,372.833 311.5,371.5C 316.833,371.5 322.167,371.5 327.5,371.5C 327.5,372.5 327.5,373.5 327.5,374.5C 341.5,374.5 355.5,374.5 369.5,374.5C 369.5,372.167 369.5,369.833 369.5,367.5C 370.833,367.5 372.167,367.5 373.5,367.5C 373.5,369.833 373.5,372.167 373.5,374.5C 376.833,374.5 380.167,374.5 383.5,374.5C 383.5,372.167 383.5,369.833 383.5,367.5C 386.167,367.5 388.833,367.5 391.5,367.5C 391.5,368.5 391.5,369.5 391.5,370.5C 394.167,370.5 396.833,370.5 399.5,370.5C 399.5,380.167 399.5,389.833 399.5,399.5C 349.5,399.5 299.5,399.5 249.5,399.5C 249.26,391.125 249.593,382.792 250.5,374.5C 252.197,367.07 252.864,359.403 252.5,351.5 Z"/></g>
<g><path style="opacity:1" fill="#885ba3" d="M 225.5,349.5 C 225.833,349.5 226.167,349.5 226.5,349.5C 226.5,350.167 226.5,350.833 226.5,351.5C 227.034,357.967 227.534,364.3 228,370.5C 231.4,372.758 234.9,372.758 238.5,370.5C 239.386,371.325 239.719,372.325 239.5,373.5C 234.833,373.5 230.167,373.5 225.5,373.5C 225.5,365.5 225.5,357.5 225.5,349.5 Z"/></g>
<g><path style="opacity:1" fill="#714c90" d="M 225.5,349.5 C 225.5,357.5 225.5,365.5 225.5,373.5C 230.167,373.5 234.833,373.5 239.5,373.5C 240.167,373.5 240.833,373.5 241.5,373.5C 244.059,373.198 246.393,373.532 248.5,374.5C 240.5,374.5 232.5,374.5 224.5,374.5C 224.174,365.983 224.507,357.65 225.5,349.5 Z"/></g>
</svg>
