<svg xmlns="http://www.w3.org/2000/svg" width="400px" height="400px" style="shape-rendering:geometricPrecision; text-rendering:geometricPrecision; image-rendering:optimizeQuality; fill-rule:evenodd; clip-rule:evenodd" xmlns:xlink="http://www.w3.org/1999/xlink">
<g><path style="opacity:1" fill="#b0e0ef" d="M -0.5,-0.5 C 132.833,-0.5 266.167,-0.5 399.5,-0.5C 399.5,132.833 399.5,266.167 399.5,399.5C 385.5,399.5 371.5,399.5 357.5,399.5C 359.154,358.963 347.321,322.963 322,291.5C 321.61,288.896 320.776,286.562 319.5,284.5C 317.948,281.888 315.614,280.555 312.5,280.5C 311.711,280.217 311.044,279.717 310.5,279C 326.423,263.558 331.589,245.058 326,223.5C 324.432,218.125 322.099,213.125 319,208.5C 317.801,205.274 317.301,201.941 317.5,198.5C 317.917,195.841 318.917,193.508 320.5,191.5C 327.821,192.466 335.155,192.966 342.5,193C 345.705,191.585 347.372,189.085 347.5,185.5C 346.731,182.896 345.064,181.062 342.5,180C 335.936,177.692 329.27,175.692 322.5,174C 341.638,171.224 346.471,161.391 337,144.5C 330.919,135.917 323.419,128.917 314.5,123.5C 285.374,100.106 252.374,85.1058 215.5,78.5C 193.905,74.41 172.239,74.7434 150.5,79.5C 149.833,79.5 149.5,79.8333 149.5,80.5C 107.843,90.6563 81.0101,116.323 69,157.5C 67.9912,168.281 68.4912,178.948 70.5,189.5C 72.9733,195.776 76.4733,201.442 81,206.5C 81.1753,211.019 81.6753,215.353 82.5,219.5C 83.1213,228.107 84.9546,236.44 88,244.5C 92.2614,253.782 96.4281,263.115 100.5,272.5C 101.739,274.707 102.239,277.041 102,279.5C 99.1935,281.395 96.8602,283.728 95,286.5C 94.4048,290.912 92.9048,294.912 90.5,298.5C 68.1606,328.262 58.1606,361.929 60.5,399.5C 40.1667,399.5 19.8333,399.5 -0.5,399.5C -0.5,266.167 -0.5,132.833 -0.5,-0.5 Z"/></g>
<g><path style="opacity:1" fill="#453f4b" d="M 215.5,78.5 C 252.374,85.1058 285.374,100.106 314.5,123.5C 320.057,128.554 325.557,133.887 331,139.5C 346.518,159.449 341.851,170.116 317,171.5C 277.925,167.658 238.758,166.158 199.5,167C 169.744,167.726 140.744,172.726 112.5,182C 111.944,182.383 111.611,182.883 111.5,183.5C 103.807,186.844 96.1407,190.511 88.5,194.5C 85.0596,197.201 82.7262,200.701 81.5,205C 82.4692,209.737 82.8025,214.57 82.5,219.5C 81.6753,215.353 81.1753,211.019 81,206.5C 76.4733,201.442 72.9733,195.776 70.5,189.5C 66.4344,151.608 80.101,121.441 111.5,99C 117.5,95.6667 123.5,92.3333 129.5,89C 136.424,86.4256 143.091,83.5923 149.5,80.5C 149.5,79.8333 149.833,79.5 150.5,79.5C 150.47,80.4972 150.97,81.1639 152,81.5C 167.981,77.8708 184.147,76.7041 200.5,78C 216.796,83.0634 230.296,92.2301 241,105.5C 240.956,103.721 240.289,102.055 239,100.5C 230.426,90.4668 219.926,83.3001 207.5,79C 210.146,78.5026 212.813,78.3359 215.5,78.5 Z"/></g>
<g><path style="opacity:1" fill="#161820" d="M 215.5,78.5 C 212.813,78.3359 210.146,78.5026 207.5,79C 219.926,83.3001 230.426,90.4668 239,100.5C 240.289,102.055 240.956,103.721 241,105.5C 230.296,92.2301 216.796,83.0634 200.5,78C 184.147,76.7041 167.981,77.8708 152,81.5C 150.97,81.1639 150.47,80.4972 150.5,79.5C 172.239,74.7434 193.905,74.41 215.5,78.5 Z"/></g>
<g><path style="opacity:1" fill="#0c131b" d="M 149.5,80.5 C 143.091,83.5923 136.424,86.4256 129.5,89C 123.5,92.3333 117.5,95.6667 111.5,99C 80.101,121.441 66.4344,151.608 70.5,189.5C 68.4912,178.948 67.9912,168.281 69,157.5C 81.0101,116.323 107.843,90.6563 149.5,80.5 Z"/></g>
<g><path style="opacity:1" fill="#453f4b" d="M 228.5,188.5 C 225.713,189.477 222.713,189.81 219.5,189.5C 201.842,189.102 184.176,187.435 166.5,184.5C 157.538,183.4 149.204,180.733 141.5,176.5C 151.918,173.983 162.584,172.15 173.5,171C 219.915,168.423 266.248,169.423 312.5,174C 322.269,176.015 331.936,178.349 341.5,181C 346.395,183.823 346.729,187.157 342.5,191C 330.823,190.484 319.156,189.484 307.5,188C 280.428,187.172 254.094,187.339 228.5,188.5 Z"/></g>
<g><path style="opacity:1" fill="#fdfcf3" d="M 141.5,176.5 C 149.204,180.733 157.538,183.4 166.5,184.5C 172.22,186.521 178.22,188.021 184.5,189C 190.507,189.424 196.507,189.924 202.5,190.5C 208.146,189.779 213.813,189.446 219.5,189.5C 222.713,189.81 225.713,189.477 228.5,188.5C 247.167,188.5 265.833,188.5 284.5,188.5C 286.292,189.309 288.292,189.809 290.5,190C 286.647,192.852 284.147,196.686 283,201.5C 281.212,206.198 281.212,210.864 283,215.5C 287.134,216.74 291.301,216.74 295.5,215.5C 295.925,220.077 296.925,224.41 298.5,228.5C 298.5,228.833 298.5,229.167 298.5,229.5C 298.889,232.946 299.722,236.279 301,239.5C 302.655,230.199 302.822,220.866 301.5,211.5C 302.08,204.989 300.58,198.989 297,193.5C 295.786,191.951 294.286,190.785 292.5,190C 294.473,189.505 296.473,189.338 298.5,189.5C 303.193,189.54 307.859,189.873 312.5,190.5C 312.334,196.842 312.5,203.175 313,209.5C 327.678,235.716 325.178,260.049 305.5,282.5C 303.787,283.635 303.12,285.302 303.5,287.5C 299.841,288.005 298.174,290.172 298.5,294C 298.149,297.792 299.482,300.626 302.5,302.5C 300.568,309.963 298.234,317.296 295.5,324.5C 294.11,325.899 293.11,327.566 292.5,329.5C 289.474,332.195 286.474,334.862 283.5,337.5C 279.118,339.763 274.451,341.096 269.5,341.5C 266.167,341.5 262.833,341.5 259.5,341.5C 249.24,339.768 239.24,337.102 229.5,333.5C 229.5,332.833 229.167,332.5 228.5,332.5C 226.579,331.637 224.579,330.971 222.5,330.5C 222.5,329.833 222.167,329.5 221.5,329.5C 219.703,328.27 217.703,327.604 215.5,327.5C 214.089,325.461 212.089,324.461 209.5,324.5C 198.407,317.926 187.407,311.093 176.5,304C 172.975,301.302 169.642,298.469 166.5,295.5C 163.756,291.015 161.256,286.348 159,281.5C 145.853,266.367 135.186,249.7 127,231.5C 120.726,213.584 121.226,195.917 128.5,178.5C 132.743,177.319 137.076,176.652 141.5,176.5 Z"/></g>
<g><path style="opacity:1" fill="#141213" d="M 166.5,184.5 C 184.176,187.435 201.842,189.102 219.5,189.5C 213.813,189.446 208.146,189.779 202.5,190.5C 196.507,189.924 190.507,189.424 184.5,189C 178.22,188.021 172.22,186.521 166.5,184.5 Z"/></g>
<g><path style="opacity:1" fill="#d1e5de" d="M 128.5,178.5 C 121.226,195.917 120.726,213.584 127,231.5C 135.186,249.7 145.853,266.367 159,281.5C 161.256,286.348 163.756,291.015 166.5,295.5C 156.792,288.977 146.459,283.477 135.5,279C 126.185,276.015 116.852,275.848 107.5,278.5C 107.483,274.466 106.483,270.799 104.5,267.5C 100.196,258.32 96.0297,248.987 92,239.5C 87.5611,224.74 86.3944,209.74 88.5,194.5C 96.1407,190.511 103.807,186.844 111.5,183.5C 117.2,181.991 122.867,180.324 128.5,178.5 Z"/></g>
<g><path style="opacity:1" fill="#586e74" d="M 320.5,191.5 C 318.917,193.508 317.917,195.841 317.5,198.5C 317.5,195.833 317.5,193.167 317.5,190.5C 318.791,190.263 319.791,190.596 320.5,191.5 Z"/></g>
<g><path style="opacity:1" fill="#1d1f2d" d="M 186.5,190.5 C 188.857,190.337 191.19,190.503 193.5,191C 201.499,198.667 203.833,207.667 200.5,218C 195.5,218.667 190.5,218.667 185.5,218C 177.987,216.486 175.487,211.986 178,204.5C 179.576,199.005 182.409,194.338 186.5,190.5 Z"/></g>
<g><path style="opacity:1" fill="#f6f8f8" d="M 189.5,195.5 C 194.989,195.504 196.822,198.171 195,203.5C 193.174,207.037 190.84,207.371 188,204.5C 187.068,201.177 187.568,198.177 189.5,195.5 Z"/></g>
<g><path style="opacity:1" fill="#1d1e2a" d="M 284.5,188.5 C 289.363,188.181 294.03,188.514 298.5,189.5C 296.473,189.338 294.473,189.505 292.5,190C 294.286,190.785 295.786,191.951 297,193.5C 300.58,198.989 302.08,204.989 301.5,211.5C 299.853,213.326 297.853,214.66 295.5,215.5C 291.301,216.74 287.134,216.74 283,215.5C 281.212,210.864 281.212,206.198 283,201.5C 284.147,196.686 286.647,192.852 290.5,190C 288.292,189.809 286.292,189.309 284.5,188.5 Z"/></g>
<g><path style="opacity:1" fill="#f2f5f6" d="M 292.5,194.5 C 294.39,194.297 295.89,194.963 297,196.5C 298.138,200.43 297.305,203.764 294.5,206.5C 293.522,206.023 292.689,205.357 292,204.5C 291.253,201.076 291.42,197.743 292.5,194.5 Z"/></g>
<g><path style="opacity:1" fill="#0d0d10" d="M 314.5,123.5 C 323.419,128.917 330.919,135.917 337,144.5C 346.471,161.391 341.638,171.224 322.5,174C 329.27,175.692 335.936,177.692 342.5,180C 345.064,181.062 346.731,182.896 347.5,185.5C 347.372,189.085 345.705,191.585 342.5,193C 335.155,192.966 327.821,192.466 320.5,191.5C 319.791,190.596 318.791,190.263 317.5,190.5C 317.5,193.167 317.5,195.833 317.5,198.5C 317.301,201.941 317.801,205.274 319,208.5C 322.099,213.125 324.432,218.125 326,223.5C 331.589,245.058 326.423,263.558 310.5,279C 311.044,279.717 311.711,280.217 312.5,280.5C 311.167,281.833 309.833,283.167 308.5,284.5C 307.5,283.833 306.5,283.167 305.5,282.5C 325.178,260.049 327.678,235.716 313,209.5C 312.5,203.175 312.334,196.842 312.5,190.5C 307.859,189.873 303.193,189.54 298.5,189.5C 294.03,188.514 289.363,188.181 284.5,188.5C 265.833,188.5 247.167,188.5 228.5,188.5C 254.094,187.339 280.428,187.172 307.5,188C 319.156,189.484 330.823,190.484 342.5,191C 346.729,187.157 346.395,183.823 341.5,181C 331.936,178.349 322.269,176.015 312.5,174C 266.248,169.423 219.915,168.423 173.5,171C 162.584,172.15 151.918,173.983 141.5,176.5C 137.076,176.652 132.743,177.319 128.5,178.5C 122.867,180.324 117.2,181.991 111.5,183.5C 111.611,182.883 111.944,182.383 112.5,182C 140.744,172.726 169.744,167.726 199.5,167C 238.758,166.158 277.925,167.658 317,171.5C 341.851,170.116 346.518,159.449 331,139.5C 325.557,133.887 320.057,128.554 314.5,123.5 Z"/></g>
<g><path style="opacity:1" fill="#f8b03f" d="M 255.5,217.5 C 258.274,219.064 260.941,220.897 263.5,223C 254.55,224.18 245.55,224.847 236.5,225C 235.167,226 235.167,227 236.5,228C 244.493,228.5 252.493,228.666 260.5,228.5C 260.703,230.39 260.037,231.89 258.5,233C 255.342,233.554 252.175,234.054 249,234.5C 245.347,233.008 241.514,232.008 237.5,231.5C 235.765,229.765 234.432,227.765 233.5,225.5C 233.529,223.971 234.196,222.804 235.5,222C 237.63,221.033 239.63,219.866 241.5,218.5C 243.915,220.216 246.582,220.716 249.5,220C 249.833,219.667 250.167,219.333 250.5,219C 248.423,218.808 246.423,218.308 244.5,217.5C 248.155,216.414 251.822,216.414 255.5,217.5 Z"/></g>
<g><path style="opacity:1" fill="#583c22" d="M 253.5,215.5 C 258.381,216.024 262.548,218.024 266,221.5C 266.765,223.066 266.598,224.399 265.5,225.5C 264.198,220.492 260.865,217.826 255.5,217.5C 254.833,216.833 254.167,216.167 253.5,215.5 Z"/></g>
<g><path style="opacity:1" fill="#402919" d="M 237.5,218.5 C 234.882,220.452 232.548,222.785 230.5,225.5C 232.259,228.266 234.593,230.266 237.5,231.5C 238.694,232.272 239.694,233.272 240.5,234.5C 235.318,233.315 231.651,230.315 229.5,225.5C 230.918,221.749 233.585,219.416 237.5,218.5 Z"/></g>
<g><path style="opacity:1" fill="#dcac5c" d="M 253.5,215.5 C 254.167,216.167 254.833,216.833 255.5,217.5C 251.822,216.414 248.155,216.414 244.5,217.5C 246.423,218.308 248.423,218.808 250.5,219C 250.167,219.333 249.833,219.667 249.5,220C 246.582,220.716 243.915,220.216 241.5,218.5C 239.63,219.866 237.63,221.033 235.5,222C 234.196,222.804 233.529,223.971 233.5,225.5C 234.432,227.765 235.765,229.765 237.5,231.5C 234.593,230.266 232.259,228.266 230.5,225.5C 232.548,222.785 234.882,220.452 237.5,218.5C 239.148,217.073 241.148,216.24 243.5,216C 246.817,215.502 250.15,215.335 253.5,215.5 Z"/></g>
<g><path style="opacity:1" fill="#b72230" d="M 298.5,229.5 C 298.5,229.167 298.5,228.833 298.5,228.5C 298.405,224.775 298.238,221.109 298,217.5C 298.414,217.043 298.914,216.709 299.5,216.5C 299.833,218.667 300.167,220.833 300.5,223C 300.467,225.61 299.8,227.777 298.5,229.5 Z"/></g>
<g><path style="opacity:1" fill="#9e4549" d="M 301.5,211.5 C 302.822,220.866 302.655,230.199 301,239.5C 299.722,236.279 298.889,232.946 298.5,229.5C 299.8,227.777 300.467,225.61 300.5,223C 300.167,220.833 299.833,218.667 299.5,216.5C 298.914,216.709 298.414,217.043 298,217.5C 298.238,221.109 298.405,224.775 298.5,228.5C 296.925,224.41 295.925,220.077 295.5,215.5C 297.853,214.66 299.853,213.326 301.5,211.5 Z"/></g>
<g><path style="opacity:1" fill="#dca760" d="M 255.5,217.5 C 260.865,217.826 264.198,220.492 265.5,225.5C 263.315,231.683 258.982,235.35 252.5,236.5C 248.384,236.459 244.384,235.793 240.5,234.5C 239.694,233.272 238.694,232.272 237.5,231.5C 241.514,232.008 245.347,233.008 249,234.5C 252.175,234.054 255.342,233.554 258.5,233C 260.037,231.89 260.703,230.39 260.5,228.5C 252.493,228.666 244.493,228.5 236.5,228C 235.167,227 235.167,226 236.5,225C 245.55,224.847 254.55,224.18 263.5,223C 260.941,220.897 258.274,219.064 255.5,217.5 Z"/></g>
<g><path style="opacity:1" fill="#663a19" d="M 260.5,224.5 C 262.379,224.393 262.712,224.893 261.5,226C 253.461,227.93 245.461,227.93 237.5,226C 245.344,225.829 253.011,225.329 260.5,224.5 Z"/></g>
<g><path style="opacity:1" fill="#624e25" d="M 240.5,234.5 C 244.384,235.793 248.384,236.459 252.5,236.5C 248.211,237.981 244.211,237.315 240.5,234.5 Z"/></g>
<g><path style="opacity:1" fill="#090b0d" d="M 88.5,194.5 C 86.3944,209.74 87.5611,224.74 92,239.5C 96.0297,248.987 100.196,258.32 104.5,267.5C 105.244,270.95 103.91,272.616 100.5,272.5C 96.4281,263.115 92.2614,253.782 88,244.5C 84.9546,236.44 83.1213,228.107 82.5,219.5C 82.8025,214.57 82.4692,209.737 81.5,205C 82.7262,200.701 85.0596,197.201 88.5,194.5 Z"/></g>
<g><path style="opacity:1" fill="#0f141a" d="M 104.5,267.5 C 106.483,270.799 107.483,274.466 107.5,278.5C 116.852,275.848 126.185,276.015 135.5,279C 146.459,283.477 156.792,288.977 166.5,295.5C 169.642,298.469 172.975,301.302 176.5,304C 187.407,311.093 198.407,317.926 209.5,324.5C 202.91,321.872 196.577,318.705 190.5,315C 176.5,305.667 162.5,296.333 148.5,287C 143.844,284.281 138.844,282.447 133.5,281.5C 129.79,279.864 125.79,279.198 121.5,279.5C 115.655,279.151 109.988,279.984 104.5,282C 101.424,282.911 99.0911,284.744 97.5,287.5C 99.4012,288.231 101.401,288.231 103.5,287.5C 109.892,287.249 116.225,287.582 122.5,288.5C 140.157,295.499 149.824,308.499 151.5,327.5C 151.5,328.833 151.5,330.167 151.5,331.5C 149.894,320.763 145.728,311.097 139,302.5C 129.121,291.596 116.955,287.596 102.5,290.5C 100.494,293.829 98.1606,296.829 95.5,299.5C 93.8828,298.962 92.2161,298.629 90.5,298.5C 92.9048,294.912 94.4048,290.912 95,286.5C 96.8602,283.728 99.1935,281.395 102,279.5C 102.239,277.041 101.739,274.707 100.5,272.5C 103.91,272.616 105.244,270.95 104.5,267.5 Z"/></g>
<g><path style="opacity:1" fill="#295570" d="M 121.5,279.5 C 125.79,279.198 129.79,279.864 133.5,281.5C 135.273,282.892 137.273,284.059 139.5,285C 139,285.167 138.5,285.333 138,285.5C 132.566,282.97 127.066,280.97 121.5,279.5 Z"/></g>
<g><path style="opacity:1" fill="#367fa6" d="M 314.5,283.5 C 311.504,289.154 309.504,295.154 308.5,301.5C 307.297,306.64 305.631,311.64 303.5,316.5C 302.659,314.621 302.325,312.621 302.5,310.5C 304.02,300.636 307.353,291.47 312.5,283C 313.437,282.308 314.103,282.475 314.5,283.5 Z"/></g>
<g><path style="opacity:1" fill="#d1e2db" d="M 305.5,282.5 C 306.5,283.167 307.5,283.833 308.5,284.5C 305.903,290.29 303.903,296.29 302.5,302.5C 299.482,300.626 298.149,297.792 298.5,294C 298.174,290.172 299.841,288.005 303.5,287.5C 303.12,285.302 303.787,283.635 305.5,282.5 Z"/></g>
<g><path style="opacity:1" fill="#d0e5de" d="M 151.5,331.5 C 152.81,345.169 152.81,358.835 151.5,372.5C 149.747,375.146 148.747,378.146 148.5,381.5C 146.992,383.181 145.992,385.181 145.5,387.5C 143.937,388.945 142.604,390.611 141.5,392.5C 140.957,392.44 140.624,392.107 140.5,391.5C 145.336,374.819 147.502,357.819 147,340.5C 146,337.167 145,333.833 144,330.5C 143.313,328.445 142.146,326.779 140.5,325.5C 140.167,326 139.833,326.5 139.5,327C 140.717,329.368 141.551,331.868 142,334.5C 142.667,343.167 142.667,351.833 142,360.5C 139.283,373.473 136.783,386.473 134.5,399.5C 111.833,399.5 89.1667,399.5 66.5,399.5C 64.0626,362.571 73.7292,329.238 95.5,299.5C 98.1606,296.829 100.494,293.829 102.5,290.5C 116.955,287.596 129.121,291.596 139,302.5C 145.728,311.097 149.894,320.763 151.5,331.5 Z"/></g>
<g><path style="opacity:1" fill="#101c28" d="M 312.5,280.5 C 315.614,280.555 317.948,281.888 319.5,284.5C 319.813,288.042 319.479,291.375 318.5,294.5C 318.699,291.059 318.199,287.726 317,284.5C 316.329,283.748 315.496,283.414 314.5,283.5C 314.103,282.475 313.437,282.308 312.5,283C 307.353,291.47 304.02,300.636 302.5,310.5C 300.699,315.435 298.366,320.102 295.5,324.5C 298.234,317.296 300.568,309.963 302.5,302.5C 303.903,296.29 305.903,290.29 308.5,284.5C 309.833,283.167 311.167,281.833 312.5,280.5 Z"/></g>
<g><path style="opacity:1" fill="#359ac8" d="M 121.5,279.5 C 127.066,280.97 132.566,282.97 138,285.5C 138.5,285.333 139,285.167 139.5,285C 137.273,284.059 135.273,282.892 133.5,281.5C 138.844,282.447 143.844,284.281 148.5,287C 162.5,296.333 176.5,305.667 190.5,315C 196.577,318.705 202.91,321.872 209.5,324.5C 210.911,326.539 212.911,327.539 215.5,327.5C 216.736,329.043 218.402,330.043 220.5,330.5C 221.107,330.376 221.44,330.043 221.5,329.5C 222.167,329.5 222.5,329.833 222.5,330.5C 223.736,332.043 225.402,333.043 227.5,333.5C 228.107,333.376 228.44,333.043 228.5,332.5C 229.167,332.5 229.5,332.833 229.5,333.5C 232.097,334.889 234.43,336.722 236.5,339C 242.934,339.854 249.268,341.021 255.5,342.5C 260.437,344.134 265.771,345.134 271.5,345.5C 271.137,346.183 270.804,346.85 270.5,347.5C 262.248,348.8 253.914,348.467 245.5,346.5C 244.522,346.977 243.689,347.643 243,348.5C 233.414,345.115 224.58,340.948 216.5,336C 214.024,335.576 211.691,334.743 209.5,333.5C 208.446,333.68 207.446,334.013 206.5,334.5C 202.812,331.479 199.479,328.146 196.5,324.5C 190.852,320.007 184.852,316.007 178.5,312.5C 175.725,309.395 172.392,307.062 168.5,305.5C 167.521,303.855 166.188,302.521 164.5,301.5C 163.702,301.957 163.369,302.624 163.5,303.5C 158.888,301.524 154.554,299.19 150.5,296.5C 150.5,297.5 150.5,298.5 150.5,299.5C 148.833,299.5 147.167,299.5 145.5,299.5C 145.719,298.325 145.386,297.325 144.5,296.5C 143.708,298.195 144.042,299.862 145.5,301.5C 149.697,301.926 151.53,304.26 151,308.5C 154.156,311.429 155.656,315.096 155.5,319.5C 156.351,326.221 157.518,332.888 159,339.5C 160.436,355.075 159.269,370.409 155.5,385.5C 154.752,387.584 154.752,389.584 155.5,391.5C 153.818,394.816 151.485,397.483 148.5,399.5C 145.167,399.5 141.833,399.5 138.5,399.5C 138.15,396.547 139.15,394.213 141.5,392.5C 142.604,390.611 143.937,388.945 145.5,387.5C 147.539,386.089 148.539,384.089 148.5,381.5C 150.472,378.916 151.472,375.916 151.5,372.5C 153.109,369.851 153.943,366.851 154,363.5C 154.667,354.5 154.667,345.5 154,336.5C 153.943,333.149 153.109,330.149 151.5,327.5C 149.824,308.499 140.157,295.499 122.5,288.5C 122.735,287.903 123.235,287.57 124,287.5C 126.05,288.791 128.217,289.291 130.5,289C 123.029,284.842 115.029,283.509 106.5,285C 110.167,285.333 113.833,285.667 117.5,286C 112.649,286.174 107.982,286.674 103.5,287.5C 101.401,288.231 99.4012,288.231 97.5,287.5C 99.0911,284.744 101.424,282.911 104.5,282C 109.988,279.984 115.655,279.151 121.5,279.5 Z"/></g>
<g><path style="opacity:1" fill="#063356" d="M 151.5,292.5 C 154.63,293.572 157.296,295.406 159.5,298C 158.833,298.667 158.167,298.667 157.5,298C 155.237,296.383 153.237,294.55 151.5,292.5 Z"/></g>
<g><path style="opacity:1" fill="#103850" d="M 151.5,292.5 C 148.06,290.945 144.727,289.112 141.5,287C 145.517,287.51 148.85,289.343 151.5,292.5 Z"/></g>
<g><path style="opacity:1" fill="#23526b" d="M 122.5,288.5 C 116.225,287.582 109.892,287.249 103.5,287.5C 107.982,286.674 112.649,286.174 117.5,286C 113.833,285.667 110.167,285.333 106.5,285C 115.029,283.509 123.029,284.842 130.5,289C 128.217,289.291 126.05,288.791 124,287.5C 123.235,287.57 122.735,287.903 122.5,288.5 Z"/></g>
<g><path style="opacity:1" fill="#3383b1" d="M 317.5,299.5 C 317.334,304.844 317.501,310.177 318,315.5C 324.629,333.682 330.795,352.016 336.5,370.5C 336.376,371.107 336.043,371.44 335.5,371.5C 332.737,365.396 330.237,359.063 328,352.5C 326.745,351.789 325.579,350.956 324.5,350C 325.936,346.346 325.27,343.179 322.5,340.5C 322.421,339.07 322.754,337.736 323.5,336.5C 321.282,335.076 319.782,333.076 319,330.5C 314.408,318.822 313.075,306.822 315,294.5C 315.291,299.189 315.291,303.856 315,308.5C 315.333,309.167 315.667,309.833 316,310.5C 316.177,306.644 316.677,302.977 317.5,299.5 Z"/></g>
<g><path style="opacity:1" fill="#21a9e0" d="M 163.5,303.5 C 165.167,304.167 166.833,304.833 168.5,305.5C 171.275,308.605 174.608,310.938 178.5,312.5C 183.49,317.93 189.49,321.93 196.5,324.5C 199.479,328.146 202.812,331.479 206.5,334.5C 207.446,334.013 208.446,333.68 209.5,333.5C 211.691,334.743 214.024,335.576 216.5,336C 224.58,340.948 233.414,345.115 243,348.5C 243.689,347.643 244.522,346.977 245.5,346.5C 253.914,348.467 262.248,348.8 270.5,347.5C 275.763,347.434 280.763,346.268 285.5,344C 287.377,339.626 290.377,336.459 294.5,334.5C 296.822,333.198 298.155,331.198 298.5,328.5C 301.79,325.244 303.457,321.244 303.5,316.5C 305.631,311.64 307.297,306.64 308.5,301.5C 309.421,303.269 310.588,304.935 312,306.5C 314.148,314.442 315.315,322.442 315.5,330.5C 316.357,331.736 317.023,333.069 317.5,334.5C 318.325,335.386 319.325,335.719 320.5,335.5C 320.12,337.698 320.787,339.365 322.5,340.5C 325.27,343.179 325.936,346.346 324.5,350C 325.579,350.956 326.745,351.789 328,352.5C 330.237,359.063 332.737,365.396 335.5,371.5C 338.564,380.526 340.564,389.86 341.5,399.5C 335.5,399.5 329.5,399.5 323.5,399.5C 325.717,387.136 323.717,375.469 317.5,364.5C 318.269,360.275 316.602,357.609 312.5,356.5C 310.927,354.164 309.594,354.164 308.5,356.5C 307.069,357.903 305.902,359.569 305,361.5C 304.086,366.121 303.586,370.788 303.5,375.5C 303.759,383.723 305.093,391.723 307.5,399.5C 254.5,399.5 201.5,399.5 148.5,399.5C 151.485,397.483 153.818,394.816 155.5,391.5C 154.752,389.584 154.752,387.584 155.5,385.5C 157.129,383.142 158.295,380.476 159,377.5C 163.012,357.705 161.845,338.372 155.5,319.5C 155.656,315.096 154.156,311.429 151,308.5C 151.53,304.26 149.697,301.926 145.5,301.5C 144.042,299.862 143.708,298.195 144.5,296.5C 145.386,297.325 145.719,298.325 145.5,299.5C 147.167,299.5 148.833,299.5 150.5,299.5C 150.5,298.5 150.5,297.5 150.5,296.5C 154.554,299.19 158.888,301.524 163.5,303.5 Z"/></g>
<g><path style="opacity:1" fill="#154d67" d="M 178.5,312.5 C 184.852,316.007 190.852,320.007 196.5,324.5C 189.49,321.93 183.49,317.93 178.5,312.5 Z"/></g>
<g><path style="opacity:1" fill="#0b3b55" d="M 168.5,305.5 C 172.392,307.062 175.725,309.395 178.5,312.5C 174.608,310.938 171.275,308.605 168.5,305.5 Z"/></g>
<g><path style="opacity:1" fill="#143a51" d="M 168.5,305.5 C 166.833,304.833 165.167,304.167 163.5,303.5C 163.369,302.624 163.702,301.957 164.5,301.5C 166.188,302.521 167.521,303.855 168.5,305.5 Z"/></g>
<g><path style="opacity:1" fill="#0e1014" d="M 319.5,284.5 C 320.776,286.562 321.61,288.896 322,291.5C 347.321,322.963 359.154,358.963 357.5,399.5C 356.5,399.5 355.5,399.5 354.5,399.5C 354.016,361.876 342.516,328.209 320,298.5C 319.226,305.224 319.559,311.89 321,318.5C 326.964,330.714 331.964,343.381 336,356.5C 340.011,370.568 342.511,384.901 343.5,399.5C 342.833,399.5 342.167,399.5 341.5,399.5C 340.564,389.86 338.564,380.526 335.5,371.5C 336.043,371.44 336.376,371.107 336.5,370.5C 330.795,352.016 324.629,333.682 318,315.5C 317.501,310.177 317.334,304.844 317.5,299.5C 317.216,297.585 317.549,295.919 318.5,294.5C 319.479,291.375 319.813,288.042 319.5,284.5 Z"/></g>
<g><path style="opacity:1" fill="#1c5073" d="M 303.5,316.5 C 303.457,321.244 301.79,325.244 298.5,328.5C 299.796,324.261 301.462,320.261 303.5,316.5 Z"/></g>
<g><path style="opacity:1" fill="#233b52" d="M 209.5,324.5 C 212.089,324.461 214.089,325.461 215.5,327.5C 212.911,327.539 210.911,326.539 209.5,324.5 Z"/></g>
<g><path style="opacity:1" fill="#32a1cf" d="M 314.5,283.5 C 315.496,283.414 316.329,283.748 317,284.5C 318.199,287.726 318.699,291.059 318.5,294.5C 317.549,295.919 317.216,297.585 317.5,299.5C 316.677,302.977 316.177,306.644 316,310.5C 315.667,309.833 315.333,309.167 315,308.5C 315.291,303.856 315.291,299.189 315,294.5C 313.075,306.822 314.408,318.822 319,330.5C 319.782,333.076 321.282,335.076 323.5,336.5C 322.754,337.736 322.421,339.07 322.5,340.5C 320.787,339.365 320.12,337.698 320.5,335.5C 319.325,335.719 318.325,335.386 317.5,334.5C 317.023,333.069 316.357,331.736 315.5,330.5C 315.315,322.442 314.148,314.442 312,306.5C 310.588,304.935 309.421,303.269 308.5,301.5C 309.504,295.154 311.504,289.154 314.5,283.5 Z"/></g>
<g><path style="opacity:1" fill="#133451" d="M 295.5,324.5 C 296.515,326.964 295.515,328.63 292.5,329.5C 293.11,327.566 294.11,325.899 295.5,324.5 Z"/></g>
<g><path style="opacity:1" fill="#1f4258" d="M 215.5,327.5 C 217.703,327.604 219.703,328.27 221.5,329.5C 221.44,330.043 221.107,330.376 220.5,330.5C 218.402,330.043 216.736,329.043 215.5,327.5 Z"/></g>
<g><path style="opacity:1" fill="#22394e" d="M 222.5,330.5 C 224.579,330.971 226.579,331.637 228.5,332.5C 228.44,333.043 228.107,333.376 227.5,333.5C 225.402,333.043 223.736,332.043 222.5,330.5 Z"/></g>
<g><path style="opacity:1" fill="#3c96be" d="M 302.5,310.5 C 302.325,312.621 302.659,314.621 303.5,316.5C 301.462,320.261 299.796,324.261 298.5,328.5C 296.674,330.147 295.34,332.147 294.5,334.5C 290.377,336.459 287.377,339.626 285.5,344C 280.763,346.268 275.763,347.434 270.5,347.5C 270.804,346.85 271.137,346.183 271.5,345.5C 265.771,345.134 260.437,344.134 255.5,342.5C 257.099,342.768 258.432,342.434 259.5,341.5C 262.833,341.5 266.167,341.5 269.5,341.5C 274.769,342.68 279.436,341.346 283.5,337.5C 287.767,336.232 290.767,333.565 292.5,329.5C 295.515,328.63 296.515,326.964 295.5,324.5C 298.366,320.102 300.699,315.435 302.5,310.5 Z"/></g>
<g><path style="opacity:1" fill="#153244" d="M 292.5,329.5 C 290.767,333.565 287.767,336.232 283.5,337.5C 286.474,334.862 289.474,332.195 292.5,329.5 Z"/></g>
<g><path style="opacity:1" fill="#0d3a5e" d="M 298.5,328.5 C 298.155,331.198 296.822,333.198 294.5,334.5C 295.34,332.147 296.674,330.147 298.5,328.5 Z"/></g>
<g><path style="opacity:1" fill="#377084" d="M 229.5,333.5 C 239.24,337.102 249.24,339.768 259.5,341.5C 258.432,342.434 257.099,342.768 255.5,342.5C 249.268,341.021 242.934,339.854 236.5,339C 234.43,336.722 232.097,334.889 229.5,333.5 Z"/></g>
<g><path style="opacity:1" fill="#111313" d="M 141.5,392.5 C 139.15,394.213 138.15,396.547 138.5,399.5C 137.167,399.5 135.833,399.5 134.5,399.5C 136.783,386.473 139.283,373.473 142,360.5C 142.667,351.833 142.667,343.167 142,334.5C 141.551,331.868 140.717,329.368 139.5,327C 139.833,326.5 140.167,326 140.5,325.5C 142.146,326.779 143.313,328.445 144,330.5C 145,333.833 146,337.167 147,340.5C 147.502,357.819 145.336,374.819 140.5,391.5C 140.624,392.107 140.957,392.44 141.5,392.5 Z"/></g>
<g><path style="opacity:1" fill="#294d5f" d="M 283.5,337.5 C 279.436,341.346 274.769,342.68 269.5,341.5C 274.451,341.096 279.118,339.763 283.5,337.5 Z"/></g>
<g><path style="opacity:1" fill="#172f3e" d="M 151.5,327.5 C 153.109,330.149 153.943,333.149 154,336.5C 154.667,345.5 154.667,354.5 154,363.5C 153.943,366.851 153.109,369.851 151.5,372.5C 152.81,358.835 152.81,345.169 151.5,331.5C 151.5,330.167 151.5,328.833 151.5,327.5 Z"/></g>
<g><path style="opacity:1" fill="#070a0b" d="M 90.5,298.5 C 92.2161,298.629 93.8828,298.962 95.5,299.5C 73.7292,329.238 64.0626,362.571 66.5,399.5C 64.5,399.5 62.5,399.5 60.5,399.5C 58.1606,361.929 68.1606,328.262 90.5,298.5 Z"/></g>
<g><path style="opacity:1" fill="#377c92" d="M 312.5,356.5 C 316.602,357.609 318.269,360.275 317.5,364.5C 315.336,362.178 313.669,359.511 312.5,356.5 Z"/></g>
<g><path style="opacity:1" fill="#d0e4dd" d="M 354.5,399.5 C 350.833,399.5 347.167,399.5 343.5,399.5C 342.511,384.901 340.011,370.568 336,356.5C 331.964,343.381 326.964,330.714 321,318.5C 319.559,311.89 319.226,305.224 320,298.5C 342.516,328.209 354.016,361.876 354.5,399.5 Z"/></g>
<g><path style="opacity:1" fill="#154466" d="M 155.5,319.5 C 161.845,338.372 163.012,357.705 159,377.5C 158.295,380.476 157.129,383.142 155.5,385.5C 159.269,370.409 160.436,355.075 159,339.5C 157.518,332.888 156.351,326.221 155.5,319.5 Z"/></g>
<g><path style="opacity:1" fill="#17324a" d="M 151.5,372.5 C 151.472,375.916 150.472,378.916 148.5,381.5C 148.747,378.146 149.747,375.146 151.5,372.5 Z"/></g>
<g><path style="opacity:1" fill="#42829a" d="M 308.5,356.5 C 302.726,371.116 303.393,385.45 310.5,399.5C 309.5,399.5 308.5,399.5 307.5,399.5C 305.093,391.723 303.759,383.723 303.5,375.5C 303.586,370.788 304.086,366.121 305,361.5C 305.902,359.569 307.069,357.903 308.5,356.5 Z"/></g>
<g><path style="opacity:1" fill="#144862" d="M 148.5,381.5 C 148.539,384.089 147.539,386.089 145.5,387.5C 145.992,385.181 146.992,383.181 148.5,381.5 Z"/></g>
<g><path style="opacity:1" fill="#f5f9f2" d="M 312.5,356.5 C 313.669,359.511 315.336,362.178 317.5,364.5C 323.717,375.469 325.717,387.136 323.5,399.5C 321.5,399.5 319.5,399.5 317.5,399.5C 317.075,394.43 316.241,389.43 315,384.5C 314.979,389.527 315.479,394.527 316.5,399.5C 314.5,399.5 312.5,399.5 310.5,399.5C 303.393,385.45 302.726,371.116 308.5,356.5C 309.594,354.164 310.927,354.164 312.5,356.5 Z"/></g>
<g><path style="opacity:1" fill="#5c564d" d="M 311.5,366.5 C 313.508,371.553 314.341,376.886 314,382.5C 312.747,377.227 311.913,371.894 311.5,366.5 Z"/></g>
<g><path style="opacity:1" fill="#595557" d="M 317.5,399.5 C 317.167,399.5 316.833,399.5 316.5,399.5C 315.479,394.527 314.979,389.527 315,384.5C 316.241,389.43 317.075,394.43 317.5,399.5 Z"/></g>
</svg>
