<svg width="2059" height="258" viewBox="0 0 2059 258" fill="none" xmlns="http://www.w3.org/2000/svg">
	<g clip-path="url(#clip0_2091_66)">
		<path d="M1743 40C1759.07 39.9588 1775.13 39.9175 1791.69 39.875C1796.74 39.8568 1801.79 39.8386 1806.99 39.8198C1813.22 39.8108 1813.22 39.8108 1816.14 39.8091C1818.16 39.8061 1820.18 39.7991 1822.2 39.7889C1841.35 39.6967 1859.78 39.6575 1875 53C1875.6 53.5002 1876.21 54.0003 1876.83 54.5156C1884.2 61.131 1889.32 71.5351 1890.22 81.4072C1890.93 97.3177 1890.17 111.587 1879 124C1876.14 126.557 1873.15 128.808 1870 131C1868.66 131.996 1867.33 132.995 1866 134C1866.65 134.34 1867.3 134.681 1867.98 135.031C1877.79 140.471 1882.8 147.264 1886 158C1887.91 165.679 1888.48 173.308 1888.94 181.188C1889.78 193.848 1890.95 205.227 1896 217C1882.8 217 1869.6 217 1856 217C1853.96 210.873 1852.52 206.127 1851.97 199.922C1851.82 198.415 1851.66 196.909 1851.51 195.402C1851.28 193.082 1851.06 190.761 1850.85 188.44C1849.5 169.958 1849.5 169.958 1840.7 154.297C1833.07 148.467 1822.63 148.867 1813.47 148.684C1812.69 148.665 1811.91 148.646 1811.11 148.627C1808.24 148.559 1805.37 148.499 1802.5 148.438C1796.07 148.293 1789.63 148.149 1783 148C1783 170.77 1783 193.54 1783 217C1769.8 217 1756.6 217 1743 217C1743 158.59 1743 100.18 1743 40ZM1783 71C1783 87.17 1783 103.34 1783 120C1790.71 120.062 1798.43 120.124 1806.38 120.188C1808.79 120.215 1811.2 120.242 1813.69 120.27C1815.64 120.279 1817.58 120.287 1819.52 120.293C1821 120.316 1821 120.316 1822.51 120.34C1830.19 120.342 1837.17 119.245 1843.88 115.313C1849.87 108.785 1851.36 101.255 1851.2 92.6211C1850.7 86.0937 1849.05 81.5601 1844.19 77.0625C1836.11 70.6793 1826.57 70.8471 1816.69 70.9024C1815.4 70.9039 1815.4 70.9039 1814.09 70.9054C1810.92 70.9106 1807.74 70.9246 1804.56 70.9375C1797.45 70.9581 1790.33 70.9788 1783 71Z" fill="white" />
		<path d="M800 40C816.067 39.9587 832.134 39.9175 848.688 39.875C853.738 39.8568 858.788 39.8386 863.991 39.8198C870.216 39.8108 870.216 39.8108 873.142 39.8091C875.161 39.806 877.179 39.7991 879.198 39.7888C899.546 39.6909 918.612 39.9871 934.09 55.0312C945.381 66.9747 947.605 79.6249 947.309 95.5234C946.862 106.371 943.514 115.952 936 124C933.204 126.298 930.357 128.386 927.355 130.406C924.945 131.929 924.945 131.929 923 134C923.652 134.34 924.305 134.681 924.977 135.031C934.786 140.471 939.8 147.264 943 158C944.979 165.858 945.485 173.682 945.938 181.75C946.746 194.375 947.974 205.274 953 217C939.8 217 926.6 217 913 217C910.788 211.102 909.467 206.738 908.938 200.695C908.86 199.931 908.783 199.167 908.703 198.38C908.458 195.963 908.228 193.544 908 191.125C906.667 171.841 906.667 171.841 898 155C887.377 146.926 871.991 148.592 859.312 148.375C849.753 148.189 849.753 148.189 840 148C840 170.77 840 193.54 840 217C826.8 217 813.6 217 800 217C800 158.59 800 100.18 800 40ZM840 71C840 87.17 840 103.34 840 120C847.693 120.082 855.386 120.165 863.312 120.25C866.921 120.305 866.921 120.305 870.603 120.36C872.544 120.372 874.485 120.382 876.426 120.391C877.896 120.421 877.896 120.421 879.396 120.453C887.696 120.457 895.383 118.863 902 113.625C907.373 106.572 908.714 99.6684 908 91C906.928 83.9768 904.684 79.7183 899.047 75.3359C891.555 70.4459 882.321 70.854 873.691 70.9023C872.405 70.9038 872.405 70.9038 871.092 70.9054C867.915 70.9106 864.739 70.9245 861.562 70.9375C854.447 70.9581 847.331 70.9787 840 71Z" fill="white" />
		<path d="M560.747 54.0313C580.532 71.3131 590.78 94.2899 592.593 120.343C594.115 146.633 588.977 173.391 571.133 193.684C570.43 194.448 569.726 195.212 569.001 196C568.462 196.63 567.923 197.261 567.368 197.91C554.498 212.105 533.316 220.168 514.531 221.126C487.702 221.888 463.514 216.332 443.49 197.481C432.142 186.2 424.702 170.43 421.001 155C420.776 154.082 420.552 153.164 420.321 152.219C415.005 125.13 419.147 95.0784 434.479 71.9275C447.295 53.3402 465.297 41.8144 487.372 37.3125C513.138 33.1009 540.105 37.1928 560.747 54.0313ZM472.813 83C460.27 98.1582 456.768 118.125 458.397 137.344C459.738 150.001 463.075 161.82 471.001 172C471.578 172.866 472.156 173.733 472.751 174.625C481.591 183.956 492.443 187.831 505.063 188.25C517.663 188.062 527.874 184.446 537.251 175.965C550.309 162.338 553.495 143.839 553.212 125.613C552.664 109.585 548.822 93.8345 537.278 82.1172C536.151 81.0692 536.151 81.0692 535.001 80C534.363 79.4045 533.724 78.8089 533.067 78.1953C523.193 69.9427 511.335 69.059 499.004 69.8198C488.901 70.7286 479.805 75.7524 472.813 83Z" fill="white" />
		<path d="M2036.88 52.75C2045.95 61.392 2052.05 73.4493 2053 86C2053 88.64 2053 91.28 2053 94C2040.13 94 2027.26 94 2014 94C2013.34 90.7 2012.68 87.4 2012 84C2008.4 77.1947 2005.03 72.9478 1997.63 70.3125C1987.03 67.0994 1975.12 66.4389 1964.8 70.9648C1959.54 73.8511 1956.75 77.2462 1955 83C1954.37 88.2206 1954.99 91.6661 1958 96C1963.57 100.454 1969.77 102.461 1976.56 104.312C1978.09 104.746 1978.09 104.746 1979.65 105.189C1985.76 106.899 1991.89 108.496 1998.04 110.051C1998.72 110.224 1999.41 110.397 2000.11 110.575C2003.45 111.422 2006.79 112.258 2010.14 113.072C2027.74 117.465 2043.55 124.525 2053.53 140.441C2060.95 154.214 2060.28 169.285 2056 184C2051.17 197.372 2040.44 206.989 2027.94 213.125C2003.29 224.046 1973.05 224.337 1947.77 215.148C1932.03 208.612 1919.67 197.511 1913 181.684C1909.95 173.51 1910 167.095 1910 158C1922.54 158 1935.08 158 1948 158C1948.99 162.29 1949.98 166.58 1951 171C1955.76 180.173 1962.21 184.611 1971.94 187.875C1985.01 191.004 1999.73 190.382 2011.44 183.562C2015.39 180.911 2017.48 178.554 2019 174C2019.39 169.52 2019.56 165.397 2017.88 161.187C2007.81 149.444 1991.46 146.524 1977.06 143C1933.18 132.238 1933.18 132.238 1921.69 114.187C1915.15 102.25 1913.59 87.7114 1917.13 74.4375C1922.72 59.3731 1933.12 49.6921 1947.31 42.75C1974.9 30.5505 2013.28 33.2658 2036.88 52.75Z" fill="white" />
		<path d="M617 40C630.2 40 643.4 40 657 40C657.029 45.382 657.029 45.382 657.06 50.8728C657.127 62.7392 657.204 74.6055 657.287 86.4719C657.337 93.6651 657.384 100.858 657.421 108.052C657.454 114.324 657.494 120.597 657.542 126.869C657.567 130.188 657.588 133.506 657.603 136.825C657.62 140.538 657.649 144.25 657.681 147.963C657.683 149.052 657.685 150.142 657.687 151.265C657.772 158.988 658.001 166.935 662.625 173.438C665 176.835 665 176.835 665 179C665.583 179.289 666.167 179.577 666.769 179.875C668.132 180.562 669.486 181.266 670.824 182C681.828 187.906 694.482 188.632 706.589 185.738C714.78 183.229 719.586 180.379 723.843 172.793C727.007 165.151 727.303 158.066 727.318 149.893C727.328 148.701 727.338 147.51 727.349 146.283C727.374 143.04 727.391 139.797 727.404 136.553C727.42 133.156 727.447 129.758 727.472 126.36C727.519 119.936 727.556 113.511 727.589 107.087C727.627 99.7691 727.677 92.451 727.727 85.133C727.83 70.0887 727.918 55.0444 728 40C741.2 40 754.4 40 768 40C768.068 55.6478 768.123 71.2954 768.155 86.9433C768.17 94.2104 768.191 101.477 768.226 108.744C768.256 115.085 768.275 121.426 768.282 127.767C768.286 131.118 768.296 134.469 768.317 137.82C768.458 162.034 767.279 183.995 749.875 202.625C732.538 219.21 709.045 221.619 686.187 221.25C666.29 220.642 646.102 214.749 632 200C615.712 180.794 616.559 155.803 616.707 132.09C616.712 129.424 616.717 126.758 616.719 124.091C616.729 117.837 616.753 111.584 616.783 105.33C616.817 98.1977 616.834 91.0657 616.849 83.9336C616.88 69.289 616.935 54.6445 617 40Z" fill="white" />
		<path d="M1626.79 39.8865C1628.47 39.8866 1630.16 39.8923 1631.85 39.9023C1633.18 39.9045 1633.18 39.9045 1634.53 39.9066C1637.38 39.9122 1640.22 39.9248 1643.06 39.9375C1644.99 39.9425 1646.91 39.9471 1648.83 39.9512C1653.55 39.9622 1658.28 39.9795 1663 40C1666.6 47.8023 1669.63 55.79 1672.63 63.8359C1673.18 65.2979 1673.72 66.7598 1674.27 68.2215C1675.74 72.1285 1677.2 76.0366 1678.65 79.9451C1680.18 84.0295 1681.71 88.1127 1683.24 92.196C1686.83 101.796 1690.42 111.398 1694 121C1694.5 122.327 1694.99 123.654 1695.49 124.982C1700.24 137.729 1704.99 150.479 1709.74 163.232C1712 169.311 1714.27 175.386 1716.54 181.46C1718.06 185.529 1719.58 189.599 1721.11 193.669C1721.82 195.579 1722.54 197.49 1723.25 199.399C1724.23 201.995 1725.2 204.593 1726.17 207.191C1726.6 208.343 1726.6 208.343 1727.05 209.519C1729 214.772 1729 214.772 1729 217C1715.47 217 1701.94 217 1688 217C1683.49 205.731 1683.49 205.731 1681.64 200.188C1681.25 199.011 1680.85 197.834 1680.45 196.621C1680.05 195.426 1679.66 194.231 1679.25 193C1678.84 191.774 1678.43 190.548 1678 189.285C1677.62 188.119 1677.23 186.952 1676.83 185.75C1676.48 184.693 1676.12 183.636 1675.76 182.547C1675 180 1675 180 1675 178C1653.55 178.33 1632.1 178.66 1610 179C1605.76 191.131 1605.76 191.131 1601.53 203.263C1601 204.779 1600.47 206.294 1599.94 207.809C1599.67 208.602 1599.39 209.396 1599.11 210.214C1597.11 215.886 1597.11 215.886 1596 217C1593.04 217.089 1590.11 217.115 1587.15 217.098C1585.82 217.096 1585.82 217.096 1584.47 217.093C1581.62 217.088 1578.78 217.075 1575.94 217.062C1574.01 217.057 1572.09 217.053 1570.17 217.049C1565.45 217.038 1560.72 217.021 1556 217C1561.09 202.189 1566.51 187.518 1572.06 172.875C1572.93 170.57 1573.81 168.264 1574.68 165.959C1577.45 158.638 1580.22 151.319 1583 144C1583.93 141.537 1584.87 139.074 1585.8 136.61C1589.52 126.814 1593.23 117.018 1596.95 107.224C1601.36 95.6122 1605.76 83.9967 1610.13 72.3711C1610.93 70.2448 1611.73 68.1185 1612.53 65.9922C1614.02 62.0415 1615.51 58.0895 1616.99 54.1367C1617.64 52.3919 1618.3 50.6471 1618.96 48.9023C1619.4 47.7101 1619.4 47.7101 1619.86 46.4938C1622.3 40.021 1622.3 40.021 1626.79 39.8865ZM1642 86C1639.26 93.6388 1636.52 101.279 1633.79 108.923C1632.52 112.471 1631.25 116.019 1629.97 119.566C1628.74 122.988 1627.52 126.412 1626.3 129.837C1625.83 131.144 1625.36 132.45 1624.89 133.756C1624.23 135.584 1623.58 137.414 1622.93 139.243C1622.55 140.285 1622.18 141.326 1621.8 142.399C1620.85 145.025 1620.85 145.025 1621 148C1635.19 148 1649.38 148 1664 148C1661.74 139.563 1661.74 139.563 1659.13 131.285C1658.8 130.311 1658.46 129.337 1658.12 128.334C1657.77 127.325 1657.42 126.317 1657.06 125.277C1656.51 123.676 1656.51 123.676 1655.94 122.043C1655.17 119.81 1654.4 117.577 1653.62 115.345C1652.43 111.918 1651.25 108.487 1650.07 105.057C1649.32 102.88 1648.56 100.704 1647.81 98.5273C1647.46 97.5004 1647.1 96.4734 1646.74 95.4153C1646.41 94.4699 1646.08 93.5245 1645.74 92.5505C1645.45 91.7177 1645.16 90.8848 1644.87 90.0267C1644.07 87.8262 1644.07 87.8262 1642 86Z" fill="white" />
		<path d="M1046 40C1155 40 1155 40 1173.71 57.5508C1186.29 70.9956 1187.64 88.0456 1187.13 105.52C1186.49 117.541 1181.05 130.839 1172 139C1168.79 141.543 1165.47 143.819 1162 146C1161.39 146.392 1160.77 146.784 1160.14 147.188C1145.13 155.687 1127.59 154.485 1111 154.25C1102.75 154.167 1094.5 154.085 1086 154C1086 174.79 1086 195.58 1086 217C1072.8 217 1059.6 217 1046 217C1046 158.59 1046 100.18 1046 40ZM1086 71C1086 88.16 1086 105.32 1086 123C1092.25 123.041 1098.5 123.082 1104.94 123.125C1106.89 123.143 1108.85 123.161 1110.86 123.18C1112.44 123.186 1114.01 123.191 1115.59 123.195C1116.39 123.206 1117.18 123.216 1118 123.226C1128.35 123.229 1136.77 121.087 1144.31 113.75C1148.93 106.231 1150.36 98.1892 1148.46 89.543C1146.45 82.8848 1143.77 78.781 1137.62 75.3125C1126.26 70.1378 1113.36 70.7307 1101.12 70.875C1093.64 70.9369 1093.64 70.9369 1086 71Z" fill="white" />
		<path d="M281 40C321.92 40 362.84 40 405 40C405 51.22 405 62.44 405 74C376.95 74 348.9 74 320 74C320 86.87 320 99.74 320 113C344.42 113 368.84 113 394 113C394 123.56 394 134.12 394 145C369.58 145 345.16 145 320 145C320 168.76 320 192.52 320 217C307.13 217 294.26 217 281 217C281 158.59 281 100.18 281 40Z" fill="white" />
		<path d="M1283 40C1296.2 40 1309.4 40 1323 40C1323 87.52 1323 135.04 1323 184C1351.05 184 1379.1 184 1408 184C1408 194.89 1408 205.78 1408 217C1366.75 217 1325.5 217 1283 217C1283 158.59 1283 100.18 1283 40Z" fill="white" />
		<path d="M1429 40C1441.87 40 1454.74 40 1468 40C1468 87.52 1468 135.04 1468 184C1496.38 184 1524.76 184 1554 184C1554 194.89 1554 205.78 1554 217C1512.75 217 1471.5 217 1429 217C1429 158.59 1429 100.18 1429 40Z" fill="white" />
		<path d="M1210 40C1223.2 40 1236.4 40 1250 40C1250 98.41 1250 156.82 1250 217C1236.8 217 1223.6 217 1210 217C1210 158.59 1210 100.18 1210 40Z" fill="white" />
		<path d="M51.9994 45C52.6259 45.3493 53.2524 45.6987 53.8978 46.0586C59.0601 49.316 62.0491 53.7341 64.9994 59C65.3423 59.6046 65.6852 60.2091 66.0385 60.832C69.4143 68.0728 69.119 77.2877 67.308 84.9102C63.7955 94.4189 58.013 101.326 48.9994 106C39.836 109.873 30.8717 110.216 21.4486 107.035C11.9318 103.013 6.02088 96.6747 1.6244 87.4375C-2.05345 77.3351 -0.850583 67.2065 3.51503 57.5859C8.32695 49.2031 15.5877 43.6568 24.8744 41C34.5802 38.9941 43.3858 40.0946 51.9994 45Z" fill="white" />
		<path d="M169.313 48.25C175.661 54.2383 179.591 61.176 180.337 69.9531C180.594 82.0516 179.026 90.8454 170.419 99.9531C162.722 106.469 153.779 109.443 143.809 109.266C133.313 108.273 125.972 103.739 119.001 96C112.543 87.9011 111.106 79.1834 112.001 69C113.683 59.4283 118.6 52.3893 126.079 46.3164C139.319 37.2479 156.889 38.0782 169.313 48.25Z" fill="white" />
		<path d="M168.25 159.625C173.946 164.157 177.811 171.116 180 178C181.099 190.611 180.18 200.288 171.875 210.313C165.944 216.547 158.782 220.516 150.152 221.238C139.171 221.492 130.532 219.173 122.008 212.055C115.226 205.114 112.02 196.846 111.625 187.25C111.819 177.536 115.296 169.044 122 162C135.423 149.747 153.411 149.807 168.25 159.625Z" fill="white" />
		<path d="M49.6914 155.551C58.5622 161.119 64.4049 167.878 67.6016 177.883C69.3493 187.17 68.5517 196.679 64 205C58.1375 213.483 50.211 219.096 40 221C28.9023 221.883 19.7785 220.36 11.1094 213.09C3.41073 205.462 0.011972 198.038 -0.375 187.25C-0.156642 176.401 2.95906 169.005 10.4844 161.168C20.8423 152.242 37.1695 149.533 49.6914 155.551Z" fill="white" />
	</g>
	<defs>
		<clipPath id="clip0_2091_66">
			<rect width="2059" height="258" fill="white" />
		</clipPath>
	</defs>
</svg>
