<svg width="84" height="17" viewBox="0 0 84 17" fill="none" xmlns="http://www.w3.org/2000/svg">
	<path d="M8.08413 0.516858C8.18133 0.516066 8.27852 0.515274 8.37866 0.514457C8.53703 0.513931 8.53703 0.513931 8.6986 0.513395C8.80683 0.512925 8.91507 0.512455 9.02658 0.51197C9.25614 0.511103 9.48569 0.510622 9.71525 0.510334C10.0083 0.509884 10.3013 0.507905 10.5943 0.505553C10.8748 0.503639 11.1552 0.503485 11.4357 0.503086C11.5405 0.502067 11.6452 0.501049 11.7531 0.5C12.4207 0.501678 12.873 0.506212 13.3653 0.995374C13.5981 1.30426 13.7622 1.64557 13.9277 1.99374C13.9612 2.06293 13.9948 2.13211 14.0293 2.20339C14.1377 2.42711 14.245 2.6513 14.3523 2.87551C14.4273 3.03101 14.5024 3.18648 14.5776 3.34192C14.7886 3.77881 14.9984 4.21625 15.2079 4.65386C15.2546 4.7512 15.3013 4.84855 15.3494 4.94884C15.4905 5.2433 15.6314 5.53783 15.7716 5.83274C16.0026 6.31826 16.2373 6.80193 16.4734 7.28498C16.6049 7.55398 16.7363 7.82299 16.8677 8.092C16.9166 8.19201 16.9166 8.19201 16.9665 8.29404C17.3607 9.1016 17.7457 9.9113 18.1075 10.734C18.2996 11.1676 18.5132 11.5841 18.741 11.9998C19.1258 12.7075 19.4658 13.4379 19.8068 14.1674C19.8703 14.3033 19.9343 14.4389 19.9989 14.5742C20.0735 14.7307 20.1462 14.8879 20.2183 15.0456C20.257 15.129 20.2956 15.2123 20.3355 15.2982C20.4209 15.6011 20.3919 15.8131 20.3213 16.1178C20.1345 16.3544 20.0313 16.4344 19.744 16.5301C19.5701 16.5388 19.3959 16.5424 19.2218 16.5434C19.1138 16.5442 19.0059 16.545 18.8947 16.5458C18.7765 16.5462 18.6583 16.5466 18.5401 16.5469C18.4185 16.5474 18.297 16.5478 18.1754 16.5483C17.9202 16.5492 17.665 16.5497 17.4098 16.55C17.0847 16.5504 16.7597 16.5524 16.4346 16.5547C16.1832 16.5563 15.9318 16.5567 15.6804 16.5568C15.5607 16.5571 15.4409 16.5577 15.3212 16.5588C14.3817 16.5668 13.5913 16.4946 12.8317 15.9064C12.7831 15.8703 12.7346 15.8342 12.6846 15.7971C12.535 15.6853 12.3869 15.5718 12.2389 15.458C12.1474 15.3885 12.0559 15.319 11.9644 15.2495C11.7408 15.079 11.5184 14.9069 11.2965 14.7342C9.16884 13.0612 9.16885 13.0612 6.96052 11.4992C6.82473 11.7827 6.68901 12.0662 6.5533 12.3497C6.49154 12.4787 6.49154 12.4787 6.42853 12.6102C6.20286 13.0817 5.97892 13.5539 5.75748 14.0274C5.61065 14.3403 5.46161 14.6521 5.31104 14.9631C5.28201 15.0232 5.25299 15.0832 5.22309 15.1451C5.13889 15.3173 5.05271 15.4883 4.96568 15.659C4.91688 15.7559 4.86808 15.8527 4.8178 15.9525C4.61918 16.2479 4.47177 16.3635 4.1564 16.5301C3.88592 16.576 3.62061 16.5745 3.3468 16.5711C3.26976 16.5712 3.19272 16.5713 3.11335 16.5714C2.95108 16.5713 2.7888 16.5703 2.62654 16.5686C2.37855 16.5662 2.13071 16.5669 1.88272 16.568C1.7247 16.5675 1.56667 16.5668 1.40865 16.5659C1.29781 16.5663 1.29781 16.5663 1.18474 16.5666C0.789982 16.5607 0.515119 16.5437 0.197635 16.2827C-0.0237901 15.9506 -0.0263618 15.6766 0.0326864 15.293C0.154372 14.952 0.315467 14.6352 0.48114 14.3137C0.572575 14.1301 0.663962 13.9466 0.755302 13.7631C0.800739 13.673 0.846175 13.5828 0.892988 13.49C1.07297 13.13 1.24381 12.7659 1.41413 12.4013C1.69346 11.8085 1.98174 11.2208 2.27818 10.6365C2.36812 10.457 2.45585 10.2763 2.53977 10.0939C2.74474 9.65137 2.92396 9.38222 3.33166 9.10747C3.58505 9.023 3.76265 9.01306 4.02824 9.0104C4.16619 9.00881 4.16619 9.00881 4.30693 9.00719C4.40642 9.00658 4.5059 9.00597 4.60839 9.00534C4.71082 9.00467 4.81325 9.00401 4.91879 9.00332C5.13586 9.00218 5.35292 9.00127 5.57 9.00065C5.79183 8.99992 6.01361 8.9982 6.23543 8.99557C6.55564 8.99205 6.8758 8.99072 7.19602 8.98988C7.29467 8.98843 7.39332 8.98699 7.49496 8.9855C8.26628 8.9875 8.72465 9.17177 9.34196 9.63839C9.45758 9.72451 9.45758 9.72451 9.57553 9.81236C9.63958 9.86028 9.63958 9.86028 9.70492 9.90917C9.98556 10.1174 10.2698 10.3208 10.5533 10.525C10.6822 10.618 10.811 10.711 10.9399 10.804C11.0048 10.8508 11.0696 10.8976 11.1364 10.9458C11.327 11.0835 11.5175 11.2214 11.7079 11.3594C12.5403 11.9622 13.3773 12.5579 14.2183 13.1487C14.1931 13.0993 14.1679 13.0498 14.1419 12.9989C13.6433 12.0115 13.1724 11.0104 12.697 10.0117C12.3015 9.18109 11.9055 8.35135 11.4907 7.53021C11.2381 7.02825 10.998 6.52057 10.759 6.01203C10.7151 5.91862 10.7151 5.91862 10.6702 5.82332C10.6287 5.73477 10.6287 5.73477 10.5863 5.64444C10.5141 5.49356 10.438 5.34453 10.3616 5.19574C10.2595 4.98376 10.2595 4.98376 10.2595 4.81881C10.2051 4.81881 10.1506 4.81881 10.0945 4.81881C10.0837 4.86655 10.0729 4.91429 10.0617 4.96348C9.97894 5.27225 9.84091 5.55464 9.70794 5.84458C9.68099 5.90651 9.65404 5.96844 9.62628 6.03224C9.40962 6.50325 9.16727 6.80822 8.69248 7.04561C8.58061 7.05501 8.46831 7.05957 8.35606 7.06152C8.28667 7.06284 8.21728 7.06417 8.14578 7.06553C7.82787 7.0692 7.50997 7.07259 7.19204 7.07449C7.02453 7.07585 6.85703 7.0781 6.68954 7.08125C6.4478 7.08578 6.20617 7.08757 5.96439 7.08878C5.88989 7.09065 5.81538 7.09252 5.73863 7.09445C5.38478 7.09327 5.13811 7.07856 4.85298 6.85654C4.63991 6.6207 4.57159 6.46278 4.55496 6.14419C4.57834 5.85509 4.68515 5.61132 4.81104 5.35489C4.8373 5.29827 4.86357 5.24165 4.89063 5.18332C4.9738 5.00579 5.05944 4.8297 5.14609 4.65386C5.17309 4.59891 5.2001 4.54396 5.22792 4.48734C5.36272 4.21444 5.49956 3.94264 5.63739 3.67126C5.81463 3.32017 5.98045 2.96414 6.14609 2.60747C7.12301 0.523166 7.12301 0.523166 8.08413 0.516858Z" fill="white" />
	<path d="M31.0688 0.542969C32.0486 0.542969 33.0284 0.542969 34.0379 0.542969C34.7305 2.25678 34.7305 2.25678 35.0028 3.05586C35.125 3.38765 35.2614 3.71201 35.3983 4.03798C35.6556 4.65732 35.9025 5.28094 36.1513 5.90379C36.1803 5.97628 36.2092 6.04877 36.2391 6.12346C37.494 9.26394 37.494 9.26394 38.0585 10.7646C38.419 11.7224 38.8086 12.6686 39.1963 13.6156C39.4447 14.2232 39.6894 14.8319 39.9213 15.446C39.9411 15.4983 39.961 15.5506 39.9815 15.6045C40.1079 15.943 40.2061 16.2759 40.3059 16.6254C39.3806 16.6254 38.4552 16.6254 37.5018 16.6254C37.3351 16.2036 37.1684 15.7817 36.9967 15.3471C36.9452 15.217 36.8937 15.0869 36.8407 14.9529C36.6077 14.3631 36.3771 13.7724 36.1519 13.1796C36.1312 13.1257 36.1105 13.0718 36.0892 13.0162C35.9818 12.7315 35.9126 12.4732 35.8523 12.1718C33.675 12.1718 31.4977 12.1718 29.2544 12.1718C29.1727 12.4168 29.0911 12.6617 29.007 12.9141C28.9262 13.127 28.8444 13.3387 28.7599 13.5501C28.7372 13.6073 28.7145 13.6645 28.6912 13.7234C28.6197 13.9039 28.5479 14.0843 28.476 14.2646C28.3815 14.5023 28.2871 14.7401 28.1929 14.9779C28.1703 15.0347 28.1477 15.0916 28.1245 15.1502C27.9632 15.5587 27.8111 15.97 27.6661 16.3847C27.6049 16.543 27.6049 16.543 27.5224 16.6254C27.3205 16.6327 27.1209 16.635 26.919 16.6335C26.8587 16.6334 26.7984 16.6333 26.7363 16.6331C26.543 16.6327 26.3497 16.6316 26.1565 16.6306C26.0257 16.6302 25.895 16.6298 25.7642 16.6295C25.4431 16.6286 25.1219 16.6271 24.8008 16.6254C24.9617 16.0568 25.1533 15.5089 25.3729 14.9605C25.4387 14.7944 25.5044 14.6283 25.5701 14.4621C25.6054 14.3731 25.6406 14.2841 25.6769 14.1923C25.7997 13.8804 25.921 13.568 26.0418 13.2553C26.074 13.1719 26.074 13.1719 26.1068 13.0869C26.192 12.8662 26.2771 12.6456 26.3622 12.4249C26.7249 11.4839 27.0988 10.5477 27.4754 9.61225C28.0068 8.29208 28.5335 6.97101 29.0294 5.637C29.2444 5.06198 29.4775 4.49725 29.7216 3.93418C29.8455 3.64483 29.9568 3.3544 30.0637 3.05843C30.3746 2.21022 30.7244 1.37802 31.0688 0.542969Z" fill="white" />
	<path d="M49.2541 5.73194C49.3219 5.7886 49.3898 5.84527 49.4597 5.90365C49.5486 5.97717 49.5486 5.97717 49.6394 6.05217C50.5796 6.90637 51.0918 8.20305 51.1916 9.45004C51.2023 9.73024 51.2032 10.0099 51.2019 10.2902C51.2022 10.3625 51.2026 10.4347 51.2029 10.5092C51.2027 10.6143 51.2027 10.6143 51.2026 10.7216C51.2025 10.7844 51.2024 10.8471 51.2023 10.9118C51.1916 11.0995 51.1916 11.0995 51.1091 11.5119C48.2786 11.5119 45.4481 11.5119 42.5318 11.5119C42.7711 12.7084 42.9764 13.6902 44.0164 14.3985C44.8314 14.9014 45.8796 14.9329 46.7947 14.7232C47.423 14.5294 48.0322 14.1363 48.3875 13.5738C48.4419 13.4377 48.4964 13.3016 48.5524 13.1614C49.3689 13.1614 50.1854 13.1614 51.0267 13.1614C50.6991 14.4715 50.0263 15.4736 48.8823 16.2129C47.3801 17.0677 45.5757 17.1087 43.9339 16.7078C42.6234 16.3138 41.4114 15.4529 40.7428 14.231C40.2367 13.0827 40.0428 12.0309 40.0421 10.7799C40.0411 10.6876 40.0401 10.5952 40.0391 10.5C40.0363 8.8956 40.5489 7.4083 41.6401 6.21486C41.8897 5.9706 42.1607 5.76935 42.4494 5.57375C42.501 5.53729 42.5527 5.50082 42.6059 5.46325C44.4967 4.19371 47.4823 4.34788 49.2541 5.73194Z" fill="white" />
	<path d="M60.2637 0.542969C61.0802 0.542969 61.8967 0.542969 62.7379 0.542969C62.7651 2.50256 62.7923 4.46214 62.8204 6.48111C62.9292 6.31781 63.0381 6.15451 63.1503 5.98627C63.7158 5.28701 64.4994 4.82599 65.3922 4.68698C66.7678 4.56678 68.104 4.70728 69.2308 5.58388C69.9696 6.26352 70.511 7.22822 70.5877 8.24357C70.5931 8.4635 70.5934 8.68284 70.5917 8.90283C70.5917 8.98578 70.5917 9.06873 70.5917 9.15419C70.5916 9.42641 70.5904 9.6986 70.5891 9.9708C70.5888 10.1603 70.5885 10.3498 70.5884 10.5393C70.5877 11.0367 70.5861 11.534 70.5843 12.0313C70.5826 12.5394 70.5818 13.0475 70.581 13.5555C70.5792 14.5513 70.5763 15.5472 70.5729 16.543C69.7837 16.543 68.9944 16.543 68.1812 16.543C68.18 16.3233 68.1788 16.1036 68.1776 15.8773C68.1734 15.1485 68.1679 14.4197 68.1618 13.6909C68.1581 13.2493 68.1548 12.8078 68.1526 12.3663C68.1505 11.9395 68.1471 11.5128 68.143 11.0861C68.1416 10.9239 68.1407 10.7617 68.1402 10.5996C68.1803 8.93815 68.1803 8.93815 67.4744 7.50238C66.8851 6.9692 66.2817 6.8704 65.5024 6.88092C64.9386 6.91501 64.5363 7.10101 64.0575 7.38833C64.0031 7.38833 63.9486 7.38833 63.8925 7.38833C63.8925 7.44276 63.8925 7.4972 63.8925 7.55328C63.8032 7.63493 63.8032 7.63493 63.7121 7.71823C62.9216 8.48631 62.7973 9.68323 62.7816 10.7252C62.7797 10.9415 62.7789 11.1578 62.7782 11.3742C62.7768 11.5262 62.7753 11.6783 62.7737 11.8303C62.7698 12.2273 62.7673 12.6243 62.7652 13.0213C62.7627 13.4277 62.7588 13.8341 62.7551 14.2405C62.7481 15.0354 62.7426 15.8304 62.7379 16.6254C61.9214 16.6254 61.1049 16.6254 60.2637 16.6254C60.2637 11.3182 60.2637 6.01101 60.2637 0.542969Z" fill="#FCFCFC" />
	<path d="M52.5932 1.4502C53.4097 1.4502 54.2262 1.4502 55.0674 1.4502C55.0674 2.6205 55.0674 3.79081 55.0674 4.99659C56.3194 4.99659 57.5713 4.99659 58.8612 4.99659C58.8612 5.70422 58.8612 6.41184 58.8612 7.14092C57.6093 7.14092 56.3573 7.14092 55.0674 7.14092C55.0674 9.56318 55.0674 11.9855 55.0674 14.4811C56.3194 14.4811 57.5713 14.4811 58.8612 14.4811C58.8612 15.1615 58.8612 15.8419 58.8612 16.543C58.2405 16.5487 57.6199 16.5536 56.9992 16.5566C56.7883 16.5578 56.5773 16.5595 56.3664 16.5616C56.0624 16.5647 55.7584 16.5661 55.4543 16.5671C55.3607 16.5684 55.2671 16.5697 55.1707 16.571C54.4102 16.5712 53.7808 16.4728 53.2117 15.938C52.5267 15.178 52.5696 14.2448 52.5744 13.2849C52.5745 13.1556 52.5745 13.0263 52.5744 12.897C52.5743 12.5476 52.5753 12.1982 52.5764 11.8487C52.5775 11.483 52.5776 11.1172 52.5778 10.7514C52.5783 10.0595 52.5796 9.36754 52.5813 8.6756C52.5831 7.88756 52.584 7.09951 52.5849 6.31147C52.5866 4.69104 52.5896 3.07062 52.5932 1.4502Z" fill="white" />
	<path d="M79.9878 4.98044C80.0821 4.98067 80.1763 4.98091 80.2734 4.98115C80.5726 4.98207 80.8717 4.98414 81.1708 4.98624C81.3744 4.98707 81.578 4.98782 81.7816 4.98849C82.279 4.99017 82.7764 4.9934 83.2739 4.99655C83.2739 5.70418 83.2739 6.41181 83.2739 7.14088C81.9947 7.14088 80.7155 7.14088 79.3976 7.14088C79.3976 10.2708 79.3976 13.4007 79.3976 16.6254C78.5811 16.6254 77.7646 16.6254 76.9234 16.6254C76.9178 15.4045 76.9132 14.1835 76.9105 12.9625C76.9093 12.3955 76.9075 11.8285 76.9047 11.2615C76.902 10.714 76.9005 10.1664 76.8999 9.61878C76.8994 9.41029 76.8985 9.20179 76.8972 8.9933C76.8954 8.70036 76.8952 8.40746 76.8953 8.11452C76.8944 8.0291 76.8935 7.94367 76.8926 7.85566C76.8962 7.00045 77.0396 6.19566 77.6656 5.57387C78.3666 5.00496 79.1183 4.97225 79.9878 4.98044Z" fill="white" />
	<path d="M72.4707 4.99658C73.2872 4.99658 74.1037 4.99658 74.9449 4.99658C74.9449 8.83411 74.9449 12.6716 74.9449 16.6254C74.1284 16.6254 73.3119 16.6254 72.4707 16.6254C72.4707 12.7879 72.4707 8.9504 72.4707 4.99658Z" fill="white" />
	<path d="M32.4699 3.51221C32.5243 3.51221 32.5787 3.51221 32.6348 3.51221C32.6634 3.58875 32.6919 3.66529 32.7213 3.74415C33.0325 4.57705 33.349 5.40781 33.6684 6.23762C33.7482 6.44525 33.828 6.65294 33.9077 6.86063C34.4163 8.19201 34.4163 8.19201 34.9578 9.51013C35.0266 9.69777 35.0266 9.69777 35.0266 9.9452C33.3936 9.9452 31.7606 9.9452 30.0781 9.9452C30.1395 9.577 30.1992 9.31663 30.3317 8.97935C30.3661 8.89101 30.4004 8.80268 30.4359 8.71167C30.4726 8.61863 30.5093 8.52559 30.5472 8.42973C30.6233 8.23473 30.6993 8.03972 30.7753 7.84468C30.8119 7.75102 30.8485 7.65736 30.8863 7.56085C31.0031 7.26045 31.1159 6.95886 31.2276 6.65654C31.4644 6.02143 31.7119 5.39054 31.9596 4.75963C31.9801 4.70724 32.0007 4.65486 32.0218 4.60089C32.0806 4.45123 32.1394 4.30163 32.1983 4.15203C32.2327 4.06454 32.2671 3.97706 32.3026 3.88693C32.3874 3.67716 32.3874 3.67716 32.4699 3.51221Z" fill="#030303" />
	<path d="M47.7381 7.28863C48.2459 7.77305 48.5722 8.25627 48.7168 8.95519C48.7168 9.20014 48.7168 9.44509 48.7168 9.69746C46.6756 9.69746 44.6343 9.69746 42.5312 9.69746C42.8087 8.58767 43.0469 7.72177 44.0158 7.05829C45.1308 6.42716 46.7301 6.4413 47.7381 7.28863Z" fill="#040404" />
	<path d="M74.2849 0.0482064C74.6926 0.233868 75.0258 0.53488 75.1921 0.955423C75.3237 1.48487 75.2929 1.95746 75.0272 2.43996C74.7361 2.78304 74.4023 3.01923 73.955 3.09975C73.431 3.10648 73.062 2.98852 72.6354 2.68738C72.3175 2.36085 72.1485 2.04702 72.1348 1.58558C72.1679 0.943289 72.3938 0.619672 72.8364 0.177072C73.3119 -0.0314783 73.7752 -0.0290897 74.2849 0.0482064Z" fill="#FAFAFA" />
	<path d="M26.6151 11.7593C26.6967 11.8409 26.7784 11.9226 26.8625 12.0067C26.8353 12.0849 26.808 12.1632 26.78 12.2438C26.6891 12.4826 26.6891 12.4826 26.6975 12.6665C26.5614 12.6937 26.4254 12.7209 26.2852 12.749C26.3951 12.4191 26.5051 12.0892 26.6151 11.7593Z" fill="#E2E2E2" />
	<path d="M49.8718 15.3057C49.9262 15.3329 49.9807 15.3601 50.0367 15.3881C49.9543 15.5531 49.8718 15.718 49.7893 15.883C49.7349 15.883 49.6805 15.883 49.6244 15.883C49.5972 15.9374 49.5699 15.9918 49.5419 16.0479C49.4875 16.0207 49.433 15.9935 49.377 15.9655C49.4959 15.6879 49.6518 15.511 49.8718 15.3057Z" fill="#151515" />
	<path d="M29.2528 12.2543C29.4693 12.2388 29.4693 12.2388 29.6652 12.2543C29.5836 12.3767 29.5836 12.3767 29.5003 12.5017C29.4186 12.5017 29.337 12.5017 29.2528 12.5017C29.2256 12.5561 29.1984 12.6106 29.1704 12.6666C29.1431 12.6122 29.1159 12.5578 29.0879 12.5017C29.1423 12.42 29.1968 12.3384 29.2528 12.2543Z" fill="#0A0A0A" />
	<path d="M30.4911 1.94482C30.5728 2.02647 30.6544 2.10812 30.7385 2.19225C30.7113 2.2739 30.6841 2.35555 30.6561 2.43967C30.486 2.49637 30.486 2.49637 30.3262 2.52214C30.3806 2.33163 30.435 2.14111 30.4911 1.94482Z" fill="#E1E1E1" />
</svg>
