<svg width="32" height="32" viewBox="0 0 32 32" fill="none" xmlns="http://www.w3.org/2000/svg">
<g clip-path="url(#clip0_487_406)">
<path fill-rule="evenodd" clip-rule="evenodd" d="M16.0167 31.9886C24.842 31.9886 31.9964 24.8343 31.9964 16.0089C31.9964 7.18363 24.842 0.0292969 16.0167 0.0292969C7.19143 0.0292969 0.0371094 7.18363 0.0371094 16.0089C0.0371094 24.8343 7.19143 31.9886 16.0167 31.9886ZM13.8959 7.36473H18.1364C18.6248 7.36473 19.0699 7.64342 19.2818 8.08153L25.9763 21.9203C26.2475 22.4809 25.8375 23.1313 25.2123 23.1313H20.4166C19.8232 23.1313 19.2469 22.937 18.7743 22.5792L12.8511 18.0893L10.7013 22.5338C10.5244 22.899 10.1534 23.1313 9.74658 23.1313H6.82112C6.19595 23.1313 5.78588 22.4809 6.05714 21.9203L8.70502 16.4425C8.91698 16.0044 9.36198 15.7257 9.85044 15.7257H13.8504C14.1185 15.7257 14.379 15.8102 14.5964 15.9664L20.0606 19.9062L16.0162 11.5451L15.2267 13.1773C15.0498 13.5425 14.679 13.7748 14.2721 13.7748H11.3466C10.7214 13.7748 10.3114 13.1245 10.5826 12.564L12.7505 8.08153C12.9624 7.64342 13.4075 7.36473 13.8959 7.36473Z" fill="white"/>
</g>
<defs>
<clipPath id="clip0_487_406">
<rect width="32" height="32" fill="white"/>
</clipPath>
</defs>
</svg>
