<svg viewBox="0 0 134 49" fill="none" xmlns="http://www.w3.org/2000/svg">
	<path opacity="0.978" fill-rule="evenodd" clip-rule="evenodd" d="M43.8309 0.5C44.4846 0.5 45.1383 0.5 45.792 0.5C48.7057 1.31507 50.0909 3.24503 49.9476 6.28988C49.3744 9.05757 47.6779 10.5517 44.8581 10.7724C42.1211 10.5722 40.4246 9.14035 39.7686 6.47665C39.5247 3.38163 40.8788 1.38942 43.8309 0.5Z" fill="#FEFFFE" />
	<path opacity="0.989" fill-rule="evenodd" clip-rule="evenodd" d="M53.3561 0.5C55.4417 0.5 57.5273 0.5 59.6129 0.5C61.4021 0.593106 63.2076 0.624235 65.0292 0.593385C65.0292 16.2821 65.0292 31.9708 65.0292 47.6595C63.4103 47.6741 61.7917 47.7052 60.1732 47.7529C59.182 47.7706 58.2015 47.7084 57.2316 47.5661C57.1036 34.3681 57.0569 21.1696 57.0915 7.97082C55.6592 7.98637 54.2274 7.97081 52.7958 7.92412C52.5843 7.90207 52.382 7.85537 52.1888 7.78405C52.025 5.5122 52.025 3.23982 52.1888 0.966926C52.2355 0.79572 52.3444 0.68677 52.5156 0.640078C52.814 0.62322 53.0941 0.576527 53.3561 0.5Z" fill="#FEFFFE" />
	<path opacity="0.986" fill-rule="evenodd" clip-rule="evenodd" d="M87.255 0.5C89.7453 0.5 92.2356 0.5 94.7259 0.5C95.0247 0.555198 95.3207 0.648583 95.613 0.780156C95.6046 1.07922 95.5112 1.35938 95.3329 1.62062C92.4477 5.47599 89.5061 9.28922 86.508 13.0603C90.5456 13.3163 94.188 14.6237 97.434 16.9825C102.51 21.3445 104.674 26.8698 103.924 33.5584C102.794 39.9161 99.2924 44.4142 93.4185 47.0525C91.4783 47.8022 89.486 48.2847 87.4418 48.5C86.1967 48.5 84.9515 48.5 83.7064 48.5C77.7814 47.5379 73.2833 44.4872 70.2122 39.3482C67.1807 32.9635 67.5542 26.769 71.3329 20.7646C76.226 14.0659 81.1909 7.41999 86.2278 0.826848C86.5697 0.67813 86.9121 0.569181 87.255 0.5ZM86.041 20.7646C90.5543 20.974 93.6206 23.1841 95.2395 27.3949C96.4778 31.1967 95.8549 34.6519 93.3718 37.7607C90.2719 41.0065 86.6142 41.8626 82.399 40.3288C78.606 38.3637 76.6449 35.2353 76.5157 30.9436C76.5322 27.5648 77.8396 24.8099 80.4379 22.679C82.1316 21.5075 83.9994 20.8694 86.041 20.7646Z" fill="#FEFFFE" />
	<path opacity="0.988" fill-rule="evenodd" clip-rule="evenodd" d="M20.2977 48.5C19.2393 48.5 18.1809 48.5 17.1226 48.5C8.93593 47.3018 3.59741 42.757 1.107 34.8658C0.848142 33.8363 0.645807 32.8091 0.5 31.7841C0.5 30.5389 0.5 29.2938 0.5 28.0486C1.43351 21.1542 5.0444 16.2204 11.3327 13.2471C16.7922 11.0603 22.1773 11.2159 27.4883 13.714C28.1046 14.0453 28.6804 14.4344 29.216 14.8813C29.2626 14.1972 29.2781 13.5124 29.2626 12.8269C31.9397 12.8269 34.6167 12.8269 37.2938 12.8269C37.2299 24.4376 37.1988 36.0485 37.2004 47.6595C34.5854 47.6751 31.9706 47.6595 29.356 47.6128C29.3048 46.8791 29.227 46.1475 29.1226 45.4183C26.4329 47.1812 23.4913 48.2085 20.2977 48.5ZM17.8696 19.8307C23.453 19.7036 27.1106 22.2873 28.8424 27.5817C29.6526 31.7502 28.4853 35.2522 25.3405 38.0876C21.5727 40.8733 17.6195 41.1535 13.4805 38.928C9.96132 36.4803 8.35823 33.1029 8.67121 28.7957C9.14589 25.4287 10.8424 22.8918 13.7607 21.1848C15.0644 20.496 16.434 20.0447 17.8696 19.8307Z" fill="#FEFFFE" />
	<path opacity="0.99" fill-rule="evenodd" clip-rule="evenodd" d="M41.1226 12.8269C43.7996 12.8269 46.4766 12.8269 49.1537 12.8269C49.1386 24.4379 49.1075 36.0487 49.0603 47.6596C46.4144 47.6596 43.7684 47.6596 41.1226 47.6596C41.1226 36.0487 41.1226 24.4378 41.1226 12.8269Z" fill="#FEFFFE" />
	<path opacity="0.986" fill-rule="evenodd" clip-rule="evenodd" d="M133.014 13.8541C133.014 16.0331 133.014 18.2121 133.014 20.3911C127.536 26.9279 122.089 33.4959 116.671 40.0954C117.041 40.1726 117.415 40.2193 117.792 40.2355C122.866 40.2822 127.94 40.2977 133.014 40.2822C133.014 42.4923 133.014 44.7024 133.014 46.9125C132.923 47.1411 132.891 47.3902 132.92 47.6596C124.11 47.7509 115.301 47.7509 106.492 47.6596C106.443 46.244 106.411 44.8277 106.399 43.4106C106.385 42.3279 106.432 41.254 106.539 40.1888C111.971 33.6362 117.402 27.0837 122.835 20.5312C117.388 20.44 111.94 20.3933 106.492 20.3911C106.492 17.9631 106.492 15.5351 106.492 13.1071C115.301 13.1071 124.111 13.1071 132.92 13.1071C132.891 13.3765 132.923 13.6255 133.014 13.8541Z" fill="#FEFFFE" />
</svg>
