<svg viewBox="0 0 106 49" fill="none" xmlns="http://www.w3.org/2000/svg">
	<path d="M78.5114 15.7907C77.4442 16.5793 76.0661 16.7975 75.0776 17.5276C73.7014 18.5447 71.5791 21.9377 70.7721 23.4963C69.6327 25.6967 68.5489 28.1646 68.2639 30.652C69.3282 30.4597 70.3075 29.9489 71.3727 29.751C73.395 29.3786 75.6024 29.7947 77.5821 30.299C78.7881 30.6056 79.8062 30.991 80.9214 31.5335C81.2546 29.7195 84.0451 29.1027 85.5935 28.773C88.0647 28.2473 92.671 27.7169 95.0571 28.4089C96.5425 28.8408 96.7554 30.9594 96.7193 32.271C96.6305 35.4234 95.8206 37.1826 93.6651 39.3747C93.2763 39.7703 92.7784 40.1289 92.3878 40.5246C93.4735 40.6722 94.585 40.6973 95.6688 40.8571C96.9553 41.0466 98.488 41.2788 99.7634 41.5314C100.676 41.7107 101.921 42.1695 101.992 43.2637C102.111 45.0489 100.871 45.8152 99.2219 45.6694C97.4875 45.5152 95.5781 44.9802 93.8585 44.722C91.7816 44.4099 89.5187 44.3606 87.4723 43.7941C85.4251 43.2275 84.8984 41.6782 86.172 39.9422C86.8087 39.0728 88.7162 38.1142 89.6436 37.3805C91.2448 36.1145 92.6914 34.6618 92.6683 32.4521C90.4192 32.3295 88.0082 32.3666 85.8295 32.9871C84.9271 33.2444 83.8692 33.8936 82.9502 33.9512C82.1792 33.9995 82.0062 33.5091 81.2565 33.3976C81.2084 36.786 77.8116 38.614 75.0304 39.6208C71.1238 41.0382 65.9741 40.7949 64.2878 36.356C63.2373 33.5918 64.373 28.0736 65.3698 25.2889C66.6063 21.8337 70.2686 15.8613 73.259 13.7677C74.079 13.1918 75.5672 12.3828 76.6797 12.1636C78.802 11.7456 80.5503 13.9098 78.9417 15.526C78.8307 15.6374 78.6456 15.6904 78.5095 15.7907H78.5114ZM76.2216 34.3302C76.092 34.1788 73.8485 33.6828 73.5098 33.6716C72.2788 33.6317 70.6786 34.6088 69.5578 34.6516C68.8682 34.6794 67.2328 33.6029 68.387 35.2451C69.7623 37.1993 73.9957 35.7801 75.6866 34.7927C75.7366 34.7639 76.2457 34.3562 76.2234 34.3283L76.2216 34.3302ZM26.4568 29.8504L26.7298 29.7947C27.4128 28.7414 29.0436 28.2686 29.9562 29.2894C30.6522 30.0678 30.6799 32.048 30.9372 33.1171C31.5601 35.7039 33.1743 39.5902 34.6329 41.8156C35.2169 42.7073 36.4007 43.5135 36.6691 44.565C37.1503 46.4579 34.9124 47.5772 33.3612 46.692C33.264 46.6363 32.3357 45.726 32.2321 45.6006C31.077 44.2092 30.2107 42.6005 29.4222 40.9788C29.0716 40.2689 28.7483 39.5457 28.4531 38.8109C28.3028 38.4184 28.163 38.022 28.0339 37.622C27.9978 37.5142 27.6673 36.8371 27.7136 36.7767L25.1841 39.9858C21.9716 43.4169 19.0275 43.299 14.572 42.6497C11.1651 42.1547 7.39916 40.9555 5.79984 37.622C3.03528 31.8613 7.86378 25.5267 13.7529 24.9313C16.7859 24.6248 22.7315 25.6335 25.0351 27.7513C25.5488 28.2231 26.2531 29.1807 26.4549 29.8532L26.4568 29.8504ZM22.9916 32.3425C22.8407 32.1753 22.6297 31.4471 22.3585 31.1406C20.9461 29.5402 16.4657 28.8863 14.4267 29.0971C12.173 29.3293 9.62506 30.9362 9.21783 33.3001C9.01976 34.4574 9.12342 35.1893 9.78518 36.1358C10.4932 37.1483 11.7195 37.7622 12.8783 38.1022C14.9635 38.7133 18.8072 39.3923 20.7546 38.3929C21.3811 38.0715 23.073 36.1219 23.5321 35.4856C23.8005 35.1113 24.7575 33.6967 24.8778 33.3586C24.9574 33.1385 24.9685 33.1227 24.7732 32.9583C24.3364 33.2165 23.2637 32.6425 22.9925 32.3443L22.9916 32.3425ZM57.9572 40.8041C56.8595 41.8138 55.1177 41.106 54.6049 39.8029C53.3138 36.5334 54.5679 26.9943 55.0769 23.2455C55.772 18.1109 57.2019 13.3971 58.2487 8.40647C58.5606 6.91198 58.3663 3.43443 60.6199 3.47437C62.036 3.49945 62.6996 4.34283 62.6866 5.711C62.6561 9.01671 61.4113 12.1497 60.6866 15.3207C59.6241 19.9695 59.1502 24.4976 58.655 29.2374C58.4079 31.6031 57.8859 34.0264 58.1201 36.4405C58.2783 38.0613 59.4306 39.4518 57.959 40.806L57.9572 40.8041ZM44.2251 38.6567C44.4768 39.7072 45.2136 40.988 45.4024 42.1398C45.63 43.5303 44.773 44.4805 43.3921 44.4786C41.8011 44.4767 41.3069 43.0036 40.8626 41.7125C39.59 38.0037 39.2476 33.3122 39.5021 29.4037C39.5817 28.1925 39.7899 24.8041 40.5109 23.9486C41.3124 22.9984 42.859 23.082 43.6031 24.1316C44.2112 24.9889 43.9872 26.4565 43.8993 27.429C43.7207 29.4129 43.4412 31.344 43.5383 33.3419C43.6263 35.1206 43.8095 36.9226 44.2251 38.6567ZM39.4466 2.30683C40.1426 2.74988 40.4582 3.70936 40.374 4.50816C40.3513 4.73226 40.2945 4.95155 40.2055 5.15834C40.0458 5.52144 39.7816 5.82835 39.4468 6.0397C39.112 6.25104 38.722 6.35717 38.3267 6.34446C38.2081 6.34178 38.0899 6.32998 37.9731 6.30916C36.4256 6.04259 35.7361 3.81061 36.7783 2.66071C37.1096 2.29475 37.4456 2.04118 37.9537 2.00681C38.3285 1.98173 38.7571 2.02539 39.1134 2.14614C39.2303 2.18638 39.3422 2.24031 39.4466 2.30683Z" fill="#FF8C00" />
</svg>
