<svg viewBox="0 0 166 19" fill="none" xmlns="http://www.w3.org/2000/svg">
	<path d="M26.4389 18.6092H19.9623L12.5166 3.30176C12.0487 2.35209 10.5983 2.29897 10.0971 3.32832L2.69144 18.6026H0.205078L8.28576 2.03333C9.34849 -0.244528 13.2451 -0.151555 14.388 2.03333L21.3793 16.4243H22.8764L15.7716 1.85402C15.4641 1.29618 15.3037 0.871158 14.7891 0.419572C14.7891 0.419572 17.3623 0.134007 18.2446 1.80754L26.4389 18.6092Z" fill="white" />
	<path d="M12.5304 6.32278L6.66201 18.602H4.16895L11.0332 4.35707C11.334 3.74609 11.2671 3.73945 11.5612 4.34378L12.5304 6.32278Z" fill="white" />
	<path d="M159.5 3.38243C160.04 2.61699 160.9 2.13585 161.837 2.08118C161.892 2.08118 161.947 2.08118 162.013 2.08118C162.244 2.08118 162.465 2.10305 162.696 2.15772C164.02 2.45297 164.989 3.60114 165.067 4.94613V4.96799C165.078 5.06643 165.078 5.15391 165.078 5.2523V16.8434H162.895V5.2523C162.895 5.20858 162.895 5.15391 162.884 5.11015C162.884 4.70555 162.597 4.35563 162.201 4.26815C162.135 4.25724 162.068 4.24629 162.002 4.24629C161.738 4.24629 161.495 4.35563 161.329 4.5634L161.263 4.63997L156.832 14.2955C156.524 14.9735 156.027 16.1763 155.388 16.6028C155.091 16.7996 154.748 16.8543 154.396 16.8543C154.043 16.8543 153.701 16.7996 153.404 16.6028C152.764 16.1873 152.268 14.9735 151.96 14.2955L147.528 4.63997L147.462 4.5634C147.297 4.36658 147.054 4.24629 146.79 4.24629C146.723 4.24629 146.657 4.25724 146.591 4.26815C146.194 4.35563 145.908 4.70555 145.908 5.11015C145.897 5.15391 145.897 5.20858 145.897 5.2523V16.8434H143.714V5.2523C143.714 5.15391 143.714 5.06643 143.725 4.96799V4.94613C143.803 3.60114 144.761 2.4639 146.095 2.15772C146.316 2.10305 146.547 2.08118 146.779 2.08118C146.834 2.08118 146.889 2.08118 146.955 2.08118C147.892 2.13585 148.763 2.61699 149.292 3.38243L149.424 3.57926L154.385 14.383L159.345 3.57926L159.5 3.38243Z" fill="white" />
	<path d="M135.755 2.07043V11.4307C135.755 14.4379 133.274 16.8982 130.243 16.8982H124.544C121.512 16.8982 119.032 14.4379 119.032 11.4307V2.07043H121.215V11.4307C121.215 13.2459 122.714 14.7331 124.544 14.7331H130.243C132.073 14.7331 133.572 13.2459 133.572 11.4307V2.07043H135.755Z" fill="white" />
	<path d="M111.096 2.07043V16.8982H108.913V2.07043H111.096Z" fill="white" />
	<path d="M91.187 16.8982C88.1558 16.8982 85.6753 14.4379 85.6753 11.4307V7.53791C85.6753 4.53079 88.1558 2.07043 91.187 2.07043H100.943V4.23554H91.187C89.3574 4.23554 87.858 5.72271 87.858 7.53791V11.4307C87.858 13.2459 89.3574 14.7331 91.187 14.7331H100.943V16.8982H91.187Z" fill="white" />
	<path d="M62.4388 16.8982V12.6555C62.4388 10.8621 63.5962 9.25472 65.2937 8.65326C65.7568 8.48925 66.2309 8.41272 66.7156 8.41272H73.4069C74.5532 8.41272 75.5015 7.48324 75.5125 6.34599C75.5125 6.33508 75.5125 6.33508 75.5125 6.32413C75.5125 6.31318 75.5125 6.31318 75.5125 6.30227C75.5015 5.16502 74.5643 4.23554 73.4069 4.23554H62.4277V2.07043H73.4069C73.8921 2.07043 74.3769 2.15792 74.8289 2.311C76.5268 2.91242 77.6842 4.51988 77.6842 6.31318C77.6842 7.05678 77.4857 7.77849 77.1219 8.40177C76.681 9.17814 75.9867 9.81237 75.1377 10.1951L75.0934 10.217C75.0716 10.2279 75.0384 10.2388 75.0163 10.2498L77.6842 16.8982H75.3362L72.7897 10.5669H66.6828C65.5361 10.5669 64.5883 11.4964 64.5772 12.6336C64.5772 12.6445 64.5772 12.6445 64.5772 12.6555V16.8982H62.4388Z" fill="white" />
	<path d="M35.7061 16.8982L40.38 5.27436C41.1737 3.30608 42.9926 2.07043 45.131 2.07043C47.2698 2.07043 49.0994 3.29515 49.8824 5.27436L54.5562 16.8982H52.2082L47.8649 6.07264C47.4019 4.92448 46.3766 4.23554 45.131 4.23554C43.8855 4.23554 42.8601 4.92448 42.3975 6.07264L38.0541 16.8982H35.7061Z" fill="white" />
</svg>
