<svg viewBox="0 0 177 18" fill="none" xmlns="http://www.w3.org/2000/svg">
	<path fill-rule="evenodd" clip-rule="evenodd" d="M47.1746 0.327664V3.20094C47.1746 3.37745 47.3177 3.52139 47.493 3.52139H60.318C60.4894 3.52139 60.6364 3.38017 60.6364 3.20094C60.6364 2.86757 60.6346 2.31389 60.633 1.76022C60.6313 1.20655 60.6297 0.652875 60.6297 0.319517C60.6297 0.145708 60.4907 0.00720215 60.318 0.00720215H47.493C47.3177 0.00720215 47.1746 0.151139 47.1746 0.327664ZM45.8219 7.03814C45.6803 7.03814 45.6088 7.21058 45.7086 7.31107L45.7073 7.31379L48.7357 10.3731C48.8559 10.4939 49.0178 10.5618 49.1877 10.5618H57.6796C57.851 10.5618 57.998 10.7031 57.998 10.8823V13.7556C57.998 13.9348 57.8523 14.076 57.6796 14.076H49.1944C49.0245 14.076 48.8627 14.1439 48.7426 14.2648L45.7208 17.3173C45.621 17.4177 45.6925 17.5903 45.8341 17.5903H57.2062C57.7148 17.5903 58.2018 17.3865 58.5606 17.0253L60.9335 14.6368C61.2909 14.277 61.492 13.7881 61.492 13.2789V11.3603C61.492 10.8483 61.2896 10.3581 60.9308 9.9956L58.5606 7.60302C58.1977 7.24318 57.7134 7.03814 57.2035 7.03814H45.8219Z" fill="white" />
	<path d="M170.621 12.5106L176.682 15.2305C176.798 15.2821 176.874 15.3988 176.874 15.5264V17.2699C176.874 17.4465 176.731 17.5905 176.555 17.5905H173.706C173.495 17.5905 173.292 17.5456 173.101 17.4628L161.17 12.1236C161.069 12.0775 161.044 11.943 161.122 11.8643L163.972 8.98557C164.092 8.86472 164.253 8.79683 164.423 8.79683H173.067C173.243 8.79683 173.387 8.65289 173.387 8.47638V3.84465C173.387 3.66813 173.243 3.5242 173.067 3.5242H164.423C164.253 3.5242 164.092 3.4563 163.972 3.33545L160.955 0.282944C160.855 0.182461 160.927 0.0100098 161.069 0.0100098H172.768C173.164 0.0100098 173.545 0.170241 173.821 0.452679L176.44 3.0951C176.722 3.37076 176.874 3.75639 176.874 4.14745V8.17627C176.874 8.57413 176.714 8.95298 176.44 9.23542L174.101 11.59C173.828 11.8656 173.444 12.0259 173.05 12.0259H170.723C170.449 12.0259 170.373 12.4047 170.621 12.5133V12.5106Z" fill="white" />
	<path d="M160.685 7.9983V4.32389C160.685 3.81469 160.484 3.32586 160.128 2.96602L157.761 0.573434C157.401 0.210881 156.915 0.00720215 156.406 0.00720215H141.076C140.9 0.00720215 140.757 0.151134 140.757 0.327659V17.2698C140.757 17.4465 140.9 17.5904 141.076 17.5904H143.93C144.106 17.5904 144.249 17.4465 144.249 17.2698V12.4494C144.249 12.1385 144.567 11.9307 144.849 12.057L156.828 17.4233C157.072 17.5334 157.338 17.5889 157.605 17.5889H160.367C160.541 17.5889 160.685 17.445 160.685 17.2685V15.5209C160.685 15.3947 160.61 15.2792 160.496 15.2276L154.433 12.5119C154.182 12.3992 154.262 12.0203 154.537 12.0203H156.688C157.195 12.0203 157.68 11.818 158.039 11.4568L160.125 9.35754C160.484 8.99634 160.685 8.50886 160.685 7.9983ZM156.88 8.79537H144.567C144.392 8.79537 144.249 8.65144 144.249 8.47492V3.8432C144.249 3.66668 144.392 3.52275 144.567 3.52275H156.88C157.054 3.52275 157.198 3.66668 157.198 3.8432V8.47492C157.198 8.65144 157.054 8.79537 156.88 8.79537Z" fill="white" />
	<path d="M113.842 3.52139H105.766C105.591 3.52139 105.448 3.66532 105.448 3.84185V17.2685C105.448 17.445 105.305 17.5889 105.13 17.5889H102.274C102.098 17.5889 101.955 17.445 101.955 17.2685V3.84185C101.955 3.66532 101.812 3.52139 101.637 3.52139H93.5619C93.3866 3.52139 93.2437 3.37745 93.2437 3.20092V0.327659C93.2437 0.151134 93.3866 0.00720215 93.5619 0.00720215H113.843C114.018 0.00720215 114.161 0.151134 114.161 0.327659V3.20092C114.161 3.37745 114.017 3.52139 113.842 3.52139Z" fill="white" />
	<path d="M136.354 3.52249H120.516C120.341 3.52249 120.198 3.66642 120.198 3.84294V6.71756C120.198 6.89409 120.341 7.03803 120.516 7.03803H134.608C134.783 7.03803 134.927 7.18196 134.927 7.35849V10.2331C134.927 10.4096 134.783 10.5536 134.608 10.5536H120.516C120.341 10.5536 120.198 10.6975 120.198 10.874V13.7486C120.198 13.9252 120.341 14.0691 120.516 14.0691H136.354C136.529 14.0691 136.672 14.213 136.672 14.3896V17.2642C136.672 17.4407 136.529 17.5847 136.354 17.5847H117.022C116.847 17.5847 116.704 17.4407 116.704 17.2642V0.323326C116.704 0.146802 116.847 0.00286865 117.022 0.00286865H136.354C136.529 0.00286865 136.672 0.146802 136.672 0.323326V3.19795C136.672 3.37448 136.529 3.51842 136.354 3.51842V3.52249Z" fill="white" />
	<path d="M87.3369 7.03813H74.6469C74.4714 7.03813 74.3285 6.8942 74.3285 6.71767V3.84168C74.3285 3.66517 74.4714 3.52123 74.6469 3.52123H90.4477C90.6243 3.52123 90.7661 3.38001 90.7661 3.2035C90.7661 2.53406 90.7633 0.988792 90.762 0.320717C90.762 0.144193 90.6191 0.0043335 90.4436 0.0043335H75.1203C74.6131 0.0043335 74.1275 0.206657 73.7687 0.567851L71.3944 2.95772C71.0356 3.31892 70.8345 3.80775 70.8345 4.3183V6.24106C70.8345 6.75162 71.0356 7.24045 71.3944 7.60165L73.7687 9.99152C74.1275 10.3527 74.6131 10.555 75.1203 10.555H87.8103C87.9858 10.555 88.1287 10.699 88.1287 10.8755V13.7515C88.1287 13.928 87.9858 14.0719 87.8103 14.0719H72.0095C71.8329 14.0719 71.6911 14.2132 71.6911 14.3897C71.6911 15.0592 71.6939 16.6043 71.6952 17.2725C71.6952 17.4489 71.8381 17.5888 72.0136 17.5888H87.3369C87.8441 17.5888 88.3297 17.3865 88.6885 17.0253L91.0628 14.6354C91.4216 14.2742 91.6226 13.7854 91.6226 13.2749V11.3521C91.6226 10.8415 91.4216 10.3527 91.0628 9.99152L88.6885 7.60165C88.3297 7.24045 87.8441 7.03813 87.3369 7.03813Z" fill="white" />
	<path d="M28.9519 10.5564H41.6419C41.8174 10.5564 41.9603 10.7004 41.9603 10.8769V13.7529C41.9603 13.9294 41.8174 14.0733 41.6419 14.0733H25.841C25.6644 14.0733 25.5227 14.2146 25.5227 14.3911C25.5227 15.0605 25.5254 16.6058 25.5268 17.2739C25.5268 17.4504 25.6697 17.5902 25.8451 17.5902H41.1684C41.6756 17.5902 42.1612 17.3879 42.5201 17.0268L44.8943 14.6369C45.2532 14.2757 45.4543 13.7868 45.4543 13.2763V11.3535C45.4543 10.843 45.2532 10.3541 44.8943 9.99293L42.5201 7.60306C42.1612 7.24186 41.6756 7.03954 41.1684 7.03954H28.4784C28.3029 7.03954 28.16 6.89561 28.16 6.71908V3.84309C28.16 3.66657 28.3029 3.52264 28.4784 3.52264H44.2792C44.4559 3.52264 44.5976 3.38142 44.5976 3.20489C44.5976 2.53546 44.5948 0.9902 44.5935 0.322125C44.5935 0.145601 44.4506 0.0057373 44.2751 0.0057373H28.9519C28.4447 0.0057373 27.959 0.20806 27.6002 0.569256L25.226 2.95913C24.8671 3.32031 24.666 3.80916 24.666 4.31971V6.24247C24.666 6.75303 24.8671 7.24186 25.226 7.60306L27.6002 9.99293C27.959 10.3541 28.4447 10.5564 28.9519 10.5564Z" fill="white" />
	<path d="M67.7406 17.5889H64.8848C64.7093 17.5889 64.5664 17.445 64.5664 17.2685V0.327659C64.5664 0.151134 64.7093 0.00720215 64.8848 0.00720215H67.7406C67.9159 0.00720215 68.0589 0.151134 68.0589 0.327659V17.2685C68.0589 17.445 67.9159 17.5889 67.7406 17.5889Z" fill="white" />
	<path d="M17.1903 0H4.28443C3.77721 0 3.29022 0.203679 2.93138 0.564873L0.558489 2.95881C0.201003 3.32001 0 3.80884 0 4.31805V17.2695C0 17.446 0.142996 17.5899 0.318367 17.5899H3.17285C3.34822 17.5899 3.49122 17.446 3.49122 17.2695V12.3431C3.49122 12.1666 3.63421 12.0226 3.80959 12.0226H17.6651C17.8406 12.0226 17.9835 12.1666 17.9835 12.3431V17.2695C17.9835 17.446 18.1266 17.5899 18.3019 17.5899H21.1563C21.3318 17.5899 21.4747 17.446 21.4747 17.2695V4.31805C21.4747 3.80884 21.2738 3.31864 20.9162 2.95881L18.5433 0.564873C18.1845 0.203679 17.6975 0 17.1903 0ZM17.6651 8.80176H3.80959C3.63421 8.80176 3.49122 8.65782 3.49122 8.4813V5.551C3.49122 5.38127 3.55731 5.21968 3.67603 5.09883L5.04392 3.71243C5.16397 3.59158 5.32586 3.52234 5.49583 3.52234H15.9776C16.1475 3.52234 16.3108 3.59022 16.4296 3.71243L17.7973 5.09883C17.9161 5.21831 17.9822 5.38127 17.9822 5.551V8.4813C17.9822 8.65782 17.8406 8.80176 17.6651 8.80176Z" fill="white" />
</svg>
