<svg width="99" height="32" viewBox="0 0 99 32" fill="none" xmlns="http://www.w3.org/2000/svg">
	<mask id="mask0_524_2477" style="mask-type:luminance" maskUnits="userSpaceOnUse" x="0" y="0" width="28" height="17">
		<path d="M0 0H27.756V16.0712H0V0Z" fill="white" />
	</mask>
	<g mask="url(#mask0_524_2477)">
		<path d="M27.7437 8.00707L13.8746 0L0.00585938 8.00707L13.8746 16.0146L27.7437 8.00707Z" fill="white" />
	</g>
	<mask id="mask1_524_2477" style="mask-type:luminance" maskUnits="userSpaceOnUse" x="0" y="7" width="14" height="18">
		<path d="M0 7.92285H13.9611V24.1068H0V7.92285Z" fill="white" />
	</mask>
	<g mask="url(#mask1_524_2477)">
		<path d="M0.00585938 8.00732V24.0219L13.8746 16.0148L0.00585938 8.00732Z" fill="white" />
	</g>
	<mask id="mask2_524_2477" style="mask-type:luminance" maskUnits="userSpaceOnUse" x="0" y="15" width="28" height="17">
		<path d="M0 15.958H27.756V32H0V15.958Z" fill="white" />
	</mask>
	<g mask="url(#mask2_524_2477)">
		<path d="M0.00585938 24.0217L13.8746 32.0292L27.7437 24.0217L13.8746 16.0146L0.00585938 24.0217Z" fill="white" />
	</g>
	<path d="M30.9121 9.66113H34.6875C35.8286 9.66113 36.7379 9.90472 37.4161 10.3915C38.0951 10.8786 38.4347 11.6678 38.4347 12.7593C38.4347 13.9785 37.928 14.8486 36.9156 15.3694C38.646 15.6748 39.5116 16.6974 39.5116 18.4374C39.5116 19.4609 39.157 20.2827 38.4488 20.9025C37.7415 21.5214 36.768 21.8309 35.5293 21.8309H30.9121V9.66113ZM33.6849 14.4251H33.9059C34.5248 14.4251 34.9868 14.3172 35.2923 14.1014C35.5973 13.8848 35.7503 13.5303 35.7503 13.0387C35.7503 12.2124 35.1354 11.7991 33.9059 11.7991H33.6849V14.4251ZM33.6849 19.6912H34.5549C35.9117 19.6912 36.5903 19.2394 36.5903 18.3349C36.5903 17.7938 36.4205 17.4056 36.081 17.1695C35.7423 16.9339 35.2339 16.8159 34.5549 16.8159H33.6849V19.6912Z" fill="white" />
	<path d="M50.0874 9.66113V17.5091C50.0874 19.0042 49.6843 20.135 48.8779 20.9025C48.0715 21.6691 46.8912 22.0519 45.3377 22.0519C43.7837 22.0519 42.6038 21.6691 41.7974 20.9025C40.9911 20.135 40.5879 19.0042 40.5879 17.5091V9.66113H43.3607V16.6974C43.3607 17.6806 43.5154 18.3645 43.8257 18.7487C44.1356 19.132 44.6396 19.3234 45.3377 19.3234C46.0366 19.3234 46.5406 19.132 46.8496 18.7487C47.1595 18.3645 47.3147 17.6806 47.3147 16.6974V9.66113H50.0874Z" fill="white" />
	<path d="M54.4837 9.66113V21.8309H51.7109V9.66113H54.4837Z" fill="white" />
	<path d="M59.0267 9.66113V19.3976H63.2159V21.8309H56.2539V9.66113H59.0267Z" fill="white" />
	<path d="M64.5879 9.66113H68.1122C69.8036 9.66113 71.2497 10.2389 72.45 11.3941C73.6498 12.5497 74.2501 13.998 74.2501 15.7389C74.2501 17.4896 73.6524 18.9427 72.457 20.0979C71.2616 21.2535 69.8134 21.8309 68.1122 21.8309H64.5879V9.66113ZM67.3607 19.3534H67.7886C68.801 19.3534 69.6294 19.0117 70.2731 18.3278C70.9177 17.6443 71.2448 16.7858 71.2546 15.7531C71.2546 14.7204 70.9318 13.8601 70.2873 13.1713C69.6436 12.483 68.8107 12.1386 67.7886 12.1386H67.3607V19.3534Z" fill="white" />
	<path d="M78.2474 9.66113V21.8309H75.4746V9.66113H78.2474Z" fill="white" />
	<path d="M87.0538 9.66113V12.0944H82.7903V14.5135H86.7285V16.9485H82.7903V21.8309H80.0176V9.66113H87.0538Z" fill="white" />
	<path d="M87.0527 9.66113H90.3861L92.9236 13.555L95.4612 9.66113H98.7945L94.31 16.372V21.8309H91.5373V16.372L87.0527 9.66113Z" fill="white" />
</svg>
