<svg viewBox="0 0 162 21" fill="none" xmlns="http://www.w3.org/2000/svg">
	<path fill-rule="evenodd" clip-rule="evenodd" d="M21.5563 0H0V2.62667H21.5563V0ZM19.4237 4.66564H2.12792V7.2923H19.4237V4.66564ZM9.46256 9.33205H12.0892V20.8665H9.46256V9.33205ZM6.83602 9.33205H4.20936V20.8665H6.83602V9.33205ZM14.7181 9.33205H17.3447V20.8665H14.7181V9.33205Z" fill="white" />
	<mask id="mask0_405_288" style="mask-type:luminance" maskUnits="userSpaceOnUse" x="28" y="3" width="134" height="15">
		<path d="M161.908 3.64893H28.3135V17.2173H161.908V3.64893Z" fill="white" />
	</mask>
	<g mask="url(#mask0_405_288)">
		<path d="M35.318 5.88246C32.6565 5.88246 30.639 7.43355 30.639 10.3218C30.639 13.21 32.725 14.9751 35.5319 14.9751C37.5772 14.9751 39.4364 13.7984 39.7958 11.6739C40.397 11.9413 40.9854 12.2088 41.6015 12.4484C41.2271 15.9506 38.0714 17.168 35.2516 17.168C31.2017 17.1659 28.3135 14.2648 28.3135 10.3197C28.3135 6.37453 31.2552 3.75586 35.3586 3.75586C38.3795 3.75586 41.026 5.10584 41.655 8.01976L39.7423 8.75573C39.154 6.76391 37.0809 5.86748 35.318 5.86748V5.88032V5.88246Z" fill="white" />
		<path d="M43.527 10.4802C43.527 6.30825 46.1884 3.64893 50.1977 3.64893C54.207 3.64893 56.9498 6.3489 56.9498 10.3475C56.9498 14.3461 54.2755 17.1788 50.2512 17.1788C46.227 17.1788 43.5142 14.4916 43.5142 10.4802H43.527ZM50.2106 5.71991C47.4957 5.71991 45.7713 7.44429 45.7713 10.2919C45.7713 13.1395 47.4957 15.1313 50.2491 15.1313C53.0026 15.1313 54.727 13.4069 54.727 10.5593C54.727 7.71172 52.9619 5.71991 50.2085 5.71991H50.2106Z" fill="white" />
		<path d="M70.7323 16.7508H59.8105V4.13025H61.95V14.6648H70.7323V16.7508Z" fill="white" />
		<path d="M71.5088 10.4802C71.5088 6.30825 74.1681 3.64893 78.1924 3.64893C82.2167 3.64893 84.9445 6.3489 84.9445 10.3475C84.9445 14.3461 82.2702 17.1788 78.2458 17.1788C74.2216 17.1788 71.5088 14.4916 71.5088 10.4802ZM78.1924 5.71991C75.4796 5.71991 73.7531 7.44429 73.7531 10.2919C73.7531 13.1395 75.4774 15.1313 78.2309 15.1313C80.9844 15.1313 82.7087 13.4069 82.7087 10.5593C82.7087 7.71172 80.9437 5.71991 78.1903 5.71991H78.1924Z" fill="white" />
		<path d="M100.303 12.7672C100.303 16.216 96.8013 17.2194 94.0076 17.2194C91.8808 17.2194 88.1643 16.9114 87.4434 13.5032L89.341 12.5939C90.1433 14.7056 92.135 14.988 93.7807 14.988C95.265 14.988 97.9522 14.6799 97.9522 12.9427C97.9522 9.69501 87.5118 13.2893 87.5118 7.823C87.5118 4.86844 91.0012 3.70459 93.7953 3.70459C96.589 3.70459 99.5978 4.63952 100.025 7.47428L98.2474 8.18244C97.7125 6.28475 95.6678 5.68143 93.7953 5.68143C92.0303 5.68143 90.0385 6.37674 90.0385 7.61976C90.0385 10.615 100.319 7.43363 100.319 12.7801L100.306 12.7672H100.303Z" fill="white" />
		<path d="M115.158 12.7672C115.158 16.216 111.642 17.2194 108.861 17.2194C106.737 17.2194 103.019 16.9114 102.298 13.5032L104.195 12.5939C104.998 14.7056 106.99 14.988 108.634 14.988C110.12 14.988 112.807 14.6799 112.807 12.9427C112.807 9.69501 102.366 13.2893 102.366 7.823C102.366 4.86844 105.855 3.70459 108.65 3.70459C111.444 3.70459 114.451 4.63952 114.88 7.47428L113.102 8.18244C112.567 6.28475 110.521 5.68143 108.65 5.68143C106.885 5.68143 104.893 6.37674 104.893 7.61976C104.893 10.615 115.173 7.43363 115.173 12.7801L115.159 12.7672H115.158Z" fill="white" />
		<path d="M129.701 16.7508H117.896V4.13025H129.34V6.25686H120.022V9.18356H127.763V11.3488H120.022V14.6648H129.701V16.7508Z" fill="white" />
		<path d="M132.123 12.0847V4.13025H134.263V11.5905C134.263 13.8091 135.546 15.0392 138.246 15.0392C140.946 15.0392 142.23 13.8091 142.23 11.5905V4.13025H144.37V12.0847C144.37 15.1334 142.07 17.2043 138.246 17.2043C134.423 17.2043 132.123 15.1313 132.123 12.0847Z" fill="white" />
		<path d="M154.756 12.9939L159.196 4.13025H161.908V16.7508H159.769V7.94059C158.901 9.57083 156.147 15.1333 155.277 16.7637H154.247L149.769 7.94059V16.738H147.63V4.13025H150.33C151.198 5.80116 153.914 11.3359 154.769 12.9939H154.756Z" fill="white" />
	</g>
</svg>
