<svg width="98" height="98" viewBox="0 0 98 98" fill="none" xmlns="http://www.w3.org/2000/svg">
	<path d="M73.8663 3.19984C73.4663 4.2665 73.333 6.79984 73.5997 8.93317C73.9997 12.3998 74.533 12.6665 79.333 12.6665H84.6663V7.33317C84.6663 2.13317 84.533 1.99984 79.5997 1.59984C76.133 1.33317 74.3997 1.73317 73.8663 3.19984Z" fill="white" />
	<path d="M26 14.9332C25.7333 15.8665 25.3333 18.3998 25.0667 20.6665C24.6667 24.2665 24.1333 24.7998 19.3333 25.3332C14.2667 25.9998 14 26.2665 13.3333 31.3332C12.6667 36.3998 12.4 36.6665 7.33333 37.3332L2 37.9998V55.3332V72.6665L7.33333 73.3332C12.4 73.9998 12.6667 74.2665 13.3333 79.3332C14 84.3998 14.2667 84.6665 19.3333 85.3332C24.4 85.9998 24.6667 86.2665 25.3333 91.3332L26 96.6665H43.3333H60.6667L61.3333 91.3332C62 86.2665 62.2667 85.9998 67.3333 85.3332C72.4 84.6665 72.6667 84.3998 73.3333 79.3332C74 74.2665 74.2667 73.9998 79.3333 73.3332L84.6667 72.6665V61.3332V49.9998L73.3333 49.3332L62 48.6665L61.3333 43.3332C60.6667 38.2665 60.4 37.9998 55.3333 37.3332L50 36.6665L49.3333 25.3332L48.6667 13.9998L37.6 13.5998C29.6 13.3332 26.5333 13.7332 26 14.9332ZM37.3333 31.3332C38 36.3998 38.2667 36.6665 43.3333 37.3332C48.4 37.9998 48.6667 38.2665 49.3333 43.3332C50 48.3998 50.2667 48.6665 55.3333 49.3332C60.4 49.9998 60.6667 50.2665 61.3333 55.3332C62 60.3998 62.2667 60.6665 67.3333 61.3332C72.5333 61.9998 72.6667 62.1332 73.0667 67.5998L73.4667 73.1998L67.7333 73.5998C62.1333 73.9998 62 74.1332 61.3333 79.3332L60.6667 84.6665H43.3333H26L25.3333 79.3332C24.6667 74.2665 24.4 73.9998 19.3333 73.3332L14 72.6665V55.3332V37.9998L19.3333 37.3332C24.1333 36.7998 24.6667 36.2665 25.0667 32.6665C25.7333 25.7332 26.2667 25.1998 31.6 25.5998C36.4 25.9998 36.6667 26.2665 37.3333 31.3332Z" fill="white" />
	<path d="M65.6005 19.8665C64.5338 20.5331 64.0005 22.9332 64.2672 26.1332C64.6672 31.7331 66.6672 32.9331 72.8005 31.4665C75.3338 30.7998 76.0005 29.7331 76.0005 26.2665C76.0005 23.8665 75.3338 21.1998 74.4005 20.2665C72.5338 18.3998 68.1338 18.1332 65.6005 19.8665Z" fill="white" />
	<path d="M85.8663 27.1998C85.4663 28.2665 85.333 30.7998 85.5997 32.9332C85.9997 36.3998 86.533 36.6665 91.333 36.6665H96.6663V31.3332C96.6663 26.1332 96.533 25.9998 91.5997 25.5998C88.133 25.3332 86.3997 25.7332 85.8663 27.1998Z" fill="white" />
</svg>
