<svg viewBox="0 0 142 27" fill="none" xmlns="http://www.w3.org/2000/svg">
	<path d="M114.562 2.92375C114.562 1.8785 115.408 1.03308 116.429 1.03308C117.449 1.03308 118.319 1.8785 118.319 2.92375C118.319 3.969 117.474 4.78982 116.429 4.78982C115.383 4.78982 114.562 3.969 114.562 2.92375Z" fill="white" />
	<path d="M138.49 3.50171V7.40602H141.137V10.1052H138.49V16.0262C138.49 17.1545 138.988 17.6249 140.116 17.6249C140.534 17.6249 141.032 17.5449 141.164 17.5203V20.0351C140.98 20.115 140.405 20.324 139.304 20.324C136.946 20.324 135.48 18.9099 135.48 16.5243V10.1052H133.122V7.40602H133.78H135.741V5.48153C135.741 5.46001 135.741 5.43542 135.741 5.4139V3.50171H138.493H138.49Z" fill="white" />
	<path d="M34.5948 17.1576C35.1789 18.169 35.9751 18.9745 36.9865 19.574C38.0133 20.1581 39.1662 20.4501 40.4451 20.4501C41.3766 20.4501 42.2374 20.2934 43.0275 19.9767C43.8175 19.6447 44.497 19.1958 45.0657 18.6271C45.6344 18.043 46.0433 17.3882 46.2985 16.6627L43.5747 15.4299C43.338 16.0939 42.9445 16.6227 42.3911 17.0162C41.8377 17.4097 41.1921 17.6095 40.4482 17.6095C39.7687 17.6095 39.16 17.4435 38.6251 17.1115C38.1056 16.7795 37.6936 16.3214 37.3923 15.7373C37.0911 15.1532 36.9435 14.483 36.9435 13.7237C36.9435 12.9643 37.0941 12.2941 37.3923 11.71C37.6936 11.1259 38.1025 10.6679 38.6251 10.3358C39.1631 10.0038 39.7687 9.83781 40.4482 9.83781C41.1737 9.83781 41.8131 10.0346 42.3665 10.4311C42.9352 10.8246 43.338 11.3473 43.5747 11.9929L46.2985 10.8093C46.0464 10.0346 45.6283 9.37359 45.0442 8.82023C44.4754 8.25149 43.796 7.8088 43.0059 7.49522C42.2159 7.1632 41.3643 6.99719 40.4482 6.99719C39.1693 6.99719 38.0164 7.28925 36.9896 7.87336C35.9782 8.45747 35.182 9.2537 34.5978 10.2651C34.0137 11.2766 33.7217 12.4202 33.7217 13.6991C33.7217 14.978 34.0137 16.1308 34.5978 17.1576H34.5948Z" fill="white" />
	<path d="M50.8914 7.28304H47.9771V20.1673H51.079V12.9919C51.079 12.0143 51.3464 11.255 51.8844 10.717C52.4224 10.1636 53.1326 9.88694 54.0149 9.88694H55.1278V7.13855H54.3684C53.4677 7.13855 52.696 7.32915 52.0474 7.70729C51.5616 7.99934 51.1774 8.46048 50.8884 9.09378V7.27997L50.8914 7.28304Z" fill="white" />
	<path fill-rule="evenodd" clip-rule="evenodd" d="M62.3769 7.01245C66.2013 7.01245 69.0081 9.86844 69.0081 13.7727C69.0081 17.6771 66.2044 20.5607 62.3769 20.5607C58.5495 20.5607 55.7734 17.7047 55.7734 13.7727C55.7734 9.84077 58.5772 7.01245 62.3769 7.01245ZM62.3769 17.8338C64.2645 17.8338 65.94 16.4443 65.94 13.7727C65.94 11.1012 64.2615 9.76391 62.3769 9.76391C60.4924 9.76391 58.8139 11.1258 58.8139 13.7727C58.8139 16.4197 60.517 17.8338 62.3769 17.8338Z" fill="white" />
	<path d="M72.6723 15.9739L70.0254 16.7087C70.1822 18.1505 71.5963 20.5607 75.2916 20.5607C78.5411 20.5607 80.112 18.4118 80.112 16.472C80.112 14.5321 78.8547 13.1179 76.4444 12.5923L74.5046 12.1987C73.7176 12.042 73.2195 11.5439 73.2195 10.8614C73.2195 10.0744 73.9789 9.39502 75.0549 9.39502C76.758 9.39502 77.3083 10.5755 77.4128 11.3072L79.9798 10.5725C79.7708 9.31509 78.6179 7.0094 75.0549 7.0094C72.4079 7.0094 70.3636 8.89699 70.3636 11.1228C70.3636 12.8782 71.5441 14.3446 73.7975 14.8426L75.6851 15.2607C76.7058 15.4698 77.1792 15.9955 77.1792 16.6749C77.1792 17.4619 76.5244 18.1413 75.267 18.1413C73.6438 18.1413 72.7769 17.1206 72.6723 15.9678V15.9739Z" fill="white" />
	<path d="M81.1328 16.7088L83.7797 15.974C83.8843 17.1269 84.7481 18.1475 86.3744 18.1475C87.6318 18.1475 88.2866 17.465 88.2866 16.6811C88.2866 15.9986 87.8163 15.476 86.7925 15.2669L84.9049 14.8488C82.6515 14.3508 81.471 12.8844 81.471 11.129C81.471 8.90015 83.5154 7.01562 86.1623 7.01562C89.7254 7.01562 90.8782 9.32132 91.0873 10.5787L88.5203 11.3134C88.4157 10.5787 87.8654 9.40125 86.1623 9.40125C85.0894 9.40125 84.327 10.0837 84.327 10.8677C84.327 11.5502 84.825 12.0482 85.612 12.205L87.5519 12.5985C89.9621 13.1211 91.2195 14.5906 91.2195 16.4782C91.2195 18.3658 89.6485 20.567 86.399 20.567C82.7038 20.567 81.2896 18.1567 81.1328 16.7149V16.7088Z" fill="white" />
	<path d="M96.1112 7.28305H93.1968V20.1673H96.2987V12.6107C96.2987 12.042 96.4002 11.5532 96.6061 11.1412C96.8121 10.7293 97.1042 10.4157 97.4823 10.1944C97.8604 9.95766 98.297 9.83776 98.7858 9.83776C99.2746 9.83776 99.7265 9.95766 100.089 10.1944C100.467 10.4157 100.759 10.7324 100.965 11.1412C101.171 11.5532 101.273 12.042 101.273 12.6107V20.1673H104.375V12.6107C104.375 12.042 104.476 11.5532 104.682 11.1412C104.888 10.7293 105.18 10.4157 105.558 10.1944C105.936 9.95766 106.373 9.83776 106.862 9.83776C107.381 9.83776 107.824 9.95766 108.187 10.1944C108.55 10.4157 108.836 10.7324 109.038 11.1412C109.244 11.5532 109.346 12.042 109.346 12.6107V20.1673H112.448V11.8791C112.448 10.9168 112.242 10.0714 111.833 9.34588C111.424 8.60498 110.855 8.02702 110.127 7.61815C109.417 7.2062 108.602 7.0033 107.686 7.0033C106.659 7.0033 105.752 7.26461 104.962 7.78416C104.455 8.11003 104.027 8.5435 103.683 9.08457C103.4 8.59884 103.007 8.18074 102.499 7.83335C101.694 7.27998 100.763 7.0033 99.705 7.0033C98.7427 7.0033 97.9065 7.23079 97.1933 7.68886C96.7291 7.98706 96.3663 8.38979 96.105 8.89089V7.28613L96.1112 7.28305Z" fill="white" />
	<path d="M117.95 20.1673H114.938V7.40601H117.95V20.1673Z" fill="white" />
	<path d="M120.677 7.40295V20.1642H123.751V12.6814C123.751 12.1189 123.862 11.6331 124.08 11.2273C124.298 10.8215 124.603 10.5079 124.996 10.2897C125.387 10.056 125.832 9.93921 126.333 9.93921C126.834 9.93921 127.296 10.056 127.671 10.2897C128.061 10.5079 128.365 10.8215 128.587 11.2273C128.805 11.6331 128.916 12.1189 128.916 12.6814V20.1642H131.99V11.9529C131.99 10.9998 131.787 10.1606 131.381 9.44118C130.976 8.70643 130.404 8.13462 129.669 7.72882C128.95 7.32302 128.12 7.12012 127.182 7.12012C126.244 7.12012 125.476 7.32302 124.79 7.72882C124.274 8.0301 123.865 8.44205 123.57 8.96775V7.40295H120.683H120.677Z" fill="white" />
	<path fill-rule="evenodd" clip-rule="evenodd" d="M21.5235 14.8579C19.3069 13.7235 16.3495 13.3423 14.6125 13.2132C16.9766 13.0379 21.6034 12.3954 23.5402 10.0221C26.5714 7.75329 26.4269 0.0768665 26.4269 0.0768665C26.4269 0.0768665 19.1532 -0.725515 15.9775 2.89596C14.0038 4.86041 13.392 8.27284 13.2137 10.6492C13.0354 8.27591 12.4237 4.86041 10.45 2.89596C7.27427 -0.728589 0.000575384 0.0768665 0.000575384 0.0768665C0.000575384 0.0768665 -0.0885781 4.86349 1.36555 7.99615C2.08185 9.53943 3.39148 10.7968 4.90402 11.5715C7.12056 12.7059 10.078 13.0871 11.8149 13.2162C10.078 13.3454 7.12056 13.7266 4.90402 14.861C3.39148 15.6357 2.08185 16.8931 1.36555 18.4363C-0.0885781 21.5659 0.000575384 26.3525 0.000575384 26.3525C0.000575384 26.3525 7.27427 27.1549 10.45 23.5335C12.4237 21.569 13.0354 18.1535 13.2137 15.7802C13.392 18.1535 14.0038 21.569 15.9775 23.5335C19.1532 27.1549 26.4269 26.3525 26.4269 26.3525C26.4269 26.3525 26.5191 21.5659 25.0619 18.4333C24.3456 16.89 23.036 15.6326 21.5235 14.8579ZM21.7663 21.5721C21.7294 21.5629 17.9327 20.4807 13.06 13.9725C11.6305 15.0885 8.03976 18.0398 4.62119 22.0701L4.46747 22.2515L4.52896 22.0209C4.53818 21.981 5.65106 18.0705 12.4298 13.0902C11.775 12.1187 10.2348 9.88375 4.28917 4.61755L4.15697 4.50072L4.3322 4.52532C4.45825 4.54376 7.51406 5.02335 13.0969 12.2171C13.0969 12.2171 13.1676 12.3155 13.2967 12.4876C14.0838 11.9435 16.3618 10.3264 21.4835 4.54069L21.6003 4.4085L21.5757 4.58373C21.5573 4.70977 21.0777 7.75021 13.93 13.3115C15.2796 15.0147 18.0711 18.3041 21.8155 21.4768L22 21.6336L21.7694 21.5721H21.7663Z" fill="white" />
</svg>
