<svg xmlns="http://www.w3.org/2000/svg" version="1.0" viewBox="0 0 172 68">
	<path fill="#FFF" fill-opacity=".2" d="M125.4 30.5c0 4.9.1 7.1.3 4.8s.2-6.4 0-9-.3-.8-.3 4.2m-80 2c0 4.9.1 7.1.3 4.8s.2-6.4 0-9-.3-.8-.3 4.2" />
	<path fill="#FFF" fill-opacity=".7" d="M91.4 32.5c.1 8.8.3 10 1.9 10.1q1.65.15.3-.3c-1.2-.3-1.6-2.6-1.9-10.1l-.3-9.7zM68.5 42c-1.6.7-1.7.9-.3.9.9.1 2-.4 2.3-.9.7-1.1.7-1.1-2 0m-19.2.7c1.5.2 3.9.2 5.5 0 1.5-.2.2-.4-2.8-.4s-4.3.2-2.7.4m35.5 0c.7.3 1.6.2 1.9-.1.4-.3-.2-.6-1.3-.5-1.1 0-1.4.3-.6.6m17 0c.7.3 1.6.2 1.9-.1.4-.3-.2-.6-1.3-.5-1.1 0-1.4.3-.6.6" />
	<path fill="#FFF" d="M46.8 22.6c-.5.4-.8 4.9-.8 10.1V42h6.9c5.3 0 7.4-.4 9.4-2 4.6-3.6 4.3-12.9-.5-15.9-2.5-1.5-13.9-2.7-15-1.5m13.8 3.8c1.4 1.1 1.9 2.6 1.8 6.2-.1 5.9-2.1 7.6-8.4 7.2l-4.5-.3-.3-7.3-.3-7.2h4.9c2.6 0 5.7.6 6.8 1.4M74.5 23c-1.4 2.2-6.5 18.3-6 18.8.9.9 1.4-.1 4.4-8.4 1.6-4.3 3.5-8 4.3-8.2 1-.2 2.3 2.3 4.3 8.3 1.6 4.7 3.2 8.5 3.7 8.5.4 0 .8-.3.8-.7 0-1.6-5.3-16.8-6.3-18.1-1.1-1.4-4.3-1.6-5.2-.2M92 32c0 8.2.3 10 1.5 10S95 40.2 95 32s-.3-10-1.5-10S92 23.8 92 32m10.6-8.4c-2.3 2.2-2.3 18.4-.1 18.4 1.2 0 1.5-1.6 1.5-8.5 0-7.8.2-8.5 2-8.5 1.4 0 3.1 2.2 6.2 8.2 3.7 7.1 4.7 8.3 7.1 8.6 4.8.6 5.7-1.1 5.7-10.9 0-7.2-.3-8.9-1.5-8.9s-1.5 1.7-1.5 9c0 8.3-.2 9-2 9-1.5 0-3-2.1-6.1-8.3-2.3-4.5-4.7-8.5-5.3-8.9-1.8-1.2-4.4-.9-6 .8" />
	<path fill="#FFF" fill-opacity=".9" d="M118.8 42.7c.6.2 1.8.2 2.5 0 .6-.3.1-.5-1.3-.5s-1.9.2-1.2.5" />
	<path fill="#FFF" fill-opacity=".8" d="M104.3 34c0 4.7.2 6.6.4 4.2.2-2.3.2-6.1 0-8.5-.2-2.3-.4-.4-.4 4.3m-52.5 5.7c1.2.2 3 .2 4 0 .9-.3-.1-.5-2.3-.4-2.2 0-3 .2-1.7.4" />
	<path fill="#BFBFBF" fill-opacity=".3" d="M95.4 32c0 5.8.1 8.1.3 5.2.2-2.8.2-7.6 0-10.5-.2-2.8-.3-.5-.3 5.3" />
	<path fill="#FFF" fill-opacity=".5" d="M51.8 25.7c1.2.2 3 .2 4 0 .9-.3-.1-.5-2.3-.4-2.2 0-3 .2-1.7.4" />
	<path fill="#BFBFBF" fill-opacity=".8" d="M121.4 30.5c0 4.9.1 7.1.3 4.8s.2-6.4 0-9-.3-.8-.3 4.2m-72.1 2c0 3.8.2 5.3.4 3.2.2-2 .2-5.2 0-7-.2-1.7-.4-.1-.4 3.8" />
	<path fill="#BFBFBF" fill-opacity=".1" d="M100.4 34c0 5.2.1 7.4.3 4.7.2-2.6.2-6.8 0-9.5-.2-2.6-.3-.4-.3 4.8" />
</svg>
