<svg viewBox="0 0 128 32" fill="none" xmlns="http://www.w3.org/2000/svg">
	<path d="M48.763 2.98312C52.0136 5.37428 54.2584 9.1578 54.9951 13.1126C55.4572 17.8899 54.6232 22.2982 51.6157 26.1482C49.0654 29.0891 45.8442 31.3604 41.8745 31.8165C36.85 32.1634 32.8756 31.302 28.985 27.9431C26.3695 25.5046 25.2926 22.5907 24.2872 19.2542C24.1544 19.6444 24.1544 19.6444 24.0189 20.0426C22.4788 24.3371 20.0391 27.5831 15.9646 29.7926C10.5284 32.1505 6.45093 31.2582 0 31.2582C0 21.1246 0 10.991 0 0.550258C15.3958 0.550258 15.3958 0.550258 20.3789 5.29603C22.2913 7.35623 23.6659 10.0999 24.2872 12.8334C24.3347 12.6377 24.3822 12.4419 24.4311 12.2402C25.4579 8.22064 27.6638 4.69108 31.1616 2.32992C31.5642 2.10083 31.9718 1.88045 32.3829 1.66691C32.7408 1.47097 32.7408 1.47097 33.1059 1.27107C38.1716 -1.10536 44.2171 0.0697636 48.763 2.98312Z" fill="#FAFAFA" />
	<path d="M97.7372 2.47624C100.198 4.15669 101.753 6.00073 103.099 8.62873C103.193 8.8119 103.288 8.99507 103.385 9.18378C105.245 12.997 105.275 17.6418 103.923 21.6236C102.262 26.0633 99.1309 28.9908 94.9161 30.9792C91.1409 32.4772 86.6156 32.2594 82.9121 30.7001C79.8976 29.3903 77.547 27.1204 75.933 24.2793C75.8276 24.0958 75.7221 23.9122 75.6135 23.7232C74.2697 21.2167 73.8284 18.7651 73.8567 15.9393C73.8589 15.6438 73.861 15.3483 73.8631 15.0439C73.9077 12.9319 74.1224 11.1084 75.0955 9.2045C75.2139 8.967 75.3323 8.72949 75.4543 8.48479C77.4378 4.88235 80.5692 1.94502 84.5064 0.628965C89.0823 -0.640568 93.739 0.0320776 97.7372 2.47624Z" fill="#FAFAFA" />
	<path d="M126.46 2.78375C126.294 4.14292 125.7 5.18268 125.047 6.36053C124.942 6.55395 124.836 6.74738 124.728 6.94666C124.47 7.42101 124.209 7.89414 123.948 8.36701C123.784 8.31128 123.62 8.25555 123.45 8.19813C123.024 8.05411 122.598 7.91223 122.17 7.77161C121.691 7.61367 121.212 7.45243 120.735 7.28744C118.888 6.6794 117.125 6.23668 115.294 7.07589C114.708 7.48789 114.708 7.48789 114.456 8.08785C114.304 9.43422 114.304 9.43422 114.886 10.5938C115.767 11.3183 116.694 11.7843 117.719 12.2753C117.919 12.3741 118.12 12.4729 118.327 12.5747C119.333 13.067 120.341 13.5216 121.383 13.9328C123.323 14.7665 125.318 16.3519 126.46 18.1377C126.46 18.322 126.46 18.5062 126.46 18.696C126.645 18.696 126.829 18.696 127.019 18.696C127.75 21.165 127.946 23.7786 127.019 26.2334C125.511 28.8577 123.424 30.3208 120.598 31.2584C120.264 31.3735 119.93 31.4887 119.586 31.6073C114.877 32.675 110.116 31.4843 106.081 29.0251C105.607 28.6647 105.137 28.2968 104.686 27.9084C105.095 26.4625 105.751 25.3 106.535 24.035C106.652 23.8429 106.77 23.6507 106.89 23.4527C107.178 22.9829 107.467 22.5143 107.756 22.046C108.64 22.3774 109.403 22.7369 110.182 23.2673C112.44 24.6926 114.548 25.4728 117.248 25.1168C118.41 24.6888 118.794 24.4722 119.481 23.4418C119.673 22.3001 119.673 22.3001 119.481 21.2085C118.841 20.4787 118.081 20.0212 117.248 19.5335C117.04 19.4069 116.833 19.2802 116.619 19.1497C115.641 18.5786 114.695 18.1061 113.619 17.7539C111.006 16.824 108.925 14.5472 107.495 12.2404C106.702 10.0386 106.922 7.56618 107.878 5.4707C109.176 3.19324 111.076 1.51005 113.508 0.509013C117.995 -0.615392 122.562 0.447585 126.46 2.78375Z" fill="#FAFAFA" />
	<path d="M56.1113 0.550293C58.4144 0.550293 60.7175 0.550293 63.0904 0.550293C63.0904 8.65719 63.0904 16.7641 63.0904 25.1166C66.5911 25.1166 70.0918 25.1166 73.6986 25.1166C73.6986 27.1434 73.6986 29.1701 73.6986 31.2582C67.8948 31.2582 62.091 31.2582 56.1113 31.2582C56.1113 21.1246 56.1113 10.991 56.1113 0.550293Z" fill="#FBFBFB" />
	<path d="M93.7992 8.0878C95.4757 9.42907 96.5906 11.3323 97.1491 13.3919C97.4151 16.6628 97.292 19.7207 95.2997 22.4473C93.8218 24.1651 92.0045 24.9147 89.7862 25.2029C87.5439 25.313 85.8754 24.7108 84.0285 23.4418C82.3846 21.8691 81.5093 19.8233 81.3949 17.563C81.3902 17.0625 81.3899 16.5619 81.3939 16.0614C81.3883 15.8129 81.3827 15.5644 81.377 15.3084C81.3789 12.6743 82.3724 10.6447 84.0394 8.63304C86.5777 6.10483 90.8617 6.37802 93.7992 8.0878Z" fill="#040404" />
	<path d="M44.1079 8.08768C46.1839 9.8237 47.2668 12.3958 47.544 15.0558C47.6565 18.0358 46.9636 20.3343 45.2638 22.7983C44.0027 24.156 42.2685 24.9571 40.4504 25.2617C38.1524 25.3418 36.3392 24.6987 34.3895 23.5289C32.3585 21.3818 31.7243 18.83 31.72 15.9566C31.7098 15.6001 31.7098 15.6001 31.6993 15.2363C31.687 12.5317 32.8075 10.3458 34.6164 8.36684C37.2561 6.30786 41.2809 6.29739 44.1079 8.08768Z" fill="#030303" />
	<path d="M6.97852 6.97119C9.90842 6.97119 12.4862 7.40125 14.6326 9.5251C16.5161 11.7295 16.9336 14.2631 16.891 17.093C16.5911 19.303 15.4999 21.5138 13.8704 23.058C11.8228 24.5669 9.46298 25.1168 6.97852 25.1168C6.97852 19.1287 6.97852 13.1407 6.97852 6.97119Z" fill="#030303" />
	<path d="M101.895 25.1167C102.08 25.3009 102.264 25.4852 102.454 25.675C101.624 26.5041 100.795 27.3333 99.9411 28.1875C99.7569 28.0954 99.5726 28.0032 99.3828 27.9083C99.5847 27.7113 99.5847 27.7113 99.7907 27.5103C99.967 27.3365 100.143 27.1627 100.325 26.9836C100.587 26.7261 100.587 26.7261 100.855 26.4634C101.387 25.9296 101.387 25.9296 101.895 25.1167Z" fill="#2C2C2C" />
	<path d="M24.009 10.6001C24.2854 10.6922 24.5617 10.7843 24.8465 10.8793C24.7751 11.5334 24.681 12.1853 24.5673 12.8334C24.2909 12.9716 24.2909 12.9716 24.009 13.1126C23.6949 11.5423 23.6949 11.5423 24.009 10.6001Z" fill="#222222" />
	<path d="M110.269 22.0456C110.269 22.4141 110.269 22.7826 110.269 23.1623C109.431 23.1623 109.431 23.1623 108.82 22.6039C108.653 22.4197 108.486 22.2354 108.314 22.0456C109.64 21.7315 109.64 21.7315 110.269 22.0456Z" fill="#212121" />
	<path d="M84.5871 8.08789C84.7713 8.18001 84.9556 8.27214 85.1454 8.36705C84.7033 9.25121 84.4607 9.68824 83.5577 10.1293C83.3446 10.1926 83.1316 10.2559 82.9121 10.3212C83.4649 9.5842 84.0176 8.84721 84.5871 8.08789Z" fill="#272727" />
	<path d="M81.7949 30.1416C82.4398 30.3258 83.0847 30.5101 83.7491 30.6999C83.4727 31.1145 83.4727 31.1145 83.1907 31.5374C82.7301 31.4453 82.2695 31.3532 81.7949 31.2583C81.7949 30.8898 81.7949 30.5213 81.7949 30.1416Z" fill="#191919" />
	<path d="M24.0077 18.6958C24.7239 19.412 24.7169 19.9456 24.8452 20.9291C24.4767 20.9291 24.1082 20.9291 23.7285 20.9291C23.8206 20.1921 23.9128 19.4551 24.0077 18.6958Z" fill="#2D2D2D" />
	<path d="M108.873 14.2295C109.426 14.6901 109.979 15.1507 110.548 15.6253C110.025 15.7998 110.025 15.7998 109.431 15.9045C109.247 15.7202 109.063 15.536 108.873 15.3461C108.873 14.9776 108.873 14.6092 108.873 14.2295Z" fill="#232323" />
	<path d="M54.4375 17.8584C54.5296 17.8584 54.6217 17.8584 54.7166 17.8584C54.7964 19.9322 54.7964 19.9322 54.1583 20.9292C53.8719 19.6979 53.8688 18.9956 54.4375 17.8584Z" fill="#DBDBDB" />
</svg>
