<svg viewBox="0 0 163 29" fill="none" xmlns="http://www.w3.org/2000/svg">
	<mask id="mask0_390_204" style="mask-type:luminance" maskUnits="userSpaceOnUse" x="0" y="0" width="163" height="29">
		<path d="M162.134 0H0V28.5417H162.134V0Z" fill="white" />
	</mask>
	<g mask="url(#mask0_390_204)">
		<path d="M14.3467 2.14401C13.7343 2.71481 13.1324 3.27504 12.5304 3.83261C9.73476 6.42761 6.93904 9.02526 4.14071 11.615C3.49921 12.2095 2.83393 12.7804 2.02876 13.1292C1.07046 13.544 0.521353 13.2851 0.212479 12.2518C-0.217832 10.8063 0.0118429 9.45864 0.843424 8.21663C1.55093 7.15962 2.44323 6.27963 3.3593 5.42343C4.81917 4.05988 6.28962 2.70952 7.77856 1.38295C8.43062 0.801583 9.14341 0.270429 10.0146 0.0933771C12.6228 -0.432493 14.286 2.06737 14.3494 2.14137L14.3467 2.14401Z" fill="white" />
		<path d="M1.79688 15.3463C3.38347 14.8892 4.57411 13.8824 5.73304 12.8227C9.42895 9.45077 13.1196 6.0762 16.8313 2.72278C17.6497 1.98286 18.5103 1.27466 19.4211 0.656296C20.5801 -0.13119 21.8393 -0.24482 23.0801 0.505669C23.5289 0.775211 23.9697 1.08968 24.3341 1.46492C25.5986 2.77299 26.8473 4.10222 28.0644 5.45521C29.3579 6.89275 30.6304 8.35146 31.8685 9.83659C32.2934 10.3466 32.6419 10.9412 32.9298 11.5437C33.4656 12.6641 33.3282 13.7714 32.6764 14.8152C32.0929 15.7507 31.3115 16.517 30.5063 17.2437C27.3541 20.0924 24.2021 22.9411 21.013 25.7501C20.1577 26.5059 19.2152 27.1824 18.2437 27.7796C16.4142 28.9079 14.5795 28.7678 12.911 27.4308C11.9395 26.6539 11.0261 25.7845 10.1919 24.8596C7.50444 21.8814 4.86714 18.861 2.21135 15.8537C2.07671 15.7031 1.95527 15.5392 1.79688 15.3437V15.3463Z" fill="white" />
		<path d="M56.4761 0.591878H60.4837V22.3191H56.4761V20.4878C55.2963 21.9993 53.6173 22.7525 51.4445 22.7525C49.2719 22.7525 47.5665 21.9597 46.0855 20.3768C44.6045 18.7939 43.8652 16.8543 43.8652 14.5578C43.8652 12.2615 44.6045 10.3218 46.0855 8.73891C47.5665 7.15601 49.3511 6.36326 51.4445 6.36326C53.5379 6.36326 55.2963 7.11903 56.4761 8.62793V0.589233V0.591878ZM49.0976 17.7104C49.916 18.527 50.9456 18.9366 52.189 18.9366C53.4323 18.9366 54.4566 18.527 55.2645 17.7104C56.0725 16.8939 56.4761 15.8421 56.4761 14.5605C56.4761 13.2788 56.0725 12.2271 55.2645 11.4105C54.4566 10.594 53.4323 10.1844 52.189 10.1844C50.9456 10.1844 49.916 10.594 49.0976 11.4105C48.2793 12.2271 47.8701 13.2788 47.8701 14.5605C47.8701 15.8421 48.2793 16.8939 49.0976 17.7104Z" fill="white" />
		<path d="M73.8759 6.79932H78.1633L72.5005 22.3455C71.6928 24.5626 70.6235 26.172 69.2878 27.1761C67.9546 28.1802 66.2941 28.6321 64.3088 28.5265V24.8031C65.3859 24.8243 66.2387 24.597 66.8721 24.1214C67.5033 23.6457 68.0073 22.8793 68.3796 21.8249L62.0122 6.80196H66.3918L70.4415 17.2322L73.8786 6.80196L73.8759 6.79932Z" fill="white" />
		<path d="M88.3477 6.36324C90.0455 6.36324 91.4498 6.9314 92.5561 8.07034C93.6648 9.20931 94.2166 10.7816 94.2166 12.7873V22.3164H90.209V13.2841C90.209 12.2509 89.9291 11.4581 89.3696 10.9085C88.8099 10.3615 88.0654 10.0866 87.1334 10.0866C86.0985 10.0866 85.2697 10.4064 84.6493 11.0485C84.0289 11.6907 83.7175 12.6526 83.7175 13.9342V22.3138H79.71V6.794H83.7175V8.53281C84.6915 7.08469 86.2334 6.3606 88.3453 6.3606L88.3477 6.36324Z" fill="white" />
		<path d="M108.805 6.79931H112.812V22.3191H108.805V20.4878C107.604 21.9993 105.917 22.7525 103.742 22.7525C101.566 22.7525 99.8951 21.9597 98.4141 20.3768C96.9331 18.7939 96.1938 16.8543 96.1938 14.5579C96.1938 12.2615 96.9331 10.3218 98.4141 8.73893C99.8951 7.15606 101.669 6.36328 103.742 6.36328C105.917 6.36328 107.604 7.11905 108.805 8.62795V6.79666V6.79931ZM101.411 17.7105C102.218 18.527 103.243 18.9366 104.486 18.9366C105.729 18.9366 106.759 18.527 107.577 17.7105C108.396 16.8939 108.805 15.8422 108.805 14.5605C108.805 13.2789 108.396 12.2271 107.577 11.4106C106.759 10.594 105.729 10.1844 104.486 10.1844C103.243 10.1844 102.218 10.594 101.411 11.4106C100.603 12.2271 100.199 13.2789 100.199 14.5605C100.199 15.8422 100.603 16.8939 101.411 17.7105Z" fill="white" />
		<path d="M132.524 6.36328C134.306 6.36328 135.729 6.942 136.796 8.10209C137.862 9.26218 138.395 10.8134 138.395 12.7583V22.3191H134.388V13.0384C134.388 12.1082 134.161 11.3841 133.704 10.8662C133.248 10.3483 132.606 10.0893 131.777 10.0893C130.866 10.0893 130.156 10.3906 129.649 10.9904C129.143 11.5903 128.889 12.4597 128.889 13.5986V22.3217H124.882V13.041C124.882 12.1109 124.655 11.3868 124.198 10.8688C123.741 10.3509 123.1 10.0919 122.271 10.0919C121.381 10.0919 120.671 10.3932 120.143 10.993C119.615 11.5929 119.351 12.4623 119.351 13.6013V22.3244H115.344V6.80457H119.351V8.4509C120.283 7.06355 121.722 6.3712 123.67 6.3712C125.618 6.3712 126.983 7.11641 127.894 8.60683C128.929 7.11641 130.473 6.3712 132.522 6.3712L132.524 6.36328Z" fill="white" />
		<path d="M142.927 4.93633C142.264 4.93633 141.689 4.69321 141.203 4.20697C140.717 3.72073 140.472 3.14731 140.472 2.48402C140.472 1.82073 140.714 1.24201 141.203 0.745205C141.689 0.248401 142.264 0 142.927 0C143.589 0 144.194 0.248401 144.682 0.745205C145.168 1.24201 145.411 1.82073 145.411 2.48402C145.411 3.14731 145.168 3.72073 144.682 4.20697C144.197 4.69321 143.61 4.93633 142.927 4.93633ZM140.939 22.3191V6.79933H144.946V22.3191H140.939Z" fill="white" />
		<path d="M155.112 22.7525C152.77 22.7525 150.819 21.9676 149.256 20.3927C147.694 18.8203 146.912 16.8754 146.912 14.5579C146.912 12.2403 147.694 10.2954 149.256 8.72308C150.819 7.15076 152.773 6.36328 155.112 6.36328C156.624 6.36328 158 6.7253 159.243 7.44936C160.487 8.17342 161.429 9.1459 162.071 10.3668L158.623 12.383C158.311 11.7409 157.842 11.2335 157.21 10.8609C156.58 10.4883 155.869 10.3033 155.083 10.3033C153.881 10.3033 152.886 10.7024 152.1 11.4978C151.313 12.2959 150.919 13.3132 150.919 14.5552C150.919 15.7972 151.313 16.7856 152.1 17.581C152.886 18.379 153.881 18.7754 155.083 18.7754C155.89 18.7754 156.608 18.5957 157.242 18.231C157.873 17.869 158.346 17.3669 158.654 16.7248L162.134 18.712C161.45 19.9329 160.487 20.9106 159.246 21.6452C158.002 22.3799 156.627 22.7472 155.114 22.7472L155.112 22.7525Z" fill="white" />
	</g>
</svg>
