<svg xmlns="http://www.w3.org/2000/svg" version="1.0" viewBox="0 0 404 72">
	<path fill="#FFF" fill-opacity=".5" d="M113.9 19.7c-1.3 1.6-1.2 1.7.4.4.9-.7 1.7-1.5 1.7-1.7 0-.8-.8-.3-2.1 1.3m8.1-1.3c0 .2.8 1 1.8 1.7 1.5 1.3 1.6 1.2.3-.4s-2.1-2.1-2.1-1.3m61.4 17.1c0 4.9.1 7.1.3 4.8s.2-6.4 0-9-.3-.8-.3 4.2m93.9 0c0 2.2.2 3 .4 1.7.2-1.2.2-3 0-4-.3-.9-.5.1-.4 2.3m-148.4 2.2c-1.3 1.6-1.2 1.7.4.4.9-.7 1.7-1.5 1.7-1.7 0-.8-.8-.3-2.1 1.3M234.3 40c0 2.5.2 3.5.4 2.2.2-1.2.2-3.2 0-4.5-.2-1.2-.4-.2-.4 2.3m-113.8 6.1c-.4.6-1.4.8-2.4.4-1.3-.5-1.4-.4-.3.6 1 1.1 1.5 1 2.9-.4 1-.9 1.4-1.7 1.1-1.7-.4 0-1 .5-1.3 1.1" />
	<path fill="#FFF" fill-opacity=".4" d="M117.3 19.5c1.7 1.9 1.7 1.9 3.5 0 1.6-1.8 1.6-1.8 0-.6-1.5 1.1-2.1 1.1-3.5 0-1.7-1.2-1.7-1.2 0 .6m.1 5.7c-.4.7-.3.8.5.4.6-.4 2-.2 2.9.6 1.5 1.2 1.6 1.1.3-.5-1.6-2-2.7-2.2-3.7-.5m182.4 6.5c.7.3 1.6.2 1.9-.1.4-.3-.2-.6-1.3-.5-1.1 0-1.4.3-.6.6M108 34.6c-1.1 1.2-1 1.8.5 3.2 1.8 1.6 1.8 1.6.6-.1-1.1-1.4-1.1-2-.1-3.2.7-.8 1-1.5.7-1.5-.2 0-1 .7-1.7 1.6m27-.1c-.7.9-1.1 1.7-.9 2 .3.2 1-.5 1.7-1.5 1.4-2.4 1-2.6-.8-.5m102.2 5.2c-.1 2.3-.8 4.4-1.4 4.6q-1.5.6 0 .6c1.7.1 2.4-2 1.9-6.1-.3-3-.4-3-.5.9m-133.2-1c0 .5 1.2 2 2.8 3.4l2.7 2.4-2.5-3c-1.4-1.7-2.6-3.2-2.7-3.4q-.3-.3-.3.6m55 4.1c0 .8-2 1.3-5.2 1.4l-5.3.2 4.9.3c4.6.4 7.8-.8 6.3-2.4-.4-.3-.7-.1-.7.5m92.8 1.9c.7.3 1.6.2 1.9-.1.4-.3-.2-.6-1.3-.5-1.1 0-1.4.3-.6.6m-140.6 4.8c2.6 2.7 4.9 4.7 5.1 4.5.2-.3-2-2.5-4.7-5l-5.1-4.4zm11.4-2.8c-.6 1.4-.5 1.5.5.6.7-.7 1-1.5.7-1.8s-.9.2-1.2 1.2m3.4 2.8c-2.4 2.5-4.2 4.5-3.9 4.5s2.5-2 4.9-4.5 4.2-4.5 3.9-4.5-2.5 2-4.9 4.5" />
	<g fill="#FFF" stroke-width="0">
		<path d="m113.4 21.2-1.9 2.3 2.5-2c1.4-1.1 2.7-2.1 2.9-2.2q.3-.3-.6-.3c-.5 0-1.8 1-2.9 2.2" />
		<path d="M106 28.7c-3.5 3.7-3.7 4-.8 1.4 3.8-3.4 3.8-3.4 6-1.5l2.3 1.9-1.8-2.2c-1.1-1.2-1.6-2.7-1.2-3.2q1.95-3.3-4.5 3.6m20.6-.9-1.9 2.7 2.4-2.2c1.2-1.2 2.1-2.4 1.8-2.7-.2-.2-1.3.8-2.3 2.2M149 36v8h5c2.8 0 5-.5 5-1 0-.6-2-1-4.5-1-4.1 0-4.5-.2-4.5-2.5s.4-2.5 4-2.5c2.2 0 4-.5 4-1 0-.6-1.8-1-4-1-3.6 0-4-.3-4-2.5 0-2.3.4-2.5 4.5-2.5 2.5 0 4.5-.5 4.5-1 0-.6-2.2-1-5-1h-5zm35 0c0 4.7.4 8 1 8s1-3.3 1-8-.4-8-1-8-1 3.3-1 8m15.3 0c0 4.7.2 6.6.4 4.2.2-2.3.2-6.1 0-8.5-.2-2.3-.4-.4-.4 4.3m46.7-7.4c0 .6 1.1 4.1 2.3 8 2.4 7 5.1 9.5 6.3 5.7.3-1 1.5-4.1 2.6-7s1.8-5.8 1.5-6.5c-.5-1.4-.3-2-3.8 8-1.2 3.5-2.5 5.9-2.9 5.5s-1.5-3.5-2.5-6.8c-1.6-5.6-3.5-9.2-3.5-6.9m44.3 7.4c0 4.7.2 6.6.4 4.2.2-2.3.2-6.1 0-8.5-.2-2.3-.4-.4-.4 4.3m5.8-5.8c0 1-.7 1.8-1.3 1.8-1 0-1 .2-.1.8.6.4 1.3 3 1.5 5.7.3 4.5.5 5 2.8 5.2 1.4.2 1.9 0 1-.4-2.3-.9-3-2.4-3-6.5 0-3 .4-3.7 2.3-4.1 2.2-.4 2.2-.4 0-.6-1.2 0-2.4-.9-2.6-1.9-.4-1.6-.5-1.6-.6 0m-178.6.8c-.3.5 0 .7.7.5.8-.3 2.5.6 3.8 2l2.4 2.6-2.8 2.7-2.7 2.7-3-3.3c-1.6-1.8-2.9-2.9-2.9-2.4s1.4 2.1 3 3.7l3 2.9 3.2-3.2 3.2-3.2-2.9-3c-3.1-3.2-4-3.6-5-2m44.5 7c0 3.5.2 6.1.5 5.8.8-.7.9-10.8.1-11.5-.3-.3-.6 2.2-.6 5.7m6.5-4.6c1.2.8 2.1 3.2 2.6 6.2l.6 4.9.2-5.1c.1-5.1-1.1-7.4-3.8-7.4-1.1 0-1 .3.4 1.4m8.9.2c1 .9 1.6 3.3 1.6 6 0 2.4.5 4.4 1 4.4 1.3 0 1.3-7.6 0-10.1-.6-1-1.8-1.9-2.6-1.9-1.4 0-1.4.2 0 1.6m13.6-.4c1.9 1.1 2.5 2.1 2.5 4.8s-.6 3.7-2.5 4.8l-2.5 1.3 2.5-.3c1.6-.2 3-1.3 3.9-3.2 1.2-2.6 1.2-3.3 0-5.5-.9-1.5-2.5-2.7-3.9-2.9l-2.5-.3zm14.8-.1c-4.2 2.4-.7 11.8 3.9 10.6 1.6-.4 1.5-.5-.2-.6-2.4-.1-4.5-1.9-4.5-3.8 0-.9 1.6-1.3 5-1.3 5.4 0 6.5-1.4 3.2-4.3-2.1-1.9-4.9-2.1-7.4-.6m5.6.5c3.3 1.3 1.7 3.4-2.4 3.4s-4.9-.7-2.8-2.8c1.3-1.3 2.8-1.5 5.2-.6M218 38c0 3.3.4 6 1 6s1-2.7 1-6-.4-6-1-6-1 2.7-1 6m6.3-4.9c1.2.7 1.7 2.3 1.7 5.9 0 2.8.5 5 1 5 1.1 0 1.4-7.8.4-10.4-.3-.9-1.6-1.6-2.8-1.6-1.9.1-1.9.2-.3 1.1m8.5.1c1.8.9 2.2 1.9 2.2 6 0 2.6.5 4.8 1 4.8 1.4 0 1.2-9.4-.2-10.8-.7-.7-2.1-1.2-3.2-1.1-2 0-2 .1.2 1.1m29.6.2c-1 .8-1.6 1.8-1.1 2.2.4.4 1.3 0 2-1 .8-1.1 2.3-1.7 3.8-1.4 2.1.3 2.4.8 2.7 5.5.4 6.4 2.2 7.1 2.2.9 0-6.8-4.6-9.8-9.6-6.2m12.6 2.7c0 5.1 1.5 7.9 4.3 7.9h2.1l-2.2-1.6c-1.7-1.2-2.2-2.5-2.2-6 0-2.4-.4-4.4-1-4.4-.5 0-1 1.8-1 4.1m10.3 1.9c0 3.6.2 5 .4 3.2.2-1.7.2-4.7 0-6.5-.2-1.7-.4-.3-.4 3.3m-153.7-2.7c.2.7 1.4 1.9 2.7 2.6 2.1 1.3 2.1 1.2-.2-1.3-2.7-2.9-3.3-3.2-2.5-1.3" />
		<path d="M261.4 39.5c-1 2.4.4 4.5 2.8 4.4h2.3l-2.2-.9c-2.7-1.1-3-3.7-.5-4.3 1.6-.4 1.6-.5-.1-.6-1 0-2 .6-2.3 1.4m-151 4.7-1.9 2.3 2.3-1.9c1.2-1.1 2.2-2.1 2.2-2.3 0-.8-.8-.2-2.6 1.9m16.1-.2c1 1.1 2 2 2.3 2s-.3-.9-1.3-2-2-2-2.3-2 .3.9 1.3 2" />
	</g>
	<g fill="#FFF" fill-opacity=".9" stroke-opacity=".9" stroke-width="0">
		<path d="M120.5 20c-.3.6-1.6.8-2.8.5-2.2-.6-7.7 3.4-7.7 5.6 0 .6 1.2-.3 2.6-2 2.1-2.5 3-2.9 5.5-2.4 2 .4 2.9.2 2.9-.8 0-.7 1.6.2 3.5 2.1s3.5 2.9 3.5 2.4c0-1.1-5.2-6.4-6.2-6.4-.4 0-1 .5-1.3 1" />
		<path d="M116.2 24.2c-2 2-1.3 3.2.8 1.3 1.9-1.7 2.1-1.7 4.1.1 2.2 1.9 2.2 1.9 1-.4-1.3-2.4-4-2.9-5.9-1m12.8 2.6c0 .5 1.1 1.9 2.5 3.2 1.8 1.7 2.3 3 1.9 4.4-.6 1.8-.5 1.9 1 .7 1.3-1.1 1.4-1.7.4-3-2.6-3.2-5.8-6.2-5.8-5.3m-23.8 3.5c-2.4 2.5-2.9 3.6-2 4.5.8.8.8 1.5-.2 2.7-1.2 1.4-.4 2.5 5.8 8.7 6.1 6.2 7.3 7 8.6 5.9s1.9-1.1 3.2 0 2.5.3 8.5-5.7c6.2-6.2 6.8-7.2 5.4-8.4-1.3-1.1-1.5-1-1 .2.7 1.9-3.9 6.2-5.7 5.3-1-.6-1-.5-.2.4 2.1 2.2-3.2 6.4-8.3 6.6-3.8.1-4.8-.3-6.9-2.8-1.3-1.6-2.1-3.4-1.8-3.9.4-.7.2-.8-.5-.4-.6.4-2.5-.4-4.1-1.8-1.9-1.5-2.6-2.7-1.9-3.2.6-.3.9-1.8.6-3.3-.4-1.9.2-3.3 2.1-5.4 1.4-1.5 2.4-2.7 2.1-2.7s-1.9 1.5-3.7 3.3m43.1 5.7c0 4.7.2 6.6.4 4.2.2-2.3.2-6.1 0-8.5-.2-2.3-.4-.4-.4 4.3m50 0c0 4.7.2 6.6.4 4.2.2-2.3.2-6.1 0-8.5-.2-2.3-.4-.4-.4 4.3m2 0c0 4.7.2 6.6.4 4.2.2-2.3.2-6.1 0-8.5-.2-2.3-.4-.4-.4 4.3m89 0c0 4.7.2 6.6.4 4.2.2-2.3.2-6.1 0-8.5-.2-2.3-.4-.4-.4 4.3" />
		<path d="M122 32.5c1.9 1.9 3.6 3.5 3.9 3.5s-1-1.6-2.9-3.5-3.6-3.5-3.9-3.5 1 1.6 2.9 3.5m175.1-1.9c0 1.1.3 1.4.6.6.3-.7.2-1.6-.1-1.9-.3-.4-.6.2-.5 1.3m-189.9 2.6c-1.5 1.5-1.5 4.1 0 5.6 2 2 3.2 1.3 1.3-.8-1.7-1.9-1.7-2.1 0-4 1.9-2.1.7-2.8-1.3-.8m22.3.8c1.5 1.6 1.6 2.2.5 3.5-.7.9-1.1 1.8-.8 2 .3.3 1.1-.2 1.8-1 1.5-1.8-.1-6.5-2.1-6.5-.7 0-.5.8.6 2m33.7 0c0 1.4.2 1.9.5 1.2.2-.6.2-1.8 0-2.5-.3-.6-.5-.1-.5 1.3m49.1-.5c0 .8.4 1.2.9.9s.6-1 .3-1.5c-.9-1.3-1.2-1.1-1.2.6m56.2-.6c-.3.5-.2 1.2.3 1.5s.9-.1.9-.9c0-1.7-.3-1.9-1.2-.6m15.8 5.1c0 3.6.2 5 .4 3.2.2-1.7.2-4.7 0-6.5-.2-1.7-.4-.3-.4 3.3M113 34.5c-1.1 1.3-1 1.4.4.9.9-.3 1.6-1 1.6-1.5 0-1.3-.6-1.1-2 .6M297.3 37c0 2.5.2 3.5.4 2.2.2-1.2.2-3.2 0-4.5-.2-1.2-.4-.2-.4 2.3m-127 3c0 2.5.2 3.5.4 2.2.2-1.2.2-3.2 0-4.5-.2-1.2-.4-.2-.4 2.3m32.8-2.4c0 1.1.3 1.4.6.6.3-.7.2-1.6-.1-1.9-.3-.4-.6.2-.5 1.3m-39.8 2.9c0 2.2.2 3 .4 1.7.2-1.2.2-3 0-4-.3-.9-.5.1-.4 2.3M264.5 38c.3.5 1.7 1 3.1 1 1.3 0 2.4-.5 2.4-1 0-.6-1.4-1-3.1-1s-2.8.4-2.4 1m-2.5 2.4c0 .8.4 1.7.9 2 .5.4.7-.3.4-1.4-.6-2.3-1.3-2.6-1.3-.6m-57.4.4c-.3.6.1 1.5.8 2.1.8.7 1.7.8 2 .3.3-.6-.1-1.5-.8-2.1-.8-.7-1.7-.8-2-.3m6.9 1.3c-1 1.5.3 2.5 1.6 1.2.7-.7.7-1.3.1-1.7-.6-.3-1.4-.1-1.7.5m69.5 1c0 .5.5.7 1 .4.6-.3 1-.8 1-1.1 0-.2-.4-.4-1-.4-.5 0-1 .5-1 1.1m-165.9 2.8c.3.8 1.3 1.9 2.2 2.5 1.9 1.2 4.8-.1 5.5-2.5.4-1 0-.9-1.5.3-2.4 2.2-2.7 2.2-4.9.1-1.2-1.2-1.6-1.3-1.3-.4" />
	</g>
	<path fill="#FFF" fill-opacity=".6" d="m107.4 26.2-1.9 2.3 2.3-1.9c1.2-1.1 2.2-2.1 2.2-2.3 0-.8-.8-.2-2.6 1.9m25.1 2.8c2.1 2.2 4.1 4 4.4 4s-1.3-1.8-3.4-4-4.1-4-4.4-4 1.3 1.8 3.4 4m-30.1 2.2-1.9 2.3 2.3-1.9c2.1-1.8 2.7-2.6 1.9-2.6-.2 0-1.2 1-2.3 2.2m58.9 6.8c0 3.6.2 5 .4 3.2.2-1.7.2-4.7 0-6.5-.2-1.7-.4-.3-.4 3.3m56 0c0 3.6.2 5 .4 3.2.2-1.7.2-4.7 0-6.5-.2-1.7-.4-.3-.4 3.3m-39 2c0 2.5.2 3.5.4 2.2.2-1.2.2-3.2 0-4.5-.2-1.2-.4-.2-.4 2.3m94 0c0 2.5.2 3.5.4 2.2.2-1.2.2-3.2 0-4.5-.2-1.2-.4-.2-.4 2.3" />
	<path fill="#FFF" fill-opacity=".3" d="M151.3 27.7c1.5.2 3.9.2 5.5 0 1.5-.2.2-.4-2.8-.4s-4.3.2-2.7.4m34.9 3.3c0 1.9.2 2.7.5 1.7.2-.9.2-2.5 0-3.5-.3-.9-.5-.1-.5 1.8m-80.8.2-1.9 2.3 2.3-1.9c1.2-1.1 2.2-2.1 2.2-2.3 0-.8-.8-.2-2.6 1.9m48.4-.5c1.2.2 3 .2 4 0 .9-.3-.1-.5-2.3-.4-2.2 0-3 .2-1.7.4M274.3 36c0 2.5.2 3.5.4 2.2.2-1.2.2-3.2 0-4.5-.2-1.2-.4-.2-.4 2.3m-121.5 1.7c1.2.2 3 .2 4 0 .9-.3-.1-.5-2.3-.4-2.2 0-3 .2-1.7.4m67.5 2.8c0 2.2.2 3 .4 1.7.2-1.2.2-3 0-4-.3-.9-.5.1-.4 2.3m-88.7.3-1.9 2.7 2.4-2.2c1.2-1.2 2.1-2.4 1.8-2.7-.2-.2-1.3.8-2.3 2.2m21.2.9c1.2.2 3.2.2 4.5 0 1.2-.2.2-.4-2.3-.4s-3.5.2-2.2.4M114 45.9c0 .6.4 1.3 1 1.6s.7-.1.4-.9c-.7-1.8-1.4-2.1-1.4-.7m10.9 1.8c-1.3 1.6-1.2 1.7.4.4s2.1-2.1 1.3-2.1c-.2 0-1 .8-1.7 1.7" />
	<path fill="#FFF" fill-opacity=".2" d="M124 23.4c0 .2.8 1 1.8 1.7 1.5 1.3 1.6 1.2.3-.4s-2.1-2.1-2.1-1.3m-8.6 7.8-1.9 2.3 2.3-1.9c1.2-1.1 2.2-2.1 2.2-2.3 0-.8-.8-.2-2.6 1.9m4.6-1.8c0 .2.8 1 1.8 1.7 1.5 1.3 1.6 1.2.3-.4s-2.1-2.1-2.1-1.3m4 4c0 .2.8 1 1.8 1.7 1.5 1.3 1.6 1.2.3-.4s-2.1-2.1-2.1-1.3m28.8 1.3c1.2.2 3 .2 4 0 .9-.3-.1-.5-2.3-.4-2.2 0-3 .2-1.7.4m54.1 1.6c.5.5 1.9.7 3.2.5 2-.3 1.9-.5-.9-.9-2-.3-2.9-.2-2.3.4M169.3 40c0 2.5.2 3.5.4 2.2.2-1.2.2-3.2 0-4.5-.2-1.2-.4-.2-.4 2.3m12 0c0 2.5.2 3.5.4 2.2.2-1.2.2-3.2 0-4.5-.2-1.2-.4-.2-.4 2.3m-17 .5c0 2.2.2 3 .4 1.7.2-1.2.2-3 0-4-.3-.9-.5.1-.4 2.3" />
	<path fill="#FFF" fill-opacity=".7" d="M124.6 28.9c-.4.5-.2 1.2.3 1.5.5.4 1.2.2 1.5-.3.4-.5.2-1.2-.3-1.5-.5-.4-1.2-.2-1.5.3m-6.5 2.4c.2.1 1.3.9 2.4 1.7 1.9 1.4 1.9 1.4.6-.3-.7-.9-1.8-1.7-2.4-1.7q-.9 0-.6.3M286.3 38c0 3.6.2 5 .4 3.2.2-1.7.2-4.7 0-6.5-.2-1.7-.4-.3-.4 3.3m9-.5c0 2.2.2 3 .4 1.7.2-1.2.2-3 0-4-.3-.9-.5.1-.4 2.3m-123 3c0 2.2.2 3 .4 1.7.2-1.2.2-3 0-4-.3-.9-.5.1-.4 2.3m-60 2c0 .8.4 1.2.9.9s.6-1 .3-1.5c-.9-1.3-1.2-1.1-1.2.6" />
	<path fill="#FFF" fill-opacity=".1" d="M111 26.4c0 .2.8 1 1.8 1.7 1.5 1.3 1.6 1.2.3-.4s-2.1-2.1-2.1-1.3m177.4 9.1c0 4.9.1 7.1.3 4.8s.2-6.4 0-9-.3-.8-.3 4.2m-161.5-5.8c-1.3 1.6-1.2 1.7.4.4s2.1-2.1 1.3-2.1c-.2 0-1 .8-1.7 1.7m20.4 6.3c0 4.7.2 6.6.4 4.2.2-2.3.2-6.1 0-8.5-.2-2.3-.4-.4-.4 4.3m136-.5c0 2.2.2 3 .4 1.7.2-1.2.2-3 0-4-.3-.9-.5.1-.4 2.3m14.9 1.5c0 1.9.2 2.7.5 1.7.2-.9.2-2.5 0-3.5-.3-.9-.5-.1-.5 1.8M111 35.8c0 .5 1.8 2.6 4 4.7l4 3.9 4.3-4.4 4.2-4.5-4.3 4-4.3 4-4-4.2c-2.1-2.3-3.9-3.9-3.9-3.5m154.3 3.9c.9.2 2.3.2 3 0 .6-.3-.1-.5-1.8-.5-1.6 0-2.2.2-1.2.5m-155.4 3c-1.3 1.6-1.2 1.7.4.4s2.1-2.1 1.3-2.1c-.2 0-1 .8-1.7 1.7m16.1-1.3c0 .2.8 1 1.8 1.7 1.5 1.3 1.6 1.2.3-.4s-2.1-2.1-2.1-1.3m60.6 2.4c-.3.5.1.9.9.9s1.2-.4.9-.9c-.3-.4-.7-.8-.9-.8s-.6.4-.9.8m81 0c-.3.5.1.9.9.9s1.2-.4.9-.9c-.3-.4-.7-.8-.9-.8s-.6.4-.9.8" />
	<path fill="#FFF" fill-opacity=".8" d="M126.6 26.9c-.4.5-.2 1.2.3 1.5.5.4 1.2.2 1.5-.3.4-.5.2-1.2-.3-1.5-.5-.4-1.2-.2-1.5.3m-17 1.3c.3.5.9.7 1.2.4s1.2 0 2.1.6c1.3 1 1.4 1 .4-.2-1.5-1.6-4.6-2.3-3.7-.8m89.2-.5c.7.3 1.6.2 1.9-.1.4-.3-.2-.6-1.3-.5-1.1 0-1.4.3-.6.6m90.9 0c.7.5 1.4 4.2 1.6 8.8l.3 8v-8.4c-.1-6.6-.4-8.5-1.6-8.8-1.1-.3-1.1-.2-.3.4m-139.6 4.9c0 1.1.3 1.4.6.6.3-.7.2-1.6-.1-1.9-.3-.4-.6.2-.5 1.3m148.7 1.1c.6.2 1.8.2 2.5 0 .6-.3.1-.5-1.3-.5s-1.9.2-1.2.5m-183.4 6.2 3.6 3.6 2.7-2.7c1.5-1.5 2-2.6 1.2-2.5-2.3.4-4 1.8-3.4 2.8.9 1.4-1.1 1.1-2.4-.4-.6-.8-.7-1.7-.3-2.1s0-.6-.8-.4c-.8.1-1.4-.2-1.3-.8s-.5-1.1-1.3-1.1c-1 0-.2 1.3 2 3.6m112.9.1c0 2.5.2 3.5.4 2.2.2-1.2.2-3.2 0-4.5-.2-1.2-.4-.2-.4 2.3m-78.2-.4c0 1.1.3 1.4.6.6.3-.7.2-1.6-.1-1.9-.3-.4-.6.2-.5 1.3m55.5-.8c-.2.4 1.2.6 3.2.4 6.2-.6 6.9-1 2-1.1-2.6 0-4.9.3-5.2.7m7.9 2.2c.3.5.8 1 1.1 1 .2 0 .4-.5.4-1 0-.6-.5-1-1.1-1-.5 0-.7.4-.4 1m-25.9 2.2c.3.4 1.1.5 1.9.1 2.1-.7 1.9-1.2-.4-1-1.1 0-1.8.5-1.5.9m79.4-.1c0 .5.5.7 1 .4.6-.3 1-.8 1-1.1 0-.2-.4-.4-1-.4-.5 0-1 .5-1 1.1" />
</svg>
