<svg width="130" height="39" viewBox="0 0 130 39" fill="none" xmlns="http://www.w3.org/2000/svg">
	<path d="M9.70455 33.9091V4.81818H11.5682V33.9091H9.70455ZM14.6477 14.4205C14.5568 13.5038 14.1667 12.7917 13.4773 12.2841C12.7879 11.7765 11.8523 11.5227 10.6705 11.5227C9.86742 11.5227 9.18939 11.6364 8.63636 11.8636C8.08333 12.0833 7.65909 12.3902 7.36364 12.7841C7.07576 13.178 6.93182 13.625 6.93182 14.125C6.91667 14.5417 7.00379 14.9053 7.19318 15.2159C7.39015 15.5265 7.65909 15.7955 8 16.0227C8.34091 16.2424 8.73485 16.4356 9.18182 16.6023C9.62879 16.7614 10.1061 16.8977 10.6136 17.0114L12.7045 17.5114C13.7197 17.7386 14.6515 18.0417 15.5 18.4205C16.3485 18.7992 17.0833 19.2652 17.7045 19.8182C18.3258 20.3712 18.8068 21.0227 19.1477 21.7727C19.4962 22.5227 19.6742 23.3826 19.6818 24.3523C19.6742 25.7765 19.3106 27.0114 18.5909 28.0568C17.8788 29.0947 16.8485 29.9015 15.5 30.4773C14.1591 31.0455 12.5417 31.3295 10.6477 31.3295C8.76894 31.3295 7.13258 31.0417 5.73864 30.4659C4.35227 29.8902 3.26894 29.0379 2.48864 27.9091C1.71591 26.7727 1.31061 25.3674 1.27273 23.6932H6.03409C6.08712 24.4735 6.31061 25.125 6.70455 25.6477C7.10606 26.1629 7.64015 26.553 8.30682 26.8182C8.98106 27.0758 9.74242 27.2045 10.5909 27.2045C11.4242 27.2045 12.1477 27.0833 12.7614 26.8409C13.3826 26.5985 13.8636 26.2614 14.2045 25.8295C14.5455 25.3977 14.7159 24.9015 14.7159 24.3409C14.7159 23.8182 14.5606 23.3788 14.25 23.0227C13.947 22.6667 13.5 22.3636 12.9091 22.1136C12.3258 21.8636 11.6098 21.6364 10.7614 21.4318L8.22727 20.7955C6.26515 20.3182 4.71591 19.572 3.57955 18.5568C2.44318 17.5417 1.87879 16.1742 1.88636 14.4545C1.87879 13.0455 2.25379 11.8144 3.01136 10.7614C3.77652 9.70833 4.82576 8.88636 6.15909 8.29545C7.49242 7.70454 9.00758 7.40909 10.7045 7.40909C12.4318 7.40909 13.9394 7.70454 15.2273 8.29545C16.5227 8.88636 17.5303 9.70833 18.25 10.7614C18.9697 11.8144 19.3409 13.0341 19.3636 14.4205H14.6477ZM27.7415 20.9091V31H22.9006V7.72727H27.6051V16.625H27.8097C28.2036 15.5947 28.84 14.7879 29.7188 14.2045C30.5975 13.6136 31.6998 13.3182 33.0256 13.3182C34.2377 13.3182 35.2945 13.5833 36.196 14.1136C37.1051 14.6364 37.8097 15.3902 38.3097 16.375C38.8172 17.3523 39.0672 18.5227 39.0597 19.8864V31H34.2188V20.75C34.2263 19.6742 33.9536 18.8371 33.4006 18.2386C32.8551 17.6402 32.09 17.3409 31.1051 17.3409C30.446 17.3409 29.8627 17.4811 29.3551 17.7614C28.8551 18.0417 28.4612 18.4508 28.1733 18.9886C27.893 19.5189 27.7491 20.1591 27.7415 20.9091ZM46.9716 31H41.6989L49.733 7.72727H56.0739L64.0966 31H58.8239L52.9943 13.0455H52.8125L46.9716 31ZM46.642 21.8523H59.0966V25.6932H46.642V21.8523ZM71.8182 7.72727V31H66.8977V7.72727H71.8182ZM78.7642 37.5455C78.1506 37.5455 77.5748 37.4962 77.0369 37.3977C76.5066 37.3068 76.0672 37.1894 75.7188 37.0455L76.8097 33.4318C77.3778 33.6061 77.8892 33.7008 78.3438 33.7159C78.8059 33.7311 79.2036 33.625 79.5369 33.3977C79.8778 33.1705 80.1544 32.7841 80.3665 32.2386L80.6506 31.5L74.3892 13.5455H79.4801L83.0938 26.3636H83.2756L86.9233 13.5455H92.0483L85.2642 32.8864C84.9384 33.8258 84.4953 34.6439 83.9347 35.3409C83.3816 36.0455 82.6809 36.5871 81.8324 36.9659C80.9839 37.3523 79.9612 37.5455 78.7642 37.5455ZM101.918 31.3409C100.122 31.3409 98.5767 30.9773 97.2812 30.25C95.9934 29.5152 95.0009 28.4773 94.304 27.1364C93.607 25.7879 93.2585 24.1932 93.2585 22.3523C93.2585 20.5568 93.607 18.9811 94.304 17.625C95.0009 16.2689 95.982 15.2121 97.2472 14.4545C98.5199 13.697 100.012 13.3182 101.724 13.3182C102.876 13.3182 103.948 13.5038 104.94 13.875C105.94 14.2386 106.812 14.7879 107.554 15.5227C108.304 16.2576 108.887 17.1818 109.304 18.2955C109.721 19.4015 109.929 20.697 109.929 22.1818V23.5114H95.1903V20.5114H105.372C105.372 19.8144 105.221 19.197 104.918 18.6591C104.615 18.1212 104.194 17.7008 103.656 17.3977C103.126 17.0871 102.509 16.9318 101.804 16.9318C101.069 16.9318 100.418 17.1023 99.8494 17.4432C99.2888 17.7765 98.8494 18.2273 98.5312 18.7955C98.2131 19.3561 98.0502 19.9811 98.0426 20.6705V23.5227C98.0426 24.3864 98.2017 25.1326 98.5199 25.7614C98.8456 26.3902 99.304 26.875 99.8949 27.2159C100.486 27.5568 101.187 27.7273 101.997 27.7273C102.535 27.7273 103.027 27.6515 103.474 27.5C103.921 27.3485 104.304 27.1212 104.622 26.8182C104.94 26.5152 105.183 26.1439 105.349 25.7045L109.827 26C109.599 27.0758 109.134 28.0152 108.429 28.8182C107.732 29.6136 106.83 30.2348 105.724 30.6818C104.626 31.1212 103.357 31.3409 101.918 31.3409ZM112.997 31V28.1136L121.543 17.5341V17.4091H113.293V13.5455H127.372V16.6932L119.349 27.0114V27.1364H127.668V31H112.997Z" fill="white" />
</svg>
