<svg viewBox="0 0 141 30" fill="none" xmlns="http://www.w3.org/2000/svg">
	<path d="M18.6886 6.19373C17.527 5.70303 16.2502 5.43265 14.9083 5.43265C13.5664 5.43265 12.2896 5.70303 11.1279 6.19373L14.6003 0.17772C14.7355 -0.0576125 15.076 -0.0576125 15.2112 0.17772L18.6861 6.19373H18.6886Z" fill="#F2F2F2" />
	<path d="M10.2042 6.64444C7.91601 7.91124 6.19608 10.0743 5.51261 12.6604L2.93146 6.08365C2.83132 5.83079 3.04412 5.56542 3.312 5.60548L10.2042 6.64444Z" fill="#F2F2F2" />
	<path d="M7.26018 21.1449L0.250275 18.9819C-0.0100935 18.9018 -0.0851997 18.5688 0.11258 18.386L5.31994 13.5542C5.23482 14.0724 5.18976 14.6057 5.18976 15.149C5.18976 17.4122 5.96335 19.4951 7.26018 21.1449Z" fill="#F2F2F2" />
	<path d="M14.7633 24.8651L8.61712 29.0536C8.3918 29.2063 8.08637 29.0611 8.06634 28.7882L7.51807 21.4553C9.27054 23.5082 11.8642 24.8201 14.7633 24.8626V24.8651Z" fill="#F2F2F2" />
	<path d="M22.2766 21.4854L21.7308 28.7807C21.7108 29.051 21.4054 29.1988 21.1801 29.046L15.0464 24.8651C17.938 24.8251 20.5241 23.5232 22.2766 21.4854Z" fill="#F2F2F2" />
	<path d="M29.5614 18.9593L22.5815 21.1123C23.8634 19.4675 24.6269 17.3971 24.6269 15.1489C24.6269 14.5981 24.5794 14.0574 24.4917 13.5316L29.6966 18.3609C29.8969 18.5462 29.8193 18.8792 29.5614 18.9568V18.9593Z" fill="#F2F2F2" />
	<path d="M26.8851 6.0961L24.3065 12.6704C23.6255 10.0867 21.9106 7.92619 19.6299 6.65439L26.5046 5.61793C26.7725 5.57787 26.9853 5.84324 26.8851 6.0961Z" fill="#F2F2F2" />
	<path d="M14.9082 26.9631C13.4737 26.9631 12.312 28.1248 12.312 29.5593H17.5069C17.5069 28.1248 16.3452 26.9631 14.9107 26.9631H14.9082Z" fill="#F2F2F2" />
	<path d="M24.4017 22.7095C23.508 23.8311 23.6907 25.4659 24.8123 26.3597L28.0494 22.299C26.9278 21.4052 25.293 21.588 24.3992 22.7095H24.4017Z" fill="#F2F2F2" />
	<path d="M26.5296 12.6679C26.8475 14.0674 28.242 14.9411 29.639 14.6207L28.4823 9.55603C27.0829 9.87398 26.2091 11.2685 26.5296 12.6654V12.6679Z" fill="#F2F2F2" />
	<path d="M20.1586 4.72424C21.4504 5.34762 23.0026 4.80435 23.626 3.51002L18.9468 1.25684C18.3235 2.54866 18.8667 4.10086 20.1611 4.72424H20.1586Z" fill="#F2F2F2" />
	<path d="M9.54113 4.72424C10.833 4.10086 11.3762 2.54866 10.7528 1.25684L6.07373 3.51002C6.69711 4.80185 8.24931 5.34512 9.54113 4.72173V4.72424Z" fill="#F2F2F2" />
	<path d="M3.35451 12.6679C3.67246 11.2684 2.79873 9.87642 1.39925 9.55847L0.245117 14.6231C1.6446 14.9411 3.03656 14.0673 3.35451 12.6679Z" fill="#F2F2F2" />
	<path d="M2.12793 22.299L5.36751 26.3597C6.4891 25.4659 6.67185 23.8311 5.77809 22.7095C4.88433 21.588 3.24952 21.4052 2.12793 22.299Z" fill="#F2F2F2" />
	<path d="M44.5201 7.54822V14.9837H53.2449V7.97883H57.2205V24.6524H53.2449V18.5287H44.5201V24.6524H40.5444V8.62224L44.5201 7.54822Z" fill="#F2F2F2" />
	<path d="M64.4179 21.1049H76.5801L75.5061 24.6499H60.4448V7.97632H76.5826L75.5086 11.5213H64.4204V14.5506H74.7551V18.0956H64.4204V21.1049H64.4179Z" fill="#F2F2F2" />
	<path d="M82.9619 7.97632V21.1049H94.6935L93.6195 24.6499H78.9863V7.97632H82.9619Z" fill="#F2F2F2" />
	<path d="M100.389 7.97632V24.6499H96.4136V7.97632H100.389Z" fill="#F2F2F2" />
	<path d="M117.063 7.97632H121.039V18.033C121.039 22.8899 117.063 25.0154 111.928 25.0154C106.793 25.0154 103.096 22.7372 103.096 18.033V8.62224L107.071 7.54822V18.033C107.071 20.4815 108.704 21.4078 112.121 21.4078C115.538 21.4078 117.063 20.4189 117.063 18.033V7.97632Z" fill="#F2F2F2" />
	<path d="M123.059 13.0485C123.059 10.4924 125.079 7.97632 129.032 7.97632H140.378L139.304 11.5213H129.075C127.85 11.5213 127.247 12.2949 127.247 13.046C127.247 13.797 127.87 14.5506 129.075 14.5506H134.833C138.721 14.5506 140.741 17.0642 140.741 19.6228C140.741 22.1814 138.828 24.6499 134.833 24.6499H123.059L124.133 21.1049H134.79C135.994 21.1049 136.618 20.3964 136.618 19.6228C136.618 18.8492 136.017 18.0756 134.79 18.0756H129.032C125.014 18.0756 123.059 15.562 123.059 13.0485Z" fill="#F2F2F2" />
</svg>
