<svg width="312" height="48" viewBox="0 0 312 48" fill="none" xmlns="http://www.w3.org/2000/svg">
	<path d="M311.718 26.0185C311.625 26.2243 311.481 26.3763 311.447 26.5498C311.164 27.9797 310.554 29.2686 309.714 30.4394C308.767 31.7578 307.553 32.7981 306.091 33.5085C304.784 34.1435 303.405 34.5104 301.929 34.5056C297.213 34.4902 292.498 34.4999 287.75 34.4999C287.75 27.5054 287.75 20.5215 287.75 13.4999C287.922 13.4999 288.089 13.4999 288.257 13.4999C292.879 13.4999 297.502 13.4855 302.125 13.5066C304.123 13.5157 305.915 14.2049 307.527 15.3611C309.398 16.7026 310.578 18.5403 311.284 20.7043C311.423 21.1289 311.53 21.5635 311.685 21.9654C311.718 23.2831 311.718 24.6288 311.718 26.0185ZM297.14 17.7186C295.881 17.7186 294.623 17.7186 293.367 17.7186C293.367 21.932 293.367 26.093 293.367 30.2811C295.526 30.2811 297.663 30.2939 299.799 30.2756C300.81 30.2669 301.774 30.0078 302.669 29.5348C304.594 28.5187 305.669 26.8765 305.884 24.7554C306.103 22.5914 305.515 20.6602 303.775 19.1907C302.638 18.2298 301.305 17.8096 299.856 17.7277C298.985 17.6784 298.108 17.7186 297.14 17.7186Z" fill="white" />
	<path d="M5.53315 29.9847C4.08171 29.3138 2.65487 28.5984 1.52105 27.4346C0.925173 26.8229 0.394309 26.1574 0.178947 25.2989C0.16605 25.2475 0.101893 25.209 0.0311459 25.1917C0.000703391 24.6232 0.000703387 24.0275 0.0445935 23.3879C1.15649 23.3138 2.22449 23.2836 3.27768 23.2853C2.8433 24.0145 3.05368 24.5311 3.58476 25.093C4.66366 26.2345 6.04149 26.885 7.5165 27.4493C7.5165 25.9594 7.5165 24.5113 7.5594 23.0631C8.59486 23.0317 9.58742 23.0005 10.5718 23.008C10.5424 23.1944 10.5008 23.3426 10.5035 23.49C10.5236 24.5668 10.5527 25.6435 10.5467 26.724C10.0947 26.9796 9.67298 27.2285 9.25504 27.4835C8.13656 28.166 7.01574 28.8448 5.90669 29.5423C5.75101 29.6402 5.65616 29.8348 5.53315 29.9847Z" fill="white" />
	<path d="M17.6739 3.7998e-07C17.763 0.0623618 17.7945 0.150242 17.8556 0.182919C18.236 0.386435 18.623 0.577593 19.0205 0.840555C19.2773 1.6055 19.5278 2.30061 19.7643 3.00042C20.23 4.37854 20.6991 5.75567 21.1467 7.13974C21.8725 9.38444 22.5802 11.635 23.2992 13.8819C23.766 15.3406 22.821 17.1791 21.079 17.2574C20.9872 17.2615 20.9003 17.3743 20.7716 17.4357C20.0223 17.3699 19.3091 17.3301 18.6033 17.2349C16.8853 17.003 15.1688 16.7577 13.456 16.4906C12.9619 16.4135 12.4824 16.2437 12.0156 16.0841C12.7079 15.9503 13.3807 15.8487 14.0907 15.752C15.2099 15.9415 16.2862 16.1792 17.3755 16.2949C18.3701 16.4005 19.3808 16.4292 20.3804 16.3897C21.3307 16.3523 21.874 15.8861 22.0607 14.9979C22.1826 14.4178 22.028 13.8483 21.5691 13.3682C21.4678 12.9185 21.3716 12.5069 21.2806 12.0941C20.765 9.75442 20.118 7.45994 18.9363 5.35264C18.4236 4.43824 17.8284 3.5937 16.8694 3.04512C16.5082 2.28852 16.1385 1.57049 15.801 0.83763C15.681 0.576945 15.6391 0.280254 15.5616 0C16.251 0 16.9405 4.97961e-09 17.6739 3.7998e-07Z" fill="white" />
	<path d="M30.3222 47.9999C30.2651 47.942 30.2631 47.842 30.2324 47.8322C28.5568 47.2994 27.5218 46.0449 26.6287 44.6343C26.4519 44.3551 26.312 44.0526 26.1798 43.6998C26.1884 42.8655 26.173 42.0921 26.1558 41.3188C26.125 39.94 26.0937 38.5611 26.0617 37.1823C26.0309 35.8602 25.9973 34.5381 25.9688 33.216C25.9606 32.8343 25.9846 32.4512 25.9605 32.0709C25.9146 31.345 25.8447 30.6206 25.8281 29.9002C26.6534 29.8793 27.4353 29.8537 28.2226 29.8643C28.4761 30.8749 28.7242 31.8493 28.9503 32.858C28.0151 32.9348 27.1018 32.9774 26.2214 33.0185C26.2328 33.2427 26.2134 33.4643 26.2595 33.6713C26.5924 35.1665 26.889 36.6723 27.2919 38.1488C27.927 40.4769 28.7318 42.7369 30.4586 44.5538C30.4265 44.6609 30.381 44.7403 30.3942 44.8082C30.6018 45.873 30.8171 46.9363 31.0305 47.9999C30.8083 47.9999 30.5861 47.9999 30.3222 47.9999Z" fill="white" />
	<path d="M31.0751 48C30.8177 46.9364 30.6025 45.8731 30.3949 44.8083C30.3816 44.7404 30.4272 44.661 30.49 44.5675C31.4331 45.0884 31.8845 45.0938 32.5147 44.4893C32.8674 44.151 33.1786 43.7625 33.4697 43.368C34.42 42.0801 34.9318 40.5844 35.4854 39.0991C35.6206 39.2284 35.749 39.3401 35.8222 39.4805C36.3578 40.5082 36.8822 41.5416 37.4102 42.5733C36.7493 44.1272 35.9545 45.6104 34.6631 46.7269C34.082 47.2293 33.3358 47.541 32.6916 47.9696C32.1855 48 31.6522 48 31.0751 48Z" fill="white" />
	<path d="M29.527 0.459751C29.7965 0.326491 30.066 0.193231 30.3084 0.0299852C31.0645 -8.3819e-08 31.8477 -9.34194e-08 32.6749 3.30568e-10C32.7632 0.0623071 32.7938 0.149287 32.8541 0.183013C33.3315 0.44982 33.8146 0.706482 34.2788 1.01166C34.1339 1.33049 34.0102 1.60591 33.8777 1.87697C33.5548 2.53719 33.2278 3.19538 32.8731 3.84189C31.8791 2.7792 31.0905 2.77098 30.1723 3.82974C29.6881 4.3881 29.3042 5.03345 28.875 5.59524C29.0978 4.01466 29.3231 2.47871 29.5399 0.941551C29.562 0.784674 29.5325 0.620525 29.527 0.459751Z" fill="white" />
	<path d="M18.0933 47.7032C17.9504 47.7832 17.8076 47.8632 17.6916 47.9716C16.9352 47.9999 16.152 47.9999 15.3249 47.9999C15.2657 47.942 15.2674 47.8482 15.2326 47.8319C14.8538 47.6539 14.4692 47.4882 14.0859 47.2589C14.3027 46.7068 14.4972 46.2033 14.7434 45.7264C14.9582 45.3107 15.2312 44.925 15.509 44.5394C16.4801 45.2962 17.1292 44.891 17.7524 44.2653C18.5131 43.5018 19.0165 42.5725 19.5166 41.6436C19.4677 42.1157 19.4134 42.5707 19.309 43.0139C19.0799 43.9854 18.8298 44.9521 18.5799 45.9186C18.4256 46.5155 18.256 47.1085 18.0933 47.7032Z" fill="white" />
	<path d="M15.528 0C15.6407 0.280254 15.6826 0.576945 15.8026 0.83763C16.1401 1.57049 16.5098 2.28852 16.8346 3.05173C16.4364 2.98972 16.0752 3.02847 15.8041 3.28772C15.3028 3.7672 14.8367 4.28359 14.3227 4.78078C14.0473 4.50649 13.7882 4.24909 13.5666 3.96274C13.1546 3.4305 12.7645 2.88138 12.3652 2.33929C13.1084 1.32732 14.0184 0.536794 15.2441 0.16174C15.2817 0.150251 15.306 0.0954184 15.3092 0.0303965C15.3522 0 15.4225 0 15.528 0Z" fill="white" />
	<path d="M3.29179 23.2531C2.22379 23.2833 1.15578 23.3135 0.04389 23.3436C-8.9407e-08 23.1829 -9.34766e-08 23.0222 2.73406e-10 22.8213C0.062324 22.7357 0.146918 22.7037 0.183476 22.6428C0.498402 22.1182 0.804662 21.5884 1.16195 21.0352C1.29914 21.0367 1.38778 21.0859 1.47665 21.0863C2.76059 21.0927 4.0446 21.0884 5.3285 21.0981C5.52478 21.0996 5.72063 21.1589 5.90272 21.2217C5.72069 21.3515 5.55655 21.4585 5.38388 21.5493C4.57132 21.9765 3.85425 22.5195 3.29179 23.2531Z" fill="white" />
	<path d="M168.185 15.851C167.989 15.2141 167.794 14.6159 167.59 13.9873C169.495 13.9873 171.349 13.9873 173.212 13.9873C174.654 18.4103 176.096 22.8331 177.571 27.3587C177.97 26.3979 178.335 25.5425 178.682 24.6799C179.365 22.9807 180.038 21.2771 180.716 19.5758C181.416 17.8189 182.117 16.0623 182.82 14.3063C182.912 14.0772 183.044 13.9573 183.337 13.9595C185.648 13.9765 187.96 13.9627 190.272 13.9824C190.434 13.9838 190.684 14.1411 190.742 14.2865C192.431 18.4779 194.101 22.6771 195.775 26.8744C195.836 27.0269 195.914 27.1727 196.013 27.3833C196.218 26.7476 196.414 26.1464 196.608 25.5448C196.949 24.4864 197.287 23.4269 197.631 22.3693C198.355 20.1402 199.084 17.9124 199.808 15.6832C199.961 15.2114 200.086 14.7292 200.263 14.2667C200.311 14.1398 200.5 13.9829 200.626 13.9816C202.39 13.963 204.155 13.969 205.963 13.969C205.676 14.9058 205.405 15.8171 205.118 16.7233C204.256 19.4445 203.381 22.162 202.522 24.8843C201.912 26.8186 201.377 28.7788 200.702 30.6899C200.056 32.5162 198.733 33.6159 196.779 33.946C195.112 34.2279 193.706 33.6824 192.524 32.5917C192.019 32.1261 191.615 31.4705 191.364 30.824C190.106 27.5769 188.912 24.3053 187.701 21.0399C187.399 20.2246 187.121 19.4002 186.798 18.4825C186.434 19.4743 186.107 20.3732 185.773 21.2695C184.992 23.3654 184.205 25.4589 183.427 27.5556C182.994 28.7236 182.654 29.9341 182.127 31.0574C181.38 32.6486 180.122 33.6502 178.328 33.9486C176.969 34.1746 175.761 33.8527 174.671 33.086C173.654 32.3713 173.041 31.3648 172.678 30.1659C171.879 27.535 171.021 24.9223 170.194 22.3002C169.52 20.1648 168.856 18.0266 168.185 15.851Z" fill="white" />
	<path d="M241.968 13.4999C245.81 13.4999 249.606 13.4778 253.401 13.511C254.896 13.524 256.343 13.8203 257.699 14.521C259.213 15.3032 260.044 16.5822 260.318 18.1864C260.511 19.3194 260.583 20.5003 260.505 21.6458C260.365 23.7017 259.552 25.4372 257.608 26.4322C257.118 26.6831 256.587 26.855 256.063 27.0683C257.914 29.5016 259.787 31.9639 261.716 34.4999C261.541 34.4999 261.441 34.4999 261.341 34.4999C259.264 34.4999 257.186 34.4905 255.109 34.511C254.828 34.5138 254.696 34.3869 254.568 34.2035C253.084 32.0673 251.605 29.9277 250.117 27.7946C250.044 27.6905 249.897 27.5728 249.784 27.5722C247.476 27.5592 245.167 27.5624 242.822 27.5624C242.822 29.8773 242.822 32.165 242.822 34.4761C240.904 34.4761 239.023 34.4761 237.117 34.4761C237.117 27.5002 237.117 20.5265 237.117 13.4999C238.716 13.4999 240.319 13.4999 241.968 13.4999ZM254.157 22.7325C254.22 22.6474 254.297 22.5694 254.344 22.476C254.781 21.6068 254.767 20.6895 254.657 19.7521C254.555 18.8878 254.18 18.2548 253.298 18.0417C252.915 17.9489 252.509 17.9132 252.114 17.9118C249.164 17.9014 246.215 17.9062 243.265 17.9062C243.117 17.9062 242.969 17.9062 242.842 17.9062C242.842 19.7573 242.842 21.5439 242.842 23.3437C246.07 23.3437 249.268 23.3591 252.466 23.3294C253.042 23.3241 253.649 23.2299 254.157 22.7325Z" fill="white" />
	<path d="M113.978 17.3678C115.031 18.9023 115.584 20.5745 115.685 22.3939C115.735 23.2911 115.822 24.1944 115.767 25.0873C115.651 26.9773 115.226 28.8064 114.169 30.4092C112.962 32.2377 111.214 33.3395 109.127 33.9389C107.458 34.4181 105.754 34.5297 104.028 34.5048C102.404 34.4813 100.777 34.549 99.1555 34.4863C97.4213 34.4193 95.7189 34.0902 94.1437 33.3315C91.8263 32.2152 90.2965 30.3934 89.6428 27.9041C89.3859 26.926 89.2407 25.9043 89.1737 24.894C89.0749 23.4029 89.1402 21.9071 89.5331 20.4491C90.0829 18.4091 91.0992 16.6927 92.8632 15.4396C94.2703 14.44 95.841 13.94 97.513 13.6902C100.081 13.3066 102.667 13.5393 105.244 13.5124C107.333 13.4906 109.35 13.9043 111.205 14.9129C112.302 15.5091 113.262 16.2785 113.978 17.3678ZM106.237 29.997C106.859 29.6677 107.541 29.4177 108.089 28.9933C109.409 27.9704 109.772 26.4571 109.854 24.8986C109.907 23.8906 109.821 22.8609 109.67 21.8602C109.471 20.5365 108.824 19.4199 107.674 18.6817C106.617 18.0032 105.405 17.7546 104.173 17.7326C102.637 17.7051 101.095 17.7261 99.5619 17.8309C98.4796 17.9049 97.4798 18.3146 96.6597 19.0736C95.5221 20.1265 95.1629 21.5131 95.0789 22.9756C95.0249 23.915 95.0706 24.8693 95.1716 25.806C95.2791 26.803 95.6121 27.7449 96.272 28.534C97.3302 29.7993 98.7623 30.2225 100.333 30.274C101.441 30.3103 102.552 30.3164 103.658 30.2694C104.494 30.234 105.325 30.0934 106.237 29.997Z" fill="white" />
	<path d="M143.274 16.0535C144.425 14.958 145.802 14.367 147.277 13.9706C148.678 13.5937 150.109 13.4777 151.558 13.4954C153.198 13.5153 154.839 13.4766 156.478 13.5059C158.533 13.5425 160.514 13.9152 162.353 14.9006C164.528 16.0663 165.844 17.8905 166.497 20.2286C166.917 21.7355 167.047 23.2826 166.959 24.8368C166.838 26.9799 166.357 29.0306 165.068 30.804C164.139 32.0824 162.873 32.9531 161.43 33.5536C160.236 34.0503 158.983 34.3655 157.686 34.3989C155.445 34.4565 153.203 34.488 150.962 34.4943C148.886 34.5001 146.864 34.1483 145.018 33.1728C142.861 32.0326 141.479 30.2486 140.794 27.8779C140.277 26.0904 140.264 24.2773 140.368 22.4705C140.484 20.4681 141.141 18.6012 142.362 16.9759C142.613 16.6422 142.952 16.3748 143.274 16.0535ZM154.639 17.7187C153.187 17.7734 151.731 17.6042 150.283 17.898C148.385 18.2829 147.08 19.3545 146.552 21.2032C146.074 22.8773 146.085 24.6142 146.447 26.3159C147.037 29.0931 148.897 30.1396 151.32 30.2589C153.024 30.3429 154.742 30.2738 156.447 30.1677C157.544 30.0993 158.546 29.6622 159.393 28.9101C160.616 27.8232 160.928 26.3622 161.05 24.8459C161.139 23.7413 161.06 22.6319 160.78 21.5486C160.423 20.1646 159.703 19.0732 158.368 18.4327C157.211 17.878 155.991 17.714 154.639 17.7187Z" fill="white" />
	<path d="M206.721 22.7197C206.815 22.1216 206.901 21.5665 207.002 21.014C207.259 19.5992 207.78 18.2884 208.659 17.1465C210.163 15.1915 212.219 14.1986 214.607 13.7766C217.603 13.2469 220.624 13.501 223.628 13.5385C225.74 13.5648 227.777 14.1606 229.568 15.3927C231.388 16.645 232.414 18.4091 232.976 20.5058C233.402 22.0966 233.418 23.7177 233.325 25.3291C233.202 27.4486 232.593 29.4496 231.223 31.1175C230.126 32.452 228.7 33.3728 227.029 33.8281C226.04 34.0976 225.016 34.3397 223.999 34.3824C221.51 34.4871 219.013 34.5426 216.524 34.4745C214.814 34.4278 213.122 34.0587 211.579 33.2691C209.715 32.3153 208.349 30.8804 207.555 28.9068C206.755 26.9221 206.67 24.8558 206.721 22.7197ZM220.641 30.2813C221.546 30.2188 222.459 30.2101 223.355 30.0797C224.394 29.9283 225.327 29.4495 226.051 28.6935C226.991 27.7123 227.364 26.4439 227.416 25.1282C227.46 24.0086 227.403 22.867 227.226 21.7615C227.032 20.5507 226.422 19.5315 225.38 18.7853C224.318 18.0256 223.106 17.7815 221.869 17.7395C220.286 17.6857 218.695 17.7232 217.115 17.8327C216.034 17.9076 215.027 18.321 214.215 19.0856C213.079 20.1556 212.711 21.5654 212.647 23.0404C212.6 24.0971 212.698 25.1691 212.829 26.2222C212.946 27.1632 213.363 28.0052 214.014 28.7185C215.027 29.8298 216.361 30.1829 217.783 30.2707C218.701 30.3273 219.626 30.2813 220.641 30.2813Z" fill="white" />
	<path d="M63 21.2814C63 18.6744 63 16.1142 63 13.5271C64.933 13.5271 66.8459 13.5271 68.7962 13.5271C68.7962 16.1522 68.7962 18.7839 68.7962 21.4422C72.7772 21.4422 76.7212 21.4422 80.7025 21.4422C80.7025 18.8169 80.7025 16.1851 80.7025 13.5269C82.6836 13.5269 84.6277 13.5269 86.5985 13.5269C86.5985 20.4963 86.5985 27.4713 86.5985 34.4732C84.6607 34.4732 82.7166 34.4732 80.7351 34.4732C80.7351 31.6293 80.7351 28.7789 80.7351 25.9019C76.754 25.9019 72.8101 25.9019 68.8288 25.9019C68.8288 28.7459 68.8288 31.5964 68.8288 34.4734C66.879 34.4734 64.9661 34.4734 63 34.4734C63 30.0955 63 25.7119 63 21.2814Z" fill="white" />
	<path d="M264.937 27.75C264.937 22.987 264.937 18.2708 264.937 13.5273C266.682 13.5273 268.407 13.5273 270.17 13.5273C270.17 18.7761 270.17 24.0324 270.17 29.3256C275.213 29.3256 280.219 29.3256 285.253 29.3256C285.253 31.0562 285.253 32.7503 285.253 34.5C285.098 34.5 284.932 34.5 284.767 34.5C279.721 34.5 274.674 34.4723 269.629 34.5137C267.628 34.5301 265.65 33.2435 265.146 31.2074C264.961 30.4585 264.991 29.6545 264.941 28.8745C264.918 28.5167 264.937 28.1562 264.937 27.75Z" fill="white" />
	<path d="M118.749 31.1421C118.679 30.4675 118.602 29.822 118.6 29.1763C118.59 24.1319 118.595 19.0876 118.595 14.0432C118.595 13.8753 118.595 13.7073 118.595 13.52C120.323 13.52 122.017 13.52 123.745 13.52C123.745 18.7885 123.745 24.0435 123.745 29.3332C128.816 29.3332 133.852 29.3332 138.913 29.3332C138.913 31.0616 138.913 32.7553 138.913 34.5001C138.766 34.5001 138.616 34.5001 138.466 34.5001C133.296 34.5001 128.127 34.512 122.958 34.4939C121.057 34.4872 119.218 33.0704 118.749 31.1421Z" fill="white" />
	<path d="M43.8783 18.7388C45.7849 19.7215 47.4479 20.9509 47.9537 23.1886C48.1219 23.9328 48.053 24.7228 47.7198 25.485C47.5085 25.4943 47.3592 25.5168 47.2317 25.4742C46.5713 25.2535 45.9133 25.0249 45.2623 24.7783C45.1129 24.7217 44.9945 24.5834 44.8806 24.4536C45.0812 23.7369 44.7619 23.2362 44.2987 22.7809C43.223 21.7235 41.9022 21.092 40.4837 20.5517C40.4837 21.4096 40.4837 22.2357 40.4491 23.0614C39.6865 22.7322 38.9598 22.4006 38.2298 22.0764C37.964 21.9583 37.6905 21.8577 37.4139 21.7061C37.3807 21.1919 37.3541 20.7208 37.3631 20.2489C39.2646 19.8391 41.1311 19.4338 42.9952 19.0172C43.2953 18.9502 43.5842 18.8329 43.8783 18.7388Z" fill="white" />
	<path d="M37.4416 42.5567C36.8825 41.5414 36.358 40.508 35.8225 39.4803C35.7493 39.3398 35.6208 39.2282 35.4902 39.0631C35.705 38.1182 35.9643 37.2175 36.1851 36.3074C36.3911 35.4588 36.5562 34.6002 36.7685 33.7593C37.4256 34.3469 38.0478 34.9276 38.6843 35.4922C38.8996 35.6832 39.1509 35.8338 39.3857 36.0029C39.1405 37.0447 38.9404 38.1 38.6379 39.125C38.2978 40.2776 37.8652 41.403 37.4416 42.5567Z" fill="white" />
	<path d="M39.4182 35.984C39.1509 35.8341 38.8996 35.6836 38.6843 35.4925C38.0479 34.9279 37.4256 34.3472 36.7733 33.7184C36.8161 33.0479 36.8836 32.432 36.9558 31.7724C36.281 31.8703 35.6717 31.9587 35.0586 32.0157C34.9473 31.8536 34.8524 31.7097 34.7305 31.5942C33.9666 30.8705 33.1966 30.1532 32.4492 29.4003C33.4275 29.2081 34.3852 29.0495 35.3472 28.9224C35.4714 29.094 35.572 29.259 35.7146 29.3703C36.4477 29.9423 37.1936 30.4979 37.9312 31.0643C38.6065 31.5827 39.2769 32.1076 39.9494 32.6296C39.7995 33.6048 39.6491 34.5798 39.5003 35.5552C39.4796 35.691 39.4669 35.8282 39.4182 35.984Z" fill="white" />
	<path d="M32.9023 3.85442C33.2277 3.19542 33.5547 2.53722 33.8775 1.87701C34.0101 1.60595 34.1337 1.33053 34.2918 1.04199C35.7189 2.02483 36.4868 3.48479 37.2193 4.97057C37.2527 5.0382 37.282 5.1078 37.2875 5.22402C37.1547 5.35704 37.0293 5.42743 36.9437 5.53075C36.6384 5.89893 36.3593 6.28933 36.0461 6.65034C35.7318 7.01256 35.3887 7.3497 35.0268 7.68147C34.4847 6.29216 33.851 4.9868 32.9023 3.85442Z" fill="white" />
	<path d="M38.611 8.71875C38.8984 9.97183 39.1857 11.2249 39.4416 12.52C39.0764 12.677 38.7438 12.7956 38.4085 12.9061C37.7986 13.107 37.1872 13.3031 36.5697 13.4626C36.3714 12.5131 36.1798 11.6023 36.0176 10.6783C36.4198 10.3148 36.7662 9.92919 37.1725 9.6233C37.6234 9.28384 38.1292 9.01713 38.611 8.71875Z" fill="white" />
	<path d="M43.8648 18.7093C43.5856 18.8333 43.2967 18.9506 42.9966 19.0177C41.1326 19.4343 39.266 19.8396 37.3577 20.2079C37.3151 19.9544 37.3151 19.7417 37.3151 19.543C36.6929 19.3918 36.1127 19.2508 35.5391 19.0777C36.2931 18.8221 37.0358 18.5806 37.7893 18.3796C38.9115 18.0803 40.0414 17.8097 41.1679 17.5269C42.0619 17.911 42.9559 18.2952 43.8648 18.7093Z" fill="white" />
	<path d="M39.9504 15.3691C40.0086 15.7203 40.0667 16.0715 40.0827 16.4669C39.3213 16.6941 38.601 16.8728 37.8832 17.0612C36.2973 17.4773 34.7111 17.8927 33.1298 18.3259C32.9675 18.3703 32.8378 18.5334 32.6502 18.6454C31.9256 18.5529 31.2439 18.4564 30.5664 18.3281C30.8409 18.1018 31.0844 17.8273 31.386 17.7268C32.7826 17.2612 34.1965 16.8476 35.6007 16.4045C35.7757 16.3492 35.9302 16.2288 36.1321 16.132C36.4523 16.1578 36.7346 16.1903 37.0508 16.2089C37.1575 16.1717 37.2296 16.1462 37.303 16.1252C38.1853 15.8728 39.0679 15.621 39.9504 15.3691Z" fill="white" />
	<path d="M38.6167 8.68259C38.1289 9.01708 37.6231 9.28378 37.1722 9.62325C36.7658 9.92913 36.4195 10.3147 35.9856 10.6602C35.8921 10.5229 35.8651 10.3891 35.8262 10.2588C35.5718 9.40463 35.3148 8.55122 35.0586 7.69756C35.3891 7.34943 35.7322 7.01229 36.0465 6.65007C36.3597 6.28906 36.6388 5.89866 36.9441 5.53048C37.0297 5.42716 37.1551 5.35677 37.2926 5.2583C37.7261 6.29443 38.1293 7.34348 38.532 8.39274C38.5642 8.47658 38.5926 8.56187 38.6167 8.68259Z" fill="white" />
	<path d="M32.6934 18.6414C32.8382 18.5333 32.9679 18.3702 33.1302 18.3258C34.7115 17.8926 36.2977 17.4772 37.8836 17.0611C38.6014 16.8727 39.3217 16.694 40.0763 16.5063C40.1748 17.1801 40.2224 17.2249 41.151 17.4947C40.0414 17.8093 38.9116 18.08 37.7894 18.3793C37.0359 18.5802 36.2932 18.8218 35.5006 19.0843C34.5348 18.9628 33.6141 18.8021 32.6934 18.6414Z" fill="white" />
	<path d="M39.9458 15.3281C39.0682 15.6211 38.1856 15.8729 37.3032 16.1253C37.2299 16.1462 37.1578 16.1717 37.0183 16.1882C36.8264 15.288 36.7013 14.3948 36.5762 13.5015C37.187 13.3034 37.7984 13.1073 38.4083 12.9063C38.7436 12.7959 39.0762 12.6773 39.4477 12.5605C39.6372 13.4682 39.789 14.3776 39.9458 15.3281Z" fill="white" />
	<path d="M44.3429 29.0465C43.9602 29.2395 43.5775 29.4325 43.1468 29.6021C42.3661 29.1522 41.6373 28.7189 40.9 28.3007C39.7435 27.6446 38.5812 26.9986 37.4147 26.3048C37.4121 25.8827 37.4162 25.5041 37.4549 25.126C38.0142 25.3806 38.5367 25.6396 39.0644 25.8875C39.5349 26.1086 40.011 26.3175 40.4913 26.5733C40.4979 26.8828 40.4979 27.1508 40.4979 27.4316C40.771 27.3378 41.0086 27.2562 41.2601 27.2045C41.924 27.5903 42.5809 27.9344 43.2216 28.3063C43.6083 28.5308 43.97 28.7983 44.3429 29.0465Z" fill="white" />
	<path d="M44.3751 29.044C43.97 28.7982 43.6083 28.5307 43.2216 28.3062C42.5809 27.9343 41.924 27.5902 41.2754 27.1748C42.0158 26.729 42.7549 26.3429 43.5119 25.9844C44.5233 26.4683 45.5168 26.9246 46.5103 27.3809C45.8093 27.9344 45.1083 28.488 44.3751 29.044Z" fill="white" />
	<path d="M46.5399 27.3681C45.5174 26.9247 44.5239 26.4684 43.5254 25.9554C43.9679 25.4267 44.4153 24.9548 44.8627 24.4829C44.9954 24.5836 45.1138 24.7219 45.2632 24.7784C45.9142 25.025 46.5723 25.2537 47.2326 25.4743C47.3602 25.517 47.5095 25.4945 47.689 25.5032C47.3425 26.1214 46.9557 26.7383 46.5399 27.3681Z" fill="white" />
	<path d="M37.4213 26.3481C38.5811 26.9984 39.7433 27.6443 40.8998 28.3004C41.6372 28.7187 42.366 29.152 43.1122 29.6083C42.7097 29.8441 42.2935 30.0502 41.8398 30.2283C41.6957 30.094 41.6048 29.9628 41.4803 29.8856C40.7451 29.4292 40.0046 28.9812 39.2608 28.5389C38.6514 28.1764 38.0349 27.8258 37.4147 27.4271C37.4124 27.0388 37.4168 26.6935 37.4213 26.3481Z" fill="white" />
	<path d="M39.9817 32.6088C39.2757 32.1074 38.6053 31.5826 37.93 31.0641C37.1925 30.4978 36.4466 29.9421 35.7135 29.3701C35.5709 29.2588 35.4703 29.0938 35.3848 28.9152C35.7988 28.81 36.1783 28.7433 36.5712 28.7061C36.987 29.0511 37.3797 29.38 37.7937 29.6795C38.5587 30.2328 39.3362 30.7689 40.1085 31.3122C40.0774 31.7376 40.0463 32.1629 39.9817 32.6088Z" fill="white" />
	<path d="M37.423 27.4702C38.0363 27.8261 38.6528 28.1767 39.2623 28.5391C40.006 28.9815 40.7465 29.4295 41.4818 29.8858C41.6062 29.9631 41.6972 30.0943 41.8074 30.232C41.4313 30.3948 41.0514 30.5261 40.6305 30.629C40.4706 30.4854 40.3652 30.3502 40.2303 30.2584C39.6257 29.8471 39.0165 29.4424 38.4015 29.0471C38.0515 28.8221 37.687 28.6198 37.3223 28.3661C37.3513 28.0401 37.3871 27.7552 37.423 27.4702Z" fill="white" />
	<path d="M37.3282 28.4072C37.6862 28.6198 38.0507 28.8221 38.4006 29.0471C39.0157 29.4424 39.6249 29.8471 40.2295 30.2584C40.3644 30.3502 40.4698 30.4854 40.5929 30.6339C40.2975 30.7425 40.1874 30.9734 40.1165 31.2774C39.337 30.769 38.5595 30.2329 37.7945 29.6795C37.3805 29.38 36.9877 29.0511 36.5898 28.6748C36.839 28.5451 37.0836 28.4762 37.3282 28.4072Z" fill="white" />
	<path d="M12.3348 2.35205C12.7638 2.88138 13.1539 3.4305 13.5659 3.96273C13.7875 4.24909 14.0466 4.50648 14.3166 4.81472C14.0314 5.45611 13.6943 6.04865 13.4097 6.6654C12.5469 8.5348 12.0449 10.517 11.6234 12.5226C11.4958 13.1298 11.363 13.7359 11.1949 14.3425C11.0664 14.3284 10.9749 14.3177 10.8848 14.2998C10.0123 14.1272 9.13996 13.9533 8.26758 13.7798C8.55175 12.3857 8.77666 10.9763 9.13438 9.6014C9.63388 7.68163 10.2603 5.79706 11.2494 4.06008C11.5785 3.48206 11.9518 2.92919 12.3348 2.35205Z" fill="white" />
	<path d="M11.9967 16.1165C12.4829 16.2438 12.9625 16.4137 13.4565 16.4907C15.1694 16.7579 16.8858 17.0032 18.6039 17.235C19.3096 17.3303 20.0228 17.37 20.809 17.4406C21.4235 17.5058 21.9617 17.5655 22.4954 17.6564C22.3691 17.818 22.2473 17.9482 22.082 18.0856C21.006 18.1284 19.9735 18.1641 18.9199 18.1698C18.6138 18.0904 18.3299 18.0328 18.0435 17.9925C16.4973 17.7752 14.9508 17.5607 13.4039 17.3479C11.5664 17.0951 9.72841 16.8452 7.89062 16.594C7.9226 16.2001 7.95457 15.8062 8.06038 15.3927C8.27125 15.391 8.40893 15.405 8.54521 15.4274C9.3788 15.5648 10.2121 15.7041 11.0526 15.8821C11.0088 16.2261 11.1928 16.2485 11.417 16.2148C11.6108 16.1857 11.8035 16.1496 11.9967 16.1165Z" fill="white" />
	<path d="M2.33398 19.871C3.2694 19.3132 4.20482 18.7555 5.19808 18.2388C5.40228 18.3119 5.5472 18.3595 5.69527 18.3734C6.17252 18.4179 6.65164 18.4424 7.12874 18.4882C8.32697 18.6032 9.52599 18.7126 10.7216 18.851C11.2457 18.9117 11.7622 19.0376 12.2641 19.1662C11.7319 19.3066 11.2178 19.4148 10.7335 19.5168C10.6864 19.8185 10.6452 20.0825 10.5672 20.3311C9.86956 20.2627 9.20963 20.1908 8.54779 20.1603C6.93916 20.086 5.32952 20.0341 3.72058 19.9662C3.25786 19.9467 2.79615 19.9034 2.33398 19.871Z" fill="white" />
	<path d="M7.8833 16.6304C9.72797 16.845 11.5659 17.095 13.4035 17.3478C14.9503 17.5605 16.4969 17.775 18.043 17.9924C18.3294 18.0327 18.6134 18.0902 18.8973 18.203C17.6908 18.3906 16.4853 18.5149 15.2702 18.6043C14.3992 18.4426 13.5404 18.294 12.6761 18.1937C11.1591 18.0177 9.63738 17.8816 8.12051 17.7043C7.78129 17.6646 7.45392 17.5236 7.12109 17.4292C7.46745 17.2689 7.90118 17.195 7.8833 16.6304Z" fill="white" />
	<path d="M2.30535 19.8833C2.79692 19.9035 3.25863 19.9468 3.72134 19.9664C5.33028 20.0343 6.93993 20.0862 8.54856 20.1604C9.21039 20.1909 9.87032 20.2628 10.5631 20.3735C10.5894 20.7147 10.5838 20.9984 10.5359 21.2818C9.50093 21.2505 8.50836 21.2194 7.50871 21.1493C7.50163 20.9321 7.50163 20.7539 7.50163 20.5613C6.94792 20.7816 6.43234 20.9866 5.91676 21.1916C5.72071 21.1591 5.52486 21.0999 5.32858 21.0984C4.04468 21.0886 2.76067 21.0929 1.47673 21.0866C1.38786 21.0862 1.29922 21.0369 1.17578 21.0057C1.51937 20.6325 1.89766 20.264 2.30535 19.8833Z" fill="white" />
	<path d="M7.08608 17.4341C7.45547 17.5235 7.78284 17.6646 8.12206 17.7042C9.63893 17.8816 11.1606 18.0176 12.6776 18.1937C13.542 18.294 14.4008 18.4425 15.232 18.6106C14.2292 18.8125 13.2564 18.9732 12.2836 19.1339C11.7636 19.0376 11.2471 18.9116 10.723 18.851C9.52739 18.7125 8.32836 18.6031 7.13013 18.4882C6.65303 18.4424 6.17391 18.4178 5.69667 18.3733C5.5486 18.3595 5.40368 18.3119 5.23633 18.2411C5.82673 17.948 6.43812 17.6935 7.08608 17.4341Z" fill="white" />
	<path d="M11.0454 15.8424C10.212 15.7038 9.37875 15.5645 8.54516 15.4271C8.40888 15.4047 8.2712 15.3907 8.09375 15.3719C8.11967 14.8667 8.186 14.3623 8.25975 13.8188C9.13954 13.9532 10.0119 14.127 10.8844 14.2997C10.9745 14.3175 11.066 14.3283 11.2018 14.3829C11.1796 14.8964 11.1125 15.3694 11.0454 15.8424Z" fill="white" />
	<path d="M15.4784 44.5259C15.2311 44.9249 14.958 45.3105 14.7433 45.7263C14.497 46.2031 14.3025 46.7067 14.0708 47.2288C12.9773 46.6344 12.2693 45.659 11.6346 44.6324C11.2464 44.0044 10.9414 43.3249 10.6367 42.6188C11.1051 41.9643 11.5321 41.3568 11.9682 40.756C12.2157 40.4151 12.4782 40.085 12.7495 39.7822C13.4499 41.5114 14.1271 43.2127 15.4784 44.5259Z" fill="white" />
	<path d="M8.61351 36.0042C8.46078 35.1922 8.30831 34.3801 8.155 33.5682C8.13569 33.4659 8.11199 33.3645 8.1156 33.221C8.18248 33.1592 8.22892 33.1455 8.26498 33.1181C9.58322 32.1166 10.9079 31.1234 12.2134 30.1055C12.6071 29.7986 12.947 29.4226 13.351 29.0713C14.0844 29.1853 14.7783 29.3063 15.4683 29.4602C15.1893 29.7847 14.9196 30.0816 14.6379 30.3667C14.0731 30.9384 13.5018 31.5037 12.8933 32.0676C12.2418 31.9525 11.6301 31.8414 11.0248 31.7315C11.1037 32.4022 11.1827 33.0744 11.2286 33.7502C10.4964 34.3914 9.80021 35.0321 9.09595 35.6639C8.95047 35.7944 8.7751 35.8916 8.61351 36.0042Z" fill="white" />
	<path d="M13.312 29.078C12.9474 29.4224 12.6075 29.7984 12.2138 30.1053C10.9083 31.1232 9.58363 32.1164 8.26538 33.1179C8.22933 33.1453 8.18289 33.159 8.10949 33.1832C7.97832 32.4339 7.87895 31.6805 7.80859 30.8835C8.1669 30.6357 8.50823 30.4485 8.82308 30.2241C9.57738 29.6865 10.3192 29.1314 11.1049 28.5879C11.8665 28.7543 12.5892 28.9161 13.312 29.078Z" fill="white" />
	<path d="M8.61914 36.044C8.77602 35.8917 8.95139 35.7946 9.09686 35.6641C9.80113 35.0322 10.4974 34.3915 11.2622 33.7695C11.3861 34.1272 11.4399 34.47 11.5034 34.8111C11.6297 35.4893 11.7613 36.1665 11.8592 36.8482C11.4121 37.327 11.0018 37.8066 10.5791 38.275C10.2127 38.6809 9.83208 39.0741 9.45774 39.4729C9.17978 38.3432 8.90181 37.2135 8.61914 36.044Z" fill="white" />
	<path d="M11.0658 28.5835C10.3189 29.1315 9.57706 29.6866 8.82276 30.2242C8.50791 30.4485 8.16658 30.6358 7.80375 30.8439C7.04718 30.565 6.32415 30.2819 5.56641 29.9917C5.6547 29.8346 5.74956 29.64 5.90524 29.5421C7.01428 28.8446 8.1351 28.1658 9.25358 27.4833C9.67152 27.2283 10.0932 26.9794 10.5521 26.7661C10.6269 27.3538 10.6627 27.9031 10.6983 28.4488C10.8268 28.4959 10.9463 28.5397 11.0658 28.5835Z" fill="white" />
	<path d="M9.46289 39.5099C9.83222 39.074 10.2128 38.6808 10.5792 38.2748C11.002 37.8065 11.4122 37.3269 11.8757 36.8813C12.1939 37.8572 12.4643 38.8038 12.7346 39.7504C12.4789 40.0854 12.2163 40.4154 11.9689 40.7564C11.5327 41.3572 11.1058 41.9647 10.6392 42.5819C10.2883 41.7931 9.96942 40.9932 9.6604 40.1895C9.58038 39.9814 9.53123 39.7614 9.46289 39.5099Z" fill="white" />
	<path d="M22.5007 17.625C21.9625 17.5654 21.4244 17.5057 20.8493 17.4413C20.9017 17.3744 20.9886 17.2616 21.0804 17.2574C22.8224 17.1792 23.7674 15.3407 23.3006 13.882C22.5815 11.6351 21.8739 9.38449 21.1481 7.13979C20.7005 5.75572 20.2314 4.37859 19.7656 3.00047C19.5291 2.30066 19.2787 1.60555 19.0352 0.870605C19.6163 1.37283 20.2997 1.83771 20.7587 2.46643C22.2745 4.543 23.1431 6.92655 23.8117 9.38833C23.8197 9.41754 23.8136 9.45055 23.7901 9.54407C23.7523 9.72788 23.7085 9.85479 23.7293 9.97007C23.891 10.8673 24.0584 11.7637 24.2371 12.6578C24.4771 13.8585 24.7343 15.0437 24.2039 16.2517C23.8631 17.0281 23.2209 17.6114 22.5007 17.625Z" fill="white" />
	<path d="M29.4928 0.464355C29.5319 0.62077 29.5614 0.784919 29.5393 0.941795C29.3226 2.47896 29.0972 4.01491 28.8614 5.62549C28.0655 7.23115 27.5174 8.84846 27.0939 10.5107C26.8961 11.2871 26.7079 12.0661 26.4794 12.8338C26.4101 12.6962 26.3481 12.5689 26.3476 12.4413C26.341 10.7977 26.3337 9.15409 26.3485 7.51067C26.3537 6.93842 26.4466 6.36688 26.4501 5.79472C26.4539 5.15228 26.4019 4.50951 26.3741 3.86688C27.0247 2.57839 27.8964 1.47873 29.1084 0.670963C29.2205 0.596262 29.342 0.535793 29.4928 0.464355Z" fill="white" />
	<path d="M26.3511 3.88965C26.4017 4.50946 26.4537 5.15223 26.4499 5.79467C26.4464 6.36683 26.3535 6.93837 26.3483 7.51062C26.3334 9.15404 26.3408 10.7977 26.3474 12.4412C26.3479 12.5688 26.4099 12.6962 26.486 12.8727C26.4152 13.6042 26.3016 14.2868 26.187 14.9757C26.2884 14.9918 26.3626 15.0035 26.432 15.0498C26.1811 15.8819 25.9546 16.6861 25.6837 17.4751C25.3633 18.408 24.8868 19.2173 23.756 19.277C23.2825 19.302 22.8045 19.241 22.3208 19.1821C22.287 18.951 22.2609 18.7568 22.2722 18.5567C22.4611 18.5236 22.6133 18.47 22.7643 18.4733C23.7199 18.494 24.3443 17.9901 24.7704 17.1979C25.4663 15.9042 25.568 14.5232 25.4081 13.0827C25.2391 11.5597 25.1637 10.0265 25.0221 8.50014C24.9908 8.16238 24.8533 7.83447 24.7648 7.50203C25.2859 6.30551 25.8071 5.10898 26.3511 3.88965Z" fill="white" />
	<path d="M24.7572 7.5376C24.8532 7.83417 24.9907 8.16208 25.022 8.49983C25.1636 10.0262 25.239 11.5594 25.408 13.0824C25.5679 14.5229 25.4662 15.9039 24.7703 17.1976C24.3442 17.9898 23.7198 18.4937 22.7642 18.473C22.6132 18.4697 22.461 18.5233 22.2651 18.5193C22.1889 18.3514 22.157 18.2148 22.125 18.0782C22.2468 17.9479 22.3687 17.8177 22.4949 17.6562C23.2196 17.6112 23.8618 17.0279 24.2026 16.2516C24.733 15.0435 24.4758 13.8583 24.2358 12.6576C24.0571 11.7636 23.8897 10.8672 23.728 9.96991C23.7072 9.85463 23.751 9.72772 23.7934 9.58206C23.8734 9.68448 23.925 9.81104 23.9976 9.98897C24.2607 9.14386 24.5052 8.35866 24.7572 7.5376Z" fill="white" />
	<path d="M18.127 47.7098C18.2554 47.1085 18.425 46.5155 18.5793 45.9186C18.8292 44.9521 19.0794 43.9854 19.3084 43.0139C19.4128 42.5707 19.4671 42.1157 19.5213 41.6087C20.2122 40.011 20.728 38.4016 21.0832 36.7467C21.3503 35.5022 21.5304 34.239 21.7493 32.9477C22.1545 31.7245 22.4903 30.5077 22.9859 29.3599C23.4085 28.3808 23.5644 27.3823 23.6234 26.3082C23.6981 26.0528 23.7624 25.8305 23.849 25.6171C24.0176 25.2014 24.1987 24.7907 24.392 24.3521C24.4797 24.248 24.5463 24.1659 24.6212 24.0923C24.9071 23.8114 25.1956 23.5333 25.4894 23.2974C25.4977 23.8701 25.4999 24.3996 25.5083 24.9499C25.5279 24.9976 25.5481 25.0176 25.5826 25.0654C25.5855 25.1701 25.581 25.2403 25.5446 25.3151C25.1956 25.9415 24.765 26.5334 24.5913 27.1929C24.3933 27.9448 24.4362 28.7583 24.3526 29.5427C24.2462 30.5409 24.1057 31.5355 24.0024 32.534C23.891 33.6107 23.8382 34.6944 23.7009 35.7675C23.5188 37.1907 23.2731 38.6056 23.0731 40.0267C23.0475 40.2091 23.1323 40.4071 23.166 40.5978C22.9374 41.2378 22.7588 41.9013 22.4704 42.5131C21.7801 43.9776 21.0718 45.4493 19.8431 46.5554C19.341 47.0074 18.7253 47.3332 18.127 47.7098Z" fill="white" />
	<path d="M23.1973 40.581C23.1323 40.4072 23.0474 40.2092 23.0731 40.0269C23.273 38.6058 23.5187 37.1908 23.7008 35.7676C23.8381 34.6945 23.891 33.6109 24.0024 32.5341C24.1057 31.5356 24.2462 30.541 24.3526 29.5428C24.4362 28.7584 24.3932 27.9449 24.5913 27.193C24.765 26.5335 25.1955 25.9416 25.5516 25.3589C25.6552 26.8971 25.7198 28.3964 25.7845 29.8956C25.8444 30.6206 25.9143 31.345 25.9603 32.071C25.9844 32.4513 25.9604 32.8344 25.9686 33.216C25.9971 34.5382 26.0307 35.8603 26.0614 37.1824C26.0934 38.5612 26.1248 39.94 26.1555 41.3188C26.1728 42.0922 26.1881 42.8655 26.1748 43.6654C25.3119 42.3237 24.8534 40.8041 24.3767 39.2928C24.25 38.891 24.1537 38.4796 24.0074 37.9394C23.7251 38.8907 23.4769 39.7274 23.1973 40.581Z" fill="white" />
	<path d="M7.55782 23.063C7.5105 22.4672 7.50608 21.8712 7.50825 21.2318C8.50741 21.2194 9.49997 21.2505 10.5349 21.2818C10.5824 21.8155 10.5875 22.349 10.5855 22.9259C9.58584 23.0005 8.59328 23.0317 7.55782 23.063Z" fill="white" />
	<path d="M14.0918 15.7519C14.5874 15.6544 15.1169 15.5268 15.6536 15.476C17.1826 15.3314 18.7146 15.2189 20.2453 15.092C20.7666 15.0488 21.2874 15.0002 21.8068 14.9543C21.7274 14.474 21.6456 13.979 21.5707 13.4448C22.0291 13.8482 22.1837 14.4177 22.0618 14.9978C21.8751 15.886 21.3318 16.3522 20.3815 16.3897C19.3819 16.4291 18.3712 16.4004 17.3766 16.2948C16.2873 16.1791 15.211 15.9414 14.0918 15.7519Z" fill="white" />
	<path d="M31.2186 32.6093C30.6676 32.677 30.1172 32.7493 29.5654 32.8097C29.3983 32.8279 29.2275 32.8133 29.0153 32.8187C28.7242 31.8492 28.4762 30.8747 28.2227 29.8641C28.8128 29.7912 29.4084 29.7543 30.0602 29.7441C30.4837 30.717 30.8512 31.6631 31.2186 32.6093Z" fill="white" />
	<path d="M40.4499 23.0614C40.489 23.658 40.4936 24.2541 40.4568 24.8932C39.9748 24.7493 39.5347 24.5608 39.0933 24.3757C38.5675 24.1551 38.0406 23.9373 37.5141 23.7183C37.4784 23.0908 37.4426 22.4633 37.4141 21.7925C37.6912 21.8578 37.9647 21.9583 38.2305 22.0764C38.9605 22.4007 39.6873 22.7323 40.4499 23.0614Z" fill="white" />
	<path d="M31.2608 32.6164C30.8518 31.6634 30.4843 30.7172 30.1035 29.7395C30.4442 29.6501 30.7969 29.5799 31.1529 29.5378C31.549 29.491 31.9482 29.4697 32.3871 29.4355C33.1963 30.1531 33.9663 30.8704 34.7302 31.5941C34.8521 31.7096 34.947 31.8535 35.0582 32.0156C34.6827 32.132 34.3069 32.2428 33.9232 32.2971C33.0517 32.4206 32.1762 32.5163 31.2608 32.6164Z" fill="white" />
	<path d="M32.2498 15.4829C32.9965 15.5845 33.7452 15.6732 34.4891 15.7922C35.0052 15.8748 35.5146 15.999 36.061 16.1215C35.931 16.2286 35.7765 16.349 35.6015 16.4043C34.1972 16.8474 32.7834 17.261 31.3868 17.7266C31.0852 17.8271 30.8417 18.1016 30.5672 18.3279C30.1528 18.3329 29.7426 18.306 29.2914 18.2377C29.2706 18.1221 29.2839 18.0453 29.3119 17.9742C29.7395 16.8906 30.6602 16.3661 31.6426 15.9024C31.8621 15.7988 32.0483 15.6246 32.2498 15.4829Z" fill="white" />
	<path d="M37.5065 23.7612C38.0399 23.9375 38.5668 24.1553 39.0926 24.3759C39.534 24.561 39.9741 24.7495 40.4497 24.9369C40.4891 25.4399 40.4936 25.9425 40.4912 26.4884C40.0107 26.3176 39.5346 26.1086 39.0641 25.8876C38.5364 25.6396 38.0138 25.3807 37.4546 25.126C37.4465 24.685 37.473 24.2445 37.5065 23.7612Z" fill="white" />
	<path d="M15.3707 32.4486C14.5715 32.3448 13.7723 32.2409 12.9531 32.1043C13.5018 31.5035 14.0731 30.9382 14.6379 30.3665C14.9195 30.0814 15.1893 29.7845 15.4683 29.46C16.1311 29.4936 16.7901 29.5602 17.4857 29.6654C17.1765 30.1356 16.8268 30.5642 16.4858 30.9996C16.11 31.4794 15.742 31.9654 15.3707 32.4486Z" fill="white" />
	<path d="M26.4331 15.0496C26.8001 15.015 27.1623 15.015 27.5416 15.0842C27.2478 16.1284 26.9371 17.1033 26.6263 18.0781C26.3634 18.0781 26.1006 18.0781 25.8164 18.0781C25.7714 18.5686 25.71 19.0231 25.6919 19.4793C25.6489 20.5631 25.6297 21.6479 25.5921 22.732C25.5869 22.8801 25.5315 23.0265 25.4918 23.214C25.1968 23.5334 24.9083 23.8115 24.6224 24.0924C24.5475 24.166 24.4809 24.2481 24.3566 24.351C24.1175 24.4428 23.9126 24.479 23.751 24.5827C23.2982 24.873 22.8634 25.1912 22.4214 25.4983C22.4166 25.4284 22.4118 25.3585 22.4449 25.2486C23.2621 24.2986 23.7816 23.2421 24.0544 22.0922C24.1322 21.7642 23.9663 21.2354 23.7194 21.0064C23.3447 20.6588 22.8016 20.4928 22.33 20.2496C22.3253 19.9344 22.3206 19.6191 22.3228 19.2613C22.8056 19.2407 23.2836 19.3018 23.7571 19.2768C24.8879 19.2171 25.3644 18.4078 25.6847 17.4748C25.9557 16.6859 26.1822 15.8817 26.4331 15.0496Z" fill="white" />
	<path d="M21.7492 32.9477C20.9967 32.9574 20.2444 32.9307 19.4531 32.8648C19.5281 32.626 19.6506 32.4308 19.7541 32.2261C20.1417 31.4597 20.523 30.6902 20.9067 29.9219C21.3231 29.9219 21.7395 29.9219 22.1845 29.9219C22.2529 29.1386 22.3186 28.3865 22.4345 27.5945C22.6878 27.3093 22.8813 27.0552 23.0973 26.8218C23.2573 26.6489 23.4467 26.5031 23.623 26.3452C23.5643 27.3823 23.4085 28.3808 22.9858 29.3599C22.4903 30.5077 22.1544 31.7245 21.7492 32.9477Z" fill="white" />
	<path d="M23.6238 26.3083C23.4471 26.5033 23.2578 26.6491 23.0977 26.822C22.8818 27.0553 22.6883 27.3095 22.4536 27.559C22.4174 26.9041 22.4127 26.245 22.4143 25.5421C22.8625 25.1912 23.2974 24.8731 23.7501 24.5827C23.9118 24.4791 24.1166 24.4428 24.3384 24.377C24.1991 24.7909 24.018 25.2015 23.8494 25.6172C23.7628 25.8306 23.6985 26.053 23.6238 26.3083Z" fill="white" />
	<path d="M25.5098 24.9501C25.5304 24.9468 25.5571 24.9644 25.5803 25.0064C25.5496 25.0178 25.5294 24.9978 25.5098 24.9501Z" fill="white" />
	<path d="M15.3926 32.4821C15.7432 31.9654 16.1111 31.4795 16.487 30.9997C16.828 30.5643 17.1777 30.1357 17.5277 29.6724C18.0678 29.6985 18.6037 29.7562 19.1753 29.8535C19.1 30.096 19.0011 30.3066 18.8762 30.5004C18.4014 31.2376 17.9181 31.9694 17.438 32.7032C16.7631 32.6407 16.0882 32.5781 15.3926 32.4821Z" fill="white" />
	<path d="M17.4785 32.7102C17.9184 31.9695 18.4017 31.2377 18.8765 30.5006C19.0014 30.3067 19.1003 30.0961 19.2153 29.8607C19.755 29.8548 20.2905 29.8814 20.8672 29.9151C20.5246 30.6904 20.1432 31.4599 19.7557 32.2263C19.6521 32.4311 19.5296 32.6263 19.412 32.8583C18.7784 32.8328 18.1485 32.7749 17.4785 32.7102Z" fill="white" />
	<path d="M22.3242 20.2896C22.8015 20.493 23.3446 20.659 23.7193 21.0066C23.9662 21.2356 24.1321 21.7644 24.0543 22.0924C23.7815 23.2423 23.262 24.2988 22.4517 25.2142C22.4471 24.854 22.5004 24.4877 22.4949 24.1223C22.4777 22.9743 22.4408 21.8266 22.4043 20.6789C22.4005 20.5616 22.3483 20.4458 22.3242 20.2896Z" fill="white" />
	<path d="M32.2084 15.4766C32.0467 15.6249 31.8605 15.7991 31.641 15.9027C30.6586 16.3665 29.7379 16.8909 29.3103 17.9746C29.2823 18.0456 29.269 18.1225 29.2477 18.231C28.7767 18.2385 28.3069 18.2116 27.7988 18.1426C27.9631 17.1314 28.3859 16.2667 28.9848 15.4817C29.0438 15.4044 29.0399 15.2792 29.0652 15.1763C30.0996 15.2741 31.1341 15.372 32.2084 15.4766Z" fill="white" />
	<path d="M29.0442 15.1417C29.0406 15.279 29.0444 15.4042 28.9855 15.4814C28.3866 16.2664 27.9638 17.1312 27.7565 18.1357C27.4044 18.1445 27.0572 18.1179 26.668 18.0846C26.9367 17.1032 27.2475 16.1283 27.5628 15.1182C28.0523 15.0911 28.5374 15.0993 29.0442 15.1417Z" fill="white" />
</svg>
