<svg viewBox="0 0 202 37" fill="none" xmlns="http://www.w3.org/2000/svg">
	<path fill-rule="evenodd" clip-rule="evenodd" d="M8.14241 14.9099C8.06592 16.0155 8.02544 17.164 8.02544 18.3439C8.02544 19.5235 8.06589 20.6717 8.14237 21.7771C10.6017 22.4087 13.6448 22.8231 16.9888 22.912C17.1148 21.5708 17.1872 20.1565 17.197 18.6915C17.1962 18.5759 17.1959 18.46 17.1959 18.3439C17.1959 18.2278 17.1962 18.1118 17.197 17.9963C17.1872 16.5311 17.1148 15.1164 16.9888 13.7751C13.6448 13.8639 10.6017 14.2782 8.14241 14.9099ZM5.80122 15.6429C5.75587 16.5251 5.73246 17.4271 5.73246 18.3439C5.73246 19.2604 5.75586 20.1623 5.80118 21.0441C4.67765 20.6158 3.80766 20.1475 3.20762 19.6746C2.46808 19.0916 2.29298 18.6333 2.29298 18.3435C2.29298 18.0538 2.46808 17.5953 3.20762 17.0125C3.80766 16.5396 4.67766 16.0713 5.80122 15.6429ZM5.99281 13.1456C5.93516 13.1643 5.87786 13.1831 5.82092 13.2021C4.19809 13.7431 2.80209 14.4125 1.78827 15.2117C0.787356 16.0004 0 17.0501 0 18.3435C0 19.6368 0.787356 20.6866 1.78827 21.4754C2.80209 22.2744 4.19809 22.944 5.82092 23.4849C5.87783 23.5039 5.93511 23.5227 5.99273 23.5415C6.27858 26.3187 6.78909 28.8229 7.47042 30.8668C8.0114 32.4896 8.68084 33.8856 9.47988 34.8995C10.2687 35.9004 11.3184 36.6877 12.6118 36.6877C13.9052 36.6877 14.9548 35.9004 15.7438 34.8995C16.5428 33.8856 17.2122 32.4896 17.7532 30.8668C17.9674 30.2243 18.1648 29.5361 18.3435 28.8083C18.5223 29.5361 18.7197 30.2243 18.9339 30.8668C19.4748 32.4896 20.1443 33.8856 20.9433 34.8995C21.7321 35.9004 22.7819 36.6877 24.0753 36.6877C25.3687 36.6877 26.4183 35.9004 27.2072 34.8995C28.0062 33.8856 28.6757 32.4896 29.2167 30.8668C29.8979 28.8231 30.4085 26.3189 30.6943 23.5417C30.7522 23.5229 30.8097 23.504 30.8668 23.4849C32.4896 22.944 33.8856 22.2744 34.8995 21.4754C35.9004 20.6866 36.6877 19.6368 36.6877 18.3435C36.6877 17.0501 35.9004 16.0004 34.8995 15.2117C33.8856 14.4125 32.4896 13.7431 30.8668 13.2021C30.8097 13.1831 30.7521 13.1641 30.6943 13.1453C30.4084 10.3685 29.8979 7.86451 29.2167 5.82092C28.6757 4.19809 28.0062 2.80209 27.2072 1.78827C26.4183 0.787356 25.3687 0 24.0753 0C22.7819 0 21.7321 0.787356 20.9433 1.78827C20.1443 2.80209 19.4748 4.19809 18.9339 5.82092C18.7197 6.46351 18.5223 7.15163 18.3435 7.87945C18.1648 7.15163 17.9674 6.46351 17.7532 5.82092C17.2122 4.19809 16.5428 2.80209 15.7438 1.78827C14.9548 0.787356 13.9052 0 12.6118 0C11.3184 0 10.2687 0.787356 9.47988 1.78827C8.68084 2.80209 8.0114 4.19809 7.47042 5.82092C6.78914 7.86457 6.27867 10.3686 5.99281 13.1456ZM8.37411 12.4946C10.811 11.9375 13.6583 11.5828 16.7123 11.4891C16.4335 9.62236 16.0458 7.94942 15.5779 6.54606C15.0814 5.05678 14.5155 3.93426 13.9429 3.20762C13.36 2.46808 12.9015 2.29298 12.6118 2.29298C12.3221 2.29298 11.8636 2.46808 11.2808 3.20762C10.7081 3.93426 10.1422 5.05678 9.64572 6.54606C9.09538 8.19696 8.65578 10.2209 8.37411 12.4946ZM19.6983 13.7751C19.5723 15.1164 19.4999 16.531 19.4901 17.9963C19.4908 18.1118 19.4911 18.2278 19.4911 18.3439C19.4911 18.46 19.4908 18.5759 19.4901 18.6915C19.4999 20.1565 19.5723 21.5708 19.6983 22.912C23.0423 22.8232 26.0852 22.4089 28.5446 21.7773C28.6212 20.6718 28.6616 19.5235 28.6616 18.3439C28.6616 17.164 28.6212 16.0154 28.5446 14.9098C26.0852 14.2781 23.0423 13.8639 19.6983 13.7751ZM28.313 12.4944C25.876 11.9374 23.0286 11.5828 19.9748 11.4891C20.2535 9.62234 20.6413 7.94942 21.1092 6.54606C21.6055 5.05678 22.1714 3.93426 22.7442 3.20762C23.3271 2.46808 23.7856 2.29298 24.0753 2.29298C24.365 2.29298 24.8234 2.46808 25.4063 3.20762C25.979 3.93426 26.5449 5.05678 27.0414 6.54606C27.5917 8.19692 28.0313 10.2208 28.313 12.4944ZM30.8858 15.6426C30.9312 16.5248 30.9546 17.4269 30.9546 18.3439C30.9546 19.2605 30.9312 20.1624 30.8858 21.0444C32.0098 20.6159 32.8799 20.1476 33.4801 19.6746C34.2197 19.0916 34.3948 18.6333 34.3948 18.3435C34.3948 18.0538 34.2197 17.5953 33.4801 17.0125C32.8799 16.5395 32.0097 16.0711 30.8858 15.6426ZM28.313 24.1927C25.876 24.7497 23.0286 25.1044 19.9746 25.1979C20.2535 27.0649 20.6413 28.7382 21.1092 30.1417C21.6055 31.631 22.1714 32.7535 22.7442 33.4801C23.3271 34.2197 23.7856 34.3948 24.0753 34.3948C24.365 34.3948 24.8234 34.2197 25.4063 33.4801C25.979 32.7535 26.5449 31.631 27.0414 30.1417C27.5917 28.4907 28.0314 26.4665 28.313 24.1927ZM16.7124 25.1979C13.6585 25.1042 10.811 24.7495 8.37402 24.1924C8.65569 26.4664 9.09532 28.4907 9.64572 30.1417C10.1422 31.631 10.7081 32.7535 11.2808 33.4801C11.8636 34.2197 12.3221 34.3948 12.6118 34.3948C12.9015 34.3948 13.36 34.2197 13.9429 33.4801C14.5155 32.7535 15.0814 31.631 15.5779 30.1417C16.0458 28.7382 16.4336 27.0649 16.7124 25.1979ZM59.2457 16.6059H50.6132V10.9185H46.4329V25.7957H50.6132V19.645H59.2457V25.7957H63.4537V10.9185H59.2457V16.6059ZM73.3257 10.9185H76.5013C81.7555 10.9185 84.5069 13.5442 84.5069 18.3685C84.5069 23.1928 81.7555 25.7957 76.5013 25.7957H73.3257C68.0715 25.7957 65.32 23.2201 65.32 18.3685C65.32 13.5169 68.0715 10.9185 73.3257 10.9185ZM73.8189 22.8656H75.7638C79.5661 22.8656 80.3036 20.7079 80.3036 18.3685C80.3036 16.029 79.5661 13.8712 75.7638 13.8712H73.8189C70.2378 13.8712 69.5233 16.0336 69.5233 18.3685C69.5233 20.7034 70.2423 22.8656 73.8189 22.8656ZM113.437 10.9185H110.262C105.008 10.9185 102.256 13.5215 102.256 18.3685C102.256 23.2155 105.008 25.7957 110.262 25.7957H113.437C118.691 25.7957 121.443 23.1928 121.443 18.3685C121.443 13.5442 118.696 10.9185 113.437 10.9185ZM112.7 22.8656H110.755C107.178 22.8656 106.459 20.7034 106.459 18.3685C106.459 16.0336 107.174 13.8712 110.755 13.8712H112.7C116.502 13.8712 117.24 16.029 117.24 18.3685C117.24 20.7079 116.502 22.8656 112.7 22.8656ZM135.79 19.645H130.781H130.776V16.9558H139.565V25.7957H129.638C125.365 25.7957 123.019 23.4153 123.019 18.3685C123.019 13.3216 125.365 10.9185 129.638 10.9185H139.501V14.0211H130.288C127.67 14.0211 127.2 15.6066 127.2 18.3639C127.2 21.1213 127.67 22.7522 130.288 22.7522H135.79V19.645ZM159.098 15.8995C159.098 12.485 157.489 10.9185 153.241 10.9185H142.193V25.7957H146.286V20.8579H151.498L154.987 25.7957H159.905L155.812 20.5035C158.116 19.8631 159.098 18.4783 159.098 15.8995ZM153.06 17.9096H146.286V14.0257H153.06C154.425 14.0257 154.94 14.38 154.94 15.9427C154.94 17.5054 154.425 17.9051 153.06 17.9051V17.9096ZM166.62 12.7265C167.164 11.6143 168.277 10.9194 169.53 10.9185C170.788 10.9194 171.902 11.6097 172.442 12.7265L178.774 25.7957H174.686L173.266 22.8656H165.791L164.372 25.7957H160.287L166.62 12.7265ZM169.533 15.1523L167.1 20.1764H171.966L169.533 15.1523ZM90.2818 10.9185H86.5947V22.6067C86.5947 24.3603 88.0419 25.7866 89.8209 25.7866H101.182V22.1525H90.2818V10.9185ZM195.601 12.2824C196.408 11.124 197.86 10.6243 199.218 11.0377V11.0332C200.578 11.4465 201.492 12.6685 201.492 14.0722V25.7921H197.805V15.5395L193.398 21.8946C192.799 22.7623 191.798 23.2801 190.734 23.2801C189.669 23.2801 188.669 22.7623 188.071 21.8946L183.668 15.5439V25.8013H179.981V14.0767C179.981 12.673 180.894 11.4511 182.253 11.0377C183.618 10.6243 185.07 11.124 185.872 12.2824L190.734 19.3008L195.601 12.2824Z" fill="white" />
</svg>
