<svg viewBox="0 0 126 17" fill="none" xmlns="http://www.w3.org/2000/svg">
	<path d="M0 3.50016L4.19873 6.33995H0V16.9064H4.19873V6.33995V0H0V3.50016Z" fill="white" />
	<path d="M28.3413 4.22653C28.9317 4.22653 29.3908 4.68888 29.3908 5.28324V7.72669L33.5896 10.5665V4.22653C33.5896 1.91525 31.6872 0 29.3908 0H4.26416L10.5623 4.22653H28.4068H28.3413Z" fill="white" />
	<path d="M15.745 12.6809C15.1546 12.6809 14.6953 12.2185 14.6953 11.6242V9.18074L10.4966 6.34094V12.6809C10.4966 14.9922 12.3992 16.9074 14.6953 16.9074H39.822L33.524 12.6809H15.6794H15.745Z" fill="white" />
	<path d="M46.1201 12.6805H41.9214V16.9071H46.1201V12.6805Z" fill="white" />
	<path d="M75.5112 4.22653V6.33995H79.71V5.28324C79.71 4.68888 80.1692 4.22653 80.7597 4.22653H98.6042V0H79.71C77.4138 0 75.5112 1.91525 75.5112 4.22653Z" fill="white" />
	<path d="M75.5112 11.6242C75.5112 14.53 77.8731 16.9074 80.7597 16.9074H98.6042V12.6809H80.7597C80.1692 12.6809 79.71 12.2185 79.71 11.6242C79.71 11.0298 80.1692 10.5675 80.7597 10.5675H98.6042V6.34094H80.7597C77.8731 6.34094 75.5112 8.71839 75.5112 11.6242Z" fill="white" />
	<path d="M69.2129 0H52.418C50.1218 0 48.2192 1.91525 48.2192 4.22653V16.9064H52.418V5.28324C52.418 4.68888 52.8772 4.22653 53.4677 4.22653H68.1632C68.7536 4.22653 69.2129 4.68888 69.2129 5.28324V16.9064H73.4115V4.22653C73.4115 1.91525 71.509 0 69.2129 0Z" fill="white" />
	<path d="M115.333 0V4.22653C115.333 1.91525 113.431 0 111.134 0H100.638V4.22653H110.085C110.675 4.22653 111.134 4.68888 111.134 5.28324V16.9064H115.333V4.22653H125.83V0H115.333Z" fill="white" />
</svg>
