<svg viewBox="0 0 122 34" fill="none" xmlns="http://www.w3.org/2000/svg">
	<path fill-rule="evenodd" clip-rule="evenodd" d="M2.23261 6.95828C2.73501 6.80281 3.35715 6.8207 4.60143 6.85648C6.26544 6.90433 7.09746 6.92825 7.89257 6.81859C9.41441 6.6087 10.8642 6.03887 12.1217 5.15639C12.7787 4.69533 13.3718 4.1113 14.5579 2.94326L15.4145 2.0997C16.5692 0.962628 17.1465 0.394094 17.8459 0.161701C18.2344 0.0326248 18.6442 -0.0199832 19.0526 0.00678385C19.788 0.054976 20.4903 0.459242 21.8947 1.26777L28.1928 4.89357C29.7427 5.78585 30.5177 6.23198 30.9433 6.96803C31.3689 7.70407 31.369 8.59826 31.3692 10.3867L31.3705 21.1733C31.3707 22.9597 31.3708 23.8529 30.9462 24.5885C30.5215 25.3241 29.748 25.7707 28.2009 26.6639L18.8551 32.0598C17.3082 32.9528 16.5348 33.3994 15.6855 33.3994C14.8362 33.3994 14.0628 32.9528 12.5159 32.0598L3.16959 26.6637C1.62272 25.7706 0.84929 25.324 0.424645 24.5885C0 23.853 0 22.9599 0 21.1738V11.3275C0 10.0827 0 9.4603 0.169843 8.96258C0.497285 8.00301 1.26403 7.258 2.23261 6.95828ZM3.24506 12.3667V19.899C3.24506 21.1018 3.24506 21.7032 3.41829 22.243C3.57158 22.7207 3.82242 23.1614 4.15493 23.537C4.53068 23.9616 5.04779 24.2686 6.082 24.8826L11.7982 28.2764C13.2338 29.1287 13.9517 29.5549 14.6636 29.5979C15.2897 29.6357 15.9115 29.4724 16.4384 29.132C17.0374 28.7449 17.4533 28.0211 18.2852 26.5735L26.4444 12.3754C27.2278 11.0123 27.6195 10.3307 27.6584 9.65406C27.6926 9.05868 27.5403 8.46744 27.2228 7.96263C26.862 7.38893 26.1898 6.98128 24.8456 6.16599L21.9192 4.39116C20.7378 3.67464 20.1471 3.31638 19.5595 3.27705C19.0428 3.24247 18.5288 3.37488 18.0931 3.65473C17.5976 3.97298 17.2535 4.57202 16.5652 5.77008L12.9663 12.0342C12.6388 12.6043 12.475 12.8894 12.2559 12.9928C12.0646 13.083 11.8446 13.0907 11.6474 13.0141C11.4216 12.9263 11.2382 12.6534 10.8716 12.1076L10.3973 11.4016C10.1291 11.0023 9.99492 10.8026 9.81822 10.6581C9.66178 10.5302 9.48173 10.4342 9.2883 10.3757C9.06981 10.3096 8.82928 10.3096 8.34822 10.3096H5.30215C4.5821 10.3096 4.22208 10.3096 3.94706 10.4497C3.70514 10.573 3.50846 10.7697 3.3852 11.0116C3.24506 11.2866 3.24506 11.6466 3.24506 12.3667Z" fill="white" />
	<path d="M43.9746 26.2022C40.1196 26.2022 38.9656 24.0415 39.6285 20.1619L39.9232 18.4677H44.122L43.6554 21.0458C43.459 22.1017 43.6063 22.4945 44.1711 22.4945C44.7358 22.4945 44.9813 22.1753 45.1778 21.095L47.4368 8.2531H51.611L49.4502 20.5793C48.7627 24.5325 47.2894 26.2022 43.9746 26.2022Z" fill="white" />
	<path d="M56.1361 24.2133C55.5468 25.441 54.6137 26.1531 53.2632 26.1531C51.0288 26.1531 50.1694 24.7535 50.6605 21.8807L52.4775 11.5679H56.5044L54.8101 21.1686C54.6874 22.0526 54.6383 22.6419 55.3503 22.6419C55.866 22.6419 56.2097 22.1017 56.4062 21.0213L58.0758 11.5679H62.0782L59.5491 25.9321H56.2834L56.1361 24.2133Z" fill="white" />
	<path d="M65.6936 11.175C63.9748 11.175 63.4837 10.6349 63.7538 9.18616C64.0239 7.61469 64.6132 7.19727 66.2338 7.19727C67.8544 7.19727 68.4437 7.6638 68.1736 9.18616C67.9035 10.7331 67.2651 11.175 65.6936 11.175ZM63.4592 11.6661C63.7784 11.9362 64.4659 12.0836 65.4972 12.0836C66.553 12.0836 67.1914 11.9117 67.5843 11.6416L65.0797 25.9321H60.9546L63.4592 11.6661Z" fill="white" />
	<path d="M71.5764 26.2022C70.3487 26.2022 69.3911 25.9567 68.7036 25.5393C67.3531 24.6553 66.9603 23.0102 67.3286 20.874L68.2371 15.6439C68.7036 13.0166 70.5943 11.3715 73.3935 11.3715C77.0029 11.3715 78.2797 13.3849 77.715 16.798L77.5186 17.952H73.4917L73.7618 16.4297C73.9828 15.1037 73.86 14.76 73.197 14.76C72.5095 14.76 72.264 15.0792 72.043 16.4051L71.2081 21.1932C71.0117 22.3472 71.1836 22.7155 71.8465 22.7155C72.5095 22.7155 72.7305 22.3227 72.9024 21.2668L73.2461 19.2534H77.273L76.8065 21.9298C76.34 24.6308 74.5475 26.2022 71.5764 26.2022Z" fill="white" />
	<path d="M87.5718 22.0035C86.9579 25.0973 85.4601 26.2022 82.44 26.2022C81.1877 26.2022 80.2301 25.9567 79.5426 25.5393C78.1675 24.6553 77.7747 23.0102 78.143 20.8985C78.143 20.8985 78.1675 20.7021 78.2412 20.3829C78.3394 19.6708 78.5358 18.5659 78.7077 17.5837C78.9042 16.5524 79.0269 15.7667 79.0269 15.7667C79.4935 13.0412 81.4087 11.3469 84.2079 11.3469C87.7928 11.3469 89.1678 13.3849 88.5785 16.6015L88.0138 19.769H82.1944L81.9243 21.2423C81.7033 22.4945 81.9489 22.8383 82.6609 22.8383C83.373 22.8383 83.594 22.3227 83.7904 21.2914L83.8887 20.7757H87.8173L87.5718 22.0035ZM82.6118 17.3873H84.6253L84.7972 16.356C85.0673 15.1037 84.7972 14.6617 84.036 14.6617C83.2748 14.6617 83.0047 15.1774 82.7837 16.4297L82.6118 17.3873Z" fill="white" />
	<path d="M94.7259 26.1286C93.1053 26.1286 92.4178 25.3428 92.3196 23.9187L91.583 25.9321H88.1945L91.4847 7.22182H95.438L94.3576 13.3113C94.9714 11.9853 95.8554 11.3715 97.0831 11.3715C99.1211 11.3715 100.152 13.0903 99.4894 16.4542L98.63 21.4142C97.9671 24.9991 96.6657 26.1286 94.7259 26.1286ZM93.6455 22.7892C94.1611 22.7892 94.5049 22.3963 94.7259 21.2668L95.5607 16.5033C95.7817 15.2756 95.6098 14.7845 94.9469 14.7845C94.3576 14.7845 94.0138 15.1037 93.7928 16.356L92.958 21.1195C92.737 22.249 92.958 22.7892 93.6455 22.7892Z" fill="white" />
	<path d="M104.259 26.2022C103.031 26.2022 102.123 25.9812 101.435 25.5147C100.06 24.5817 99.6427 22.9365 100.011 20.874L100.895 15.7912C101.361 13.0657 103.252 11.3715 106.051 11.3715C109.612 11.3715 110.938 13.4831 110.373 16.798L109.464 21.9298C108.998 24.6308 107.181 26.2022 104.259 26.2022ZM104.554 22.7155C105.118 22.7155 105.487 22.3472 105.658 21.3159L106.542 16.2332C106.739 15.1037 106.469 14.76 105.855 14.76C105.339 14.76 104.946 15.1037 104.775 16.0859L103.866 21.3159C103.694 22.3718 104.038 22.7155 104.554 22.7155Z" fill="white" />
	<path d="M112.901 25.9321H108.702L113.27 18.3694L111.526 11.5679H115.651L116.069 14.8336L116.044 15.4229L116.191 14.8582L117.812 11.5679H121.962L117.837 18.3449L119.727 25.9321H115.651L114.988 22.5682L115.013 21.6106L114.718 22.5682L112.901 25.9321Z" fill="white" />
</svg>
