<svg viewBox="0 0 141 44" fill="none" xmlns="http://www.w3.org/2000/svg">
	<path d="M4.22021 34.3635C6.06619 36.9312 8.43408 39.0796 11.1686 40.668C13.9032 42.2563 16.9425 43.2487 20.0875 43.5801C18.4695 41.1453 16.1175 38.9053 13.1813 37.1998C10.2451 35.4944 7.13566 34.5627 4.22021 34.3635Z" fill="white" />
	<path d="M17.1268 30.409C11.4699 27.1225 5.34726 26.2849 0.966309 27.7645C1.38924 29.1623 1.94701 30.5158 2.63176 31.8057C6.43806 31.7175 10.5939 32.7513 14.4609 34.9973C18.3279 37.2433 21.2856 40.3431 23.0955 43.694C24.556 43.6492 26.0088 43.4631 27.4335 43.1386C26.5477 38.6007 22.7823 33.6961 17.1268 30.409Z" fill="white" />
	<path d="M44.0834 17.0692C43.3642 14.1438 42.0628 11.3933 40.257 8.98192C38.4512 6.57056 36.178 4.54783 33.5732 3.03448C30.9683 1.52114 28.0852 0.548229 25.0961 0.173833C22.1069 -0.200562 19.0729 0.0312403 16.1753 0.855401C21.0161 1.44782 26.3893 3.26507 31.6588 6.32641C36.9285 9.38774 41.1724 13.1548 44.0834 17.0692Z" fill="white" />
	<path d="M37.0399 27.7981C34.562 23.683 30.3174 19.7426 25.0885 16.7051C19.8597 13.6674 14.3354 11.9323 9.53749 11.8176C5.31649 11.7176 2.14852 12.9446 0.848154 15.1833C0.840748 15.1966 0.83038 15.2091 0.822235 15.2225C0.705232 15.6424 0.60452 16.0629 0.512695 16.4851C2.32847 15.7683 4.4323 15.3691 6.77163 15.3246C11.9738 15.227 17.7958 16.8909 23.1684 20.0122C28.5408 23.1336 32.8737 27.3686 35.3648 31.9347C36.4816 33.9918 37.1783 36.0172 37.4546 37.9522C37.776 37.6649 38.0914 37.3679 38.3973 37.0592C38.4055 37.0451 38.4107 37.0302 38.4187 37.0155C39.7192 34.7746 39.2163 31.4155 37.0399 27.7981Z" fill="white" />
	<path d="M21.1109 23.5518C13.1036 18.8999 4.25507 18.1711 0 21.4176C0.00835779 22.4337 0.0860454 23.4481 0.232524 24.4538C1.48422 24.0743 2.77426 23.8354 4.07881 23.7414C8.83373 23.3837 14.0759 24.7086 18.8331 27.4736C23.5902 30.2387 27.3402 34.1384 29.3855 38.443C29.9509 39.6223 30.3821 40.8613 30.6711 42.1368C31.6174 41.7658 32.5376 41.331 33.4251 40.8356C34.1375 35.5305 29.1205 28.2045 21.1109 23.5518Z" fill="white" />
	<path d="M41.1588 20.9106C38.6529 16.7999 34.3712 12.8484 29.1052 9.79081C23.8394 6.73318 18.2936 4.97073 13.4802 4.82928C9.8109 4.72339 6.96877 5.61276 5.49512 7.29301C11.6141 6.25628 19.6851 7.99874 27.508 12.5433C35.331 17.088 40.8449 23.2373 42.9732 29.0659C43.7026 26.9547 43.068 24.0452 41.1588 20.9106Z" fill="white" />
	<path d="M63.7176 13.5303H67.4531V25.9938C67.4531 27.146 67.1941 28.1467 66.6764 28.9963C66.1643 29.8458 65.4516 30.5004 64.5379 30.96C63.6245 31.4198 62.5626 31.6496 61.3522 31.6496C60.2759 31.6496 59.2983 31.4605 58.4197 31.0822C57.5469 30.6982 56.8545 30.1163 56.3424 29.3367C55.8304 28.5511 55.5772 27.5649 55.5831 26.3779H59.3449C59.3565 26.8492 59.4525 27.2536 59.6329 27.5911C59.8191 27.9228 60.0721 28.1788 60.3922 28.3592C60.718 28.5337 61.1021 28.6209 61.5443 28.6209C62.0098 28.6209 62.4025 28.5221 62.7226 28.3242C63.0484 28.1206 63.2957 27.8238 63.4644 27.4339C63.6332 27.0441 63.7176 26.564 63.7176 25.9938V13.5303ZM79.105 25.6971V17.999H82.8231V31.4052H79.2533V28.9701H79.1136C78.8111 29.7556 78.3077 30.387 77.6037 30.8641C76.9055 31.3411 76.0531 31.5797 75.0465 31.5797C74.1504 31.5797 73.362 31.3761 72.6811 30.9688C72.0003 30.5615 71.4679 29.9825 71.084 29.2319C70.7058 28.4814 70.5138 27.5824 70.5079 26.5349V17.999H74.226V25.8716C74.2319 26.663 74.4442 27.2885 74.8631 27.7481C75.282 28.2079 75.8436 28.4377 76.5477 28.4377C76.9957 28.4377 77.4146 28.3358 77.8044 28.1322C78.1944 27.9228 78.5086 27.6143 78.7471 27.207C78.9915 26.7997 79.1107 26.2964 79.105 25.6971ZM85.7971 36.4325V17.999H89.4628V20.2509H89.6287C89.7916 19.8901 90.0273 19.5235 90.3356 19.1512C90.6498 18.7729 91.0571 18.4588 91.5575 18.2085C92.0637 17.9525 92.6922 17.8245 93.4428 17.8245C94.4203 17.8245 95.3222 18.0805 96.1484 18.5926C96.9746 19.0987 97.6351 19.8639 98.1297 20.888C98.6242 21.9062 98.8715 23.1835 98.8715 24.7196C98.8715 26.215 98.6301 27.4776 98.1471 28.5074C97.6701 29.5315 97.0183 30.3083 96.1921 30.8378C95.3716 31.3615 94.4523 31.6234 93.4341 31.6234C92.7126 31.6234 92.0987 31.504 91.5925 31.2655C91.0921 31.0269 90.6819 30.7274 90.3618 30.3665C90.0418 30 89.7973 29.6305 89.6287 29.2582H89.5152V36.4325H85.7971ZM89.4366 24.7021C89.4366 25.4992 89.5472 26.1945 89.7683 26.7881C89.9895 27.3816 90.3094 27.8441 90.7284 28.1758C91.1473 28.5017 91.6564 28.6646 92.2558 28.6646C92.861 28.6646 93.373 28.4987 93.7919 28.1672C94.2109 27.8296 94.5279 27.3642 94.7432 26.7706C94.9643 26.1713 95.0749 25.4818 95.0749 24.7021C95.0749 23.9282 94.9673 23.2475 94.752 22.6598C94.5366 22.0721 94.2196 21.6124 93.8007 21.2807C93.3816 20.949 92.8667 20.7833 92.2558 20.7833C91.6507 20.7833 91.1386 20.9433 90.7197 21.2632C90.3065 21.5833 89.9895 22.0372 89.7683 22.6249C89.5472 23.2125 89.4366 23.905 89.4366 24.7021ZM101.35 31.4052V17.999H105.068V31.4052H101.35ZM103.218 16.2709C102.665 16.2709 102.191 16.0877 101.795 15.7211C101.406 15.3487 101.211 14.9036 101.211 14.3857C101.211 13.8736 101.406 13.4343 101.795 13.0677C102.191 12.6954 102.665 12.5092 103.218 12.5092C103.771 12.5092 104.242 12.6954 104.632 13.0677C105.028 13.4343 105.225 13.8736 105.225 14.3857C105.225 14.9036 105.028 15.3487 104.632 15.7211C104.242 16.0877 103.771 16.2709 103.218 16.2709ZM115.178 17.999V20.792H107.104V17.999H115.178ZM108.937 14.7871H112.655V27.2856C112.655 27.6289 112.708 27.8965 112.812 28.0885C112.917 28.2748 113.063 28.4057 113.249 28.4814C113.441 28.557 113.662 28.5948 113.912 28.5948C114.087 28.5948 114.261 28.5802 114.436 28.5511C114.61 28.5162 114.744 28.4901 114.837 28.4726L115.422 31.2394C115.236 31.2976 114.974 31.3645 114.636 31.4401C114.299 31.5215 113.889 31.5711 113.406 31.5884C112.51 31.6234 111.724 31.504 111.049 31.2307C110.38 30.9572 109.859 30.5324 109.487 29.9563C109.114 29.3802 108.931 28.653 108.937 27.7743V14.7871ZM123.565 31.6671C122.186 31.6671 120.999 31.3877 120.004 30.8291C119.015 30.2648 118.253 29.4676 117.717 28.4377C117.182 27.402 116.914 26.1772 116.914 24.7633C116.914 23.3842 117.182 22.1738 117.717 21.1324C118.253 20.0909 119.006 19.2791 119.978 18.6973C120.955 18.1154 122.102 17.8245 123.417 17.8245C124.301 17.8245 125.125 17.9671 125.887 18.2522C126.655 18.5314 127.324 18.9533 127.894 19.5177C128.47 20.0821 128.918 20.792 129.238 21.6473C129.558 22.4969 129.718 23.4918 129.718 24.6323V25.6534H118.398V23.3492H126.218C126.218 22.814 126.102 22.3397 125.869 21.9266C125.637 21.5135 125.314 21.1906 124.9 20.9578C124.493 20.7192 124.019 20.5999 123.478 20.5999C122.913 20.5999 122.413 20.7309 121.977 20.9927C121.546 21.2488 121.209 21.5949 120.964 22.0313C120.72 22.462 120.595 22.9419 120.589 23.4714V25.6621C120.589 26.3255 120.711 26.8987 120.955 27.3816C121.206 27.8646 121.558 28.2369 122.011 28.4988C122.465 28.7606 123.004 28.8915 123.626 28.8915C124.039 28.8915 124.418 28.8334 124.761 28.717C125.104 28.6006 125.398 28.4261 125.642 28.1933C125.887 27.9606 126.073 27.6755 126.201 27.3379L129.64 27.5649C129.465 28.3911 129.107 29.1126 128.566 29.7294C128.031 30.3404 127.338 30.8175 126.489 31.1608C125.645 31.4983 124.671 31.6671 123.565 31.6671ZM132.145 31.4052V17.999H135.749V20.3382H135.889C136.133 19.5061 136.544 18.8777 137.12 18.4529C137.695 18.0224 138.359 17.807 139.11 17.807C139.295 17.807 139.496 17.8186 139.712 17.842C139.928 17.8652 140.116 17.8972 140.28 17.938V21.2372C140.105 21.1847 139.863 21.1382 139.555 21.0975C139.246 21.0568 138.964 21.0364 138.708 21.0364C138.161 21.0364 137.672 21.1556 137.242 21.3942C136.817 21.627 136.48 21.9528 136.229 22.3717C135.985 22.7908 135.863 23.2736 135.863 23.8206V31.4052H132.145Z" fill="white" />
</svg>
