<svg viewBox="0 0 123 28" fill="none" xmlns="http://www.w3.org/2000/svg">
	<path d="M31.632 21V4.59752H36.4265V9.9656L41.3817 4.59752H46.8874L40.7623 11.2044L47.2315 21H41.657L37.4818 14.5078L36.4265 15.7007V21H31.632ZM57.6286 21.2982C55.2122 21.2982 53.3846 20.7324 52.1458 19.6006C50.9223 18.4536 50.3106 16.8325 50.3106 14.7372V4.59752H55.1051V15.0125C55.1051 15.7925 55.3192 16.3966 55.7475 16.8248C56.191 17.253 56.841 17.4672 57.6974 17.4672C58.4927 17.4672 59.0968 17.2378 59.5097 16.7789C59.9379 16.3048 60.1521 15.6854 60.1521 14.9208V4.59752H64.9466V14.7372C64.9466 16.8019 64.3272 18.4154 63.0884 19.5777C61.8497 20.7247 60.0297 21.2982 57.6286 21.2982ZM68.8947 21V17.0542L75.0199 10.0115C75.1881 9.82796 75.3793 9.62914 75.5934 9.41503C75.8075 9.18562 75.9834 9.00975 76.121 8.8874L76.3275 8.68093V8.61211C75.7769 8.67329 75.2569 8.70387 74.7675 8.70387H69.4912V4.59752H82.7049V8.19918L76.6257 15.196C76.3963 15.456 76.1439 15.7313 75.8686 16.0219C75.5934 16.2972 75.3716 16.5189 75.2034 16.6872L74.951 16.9166V16.9854C75.5628 16.9242 76.2051 16.8936 76.878 16.8936H83.1408V21H68.8947ZM94.6435 21.39C92.1659 21.39 90.1625 20.5871 88.6331 18.9812C87.1037 17.3754 86.339 15.3337 86.339 12.8561C86.339 10.3785 87.1114 8.33682 88.656 6.73099C90.2007 5.10986 92.1965 4.29929 94.6435 4.29929C96.4635 4.29929 97.9928 4.72751 99.2316 5.58396C100.945 6.76157 101.908 8.45917 102.122 10.6768H97.3275C97.2664 10.0038 96.9758 9.43032 96.4558 8.95622C95.9511 8.48211 95.3241 8.24506 94.5747 8.24506C93.4735 8.24506 92.6324 8.66564 92.0512 9.50679C91.4854 10.3479 91.2024 11.4644 91.2024 12.8561C91.2024 14.2172 91.5083 15.326 92.12 16.1825C92.7318 17.0389 93.5653 17.4672 94.6206 17.4672C95.4311 17.4672 96.0888 17.2301 96.5934 16.756C97.0981 16.2819 97.3887 15.6625 97.4652 14.8978H102.306C102.168 16.6872 101.457 18.2013 100.172 19.44C98.8263 20.74 96.9834 21.39 94.6435 21.39ZM119.941 19.0042C118.412 20.5947 116.393 21.39 113.885 21.39C111.377 21.39 109.366 20.5947 107.852 19.0042C106.337 17.3983 105.58 15.349 105.58 12.8561C105.58 10.3632 106.337 8.31388 107.852 6.70805C109.366 5.10221 111.377 4.29929 113.885 4.29929C116.393 4.29929 118.412 5.10221 119.941 6.70805C121.471 8.31388 122.235 10.3632 122.235 12.8561C122.235 15.349 121.471 17.3983 119.941 19.0042ZM111.338 16.2513C111.935 17.123 112.791 17.5589 113.908 17.5589C115.024 17.5589 115.881 17.123 116.477 16.2513C117.074 15.3796 117.372 14.2478 117.372 12.8561C117.372 11.4644 117.074 10.3327 116.477 9.46091C115.881 8.57388 115.024 8.13036 113.908 8.13036C112.791 8.13036 111.935 8.57388 111.338 9.46091C110.742 10.3327 110.444 11.4644 110.444 12.8561C110.444 14.2478 110.742 15.3796 111.338 16.2513Z" fill="#F8F2EC" />
	<path fill-rule="evenodd" clip-rule="evenodd" d="M3.09855 4.94972C3.09855 4.94972 5.27255 3.77003 7.50867 2.48005L11.86 0.0148926L16.0079 2.54376C16.0079 2.54376 14.0293 3.96061 11.7183 5.3081L7.74387 7.59579L5.39181 6.24335L3.09855 4.94972ZM10.3311 9.17802C10.3311 9.17802 12.5038 7.76491 14.7403 6.45362C16.9767 5.14267 18.9096 4.06379 19.0356 4.05601L21.5371 5.35817L23.8091 6.6742L20.6299 8.52746C18.8818 9.54713 16.8358 10.7282 16.0835 11.1524L14.9177 11.8241L12.5656 10.4717L10.3311 9.17802ZM0 11.9048V9.12864V6.50504C6.01539 9.91521 23.2906 19.7601 23.4906 19.9417L19.0905 22.6482C18.9343 22.6475 14.6132 20.23 9.48799 17.2758L0 11.9048ZM0 18.8417V17.4984V14.9246C0.931517 15.2944 16.2644 24.1216 16.2621 24.2968L14.0944 25.6479L11.8573 27.0084L5.92864 23.5968L0 20.185V18.8417Z" fill="#F8F2EC" />
</svg>
