<svg width="311" height="228" viewBox="0 0 311 228" fill="none" xmlns="http://www.w3.org/2000/svg">
	<path d="M310.84 104.987V51.9125H255.878V29.2084L256.085 0.621826H202.656V174.264C202.656 181.242 204.032 188.153 206.706 194.599C209.38 201.045 213.299 206.9 218.238 211.83C223.177 216.76 229.04 220.667 235.492 223.328C241.943 225.989 248.855 227.352 255.834 227.338L310.84 227.25V175.045H269.633C267.809 175.047 266.002 174.689 264.316 173.992C262.631 173.295 261.099 172.272 259.809 170.982C258.519 169.692 257.496 168.16 256.799 166.474C256.101 164.789 255.744 162.982 255.746 161.157V140.517H255.893C255.893 128.723 255.893 116.929 255.893 104.943L310.84 104.987Z" fill="white" />
	<path d="M142.681 51.9125H184.404V0.621826H131.329V227.442H184.404V93.9711C184.404 88.7506 182.047 83.8089 177.991 80.5223L142.681 51.9125Z" fill="white" />
	<path d="M53.0745 161.157V0.621826H0V174.264C-1.31924e-05 181.242 1.37621 188.153 4.0499 194.599C6.7236 201.045 10.6423 206.9 15.5816 211.83C20.521 216.76 26.3841 220.667 32.8353 223.328C39.2865 225.989 46.1992 227.352 53.1777 227.338L112.96 227.25V175.045H66.9623C63.2791 175.045 59.7466 173.582 57.1422 170.978C54.5377 168.373 53.0745 164.841 53.0745 161.157Z" fill="white" />
</svg>
