<svg width="140" height="48" viewBox="0 0 140 48" fill="none" xmlns="http://www.w3.org/2000/svg">
	<mask id="mask0_390_107" style="mask-type:luminance" maskUnits="userSpaceOnUse" x="0" y="0" width="48" height="48">
		<path d="M47.2771 0H0V47.2771H47.2771V0Z" fill="white" />
	</mask>
	<g mask="url(#mask0_390_107)">
		<mask id="mask1_390_107" style="mask-type:alpha" maskUnits="userSpaceOnUse" x="-10" y="0" width="57" height="57">
			<path fill-rule="evenodd" clip-rule="evenodd" d="M38.3422 31.9234C43.3244 28.9441 46.6601 23.4962 46.6601 17.2691C46.6601 7.84592 39.0213 0.206909 29.5981 0.206909C22.9473 0.206909 17.1852 4.01226 14.3704 9.56447L-9.63867 33.5736L13.5267 56.739L38.3422 31.9234Z" fill="#795E5E" />
		</mask>
		<g mask="url(#mask1_390_107)">
			<path fill-rule="evenodd" clip-rule="evenodd" d="M29.3124 -1.02789L29.3211 -1.03687C26.6315 -0.986458 24.0335 -0.261833 21.7992 1.15532C20.1237 2.93688 18.484 4.75432 16.8971 6.62158C15.1695 8.65 13.5031 10.7335 11.9178 12.8863C11.328 13.6949 10.7469 14.5152 10.1984 15.368C11.0512 14.8195 11.8716 14.2384 12.6802 13.6486C13.6341 12.9442 14.5759 12.2247 15.504 11.4914C20.0403 7.91229 24.2908 3.99347 28.3735 -0.0721514C28.6871 -0.389127 28.999 -0.70778 29.3124 -1.02789ZM27.3009 9.61969C30.3271 6.5593 33.3253 3.46193 36.2387 0.28872C35.0223 -0.207598 33.7737 -0.565765 32.5234 -0.782143C29.8271 1.72962 27.1822 4.29587 24.566 6.88477C21.5557 9.92231 18.5753 12.9985 15.6796 16.1506C11.4805 20.7154 7.45155 25.4384 3.74734 30.4383C8.26417 27.0906 12.5577 23.4809 16.7085 19.7164C20.3261 16.4406 23.8388 13.051 27.3009 9.61969ZM41.4324 3.45005C37.1615 8.17906 32.7325 12.7619 28.25 17.2854C25.561 19.9539 22.8515 22.6019 20.1024 25.2074C14.0978 30.9009 7.90624 36.3985 1.33496 41.4655C6.5179 34.7442 12.1517 28.4199 17.9848 22.286C20.4658 19.6784 22.9811 17.105 25.5151 14.5505C29.9265 10.1801 34.3954 5.85822 38.9987 1.68566C39.8401 2.20142 40.6545 2.78869 41.4324 3.45005ZM45.4519 8.0802C44.9302 7.24472 44.3354 6.43784 43.6698 5.66764C38.9378 9.94154 34.3504 14.375 29.824 18.8605C27.154 21.551 24.503 24.2635 21.8945 27.0156C16.2025 33.0187 10.7096 39.209 5.64382 45.7756C12.353 40.6013 18.6686 34.9798 24.7921 29.1571C27.4101 26.6656 29.9939 24.1399 32.5589 21.5954C36.9398 17.1735 41.2706 12.6957 45.4519 8.0802ZM46.8679 10.823C47.3742 12.0226 47.7441 13.256 47.9755 14.4913C45.4373 17.221 42.838 19.8955 40.2194 22.5448C37.152 25.5849 34.0442 28.5936 30.859 31.519C26.324 35.6881 21.6307 39.684 16.6659 43.3635C19.9973 38.8663 23.5909 34.5924 27.3389 30.4581C30.6277 26.8206 34.0352 23.2899 37.4845 19.8099C40.5613 16.7673 43.6751 13.7526 46.8679 10.823ZM46.4185 24.859C47.65 22.6841 48.2633 20.2077 48.2715 17.6524C47.9034 18.0103 47.5371 18.3699 47.1736 18.7298C43.0619 22.8588 39.1017 27.1575 35.4896 31.7506C34.7978 32.6305 34.1194 33.5208 33.453 34.4231C32.8617 35.2332 32.2822 36.052 31.7336 36.9049C32.5865 36.3563 33.4068 35.7753 34.2154 35.1855C36.1933 33.7272 38.1157 32.2014 39.9898 30.6213C42.193 28.7668 44.3306 26.8377 46.4185 24.859Z" fill="url(#paint0_linear_390_107)" />
			<path fill-rule="evenodd" clip-rule="evenodd" d="M29.3124 -1.02789L29.3211 -1.03687C26.6315 -0.986458 24.0335 -0.261833 21.7992 1.15532C20.1237 2.93688 18.484 4.75432 16.8971 6.62158C15.1695 8.65 13.5031 10.7335 11.9178 12.8863C11.328 13.6949 10.7469 14.5152 10.1984 15.368C11.0512 14.8195 11.8716 14.2384 12.6802 13.6486C13.6341 12.9442 14.5759 12.2247 15.504 11.4914C20.0403 7.91229 24.2908 3.99347 28.3735 -0.0721514C28.6871 -0.389127 28.999 -0.70778 29.3124 -1.02789ZM27.3009 9.61969C30.3271 6.5593 33.3253 3.46193 36.2387 0.28872C35.0223 -0.207598 33.7737 -0.565765 32.5234 -0.782143C29.8271 1.72962 27.1822 4.29587 24.566 6.88477C21.5557 9.92231 18.5753 12.9985 15.6796 16.1506C11.4805 20.7154 7.45155 25.4384 3.74734 30.4383C8.26417 27.0906 12.5577 23.4809 16.7085 19.7164C20.3261 16.4406 23.8388 13.051 27.3009 9.61969ZM41.4324 3.45005C37.1615 8.17906 32.7325 12.7619 28.25 17.2854C25.561 19.9539 22.8515 22.6019 20.1024 25.2074C14.0978 30.9009 7.90624 36.3985 1.33496 41.4655C6.5179 34.7442 12.1517 28.4199 17.9848 22.286C20.4658 19.6784 22.9811 17.105 25.5151 14.5505C29.9265 10.1801 34.3954 5.85822 38.9987 1.68566C39.8401 2.20142 40.6545 2.78869 41.4324 3.45005ZM45.4519 8.0802C44.9302 7.24472 44.3354 6.43784 43.6698 5.66764C38.9378 9.94154 34.3504 14.375 29.824 18.8605C27.154 21.551 24.503 24.2635 21.8945 27.0156C16.2025 33.0187 10.7096 39.209 5.64382 45.7756C12.353 40.6013 18.6686 34.9798 24.7921 29.1571C27.4101 26.6656 29.9939 24.1399 32.5589 21.5954C36.9398 17.1735 41.2706 12.6957 45.4519 8.0802ZM46.8679 10.823C47.3742 12.0226 47.7441 13.256 47.9755 14.4913C45.4373 17.221 42.838 19.8955 40.2194 22.5448C37.152 25.5849 34.0442 28.5936 30.859 31.519C26.324 35.6881 21.6307 39.684 16.6659 43.3635C19.9973 38.8663 23.5909 34.5924 27.3389 30.4581C30.6277 26.8206 34.0352 23.2899 37.4845 19.8099C40.5613 16.7673 43.6751 13.7526 46.8679 10.823ZM46.4185 24.859C47.65 22.6841 48.2633 20.2077 48.2715 17.6524C47.9034 18.0103 47.5371 18.3699 47.1736 18.7298C43.0619 22.8588 39.1017 27.1575 35.4896 31.7506C34.7978 32.6305 34.1194 33.5208 33.453 34.4231C32.8617 35.2332 32.2822 36.052 31.7336 36.9049C32.5865 36.3563 33.4068 35.7753 34.2154 35.1855C36.1933 33.7272 38.1157 32.2014 39.9898 30.6213C42.193 28.7668 44.3306 26.8377 46.4185 24.859Z" fill="white" />
		</g>
	</g>
	<path d="M59.5698 13.77H63.3997L67.4449 23.6385H67.617L71.6617 13.77H75.4917V28.4581H72.4792V18.8979H72.3576L68.5561 28.3863H66.5053L62.7039 18.862H62.5822V28.4581H59.5698V13.77ZM83.0128 28.6732C81.88 28.6732 80.9047 28.4437 80.0867 27.9847C79.2743 27.5209 78.6477 26.8659 78.208 26.0196C77.7678 25.1685 77.548 24.1621 77.548 23.0003C77.548 21.8671 77.7678 20.8726 78.208 20.0168C78.6477 19.1609 79.2669 18.4939 80.0656 18.0158C80.8689 17.5376 81.8107 17.2986 82.8912 17.2986C83.6178 17.2986 84.2944 17.4157 84.9209 17.65C85.552 17.8795 86.1019 18.2261 86.5701 18.6899C87.0438 19.1537 87.4119 19.737 87.6749 20.4399C87.9379 21.138 88.0692 21.9555 88.0692 22.8927V23.7318H78.7671V21.8384H85.1931C85.1931 21.3985 85.0976 21.0088 84.9062 20.6694C84.7153 20.3299 84.45 20.0645 84.1103 19.8733C83.7757 19.6773 83.386 19.5792 82.9412 19.5792C82.4777 19.5792 82.0664 19.6868 81.7079 19.902C81.354 20.1124 81.0768 20.3968 80.8757 20.7554C80.6752 21.1093 80.5723 21.5037 80.5673 21.9388V23.7389C80.5673 24.284 80.6678 24.755 80.8689 25.1518C81.0745 25.5487 81.3637 25.8546 81.7364 26.0698C82.1095 26.285 82.5515 26.3926 83.0633 26.3926C83.4025 26.3926 83.7137 26.3447 83.9956 26.2491C84.2779 26.1535 84.5193 26.0101 84.7199 25.8188C84.9209 25.6275 85.0738 25.3933 85.1789 25.116L88.0045 25.3024C87.8613 25.9814 87.5671 26.5742 87.1227 27.0811C86.6826 27.5831 86.1139 27.9751 85.4157 28.2572C84.7222 28.5346 83.9217 28.6732 83.0128 28.6732ZM95.9223 17.442V19.737H89.2883V17.442H95.9223ZM90.7948 14.8028H93.8499V25.0729C93.8499 25.355 93.893 25.5749 93.9788 25.7327C94.0651 25.8857 94.1845 25.9933 94.3373 26.0555C94.4952 26.1176 94.677 26.1487 94.8826 26.1487C95.0258 26.1487 95.1695 26.1367 95.3127 26.1128C95.4564 26.0841 95.5661 26.0626 95.6427 26.0483L96.1233 28.3218C95.9704 28.3696 95.7552 28.4246 95.4779 28.4867C95.2007 28.5537 94.8633 28.5943 94.4668 28.6087C93.7301 28.6373 93.0847 28.5393 92.5302 28.3146C91.9804 28.0899 91.5526 27.7409 91.2464 27.2675C90.9403 26.7942 90.7897 26.1965 90.7948 25.4745V14.8028ZM102.815 28.6732C101.681 28.6732 100.706 28.4437 99.8885 27.9847C99.0756 27.5209 98.4495 26.8659 98.0093 26.0196C97.5696 25.1685 97.3497 24.1621 97.3497 23.0003C97.3497 21.8671 97.5696 20.8726 98.0093 20.0168C98.4495 19.1609 99.0687 18.4939 99.8669 18.0158C100.67 17.5376 101.612 17.2986 102.693 17.2986C103.42 17.2986 104.096 17.4157 104.722 17.65C105.353 17.8795 105.903 18.2261 106.372 18.6899C106.845 19.1537 107.213 19.737 107.476 20.4399C107.739 21.138 107.871 21.9555 107.871 22.8927V23.7318H98.5689V21.8384H104.995C104.995 21.3985 104.899 21.0088 104.708 20.6694C104.517 20.3299 104.251 20.0645 103.912 19.8733C103.577 19.6773 103.188 19.5792 102.743 19.5792C102.279 19.5792 101.868 19.6868 101.509 19.902C101.156 20.1124 100.878 20.3968 100.678 20.7554C100.476 21.1093 100.374 21.5037 100.369 21.9388V23.7389C100.369 24.284 100.47 24.755 100.67 25.1518C100.876 25.5487 101.165 25.8546 101.538 26.0698C101.911 26.285 102.353 26.3926 102.865 26.3926C103.204 26.3926 103.515 26.3447 103.797 26.2491C104.079 26.1535 104.321 26.0101 104.522 25.8188C104.722 25.6275 104.876 25.3933 104.981 25.116L107.806 25.3024C107.663 25.9814 107.369 26.5742 106.924 27.0811C106.484 27.5831 105.915 27.9751 105.217 28.2572C104.524 28.5346 103.723 28.6732 102.815 28.6732ZM114.842 28.6732C113.728 28.6732 112.764 28.4365 111.951 27.9632C111.144 27.4851 110.52 26.8205 110.08 25.9694C109.64 25.1135 109.42 24.1215 109.42 22.9931C109.42 21.8551 109.64 20.8606 110.08 20.0095C110.52 19.1537 111.144 18.4891 111.951 18.0158C112.764 17.5376 113.728 17.2986 114.842 17.2986C115.956 17.2986 116.917 17.5376 117.725 18.0158C118.538 18.4891 119.164 19.1537 119.604 20.0095C120.044 20.8606 120.264 21.8551 120.264 22.9931C120.264 24.1215 120.044 25.1135 119.604 25.9694C119.164 26.8205 118.538 27.4851 117.725 27.9632C116.917 28.4365 115.956 28.6732 114.842 28.6732ZM114.856 26.3065C115.363 26.3065 115.786 26.163 116.126 25.8762C116.465 25.5845 116.721 25.1877 116.893 24.6856C117.07 24.1836 117.158 23.6122 117.158 22.9716C117.158 22.3309 117.07 21.7595 116.893 21.2575C116.721 20.7554 116.465 20.3586 116.126 20.0669C115.786 19.7753 115.363 19.6294 114.856 19.6294C114.345 19.6294 113.914 19.7753 113.565 20.0669C113.221 20.3586 112.96 20.7554 112.784 21.2575C112.612 21.7595 112.525 22.3309 112.525 22.9716C112.525 23.6122 112.612 24.1836 112.784 24.6856C112.96 25.1877 113.221 25.5845 113.565 25.8762C113.914 26.163 114.345 26.3065 114.856 26.3065ZM122.251 28.4581V17.442H125.212V19.3641H125.327C125.528 18.6804 125.865 18.164 126.338 17.815C126.812 17.4612 127.357 17.2842 127.974 17.2842C128.127 17.2842 128.291 17.2938 128.469 17.3129C128.645 17.3321 128.801 17.3584 128.935 17.3918V20.1028C128.791 20.0598 128.593 20.0215 128.339 19.9881C128.086 19.9546 127.854 19.9378 127.644 19.9378C127.194 19.9378 126.793 20.0358 126.439 20.2319C126.09 20.4231 125.812 20.6909 125.607 21.0351C125.406 21.3794 125.306 21.7762 125.306 22.2257V28.4581H122.251ZM133.34 28.666C132.637 28.666 132.011 28.5441 131.461 28.3003C130.911 28.0517 130.476 27.6859 130.156 27.203C129.84 26.7153 129.682 26.1081 129.682 25.3813C129.682 24.7693 129.795 24.2553 130.02 23.8394C130.244 23.4234 130.55 23.0887 130.938 22.8353C131.325 22.5819 131.765 22.3906 132.257 22.2615C132.754 22.1324 133.275 22.0416 133.821 21.989C134.461 21.9221 134.978 21.8599 135.37 21.8025C135.762 21.7404 136.046 21.6496 136.223 21.53C136.4 21.4105 136.488 21.2336 136.488 20.9993V20.9562C136.488 20.5021 136.345 20.1506 136.058 19.902C135.776 19.6534 135.374 19.5291 134.853 19.5291C134.303 19.5291 133.866 19.651 133.541 19.8948C133.216 20.1339 133 20.4351 132.895 20.7985L130.07 20.569C130.213 19.8996 130.495 19.321 130.916 18.8334C131.336 18.3409 131.879 17.9632 132.544 17.7002C133.213 17.4325 133.988 17.2986 134.868 17.2986C135.479 17.2986 136.066 17.3703 136.625 17.5137C137.189 17.6572 137.689 17.8795 138.124 18.1807C138.563 18.4819 138.91 18.8692 139.164 19.3426C139.417 19.8112 139.544 20.3729 139.544 21.028V28.4581H136.646V26.9305H136.56C136.383 27.2747 136.147 27.5783 135.85 27.8412C135.554 28.0994 135.198 28.3027 134.782 28.4509C134.365 28.5943 133.885 28.666 133.34 28.666ZM134.215 26.5575C134.664 26.5575 135.061 26.4691 135.406 26.2921C135.75 26.1104 136.02 25.8666 136.216 25.5606C136.412 25.2546 136.51 24.908 136.51 24.5207V23.3517C136.414 23.4138 136.283 23.4712 136.116 23.5238C135.953 23.5716 135.769 23.617 135.563 23.6601C135.358 23.6983 135.152 23.7342 134.947 23.7676C134.741 23.7963 134.555 23.8226 134.387 23.8465C134.029 23.8991 133.715 23.9828 133.447 24.0975C133.18 24.2123 132.972 24.3677 132.824 24.5637C132.675 24.755 132.601 24.994 132.601 25.2809C132.601 25.6969 132.752 26.0148 133.053 26.2347C133.359 26.4499 133.746 26.5575 134.215 26.5575Z" fill="white" />
	<defs>
		<linearGradient id="paint0_linear_390_107" x1="39.1437" y1="103.347" x2="95.5271" y2="36.1643" gradientUnits="userSpaceOnUse">
			<stop stop-color="#FF2189" />
			<stop offset="1" stop-color="#FF9D00" />
		</linearGradient>
	</defs>
</svg>
