<svg viewBox="0 0 178 45" fill="none" xmlns="http://www.w3.org/2000/svg">
	<mask id="mask0_390_189" style="mask-type:luminance" maskUnits="userSpaceOnUse" x="0" y="0" width="44" height="45">
		<path d="M43.6506 0H0V44.5506H43.6506V0Z" fill="white" />
	</mask>
	<g mask="url(#mask0_390_189)">
		<path d="M24.563 26.2253L22.2177 21.0314L19.8726 26.2253H15.6561L13.3108 21.0314L10.9657 26.2253H6.74658L13.3106 11.6938L17.7646 21.5565L22.2187 11.6938L28.7825 26.2264L24.563 26.2253ZM36.9046 26.2253H33.1537V21.069H28.4168L26.8237 17.3184H33.1537V12.1626H36.9046V26.2253Z" fill="white" />
		<path d="M43.6506 38.3509H0V0.0212402H43.6506V38.3509ZM2.78639 35.5652H40.8642V2.80703H2.78639V35.5652Z" fill="white" />
	</g>
	<path d="M58.9606 24.9401H57.0385L51.6382 14.8433H53.9191L58.0032 22.4819L62.0873 14.8433H64.3691L58.9606 24.9401Z" fill="white" />
	<path d="M79.6454 14.8433V16.8615H69.373V14.8433H79.6454ZM69.373 20.9045V18.8862H79.6454V20.9045H69.373ZM79.6454 22.9228V24.9401H69.373V22.9228H79.6454Z" fill="white" />
	<path d="M86.6545 17.2564V24.9401H84.6509V14.8433H87.0819L94.8516 22.5345V14.8433H96.8545V24.9401H94.4234L86.6545 17.2564Z" fill="white" />
	<path d="M113.185 14.8433V16.8615H108.487V24.9401H106.476V16.8615H101.947V14.8433H113.185Z" fill="white" />
	<path d="M122.193 24.9374C121.126 24.9374 120.183 24.5425 119.365 23.7527C118.582 22.9303 118.19 21.9798 118.189 20.9012V14.8433H120.195V20.9012C120.197 21.4357 120.407 21.9481 120.781 22.3265C121.156 22.7049 121.663 22.9187 122.193 22.9211H125.865C126.395 22.9194 126.903 22.7063 127.278 22.3285C127.653 21.9505 127.864 21.4385 127.866 20.904V14.846H129.866V20.904C129.866 21.9802 129.478 22.9307 128.699 23.7555C127.878 24.5453 126.933 24.9401 125.865 24.9401L122.193 24.9374Z" fill="white" />
	<path d="M136.964 21.5746V24.9401H134.958V14.8435H142.063C142.655 14.8366 143.238 14.9939 143.746 15.2981C144.247 15.5957 144.663 16.0159 144.957 16.5194C145.264 17.0513 145.42 17.6577 145.41 18.2727C145.398 18.8876 145.22 19.4879 144.894 20.0083C144.562 20.5347 144.092 20.9593 143.537 21.2359L145.494 24.9052H143.218L141.443 21.5746H136.964ZM136.964 16.8617V19.5564H142.063C142.419 19.5564 142.759 19.4144 143.011 19.1617C143.262 18.9091 143.402 18.5663 143.402 18.209C143.402 17.8517 143.262 17.509 143.011 17.2563C142.759 17.0036 142.419 16.8617 142.063 16.8617H136.964Z" fill="white" />
	<path d="M160.773 14.8433V16.8615H150.501V14.8433H160.773ZM150.5 20.9045V18.8862H160.773V20.9045H150.5ZM160.773 22.9228V24.9401H150.501V22.9228H160.773Z" fill="white" />
	<path d="M166.808 20.1371C166.281 19.6782 165.93 19.0486 165.817 18.3571C165.703 17.6657 165.832 16.9559 166.183 16.3505C166.449 15.8974 166.825 15.5194 167.275 15.2522C167.733 14.9793 168.256 14.8379 168.788 14.8434H177.158V16.8624H168.788C168.587 16.8603 168.39 16.9197 168.223 17.0327C168.056 17.1456 167.927 17.3069 167.853 17.4951C167.78 17.6834 167.764 17.8896 167.81 18.0866C167.855 18.2837 167.959 18.4623 168.108 18.5987C168.293 18.7413 168.515 18.8281 168.749 18.8491C169.04 18.8812 169.333 18.8966 169.626 18.8952H169.802C170.589 18.9087 171.375 18.9108 172.161 18.9016H172.393C172.776 18.8967 173.158 18.8897 173.537 18.8805C173.668 18.8805 173.802 18.8805 173.937 18.874C174.269 18.865 174.601 18.8789 174.931 18.9154C175.293 18.9575 175.646 19.0602 175.974 19.2192C176.839 19.6667 177.373 20.375 177.574 21.3441C177.659 21.791 177.645 22.2513 177.532 22.6919C177.414 23.1569 177.185 23.5859 176.865 23.9422C176.583 24.2547 176.24 24.5055 175.858 24.6787C175.479 24.8523 175.066 24.9415 174.65 24.9401H166.112V22.9258H174.65C174.795 22.9233 174.939 22.8887 175.07 22.8242C175.2 22.7597 175.315 22.667 175.407 22.5528C175.498 22.4386 175.563 22.3055 175.597 22.1631C175.631 22.0207 175.634 21.8724 175.605 21.729C175.58 21.581 175.521 21.4412 175.432 21.321C175.342 21.2007 175.226 21.1035 175.092 21.0375C174.735 20.9073 174.353 20.8589 173.976 20.8958C173.845 20.9013 173.713 20.9031 173.583 20.9031C173.2 20.9123 172.809 20.9194 172.41 20.9243H172.179C171.379 20.939 170.573 20.9366 169.763 20.917H169.608C169.144 20.9246 168.679 20.8879 168.222 20.8074C167.701 20.7097 167.215 20.4789 166.808 20.1371Z" fill="white" />
</svg>
