<svg width="822" height="139" viewBox="0 0 822 139" fill="none" xmlns="http://www.w3.org/2000/svg">
	<path d="M0 0C5.63453 0 11.2691 0 17.0743 0C21.8933 9.55799 26.577 19.1602 31.1157 28.8536C31.7414 30.1866 32.3673 31.5195 32.9933 32.8524C34.8791 36.8696 36.7611 40.8887 38.6419 44.9083C38.9241 45.5114 39.2063 46.1145 39.4971 46.7359C41.8593 51.7846 44.2203 56.8339 46.5733 61.8869C48.9798 67.0541 51.3919 72.2185 53.8272 77.3723C54.9857 79.8249 56.141 82.2791 57.296 84.7334C57.844 85.8953 58.3935 87.0564 58.9447 88.2167C61.8598 94.3539 64.5256 100.376 66.5 106.882C67.0931 106.882 67.6862 106.882 68.2973 106.882C68.533 106.128 68.7688 105.374 69.0117 104.598C70.1699 101.277 71.5616 98.1129 73.0433 94.9285C73.3356 94.2942 73.6279 93.66 73.9291 93.0066C74.8949 90.9129 75.8647 88.821 76.8345 86.7292C77.5204 85.2441 78.2061 83.7588 78.8915 82.2734C80.6902 78.3772 82.4922 74.4824 84.2948 70.5879C86.0131 66.8742 87.7284 63.159 89.4436 59.4439C90.1142 57.9914 90.7849 56.5389 91.4555 55.0864C91.7864 54.3697 92.1173 53.653 92.4582 52.9146C93.4584 50.7486 94.4591 48.5827 95.4599 46.417C102.604 30.955 109.715 15.4781 116.824 0C122.162 0 127.5 0 133 0C133 44.7556 133 89.5113 133 135.623C125.586 135.623 118.172 135.623 110.534 135.623C110.237 102.427 109.941 69.2307 109.635 35.0285C104.89 45.4023 100.145 55.7761 95.2568 66.4643C90.4023 76.9913 90.4023 76.9913 88.0274 82.1167C83.7061 91.443 79.3958 100.774 75.1565 110.138C74.8446 110.826 74.5328 111.515 74.2114 112.224C72.7396 115.474 71.2713 118.726 69.8083 121.981C69.2871 123.134 68.7659 124.288 68.2446 125.442C67.797 126.437 67.3493 127.432 66.8881 128.458C64.3707 133.69 64.3707 133.69 62.9054 135.623C60.8729 136.062 60.8729 136.062 58.693 135.904C57.9667 135.863 57.2403 135.823 56.492 135.781C55.9394 135.729 55.3869 135.677 54.8176 135.623C47.1527 119.455 39.5637 103.258 32.1872 86.9566C26.8616 75.193 21.4415 63.4736 16.0076 51.7597C15.3464 50.332 14.6851 48.9042 14.0238 47.4765C13.7221 46.8276 13.4204 46.1788 13.1095 45.5102C11.6423 42.3406 10.2855 39.1724 8.98649 35.9267C8.68993 68.8265 8.39338 101.726 8.08784 135.623C5.41885 135.623 2.74986 135.623 0 135.623C0 90.8675 0 46.1119 0 0Z" fill="#F9F9F9" />
	<path d="M400.058 48.3909C400.828 48.7701 401.598 49.1494 402.391 49.5401C413.341 55.4433 418.926 65.121 423.301 76.3484C426.865 88.9567 424.554 103.64 418.863 115.12C412.482 126.184 403.357 133.304 391.024 136.801C388.638 137.279 386.316 137.606 383.892 137.81C383.278 137.862 382.665 137.914 382.032 137.968C370.738 138.4 360.395 134.495 351.728 127.359C342.779 118.87 337.688 107.419 337.007 95.1894C336.833 80.618 340.01 67.3535 350.429 56.4666C354.085 53.1919 358.008 50.6949 362.337 48.3909C363.424 47.8065 363.424 47.8065 364.533 47.2103C375.102 42.4929 389.877 43.0481 400.058 48.3909Z" fill="#FBFBFB" />
	<path d="M730.264 50.2793C732.073 51.5517 733.714 52.9079 735.369 54.3712C735.891 54.7767 736.412 55.1823 736.95 55.6001C743.883 61.535 749.278 72.5052 750.483 81.4922C750.539 82.2757 750.594 83.0591 750.652 83.8663C750.744 84.9079 750.837 85.9494 750.932 87.0225C751.539 99.7773 748.079 112.033 739.92 122.065C732.167 130.519 722.797 136.339 711.031 136.932C701.589 137.136 693.319 137.206 685.028 132.131C684.372 131.732 683.716 131.334 683.04 130.923C672.439 123.694 666.269 113.141 663.453 100.848C663.058 97.4869 662.981 94.1756 663.004 90.7932C663.009 89.8937 663.014 88.9943 663.019 88.0675C663.293 76.6506 666.907 67.6946 674.24 58.8401C674.668 58.2836 675.096 57.7271 675.536 57.1538C688.663 41.99 713.834 40.2689 730.264 50.2793Z" fill="#FBFBFB" />
	<path d="M214.03 51.2856C223.022 57.8393 230.209 67.336 232.074 78.5576C232.153 79.2581 232.233 79.9587 232.315 80.6805C232.422 81.5845 232.529 82.4885 232.64 83.4199C234.047 97.8677 231.453 110.45 222.704 122.245C218.504 127.321 214.047 130.675 208.167 133.592C207.465 133.963 206.763 134.334 206.04 134.716C196.766 138.893 182.953 139.041 173.424 135.413C161.646 129.755 154.2 122.435 149.14 110.275C148.658 109.206 148.176 108.136 147.68 107.035C145.908 102.197 145.98 97.3284 146.01 92.2268C146.015 91.232 146.02 90.2371 146.026 89.2121C146.318 75.7213 151.032 65.5647 160.264 55.7381C163.434 52.7356 166.734 50.4053 170.605 48.3955C171.269 48.0418 171.933 47.688 172.617 47.3236C185.691 41.4652 202.233 43.7023 214.03 51.2856Z" fill="#FBFBFB" />
	<path d="M578.261 50.3099C586.727 56.1806 592.093 65.8466 594 75.8825C594 79.1401 594 82.3977 594 85.754C573.548 85.754 553.096 85.754 532.025 85.754C535.473 102.695 535.474 102.695 546.442 114.31C555.462 119.765 566.308 120.58 576.548 118.218C579.118 117.353 581.612 116.395 584.12 115.368C585.913 114.76 587.708 114.158 589.509 113.574C590.102 114.758 590.695 115.943 591.305 117.163C587.682 120.287 584.048 123.399 580.405 126.501C578.902 127.786 577.408 129.083 575.917 130.383C567.803 137.303 561.462 138.568 550.887 137.804C538.718 135.993 528.958 130.337 521.247 120.753C513.095 107.883 511.458 94.1991 514.282 79.36C517.332 67.7382 524.644 56.2184 534.954 49.8401C549.05 42.0965 564.324 41.8543 578.261 50.3099Z" fill="#F9F9F9" />
	<path d="M313.344 49.3873C318.646 53.6381 322.596 59.2071 323.896 65.9663C323.976 68.2231 324.009 70.4542 323.998 72.7105C323.998 73.3843 323.998 74.0582 323.998 74.7525C323.998 76.9742 323.991 79.1959 323.984 81.4176C323.982 82.9603 323.981 84.5029 323.98 86.0455C323.976 90.1017 323.968 94.1578 323.958 98.2139C323.948 102.355 323.944 106.495 323.94 110.636C323.93 118.757 323.915 126.879 323.896 135C317.1 135 310.305 135 303.303 135C303.29 133.245 303.277 131.49 303.263 129.682C303.217 123.863 303.159 118.045 303.092 112.226C303.052 108.701 303.017 105.176 302.993 101.65C302.969 98.2436 302.933 94.8372 302.888 91.4308C302.873 90.1356 302.863 88.8403 302.857 87.5449C302.838 76.1307 302.838 76.1307 297.763 66.1344C293.019 62.4399 288.155 60.9667 282.147 61.1544C278.908 61.6566 276.072 62.8584 273.095 64.1977C271.07 65.0697 271.07 65.0697 267.489 65.9663C267.489 88.7474 267.489 111.529 267.489 135C260.397 135 253.306 135 246 135C246 105.71 246 76.42 246 46.2424C250.137 46.2424 254.273 46.2424 258.535 46.2424C260.899 50.9761 263.263 55.7098 265.698 60.587C268.425 59.2216 270.049 58.2863 272.245 56.36C272.783 55.8925 273.321 55.425 273.875 54.9434C274.427 54.4574 274.978 53.9714 275.547 53.4707C286.838 43.5955 299.829 40.1745 313.344 49.3873Z" fill="#F9F9F9" />
	<path d="M707.484 52.7097C717.221 58.0978 723.304 69.2325 726.636 79.5369C730.628 94.2064 732.108 110.276 725.154 124.192C723.306 127.301 721.208 128.853 718.031 130.464C713.722 131.233 709.35 131.378 705.318 129.514C703.455 128.175 701.879 126.755 700.267 125.121C699.73 124.604 699.193 124.088 698.639 123.555C687.468 111.892 684.137 95.1032 684.057 79.4812C684.038 78.603 684.02 77.7248 684.001 76.8201C683.96 68.9933 685.148 61.4347 690.101 55.1309C694.99 50.3611 701.54 49.9597 707.484 52.7097Z" fill="#020202" />
	<path d="M379.138 51.2125C387.495 54.0873 393.016 60.6803 396.949 68.3052C404.382 83.7264 407.475 101.849 402.754 118.579C400.988 123.277 398.982 127.091 394.546 129.768C390.693 131.333 386.794 131.177 382.728 130.559C372.242 126 367.373 116.36 362.983 106.487C357.561 92.6378 355.98 75.1255 361.188 61.0194C365.283 53.4255 370.625 50.0895 379.138 51.2125Z" fill="#020202" />
	<path d="M188.842 52.3106C190.718 53.4171 192.367 54.6267 194.054 56.0033C194.576 56.4065 195.099 56.8096 195.638 57.2249C206.478 66.7016 210.537 82.371 211.715 96.1659C212.433 107.14 212.276 118.5 205.341 127.52C202.264 130.756 199.557 131.709 195.117 132C188.929 131.652 185.02 129.248 180.622 125C169.587 112.639 166.105 96.4329 166.015 80.3648C166.01 79.4986 166.005 78.6324 166 77.7399C166.094 68.4884 167.471 61.4648 173.459 54.2112C177.589 50.4226 183.749 50.2557 188.842 52.3106Z" fill="#010101" />
	<path d="M819.59 49.5442C819.59 53.4134 817.416 55.6763 815.231 58.6886C814.819 59.2759 814.408 59.8631 813.984 60.4681C812.922 61.9503 811.79 63.3818 810.648 64.8037C810.058 64.8037 809.468 64.8037 808.86 64.8037C807.883 63.5865 806.96 62.3248 806.066 61.0449C802.434 56.2016 798.491 53.2552 792.766 51.3394C785.822 50.5896 785.822 50.5896 779.217 52.2791C776.78 54.3131 775.028 56.1951 774.701 59.4074C774.687 60.0959 774.674 60.7844 774.659 61.4937C774.636 62.1752 774.613 62.8567 774.589 63.5589C775.069 67.0578 776.648 69.4676 779.406 71.6381C785.188 74.9725 791.115 77.6994 797.236 80.3436C806.929 84.6676 815.301 89.1853 820.484 98.913C822.617 105.307 822.617 115.334 819.73 121.508C814.2 130.284 806.578 135.708 796.477 138.066C784.34 140.227 770.487 138.743 759.738 132.518C758.835 131.795 757.931 131.073 757 130.33C757 127.294 757.398 126.769 759.152 124.428C759.595 123.83 760.039 123.231 760.496 122.614C760.965 121.994 761.434 121.375 761.918 120.736C762.387 120.106 762.856 119.476 763.339 118.827C764.499 117.271 765.667 115.721 766.836 114.172C768.934 116.228 770.606 118.341 772.312 120.736C775.941 125.498 780.302 128.562 785.612 131.227C793.473 131.929 793.473 131.929 800.925 129.825C804.869 126.468 805.937 123.286 806.569 118.212C805.994 113.596 804.572 110.41 801.008 107.475C794.596 103.12 787.715 100.332 780.539 97.4842C772.596 94.1574 763.672 88.8975 760.185 80.5014C758.583 73.3846 758.289 65.4368 761.862 58.9131C767.741 50.7082 775.747 46.554 785.469 44.5267C797.884 42.9091 808.003 45.1396 819.59 49.5442Z" fill="#F9F9F9" />
	<path d="M506.077 50.6087C507.042 52.2031 507.042 52.2031 506.975 54.1971C505.599 56.2025 504.268 57.8987 502.655 59.6918C502.238 60.1741 501.821 60.6563 501.391 61.1531C499.716 63.0799 498.01 64.9513 496.203 66.7565C495.724 66.1066 495.245 65.4567 494.752 64.7871C489.612 58.1227 484.544 53.3035 476.455 50.6087C469.891 50.1713 465.759 51.4737 460.185 55.1503C455.512 59.2567 452.527 66.1476 452.073 72.3109C451.824 86.3752 451.675 99.9661 462.085 110.778C469.106 117.106 475.818 120.148 485.393 119.976C492.431 119.227 498.946 116.656 505.18 113.406C505.772 114.886 506.365 116.366 506.975 117.891C495.21 128.057 495.21 128.057 489.415 132.806C488.747 133.354 488.079 133.902 487.391 134.467C481.319 138.701 474.566 138.192 467.478 137.628C456.487 135.337 446.403 129.515 439.959 120.236C432.381 108.114 430.523 94.4632 433.083 80.4409C433.913 77.5726 434.886 74.8838 436.06 72.1392C436.6 70.8729 436.6 70.8729 437.15 69.581C442.67 58.2285 452.688 49.5809 464.561 45.3943C477.83 41.2185 494.536 42.2308 506.077 50.6087Z" fill="#F9F9F9" />
	<path d="M660 45C660 52.0574 660 59.1149 660 66.3861C650.343 68.0012 650.343 68.0012 647.372 68.4914C646.154 68.6985 646.154 68.6985 644.911 68.9097C644.102 69.0451 643.293 69.1804 642.459 69.3198C637.791 70.2634 633.182 71.4775 628.559 72.6238C628.559 93.2079 628.559 113.792 628.559 135C621.445 135 614.33 135 607 135C607 105.888 607 76.7762 607 46.7822C611.15 46.7822 615.3 46.7822 619.576 46.7822C620.149 48.187 620.723 49.5918 621.313 51.0392C622.063 52.869 622.813 54.6988 623.562 56.5285C624.13 57.9198 624.13 57.9198 624.708 59.3392C625.07 60.2208 625.432 61.1024 625.805 62.0108C626.306 63.2357 626.306 63.2357 626.817 64.4854C627.5 66.3336 627.5 66.3336 628.559 67.2772C629.384 66.3499 630.207 65.4214 631.03 64.4926C631.604 63.8528 632.178 63.213 632.77 62.5538C634.347 60.7283 635.84 58.8925 637.318 56.9914C645.641 46.4962 645.641 46.4962 653.287 45.1462C655.52 44.9992 657.762 45 660 45Z" fill="#F7F7F7" />
	<path d="M557.778 50.37C563.739 52.9522 566.874 58.0287 569.333 63.8832C571.711 70.0637 572 74.0403 572 81C558.8 81 545.6 81 532 81C532 70.9981 533.908 62.2583 540.889 54.8744C546.293 50.0195 550.631 49.443 557.778 50.37Z" fill="#010101" />
</svg>
