<svg viewBox="0 0 238 49" fill="none" xmlns="http://www.w3.org/2000/svg">
	<path d="M47.2589 16.1289C49.5991 15.7403 51.9151 15.3933 54.0495 14.3051C55.2375 13.6992 56.395 12.9578 57.3885 12.0639C57.4012 12.0524 57.4141 12.041 57.4267 12.0294C57.4267 12.0294 56.6161 12.4337 55.603 12.8383C54.7326 13.1858 53.7129 13.2714 52.7908 13.3786C50.82 13.6077 48.7237 13.7885 46.9907 12.6361C47.1042 12.7118 48.4695 11.7915 48.577 11.7303C50.6241 10.5648 52.6537 9.30598 53.678 7.07633C53.678 7.07633 52.4621 7.88515 51.2462 8.39048C50.0303 8.89583 47.5988 9.5025 47.5988 9.5025C47.5988 9.5025 49.4225 7.3798 49.9304 6.36886C50.4383 5.35791 51.45 2.72963 51.2475 3.13364C51.0447 3.53762 50.5382 3.74004 49.7276 4.54883C48.9173 5.35765 46.5867 6.36832 46.6879 6.1662C47.3024 4.93946 48.1203 3.77237 48.5103 2.44807C48.7377 1.6759 48.8917 0.683411 49.1201 0C49.0188 0.3032 48.2089 1.01094 47.3976 2.1227C46.5863 3.23442 45.1683 4.3467 45.1683 4.3467V3.03256C45.1683 3.03256 45.067 1.8195 44.1552 1.41522C43.243 1.01094 42.1286 2.42616 42.1286 2.42616C42.1286 2.42616 43.4461 2.52724 43.5474 3.03256C43.6486 3.53788 42.4327 4.64991 42.4327 4.64991L42.838 5.55897C42.838 5.55897 42.838 11.5231 38.2784 13.2414C33.7188 14.9599 33.8204 15.7687 33.4147 16.3752C32.7671 17.3449 33.6351 18.7201 33.1379 19.7004C33.0665 19.8418 32.9772 19.9779 32.8494 20.0735C32.4381 20.3822 31.8997 20.2912 31.4884 20.017C31.262 19.8089 31.1107 19.5065 30.9583 19.1653C30.3104 17.7153 29.0898 15.0746 29.0898 15.0746C29.0898 15.0746 30.7127 14.3273 31.4619 14.2027C32.2107 14.0781 32.2107 15.3235 32.2107 15.3235L32.5862 14.4516C32.9613 13.5797 32.5862 13.0816 32.4614 12.708C32.3362 12.3345 31.4622 11.8361 28.5909 10.5907C27.6588 10.1862 26.6009 9.93323 25.5864 10.1404C25.199 10.2207 24.6304 10.387 24.3805 10.7041C24.9803 10.7019 25.5453 10.5511 26.1614 10.6276C26.794 10.7058 27.4058 10.9052 27.9628 11.2147H25.7159C24.093 11.2147 22.9694 13.3321 22.9694 13.3321L23.9695 12.4596C24.8123 11.7241 25.917 11.9624 26.8412 11.9615C26.3111 11.9615 25.6946 12.827 25.4623 13.2281C24.8953 14.2043 24.9345 15.3083 25.2024 16.3716C25.2259 16.3882 25.2176 16.3477 25.2176 16.3205C25.2176 15.8224 25.842 15.324 25.842 15.324L25.5921 16.6939C25.3424 18.0642 25.5921 19.6834 25.5921 19.3096C25.5921 18.9359 26.4661 18.1887 26.4661 18.1887V19.0607C26.4661 19.1653 26.4415 19.3087 26.3994 19.4783C26.3901 19.5158 26.3781 19.5569 26.3645 19.6004C25.9934 20.1501 25.1585 20.5096 24.579 20.0741C24.4522 19.9792 24.3619 19.8428 24.2905 19.7013C23.7932 18.7208 24.6613 17.3455 24.0137 16.3759C23.6084 15.7692 23.7096 14.9607 19.15 13.2423C14.59 11.5238 14.5897 5.55977 14.5897 5.55977L14.995 4.6507C14.995 4.6507 13.7791 3.53871 13.8803 3.03336C13.9816 2.52804 15.2987 2.42696 15.2987 2.42696C15.2987 2.42696 14.1841 1.01174 13.2725 1.41602C12.3607 1.82029 12.2591 3.03336 12.2591 3.03336V4.3475C12.2591 4.3475 10.8417 3.23522 10.031 2.1227C9.22027 1.01015 8.40983 0.3032 8.30852 0C8.53686 0.683411 8.69095 1.6759 8.91824 2.44807C9.30791 3.77237 10.1258 4.93946 10.7406 6.1662C10.8419 6.36832 8.5114 5.35738 7.70099 4.54883C6.89054 3.7403 6.38376 3.53788 6.18114 3.13364C5.97855 2.72936 6.99185 5.35765 7.49837 6.36886C8.00489 7.38006 9.82996 9.5025 9.82996 9.5025C9.82996 9.5025 7.39653 8.89557 6.18061 8.39021C4.96469 7.88489 3.74877 7.07607 3.74877 7.07607C4.77309 9.30572 6.80397 10.5645 8.84962 11.73C8.95681 11.7912 10.3236 12.7113 10.4359 12.6358C8.70304 13.7882 6.60646 13.6077 4.6356 13.3783C3.71342 13.2714 2.69368 13.1853 1.82348 12.838C0.810713 12.4329 0 12.0292 0 12.0292C0.0125808 12.041 0.0251951 12.0524 0.0380414 12.0637C1.03179 12.9575 2.18929 13.6992 3.37732 14.3045C5.51167 15.3935 7.82746 15.7403 10.1676 16.1289C10.248 16.1425 11.6036 16.4562 11.6518 16.3759C10.8307 17.7415 4.24646 19.7956 2.36884 19.869C3.90555 20.0662 5.43665 20.2769 6.98325 20.3905C8.76305 20.5213 10.7173 20.6816 12.4633 20.2172C15.5029 19.4086 14.3885 19.712 14.3885 19.712C14.2352 19.7535 13.8392 20.6404 13.7399 20.7815C13.2284 21.5115 12.6286 22.1866 11.9123 22.7201C10.2588 23.9519 8.51114 25.1097 6.58691 25.8775C6.52527 25.9021 6.47488 25.9233 6.447 25.9798C6.73698 26.172 7.32765 26.0654 7.65701 26.0505C10.541 25.9214 12.8769 24.8279 15.3276 23.4245C15.6762 23.2243 16.126 23.0324 16.4154 22.744L16.7191 22.4409C16.2401 23.3368 15.8883 24.323 15.6231 25.3C15.1188 27.1492 15.2021 29.0247 15.2732 30.9231C15.2901 31.3802 15.2908 31.8393 15.2968 32.2967C15.2981 32.4229 15.3203 32.5473 15.3203 32.6738C15.6871 32.1683 15.9228 31.4672 16.2046 30.8979C16.4994 30.3057 16.7965 29.7152 17.1059 29.1303C17.5553 28.2795 17.9928 27.3066 18.6441 26.5849C19.5553 25.5741 20.1637 24.8668 20.1637 24.8668C20.1637 24.8668 20.265 30.8308 20.8728 32.7512L21.4806 34.6718C21.53 32.9009 21.5287 31.0101 22.0791 29.3102C22.3914 28.3476 22.9567 27.433 23.5071 26.5849C23.7942 27.3119 24.0578 28.0518 24.2869 28.7993C24.6925 30.1225 24.5617 31.2206 24.2374 32.5517C24.0498 33.3248 23.8659 34.1576 23.5071 34.874C23.1018 35.6826 24.9255 33.7619 25.2296 33.2567C25.5333 32.7512 26.8505 30.224 26.7492 29.1124C26.648 28.0007 27.4586 29.0111 27.6604 29.8201C27.8622 30.6287 28.2682 32.0441 27.1539 34.1666C26.0395 36.2894 22.2912 40.3335 22.2912 40.3335L25.0268 38.5141L23.3043 43.467L26.4452 39.8282L24.9252 45.5902C24.9252 45.5902 27.3331 41.6423 27.4586 41.1421C27.5459 40.7932 28.4637 47.0717 28.7134 48.7961C28.9627 47.0717 29.8805 40.7932 29.9681 41.1421C30.0936 41.6423 32.5012 45.5902 32.5012 45.5902L30.9812 39.8282L34.1224 43.467L32.4 38.5141L35.1355 40.3335C35.1355 40.3335 31.3869 36.29 30.2722 34.1672C29.1575 32.0444 29.5631 30.6294 29.7656 29.8204C29.9681 29.0118 30.7791 28.001 30.6768 29.1127C30.5749 30.2247 31.8927 32.7518 32.1968 33.257C32.5005 33.7626 34.3242 35.6832 33.9193 34.8746C33.5601 34.1583 33.3772 33.3254 33.1887 32.5523C32.8647 31.2212 32.7332 30.1231 33.1392 28.8C33.3682 28.0515 33.6318 27.3125 33.9193 26.5853C34.4693 27.4337 35.0349 28.3469 35.347 29.3105C35.8973 31.0108 35.896 32.9015 35.9455 34.6725L36.5533 32.7518C37.1611 30.8312 37.2623 24.8671 37.2623 24.8671C37.2623 24.8671 37.8701 25.5745 38.7823 26.5856C39.4332 27.3076 39.8707 28.2802 40.3202 29.1306C40.6292 29.7155 40.928 30.307 41.2214 30.8986C41.5036 31.4675 41.7393 32.1689 42.1061 32.6745C42.1061 32.5477 42.128 32.4235 42.1296 32.2974C42.1356 31.8396 42.1363 31.3805 42.1532 30.9238C42.2239 29.0254 42.3072 27.1499 41.803 25.3006C41.5368 24.3237 41.1866 23.3372 40.7069 22.4412L41.011 22.7446C41.3001 23.0331 41.7489 23.2256 42.0984 23.4248C44.5492 24.8283 46.8851 25.922 49.769 26.0511C50.0983 26.0658 50.6892 26.1726 50.9793 25.9801C50.9524 25.9237 50.901 25.9028 50.8392 25.8782C48.9149 25.1101 47.1676 23.9529 45.5138 22.7207C44.7975 22.186 44.1977 21.5118 43.6861 20.7818C43.5869 20.6404 43.1912 19.7535 43.0375 19.7123C43.0375 19.7123 41.9228 19.4092 44.9628 20.2179C46.7088 20.6822 48.663 20.5219 50.4429 20.3911C51.9894 20.2773 53.5207 20.0668 55.0573 19.8693C53.1788 19.7963 46.5946 17.7422 45.7734 16.3766C45.8225 16.4562 47.1785 16.1425 47.2589 16.1289Z" fill="white" />
	<path d="M79.5578 16.1242L80.7178 26.8479C80.7651 27.274 80.7888 27.6528 80.7888 27.9606C80.7888 29.0021 80.4811 29.3572 78.8476 29.4046V29.807C79.7472 29.7833 81.2386 29.7597 82.7773 29.7597C84.316 29.7597 85.9021 29.7833 86.9437 29.807V29.4046C85.0972 29.3336 84.8842 28.7417 84.6711 26.8479L83.6058 17.1895C83.5822 16.9528 83.5585 16.5977 83.5585 16.361C83.5585 14.988 83.9136 14.3488 85.8311 14.3488V13.9464C84.7185 13.97 83.7005 13.97 82.801 13.97C81.3569 13.97 80.197 13.9464 79.4631 13.9227L76.149 23.5574L72.7164 13.9227C71.9352 13.9464 70.7753 13.97 69.568 13.97C68.3607 13.97 67.106 13.97 66.1828 13.9464V14.3488C68.0056 14.3488 68.4317 14.988 68.4317 16.361C68.4317 16.6214 68.408 16.9054 68.3844 17.1895L67.1297 26.919C66.893 28.6707 66.4432 29.3809 64.7388 29.4283V29.807C65.6147 29.7833 66.4905 29.7597 67.4848 29.7597C68.479 29.7597 69.5443 29.7833 70.7753 29.807V29.4046C68.6448 29.3336 68.1003 29.0732 68.1003 27.7475C68.1003 27.4634 68.124 27.061 68.1713 26.6822L69.3313 16.0532L74.5156 29.8544H74.6813L79.5578 16.1242ZM98.4879 28.9548V28.7181L98.3222 28.6944C97.8488 28.6234 97.7304 28.363 97.7304 27.6765V23.297C97.7304 20.7877 97.7778 19.6041 97.8251 18.8229L97.7304 18.7756C96.5231 19.1543 94.8187 19.5331 93.3036 19.6515V19.9355L93.5404 20.0066C94.2032 20.1959 94.2742 20.5747 94.2742 20.9771V28.1736C94.0138 28.2209 93.5877 28.221 93.422 28.221C91.907 28.221 91.5519 27.3214 91.5519 25.1198V23.297C91.5519 20.7877 91.5992 19.6041 91.6466 18.8229L91.5519 18.7756C90.3446 19.1543 88.6165 19.5331 87.1014 19.6515V19.9355L87.3381 20.0066C88.001 20.1959 88.072 20.5747 88.072 20.9771V26.9426C88.072 28.6944 89.0189 30.0437 90.6286 30.0437C91.7886 30.0437 93.3036 29.1915 94.2742 28.3867C94.2505 29.0495 94.2032 29.5703 94.1322 29.9964L94.2269 30.0437C95.2921 29.6887 97.257 29.2625 98.4879 28.9548ZM104.546 29.4519L104.404 29.4283C103.742 29.3099 103.742 29.1915 103.742 27.3451V16.3373C103.742 14.3961 103.813 12.7864 103.86 12.2893L103.742 12.2419C102.7 12.6444 100.569 13.3072 99.3858 13.5676V13.686L100.001 14.5618C100.285 14.9643 100.285 15.272 100.285 15.5798V27.3451C100.285 29.1915 100.285 29.3099 99.6226 29.4283L99.4805 29.4519V29.807C100.001 29.7833 101.019 29.7597 102.013 29.7597C103.031 29.7597 104.026 29.7833 104.546 29.807V29.4519ZM109.337 30.0437C111.16 30.0437 112.675 28.7891 113.503 27.3924L113.409 27.274C112.722 27.6765 112.107 27.7712 111.491 27.7712C110.521 27.7712 109.669 27.6291 109.669 26.6586V20.338L112.556 20.3853C112.84 20.1486 113.267 19.32 113.267 18.9176L109.669 19.036C109.669 18.3258 109.763 17.0475 109.811 16.645L109.669 16.574C108.532 17.6866 106.567 19.1543 105.265 19.9355V20.0302L106.236 21.2375C106.212 22.3975 106.212 24.6937 106.212 27.6291C106.212 29.0732 107.538 30.0437 109.337 30.0437ZM118.633 15.201C118.633 14.0884 117.757 13.2835 116.739 13.2835C115.721 13.2835 114.845 14.0884 114.845 15.201C114.845 16.3136 115.721 17.1185 116.739 17.1185C117.757 17.1185 118.633 16.3136 118.633 15.201ZM119.154 29.4519L119.012 29.4283C118.349 29.3099 118.349 29.1915 118.349 27.3451V22.2554C118.349 20.3143 118.396 19.1543 118.444 18.6572L118.325 18.6099C117.331 19.0833 115.295 19.8645 114.112 20.2196V20.338L114.609 21.1902C114.893 21.64 114.893 21.9004 114.893 22.2081V27.3451C114.893 29.1915 114.893 29.3099 114.23 29.4283L114.088 29.4519V29.807C114.609 29.7833 115.627 29.7597 116.621 29.7597C117.639 29.7597 118.633 29.7833 119.154 29.807V29.4519ZM120.035 24.8358C120.035 27.9605 122.19 30.0437 125.172 30.0437C127.113 30.0437 129.102 28.6707 129.765 26.6349L129.646 26.5639C128.984 27.3924 128.108 27.7238 127.255 27.7238C124.912 27.7238 123.42 25.9484 123.42 23.1077C123.42 21.0718 124.438 19.4621 125.764 19.4621C127.066 19.4621 126.522 21.8767 128.25 21.8767C128.889 21.8767 129.528 21.3322 129.528 20.6457C129.528 19.2964 127.729 18.6809 126.285 18.6809C123.113 18.6809 120.035 21.2139 120.035 24.8358ZM136.507 18.6809C133.358 18.6809 130.447 21.0482 130.447 24.4333C130.447 27.7712 133.358 30.0437 136.507 30.0437C139.679 30.0437 142.591 27.6765 142.591 24.2913C142.591 20.9535 139.679 18.6809 136.507 18.6809ZM136.507 29.5229C135.063 29.5229 134.305 27.1083 134.305 24.1493C134.305 21.0481 135.063 19.2017 136.507 19.2017C137.974 19.2017 138.732 21.6163 138.732 24.5754C138.732 27.6765 137.974 29.5229 136.507 29.5229ZM148.156 15.201C148.156 14.0884 147.28 13.2835 146.262 13.2835C145.244 13.2835 144.368 14.0884 144.368 15.201C144.368 16.3136 145.244 17.1185 146.262 17.1185C147.28 17.1185 148.156 16.3136 148.156 15.201ZM148.677 29.4519L148.535 29.4283C147.872 29.3099 147.872 29.1915 147.872 27.3451V22.2554C147.872 20.3143 147.919 19.1543 147.967 18.6572L147.848 18.6099C146.854 19.0833 144.818 19.8645 143.635 20.2196V20.338L144.132 21.1902C144.416 21.64 144.416 21.9004 144.416 22.2081V27.3451C144.416 29.1915 144.416 29.3099 143.753 29.4283L143.611 29.4519V29.807C144.132 29.7833 145.15 29.7597 146.144 29.7597C147.162 29.7597 148.156 29.7833 148.677 29.807V29.4519ZM161.11 29.4519L160.968 29.4283C160.306 29.3099 160.306 29.1915 160.306 27.3451V21.782C160.306 19.9829 159.146 18.6809 157.631 18.6809C156.4 18.6809 154.908 19.7698 153.914 20.551C153.938 19.9829 153.961 19.0833 154.009 18.6572L153.89 18.6099C152.896 19.0833 150.86 19.8645 149.677 20.2196V20.338L150.174 21.1902C150.458 21.64 150.458 21.9004 150.458 22.2081V27.3451C150.458 29.1915 150.458 29.3099 149.795 29.4283L149.653 29.4519V29.807C150.174 29.7833 151.192 29.7597 152.186 29.7597C153.204 29.7597 154.198 29.7833 154.719 29.807V29.4519L154.577 29.4283C153.914 29.3099 153.914 29.1915 153.914 27.3451V20.8588C154.269 20.7167 154.648 20.6931 154.885 20.6931C156.329 20.6931 156.849 22.0661 156.849 24.1729V27.3451C156.849 29.1915 156.849 29.3099 156.187 29.4283L156.044 29.4519V29.807C156.565 29.7833 157.583 29.7597 158.577 29.7597C159.595 29.7597 160.59 29.7833 161.11 29.807V29.4519ZM176.744 27.9369C173.524 27.9369 171.015 25.1909 171.015 21.0008C171.015 16.9765 173.264 14.5855 176.081 14.5855C177.501 14.5855 178.543 15.1773 179.3 16.0532C179.963 16.7871 180.555 17.9234 180.981 19.0833L181.218 18.9413L180.673 14.8933C179.135 14.1358 177.762 13.7096 175.939 13.7096C171.181 13.7096 166.801 16.9528 166.801 22.1844C166.801 27.1083 170.802 30.0437 175.11 30.0437C177.312 30.0437 179.442 29.2152 180.958 27.7238L181.952 24.9068L181.691 24.7884C180.602 27.0136 178.922 27.9369 176.744 27.9369ZM182.757 27.4161C182.757 28.9548 183.799 29.949 185.267 29.949C186.521 29.949 187.35 28.9075 187.894 28.221C188.321 29.2625 189.149 29.9727 190.546 29.9727C191.871 29.9727 192.913 28.7417 193.031 27.6765L192.96 27.6291C192.771 27.7712 192.534 27.9132 192.179 27.9132C191.564 27.9132 191.28 27.6055 191.28 26.8479C191.28 25.4039 191.398 22.7526 191.398 21.0955C191.398 19.2727 189.315 18.6809 187.965 18.6809C185.551 18.6809 182.947 21.4032 182.947 22.9893C182.947 23.1787 183.018 23.2497 183.113 23.2497C183.468 23.2497 184.888 22.9656 185.219 22.8709C185.101 22.4448 185.006 21.853 185.006 21.3322C185.006 20.6694 185.29 20.338 185.977 20.338C187.374 20.338 187.942 21.2375 187.942 22.0187V23.9362L184.77 25.2855C183.515 25.83 182.757 26.1851 182.757 27.4161ZM187.918 24.3386L187.894 27.9606C187.752 28.0079 187.634 28.0316 187.468 28.0316C186.687 28.0316 186.143 27.5344 186.143 26.5165C186.143 25.8063 186.474 25.4276 186.924 25.0962L187.918 24.3386ZM199.55 35.2517L198.532 35.1807C197.893 35.1333 197.869 35.015 197.869 33.1685V29.665C198.603 29.9254 199.148 30.0437 199.905 30.0437C202.864 30.0437 205.965 27.7712 205.965 23.6048C205.965 20.6694 204.237 18.6809 201.704 18.6809C200.023 18.6809 198.65 19.9355 197.869 20.5984C197.869 20.1012 197.917 19.107 197.964 18.6572L197.846 18.6099C196.851 19.0833 194.815 19.8882 193.632 20.2196V20.338L194.129 21.1902C194.413 21.64 194.413 21.9004 194.413 22.2081V33.1922C194.413 35.0387 194.413 35.157 193.75 35.2754L193.608 35.2991V35.6541C194.271 35.6305 195.123 35.6068 196.26 35.6068C197.396 35.6068 198.792 35.6305 199.55 35.6541V35.2517ZM197.869 26.1614V20.8114C198.224 20.7167 198.65 20.6931 199.006 20.6931C200.947 20.6931 202.225 22.4448 202.225 24.9541C202.225 27.6765 201.231 29.3336 199.716 29.3336C198.556 29.3336 197.869 28.505 197.869 26.1614ZM211.526 15.201C211.526 14.0884 210.65 13.2835 209.632 13.2835C208.614 13.2835 207.738 14.0884 207.738 15.201C207.738 16.3136 208.614 17.1185 209.632 17.1185C210.65 17.1185 211.526 16.3136 211.526 15.201ZM212.047 29.4519L211.905 29.4283C211.242 29.3099 211.242 29.1915 211.242 27.3451V22.2554C211.242 20.3143 211.289 19.1543 211.337 18.6572L211.218 18.6099C210.224 19.0833 208.188 19.8645 207.005 20.2196V20.338L207.502 21.1902C207.786 21.64 207.786 21.9004 207.786 22.2081V27.3451C207.786 29.1915 207.786 29.3099 207.123 29.4283L206.981 29.4519V29.807C207.502 29.7833 208.52 29.7597 209.514 29.7597C210.532 29.7597 211.526 29.7833 212.047 29.807V29.4519ZM216.834 30.0437C218.657 30.0437 220.172 28.7891 221.001 27.3924L220.906 27.274C220.219 27.6765 219.604 27.7712 218.988 27.7712C218.018 27.7712 217.166 27.6291 217.166 26.6586V20.338L220.054 20.3853C220.338 20.1486 220.764 19.32 220.764 18.9176L217.166 19.036C217.166 18.3258 217.26 17.0475 217.308 16.645L217.166 16.574C216.029 17.6866 214.064 19.1543 212.762 19.9355V20.0302L213.733 21.2375C213.709 22.3975 213.709 24.6937 213.709 27.6291C213.709 29.0732 215.035 30.0437 216.834 30.0437ZM221.606 27.4161C221.606 28.9548 222.647 29.949 224.115 29.949C225.37 29.949 226.198 28.9075 226.743 28.221C227.169 29.2625 227.997 29.9727 229.394 29.9727C230.72 29.9727 231.761 28.7417 231.88 27.6765L231.809 27.6291C231.619 27.7712 231.383 27.9132 231.027 27.9132C230.412 27.9132 230.128 27.6055 230.128 26.8479C230.128 25.4039 230.246 22.7526 230.246 21.0955C230.246 19.2727 228.163 18.6809 226.814 18.6809C224.399 18.6809 221.795 21.4032 221.795 22.9893C221.795 23.1787 221.866 23.2497 221.961 23.2497C222.316 23.2497 223.736 22.9656 224.068 22.8709C223.949 22.4448 223.855 21.853 223.855 21.3322C223.855 20.6694 224.139 20.338 224.825 20.338C226.222 20.338 226.79 21.2375 226.79 22.0187V23.9362L223.618 25.2855C222.363 25.83 221.606 26.1851 221.606 27.4161ZM226.766 24.3386L226.743 27.9606C226.601 28.0079 226.482 28.0316 226.317 28.0316C225.535 28.0316 224.991 27.5344 224.991 26.5165C224.991 25.8063 225.322 25.4276 225.772 25.0962L226.766 24.3386ZM237.474 29.4519L237.332 29.4283C236.669 29.3099 236.669 29.1915 236.669 27.3451V16.3373C236.669 14.3961 236.74 12.7864 236.788 12.2893L236.669 12.2419C235.628 12.6444 233.497 13.3072 232.314 13.5676V13.686L232.929 14.5618C233.213 14.9643 233.213 15.272 233.213 15.5798V27.3451C233.213 29.1915 233.213 29.3099 232.55 29.4283L232.408 29.4519V29.807C232.929 29.7833 233.947 29.7597 234.941 29.7597C235.959 29.7597 236.954 29.7833 237.474 29.807V29.4519Z" fill="white" />
</svg>
