<svg width="156" height="40" viewBox="0 0 156 40" fill="none" xmlns="http://www.w3.org/2000/svg">
	<path opacity="0.995" fill-rule="evenodd" clip-rule="evenodd" d="M18.1321 0C19.3774 0 20.6226 0 21.8679 0C29.8652 1.05879 35.4689 5.2805 38.6788 12.6651C40.9677 19.0358 40.3602 25.1102 36.8565 30.8884C33.2545 36.191 28.2583 39.2282 21.8679 40C20.6226 40 19.3774 40 18.1321 40C10.781 39.0675 5.39002 35.3318 1.959 28.7927C0.906434 26.5856 0.253434 24.2774 0 21.8679C0 20.6226 0 19.3774 0 18.1321C0.932446 10.781 4.66821 5.39002 11.2073 1.959C13.4144 0.906434 15.7226 0.253434 18.1321 0Z" fill="#D6D6D6" />
	<path fill-rule="evenodd" clip-rule="evenodd" d="M19.9544 6.74265C22.8785 6.54811 25.4602 7.38334 27.6992 9.24835C29.3595 10.7097 30.7262 12.3953 31.7995 14.3053C34.3804 15.823 35.8079 18.0706 36.0819 21.0479C35.9568 21.0622 35.8353 21.047 35.7175 21.0023C35.1055 20.3376 34.3463 20.0186 33.4396 20.0456C33.3335 25.295 31.0556 29.2889 26.6058 32.0274C21.4278 34.7353 16.5075 34.3404 11.845 30.8429C10.8428 29.9621 9.90125 29.0206 9.02043 28.0183C7.72093 27.9902 6.59717 27.5346 5.64913 26.6515C4.79668 25.9252 4.17406 25.0596 3.78125 24.0547C4.30951 23.9864 4.84103 23.9105 5.37578 23.8269C6.00622 23.5661 6.65923 23.3991 7.33478 23.3258C7.84024 23.3037 8.28063 23.4555 8.65596 23.7814C8.69041 23.3225 8.82708 22.8973 9.06599 22.5058C9.60139 21.9877 10.1936 21.5472 10.8428 21.1846C11.2264 20.8163 11.5908 20.4367 11.9361 20.0456C12.1975 20.3258 12.3645 20.6598 12.4373 21.0479C12.8421 22.2716 12.9332 23.5169 12.7106 24.7837C12.5662 25.3761 12.3232 25.9228 11.9817 26.4237C11.9194 26.5407 11.9346 26.6471 12.0273 26.7427C13.5453 27.7144 15.1853 28.3826 16.9475 28.7472C20.2328 28.985 21.7667 27.4513 21.5489 24.1458C21.5305 23.9858 21.4849 23.834 21.4122 23.6903C20.3394 23.2517 19.246 23.2062 18.132 23.5536C17.6366 23.6631 17.1507 23.7998 16.6742 23.9636C16.431 23.963 16.3095 23.8414 16.3097 23.5991C16.8011 21.9086 17.8642 20.7696 19.4988 20.1823C17.4523 18.7129 15.6756 16.9665 14.1685 14.9431C13.5295 14.0302 12.9828 13.0583 12.5284 12.0274C12.3055 11.4396 12.1689 10.8322 12.1184 10.2051C12.0925 9.42675 12.4265 8.86484 13.1207 8.51942C15.3901 7.85345 17.668 7.26119 19.9544 6.74265Z" fill="#020201" />
	<path fill-rule="evenodd" clip-rule="evenodd" d="M21.959 10.2961C23.7827 10.3879 25.3014 11.1168 26.5148 12.4829C26.1187 12.795 25.6631 12.9166 25.1481 12.8474C23.7033 12.868 22.534 12.3213 21.6401 11.2073C21.5108 10.8048 21.6172 10.5011 21.959 10.2961Z" fill="#FAFAFA" />
	<path opacity="0.973" fill-rule="evenodd" clip-rule="evenodd" d="M62.2325 10.8428C65.4755 10.4918 68.3609 11.327 70.8885 13.3485C73.5766 15.9768 74.5637 19.1508 73.8498 22.8701C72.7576 27.0298 70.1001 29.5354 65.8772 30.3872C62.5605 30.9625 59.5537 30.264 56.8567 28.2915C54.0287 25.7307 52.9201 22.5568 53.5309 18.7699C54.6831 14.2006 57.5836 11.5582 62.2325 10.8428ZM62.597 14.0318C65.9049 13.673 68.3194 14.9487 69.8407 17.8587C70.8074 20.5313 70.4429 22.9915 68.7473 25.2391C67.0492 26.9391 64.9991 27.6225 62.597 27.2893C59.0499 26.5206 57.1972 24.3187 57.0389 20.6833C57.2106 17.0501 59.0633 14.8329 62.597 14.0318Z" fill="#FEFFFE" />
	<path opacity="0.968" fill-rule="evenodd" clip-rule="evenodd" d="M119.362 10.8428C122.135 10.5254 124.686 11.1177 127.016 12.6196C127.546 13.0432 128.032 13.514 128.474 14.0319C127.717 14.7583 126.958 15.4872 126.196 16.2187C124.084 14.1416 121.593 13.5189 118.725 14.3508C115.455 15.6468 113.983 18.0613 114.305 21.5946C114.777 24.5568 116.463 26.4247 119.362 27.1982C122.009 27.7432 124.272 27.0598 126.15 25.1481C126.942 25.8039 127.702 26.5023 128.428 27.2438C128.489 27.3045 128.489 27.3652 128.428 27.426C126.376 29.5785 123.856 30.6111 120.866 30.5239C117.257 30.5869 114.371 29.1898 112.21 26.3326C109.94 22.518 109.97 18.7215 112.301 14.9431C114.096 12.6254 116.449 11.2586 119.362 10.8428Z" fill="#FEFFFE" />
	<path opacity="0.974" fill-rule="evenodd" clip-rule="evenodd" d="M155.809 18.1322C155.809 22.1716 155.809 26.2112 155.809 30.2506C154.594 30.2506 153.378 30.2506 152.164 30.2506C152.164 28.6105 152.164 26.9704 152.164 25.3303C148.884 25.3303 145.604 25.3303 142.323 25.3303C142.323 26.9704 142.323 28.6105 142.323 30.2506C141.109 30.2506 139.893 30.2506 138.679 30.2506C138.663 26.5451 138.679 22.8397 138.724 19.1344C138.724 16.4174 139.742 14.185 141.777 12.4374C143.907 11.0391 146.246 10.5229 148.793 10.8884C152.939 11.5579 155.278 13.9724 155.809 18.1322ZM146.241 14.0319C147.8 13.8119 149.227 14.1308 150.524 14.9887C151.527 15.8999 152.058 17.0389 152.118 18.4055C152.164 19.7111 152.179 21.0172 152.164 22.3235C148.884 22.3235 145.604 22.3235 142.323 22.3235C142.308 21.0779 142.323 19.8327 142.369 18.5878C142.538 16.0958 143.829 14.5772 146.241 14.0319Z" fill="#FEFFFE" />
	<path opacity="0.975" fill-rule="evenodd" clip-rule="evenodd" d="M84.8291 11.1162C87.9879 11.101 91.1462 11.1162 94.3052 11.1617C99.5189 11.9709 101.63 14.9625 100.638 20.1367C99.9681 21.9605 98.738 23.2512 96.9476 24.0091C98.3863 26.0513 99.8141 28.1014 101.23 30.1595C99.9252 30.2657 98.6186 30.2809 97.312 30.205C96.0364 28.3827 94.7608 26.5604 93.4851 24.738C91.815 24.6925 90.1445 24.6773 88.4737 24.6925C88.4737 26.5452 88.4737 28.3979 88.4737 30.2506C87.2589 30.2506 86.044 30.2506 84.8291 30.2506C84.8291 23.8724 84.8291 17.4943 84.8291 11.1162ZM88.4737 14.123C89.9623 14.1078 91.4505 14.123 92.9384 14.1686C96.0091 14.2015 97.4214 15.7352 97.1753 18.7699C96.7252 20.5242 95.5863 21.4809 93.7585 21.6401C91.9972 21.6857 90.2356 21.7009 88.4737 21.6857C88.4737 19.1647 88.4737 16.6439 88.4737 14.123Z" fill="#FEFFFE" />
	<path fill-rule="evenodd" clip-rule="evenodd" d="M14.9432 11.8451C17.2506 11.8449 19.3767 12.4676 21.3213 13.713C24.5022 15.6787 26.9168 18.3363 28.565 21.6856C30.1599 26.3773 28.6565 29.6424 24.0548 31.4806C19.8356 32.9009 16.0087 32.2023 12.5742 29.385C12.1967 28.9993 11.8018 28.6348 11.3896 28.2916C12.7072 29.0404 14.1043 29.6479 15.581 30.1139C17.6814 30.7476 19.6252 30.4439 21.4124 29.2027C22.2119 28.47 22.7435 27.5739 23.007 26.5148C23.4719 23.8178 22.8037 21.4487 21.0024 19.4077C19.9242 18.5118 18.846 17.6158 17.7678 16.7198C16.5767 15.4753 15.5289 14.1237 14.6243 12.6651C14.5189 12.2929 14.6253 12.0196 14.9432 11.8451Z" fill="#FCFCFC" />
</svg>
