<svg xmlns="http://www.w3.org/2000/svg" version="1.0" viewBox="0 0 252 66">
	<path fill="#BFBFBF" fill-opacity=".1" d="M89 19.4c0 .2.8 1 1.8 1.7 1.5 1.3 1.6 1.2.3-.4S89 18.6 89 19.4m6.1 13.2c0 1.1.3 1.4.6.6.3-.7.2-1.6-.1-1.9-.3-.4-.6.2-.5 1.3m-5.2 12.1c-1.3 1.6-1.2 1.7.4.4s2.1-2.1 1.3-2.1c-.2 0-1 .8-1.7 1.7" />
	<path fill="#BFBFBF" fill-opacity=".4" d="M77.3 16.7c.9.2 2.5.2 3.5 0 .9-.3.1-.5-1.8-.5s-2.7.2-1.7.5" />
	<path fill="#BFBFBF" fill-opacity=".5" d="M66 42.4c0 .2.8 1 1.8 1.7 1.5 1.3 1.6 1.2.3-.4S66 41.6 66 42.4m11.8 6.3c.6.2 1.8.2 2.5 0 .6-.3.1-.5-1.3-.5s-1.9.2-1.2.5" />
	<path fill="#BFBFBF" fill-opacity=".6" d="M89.9 43.7c-1.3 1.6-1.2 1.7.4.4s2.1-2.1 1.3-2.1c-.2 0-1 .8-1.7 1.7" />
	<path fill="#BFBFBF" fill-opacity=".9" d="M77.3 17.7c.9.2 2.5.2 3.5 0 .9-.3.1-.5-1.8-.5s-2.7.2-1.7.5M89.5 22c1 1.1 2 2 2.3 2s-.3-.9-1.3-2-2-2-2.3-2 .3.9 1.3 2m-22.6.7c-1.3 1.6-1.2 1.7.4.4s2.1-2.1 1.3-2.1c-.2 0-1 .8-1.7 1.7m27.3 9.8c0 1.6.2 2.2.5 1.2.2-.9.2-2.3 0-3-.3-.6-.5.1-.5 1.8m-31.1.1c0 1.1.3 1.4.6.6.3-.7.2-1.6-.1-1.9-.3-.4-.6.2-.5 1.3M67.5 43c1 1.1 2 2 2.3 2s-.3-.9-1.3-2-2-2-2.3-2 .3.9 1.3 2m21.9.2-1.9 2.3 2.3-1.9c2.1-1.8 2.7-2.6 1.9-2.6-.2 0-1.2 1-2.3 2.2m-12.1 4.5c.9.2 2.5.2 3.5 0 .9-.3.1-.5-1.8-.5s-2.7.2-1.7.5" />
	<g fill="#BFBFBF" stroke-width="0">
		<path d="M71.2 19.9c-13 8.2-7.3 27.1 8.2 27.1 13.8 0 19.6-16.2 9.2-25.9-3.7-3.5-12.7-4.1-17.4-1.2m16.5 5.8c2.3 2.6 4.3 5.6 4.3 6.6s-.4 1.5-1 1.2c-.5-.3-1 .4-1 1.5 0 1.2-1.5 3.7-3.4 5.6-4.5 4.5-9 4.6-15.7.2-5-3.2-6.4-5.8-3-5.8 1 0 2.4-.7 3.1-1.5 1.6-1.9 3-1 3 2 0 2.4 3 4.2 5 3 1.7-1.1 1.1-2.5-1.1-2.5-1.5 0-1.9-.4-1.5-1.6.3-.9-.3-2.8-1.4-4.4-3.9-5.4-1.9-8.8 5.4-8.9 2.2-.1 3.9 1 7.3 4.6" />
		<path d="M76 27.4c0 .1 1.4 1.7 3 3.4 1.7 1.8 3 2.8 3 2.3s-.7-1.4-1.5-2.1c-.9-.7-1.3-1.5-1-1.8s1.5.3 2.8 1.4c1.3 1 1 .7-.5-.9-2.4-2.2-5.8-3.7-5.8-2.3m8.5 11.7c-.4.6-1.2.8-1.9.6-.6-.3-2 .1-3.1.9-1.7 1.2-1.7 1.4-.2 1.4.9 0 1.7-.4 1.7-1 0-.5.6-.7 1.3-.4.8.3 2-.2 2.7-1.1.7-.8 1-1.5.7-1.5s-.9.5-1.2 1.1" />
	</g>
	<path fill="gray" d="M80.2 22c2.1.4 4.6 1.3 5.6 2.1s.7.4-.6-.9c-1.5-1.4-3.4-2.2-5.5-2.1-3.2.1-3.2.1.5.9m1.8 4c0 .5.5 1 1.1 1 .5 0 .7-.5.4-1-.3-.6-.8-1-1.1-1-.2 0-.4.4-.4 1m-7 .9c0 .6.5 1.3 1.2 1.7.6.4.8.3.4-.4-.3-.5 0-1.3.6-1.5.8-.3.6-.6-.4-.6-1-.1-1.8.3-1.8.8m7.5 3.1c1 1.1 2 2 2.3 2s-.3-.9-1.3-2-2-2-2.3-2 .3.9 1.3 2m-7.5.4c0 .2.8 1 1.8 1.7 1.5 1.3 1.6 1.2.3-.4S75 29.6 75 30.4m3 0c0 .2.8 1 1.8 1.7 1.5 1.3 1.6 1.2.3-.4S78 29.6 78 30.4m-5.1 4.8c.4 1.7 1.2 3.3 1.9 3.4s.8 0 .2-.3c-.5-.2-1-1.5-1-2.8s-.4-2.6-.9-2.9c-.4-.3-.5.9-.2 2.6m-3.8 4.1c.2.1 1.5 1.1 2.9 2.2l2.5 2-1.9-2.3C71.5 40 70.2 39 69.7 39q-.9 0-.6.3" />
	<g fill="#404040" stroke-width="0">
		<path d="M80.9 24.2c-.5 1.8-.6 3.8-.1 3.4.7-.8 1.2-3.6.6-3.6-.2 0-.4.1-.5.2m-5.5 5.7c2.1 2.3 2.6 2.6 2.6 1.1 0-.5-1-1.5-2.2-2.1-2.3-1.2-2.3-1.2-.4 1m-6.7 4.8c-2.3 1.2-2.6 1.7-1.6 2.9.6.8 1.6 1.4 2.2 1.4s.2-.7-.9-1.5c-1.6-1.2-1.6-1.4-.3-1.5.9 0 2.2-.7 2.9-1.5 1.5-1.8 1.4-1.7-2.3.2m11.8 1.2c-.3.5-.1 1.2.5 1.6.5.3 1-.1 1-.9 0-1.8-.6-2.1-1.5-.7m-7.1 4.5c.3 2.4 4.6 4.1 8.1 3.2 4-1 2.9-2.2-1.7-1.9-2.4.1-3.5 0-2.5-.3 2.6-.8 2-2.1-1.3-2.6-2.5-.4-2.9-.1-2.6 1.6" />
		<path d="M85.9 40.7c-1.3 1.6-1.2 1.7.4.4s2.1-2.1 1.3-2.1c-.2 0-1 .8-1.7 1.7" />
	</g>
	<g stroke-width="0">
		<path d="M75.8 23.2c-3.2 1.1-3.4 1.7-1.3 4.4 1.3 1.6 1.4 1.6.9.1-1-2.8 3.1-2.1 7 1.3 4.3 3.8 5.3 7.3 3 10.9l-1.7 2.6 2.6-2.4c1.4-1.3 2.9-3.6 3.2-5.2.4-1.6 1.1-2.7 1.6-2.3 1.6.9 1-.2-2.2-4.2-4.8-6.1-7.7-7.2-13.1-5.2m8.2 2.9c0 1.1-2.7 1.2-3.4 0-.3-.4-.3-1.1 0-1.4.8-.8 3.4.3 3.4 1.4" />
		<path d="M77.7 32.9c-.3 1.3.1 2.1 1.4 2.4 2.2.6 2.6-1.5.5-3.2-1.1-.9-1.5-.7-1.9.8m-6.1.9c-.4.7-1.7 1.7-2.7 2.1-1.8.6-1.7.9 1.1 3 1.8 1.2 3.2 2.1 3.4 1.9.1-.1-.1-2.1-.4-4.3-.3-2.7-.8-3.6-1.4-2.7m8 4.9c-.6 1.4-.5 1.5.5.6.7-.7 1-1.5.7-1.8s-.9.2-1.2 1.2" />
	</g>
	<path fill="#FFF" fill-opacity=".1" d="M113.8 24.7c.7.3 1.6.2 1.9-.1.4-.3-.2-.6-1.3-.5-1.1 0-1.4.3-.6.6m46 0c.7.3 1.6.2 1.9-.1.4-.3-.2-.6-1.3-.5-1.1 0-1.4.3-.6.6m21 0c.7.3 1.6.2 1.9-.1.4-.3-.2-.6-1.3-.5-1.1 0-1.4.3-.6.6m-67 4c.7.3 1.6.2 1.9-.1.4-.3-.2-.6-1.3-.5-1.1 0-1.4.3-.6.6m20.6.8c-.3.8-.4 2-.1 2.7s.6.3.6-.9c.1-1.2.9-2.4 1.9-2.6 1.6-.4 1.6-.5-.1-.6-1 0-2 .6-2.3 1.4m25.4-.8c.7.3 1.6.2 1.9-.1.4-.3-.2-.6-1.3-.5-1.1 0-1.4.3-.6.6m21 0c.7.3 1.6.2 1.9-.1.4-.3-.2-.6-1.3-.5-1.1 0-1.4.3-.6.6m-46.7 9.9c0 1.1.3 1.4.6.6.3-.7.2-1.6-.1-1.9-.3-.4-.6.2-.5 1.3m45.7-.9c1.2.2 3 .2 4 0 .9-.3-.1-.5-2.3-.4-2.2 0-3 .2-1.7.4M187 41c-.9.6-1 1-.3 1 .6 0 1.5-.5 1.8-1 .8-1.2.4-1.2-1.5 0m-45.2.7c.7.3 1.6.2 1.9-.1.4-.3-.2-.6-1.3-.5-1.1 0-1.4.3-.6.6" />
	<path fill="#FFF" fill-opacity=".2" d="M188.3 36c0 2.5.2 3.5.4 2.2.2-1.2.2-3.2 0-4.5-.2-1.2-.4-.2-.4 2.3m-52.5-2.3c.7.3 1.6.2 1.9-.1.4-.3-.2-.6-1.3-.5-1.1 0-1.4.3-.6.6" />
	<path fill="#FFF" fill-opacity=".4" d="M174.3 35.5c0 2.7.2 3.8.4 2.2.2-1.5.2-3.7 0-5-.2-1.2-.4 0-.4 2.8m-39.5 1.2c.6.2 1.8.2 2.5 0 .6-.3.1-.5-1.3-.5s-1.9.2-1.2.5" />
	<path fill="#FFF" fill-opacity=".5" d="M133.8 25.7c1.2.2 3 .2 4 0 .9-.3-.1-.5-2.3-.4-2.2 0-3 .2-1.7.4m-25.9 2c-1.3 1.6-1.2 1.7.4.4s2.1-2.1 1.3-2.1c-.2 0-1 .8-1.7 1.7m71.9 7c1.2.2 3 .2 4 0 .9-.3-.1-.5-2.3-.4-2.2 0-3 .2-1.7.4m-66 4c.7.3 1.6.2 1.9-.1.4-.3-.2-.6-1.3-.5-1.1 0-1.4.3-.6.6" />
	<path fill="#FFF" fill-opacity=".6" d="M113.8 25.7c.7.3 1.6.2 1.9-.1.4-.3-.2-.6-1.3-.5-1.1 0-1.4.3-.6.6m46 0c.7.3 1.6.2 1.9-.1.4-.3-.2-.6-1.3-.5-1.1 0-1.4.3-.6.6m21 0c.7.3 1.6.2 1.9-.1.4-.3-.2-.6-1.3-.5-1.1 0-1.4.3-.6.6m-67 2c.7.3 1.6.2 1.9-.1.4-.3-.2-.6-1.3-.5-1.1 0-1.4.3-.6.6m21 0c.6.2 1.8.2 2.5 0 .6-.3.1-.5-1.3-.5s-1.9.2-1.2.5m25 0c.7.3 1.6.2 1.9-.1.4-.3-.2-.6-1.3-.5-1.1 0-1.4.3-.6.6m21 0c.7.3 1.6.2 1.9-.1.4-.3-.2-.6-1.3-.5-1.1 0-1.4.3-.6.6m4.3 4.9c0 1.1.3 1.4.6.6.3-.7.2-1.6-.1-1.9-.3-.4-.6.2-.5 1.3m-4 4.1c2.6.3 3.8 1 4.2 2.4.3 1 1.1 1.9 1.9 1.9s.9-.3.2-.8c-.6-.4-1.3-1.5-1.7-2.5-.5-1.2-1.6-1.7-4.4-1.5l-3.8.1z" />
	<path fill="#FFF" fill-opacity=".7" d="M131.3 33c0 4.1.2 5.8.4 3.7.2-2 .2-5.4 0-7.5-.2-2-.4-.3-.4 3.8m4.5 1.7c.7.3 1.6.2 1.9-.1.4-.3-.2-.6-1.3-.5-1.1 0-1.4.3-.6.6" />
	<path fill="#FFF" fill-opacity=".9" d="M117.5 28c2.1 2.4 2.6 2.5 1.9.6-.3-.8-1.3-1.7-2.2-2.1-1.3-.5-1.3-.2.3 1.5m22.7-.7c1 .8 1.4 1.8 1 2.2-.4.5-.1.5.6.1 1.7-1 1.5-1.4-1-2.6-2.1-1-2.1-1-.6.3m22.5-.2c.7.7 1.5 1 1.8.7s-.2-.9-1.2-1.2c-1.4-.6-1.5-.5-.6.5m14.1.9c-2.6 2.4-2.2 3.5.4 1 1.2-1.1 2-2.2 1.7-2.4-.2-.2-1.2.4-2.1 1.4m7.4-.7c1 .8 1.4 1.8 1 2.2-.4.5-.1.5.6.1 1.7-1 1.5-1.4-1-2.6-2.1-1-2.1-1-.6.3m-76.3 1.4c-1.3 1.6-1.2 1.7.4.4s2.1-2.1 1.3-2.1c-.2 0-1 .8-1.7 1.7m25.2 4.7c.1 3.7.4 6.5.6 6.2.7-.7.5-11.7-.2-12.4-.3-.3-.4 2.5-.4 6.2m21.1-5.1c-.8.9-.8 1.7 0 2.7.8 1.3.9 1.2.5-.2-.3-.9-.1-1.9.6-2.1s.9-.7.6-1.1-1.1-.1-1.7.7m-46 4.7c0 1.4.2 1.9.5 1.2.2-.6.2-1.8 0-2.5-.3-.6-.5-.1-.5 1.3m33 .1c.2.7-.3 1.3-.9 1.4-1.5 0-1.9 1.8-.6 2.2 1.3.5 3.4-3.5 2.3-4.2-.6-.4-.9-.1-.8.6m10.9.5c0 1.1.3 1.4.6.6.3-.7.2-1.6-.1-1.9-.3-.4-.6.2-.5 1.3m1.5 2.3c-.3.5.2 1.5 1.2 2.2 1.5 1.2 1.6 1.2.5-.2-.7-.9-1-1.9-.6-2.2.3-.4.4-.7 0-.7-.3 0-.8.4-1.1.9m25.7-.2c1.5.2 3.7.2 5 0 1.2-.2 0-.4-2.8-.4-2.7 0-3.8.2-2.2.4m-72.3.7c0 .2.8 1 1.8 1.7 1.5 1.3 1.6 1.2.3-.4s-2.1-2.1-2.1-1.3m11 1.1c-.7.9-1.1 1.7-.9 2 .3.2 1-.5 1.7-1.5 1.4-2.4 1-2.6-.8-.5m22.7 1.6c.7.7 1.5 1 1.8.7s-.2-.9-1.2-1.2c-1.4-.6-1.5-.5-.6.5" />
	<path fill="#FFF" d="M112.8 26.7c.6.2 1.8.2 2.5 0 .6-.3.1-.5-1.3-.5s-1.9.2-1.2.5m19.2 6.5c0 3.9.3 6.8.6 6.5.4-.3.6-3.3.5-6.6l-.1-6 3.2-.4c3.3-.4 3.2-.4-.4-.5L132 26zm26.8-6.5c.6.2 1.8.2 2.5 0 .6-.3.1-.5-1.3-.5s-1.9.2-1.2.5m21 0c.6.2 1.8.2 2.5 0 .6-.3.1-.5-1.3-.5s-1.9.2-1.2.5m-71.1 2.1c-2.3 2.5-2.1 6.5.4 8.8l2.1 1.9-1.9-3.3c-1.7-3-1.7-3.4-.1-6.2 2-3.4 1.8-3.8-.5-1.2m-28.8 1.5c1.8 2 2.2 3.4 1.9 6.6-.3 3.9-.3 4 1.7 2.7 1.1-.7 2.1-2 2.3-2.8.3-1.8-3.2-6.4-6.1-7.9-2.1-1.1-2.1-1.1.2 1.4m39.9 1.7c.2 2.2 0 4.6-.4 5.3-.5.7-.1.4.9-.6 2-2.3 2.2-4.7.4-7.1-1.1-1.5-1.2-1.2-.9 2.4m21.9-2c.3 1.2-.2 3-1.3 4.3l-1.9 2.2 2.3-1.9c2.2-1.9 2.9-5 1.3-6-.5-.4-.7.3-.4 1.4m44.1 4c.2 3.3.8 6 1.3 6 1.4 0 1.1-8.4-.3-10.3-1.1-1.5-1.2-.7-1 4.3m-32.1-4.3c-1.5 1.4-.6 6.1 1.6 8.1 1.3 1.2 2.7 2.2 3.1 2.2.5 0-.4-1-1.9-2.1-2.2-1.8-2.6-2.8-2.3-5.5.4-3.7.4-3.7-.5-2.7m21.9.9c-1 2.5-.7 9.4.4 9.4.6 0 1-2.5 1-5.5 0-5.7-.3-6.6-1.4-3.9" />
	<path fill="#FFF" fill-opacity=".8" d="M154.1 33.6c0 1.1.3 1.4.6.6.3-.7.2-1.6-.1-1.9-.3-.4-.6.2-.5 1.3m-19.4 1.6c.2.5 1 .8 1.8.8s1.6-.3 1.8-.8c.3-.4-.5-.7-1.8-.7s-2.1.3-1.8.7" />
</svg>
