<svg xmlns="http://www.w3.org/2000/svg" version="1.1" width="223px" height="42px" style="shape-rendering:geometricPrecision; text-rendering:geometricPrecision; image-rendering:optimizeQuality; fill-rule:evenodd; clip-rule:evenodd" xmlns:xlink="http://www.w3.org/1999/xlink">
	<g>
		<path style="opacity:0.984" fill="#686868" d="M 34.5,4.5 C 35.2389,4.36899 35.9056,4.53566 36.5,5C 35.0759,9.21228 32.4092,12.379 28.5,14.5C 27.8313,16.6309 27.1646,18.6309 26.5,20.5C 26.6602,18.8008 26.4935,17.1341 26,15.5C 23.9835,17.684 21.8169,19.684 19.5,21.5C 20.1925,22.5178 20.8592,23.5178 21.5,24.5C 19.9826,24.4894 18.8159,23.8228 18,22.5C 15.7097,23.8281 14.8764,25.4947 15.5,27.5C 14.8333,27.5 14.5,27.8333 14.5,28.5C 12.3796,27.5967 12.0462,26.2633 13.5,24.5C 21.2054,18.4586 28.2054,11.7919 34.5,4.5 Z" />
	</g>
	<g>
		<path style="opacity:0.986" fill="#cfcfcf" d="M 54.5,10.5 C 57.8499,10.335 61.1832,10.5017 64.5,11C 68.0231,13.7936 68.3564,16.9602 65.5,20.5C 63.604,21.4656 61.604,21.7989 59.5,21.5C 59.5,23.8333 59.5,26.1667 59.5,28.5C 57.8333,28.5 56.1667,28.5 54.5,28.5C 54.5,22.5 54.5,16.5 54.5,10.5 Z M 59.5,14.5 C 63.1232,15.4114 63.2899,16.7447 60,18.5C 59.51,17.2068 59.3433,15.8734 59.5,14.5 Z" />
	</g>
	<g>
		<path style="opacity:0.985" fill="#cfcfcf" d="M 82.5,10.5 C 84.4672,10.2606 86.3005,10.5939 88,11.5C 90.34,17.0194 92.1733,22.6861 93.5,28.5C 91.8333,28.5 90.1667,28.5 88.5,28.5C 88.9228,25.7569 87.7561,24.4235 85,24.5C 83.1285,24.7094 81.9619,25.7094 81.5,27.5C 79.9547,28.4519 78.288,28.7852 76.5,28.5C 78.2985,22.4379 80.2985,16.4379 82.5,10.5 Z M 84.5,17.5 C 85.2674,18.172 85.9341,19.0053 86.5,20C 84.9387,20.1881 84.272,19.3547 84.5,17.5 Z" />
	</g>
	<g>
		<path style="opacity:0.987" fill="#c2c2c2" d="M 110.5,10.5 C 110.5,15.5 110.5,20.5 110.5,25.5C 112.5,25.5 114.5,25.5 116.5,25.5C 116.5,26.5 116.5,27.5 116.5,28.5C 112.894,28.7892 109.394,28.4558 106,27.5C 105.501,21.8431 105.334,16.1764 105.5,10.5C 107.167,10.5 108.833,10.5 110.5,10.5 Z" />
	</g>
	<g>
		<path style="opacity:0.986" fill="#cdcdcd" d="M 134.5,10.5 C 136.5,10.5 138.5,10.5 140.5,10.5C 142.171,16.5055 143.837,22.5055 145.5,28.5C 143.833,28.5 142.167,28.5 140.5,28.5C 140.241,24.9319 138.241,23.5985 134.5,24.5C 134.143,28.3948 132.143,29.3948 128.5,27.5C 130.905,21.9492 132.905,16.2825 134.5,10.5 Z M 136.5,17.5 C 138.332,18.1405 138.665,19.1405 137.5,20.5C 136.614,19.675 136.281,18.675 136.5,17.5 Z" />
	</g>
	<g>
		<path style="opacity:0.984" fill="#e9e9e9" d="M 210.5,12.5 C 211.906,12.9731 212.573,13.9731 212.5,15.5C 213.116,16.7978 213.116,17.7978 212.5,18.5C 211.504,18.5858 210.671,18.2524 210,17.5C 209.502,20.8168 209.335,24.1501 209.5,27.5C 208.5,27.5 207.5,27.5 206.5,27.5C 206.5,22.1667 206.5,16.8333 206.5,11.5C 207.959,11.4326 209.292,11.7659 210.5,12.5 Z" />
	</g>
	<g>
		<path style="opacity:0.986" fill="#e6e6e6" d="M 215.5,27.5 C 214.4,26.3951 213.733,25.0618 213.5,23.5C 212.962,21.8828 212.629,20.2161 212.5,18.5C 213.116,17.7978 213.116,16.7978 212.5,15.5C 213.906,15.9731 214.573,16.9731 214.5,18.5C 214.987,19.4734 215.487,20.4734 216,21.5C 216.498,18.1832 216.665,14.8499 216.5,11.5C 217.5,11.5 218.5,11.5 219.5,11.5C 219.5,16.8333 219.5,22.1667 219.5,27.5C 218.167,27.5 216.833,27.5 215.5,27.5 Z" />
	</g>
	<g>
		<path style="opacity:0.357" fill="#5c5c5c" d="M 1.5,4.5 C 4.4493,7.78768 7.4493,11.121 10.5,14.5C 10.1667,15.1667 9.83333,15.8333 9.5,16.5C 5.66203,13.8206 2.66203,10.3206 0.5,6C 0.569925,5.2352 0.903259,4.7352 1.5,4.5 Z" />
	</g>
	<g>
		<path style="opacity:0.986" fill="#d6d6d6" d="M 158.5,10.5 C 162.637,10.1463 166.637,10.6463 170.5,12C 176.504,24.4563 172.504,29.9563 158.5,28.5C 158.5,22.5 158.5,16.5 158.5,10.5 Z M 166.5,15.5 C 167.341,17.3792 167.675,19.3792 167.5,21.5C 167.306,23.9118 165.973,24.9118 163.5,24.5C 163.5,21.1667 163.5,17.8333 163.5,14.5C 164.791,14.2627 165.791,14.596 166.5,15.5 Z" />
	</g>
	<g>
		<path style="opacity:0.435" fill="#b6b6b6" d="M 210.5,12.5 C 209.292,11.7659 207.959,11.4326 206.5,11.5C 206.5,16.8333 206.5,22.1667 206.5,27.5C 207.5,27.5 208.5,27.5 209.5,27.5C 209.335,24.1501 209.502,20.8168 210,17.5C 210.671,18.2524 211.504,18.5858 212.5,18.5C 212.629,20.2161 212.962,21.8828 213.5,23.5C 212.21,22.9423 211.377,21.9423 211,20.5C 210.503,23.146 210.336,25.8127 210.5,28.5C 208.833,28.5 207.167,28.5 205.5,28.5C 205.5,22.5 205.5,16.5 205.5,10.5C 207.781,10.0773 209.448,10.744 210.5,12.5 Z" />
	</g>
	<g>
		<path style="opacity:0.124" fill="#747474" d="M 110.5,10.5 C 111.486,14.97 111.819,19.6367 111.5,24.5C 113.5,24.5 115.5,24.5 117.5,24.5C 117.768,26.099 117.434,27.4324 116.5,28.5C 116.5,27.5 116.5,26.5 116.5,25.5C 114.5,25.5 112.5,25.5 110.5,25.5C 110.5,20.5 110.5,15.5 110.5,10.5 Z" />
	</g>
	<g>
		<path style="opacity:0.382" fill="#bdbdbd" d="M 186.5,10.5 C 188.167,10.5 189.833,10.5 191.5,10.5C 191.5,16.5 191.5,22.5 191.5,28.5C 189.833,28.5 188.167,28.5 186.5,28.5C 186.5,22.5 186.5,16.5 186.5,10.5 Z" />
	</g>
	<g>
		<path style="opacity:0.986" fill="#efefef" d="M 187.5,11.5 C 188.5,11.5 189.5,11.5 190.5,11.5C 190.5,16.8333 190.5,22.1667 190.5,27.5C 189.5,27.5 188.5,27.5 187.5,27.5C 187.5,22.1667 187.5,16.8333 187.5,11.5 Z" />
	</g>
	<g>
		<path style="opacity:0.984" fill="#888888" d="M 10.5,14.5 C 13.9585,15.5706 15.6252,17.5706 15.5,20.5C 11.8574,15.8641 10.1908,16.5308 10.5,22.5C 10.1667,22.5 9.83333,22.5 9.5,22.5C 9.5,20.5 9.5,18.5 9.5,16.5C 9.83333,15.8333 10.1667,15.1667 10.5,14.5 Z" />
	</g>
	<g>
		<path style="opacity:1" fill="#e4e4e4" d="M 1.5,4.5 C 5.14068,4.65156 7.80735,6.31823 9.5,9.5C 11.8458,12.679 14.6791,15.3456 18,17.5C 21.3209,15.3456 24.1542,12.679 26.5,9.5C 28.1927,6.31823 30.8593,4.65156 34.5,4.5C 28.2054,11.7919 21.2054,18.4586 13.5,24.5C 13.0618,24.5654 12.7284,24.3988 12.5,24C 13.7101,22.9609 14.7101,21.7942 15.5,20.5C 15.6252,17.5706 13.9585,15.5706 10.5,14.5C 7.4493,11.121 4.4493,7.78768 1.5,4.5 Z" />
	</g>
	<g>
		<path style="opacity:0.995" fill="#c0c0c0" d="M 9.5,9.5 C 10.8333,9.5 12.1667,9.5 13.5,9.5C 16.5,9.5 19.5,9.5 22.5,9.5C 23.8333,9.5 25.1667,9.5 26.5,9.5C 24.1542,12.679 21.3209,15.3456 18,17.5C 14.6791,15.3456 11.8458,12.679 9.5,9.5 Z" />
	</g>
	<g>
		<path style="opacity:0.559" fill="#7c7c7c" d="M 22.5,9.5 C 19.5,9.5 16.5,9.5 13.5,9.5C 16.5,6.83333 19.5,6.83333 22.5,9.5 Z" />
	</g>
	<g>
		<path style="opacity:0.051" fill="#686868" d="M 166.5,15.5 C 167.693,15.9704 168.36,16.9704 168.5,18.5C 168.48,19.7261 168.147,20.7261 167.5,21.5C 167.675,19.3792 167.341,17.3792 166.5,15.5 Z" />
	</g>
	<g>
		<path style="opacity:0.611" fill="#c1c1c1" d="M 215.5,27.5 C 216.833,27.5 218.167,27.5 219.5,27.5C 219.5,22.1667 219.5,16.8333 219.5,11.5C 218.5,11.5 217.5,11.5 216.5,11.5C 216.665,14.8499 216.498,18.1832 216,21.5C 215.487,20.4734 214.987,19.4734 214.5,18.5C 215.473,16.0521 215.806,13.3854 215.5,10.5C 217.167,10.5 218.833,10.5 220.5,10.5C 220.5,16.5 220.5,22.5 220.5,28.5C 218.585,28.7845 216.919,28.4511 215.5,27.5 Z" />
	</g>
	<g>
		<path style="opacity:0.988" fill="#b5b5b5" d="M 21.5,24.5 C 21.5,25.5 21.5,26.5 21.5,27.5C 19.5769,29.19 17.5769,29.5234 15.5,28.5C 15.5,28.1667 15.5,27.8333 15.5,27.5C 14.8764,25.4947 15.7097,23.8281 18,22.5C 18.8159,23.8228 19.9826,24.4894 21.5,24.5 Z" />
	</g>
	<g>
		<path style="opacity:0.031" fill="#545454" d="M 21.5,24.5 C 24.1667,25.8333 24.1667,27.1667 21.5,28.5C 21.5,28.1667 21.5,27.8333 21.5,27.5C 21.5,26.5 21.5,25.5 21.5,24.5 Z" />
	</g>
	<g>
		<path style="opacity:0.929" fill="#bebebe" d="M 15.5,20.5 C 14.7101,21.7942 13.7101,22.9609 12.5,24C 12.7284,24.3988 13.0618,24.5654 13.5,24.5C 12.0462,26.2633 12.3796,27.5967 14.5,28.5C 14.8333,28.5 15.1667,28.5 15.5,28.5C 15.189,29.4778 14.5223,30.1445 13.5,30.5C 12.2322,29.5721 10.8989,29.4054 9.5,30C 8.48035,31.5557 7.14702,32.7224 5.5,33.5C 4.83333,33.1667 4.16667,32.8333 3.5,32.5C 4.81489,30.6841 6.31489,29.0175 8,27.5C 8.49224,26.451 8.32557,25.451 7.5,24.5C 7.85549,23.4777 8.52216,22.811 9.5,22.5C 9.83333,23.8333 10.1667,23.8333 10.5,22.5C 10.1908,16.5308 11.8574,15.8641 15.5,20.5 Z" />
	</g>
	<g>
		<path style="opacity:0.804" fill="#c8c8c8" d="M 26.5,20.5 C 27.1079,21.7997 27.7745,23.1331 28.5,24.5C 28.3918,25.4419 28.0585,26.2753 27.5,27C 29.3513,28.6837 31.018,30.5171 32.5,32.5C 31.635,33.5827 30.635,33.7494 29.5,33C 27.8789,29.8496 25.5455,29.0163 22.5,30.5C 21.7025,30.0431 21.3691,29.3764 21.5,28.5C 24.1667,27.1667 24.1667,25.8333 21.5,24.5C 20.8592,23.5178 20.1925,22.5178 19.5,21.5C 21.8169,19.684 23.9835,17.684 26,15.5C 26.4935,17.1341 26.6602,18.8008 26.5,20.5 Z" />
	</g>
</svg>
