<svg xmlns="http://www.w3.org/2000/svg" version="1.0" viewBox="0 0 446 84">
	<path fill="gray" fill-opacity=".3" d="M121.1 38.6c0 1.1.3 1.4.6.6.3-.7.2-1.6-.1-1.9-.3-.4-.6.2-.5 1.3" />
	<path fill="gray" fill-opacity=".2" d="M224.8 46.7c.6.2 1.8.2 2.5 0 .6-.3.1-.5-1.3-.5s-1.9.2-1.2.5" />
	<path fill="#BFBFBF" fill-opacity=".9" d="M114 27.2c.3.2 3.6 3.3 7.4 6.8 6.3 5.9 6.8 6.3 6.4 3.7-.4-2 0-3 1.3-3.7 2.7-1.5 5.2-.1 4.6 2.6-.3 1.9.7 1.4 5.9-3.3 3.5-3 6.4-5.7 6.4-5.9 0-.9-1.1-.2-4.3 2.5-3.1 2.8-3.5 2.9-7.4 1.8-3.1-.8-5.1-.8-8 .1-3.4 1-4 .9-6.3-1.2-1.4-1.3-3.4-2.6-4.5-3s-1.7-.5-1.5-.4M168 41c0 7.8 1.6 11.2 2.2 4.7.2-2.6.8-3.3 2.8-3.5 3.4-.5 5-2 5-4.6 0-3.2-1.9-4.6-6.2-4.6H168zm6.6-5.6c1.5 1.2 1.7 1.8.8 3.3-2.4 3.8-6.7 1-5-3.3.7-1.8 1.7-1.8 4.2 0m20.6.3c-.5 1.5-1.9 5.2-3.1 8-1.1 2.9-1.7 5.3-1.2 5.3.6 0 1.3-.9 1.6-2 .5-1.5 1.5-2 4.5-2s4 .5 4.5 2c.3 1.1 1.1 2 1.6 2 1.2 0 1.3.6-2-8-1.5-4.1-3.3-7.6-3.8-7.7-.6-.2-1.5.9-2.1 2.4m3.8 2.7c0 .8.3 2.1.6 3 .5 1.3-.1 1.6-2.5 1.6-3.5 0-3.5.1-2.1-3.4 1-2.7 4-3.6 4-1.2m21 2.6v8h4c2.2 0 4-.5 4-1 0-.6-1.3-1-3-1h-3v-7c0-4-.4-7-1-7s-1 3.3-1 8m25.6-.5c-1.6 4.2-2.6 7.9-2.2 8.2.4.4.9-.3 1.3-1.5.4-1.8 1.3-2.2 4.5-2.2 3.1 0 4.1.4 4.5 2 .3 1.1 1 2 1.5 2 .6 0 .8-.6.6-1.3-.3-.6-1.6-4.2-2.9-8-1.3-3.7-2.8-6.7-3.4-6.7s-2.3 3.4-3.9 7.5m5.8-1.3c.9 3.5.8 3.8-1.9 3.8-2.5 0-3.1-1.3-1.9-4.4.9-2.3 3.1-1.9 3.8.6M272 41v8h3.8c5 0 7.7-2.8 7.7-8s-2.7-8-7.7-8H272zm7.8-4.8c1.6 1.6 1.6 8 0 9.6-.7.7-2.2 1.2-3.5 1.2-2.1 0-2.3-.4-2.3-6s.2-6 2.3-6c1.3 0 2.8.5 3.5 1.2M300 41c0 4.7.4 8 1 8s1-3.3 1-8-.4-8-1-8-1 3.3-1 8m19 0c0 4.7.4 8 1 8s1-2.3 1-5c0-2.8.4-5 .9-5s2.4 2.2 4.2 5c1.8 2.7 3.6 5 4.1 5 .4 0 .8-3.6.8-8 0-4.7-.4-8-1-8-.5 0-1 2.2-1 5 0 2.7-.4 5-.9 5s-2.3-2.3-4.1-5c-1.8-2.8-3.6-5-4.1-5s-.9 3.6-.9 8m-196-.3c0 1 .6 2.7 1.3 3.6 1.1 1.5 1.4 1.4 3.6-.3 2-1.7 2.1-2 .5-2-.9 0-2.6-.7-3.6-1.7-1.7-1.5-1.8-1.5-1.8.4m11.6.4-2.7 2.2 2.7 2.8c1.5 1.6 3 2.6 3.3 2.3s-.1-.9-.8-1.3c-1.1-.7-1.1-1.5-.2-4.2 1.4-4.1 1-4.4-2.3-1.8m-6.5 5.3c-.9 1-.8 1.5.4 2 .8.3 2.2.3 3 0 1.2-.5 1.3-1 .4-2-.6-.8-1.5-1.4-1.9-1.4s-1.3.6-1.9 1.4m-5.6 1.6c.3.5.8 1 1.1 1 .2 0 .4-.5.4-1 0-.6-.5-1-1.1-1-.5 0-.7.4-.4 1" />
	<path fill="#BFBFBF" fill-opacity=".8" d="M138 32c-.9.6-1 1-.3 1 .6 0 1.5-.5 1.8-1 .8-1.2.4-1.2-1.5 0m81.3 9c0 4.7.2 6.6.4 4.2.2-2.3.2-6.1 0-8.5-.2-2.3-.4-.4-.4 4.3m-49.2 5.6c0 1.1.3 1.4.6.6.3-.7.2-1.6-.1-1.9-.3-.4-.6.2-.5 1.3M122 49c0 .6.7 1 1.5 1s1.5-.2 1.5-.4-.7-.6-1.5-1c-.8-.3-1.5-.1-1.5.4m14 0c0 .5.5 1 1.2 1 .6 0 2.3 1 3.7 2.2l2.6 2.3-2-2.3c-2.4-2.9-5.5-4.7-5.5-3.2" />
	<path fill="#BFBFBF" fill-opacity=".6" d="M299.3 41c0 4.7.2 6.6.4 4.2.2-2.3.2-6.1 0-8.5-.2-2.3-.4-.4-.4 4.3m3 0c0 4.7.2 6.6.4 4.2.2-2.3.2-6.1 0-8.5-.2-2.3-.4-.4-.4 4.3m-28 0c0 3.6.2 5 .4 3.2.2-1.7.2-4.7 0-6.5-.2-1.7-.4-.3-.4 3.3m-96.2-3.4c0 1.1.3 1.4.6.6.3-.7.2-1.6-.1-1.9-.3-.4-.6.2-.5 1.3" />
	<path fill="#BFBFBF" fill-opacity=".2" d="M270.1 41.2c0 4.2.2 7.9.7 8.1.4.3.6-2 .4-5.1-.5-9.8-.9-11-1.1-3m47-2.6c0 1.1.3 1.4.6.6.3-.7.2-1.6-.1-1.9-.3-.4-.6.2-.5 1.3m.1 5.4c0 1.9.2 2.7.5 1.7.2-.9.2-2.5 0-3.5-.3-.9-.5-.1-.5 1.8m-19.1 2.6c0 1.1.3 1.4.6.6.3-.7.2-1.6-.1-1.9-.3-.4-.6.2-.5 1.3" />
	<path fill="gray" fill-opacity=".1" d="M303.3 41c0 4.7.2 6.6.4 4.2.2-2.3.2-6.1 0-8.5-.2-2.3-.4-.4-.4 4.3m-124.2-3.4c0 1.1.3 1.4.6.6.3-.7.2-1.6-.1-1.9-.3-.4-.6.2-.5 1.3m96.2 3.4c0 2.5.2 3.5.4 2.2.2-1.2.2-3.2 0-4.5-.2-1.2-.4-.2-.4 2.3m46.9 4.1c-.2 2.1-.1 3.9.2 3.9.7 0 1.3-7.1.6-7.5-.3-.2-.7 1.4-.8 3.6" />
	<path fill="#BFBFBF" fill-opacity=".5" d="M167.4 33.3c-.3.8-.3 4.5-.1 8.3l.3 6.9.2-7.7.2-7.7 3.3-.4 3.2-.4-3.3-.1c-1.9-.1-3.5.3-3.8 1.1m53.3-.6c.6.5 1.4 3.3 1.6 6.3l.4 5.5-.1-5.9c-.1-4.4-.5-6-1.6-6.3-1-.3-1.1-.2-.3.4m52.6 0c.9.2 2.5.2 3.5 0 .9-.3.1-.5-1.8-.5s-2.7.2-1.7.5m55.1.7c-.3.8-.4 3.1-.1 5.2.4 3.8.4 3.7.5-.8.1-2.6.7-4.9 1.5-5.1.9-.4.9-.6-.1-.6-.7-.1-1.5.5-1.8 1.3m-7.1 10.1c0 2.2.2 3 .4 1.7.2-1.2.2-3 0-4-.3-.9-.5.1-.4 2.3M141 51.4c0 .2.8 1 1.8 1.7 1.5 1.3 1.6 1.2.3-.4s-2.1-2.1-2.1-1.3" />
	<path fill="gray" fill-opacity=".8" d="M122.1 38.6c0 1.1.3 1.4.6.6.3-.7.2-1.6-.1-1.9-.3-.4-.6.2-.5 1.3" />
	<path fill="#BFBFBF" fill-opacity=".3" d="m139.4 30.2-1.9 2.3 2.3-1.9c2.1-1.8 2.7-2.6 1.9-2.6-.2 0-1.2 1-2.3 2.2M218.3 41c0 4.7.2 6.6.4 4.2.2-2.3.2-6.1 0-8.5-.2-2.3-.4-.4-.4 4.3m114 0c0 4.1.2 5.8.4 3.7.2-2 .2-5.4 0-7.5-.2-2-.4-.3-.4 3.8m-161.2 4.7q-.15 3.15-1.8 3.6c-1.7.4-1.7.5 0 .6 2.1.1 3-1.8 2.4-5.1-.3-1.8-.5-1.6-.6.9m72.4 3.3c-1.6.7-1.7.9-.3.9.9.1 2-.4 2.3-.9.7-1.1.7-1.1-2 0m-20.2.7c.9.2 2.5.2 3.5 0 .9-.3.1-.5-1.8-.5s-2.7.2-1.7.5m31.5 0c.7.3 1.6.2 1.9-.1.4-.3-.2-.6-1.3-.5-1.1 0-1.4.3-.6.6m75 0c.7.3 1.6.2 1.9-.1.4-.3-.2-.6-1.3-.5-1.1 0-1.4.3-.6.6m-212.9 3c-1.3 1.6-1.2 1.7.4.4.9-.7 1.7-1.5 1.7-1.7 0-.8-.8-.3-2.1 1.3" />
	<path fill="gray" fill-opacity=".9" d="m142.9 30.7-2.4 2.8 2.8-2.4c1.5-1.4 2.7-2.6 2.7-2.8 0-.8-.8-.1-3.1 2.4m-22.6 2.8c2 2.3 3.5 4.4 3.2 4.7-.3.2.4 1.3 1.5 2.3s2.3 1.5 2.6 1.2c.4-.3-2-3.2-5.2-6.5-3.3-3.2-4.2-3.9-2.1-1.7m16.2 2.5c-1.6 1.6-2.5 3-2.1 3 .5 0 .2.8-.5 1.7-1.2 1.4-1 1.4 1.4-.2 1.5-1 2.6-2.3 2.4-2.9-.3-.6.2-1.9 1.1-2.9 2.5-2.9.8-1.9-2.3 1.3m-6 6.9c.6 1.1.4 1.3-.7.8-1-.3-2.5.4-3.9 1.9-2.1 2.3-2.1 2.4-.4 1.8 1.1-.4 2.6-1.2 3.3-1.7.8-.7 1.8-.4 3.1.7 1.1 1 2.2 1.3 2.5.8s-.6-2-2.1-3.3c-1.4-1.3-2.3-1.8-1.8-1" />
	<path fill="#404040" fill-opacity=".5" d="M143.9 31.7c-1.3 1.6-1.2 1.7.4.4s2.1-2.1 1.3-2.1c-.2 0-1 .8-1.7 1.7" />
	<path fill="#404040" fill-opacity=".9" d="M120 34.5c3 3 5.7 5.5 5.9 5.5.3 0-1.9-2.5-4.9-5.5s-5.7-5.5-5.9-5.5c-.3 0 1.9 2.5 4.9 5.5m22.9-2.8c-1.3 1.6-1.2 1.7.4.4s2.1-2.1 1.3-2.1c-.2 0-1 .8-1.7 1.7m-6 5-3.4 3.8 3.8-3.4c3.4-3.3 4.2-4.1 3.4-4.1-.2 0-1.9 1.7-3.8 3.7" />
	<path fill="#BFBFBF" fill-opacity=".7" d="M271.3 41c0 4.7.2 6.6.4 4.2.2-2.3.2-6.1 0-8.5-.2-2.3-.4-.4-.4 4.3m47 0c0 4.7.2 6.6.4 4.2.2-2.3.2-6.1 0-8.5-.2-2.3-.4-.4-.4 4.3m12.9-6c0 1.4.2 1.9.5 1.2.2-.6.2-1.8 0-2.5-.3-.6-.5-.1-.5 1.3M170 37.4c0 1.4.4 2.7.8 3 .5.3.6-.8.4-2.5-.5-3.5-1.2-3.8-1.2-.5m161.3 7.1c0 2.7.2 3.8.4 2.2.2-1.5.2-3.7 0-5-.2-1.2-.4 0-.4 2.8M119.5 51c-.3.6.1.7.9.4 1.8-.7 2.1-1.4.7-1.4-.6 0-1.3.4-1.6 1" />
	<path fill="#BFBFBF" fill-opacity=".4" d="M120 45.4c0 .2.7.7 1.6 1 .8.3 1.2.2.9-.4-.6-1-2.5-1.4-2.5-.6m19.4 5.1c.1.8.8 2.1 1.6 2.8 1.2 1 1.2.9.2-.4-.6-.9-.9-1.8-.6-2.1s.1-.9-.4-1.2c-.6-.3-.9.1-.8.9m133.9-.8c.9.2 2.3.2 3 0 .6-.3-.1-.5-1.8-.5-1.6 0-2.2.2-1.2.5" />
	<path fill="gray" fill-opacity=".5" d="M138.1 38.6c0 1.1.3 1.4.6.6.3-.7.2-1.6-.1-1.9-.3-.4-.6.2-.5 1.3" />
	<path fill="#BFBFBF" d="M128.8 34.2c-1.2 1-1.3 2-.6 4.5 1 3.9 2.1 4.1 4.2 1.1 2-2.9 2-5.4 0-6.2s-1.8-.8-3.6.6" />
	<path fill="#BFBFBF" fill-opacity=".1" d="M298.3 39c0 3.6.2 5 .4 3.2.2-1.7.2-4.7 0-6.5-.2-1.7-.4-.3-.4 3.3m-51.7 6.9c-.3.4.6.6 1.9.3 1.4-.2 2.5-.6 2.5-.8 0-.8-3.9-.4-4.4.5m-126.7 6.8c-1.3 1.6-1.2 1.7.4.4.9-.7 1.7-1.5 1.7-1.7 0-.8-.8-.3-2.1 1.3" />
	<path fill="gray" d="M132 40.5c-.7.9-1 1.8-.7 2.1s1-.4 1.7-1.5c1.3-2.5.8-2.7-1-.6" />
</svg>
