<svg width="143" height="32" viewBox="0 0 143 32" fill="none" xmlns="http://www.w3.org/2000/svg">
	<path fill-rule="evenodd" clip-rule="evenodd" d="M104.634 17.0065H104.2L98.556 0.639648H91.9453V1.31633L99.9069 24.1724H108.686L116.65 1.31633V0.639648H110.327L104.631 17.0065H104.634Z" fill="white" />
	<path d="M90.1848 0.639648H83.6113V24.1699H90.1848V0.639648Z" fill="white" />
	<path fill-rule="evenodd" clip-rule="evenodd" d="M136.176 0.637244H136.181L130.485 17.009H130.052L124.408 0.639723H117.797V1.32137L126.445 26.153H118.255V31.6036H126.259C129.677 31.6036 132.339 30.451 133.631 26.7726C133.804 26.2819 142.5 1.31641 142.5 1.31641V0.634766H136.176V0.637244Z" fill="white" />
	<path fill-rule="evenodd" clip-rule="evenodd" d="M50.1115 0C47.1222 0 44.3287 1.52192 42.5862 4.38234H42.1822V0.664291H35.916V31.596H42.5738V21.1755H42.9828C43.0274 21.2375 43.072 21.3019 43.1166 21.354C44.2395 22.7198 46.862 24.8019 50.1239 24.8019C56.0604 24.8019 60.1205 19.671 60.1205 12.4034C60.1205 5.13586 55.8596 0 50.1115 0ZM48.1236 19.7007C45.0252 19.7007 42.8861 17.2864 42.8861 12.4059C42.8861 7.52533 45.0252 5.11108 48.1236 5.11108C51.222 5.11108 53.4652 7.57738 53.4652 12.4059C53.4652 17.2344 51.274 19.7007 48.1236 19.7007Z" fill="white" />
	<path fill-rule="evenodd" clip-rule="evenodd" d="M76.6336 0.637207C73.5476 0.637207 71.5672 1.15278 70.4096 4.38252H70.013V0.639686H60.4824V6.04325H62.6091C63.3106 6.04325 63.6552 6.29112 63.7444 6.86618V11.3576H63.7692V24.1724H70.427V11.6897C70.427 8.4575 71.3044 6.47702 74.5366 6.47702H81.5117V0.637207H76.6361H76.6336Z" fill="white" />
	<path d="M12.3935 24.7943C19.2372 24.7943 24.787 19.2445 24.787 12.4008C24.787 5.55713 19.2372 0.00732422 12.3935 0.00732422C5.54981 0.00732422 0 5.55713 0 12.4008C0 19.2445 5.54981 24.7943 12.3935 24.7943Z" fill="white" />
	<path d="M12.3935 31.9998C17.0708 31.9998 20.8633 31.2016 20.8633 30.2225C20.8633 29.2435 17.0733 28.4453 12.3935 28.4453C7.71376 28.4453 3.92383 29.2435 3.92383 30.2225C3.92383 31.2016 7.71376 31.9998 12.3935 31.9998Z" fill="white" />
</svg>
