<svg width="646" height="160" viewBox="0 0 646 160" fill="none" xmlns="http://www.w3.org/2000/svg">
	<path d="M225.786 52.2095C225.786 50.973 225.562 49.8082 225.123 48.733C224.711 47.6488 223.994 46.6364 222.981 45.6866C221.933 44.7637 220.571 43.9215 218.887 43.1599C217.238 42.3624 215.168 41.6366 212.695 40.9646C208.851 39.9163 205.473 38.644 202.552 37.1566C199.658 35.6603 197.293 34.0295 195.456 32.2465C193.61 30.4724 192.222 28.5012 191.263 26.3418C190.34 24.1824 189.883 21.8349 189.883 19.2902C189.883 16.3692 190.501 13.7171 191.738 11.3337C192.974 8.9503 194.695 6.91637 196.881 5.23188C199.076 3.54738 201.656 2.26609 204.649 1.37009C207.633 0.447198 210.876 -0.00976562 214.371 -0.00976562C217.865 -0.00976562 221.297 0.509919 224.281 1.55825C227.3 2.60657 229.89 4.06707 232.049 5.93972C234.208 7.84822 235.893 10.0972 237.103 12.7046C238.312 15.312 238.912 18.1702 238.912 21.2794H225.858C225.795 19.7203 225.508 18.2957 224.997 16.9964C224.523 15.6972 223.806 14.5683 222.856 13.6185C221.87 12.6956 220.652 11.9788 219.191 11.477C217.758 10.9394 216.082 10.6706 214.138 10.6706C212.355 10.6706 210.769 10.8946 209.371 11.3337C208.009 11.7458 206.844 12.3372 205.895 13.0988C204.945 13.8963 204.21 14.8281 203.699 15.9123C203.224 16.9606 202.983 18.1075 202.983 19.344C202.983 20.6432 203.296 21.817 203.932 22.8653C204.595 23.9136 205.554 24.8544 206.791 25.6788C208.027 26.5389 209.523 27.3185 211.271 28.0084C213.045 28.7073 215.052 29.3613 217.274 29.9617C219.657 30.6247 221.924 31.4401 224.084 32.3898C226.243 33.3396 228.232 34.4417 230.042 35.6782C232.775 37.7121 234.952 40.0776 236.565 42.7746C238.187 45.4716 238.993 48.5897 238.993 52.111C238.993 55.1574 238.375 57.8723 237.138 60.2557C235.929 62.6032 234.244 64.5923 232.085 66.2141C229.926 67.8628 227.354 69.1172 224.37 69.9773C221.387 70.8017 218.134 71.2138 214.604 71.2138C211.074 71.2138 207.713 70.7031 204.318 69.6906C200.949 68.6423 198.01 67.1191 195.501 65.121C193.118 63.1498 191.227 60.8381 189.829 58.168C188.467 55.4979 187.777 52.3708 187.777 48.7868H200.922C200.984 50.8834 201.352 52.6754 202.015 54.1718C202.678 55.6681 203.619 56.8867 204.828 57.8365C206.002 58.7862 207.418 59.4851 209.066 59.9331C210.751 60.3811 212.588 60.5962 214.595 60.5962C216.369 60.5962 217.946 60.3901 219.308 59.9779C220.706 59.5657 221.879 58.9923 222.829 58.2665C223.779 57.5318 224.514 56.6627 225.024 55.6502C225.535 54.6019 225.786 53.455 225.786 52.2185V52.2095ZM294.142 70.3089H280.899V40.2478H261.277V70.3089H247.989V0.948962H261.277V29.3882H280.899V0.948962H294.142V70.3089ZM355.358 40.7317C355.358 43.7154 355.089 46.5557 354.551 49.2617C354.014 51.9318 353.234 54.4047 352.213 56.6896C351.128 58.9744 349.802 61.071 348.207 62.9795C346.621 64.888 344.812 66.474 342.778 67.7463C340.932 68.8573 338.907 69.7175 336.676 70.3178C334.481 70.954 332.115 71.2676 329.579 71.2676C326.882 71.2676 324.392 70.9182 322.098 70.2193C319.813 69.5204 317.734 68.5348 315.862 67.2624C314.016 65.9274 312.367 64.3235 310.907 62.4509C309.446 60.5424 308.228 58.4009 307.242 56.0176C306.355 53.8223 305.674 51.4479 305.19 48.8764C304.742 46.3048 304.527 43.5899 304.527 40.7317V30.6337C304.527 27.5872 304.778 24.6931 305.289 21.9603C305.826 19.2275 306.606 16.7008 307.627 14.3891C308.613 12.1939 309.805 10.2137 311.202 8.43062C312.627 6.65653 314.267 5.12435 316.112 3.86099C317.922 2.6245 319.956 1.66577 322.214 1.00272C324.472 0.339677 326.918 -0.000805555 329.553 -0.000805555C332.187 -0.000805555 334.714 0.348637 337.034 1.04752C339.382 1.71057 341.496 2.68722 343.369 3.95059C345.242 5.1602 346.881 6.62069 348.279 8.33206C349.713 10.0434 350.931 11.934 351.944 14.0038C353.055 16.3513 353.897 18.9229 354.47 21.7184C355.071 24.5139 355.375 27.4797 355.375 30.6247V40.7227L355.358 40.7317ZM341.783 30.5351C341.783 28.7521 341.684 27.0765 341.496 25.4816C341.335 23.8599 341.066 22.3725 340.69 21.0016C340.215 19.2902 339.579 17.767 338.781 16.432C337.984 15.07 337.052 13.959 335.968 13.0988C335.108 12.4627 334.14 11.9698 333.065 11.6204C332.017 11.271 330.843 11.1007 329.544 11.1007C328.244 11.1007 327.178 11.262 326.166 11.5756C325.18 11.8892 324.293 12.3551 323.496 12.9555C322.42 13.8425 321.497 14.9536 320.736 16.2886C320.001 17.6237 319.437 19.1827 319.024 20.9568C318.711 22.3187 318.469 23.8151 318.308 25.4368C318.182 27.0586 318.12 28.7521 318.12 30.5351V40.7317C318.12 42.4162 318.182 44.0379 318.308 45.588C318.433 47.1471 318.657 48.5897 318.971 49.9247C319.32 51.6092 319.831 53.1503 320.494 54.5481C321.193 55.91 321.999 57.0211 322.922 57.8813C323.782 58.6429 324.75 59.2342 325.825 59.6464C326.936 60.0585 328.191 60.2646 329.588 60.2646C330.986 60.2646 332.142 60.0765 333.253 59.6912C334.364 59.3059 335.35 58.7504 336.21 58.0246C337.294 57.1376 338.199 56.0265 338.925 54.6915C339.686 53.3295 340.287 51.7884 340.735 50.0681C341.084 48.733 341.335 47.2725 341.496 45.6866C341.684 44.1007 341.783 42.443 341.783 40.7317V30.5351ZM399.656 55.8294H378.842L374.747 70.3089H360.644L383.367 0.948962H395.517L417.809 70.3089H403.706L399.656 55.8294ZM382.13 44.4411H396.52L389.424 18.9049L382.139 44.4411H382.13ZM438.48 59.4941H470.969V70.3089H425.049V0.948962H438.48V59.4941Z" fill="white" />
	<path d="M213.306 133.083H203.164V158.995H189.777V89.6355H213.02C216.864 89.6355 220.34 90.0925 223.449 91.0154C226.558 91.9024 229.229 93.2196 231.451 94.9668C233.646 96.714 235.321 98.8913 236.504 101.49C237.714 104.097 238.314 107.108 238.314 110.539C238.314 113.012 238.009 115.252 237.409 117.259C236.836 119.231 236.011 120.987 234.936 122.546C233.825 124.132 232.49 125.512 230.931 126.694C229.408 127.868 227.687 128.89 225.788 129.741L240.697 158.368V158.986H226.361L213.306 133.074V133.083ZM203.164 122.223H213.074C215.134 122.223 216.944 121.937 218.503 121.363C220.089 120.763 221.38 119.903 222.365 118.792C223.189 117.905 223.808 116.838 224.22 115.602C224.668 114.365 224.883 112.985 224.883 111.453C224.883 109.608 224.596 107.995 224.023 106.597C223.485 105.163 222.661 103.99 221.55 103.076C220.564 102.251 219.355 101.615 217.93 101.167C216.496 100.719 214.866 100.504 213.02 100.504H203.164V122.223ZM291.053 128.603H262.569V148.181H295.865V158.995H249.138V89.6355H295.73V100.54H262.578V118.021H291.062V128.594L291.053 128.603ZM342.977 140.896C342.977 139.66 342.753 138.495 342.314 137.42C341.901 136.335 341.185 135.323 340.172 134.373C339.124 133.45 337.762 132.608 336.077 131.846C334.429 131.049 332.359 130.323 329.886 129.651C326.042 128.603 322.664 127.331 319.743 125.843C316.849 124.347 314.484 122.716 312.647 120.933C310.801 119.159 309.412 117.188 308.453 115.028C307.531 112.869 307.074 110.521 307.074 107.977C307.074 105.056 307.692 102.404 308.928 100.02C310.165 97.6369 311.885 95.6029 314.071 93.9184C316.267 92.234 318.847 90.9527 321.84 90.0567C324.824 89.1338 328.067 88.6768 331.562 88.6768C335.056 88.6768 338.488 89.1965 341.471 90.2448C344.491 91.2931 347.08 92.7536 349.24 94.6263C351.399 96.5348 353.084 98.7838 354.293 101.391C355.503 103.999 356.103 106.857 356.103 109.966H343.048C342.986 108.407 342.699 106.982 342.188 105.683C341.713 104.384 340.996 103.255 340.047 102.305C339.061 101.382 337.843 100.665 336.382 100.164C334.957 99.626 333.273 99.3572 331.329 99.3572C329.545 99.3572 327.96 99.5812 326.562 100.02C325.2 100.432 324.035 101.024 323.085 101.785C322.136 102.583 321.401 103.515 320.89 104.599C320.415 105.647 320.173 106.794 320.173 108.031C320.173 109.33 320.487 110.504 321.123 111.552C321.786 112.6 322.745 113.541 323.981 114.365C325.218 115.225 326.714 116.005 328.461 116.695C330.244 117.394 332.242 118.048 334.465 118.648C336.848 119.311 339.115 120.127 341.274 121.076C343.434 122.026 345.423 123.128 347.233 124.365C349.966 126.399 352.143 128.764 353.756 131.461C355.377 134.158 356.184 137.276 356.184 140.798C356.184 143.844 355.566 146.559 354.329 148.942C353.119 151.29 351.435 153.279 349.276 154.901C347.116 156.549 344.545 157.804 341.561 158.664C338.577 159.488 335.325 159.9 331.794 159.9C328.264 159.9 324.904 159.39 321.508 158.377C318.139 157.329 315.2 155.806 312.692 153.808C310.308 151.836 308.418 149.525 307.02 146.855C305.658 144.184 304.968 141.057 304.968 137.473H318.112C318.175 139.57 318.543 141.362 319.206 142.858C319.869 144.355 320.809 145.573 322.019 146.523C323.193 147.473 324.608 148.172 326.257 148.62C327.942 149.068 329.778 149.283 331.786 149.283C333.56 149.283 335.137 149.077 336.499 148.664C337.896 148.252 339.07 147.679 340.02 146.953C340.97 146.218 341.704 145.349 342.215 144.337C342.726 143.288 342.977 142.142 342.977 140.905V140.896ZM408.233 128.603H379.749V148.181H413.044V158.995H366.318V89.6355H412.901V100.54H379.749V118.021H408.233V128.594V128.603ZM458.248 144.516H437.434L433.339 158.995H419.236L441.959 89.6355H454.108L476.401 158.995H462.298L458.248 144.516ZM440.722 133.137H455.112L448.016 107.6L440.722 133.137ZM506.265 133.083H496.122V158.995H482.736V89.6355H505.978C509.822 89.6355 513.299 90.0925 516.408 91.0154C519.517 91.9024 522.187 93.2196 524.409 94.9668C526.595 96.714 528.289 98.8913 529.463 101.49C530.672 104.097 531.273 107.108 531.273 110.539C531.273 113.012 530.968 115.252 530.368 117.259C529.794 119.231 528.97 120.987 527.886 122.546C526.775 124.132 525.44 125.512 523.889 126.694C522.366 127.868 520.646 128.89 518.746 129.741L533.656 158.368V158.986H519.32L506.265 133.074V133.083ZM496.122 122.223H506.032C508.093 122.223 509.903 121.937 511.462 121.363C513.048 120.763 514.338 119.903 515.324 118.792C516.157 117.905 516.766 116.838 517.178 115.602C517.626 114.365 517.85 112.985 517.85 111.453C517.85 109.608 517.564 107.995 516.99 106.597C516.453 105.163 515.628 103.99 514.517 103.076C513.532 102.251 512.331 101.615 510.897 101.167C509.473 100.719 507.833 100.504 505.996 100.504H496.131V122.223H496.122ZM589.486 137.276C589.262 140.771 588.501 143.916 587.201 146.711C585.929 149.507 584.218 151.89 582.058 153.852C579.899 155.824 577.327 157.347 574.344 158.422C571.36 159.47 568.054 159.99 564.434 159.99C561.576 159.99 558.923 159.623 556.477 158.897C554.058 158.135 551.89 157.051 549.945 155.653C548.171 154.354 546.576 152.777 545.179 150.94C543.817 149.095 542.652 147.07 541.702 144.839C540.779 142.616 540.062 140.17 539.552 137.5C539.077 134.83 538.835 132.008 538.835 129.024V119.688C538.835 116.892 539.059 114.24 539.498 111.731C539.946 109.186 540.609 106.839 541.505 104.679C542.517 102.045 543.853 99.6977 545.501 97.6279C547.15 95.5671 549.022 93.8199 551.119 92.3863C552.992 91.1767 555.044 90.2627 557.266 89.6266C559.524 88.9635 561.934 88.623 564.505 88.623C568.314 88.623 571.7 89.1606 574.648 90.2448C577.632 91.329 580.177 92.8612 582.273 94.8682C584.37 96.8663 586.019 99.3124 587.228 102.207C588.438 105.101 589.199 108.353 589.513 111.973H576.171C576.046 109.912 575.732 108.102 575.222 106.543C574.747 104.984 574.048 103.685 573.125 102.637C572.175 101.624 570.984 100.863 569.559 100.352C568.161 99.8142 566.477 99.5454 564.505 99.5454C563.457 99.5454 562.472 99.6529 561.549 99.8769C560.662 100.101 559.828 100.432 559.067 100.88C557.768 101.642 556.656 102.735 555.734 104.169C554.847 105.567 554.13 107.206 553.592 109.079C553.18 110.539 552.875 112.161 552.687 113.935C552.499 115.682 552.4 117.573 552.4 119.607V129.042C552.4 131.802 552.544 134.284 552.83 136.47C553.153 138.629 553.628 140.52 554.255 142.142C554.703 143.253 555.223 144.238 555.832 145.098C556.468 145.959 557.176 146.666 557.974 147.24C558.834 147.876 559.784 148.351 560.832 148.664C561.907 148.951 563.099 149.095 564.407 149.095C566.154 149.095 567.722 148.871 569.12 148.432C570.518 147.984 571.709 147.285 572.695 146.335C573.681 145.385 574.451 144.158 575.025 142.67C575.598 141.174 575.947 139.382 576.073 137.285H589.459L589.486 137.276ZM645.702 158.995H632.459V128.934H612.836V158.995H599.548V89.6355H612.836V118.075H632.459V89.6355H645.702V158.995Z" fill="white" />
	<path d="M147.277 67.1641C154.176 74.0634 158.047 83.4177 158.047 93.1663V125.414C158.047 143.961 143.012 159.005 124.455 159.005H85.273C79.9597 159.005 74.8704 156.899 71.1161 153.145L46.7089 128.738C44.5853 126.614 43.4026 123.747 43.4026 120.745V106.355C43.4026 103.354 44.5943 100.487 46.7089 98.3631L72.0479 73.024H53.0078C50.0062 73.024 47.1389 74.2157 45.0154 76.3303L31.5395 89.8063H31.5305L22.9736 81.2404C20.859 79.1169 19.6674 76.2497 19.6674 73.257V58.8761C19.6674 55.8745 20.859 53.0072 22.9736 50.8837L36.4496 37.4077H25.0972C23.4575 37.4077 21.8895 38.0618 20.7246 39.2177L12.7054 47.2459H12.6964L8.56583 43.1064C6.76485 41.3054 5.75237 38.8503 5.75237 36.3057V24.6128C5.75237 22.0591 6.76485 19.613 8.57479 17.8031L12.7054 13.6725H8.35975C7.45478 13.6725 6.58565 14.0309 5.94949 14.6671L2.87618 17.7404L0.994568 15.8588C0.358403 15.2226 0 14.3535 0 13.4485V4.36301C0 2.48139 1.52321 0.949219 3.41379 0.949219H12.4993C13.4043 0.949219 14.2734 1.30762 14.9096 1.94379L16.7912 3.8254L19.6674 6.70158H35.3385C37.8921 6.70158 40.3472 7.71407 42.1571 9.52401L46.2877 13.6546L53.2497 20.6076H72.2988C75.3004 20.6076 78.1766 21.7993 80.2912 23.9228L88.8391 32.4797L100.711 44.3428H100.72V93.3724C100.72 98.6857 102.835 103.784 106.598 107.538L109.125 110.065L129.383 130.324C133.756 134.705 141.247 131.605 141.247 125.414V93.1663C141.247 87.853 139.141 82.7636 135.387 79.0094L112.601 56.2239L100.729 44.3518H119.787C122.789 44.3518 125.656 45.5435 127.78 47.6581L141.256 61.134L147.277 67.1552V67.1641Z" fill="white" />
</svg>
