<svg width="448" height="196" viewBox="0 0 448 196" fill="none" xmlns="http://www.w3.org/2000/svg">
	<g clip-path="url(#clip0_2131_50)">
		<mask id="mask0_2131_50" style="mask-type:luminance" maskUnits="userSpaceOnUse" x="0" y="0" width="448" height="196">
			<path d="M447.125 0H0V196H447.125V0Z" fill="white" />
		</mask>
		<g mask="url(#mask0_2131_50)">
			<path d="M82.6625 2.65332L81.4375 2.65471L81.4881 47.3672L82.7131 47.3658L82.6625 2.65332Z" fill="white" />
			<path d="M161.496 146.184L124.746 123.929L125.359 122.704L162.109 144.959L161.496 146.184Z" fill="white" />
			<path d="M2.85859 146.184L2.24609 144.959L38.9961 122.704L39.6086 123.929L2.85859 146.184Z" fill="white" />
			<path d="M82.0745 99.0206C81.8703 99.0206 81.6661 99.0206 81.6661 98.8164L38.7911 73.2956C38.587 73.0914 38.3828 72.6831 38.3828 72.4789C38.3828 72.0706 38.587 71.8664 38.7911 71.6622L81.6661 46.1414C81.8703 45.9372 82.2786 45.9372 82.687 46.1414L125.562 71.8664C125.766 72.0706 125.97 72.4789 125.97 72.6831C125.97 73.0914 125.766 73.2956 125.562 73.4997L82.687 99.0206C82.2786 99.0206 82.0745 99.0206 82.0745 99.0206ZM41.037 72.2747L81.8703 96.7747L122.704 72.4789L81.8703 47.9789L41.037 72.2747Z" fill="white" />
			<path d="M82.0745 149.858C81.8703 149.858 81.6661 149.858 81.6661 149.654L38.7911 124.337C38.587 124.133 38.3828 123.725 38.3828 123.521V72.4789C38.3828 72.0706 38.587 71.8664 38.7911 71.6623C38.9953 71.4581 39.4036 71.4581 39.812 71.6623L82.687 97.1831C82.8911 97.3873 83.0953 97.7956 83.0953 97.9998V148.837C83.0953 149.246 82.8911 149.45 82.687 149.654C82.2786 149.858 82.0745 149.858 82.0745 149.858ZM40.2203 122.908L81.0536 147.204V98.6123L40.2203 74.1123V122.908Z" fill="white" />
			<path d="M82.0745 149.858C81.8703 149.858 81.6661 149.858 81.6661 149.654C81.462 149.45 81.2578 149.041 81.2578 148.837V97.9998C81.2578 97.5914 81.462 97.3873 81.6661 97.1831L124.541 71.6623C124.745 71.4581 125.154 71.4581 125.562 71.6623C125.766 71.8664 125.97 72.2748 125.97 72.4789V123.725C125.97 124.133 125.766 124.337 125.562 124.541L82.687 149.858C82.2786 149.858 82.0745 149.858 82.0745 149.858ZM82.8911 98.6123V147.204L123.724 123.112V74.1123L82.8911 98.6123Z" fill="white" />
			<path d="M82.075 196L0 147V49L82.075 0L164.15 49V147L82.075 196ZM4.49167 144.346L81.8708 190.692L159.25 144.346V51.6542L82.075 5.5125L4.49167 51.6542V144.346Z" fill="white" />
			<path d="M81.8714 100.858L1.22554 52.4706C0.204709 51.8581 -0.203626 50.429 0.408875 49.204C1.02138 47.979 2.45055 47.7748 3.47138 48.3873L81.8714 95.3457L160.68 48.3873C161.701 47.7748 163.13 48.1831 163.742 49.204C164.355 50.429 163.946 51.8581 162.926 52.4706L81.8714 100.858Z" fill="white" />
			<path d="M82.0759 195.592C80.8509 195.592 79.8301 194.571 79.8301 193.142V98.0001C79.8301 96.7751 80.8509 95.55 82.0759 95.55C83.3009 95.55 84.3217 96.5709 84.3217 98.0001V193.142C84.3217 194.571 83.3009 195.592 82.0759 195.592Z" fill="white" />
			<path d="M261.725 146.33C255.398 146.33 249.91 145.111 245.261 142.672C240.687 140.232 237.219 136.764 234.856 132.267C232.57 127.77 231.541 122.473 231.769 116.375H245.947C245.871 120.034 246.443 123.235 247.662 125.979C248.881 128.647 250.673 130.705 253.035 132.153C255.398 133.601 258.256 134.325 261.61 134.325C265.955 134.325 269.424 133.334 272.015 131.353C274.606 129.295 275.902 126.512 275.902 123.006C275.902 120.567 275.141 118.585 273.615 117.061C272.09 115.536 270.185 114.317 267.899 113.402C265.688 112.488 262.564 111.459 258.523 110.315C253.035 108.715 248.615 107.19 245.261 105.742C241.906 104.217 239.011 101.931 236.571 98.8819C234.209 95.7568 233.027 91.6408 233.027 86.5339C233.027 81.8845 234.132 77.8828 236.343 74.529C238.629 71.099 241.87 68.4693 246.061 66.6399C250.33 64.7345 255.283 63.7816 260.924 63.7816C266.717 63.7816 271.786 64.8488 276.131 66.9829C280.551 69.0409 283.981 72.0136 286.421 75.9009C288.861 79.7883 290.118 84.3234 290.194 89.5066H275.902C275.827 85.2381 274.455 81.8845 271.786 79.4453C269.118 77.0061 265.498 75.7866 260.924 75.7866C256.884 75.7866 253.683 76.7395 251.32 78.645C249.034 80.4743 247.89 82.9896 247.89 86.191C247.89 88.4015 248.576 90.2308 249.948 91.6789C251.396 93.0509 253.189 94.1561 255.322 94.9946C257.456 95.7568 260.467 96.6714 264.354 97.7386C269.842 99.1868 274.34 100.711 277.846 102.312C281.351 103.836 284.363 106.275 286.878 109.629C289.393 112.907 290.651 117.328 290.651 122.892C290.651 127.694 289.469 131.848 287.107 135.354C284.82 138.86 281.466 141.566 277.045 143.472C272.701 145.377 267.595 146.33 261.725 146.33ZM304.547 65.1536H321.011L357.597 126.551L355.539 97.0526V65.1536H369.945V144.958H353.481L316.78 83.447L318.953 113.059V144.958H304.547V65.1536ZM414.131 146.33C407.806 146.33 402.318 145.111 397.667 142.672C393.094 140.232 389.627 136.764 387.263 132.267C384.976 127.77 383.947 122.473 384.176 116.375H398.353C398.278 120.034 398.849 123.235 400.068 125.979C401.289 128.647 403.08 130.705 405.442 132.153C407.806 133.601 410.664 134.325 414.017 134.325C418.361 134.325 421.83 133.334 424.421 131.353C427.014 129.295 428.308 126.512 428.308 123.006C428.308 120.567 427.547 118.585 426.022 117.061C424.499 115.536 422.592 114.317 420.305 113.402C418.096 112.488 414.97 111.459 410.93 110.315C405.442 108.715 401.022 107.19 397.667 105.742C394.315 104.217 391.418 101.931 388.978 98.8819C386.616 95.7568 385.433 91.6408 385.433 86.5339C385.433 81.8845 386.54 77.8828 388.749 74.529C391.036 71.099 394.276 68.4693 398.467 66.6399C402.737 64.7345 407.692 63.7816 413.331 63.7816C419.125 63.7816 424.192 64.8488 428.537 66.9829C432.959 69.0409 436.389 72.0136 438.827 75.9009C441.267 79.7883 442.525 84.3234 442.6 89.5066H428.308C428.233 85.2381 426.861 81.8845 424.192 79.4453C421.526 77.0061 417.904 75.7866 413.331 75.7866C409.292 75.7866 406.091 76.7395 403.727 78.645C401.44 80.4743 400.297 82.9896 400.297 86.191C400.297 88.4015 400.983 90.2308 402.355 91.6789C403.804 93.0509 405.595 94.1561 407.728 94.9946C409.864 95.7568 412.873 96.6714 416.761 97.7386C422.249 99.1868 426.747 100.711 430.252 102.312C433.76 103.836 436.769 106.275 439.284 109.629C441.8 112.907 443.057 117.328 443.057 122.892C443.057 127.694 441.877 131.848 439.513 135.354C437.226 138.86 433.874 141.566 429.452 143.472C425.107 145.377 420.001 146.33 414.131 146.33Z" fill="white" />
		</g>
	</g>
	<defs>
		<clipPath id="clip0_2131_50">
			<rect width="447.125" height="196" fill="white" />
		</clipPath>
	</defs>
</svg>
