<svg viewBox="0 0 202 34" fill="none" xmlns="http://www.w3.org/2000/svg">
	<path d="M64.7375 3.31804H53.5261V6.12094H61.7573C63.4153 6.12094 64.7375 7.4632 64.7375 9.10151V11.5491C64.7375 13.2072 63.4153 14.5296 61.7573 14.5296H50.7231V11.7268H61.935V8.92386H53.7037C52.0456 8.92386 50.7231 7.58161 50.7231 5.9433V3.49569C50.7231 1.83763 52.0456 0.515137 53.7037 0.515137H64.7375V3.31804Z" fill="white" />
	<path d="M78.3291 0.515137C79.987 0.515137 81.3293 1.83763 81.3293 3.49569V11.5491C81.3293 13.2072 79.987 14.5296 78.3291 14.5296H69.7033C68.0454 14.5296 66.7227 13.2072 66.7227 11.5491V3.49569C66.7227 1.83763 68.0454 0.515137 69.7033 0.515137H78.3291ZM78.5068 3.31804H69.5256V11.7268H78.5068V3.31804Z" fill="white" />
	<path d="M86.3201 11.6281H97.2554V14.6481H85.2349C84.1687 14.6481 83.3003 13.7796 83.3003 12.7137V0.396729H86.3201V11.6281Z" fill="white" />
	<path d="M111.401 0.515137C112.743 0.515137 113.829 1.58103 113.829 2.92327V14.5296H111.006V9.93055H102.025V14.5296H99.2222V2.92327C99.2222 1.58103 100.288 0.515137 101.63 0.515137H111.401ZM111.006 3.31804H102.025V7.12763H111.006V3.31804Z" fill="white" />
	<path d="M127.584 0.515137H130.406V12.7137C130.406 13.7204 129.577 14.5296 128.571 14.5296H126.399C125.709 14.5494 125.097 14.1744 124.781 13.5625L119.333 3.31804H118.603V14.5296H115.8V2.35084C115.8 1.32442 116.609 0.515137 117.615 0.515137H119.905C120.576 0.515137 121.208 0.870434 121.524 1.48234L126.972 11.7268H127.584V0.515137Z" fill="white" />
	<path d="M144.556 0.515137C145.898 0.515137 146.984 1.58103 146.984 2.92327V14.5296H144.161V9.93055H135.18V14.5296H132.377V2.92327C132.377 1.58103 133.443 0.515137 134.785 0.515137H144.556ZM144.161 3.31804H135.18V7.12763H144.161V3.31804Z" fill="white" />
	<path d="M64.4614 21.7578H53.5261V24.5607H64.4614V27.3636H53.5261V32.9694H50.7231V18.9549H64.4614V21.7578Z" fill="white" />
	<path d="M78.0405 18.9549C79.6985 18.9549 81.0407 20.2774 81.0407 21.9354V29.9889C81.0407 31.6469 79.6985 32.9694 78.0405 32.9694H69.4142C67.7562 32.9694 66.4341 31.6469 66.4341 29.9889V21.9354C66.4341 20.2774 67.7562 18.9549 69.4142 18.9549H78.0405ZM78.2176 21.7578H69.2365V30.1665H78.2176V21.7578Z" fill="white" />
	<path d="M94.7949 18.9549H97.6179V28.2715C97.5978 30.8771 95.5057 32.9694 92.8999 32.9694H87.7086C85.1035 32.9694 83.0107 30.8771 83.0107 28.2715V18.9549H85.8137V27.6992C85.8137 29.0611 86.919 30.1665 88.2814 30.1665H92.3277C93.6895 30.1665 94.7949 29.0611 94.7949 27.6992V18.9549Z" fill="white" />
	<path d="M111.372 18.9549H114.195V31.1534C114.195 32.1601 113.366 32.9694 112.359 32.9694H110.188C109.497 32.9892 108.885 32.6141 108.57 32.0022L103.122 21.7578H102.391V32.9694H99.5884V20.7906C99.5884 19.7642 100.398 18.9549 101.405 18.9549H103.694C104.365 18.9549 104.997 19.3102 105.313 19.9221L110.761 30.1665H111.372V18.9549Z" fill="white" />
	<path d="M126.055 18.9549C128.661 18.9549 130.753 21.0669 130.773 23.6527V28.2715C130.753 30.8771 128.661 32.9694 126.055 32.9694H116.166V18.9549H126.055ZM127.95 24.2448C127.95 22.8631 126.845 21.7578 125.483 21.7578H118.969V30.1665H125.483C126.845 30.1665 127.95 29.0611 127.95 27.6992V24.2448Z" fill="white" />
	<path d="M144.922 18.9549C146.265 18.9549 147.35 20.0208 147.35 21.363V32.9694H144.528V28.3703H135.547V32.9694H132.744V21.363C132.744 20.0208 133.809 18.9549 135.152 18.9549H144.922ZM144.528 21.7578H135.547V25.5674H144.528V21.7578Z" fill="white" />
	<path d="M149.321 18.9549H163.335V21.7578H157.73V32.9694H154.927V21.7578H149.321V18.9549Z" fill="white" />
	<path d="M168.123 32.9694H165.32V18.9549H168.123V32.9694Z" fill="white" />
	<path d="M181.707 18.9549C183.365 18.9549 184.707 20.2774 184.707 21.9354V29.9889C184.707 31.6469 183.365 32.9694 181.707 32.9694H173.081C171.423 32.9694 170.101 31.6469 170.101 29.9889V21.9354C170.101 20.2774 171.423 18.9549 173.081 18.9549H181.707ZM181.885 21.7578H172.904V30.1665H181.885V21.7578Z" fill="white" />
	<path d="M198.462 18.9549H201.285V31.1534C201.285 32.1601 200.456 32.9694 199.449 32.9694H197.278C196.587 32.9892 195.975 32.6141 195.659 32.0022L190.211 21.7578H189.481V32.9694H186.678V20.7906C186.678 19.7642 187.487 18.9549 188.494 18.9549H190.784C191.455 18.9549 192.086 19.3102 192.402 19.9221L197.85 30.1665H198.462V18.9549Z" fill="white" />
	<mask id="mask0_390_81" style="mask-type:luminance" maskUnits="userSpaceOnUse" x="-1" y="0" width="38" height="34">
		<path d="M36.2377 0.909241H-0.000488281V33.3777H36.2377V0.909241Z" fill="white" />
	</mask>
	<g mask="url(#mask0_390_81)">
		<path d="M36.051 26.5083L30.0689 32.9355C29.9389 33.0751 29.7815 33.1864 29.6067 33.2625C29.4318 33.3386 29.2432 33.3778 29.0526 33.3777H0.694002C0.558687 33.3777 0.426324 33.3381 0.31317 33.2637C0.200016 33.1894 0.111003 33.0836 0.0570683 32.9592C0.00313278 32.8349 -0.0133755 32.6976 0.00957164 32.564C0.0325188 32.4303 0.0939216 32.3064 0.186236 32.2073L6.17293 25.7801C6.30263 25.6408 6.45949 25.5297 6.63378 25.4537C6.80807 25.3776 6.99605 25.3382 7.18616 25.3379H35.5432C35.6785 25.3379 35.8109 25.3775 35.9241 25.4519C36.0372 25.5262 36.1262 25.632 36.1802 25.7563C36.2341 25.8806 36.2506 26.018 36.2277 26.1516C36.2047 26.2852 36.1433 26.4092 36.051 26.5083ZM30.0689 13.5658C29.9389 13.4261 29.7815 13.3148 29.6067 13.2387C29.4318 13.1627 29.2432 13.1235 29.0526 13.1236H0.694002C0.558687 13.1236 0.426324 13.1632 0.31317 13.2375C0.200016 13.3118 0.111003 13.4177 0.0570683 13.542C0.00313278 13.6663 -0.0133755 13.8037 0.00957164 13.9373C0.0325188 14.0709 0.0939216 14.1949 0.186236 14.294L6.17293 20.7212C6.30263 20.8604 6.45949 20.9715 6.63378 21.0476C6.80807 21.1236 6.99605 21.1631 7.18616 21.1633H35.5432C35.6785 21.1633 35.8109 21.1238 35.9241 21.0494C36.0372 20.9751 36.1262 20.8692 36.1802 20.7449C36.2341 20.6206 36.2506 20.4832 36.2277 20.3496C36.2047 20.2161 36.1433 20.0921 36.051 19.993L30.0689 13.5658ZM0.694002 8.94906H29.0526C29.2432 8.94912 29.4318 8.90995 29.6067 8.83384C29.7815 8.75778 29.9389 8.64647 30.0689 8.50688L36.051 2.07965C36.1433 1.98054 36.2047 1.85657 36.2277 1.72298C36.2506 1.58939 36.2341 1.45199 36.1802 1.32767C36.1262 1.20335 36.0372 1.09752 35.9241 1.02318C35.8109 0.948849 35.6785 0.909246 35.5432 0.909241H7.18616C6.99605 0.909565 6.80807 0.948977 6.63378 1.02504C6.45949 1.1011 6.30263 1.21219 6.17293 1.35143L0.187779 7.77864C0.0955539 7.87766 0.0341784 8.0015 0.0111792 8.13494C-0.01182 8.26838 0.00455723 8.40562 0.0583027 8.5299C0.112048 8.65418 0.200824 8.76002 0.313745 8.83445C0.426665 8.90894 0.558821 8.94873 0.694002 8.94906Z" fill="white" />
	</g>
</svg>
