<svg width="153" height="32" viewBox="0 0 153 32" fill="none" xmlns="http://www.w3.org/2000/svg">
<path d="M109.916 28.5312V21.4871H114.978V22.6269H111.251V24.5163H114.608V25.6561H111.251V28.5312H109.916ZM116.173 28.5312V21.4871H119.88C120.4 21.4871 120.831 21.5761 121.174 21.7541C121.516 21.9321 121.773 22.1854 121.944 22.514C122.115 22.8425 122.201 23.2293 122.201 23.6743C122.201 24.1329 122.098 24.5403 121.893 24.8962C121.687 25.2454 121.386 25.5089 120.989 25.6869L122.447 28.5312H120.989L119.695 25.9128H117.508V28.5312H116.173ZM117.508 24.7935H119.777C120.119 24.7935 120.383 24.6943 120.568 24.4958C120.753 24.2972 120.845 24.0234 120.845 23.6743C120.845 23.4484 120.804 23.2601 120.722 23.1095C120.64 22.9521 120.52 22.8323 120.363 22.7501C120.205 22.668 120.01 22.6269 119.777 22.6269H117.508V24.7935ZM122.804 28.5312L125.546 21.4871H127.23L129.982 28.5312H128.534L127.969 27.0321H124.745L124.18 28.5312H122.804ZM125.166 25.9025H127.538L126.83 23.9926C126.802 23.9242 126.768 23.8386 126.727 23.7359C126.693 23.6264 126.655 23.51 126.614 23.3868C126.573 23.2567 126.532 23.1266 126.491 22.9966C126.45 22.8665 126.412 22.7501 126.378 22.6474H126.326C126.285 22.7844 126.234 22.9418 126.172 23.1198C126.118 23.2978 126.063 23.4655 126.008 23.6229C125.953 23.7804 125.909 23.9036 125.875 23.9926L125.166 25.9025ZM130.814 28.5312V21.4871H132.087L135.095 25.6458C135.13 25.6869 135.171 25.7451 135.219 25.8204C135.267 25.8888 135.311 25.9573 135.352 26.0258C135.393 26.0942 135.421 26.149 135.434 26.19H135.486C135.486 26.0942 135.486 26.0018 135.486 25.9128C135.486 25.8238 135.486 25.7348 135.486 25.6458V21.4871H136.769V28.5312H135.506L132.487 24.3417C132.433 24.2596 132.367 24.1603 132.292 24.0439C132.224 23.9207 132.176 23.8352 132.148 23.7872H132.097C132.097 23.8762 132.097 23.9686 132.097 24.0645C132.097 24.1535 132.097 24.2459 132.097 24.3417V28.5312H130.814ZM141.435 28.6545C140.717 28.6545 140.101 28.5278 139.587 28.2745C139.081 28.0213 138.69 27.6276 138.416 27.0937C138.15 26.5529 138.016 25.858 138.016 25.0092C138.016 23.7701 138.317 22.8528 138.92 22.2572C139.522 21.6617 140.361 21.3639 141.435 21.3639C142.017 21.3639 142.541 21.4632 143.006 21.6617C143.479 21.8602 143.852 22.1614 144.126 22.5653C144.406 22.9623 144.547 23.4689 144.547 24.085H143.181C143.181 23.7427 143.106 23.4552 142.955 23.2225C142.811 22.9829 142.609 22.8015 142.349 22.6782C142.089 22.555 141.791 22.4934 141.456 22.4934C140.99 22.4934 140.604 22.5858 140.296 22.7707C139.988 22.9487 139.758 23.2156 139.608 23.5716C139.464 23.9276 139.392 24.3691 139.392 24.8962V25.1221C139.392 25.6561 139.464 26.1011 139.608 26.457C139.758 26.813 139.984 27.08 140.285 27.258C140.593 27.436 140.984 27.5249 141.456 27.5249C141.812 27.5249 142.123 27.4668 142.39 27.3504C142.657 27.2272 142.863 27.0492 143.006 26.8164C143.157 26.5768 143.232 26.2859 143.232 25.9436H144.547C144.547 26.5597 144.41 27.0697 144.136 27.4736C143.862 27.8706 143.489 28.1684 143.017 28.367C142.551 28.5586 142.024 28.6545 141.435 28.6545ZM145.735 28.5312V21.4871H151.228V22.6269H147.07V24.3623H150.777V25.5021H147.07V27.3915H151.29V28.5312H145.735Z" fill="white"/>
<path d="M18.1298 3.75441H22.8546V5.60868C22.8546 8.12308 20.8546 10.1554 18.3796 10.1554H18.1295L18.1298 3.75441ZM11.4051 1.06201H18.1298V18.5621H17.3299C12.455 18.5621 11.4803 15.1077 11.4803 12.0344L11.4051 1.06201ZM0.480469 5.02434C0.480469 8.14852 2.68038 9.29141 5.13038 9.67263H0.480469V18.6131H4.95549C9.45519 18.6131 9.98024 16.5811 9.98024 14.6507C9.98024 12.2885 8.38022 10.6377 5.90546 10.0025H9.98024V1.06201H5.50522C1.00548 1.06201 0.480469 3.09397 0.480469 5.02434Z" fill="white"/>
<path fill-rule="evenodd" clip-rule="evenodd" d="M98.8099 15.68C98.0005 15.68 97.3371 15.5488 96.8203 15.295C96.3035 15.0412 95.9243 14.6648 95.6834 14.1573C95.4419 13.6497 95.3214 13.0283 95.3214 12.2845V6.0621H93.53V3.59415H95.4508L96.0709 0.154785H98.569V3.59415H101.179V6.0621H98.569V11.8119C98.569 12.2582 98.6634 12.5996 98.8443 12.8358C99.0253 13.0721 99.3784 13.1859 99.8952 13.1859H101.179V15.3213C100.989 15.3825 100.748 15.435 100.473 15.4874C100.188 15.54 99.9041 15.5838 99.611 15.6188C99.3096 15.6538 99.0425 15.68 98.8099 15.68ZM33.2776 15.6802C32.4335 15.6802 31.6583 15.6014 30.9434 15.4351C30.2284 15.2688 29.6082 15.0325 29.0742 14.7262C28.5401 14.4198 28.1266 14.0348 27.8338 13.5797C27.5409 13.1247 27.3945 12.5996 27.3945 11.9957V11.812C27.3945 11.7507 27.4031 11.6982 27.4203 11.6544H30.6247V11.7594V11.8645C30.6419 12.2233 30.7711 12.5121 31.0209 12.7396C31.2706 12.9672 31.6066 13.1247 32.0201 13.2209C32.4335 13.3173 32.8641 13.3697 33.3207 13.3697C33.7514 13.3697 34.1648 13.3435 34.5697 13.2821C34.9745 13.2209 35.3104 13.0984 35.5861 12.9234C35.8617 12.7396 35.991 12.5032 35.991 12.2058C35.991 11.8294 35.8273 11.5581 35.5086 11.3744C35.1812 11.1906 34.742 11.0505 34.1735 10.9455C33.8816 10.8916 33.5716 10.8331 33.2434 10.7712L33.2428 10.771L33.2422 10.7709C32.9315 10.7123 32.6045 10.6505 32.2612 10.5867C31.6755 10.4817 31.107 10.3504 30.573 10.1841C30.0389 10.0178 29.5479 9.8078 29.1258 9.5453C28.6952 9.28274 28.3593 8.95019 28.1094 8.53011C27.8596 8.11882 27.7304 7.60245 27.7304 6.98981C27.7304 6.34219 27.8682 5.79085 28.1525 5.32702C28.4367 4.86319 28.833 4.47812 29.3498 4.18057C29.8666 3.88301 30.4782 3.66421 31.1759 3.51544C31.8736 3.37541 32.6316 3.30541 33.4413 3.30541C34.1907 3.30541 34.9056 3.37541 35.5689 3.51544C36.2321 3.65546 36.8092 3.86552 37.2916 4.14557C37.7826 4.42562 38.1616 4.76694 38.4545 5.18702C38.7473 5.6071 38.8851 6.07969 38.8851 6.60475V6.84976C38.8851 6.92855 38.8765 6.98106 38.8593 7.03357H35.655V6.87604C35.655 6.58726 35.5517 6.35973 35.3536 6.17597C35.1554 5.99216 34.8798 5.86085 34.5352 5.75583C34.1907 5.65081 33.7944 5.60707 33.3552 5.60707C33.1312 5.60707 32.8814 5.62456 32.6058 5.65081C32.3302 5.67709 32.0545 5.7296 31.7961 5.80834C31.5377 5.88713 31.331 5.99216 31.1759 6.12346C31.0209 6.25471 30.9434 6.42973 30.9434 6.63977C30.9434 6.91107 31.0812 7.12111 31.3654 7.27864C31.6497 7.43618 32.0201 7.55868 32.4852 7.64622C32.79 7.70358 33.1096 7.76467 33.4489 7.82953L33.4495 7.82964L33.45 7.82975C33.6281 7.86382 33.8116 7.8989 34.0012 7.935C34.6214 8.06631 35.2415 8.2063 35.8617 8.34635C36.4819 8.48634 37.0505 8.67884 37.5673 8.92391C38.0841 9.16018 38.4889 9.51033 38.7818 9.95664C39.0747 10.403 39.2211 11.0068 39.2211 11.7507C39.2211 12.4684 39.0747 13.0808 38.7904 13.5797C38.5061 14.0787 38.0927 14.4899 37.5673 14.7962C37.0332 15.1025 36.413 15.3213 35.6894 15.4613C34.9659 15.6014 34.1476 15.6802 33.2776 15.6802ZM45.6217 15.6799C44.2349 15.6799 43.1669 15.3211 42.4002 14.6035C41.6423 13.8859 41.2632 12.7569 41.2632 11.2079V3.59404H44.4934V10.674C44.4934 11.1116 44.545 11.4704 44.6484 11.768C44.7517 12.0568 44.9068 12.2931 45.1135 12.4768C45.3201 12.6606 45.57 12.7919 45.8542 12.8707C46.1385 12.9495 46.4658 12.9932 46.8362 12.9932C47.3703 12.9932 47.8527 12.8707 48.2834 12.6344C48.714 12.3981 49.0672 12.0568 49.3341 11.6367C49.6013 11.2079 49.7304 10.7265 49.7304 10.1839V3.6028H52.9777V15.4262H50.3248L50.0835 13.6321H49.9285C49.5754 14.0959 49.1791 14.4809 48.7312 14.7873C48.2919 15.0936 47.8009 15.3211 47.2583 15.4699C46.7156 15.6186 46.1817 15.6799 45.6217 15.6799ZM55.6812 3.58498V19.5216H58.946V14.0343H59.0753C59.3507 14.3931 59.6954 14.6995 60.0918 14.9445C60.4876 15.1896 60.9273 15.3733 61.4097 15.4958C61.8832 15.6183 62.3828 15.6797 62.8997 15.6797C63.9333 15.6797 64.8293 15.4521 65.596 15.0057C66.3626 14.5507 66.9566 13.8682 67.3957 12.9579C67.8354 12.0478 68.0508 10.8925 68.0508 9.50102C68.0508 8.07454 67.8437 6.90182 67.4129 5.99165C66.9827 5.0815 66.3793 4.40763 65.5871 3.97005C64.7943 3.53248 63.8645 3.31368 62.7875 3.31368C61.9609 3.31368 61.1943 3.46247 60.4965 3.76003C59.7903 4.06633 59.213 4.57392 58.7567 5.29155H58.6012L58.317 3.58498H55.6812ZM63.4853 12.6341C63.0545 12.8792 62.5122 13.0017 61.8488 13.0017C61.3492 13.0017 60.9184 12.9229 60.5481 12.7829C60.1861 12.6341 59.8936 12.4065 59.6438 12.1178C59.394 11.8289 59.2041 11.4702 59.0753 11.0413C58.946 10.6212 58.8771 10.1486 58.8771 9.64107V9.32601C58.8771 8.63462 58.9893 8.03957 59.2219 7.54069C59.4539 7.04187 59.7814 6.65681 60.2206 6.38551C60.6513 6.11421 61.1854 5.98291 61.8227 5.98291C62.5033 5.98291 63.0545 6.10541 63.4853 6.35043C63.9072 6.5955 64.2264 6.97181 64.433 7.4619C64.6395 7.96078 64.7427 8.56463 64.7427 9.28224V9.72861C64.7427 10.42 64.6395 11.015 64.433 11.5139C64.2264 12.0127 63.9161 12.3891 63.4853 12.6341ZM76.4317 15.6794C75.0278 15.6794 73.8392 15.4606 72.8572 15.0144C71.8751 14.568 71.1257 13.8941 70.6089 12.9839C70.092 12.0738 69.8339 10.9098 69.8339 9.50085C69.8339 8.09186 70.092 6.92788 70.6089 6.01771C71.1257 5.10756 71.8668 4.42493 72.8311 3.98735C73.7959 3.54977 74.9673 3.32224 76.3368 3.32224C77.6808 3.32224 78.8177 3.54102 79.7565 3.9786C80.6957 4.41618 81.4019 5.07256 81.8754 5.9652C82.3578 6.85788 82.5904 7.97804 82.5904 9.32578V10.2447H73.167C73.193 10.9361 73.3396 11.505 73.5894 11.96C73.8392 12.4152 74.2006 12.7477 74.683 12.9577C75.1655 13.1677 75.76 13.2728 76.4661 13.2728C76.8192 13.2728 77.1551 13.229 77.4826 13.1503C77.8101 13.0715 78.1027 12.9401 78.3697 12.7651C78.6367 12.5901 78.861 12.38 79.0331 12.1263C79.2141 11.8725 79.309 11.5837 79.3173 11.2511H82.5649C82.5649 11.9425 82.4095 12.5639 82.108 13.1153C81.8066 13.6666 81.393 14.1304 80.859 14.5067C80.3249 14.883 79.6876 15.1719 78.9382 15.3732C78.1976 15.5745 77.3533 15.6794 76.4317 15.6794ZM73.2191 8.19688H79.188C79.188 7.77679 79.1191 7.40922 78.9815 7.09415C78.8438 6.77909 78.6456 6.51653 78.3958 6.30649C78.146 6.09644 77.8529 5.94771 77.5087 5.84269C77.1728 5.74641 76.7937 5.6939 76.3801 5.6939C75.7428 5.6939 75.1999 5.79018 74.7519 5.97394C74.3044 6.1577 73.9508 6.44654 73.701 6.81411C73.4601 7.19917 73.2963 7.65423 73.2191 8.19688ZM84.8915 3.58546V15.4088V15.4176H88.1474V9.6678C88.1474 9.17772 88.199 8.74015 88.3111 8.34635C88.4227 7.95249 88.6037 7.61119 88.8452 7.32241C89.0861 7.03357 89.3876 6.80605 89.7495 6.64851C90.1109 6.49098 90.5417 6.41219 91.0413 6.41219H92.3248V3.53295C92.161 3.47169 91.9717 3.41919 91.748 3.37543C91.5237 3.33168 91.2828 3.30541 91.0158 3.30541C90.5073 3.30541 90.0421 3.40169 89.6374 3.59423C89.2327 3.78676 88.8879 4.05805 88.6126 4.39936C88.3283 4.74067 88.113 5.11701 87.9664 5.51958H87.8115L87.5445 3.58546H84.8915ZM105.641 15.0144C106.622 15.4606 107.812 15.6794 109.215 15.6794C110.146 15.6794 110.981 15.5745 111.731 15.3732C112.48 15.1719 113.118 14.883 113.652 14.5067C114.186 14.1304 114.599 13.6666 114.9 13.1153C115.202 12.5639 115.357 11.9425 115.357 11.2511H112.109C112.101 11.5837 112.006 11.8725 111.825 12.1263C111.653 12.38 111.429 12.5901 111.162 12.7651C110.895 12.9401 110.602 13.0715 110.275 13.1503C109.948 13.229 109.612 13.2728 109.258 13.2728C108.552 13.2728 107.958 13.1677 107.476 12.9577C106.993 12.7477 106.631 12.4152 106.381 11.96C106.132 11.505 105.985 10.9361 105.96 10.2447H115.374V9.32578C115.374 7.97804 115.142 6.85788 114.659 5.9652C114.186 5.07256 113.479 4.41618 112.54 3.9786C111.601 3.54102 110.465 3.32224 109.121 3.32224C107.751 3.32224 106.58 3.54977 105.615 3.98735C104.65 4.42493 103.909 5.10756 103.393 6.01771C102.876 6.92788 102.617 8.09186 102.617 9.50085C102.617 10.9098 102.876 12.0738 103.393 12.9839C103.909 13.8941 104.659 14.568 105.641 15.0144ZM111.972 8.19688H106.002C106.08 7.65423 106.244 7.19917 106.485 6.81411C106.735 6.44654 107.088 6.1577 107.536 5.97394C107.984 5.79018 108.527 5.6939 109.164 5.6939C109.577 5.6939 109.956 5.74641 110.292 5.84269C110.637 5.94771 110.93 6.09644 111.18 6.30649C111.429 6.51653 111.627 6.77909 111.765 7.09415C111.903 7.40922 111.972 7.77679 111.972 8.19688ZM121.404 15.6802C120.887 15.6802 120.37 15.6276 119.854 15.5226C119.337 15.4177 118.88 15.2425 118.476 15.0062C118.07 14.7699 117.743 14.4287 117.494 13.9823C117.244 13.5447 117.115 12.9759 117.115 12.2845C117.115 11.4006 117.321 10.683 117.735 10.1404C118.148 9.59781 118.743 9.18646 119.526 8.90642C120.31 8.62639 121.232 8.44257 122.3 8.35509C123.368 8.26755 124.548 8.22378 125.831 8.22378V7.52366C125.831 7.12111 125.745 6.7885 125.573 6.52595C125.401 6.26345 125.142 6.05341 124.78 5.90468C124.419 5.75589 123.937 5.67709 123.334 5.67709C122.8 5.67709 122.352 5.7296 121.973 5.84337C121.593 5.95719 121.309 6.10592 121.111 6.28099C120.913 6.45601 120.81 6.67474 120.81 6.91107V7.18236H117.622C117.61 7.11519 117.601 7.0532 117.594 7.0003C117.592 6.98428 117.59 6.96905 117.588 6.95478C117.58 6.89353 117.58 6.82359 117.58 6.72731C117.58 6.03592 117.812 5.43207 118.269 4.91572C118.725 4.39938 119.397 4.00551 120.267 3.72546C121.137 3.44541 122.196 3.30541 123.42 3.30541C124.643 3.30541 125.668 3.4367 126.504 3.708C127.339 3.97929 127.976 4.39938 128.415 4.96823C128.855 5.53708 129.079 6.26345 129.079 7.14734V12.3371C129.079 12.6083 129.148 12.8096 129.285 12.9583C129.424 13.0984 129.596 13.1685 129.802 13.1685H130.733V15.2776C130.569 15.3476 130.311 15.4263 129.958 15.5139C129.604 15.5927 129.191 15.6364 128.717 15.6364C128.175 15.6364 127.718 15.5664 127.365 15.4263C127.012 15.2863 126.736 15.0937 126.538 14.84C126.34 14.5862 126.193 14.3061 126.107 13.9736H125.926C125.616 14.3061 125.237 14.5949 124.789 14.8574C124.341 15.12 123.833 15.3213 123.265 15.4526C122.705 15.6101 122.085 15.6802 121.404 15.6802ZM122.377 13.2472C122.808 13.2472 123.222 13.1947 123.626 13.0808C124.031 12.9671 124.393 12.8096 124.72 12.6083C125.047 12.407 125.306 12.1532 125.513 11.847C125.72 11.5407 125.823 11.208 125.823 10.8493V10.1929C124.669 10.1929 123.695 10.2454 122.877 10.3592C122.067 10.473 121.439 10.6567 121.008 10.9193C120.577 11.1818 120.353 11.5407 120.353 12.0133C120.353 12.3108 120.439 12.5559 120.62 12.7309C120.801 12.9147 121.042 13.0459 121.352 13.1247C121.671 13.2122 122.007 13.2472 122.377 13.2472ZM132.258 3.58477V15.4081H135.522V8.78318C135.522 8.24059 135.643 7.75931 135.875 7.33048C136.117 6.90165 136.436 6.57784 136.84 6.34151C137.245 6.10524 137.685 5.99142 138.175 5.99142C138.511 5.99142 138.813 6.02645 139.071 6.10524C139.33 6.18398 139.554 6.30649 139.734 6.4903C139.915 6.66532 140.062 6.91039 140.165 7.20792C140.269 7.5055 140.32 7.86427 140.32 8.28436V15.4081H143.55V8.78318C143.55 8.24059 143.671 7.75931 143.912 7.33048C144.153 6.90165 144.481 6.57784 144.885 6.34151C145.29 6.10524 145.738 5.99142 146.22 5.99142C146.522 5.99142 146.814 6.02645 147.091 6.10524C147.358 6.18398 147.582 6.30649 147.763 6.4903C147.935 6.66532 148.072 6.91039 148.167 7.20792C148.262 7.5055 148.313 7.86427 148.313 8.28436V15.4081H151.587V7.72423C151.587 6.70029 151.414 5.86017 151.078 5.20378C150.734 4.54742 150.26 4.06612 149.649 3.76857C149.038 3.47101 148.297 3.32224 147.427 3.32224C146.884 3.32224 146.35 3.39224 145.824 3.53226C145.299 3.67229 144.817 3.89984 144.386 4.20614C143.955 4.51245 143.576 4.89753 143.249 5.36136H143.094C142.775 4.64373 142.293 4.12737 141.681 3.80356C141.069 3.47975 140.303 3.32224 139.407 3.32224C138.873 3.32224 138.356 3.39224 137.857 3.53226C137.357 3.67229 136.892 3.89984 136.453 4.20614C136.013 4.51245 135.643 4.89753 135.333 5.36136H135.178L134.911 3.58477H132.258Z" fill="white"/>
</svg>
