<svg viewBox="0 0 152 31" fill="none" xmlns="http://www.w3.org/2000/svg">
	<path d="M103.01 28.6546C101.922 28.6546 101.077 28.3637 100.474 27.7818C99.8718 27.1931 99.5705 26.2689 99.5705 25.0093C99.5705 24.181 99.7109 23.4998 99.9916 22.9659C100.279 22.4251 100.69 22.0246 101.224 21.7645C101.765 21.4975 102.411 21.364 103.164 21.364C103.616 21.364 104.041 21.4154 104.438 21.518C104.835 21.6207 105.184 21.7782 105.485 21.9904C105.793 22.1958 106.033 22.4559 106.204 22.7708C106.375 23.0857 106.461 23.4588 106.461 23.89H105.085C105.085 23.6641 105.033 23.4656 104.931 23.2945C104.835 23.1165 104.698 22.9693 104.52 22.8529C104.349 22.7297 104.15 22.6407 103.924 22.586C103.698 22.5243 103.459 22.4935 103.206 22.4935C102.829 22.4935 102.497 22.5449 102.21 22.6476C101.929 22.7434 101.693 22.894 101.501 23.0994C101.316 23.2979 101.176 23.5478 101.08 23.849C100.991 24.1502 100.947 24.5027 100.947 24.9066V25.1223C100.947 25.6768 101.025 26.132 101.183 26.488C101.34 26.8439 101.576 27.1075 101.891 27.2786C102.213 27.4429 102.61 27.5251 103.082 27.5251C103.486 27.5251 103.839 27.4635 104.14 27.3402C104.448 27.217 104.688 27.039 104.859 26.8063C105.037 26.5667 105.126 26.2757 105.126 25.9335V25.8616H102.877V24.7526H106.461V28.5314H105.506L105.393 27.751C105.187 27.9563 104.968 28.1275 104.736 28.2644C104.503 28.3945 104.246 28.4903 103.965 28.5519C103.685 28.6204 103.366 28.6546 103.01 28.6546ZM107.959 28.5314V21.4872H113.453V22.627H109.294V24.3624H113.001V25.5022H109.294V27.3916H113.515V28.5314H107.959ZM114.858 28.5314V21.4872H118.565C119.086 21.4872 119.517 21.5762 119.859 21.7542C120.201 21.9322 120.458 22.1855 120.629 22.5141C120.8 22.8427 120.886 23.2294 120.886 23.6744C120.886 24.1331 120.783 24.5404 120.578 24.8964C120.373 25.2455 120.071 25.509 119.674 25.687L121.132 28.5314H119.674L118.38 25.9129H116.193V28.5314H114.858ZM116.193 24.7937H118.463C118.805 24.7937 119.068 24.6944 119.253 24.4959C119.438 24.2974 119.531 24.0235 119.531 23.6744C119.531 23.4485 119.489 23.2602 119.407 23.1096C119.325 22.9522 119.205 22.8324 119.048 22.7503C118.89 22.6681 118.695 22.627 118.463 22.627H116.193V24.7937ZM122.219 28.5314V21.4872H124.324L125.433 25.4098C125.474 25.5467 125.515 25.7007 125.556 25.8719C125.597 26.043 125.635 26.2073 125.669 26.3647C125.71 26.5222 125.741 26.6591 125.761 26.7755H125.844C125.857 26.6728 125.878 26.5461 125.905 26.3955C125.933 26.2449 125.963 26.0841 125.998 25.9129C126.039 25.7349 126.083 25.5638 126.131 25.3995L127.24 21.4872H129.325V28.5314H127.99V24.9682C127.99 24.6533 127.993 24.3384 128 24.0235C128.007 23.7086 128.014 23.4382 128.02 23.2123C128.034 22.9864 128.041 22.8529 128.041 22.8119H127.959C127.945 22.8735 127.911 23.007 127.856 23.2123C127.801 23.4177 127.743 23.6402 127.682 23.8798C127.62 24.1194 127.565 24.3247 127.517 24.4959L126.357 28.5314H125.125L123.964 24.5062C123.923 24.3624 123.875 24.1913 123.821 23.9927C123.773 23.7874 123.721 23.5786 123.667 23.3664C123.619 23.1541 123.574 22.9693 123.533 22.8119H123.451C123.458 22.9967 123.465 23.2192 123.472 23.4793C123.478 23.7326 123.485 23.9927 123.492 24.2597C123.499 24.5198 123.502 24.756 123.502 24.9682V28.5314H122.219ZM130.154 28.5314L132.895 21.4872H134.579L137.331 28.5314H135.883L135.319 27.0322H132.094L131.53 28.5314H130.154ZM132.515 25.9027H134.887L134.179 23.9927C134.152 23.9243 134.117 23.8387 134.076 23.736C134.042 23.6265 134.004 23.5101 133.963 23.3869C133.922 23.2568 133.881 23.1268 133.84 22.9967C133.799 22.8666 133.761 22.7503 133.727 22.6476H133.676C133.635 22.7845 133.583 22.9419 133.522 23.1199C133.467 23.2979 133.412 23.4656 133.357 23.6231C133.303 23.7805 133.258 23.9037 133.224 23.9927L132.515 25.9027ZM138.163 28.5314V21.4872H139.436L142.445 25.6459C142.479 25.687 142.52 25.7452 142.568 25.8205C142.616 25.889 142.66 25.9574 142.702 26.0259C142.743 26.0943 142.77 26.1491 142.784 26.1902H142.835C142.835 26.0943 142.835 26.0019 142.835 25.9129C142.835 25.8239 142.835 25.7349 142.835 25.6459V21.4872H144.119V28.5314H142.856L139.837 24.3419C139.782 24.2597 139.717 24.1604 139.642 24.0441C139.573 23.9209 139.525 23.8353 139.498 23.7874H139.446C139.446 23.8764 139.446 23.9688 139.446 24.0646C139.446 24.1536 139.446 24.246 139.446 24.3419V28.5314H138.163ZM147.717 28.5314V25.6665L145.006 21.4872H146.546L148.405 24.4651H148.456L150.294 21.4872H151.752L149.052 25.6665V28.5314H147.717Z" fill="white" />
	<path d="M18.1298 3.75441H22.8546V5.60868C22.8546 8.12308 20.8546 10.1554 18.3796 10.1554H18.1295L18.1298 3.75441ZM11.4051 1.06201H18.1298V18.5621H17.3299C12.455 18.5621 11.4803 15.1077 11.4803 12.0344L11.4051 1.06201ZM0.480469 5.02434C0.480469 8.14852 2.68038 9.29141 5.13038 9.67263H0.480469V18.6131H4.95549C9.45519 18.6131 9.98024 16.5811 9.98024 14.6507C9.98024 12.2885 8.38022 10.6377 5.90546 10.0025H9.98024V1.06201H5.50522C1.00548 1.06201 0.480469 3.09397 0.480469 5.02434Z" fill="white" />
	<path fill-rule="evenodd" clip-rule="evenodd" d="M98.8099 15.6798C98.0005 15.6798 97.3371 15.5486 96.8203 15.2947C96.3035 15.0409 95.9243 14.6646 95.6834 14.157C95.4419 13.6495 95.3214 13.028 95.3214 12.2842V6.06185H93.53V3.5939H95.4508L96.0709 0.154541H98.569V3.5939H101.179V6.06185H98.569V11.8117C98.569 12.258 98.6634 12.5993 98.8443 12.8356C99.0253 13.0719 99.3784 13.1857 99.8952 13.1857H101.179V15.321C100.989 15.3823 100.748 15.4348 100.473 15.4872C100.188 15.5398 99.9041 15.5836 99.611 15.6185C99.3096 15.6535 99.0425 15.6798 98.8099 15.6798ZM33.2776 15.6799C32.4335 15.6799 31.6583 15.6011 30.9434 15.4348C30.2284 15.2685 29.6082 15.0322 29.0742 14.726C28.5401 14.4196 28.1266 14.0346 27.8338 13.5794C27.5409 13.1244 27.3945 12.5993 27.3945 11.9955V11.8117C27.3945 11.7505 27.4031 11.6979 27.4203 11.6542H30.6247V11.7592V11.8642C30.6419 12.2231 30.7711 12.5118 31.0209 12.7394C31.2706 12.9669 31.6066 13.1244 32.0201 13.2206C32.4335 13.317 32.8641 13.3694 33.3207 13.3694C33.7514 13.3694 34.1648 13.3433 34.5697 13.2819C34.9745 13.2206 35.3104 13.0981 35.5861 12.9231C35.8617 12.7394 35.991 12.503 35.991 12.2055C35.991 11.8292 35.8273 11.5579 35.5086 11.3741C35.1812 11.1904 34.742 11.0503 34.1735 10.9453C33.8816 10.8913 33.5716 10.8328 33.2434 10.7709L33.2428 10.7708L33.2422 10.7707C32.9315 10.712 32.6045 10.6503 32.2612 10.5865C31.6755 10.4815 31.107 10.3501 30.573 10.1839C30.0389 10.0176 29.5479 9.80755 29.1258 9.54505C28.6952 9.2825 28.3593 8.94995 28.1094 8.52986C27.8596 8.11857 27.7304 7.60221 27.7304 6.98956C27.7304 6.34195 27.8682 5.79061 28.1525 5.32678C28.4367 4.86295 28.833 4.47788 29.3498 4.18032C29.8666 3.88277 30.4782 3.66397 31.1759 3.51519C31.8736 3.37517 32.6316 3.30517 33.4413 3.30517C34.1907 3.30517 34.9056 3.37517 35.5689 3.51519C36.2321 3.65522 36.8092 3.86528 37.2916 4.14533C37.7826 4.42538 38.1616 4.7667 38.4545 5.18678C38.7473 5.60685 38.8851 6.07945 38.8851 6.6045V6.84951C38.8851 6.92831 38.8765 6.98082 38.8593 7.03333H35.655V6.8758C35.655 6.58702 35.5517 6.35949 35.3536 6.17573C35.1554 5.99191 34.8798 5.86061 34.5352 5.75559C34.1907 5.65056 33.7944 5.60683 33.3552 5.60683C33.1312 5.60683 32.8814 5.62432 32.6058 5.65056C32.3302 5.67685 32.0545 5.72936 31.7961 5.8081C31.5377 5.88689 31.331 5.99191 31.1759 6.12322C31.0209 6.25447 30.9434 6.42948 30.9434 6.63953C30.9434 6.91082 31.0812 7.12087 31.3654 7.2784C31.6497 7.43593 32.0201 7.55844 32.4852 7.64598C32.79 7.70334 33.1096 7.76442 33.4489 7.82928L33.4495 7.8294L33.45 7.82951C33.6281 7.86358 33.8116 7.89866 34.0012 7.93476C34.6214 8.06606 35.2415 8.20605 35.8617 8.3461C36.4819 8.48609 37.0505 8.6786 37.5673 8.92367C38.0841 9.15994 38.4889 9.51008 38.7818 9.9564C39.0747 10.4027 39.2211 11.0066 39.2211 11.7505C39.2211 12.4681 39.0747 13.0806 38.7904 13.5794C38.5061 14.0784 38.0927 14.4897 37.5673 14.796C37.0332 15.1023 36.413 15.321 35.6894 15.4611C34.9659 15.6011 34.1476 15.6799 33.2776 15.6799ZM45.6217 15.6796C44.2349 15.6796 43.1669 15.3209 42.4002 14.6033C41.6423 13.8856 41.2632 12.7567 41.2632 11.2077V3.5938H44.4934V10.6738C44.4934 11.1114 44.545 11.4702 44.6484 11.7677C44.7517 12.0566 44.9068 12.2928 45.1135 12.4766C45.3201 12.6604 45.57 12.7916 45.8542 12.8704C46.1385 12.9492 46.4658 12.9929 46.8362 12.9929C47.3703 12.9929 47.8527 12.8704 48.2834 12.6342C48.714 12.3979 49.0672 12.0566 49.3341 11.6365C49.6013 11.2076 49.7304 10.7263 49.7304 10.1837V3.60255H52.9777V15.4259H50.3248L50.0835 13.6318H49.9285C49.5754 14.0957 49.1791 14.4807 48.7312 14.7871C48.2919 15.0933 47.8009 15.3209 47.2583 15.4696C46.7156 15.6184 46.1817 15.6796 45.6217 15.6796ZM55.6812 3.58474V19.5213H58.946V14.0341H59.0753C59.3507 14.3929 59.6954 14.6992 60.0918 14.9443C60.4876 15.1893 60.9273 15.3731 61.4097 15.4956C61.8832 15.6181 62.3828 15.6795 62.8997 15.6795C63.9333 15.6795 64.8293 15.4519 65.596 15.0055C66.3626 14.5505 66.9566 13.8679 67.3957 12.9576C67.8354 12.0475 68.0508 10.8923 68.0508 9.50078C68.0508 8.0743 67.8437 6.90157 67.4129 5.9914C66.9827 5.08126 66.3793 4.40739 65.5871 3.96981C64.7943 3.53223 63.8645 3.31344 62.7875 3.31344C61.9609 3.31344 61.1943 3.46223 60.4965 3.75978C59.7903 4.06609 59.213 4.57368 58.7567 5.29131H58.6012L58.317 3.58474H55.6812ZM63.4853 12.6338C63.0545 12.879 62.5122 13.0015 61.8488 13.0015C61.3492 13.0015 60.9184 12.9227 60.5481 12.7826C60.1861 12.6338 59.8936 12.4062 59.6438 12.1175C59.394 11.8287 59.2041 11.4699 59.0753 11.0411C58.946 10.621 58.8771 10.1484 58.8771 9.64083V9.32576C58.8771 8.63438 58.9893 8.03933 59.2219 7.54045C59.4539 7.04162 59.7814 6.65656 60.2206 6.38526C60.6513 6.11397 61.1854 5.98266 61.8227 5.98266C62.5033 5.98266 63.0545 6.10517 63.4853 6.35018C63.9072 6.59525 64.2264 6.97157 64.433 7.46165C64.6395 7.96053 64.7427 8.56438 64.7427 9.28199V9.72836C64.7427 10.4197 64.6395 11.0148 64.433 11.5137C64.2264 12.0125 63.9161 12.3888 63.4853 12.6338ZM76.4317 15.6791C75.0278 15.6791 73.8392 15.4604 72.8572 15.0141C71.8751 14.5677 71.1257 13.8939 70.6089 12.9837C70.092 12.0735 69.8339 10.9096 69.8339 9.50061C69.8339 8.09161 70.092 6.92763 70.6089 6.01746C71.1257 5.10732 71.8668 4.42469 72.8311 3.98711C73.7959 3.54953 74.9673 3.32199 76.3368 3.32199C77.6808 3.32199 78.8177 3.54078 79.7565 3.97836C80.6957 4.41594 81.4019 5.07232 81.8754 5.96495C82.3578 6.85764 82.5904 7.97779 82.5904 9.32554V10.2444H73.167C73.193 10.9358 73.3396 11.5047 73.5894 11.9598C73.8392 12.4149 74.2006 12.7474 74.683 12.9574C75.1655 13.1675 75.76 13.2725 76.4661 13.2725C76.8192 13.2725 77.1551 13.2287 77.4826 13.15C77.8101 13.0712 78.1027 12.9399 78.3697 12.7649C78.6367 12.5898 78.861 12.3798 79.0331 12.126C79.2141 11.8723 79.309 11.5834 79.3173 11.2509H82.5649C82.5649 11.9423 82.4095 12.5637 82.108 13.1151C81.8066 13.6664 81.393 14.1301 80.859 14.5065C80.3249 14.8828 79.6876 15.1716 78.9382 15.3729C78.1976 15.5742 77.3533 15.6791 76.4317 15.6791ZM73.2191 8.19664H79.188C79.188 7.77655 79.1191 7.40897 78.9815 7.09391C78.8438 6.77884 78.6456 6.51629 78.3958 6.30624C78.146 6.0962 77.8529 5.94747 77.5087 5.84244C77.1728 5.74617 76.7937 5.69365 76.3801 5.69365C75.7428 5.69365 75.1999 5.78993 74.7519 5.97369C74.3044 6.15745 73.9508 6.44629 73.701 6.81387C73.4601 7.19893 73.2963 7.65399 73.2191 8.19664ZM84.8915 3.58522V15.4086V15.4174H88.1474V9.66756C88.1474 9.17748 88.199 8.73991 88.3111 8.3461C88.4227 7.95224 88.6037 7.61095 88.8452 7.32217C89.0861 7.03333 89.3876 6.8058 89.7495 6.64827C90.1109 6.49074 90.5417 6.41194 91.0413 6.41194H92.3248V3.53271C92.161 3.47145 91.9717 3.41895 91.748 3.37519C91.5237 3.33143 91.2828 3.30517 91.0158 3.30517C90.5073 3.30517 90.0421 3.40145 89.6374 3.59398C89.2327 3.78651 88.8879 4.0578 88.6126 4.39911C88.3283 4.74042 88.113 5.11676 87.9664 5.51934H87.8115L87.5445 3.58522H84.8915ZM105.641 15.0141C106.622 15.4604 107.812 15.6791 109.215 15.6791C110.146 15.6791 110.981 15.5742 111.731 15.3729C112.48 15.1716 113.118 14.8828 113.652 14.5065C114.186 14.1301 114.599 13.6664 114.9 13.1151C115.202 12.5637 115.357 11.9423 115.357 11.2509H112.109C112.101 11.5834 112.006 11.8723 111.825 12.126C111.653 12.3798 111.429 12.5898 111.162 12.7649C110.895 12.9399 110.602 13.0712 110.275 13.15C109.948 13.2287 109.612 13.2725 109.258 13.2725C108.552 13.2725 107.958 13.1675 107.476 12.9574C106.993 12.7474 106.631 12.4149 106.381 11.9598C106.132 11.5047 105.985 10.9358 105.96 10.2444H115.374V9.32554C115.374 7.97779 115.142 6.85764 114.659 5.96495C114.186 5.07232 113.479 4.41594 112.54 3.97836C111.601 3.54078 110.465 3.32199 109.121 3.32199C107.751 3.32199 106.58 3.54953 105.615 3.98711C104.65 4.42469 103.909 5.10732 103.393 6.01746C102.876 6.92763 102.617 8.09161 102.617 9.50061C102.617 10.9096 102.876 12.0735 103.393 12.9837C103.909 13.8939 104.659 14.5677 105.641 15.0141ZM111.972 8.19664H106.002C106.08 7.65399 106.244 7.19893 106.485 6.81387C106.735 6.44629 107.088 6.15745 107.536 5.97369C107.984 5.78993 108.527 5.69365 109.164 5.69365C109.577 5.69365 109.956 5.74617 110.292 5.84244C110.637 5.94747 110.93 6.0962 111.18 6.30624C111.429 6.51629 111.627 6.77884 111.765 7.09391C111.903 7.40897 111.972 7.77655 111.972 8.19664ZM121.404 15.6799C120.887 15.6799 120.37 15.6274 119.854 15.5223C119.337 15.4174 118.88 15.2422 118.476 15.006C118.07 14.7697 117.743 14.4285 117.494 13.982C117.244 13.5445 117.115 12.9757 117.115 12.2842C117.115 11.4004 117.321 10.6828 117.735 10.1402C118.148 9.59756 118.743 9.18622 119.526 8.90618C120.31 8.62614 121.232 8.44233 122.3 8.35484C123.368 8.26731 124.548 8.22354 125.831 8.22354V7.52341C125.831 7.12087 125.745 6.78826 125.573 6.52571C125.401 6.26321 125.142 6.05317 124.78 5.90443C124.419 5.75564 123.937 5.67685 123.334 5.67685C122.8 5.67685 122.352 5.72936 121.973 5.84312C121.593 5.95694 121.309 6.10568 121.111 6.28075C120.913 6.45577 120.81 6.6745 120.81 6.91082V7.18212H117.622C117.61 7.11495 117.601 7.05296 117.594 7.00005C117.592 6.98403 117.59 6.96881 117.588 6.95454C117.58 6.89328 117.58 6.82334 117.58 6.72706C117.58 6.03568 117.812 5.43182 118.269 4.91548C118.725 4.39914 119.397 4.00527 120.267 3.72522C121.137 3.44517 122.196 3.30517 123.42 3.30517C124.643 3.30517 125.668 3.43645 126.504 3.70775C127.339 3.97905 127.976 4.39913 128.415 4.96799C128.855 5.53684 129.079 6.26321 129.079 7.14709V12.3368C129.079 12.6081 129.148 12.8094 129.285 12.9581C129.424 13.0981 129.596 13.1682 129.802 13.1682H130.733V15.2774C130.569 15.3473 130.311 15.4261 129.958 15.5136C129.604 15.5924 129.191 15.6361 128.717 15.6361C128.175 15.6361 127.718 15.5661 127.365 15.4261C127.012 15.2861 126.736 15.0935 126.538 14.8397C126.34 14.5859 126.193 14.3058 126.107 13.9733H125.926C125.616 14.3058 125.237 14.5947 124.789 14.8572C124.341 15.1197 123.833 15.321 123.265 15.4524C122.705 15.6099 122.085 15.6799 121.404 15.6799ZM122.377 13.2469C122.808 13.2469 123.222 13.1944 123.626 13.0806C124.031 12.9668 124.393 12.8094 124.72 12.6081C125.047 12.4068 125.306 12.153 125.513 11.8467C125.72 11.5404 125.823 11.2078 125.823 10.849V10.1927C124.669 10.1927 123.695 10.2452 122.877 10.3589C122.067 10.4727 121.439 10.6565 121.008 10.919C120.577 11.1816 120.353 11.5404 120.353 12.013C120.353 12.3105 120.439 12.5557 120.62 12.7307C120.801 12.9144 121.042 13.0456 121.352 13.1244C121.671 13.212 122.007 13.2469 122.377 13.2469ZM132.258 3.58452V15.4079H135.522V8.78294C135.522 8.24035 135.643 7.75906 135.875 7.33023C136.117 6.9014 136.436 6.5776 136.84 6.34127C137.245 6.105 137.685 5.99118 138.175 5.99118C138.511 5.99118 138.813 6.0262 139.071 6.105C139.33 6.18374 139.554 6.30624 139.734 6.49006C139.915 6.66508 140.062 6.91015 140.165 7.20767C140.269 7.50525 140.32 7.86403 140.32 8.28412V15.4079H143.55V8.78294C143.55 8.24035 143.671 7.75906 143.912 7.33023C144.153 6.9014 144.481 6.5776 144.885 6.34127C145.29 6.105 145.738 5.99118 146.22 5.99118C146.522 5.99118 146.814 6.0262 147.091 6.105C147.358 6.18374 147.582 6.30624 147.763 6.49006C147.935 6.66508 148.072 6.91015 148.167 7.20767C148.262 7.50525 148.313 7.86403 148.313 8.28412V15.4079H151.587V7.72398C151.587 6.70005 151.414 5.85993 151.078 5.20354C150.734 4.54717 150.26 4.06587 149.649 3.76832C149.038 3.47076 148.297 3.32199 147.427 3.32199C146.884 3.32199 146.35 3.39199 145.824 3.53202C145.299 3.67204 144.817 3.89959 144.386 4.2059C143.955 4.51221 143.576 4.89728 143.249 5.36112H143.094C142.775 4.64349 142.293 4.12712 141.681 3.80331C141.069 3.47951 140.303 3.32199 139.407 3.32199C138.873 3.32199 138.356 3.39199 137.857 3.53202C137.357 3.67204 136.892 3.89959 136.453 4.2059C136.013 4.51221 135.643 4.89728 135.333 5.36112H135.178L134.911 3.58452H132.258Z" fill="white" />
</svg>
