<svg viewBox="0 0 167 34" fill="none" xmlns="http://www.w3.org/2000/svg">
	<path d="M136.381 31.3781V23.6679H137.842V31.3781H136.381ZM139.553 31.3781V23.6679H140.947L144.24 28.2198C144.278 28.2648 144.322 28.3285 144.375 28.4109C144.427 28.4858 144.476 28.5607 144.521 28.6357C144.566 28.7106 144.596 28.7705 144.611 28.8155H144.667C144.667 28.7106 144.667 28.6094 144.667 28.512C144.667 28.4146 144.667 28.3172 144.667 28.2198V23.6679H146.072V31.3781H144.69L141.385 26.7924C141.325 26.7025 141.254 26.5939 141.172 26.4665C141.097 26.3316 141.044 26.2379 141.014 26.1855H140.958C140.958 26.2829 140.958 26.3841 140.958 26.489C140.958 26.5864 140.958 26.6875 140.958 26.7924V31.3781H139.553ZM147.785 31.3781V23.6679H150.876C151.655 23.6679 152.322 23.8065 152.877 24.0837C153.431 24.361 153.858 24.7843 154.158 25.3538C154.458 25.9158 154.607 26.6388 154.607 27.523C154.607 28.3996 154.458 29.1227 154.158 29.6922C153.858 30.2616 153.431 30.685 152.877 30.9622C152.322 31.2394 151.655 31.3781 150.876 31.3781H147.785ZM149.246 30.1305H150.876C151.236 30.1305 151.554 30.078 151.831 29.9731C152.109 29.8682 152.341 29.7146 152.528 29.5123C152.715 29.3025 152.858 29.044 152.955 28.7368C153.053 28.4221 153.101 28.0587 153.101 27.6466V27.4106C153.101 26.991 153.053 26.6276 152.955 26.3204C152.858 26.0057 152.715 25.7472 152.528 25.5449C152.341 25.3351 152.109 25.1777 151.831 25.0728C151.554 24.9679 151.236 24.9155 150.876 24.9155H149.246V30.1305ZM155.962 31.3781V23.6679H157.423V31.3781H155.962ZM158.336 31.3781L161.337 23.6679H163.18L166.193 31.3781H164.608L163.99 29.7371H160.46L159.842 31.3781H158.336ZM160.921 28.5008H163.518L162.742 26.4103C162.712 26.3354 162.675 26.2417 162.63 26.1293C162.592 26.0094 162.551 25.882 162.506 25.7472C162.461 25.6048 162.416 25.4624 162.371 25.3201C162.326 25.1777 162.285 25.0503 162.248 24.9379H162.191C162.146 25.0878 162.09 25.2601 162.023 25.4549C161.963 25.6498 161.903 25.8333 161.843 26.0057C161.783 26.178 161.734 26.3129 161.697 26.4103L160.921 28.5008Z" fill="white" />
	<path d="M19.8435 4.10932H25.015V6.13891C25.015 8.89104 22.8259 11.1155 20.1169 11.1155H19.8431L19.8435 4.10932ZM12.4829 1.16235H19.8435V20.317H18.968C13.6322 20.317 12.5652 16.5361 12.5652 13.1722L12.4829 1.16235ZM0.525391 5.49932C0.525391 8.91889 2.93331 10.1698 5.61495 10.5871H0.525391V20.3729H5.42353C10.3487 20.3729 10.9234 18.1488 10.9234 16.0359C10.9234 13.4503 9.17206 11.6435 6.46332 10.9481H10.9234V1.16235H6.02524C1.10004 1.16235 0.525391 3.38643 0.525391 5.49932Z" fill="white" />
	<path fill-rule="evenodd" clip-rule="evenodd" d="M108.152 17.1624C107.266 17.1624 106.54 17.0187 105.974 16.7409C105.409 16.4631 104.994 16.0511 104.73 15.4956C104.466 14.9401 104.334 14.2599 104.334 13.4458V6.63503H102.373V3.93374H104.475L105.154 0.169189H107.888V3.93374H110.745V6.63503H107.888V12.9285C107.888 13.417 107.992 13.7906 108.19 14.0492C108.388 14.3078 108.774 14.4324 109.34 14.4324H110.745V16.7697C110.538 16.8367 110.273 16.8942 109.972 16.9515C109.661 17.0091 109.35 17.057 109.029 17.0953C108.699 17.1336 108.407 17.1624 108.152 17.1624ZM36.4237 17.1625C35.4997 17.1625 34.6513 17.0762 33.8687 16.8942C33.0862 16.7122 32.4073 16.4536 31.8228 16.1183C31.2383 15.783 30.7857 15.3616 30.4651 14.8634C30.1446 14.3654 29.9844 13.7906 29.9844 13.1297V12.9285C29.9844 12.8615 29.9938 12.804 30.0126 12.7561H33.5199V12.8711V12.986C33.5387 13.3788 33.6801 13.6949 33.9536 13.9439C34.2269 14.193 34.5947 14.3654 35.0472 14.4707C35.4998 14.5762 35.9711 14.6335 36.4709 14.6335C36.9422 14.6335 37.3948 14.6049 37.838 14.5377C38.281 14.4707 38.6487 14.3366 38.9505 14.145C39.2521 13.9439 39.3936 13.6852 39.3936 13.3596C39.3936 12.9477 39.2145 12.6507 38.8656 12.4496C38.5073 12.2485 38.0265 12.0951 37.4043 11.9802C37.0848 11.9211 36.7455 11.8571 36.3863 11.7893L36.3856 11.7892L36.3849 11.7891C36.0448 11.7249 35.687 11.6573 35.3112 11.5875C34.6701 11.4725 34.0479 11.3288 33.4633 11.1468C32.8788 10.9648 32.3414 10.7349 31.8794 10.4476C31.408 10.1602 31.0403 9.7962 30.7669 9.33639C30.4934 8.88622 30.352 8.32103 30.352 7.65046C30.352 6.94161 30.5029 6.33815 30.814 5.83046C31.1251 5.32277 31.5588 4.9013 32.1245 4.57561C32.6902 4.24992 33.3596 4.01043 34.1233 3.84759C34.887 3.69432 35.7166 3.6177 36.6028 3.6177C37.4231 3.6177 38.2056 3.69432 38.9316 3.84759C39.6576 4.00085 40.2892 4.23078 40.8172 4.5373C41.3547 4.84383 41.7694 5.21743 42.09 5.67722C42.4105 6.13701 42.5614 6.65429 42.5614 7.22899V7.49717C42.5614 7.58341 42.552 7.64089 42.5331 7.69837H39.0259V7.52594C39.0259 7.20985 38.9128 6.96081 38.6959 6.75968C38.4791 6.55848 38.1774 6.41476 37.8002 6.29981C37.4231 6.18486 36.9894 6.13699 36.5086 6.13699C36.2635 6.13699 35.99 6.15613 35.6884 6.18486C35.3867 6.21363 35.085 6.2711 34.8021 6.35729C34.5193 6.44353 34.293 6.55848 34.1233 6.7022C33.9536 6.84586 33.8687 7.03743 33.8687 7.26733C33.8687 7.56428 34.0196 7.79418 34.3307 7.96661C34.6418 8.13903 35.0472 8.27312 35.5563 8.36894C35.89 8.43172 36.2398 8.49858 36.6112 8.56958L36.6118 8.5697L36.6124 8.56982C36.8074 8.60711 37.0082 8.64551 37.2157 8.68502C37.8945 8.82874 38.5733 8.98197 39.2521 9.13526C39.931 9.28849 40.5533 9.49919 41.119 9.76743C41.6846 10.026 42.1277 10.4093 42.4483 10.8978C42.7688 11.3863 42.9291 12.0473 42.9291 12.8615C42.9291 13.647 42.7688 14.3174 42.4577 14.8634C42.1466 15.4096 41.694 15.8597 41.119 16.195C40.5344 16.5302 39.8555 16.7697 39.0635 16.9229C38.2716 17.0762 37.376 17.1625 36.4237 17.1625ZM49.9349 17.1622C48.417 17.1622 47.248 16.7695 46.4088 15.9841C45.5792 15.1986 45.1643 13.9629 45.1643 12.2674V3.93362H48.6999V11.683C48.6999 12.162 48.7565 12.5547 48.8695 12.8804C48.9827 13.1965 49.1524 13.4551 49.3786 13.6563C49.6048 13.8575 49.8783 14.0011 50.1894 14.0874C50.5006 14.1736 50.8588 14.2215 51.2642 14.2215C51.8488 14.2215 52.3768 14.0874 52.8482 13.8288C53.3196 13.5702 53.7061 13.1965 53.9983 12.7367C54.2907 12.2673 54.4321 11.7405 54.4321 11.1466V3.94321H57.9864V16.8845H55.0826L54.8186 14.9207H54.6489C54.2624 15.4285 53.8287 15.8499 53.3384 16.1852C52.8576 16.5204 52.3202 16.7695 51.7262 16.9323C51.1323 17.0951 50.5478 17.1622 49.9349 17.1622ZM60.9455 3.92371V21.3671H64.519V15.361H64.6606C64.9619 15.7537 65.3393 16.0891 65.7731 16.3573C66.2064 16.6255 66.6876 16.8266 67.2156 16.9607C67.7339 17.0948 68.2808 17.162 68.8465 17.162C69.9779 17.162 70.9586 16.9129 71.7977 16.4242C72.6369 15.9262 73.287 15.1792 73.7677 14.1828C74.2489 13.1867 74.4847 11.9222 74.4847 10.3991C74.4847 8.83776 74.258 7.55415 73.7865 6.55793C73.3156 5.56172 72.6551 4.82414 71.788 4.34519C70.9203 3.86624 69.9025 3.62676 68.7238 3.62676C67.819 3.62676 66.9799 3.78962 66.2161 4.11531C65.4432 4.45057 64.8112 5.00615 64.3118 5.79163H64.1416L63.8305 3.92371H60.9455ZM69.4875 13.8284C69.016 14.0967 68.4224 14.2308 67.6963 14.2308C67.1494 14.2308 66.6779 14.1445 66.2726 13.9913C65.8764 13.8284 65.5562 13.5793 65.2828 13.2633C65.0093 12.9471 64.8015 12.5544 64.6606 12.085C64.519 11.6252 64.4436 11.108 64.4436 10.5524V10.2075C64.4436 9.45079 64.5664 8.79948 64.821 8.25343C65.075 7.70744 65.4335 7.28597 65.9141 6.98902C66.3856 6.69208 66.9701 6.54836 67.6677 6.54836C68.4126 6.54836 69.016 6.68245 69.4875 6.95062C69.9493 7.21887 70.2987 7.63076 70.5248 8.16718C70.7508 8.71324 70.8638 9.37418 70.8638 10.1596V10.6482C70.8638 11.405 70.7508 12.0563 70.5248 12.6023C70.2987 13.1483 69.9591 13.5602 69.4875 13.8284ZM83.658 17.1616C82.1213 17.1616 80.8204 16.9222 79.7455 16.4338C78.6706 15.9451 77.8503 15.2076 77.2846 14.2113C76.7189 13.2151 76.4364 11.9411 76.4364 10.3989C76.4364 8.85671 76.7189 7.58267 77.2846 6.58645C77.8503 5.59025 78.6615 4.84307 79.7169 4.36412C80.773 3.88517 82.0551 3.63612 83.5541 3.63612C85.0252 3.63612 86.2696 3.87559 87.2971 4.35455C88.3252 4.8335 89.0981 5.55194 89.6164 6.52897C90.1444 7.50606 90.399 8.73213 90.399 10.2073V11.2131H80.0846C80.1131 11.9698 80.2735 12.5925 80.547 13.0906C80.8204 13.5888 81.216 13.9527 81.744 14.1826C82.272 14.4125 82.9228 14.5275 83.6957 14.5275C84.0821 14.5275 84.4497 14.4795 84.8082 14.3934C85.1667 14.3072 85.487 14.1634 85.7792 13.9718C86.0715 13.7802 86.317 13.5503 86.5053 13.2726C86.7034 12.9948 86.8073 12.6787 86.8165 12.3147H90.3711C90.3711 13.0715 90.2009 13.7516 89.871 14.3551C89.5411 14.9586 89.0884 15.4662 88.5038 15.8781C87.9193 16.29 87.2217 16.6061 86.4014 16.8265C85.5909 17.0468 84.6667 17.1616 83.658 17.1616ZM80.1417 8.97166H86.6749C86.6749 8.51185 86.5995 8.10952 86.4488 7.76467C86.2981 7.41981 86.0812 7.13244 85.8078 6.90253C85.5344 6.67263 85.2135 6.50983 84.8368 6.39488C84.4692 6.2895 84.0542 6.23202 83.6015 6.23202C82.9039 6.23202 82.3097 6.33741 81.8193 6.53854C81.3296 6.73967 80.9425 7.05582 80.6691 7.45815C80.4054 7.87962 80.2261 8.3777 80.1417 8.97166ZM92.9176 3.92423V16.8655V16.8751H96.4814V10.5817C96.4814 10.0452 96.5379 9.5663 96.6606 9.13526C96.7827 8.70416 96.9808 8.3306 97.2452 8.01451C97.5089 7.69837 97.8388 7.44932 98.235 7.2769C98.6305 7.10447 99.1021 7.01823 99.6489 7.01823H101.054V3.86676C100.875 3.79971 100.667 3.74224 100.422 3.69435C100.177 3.64646 99.9132 3.6177 99.621 3.6177C99.0644 3.6177 98.5552 3.72309 98.1122 3.93383C97.6693 4.14456 97.2919 4.4415 96.9906 4.81508C96.6795 5.18866 96.4437 5.60059 96.2833 6.04122H96.1138L95.8215 3.92423H92.9176ZM115.629 16.4338C116.703 16.9222 118.005 17.1616 119.541 17.1616C120.56 17.1616 121.474 17.0468 122.295 16.8265C123.114 16.6061 123.812 16.29 124.397 15.8781C124.982 15.4662 125.434 14.9586 125.764 14.3551C126.094 13.7516 126.264 13.0715 126.264 12.3147H122.709C122.7 12.6787 122.596 12.9948 122.398 13.2726C122.21 13.5503 121.965 13.7802 121.672 13.9718C121.379 14.1634 121.059 14.3072 120.701 14.3934C120.343 14.4795 119.975 14.5275 119.588 14.5275C118.815 14.5275 118.165 14.4125 117.637 14.1826C117.109 13.9527 116.713 13.5888 116.439 13.0906C116.166 12.5925 116.006 11.9698 115.978 11.2131H126.282V10.2073C126.282 8.73213 126.028 7.50606 125.5 6.52897C124.982 5.55194 124.208 4.8335 123.18 4.35455C122.153 3.87559 120.909 3.63612 119.438 3.63612C117.938 3.63612 116.656 3.88517 115.6 4.36412C114.544 4.84307 113.734 5.59025 113.168 6.58645C112.602 7.58267 112.319 8.85671 112.319 10.3989C112.319 11.9411 112.602 13.2151 113.168 14.2113C113.734 15.2076 114.554 15.9451 115.629 16.4338ZM122.558 8.97166H116.024C116.11 8.3777 116.289 7.87962 116.552 7.45815C116.826 7.05582 117.212 6.73967 117.703 6.53854C118.193 6.33741 118.787 6.23202 119.485 6.23202C119.937 6.23202 120.352 6.2895 120.72 6.39488C121.097 6.50983 121.418 6.67263 121.691 6.90253C121.964 7.13244 122.181 7.41981 122.332 7.76467C122.483 8.10952 122.558 8.51185 122.558 8.97166ZM132.882 17.1625C132.317 17.1625 131.751 17.105 131.185 16.99C130.62 16.8752 130.12 16.6834 129.677 16.4248C129.234 16.1662 128.876 15.7927 128.602 15.3041C128.329 14.8251 128.187 14.2026 128.187 13.4458C128.187 12.4783 128.413 11.6928 128.866 11.0989C129.319 10.505 129.97 10.0548 130.827 9.74829C131.685 9.44178 132.694 9.24058 133.863 9.14483C135.032 9.04901 136.323 9.00111 137.728 9.00111V8.23478C137.728 7.79418 137.634 7.43012 137.446 7.14275C137.257 6.85543 136.974 6.62553 136.578 6.46273C136.182 6.29987 135.654 6.21363 134.995 6.21363C134.41 6.21363 133.92 6.2711 133.505 6.39562C133.09 6.52021 132.779 6.683 132.562 6.87463C132.345 7.06619 132.232 7.3056 132.232 7.56428V7.86122H128.743C128.729 7.7877 128.72 7.71985 128.712 7.66194C128.711 7.64441 128.708 7.62774 128.706 7.61212C128.697 7.54508 128.697 7.46852 128.697 7.36314C128.697 6.60639 128.951 5.94544 129.451 5.38027C129.95 4.81511 130.686 4.384 131.638 4.07747C132.59 3.77094 133.75 3.6177 135.089 3.6177C136.427 3.6177 137.55 3.76141 138.464 4.05835C139.379 4.3553 140.076 4.81511 140.557 5.43775C141.038 6.06038 141.283 6.85543 141.283 7.82289V13.5033C141.283 13.8002 141.358 14.0205 141.509 14.1833C141.66 14.3366 141.849 14.4133 142.075 14.4133H143.093V16.7219C142.914 16.7984 142.631 16.8847 142.245 16.9805C141.858 17.0667 141.406 17.1146 140.887 17.1146C140.293 17.1146 139.794 17.038 139.407 16.8847C139.02 16.7314 138.718 16.5206 138.502 16.2429C138.285 15.9651 138.124 15.6585 138.03 15.2945H137.832C137.493 15.6585 137.078 15.9746 136.588 16.2619C136.097 16.5493 135.541 16.7697 134.919 16.9134C134.306 17.0858 133.627 17.1625 132.882 17.1625ZM133.948 14.4995C134.419 14.4995 134.872 14.442 135.315 14.3174C135.758 14.1929 136.154 14.0205 136.512 13.8002C136.87 13.5798 137.153 13.3021 137.38 12.9669C137.606 12.6316 137.719 12.2675 137.719 11.8748V11.1564C136.456 11.1564 135.39 11.2139 134.495 11.3384C133.609 11.4629 132.92 11.6641 132.449 11.9514C131.977 12.2388 131.732 12.6316 131.732 13.1489C131.732 13.4745 131.826 13.7428 132.025 13.9344C132.223 14.1355 132.486 14.2791 132.826 14.3654C133.175 14.4612 133.542 14.4995 133.948 14.4995ZM144.762 3.92347V16.8647H148.336V9.6134C148.336 9.0195 148.468 8.49272 148.722 8.02334C148.986 7.55397 149.335 7.19954 149.778 6.94087C150.221 6.68226 150.702 6.55768 151.239 6.55768C151.607 6.55768 151.937 6.59602 152.22 6.68226C152.503 6.76844 152.748 6.90253 152.946 7.10373C153.144 7.29529 153.304 7.56354 153.417 7.88919C153.531 8.21491 153.587 8.60761 153.587 9.06741V16.8647H157.123V9.6134C157.123 9.0195 157.254 8.49272 157.519 8.02334C157.782 7.55397 158.141 7.19954 158.584 6.94087C159.027 6.68226 159.517 6.55768 160.045 6.55768C160.375 6.55768 160.695 6.59602 160.998 6.68226C161.29 6.76844 161.535 6.90253 161.734 7.10373C161.922 7.29529 162.072 7.56354 162.176 7.88919C162.28 8.21491 162.336 8.60761 162.336 9.06741V16.8647H165.919V8.45432C165.919 7.33357 165.73 6.41402 165.363 5.69557C164.986 4.97714 164.467 4.45034 163.798 4.12465C163.129 3.79896 162.318 3.63612 161.366 3.63612C160.771 3.63612 160.187 3.71274 159.611 3.866C159.037 4.01927 158.509 4.26834 158.037 4.6036C157.565 4.93887 157.151 5.36036 156.793 5.86804H156.623C156.274 5.08256 155.746 4.51738 155.077 4.16295C154.407 3.80853 153.569 3.63612 152.588 3.63612C152.003 3.63612 151.438 3.71274 150.891 3.866C150.344 4.01927 149.835 4.26834 149.354 4.6036C148.873 4.93887 148.468 5.36036 148.128 5.86804H147.958L147.666 3.92347H144.762Z" fill="white" />
</svg>
