<svg viewBox="0 0 173 36" fill="none" xmlns="http://www.w3.org/2000/svg">
	<path d="M124.551 32.1602V24.1679H125.996L129.409 28.8864C129.448 28.933 129.495 28.999 129.549 29.0844C129.603 29.1621 129.654 29.2398 129.701 29.3174C129.747 29.3951 129.778 29.4572 129.794 29.5038H129.852C129.852 29.3951 129.852 29.2903 129.852 29.1893C129.852 29.0883 129.852 28.9873 129.852 28.8864V24.1679H131.308V32.1602H129.875L126.45 27.4068C126.388 27.3136 126.314 27.2009 126.229 27.0689C126.151 26.9291 126.097 26.832 126.066 26.7776H126.007C126.007 26.8786 126.007 26.9835 126.007 27.0922C126.007 27.1932 126.007 27.298 126.007 27.4068V32.1602H124.551ZM133.084 32.1602V24.1679H134.599V32.1602H133.084ZM140.007 32.3C138.772 32.3 137.813 31.9699 137.129 31.3097C136.446 30.6417 136.104 29.5932 136.104 28.164C136.104 27.2242 136.263 26.4514 136.582 25.8456C136.908 25.232 137.374 24.7776 137.98 24.4825C138.594 24.1796 139.328 24.0281 140.182 24.0281C140.694 24.0281 141.176 24.0864 141.627 24.2029C142.077 24.3194 142.473 24.498 142.815 24.7388C143.164 24.9718 143.436 25.2669 143.63 25.6242C143.825 25.9815 143.922 26.4048 143.922 26.8941H142.361C142.361 26.6378 142.302 26.4126 142.186 26.2184C142.077 26.0165 141.922 25.8495 141.72 25.7174C141.526 25.5776 141.3 25.4767 141.044 25.4145C140.788 25.3446 140.516 25.3097 140.228 25.3097C139.801 25.3097 139.425 25.3679 139.098 25.4844C138.78 25.5932 138.512 25.764 138.294 25.997C138.085 26.2223 137.926 26.5058 137.817 26.8475C137.716 27.1893 137.665 27.5893 137.665 28.0475V28.2922C137.665 28.9213 137.755 29.4378 137.933 29.8417C138.112 30.2456 138.38 30.5446 138.737 30.7388C139.102 30.9252 139.553 31.0184 140.089 31.0184C140.547 31.0184 140.947 30.9485 141.289 30.8087C141.638 30.6689 141.91 30.467 142.104 30.2029C142.306 29.931 142.407 29.6009 142.407 29.2126V29.131H139.856V27.8728H143.922V32.1602H142.838L142.71 31.2747C142.477 31.5077 142.228 31.7019 141.964 31.8572C141.7 32.0048 141.409 32.1136 141.091 32.1835C140.772 32.2611 140.411 32.3 140.007 32.3ZM145.622 32.1602V24.1679H151.855V25.4611H147.137V27.4301H151.342V28.7233H147.137V30.867H151.925V32.1602H145.622ZM153.45 32.1602V24.1679H157.656C158.246 24.1679 158.735 24.2689 159.123 24.4708C159.512 24.6728 159.803 24.9602 159.997 25.333C160.191 25.7058 160.289 26.1446 160.289 26.6495C160.289 27.1699 160.172 27.632 159.939 28.0359C159.706 28.432 159.364 28.731 158.914 28.933L160.568 32.1602H158.914L157.446 29.1893H154.964V32.1602H153.45ZM154.964 27.9194H157.539C157.927 27.9194 158.226 27.8068 158.436 27.5815C158.646 27.3563 158.751 27.0456 158.751 26.6495C158.751 26.3932 158.704 26.1796 158.611 26.0087C158.518 25.8301 158.382 25.6941 158.203 25.6009C158.024 25.5077 157.803 25.4611 157.539 25.4611H154.964V27.9194ZM161.801 32.1602V24.1679H163.315V32.1602H161.801ZM164.262 32.1602L167.372 24.1679H169.283L172.405 32.1602H170.763L170.122 30.4592H166.464L165.823 32.1602H164.262ZM166.941 29.1776H169.632L168.829 27.0106C168.798 26.933 168.759 26.8359 168.712 26.7194C168.673 26.5951 168.631 26.4631 168.584 26.3233C168.537 26.1757 168.491 26.0281 168.444 25.8805C168.398 25.733 168.355 25.6009 168.316 25.4844H168.258C168.211 25.6398 168.153 25.8184 168.083 26.0203C168.021 26.2223 167.959 26.4126 167.897 26.5912C167.834 26.7699 167.784 26.9097 167.745 27.0106L166.941 29.1776Z" fill="white" />
	<path d="M20.5703 4.25973H25.931V6.36358C25.931 9.21641 23.6618 11.5222 20.8537 11.5222H20.5699L20.5703 4.25973ZM12.9404 1.20496H20.5703V21.0604H19.6627C14.1317 21.0604 13.0257 17.1411 13.0257 13.6542L12.9404 1.20496ZM0.54541 5.70059C0.54541 9.24527 3.04142 10.542 5.82117 10.9745H0.54541V21.1183H5.62275C10.7281 21.1183 11.3238 18.8128 11.3238 16.6226C11.3238 13.9425 9.50842 12.0695 6.70058 11.3488H11.3238V1.20496H6.24647C1.14109 1.20496 0.54541 3.5104 0.54541 5.70059Z" fill="white" />
	<path fill-rule="evenodd" clip-rule="evenodd" d="M112.109 17.7903C111.191 17.7903 110.438 17.6414 109.852 17.3534C109.265 17.0654 108.835 16.6384 108.562 16.0626C108.288 15.4867 108.151 14.7816 108.151 13.9377V6.87781H106.118V4.07769H108.298L109.001 0.175415H111.836V4.07769H114.797V6.87781H111.836V13.4015C111.836 13.9079 111.943 14.2952 112.148 14.5632C112.353 14.8313 112.754 14.9605 113.34 14.9605H114.797V17.3832C114.582 17.4527 114.308 17.5123 113.995 17.5717C113.673 17.6314 113.35 17.6811 113.018 17.7208C112.676 17.7605 112.373 17.7903 112.109 17.7903ZM37.7565 17.7904C36.7987 17.7904 35.9192 17.701 35.108 17.5124C34.2968 17.3236 33.5932 17.0556 32.9872 16.7081C32.3813 16.3605 31.9122 15.9236 31.5799 15.4072C31.2476 14.891 31.0815 14.2952 31.0815 13.6101V13.4016C31.0815 13.3321 31.0913 13.2725 31.1108 13.2228H34.7464V13.342V13.4611C34.766 13.8683 34.9125 14.1959 35.196 14.4541C35.4793 14.7123 35.8605 14.891 36.3296 15.0001C36.7988 15.1095 37.2873 15.169 37.8053 15.169C38.294 15.169 38.7631 15.1393 39.2224 15.0696C39.6817 15.0001 40.0629 14.8611 40.3757 14.6626C40.6884 14.4541 40.835 14.1859 40.835 13.8484C40.835 13.4214 40.6493 13.1136 40.2877 12.9051C39.9163 12.6966 39.4179 12.5376 38.7729 12.4185C38.4417 12.3573 38.09 12.2909 37.7177 12.2207L37.717 12.2206L37.7163 12.2204C37.3637 12.1539 36.9928 12.0838 36.6032 12.0114C35.9387 11.8923 35.2937 11.7433 34.6878 11.5546C34.0819 11.366 33.5248 11.1277 33.0459 10.8298C32.5572 10.5319 32.1761 10.1546 31.8927 9.678C31.6092 9.21136 31.4627 8.62549 31.4627 7.93039C31.4627 7.19561 31.619 6.57007 31.9415 6.0438C32.264 5.51754 32.7136 5.08065 33.3 4.74304C33.8864 4.40544 34.5802 4.15719 35.3719 3.98839C36.1635 3.82952 37.0235 3.75009 37.9421 3.75009C38.7924 3.75009 39.6036 3.82952 40.3561 3.98839C41.1086 4.14726 41.7634 4.38559 42.3107 4.70334C42.8678 5.02108 43.2977 5.40834 43.6301 5.88496C43.9623 6.36157 44.1187 6.89778 44.1187 7.4935V7.77149C44.1187 7.86089 44.1089 7.92047 44.0894 7.98005H40.4538V7.80131C40.4538 7.47366 40.3366 7.21551 40.1118 7.00702C39.887 6.79846 39.5743 6.64948 39.1833 6.53033C38.7924 6.41117 38.3429 6.36155 37.8444 6.36155C37.5904 6.36155 37.3069 6.38139 36.9942 6.41117C36.6815 6.44099 36.3688 6.50057 36.0756 6.5899C35.7824 6.6793 35.5478 6.79846 35.3719 6.94744C35.196 7.09635 35.108 7.29493 35.108 7.53324C35.108 7.84105 35.2644 8.07937 35.5869 8.2581C35.9094 8.43684 36.3296 8.57583 36.8573 8.67515C37.2032 8.74023 37.5659 8.80954 37.9508 8.88313L37.9515 8.88326L37.9521 8.88339C38.1541 8.92204 38.3623 8.96184 38.5774 9.0028C39.2811 9.15178 39.9847 9.31061 40.6884 9.46951C41.3921 9.62834 42.0371 9.84676 42.6235 10.1248C43.2098 10.3929 43.6692 10.7902 44.0014 11.2965C44.3337 11.8029 44.4999 12.488 44.4999 13.3321C44.4999 14.1463 44.3337 14.8412 44.0112 15.4072C43.6887 15.9734 43.2196 16.44 42.6235 16.7875C42.0176 17.135 41.3138 17.3832 40.4929 17.5421C39.672 17.701 38.7436 17.7904 37.7565 17.7904ZM51.762 17.7901C50.1886 17.7901 48.9767 17.383 48.1069 16.5689C47.247 15.7546 46.8168 14.4737 46.8168 12.7163V4.07757H50.4818V12.1105C50.4818 12.6069 50.5404 13.0141 50.6576 13.3516C50.7749 13.6794 50.9508 13.9474 51.1853 14.1559C51.4198 14.3645 51.7033 14.5134 52.0258 14.6028C52.3484 14.6922 52.7197 14.7418 53.1399 14.7418C53.7459 14.7418 54.2932 14.6028 54.7819 14.3347C55.2705 14.0667 55.6712 13.6794 55.9741 13.2027C56.2772 12.7162 56.4237 12.1701 56.4237 11.5544V4.08751H60.1081V17.5022H57.098L56.8243 15.4667H56.6485C56.2478 15.9929 55.7982 16.4298 55.29 16.7774C54.7916 17.1249 54.2345 17.383 53.6188 17.5518C53.0032 17.7206 52.3973 17.7901 51.762 17.7901ZM63.1754 4.06729V22.1489H66.8796V15.9231H67.0264C67.3388 16.3301 67.7299 16.6777 68.1796 16.9557C68.6287 17.2338 69.1276 17.4423 69.6749 17.5813C70.2122 17.7203 70.7791 17.7899 71.3654 17.7899C72.5382 17.7899 73.5548 17.5317 74.4247 17.0252C75.2945 16.5089 75.9684 15.7345 76.4667 14.7017C76.9655 13.6691 77.2099 12.3584 77.2099 10.7796C77.2099 9.16112 76.975 7.83056 76.4862 6.79788C75.998 5.76524 75.3134 5.00067 74.4146 4.50419C73.5151 4.00772 72.4601 3.75948 71.2382 3.75948C70.3004 3.75948 69.4305 3.9283 68.6388 4.2659C67.8376 4.61343 67.1826 5.18934 66.6648 6.00356H66.4885L66.166 4.06729H63.1754ZM72.0299 14.3343C71.5412 14.6125 70.9258 14.7515 70.1731 14.7515C69.6063 14.7515 69.1175 14.6621 68.6974 14.5032C68.2867 14.3343 67.9548 14.0761 67.6713 13.7485C67.3879 13.4208 67.1725 13.0138 67.0264 12.5272C66.8796 12.0506 66.8015 11.5144 66.8015 10.9385V10.581C66.8015 9.79659 66.9287 9.12145 67.1926 8.55542C67.4559 7.98945 67.8275 7.55257 68.3258 7.24476C68.8145 6.93694 69.4204 6.78796 70.1435 6.78796C70.9157 6.78796 71.5412 6.92696 72.0299 7.20495C72.5086 7.483 72.8708 7.90997 73.1051 8.46602C73.3394 9.03205 73.4566 9.71717 73.4566 10.5314V11.0378C73.4566 11.8223 73.3394 12.4974 73.1051 13.0634C72.8708 13.6294 72.5187 14.0564 72.0299 14.3343ZM86.7188 17.7895C85.1259 17.7895 83.7774 17.5413 82.6632 17.035C81.549 16.5285 80.6987 15.764 80.1123 14.7313C79.5259 13.6986 79.233 12.378 79.233 10.7794C79.233 9.18077 79.5259 7.86012 80.1123 6.82745C80.6987 5.79481 81.5395 5.02029 82.6336 4.52382C83.7283 4.02735 85.0573 3.76918 86.6111 3.76918C88.136 3.76918 89.426 4.01742 90.4911 4.5139C91.5568 5.01037 92.358 5.75509 92.8952 6.76787C93.4426 7.78071 93.7065 9.05163 93.7065 10.5808V11.6234H83.0147C83.0443 12.4078 83.2105 13.0532 83.494 13.5695C83.7774 14.086 84.1875 14.4632 84.7348 14.7015C85.2821 14.9398 85.9567 15.059 86.7579 15.059C87.1585 15.059 87.5396 15.0093 87.9112 14.92C88.2828 14.8306 88.6147 14.6816 88.9177 14.483C89.2206 14.2844 89.4751 14.0461 89.6704 13.7582C89.8757 13.4703 89.9834 13.1426 89.9928 12.7653H93.6775C93.6775 13.5497 93.5011 14.2547 93.1591 14.8803C92.8171 15.5059 92.3479 16.032 91.742 16.459C91.136 16.886 90.413 17.2137 89.5627 17.4421C88.7224 17.6705 87.7644 17.7895 86.7188 17.7895ZM83.0739 9.29993H89.8461C89.8461 8.8233 89.768 8.40625 89.6118 8.04878C89.4556 7.69131 89.2307 7.39341 88.9473 7.1551C88.6638 6.91679 88.3313 6.74803 87.9408 6.62888C87.5597 6.51964 87.1295 6.46006 86.6603 6.46006C85.9372 6.46006 85.3212 6.5693 84.8129 6.77779C84.3052 6.98628 83.904 7.314 83.6206 7.73105C83.3472 8.16793 83.1614 8.68424 83.0739 9.29993ZM96.3172 4.06784V17.4825V17.4925H100.011V10.9688C100.011 10.4128 100.07 9.91632 100.197 9.46951C100.324 9.02264 100.529 8.63541 100.803 8.30776C101.076 7.98005 101.418 7.7219 101.829 7.54316C102.239 7.36442 102.728 7.27502 103.295 7.27502H104.751V4.00826C104.565 3.93876 104.35 3.87919 104.097 3.82954C103.842 3.7799 103.569 3.75009 103.266 3.75009C102.689 3.75009 102.161 3.85933 101.702 4.07778C101.243 4.29623 100.852 4.60403 100.539 4.99128C100.217 5.37853 99.9723 5.80552 99.806 6.26228H99.6303L99.3273 4.06784H96.3172ZM119.859 17.035C120.973 17.5413 122.322 17.7895 123.915 17.7895C124.971 17.7895 125.919 17.6705 126.769 17.4421C127.619 17.2137 128.342 16.886 128.948 16.459C129.554 16.032 130.023 15.5059 130.365 14.8803C130.707 14.2547 130.883 13.5497 130.883 12.7653H127.199C127.189 13.1426 127.081 13.4703 126.876 13.7582C126.681 14.0461 126.427 14.2844 126.123 14.483C125.82 14.6816 125.488 14.8306 125.117 14.92C124.746 15.0093 124.365 15.059 123.964 15.059C123.162 15.059 122.488 14.9398 121.941 14.7015C121.394 14.4632 120.983 14.086 120.7 13.5695C120.416 13.0532 120.25 12.4078 120.221 11.6234H130.903V10.5808C130.903 9.05163 130.639 7.78071 130.091 6.76787C129.554 5.75509 128.752 5.01037 127.687 4.5139C126.622 4.01742 125.332 3.76918 123.807 3.76918C122.254 3.76918 120.925 4.02735 119.83 4.52382C118.735 5.02029 117.895 5.79481 117.308 6.82745C116.722 7.86012 116.429 9.18077 116.429 10.7794C116.429 12.378 116.722 13.6986 117.308 14.7313C117.895 15.764 118.745 16.5285 119.859 17.035ZM127.042 9.29993H120.269C120.358 8.68424 120.543 8.16793 120.817 7.73105C121.1 7.314 121.501 6.98628 122.009 6.77779C122.517 6.5693 123.133 6.46006 123.856 6.46006C124.325 6.46006 124.755 6.51964 125.136 6.62888C125.527 6.74803 125.86 6.91679 126.143 7.1551C126.426 7.39341 126.651 7.69131 126.808 8.04878C126.964 8.40625 127.042 8.8233 127.042 9.29993ZM137.744 17.7904C137.158 17.7904 136.571 17.7308 135.985 17.6116C135.399 17.4926 134.881 17.2938 134.422 17.0257C133.962 16.7577 133.591 16.3705 133.308 15.864C133.024 15.3675 132.877 14.7222 132.877 13.9377C132.877 12.9349 133.112 12.1207 133.581 11.505C134.05 10.8894 134.725 10.4227 135.613 10.105C136.503 9.78724 137.549 9.57868 138.761 9.47943C139.973 9.38011 141.311 9.33045 142.767 9.33045V8.53609C142.767 8.07937 142.67 7.70199 142.474 7.4041C142.279 7.10627 141.986 6.86796 141.575 6.69921C141.165 6.53039 140.618 6.44099 139.934 6.44099C139.328 6.44099 138.819 6.50057 138.389 6.62964C137.959 6.75878 137.637 6.92754 137.412 7.12617C137.187 7.32475 137.07 7.57292 137.07 7.84105V8.14886H133.454C133.439 8.07265 133.43 8.00232 133.422 7.94229C133.42 7.92412 133.417 7.90684 133.415 7.89065C133.405 7.82115 133.405 7.7418 133.405 7.63256C133.405 6.84812 133.669 6.16299 134.187 5.57715C134.705 4.99131 135.467 4.54443 136.454 4.22668C137.441 3.90894 138.643 3.75009 140.031 3.75009C141.419 3.75009 142.582 3.89905 143.53 4.20687C144.478 4.51468 145.201 4.99131 145.699 5.63672C146.198 6.28214 146.452 7.10627 146.452 8.10912V13.9973C146.452 14.3051 146.53 14.5335 146.686 14.7022C146.843 14.8611 147.038 14.9407 147.273 14.9407H148.328V17.3337C148.143 17.413 147.85 17.5024 147.449 17.6018C147.048 17.6912 146.579 17.7407 146.041 17.7407C145.426 17.7407 144.908 17.6613 144.507 17.5024C144.106 17.3435 143.793 17.1251 143.569 16.8372C143.344 16.5492 143.178 16.2314 143.08 15.8541H142.875C142.523 16.2314 142.093 16.5591 141.585 16.8569C141.077 17.1548 140.5 17.3832 139.855 17.5323C139.22 17.7109 138.516 17.7904 137.744 17.7904ZM138.848 15.03C139.337 15.03 139.806 14.9704 140.266 14.8412C140.725 14.7122 141.135 14.5335 141.507 14.3051C141.878 14.0767 142.171 13.7888 142.406 13.4413C142.641 13.0938 142.758 12.7164 142.758 12.3093V11.5646C141.448 11.5646 140.344 11.6242 139.415 11.7533C138.497 11.8823 137.783 12.0908 137.294 12.3887C136.806 12.6866 136.552 13.0938 136.552 13.63C136.552 13.9675 136.65 14.2456 136.855 14.4442C137.06 14.6527 137.334 14.8016 137.686 14.891C138.047 14.9903 138.428 15.03 138.848 15.03ZM150.059 4.06705V17.4818H153.763V9.96514C153.763 9.34952 153.899 8.80346 154.163 8.31691C154.437 7.83037 154.799 7.46297 155.258 7.19484C155.717 6.92677 156.216 6.79763 156.773 6.79763C157.154 6.79763 157.496 6.83737 157.789 6.92677C158.082 7.0161 158.337 7.1551 158.541 7.36366C158.747 7.56223 158.913 7.84028 159.03 8.17785C159.148 8.51549 159.206 8.92255 159.206 9.39918V17.4818H162.871V9.96514C162.871 9.34952 163.008 8.80346 163.282 8.31691C163.555 7.83037 163.927 7.46297 164.386 7.19484C164.845 6.92677 165.353 6.79763 165.901 6.79763C166.243 6.79763 166.575 6.83737 166.888 6.92677C167.191 7.0161 167.445 7.1551 167.651 7.36366C167.846 7.56223 168.002 7.84028 168.109 8.17785C168.217 8.51549 168.275 8.92255 168.275 9.39918V17.4818H171.99V8.76366C171.99 7.60191 171.794 6.64871 171.413 5.90398C171.022 5.15927 170.484 4.61319 169.791 4.27559C169.097 3.93798 168.256 3.76918 167.269 3.76918C166.653 3.76918 166.047 3.84861 165.451 4.00748C164.855 4.16635 164.308 4.42453 163.819 4.77206C163.33 5.11959 162.901 5.5565 162.529 6.08276H162.353C161.992 5.26855 161.444 4.68268 160.75 4.31529C160.056 3.9479 159.187 3.76918 158.17 3.76918C157.565 3.76918 156.978 3.84861 156.411 4.00748C155.844 4.16635 155.317 4.42453 154.818 4.77206C154.32 5.11959 153.899 5.5565 153.548 6.08276H153.372L153.069 4.06705H150.059Z" fill="white" />
</svg>
