<svg viewBox="0 0 168 34" fill="none" xmlns="http://www.w3.org/2000/svg">
	<path d="M124.068 31.5084V25.0177H121.591V23.7513H128.025V25.0177H125.538V31.5084H124.068ZM132.392 31.6441C131.713 31.6441 131.129 31.5348 130.639 31.3162C130.149 31.0976 129.772 30.7659 129.508 30.3211C129.252 29.8688 129.124 29.3072 129.124 28.6362V23.7513H130.594V28.591C130.594 29.1865 130.748 29.6389 131.058 29.9479C131.374 30.2495 131.819 30.4003 132.392 30.4003C132.965 30.4003 133.41 30.2495 133.726 29.9479C134.05 29.6389 134.212 29.1865 134.212 28.591V23.7513H135.682V28.6362C135.682 29.3072 135.551 29.8688 135.287 30.3211C135.023 30.7659 134.646 31.0976 134.156 31.3162C133.666 31.5348 133.078 31.6441 132.392 31.6441ZM137.352 31.5084V23.7513H141.434C142.007 23.7513 142.482 23.8493 142.859 24.0453C143.236 24.2413 143.518 24.5202 143.707 24.882C143.895 25.2439 143.99 25.6698 143.99 26.1598C143.99 26.6649 143.876 27.1134 143.65 27.5055C143.424 27.8899 143.092 28.1802 142.655 28.3762L144.261 31.5084H142.655L141.23 28.6249H138.822V31.5084H137.352ZM138.822 27.3924H141.321C141.698 27.3924 141.988 27.2831 142.192 27.0644C142.395 26.8458 142.497 26.5443 142.497 26.1598C142.497 25.911 142.452 25.7037 142.361 25.5379C142.271 25.3645 142.139 25.2326 141.965 25.1421C141.792 25.0517 141.577 25.0064 141.321 25.0064H138.822V27.3924ZM145.457 31.5084V23.7513H146.927V27.3471L150.365 23.7513H152.163L149.155 26.8948L152.219 31.5084H150.478L148.16 27.9238L146.927 29.0094V31.5084H145.457ZM153.32 31.5084V23.7513H159.369V25.0064H154.79V26.9174H158.872V28.1726H154.79V30.2533H159.437V31.5084H153.32ZM163.156 31.5084V28.3535L160.171 23.7513H161.867L163.914 27.0305H163.97L165.994 23.7513H167.6L164.626 28.3535V31.5084H163.156Z" fill="white" />
	<path d="M19.9652 4.13449H25.1683V6.17645C25.1683 8.94537 22.9658 11.1834 20.2402 11.1834H19.9648L19.9652 4.13449ZM12.5597 1.16956H19.9652V20.441H19.0843C13.716 20.441 12.6425 16.637 12.6425 13.2526L12.5597 1.16956ZM0.529297 5.53297C0.529297 8.97339 2.9519 10.232 5.64989 10.6518H0.529297V20.4972H5.4573C10.4125 20.4972 10.9907 18.2596 10.9907 16.1338C10.9907 13.5325 9.22869 11.7146 6.50343 11.015H10.9907V1.16956H6.06268C1.10745 1.16956 0.529297 3.40719 0.529297 5.53297Z" fill="white" />
	<path fill-rule="evenodd" clip-rule="evenodd" d="M108.812 17.2671C107.92 17.2671 107.19 17.1225 106.621 16.843C106.052 16.5635 105.634 16.1491 105.369 15.5902C105.103 15.0312 104.97 14.3469 104.97 13.5278V6.67556H102.997V3.95779H105.113L105.796 0.170288H108.546V3.95779H111.42V6.67556H108.546V13.0074C108.546 13.4989 108.65 13.8748 108.85 14.135C109.049 14.3951 109.438 14.5205 110.007 14.5205H111.42V16.872C111.212 16.9394 110.946 16.9973 110.643 17.055C110.33 17.1128 110.017 17.1611 109.694 17.1996C109.362 17.2381 109.068 17.2671 108.812 17.2671ZM36.6461 17.2672C35.7165 17.2672 34.8628 17.1804 34.0755 16.9973C33.2882 16.8142 32.6052 16.554 32.0171 16.2167C31.429 15.8793 30.9737 15.4553 30.6512 14.9541C30.3287 14.453 30.1675 13.8748 30.1675 13.2098V13.0074C30.1675 12.94 30.177 12.8822 30.1959 12.834H33.7246V12.9496V13.0653C33.7435 13.4604 33.8858 13.7784 34.1609 14.029C34.4359 14.2796 34.8059 14.453 35.2612 14.559C35.7165 14.6651 36.1908 14.7228 36.6935 14.7228C37.1678 14.7228 37.6231 14.694 38.0689 14.6264C38.5147 14.559 38.8846 14.4241 39.1882 14.2313C39.4918 14.029 39.6341 13.7687 39.6341 13.4411C39.6341 13.0267 39.4539 12.7279 39.1029 12.5256C38.7424 12.3232 38.2586 12.1689 37.6326 12.0533C37.3112 11.9939 36.9698 11.9295 36.6084 11.8613L36.6077 11.8612L36.6071 11.861C36.2649 11.7964 35.9048 11.7284 35.5268 11.6582C34.8818 11.5425 34.2558 11.3979 33.6677 11.2148C33.0796 11.0317 32.5388 10.8004 32.074 10.5113C31.5998 10.2222 31.2299 9.856 30.9548 9.39339C30.6797 8.94047 30.5374 8.37183 30.5374 7.69717C30.5374 6.98401 30.6891 6.37686 31.0021 5.86608C31.3152 5.35529 31.7515 4.93125 32.3207 4.60357C32.8898 4.2759 33.5632 4.03495 34.3316 3.87112C35.1 3.71692 35.9347 3.63983 36.8263 3.63983C37.6515 3.63983 38.4389 3.71692 39.1693 3.87112C39.8996 4.02532 40.5352 4.25664 41.0664 4.56504C41.6071 4.87344 42.0244 5.24931 42.3469 5.7119C42.6694 6.1745 42.8212 6.69494 42.8212 7.27314V7.54295C42.8212 7.62972 42.8117 7.68755 42.7928 7.74537H39.2641V7.57189C39.2641 7.25388 39.1503 7.00332 38.9321 6.80096C38.714 6.59854 38.4104 6.45394 38.031 6.33829C37.6516 6.22264 37.2152 6.17448 36.7315 6.17448C36.4849 6.17448 36.2098 6.19374 35.9062 6.22264C35.6027 6.25158 35.2992 6.30941 35.0146 6.39612C34.73 6.48289 34.5024 6.59854 34.3316 6.74313C34.1609 6.88767 34.0755 7.0804 34.0755 7.31171C34.0755 7.61047 34.2273 7.84177 34.5403 8.01525C34.8533 8.18873 35.2612 8.32364 35.7734 8.42003C36.1091 8.4832 36.4611 8.55047 36.8347 8.6219L36.8353 8.62202L36.836 8.62215C37.0321 8.65966 37.2341 8.69829 37.4429 8.73805C38.1259 8.88264 38.8088 9.0368 39.4918 9.19103C40.1747 9.34519 40.8008 9.55718 41.37 9.82705C41.939 10.0872 42.3849 10.4728 42.7074 10.9643C43.0299 11.4558 43.1912 12.1208 43.1912 12.94C43.1912 13.7303 43.0299 14.4048 42.7168 14.9541C42.4038 15.5036 41.9485 15.9565 41.37 16.2938C40.7819 16.6311 40.0988 16.872 39.302 17.0262C38.5053 17.1804 37.6042 17.2672 36.6461 17.2672ZM50.2397 17.2669C48.7125 17.2669 47.5363 16.8718 46.6921 16.0816C45.8574 15.2913 45.44 14.0481 45.44 12.3423V3.95768H48.9971V11.7543C48.9971 12.2362 49.054 12.6313 49.1678 12.959C49.2816 13.2771 49.4524 13.5372 49.68 13.7396C49.9076 13.942 50.1827 14.0866 50.4957 14.1733C50.8088 14.2601 51.1692 14.3082 51.5771 14.3082C52.1652 14.3082 52.6965 14.1733 53.1707 13.9132C53.645 13.653 54.0339 13.2771 54.3279 12.8145C54.622 12.3422 54.7642 11.8122 54.7642 11.2146V3.96732H58.3403V16.9875H55.4188L55.1531 15.0118H54.9824C54.5936 15.5226 54.1572 15.9466 53.6639 16.284C53.1802 16.6212 52.6395 16.8718 52.0419 17.0356C51.4443 17.1994 50.8563 17.2669 50.2397 17.2669ZM61.3174 3.9477V21.4975H64.9127V15.4548H65.0551C65.3583 15.8499 65.738 16.1873 66.1745 16.4571C66.6103 16.7269 67.0945 16.9293 67.6258 17.0642C68.1472 17.1991 68.6974 17.2667 69.2666 17.2667C70.4049 17.2667 71.3916 17.0161 72.2358 16.5245C73.0801 16.0234 73.7342 15.2718 74.2177 14.2694C74.7019 13.2671 74.9391 11.9949 74.9391 10.4626C74.9391 8.89171 74.7111 7.60028 74.2367 6.59798C73.7629 5.5957 73.0984 4.85362 72.226 4.37175C71.353 3.88988 70.3291 3.64894 69.1431 3.64894C68.2328 3.64894 67.3886 3.81279 66.6201 4.14047C65.8425 4.47778 65.2067 5.03675 64.7042 5.82702H64.533L64.22 3.9477H61.3174ZM69.9115 13.9128C69.4371 14.1827 68.8399 14.3176 68.1093 14.3176C67.5591 14.3176 67.0847 14.2309 66.677 14.0766C66.2784 13.9128 65.9562 13.6622 65.6811 13.3442C65.406 13.0261 65.1969 12.631 65.0551 12.1588C64.9127 11.6962 64.8369 11.1758 64.8369 10.6168V10.2699C64.8369 9.50848 64.9603 8.8532 65.2165 8.30382C65.472 7.7545 65.8327 7.33047 66.3163 7.03171C66.7907 6.73295 67.3788 6.58835 68.0806 6.58835C68.8301 6.58835 69.4371 6.72326 69.9115 6.99307C70.3761 7.26295 70.7277 7.67736 70.9551 8.21705C71.1825 8.76643 71.2962 9.4314 71.2962 10.2217V10.7132C71.2962 11.4746 71.1825 12.1299 70.9551 12.6792C70.7277 13.2286 70.3859 13.643 69.9115 13.9128ZM84.1684 17.2663C82.6223 17.2663 81.3135 17.0255 80.232 16.534C79.1506 16.0424 78.3253 15.3004 77.7561 14.2981C77.187 13.2958 76.9027 12.014 76.9027 10.4624C76.9027 8.91078 77.187 7.62898 77.7561 6.62668C78.3253 5.62441 79.1414 4.87267 80.2033 4.3908C81.2658 3.90893 82.5557 3.65836 84.0639 3.65836C85.5439 3.65836 86.7959 3.89929 87.8297 4.38117C88.864 4.86304 89.6417 5.58586 90.1631 6.56885C90.6944 7.55189 90.9505 8.78544 90.9505 10.2696V11.2815H80.5732C80.6019 12.0429 80.7633 12.6694 81.0384 13.1705C81.3135 13.6717 81.7115 14.0379 82.2427 14.2691C82.774 14.5004 83.4287 14.6161 84.2063 14.6161C84.5951 14.6161 84.965 14.5679 85.3257 14.4812C85.6863 14.3945 86.0085 14.2498 86.3026 14.0571C86.5966 13.8643 86.8436 13.633 87.0331 13.3536C87.2324 13.0741 87.3369 12.7561 87.3461 12.3899H90.9224C90.9224 13.1512 90.7512 13.8355 90.4193 14.4427C90.0873 15.0499 89.6319 15.5605 89.0438 15.975C88.4557 16.3894 87.7539 16.7074 86.9286 16.9291C86.1131 17.1508 85.1832 17.2663 84.1684 17.2663ZM80.6306 9.02643H87.2037C87.2037 8.56382 87.1279 8.15904 86.9762 7.81208C86.8246 7.46512 86.6064 7.17599 86.3313 6.94469C86.0562 6.71338 85.7334 6.54959 85.3544 6.43394C84.9845 6.32792 84.567 6.27009 84.1116 6.27009C83.4097 6.27009 82.8119 6.37612 82.3185 6.57848C81.8258 6.78084 81.4364 7.09891 81.1613 7.5037C80.8959 7.92773 80.7156 8.42885 80.6306 9.02643ZM93.4845 3.94823V16.9684V16.9781H97.07V10.6462C97.07 10.1066 97.1268 9.62469 97.2503 9.19103C97.3732 8.7573 97.5725 8.38146 97.8384 8.06345C98.1037 7.74537 98.4357 7.49481 98.8343 7.32134C99.2322 7.14786 99.7066 7.06109 100.257 7.06109H101.67V3.8904C101.49 3.82294 101.281 3.76513 101.035 3.71694C100.788 3.66876 100.523 3.63983 100.229 3.63983C99.6687 3.63983 99.1564 3.74586 98.7108 3.95788C98.2651 4.1699 97.8855 4.46865 97.5822 4.84451C97.2692 5.22037 97.032 5.6348 96.8707 6.07813H96.7001L96.406 3.94823H93.4845ZM116.334 16.534C117.415 17.0255 118.725 17.2663 120.271 17.2663C121.295 17.2663 122.215 17.1508 123.041 16.9291C123.865 16.7074 124.568 16.3894 125.156 15.975C125.744 15.5605 126.199 15.0499 126.531 14.4427C126.863 13.8355 127.034 13.1512 127.034 12.3899H123.457C123.448 12.7561 123.344 13.0741 123.144 13.3536C122.955 13.633 122.709 13.8643 122.414 14.0571C122.12 14.2498 121.798 14.3945 121.437 14.4812C121.077 14.5679 120.707 14.6161 120.318 14.6161C119.54 14.6161 118.886 14.5004 118.355 14.2691C117.823 14.0379 117.425 13.6717 117.15 13.1705C116.875 12.6694 116.713 12.0429 116.685 11.2815H127.053V10.2696C127.053 8.78544 126.797 7.55189 126.265 6.56885C125.744 5.58586 124.966 4.86304 123.932 4.38117C122.898 3.89929 121.646 3.65836 120.166 3.65836C118.658 3.65836 117.368 3.90893 116.306 4.3908C115.243 4.87267 114.428 5.62441 113.858 6.62668C113.289 7.62898 113.004 8.91078 113.004 10.4624C113.004 12.014 113.289 13.2958 113.858 14.2981C114.428 15.3004 115.253 16.0424 116.334 16.534ZM123.306 9.02643H116.732C116.818 8.42885 116.998 7.92773 117.263 7.5037C117.539 7.09891 117.927 6.78084 118.421 6.57848C118.914 6.37612 119.512 6.27009 120.214 6.27009C120.669 6.27009 121.086 6.32792 121.456 6.43394C121.836 6.54959 122.158 6.71338 122.434 6.94469C122.708 7.17599 122.926 7.46512 123.078 7.81208C123.23 8.15904 123.306 8.56382 123.306 9.02643ZM133.693 17.2672C133.124 17.2672 132.555 17.2094 131.986 17.0937C131.416 16.9781 130.914 16.7852 130.468 16.525C130.022 16.2648 129.662 15.8891 129.387 15.3974C129.112 14.9156 128.969 14.2892 128.969 13.5278C128.969 12.5545 129.197 11.7642 129.652 11.1667C130.108 10.5692 130.762 10.1162 131.625 9.8078C132.488 9.49941 133.504 9.29699 134.68 9.20066C135.856 9.10426 137.155 9.05606 138.568 9.05606V8.28506C138.568 7.84177 138.474 7.4755 138.284 7.18637C138.095 6.8973 137.81 6.66599 137.411 6.5022C137.013 6.33835 136.482 6.25158 135.818 6.25158C135.23 6.25158 134.737 6.30941 134.319 6.43469C133.901 6.56003 133.588 6.72382 133.37 6.91661C133.153 7.10935 133.038 7.35022 133.038 7.61047V7.90922H129.529C129.515 7.83525 129.505 7.76699 129.497 7.70873C129.496 7.69109 129.493 7.67432 129.491 7.6586C129.482 7.59115 129.482 7.51413 129.482 7.40811C129.482 6.64674 129.738 5.98175 130.24 5.41315C130.743 4.84454 131.483 4.4108 132.441 4.1024C133.399 3.794 134.565 3.63983 135.913 3.63983C137.26 3.63983 138.389 3.78441 139.309 4.08317C140.229 4.38193 140.931 4.84453 141.414 5.47097C141.898 6.0974 142.145 6.8973 142.145 7.87065V13.5857C142.145 13.8844 142.22 14.1061 142.372 14.2699C142.524 14.4241 142.714 14.5013 142.941 14.5013H143.966V16.8239C143.786 16.9009 143.501 16.9877 143.112 17.0841C142.723 17.1709 142.268 17.219 141.746 17.219C141.149 17.219 140.646 17.1419 140.257 16.9877C139.868 16.8335 139.564 16.6214 139.347 16.342C139.128 16.0625 138.967 15.754 138.872 15.3879H138.673C138.331 15.754 137.914 16.0721 137.421 16.3612C136.928 16.6503 136.368 16.872 135.742 17.0166C135.125 17.1901 134.443 17.2672 133.693 17.2672ZM134.765 14.5879C135.239 14.5879 135.695 14.5301 136.14 14.4048C136.586 14.2795 136.984 14.1061 137.345 13.8844C137.705 13.6627 137.99 13.3833 138.217 13.046C138.446 12.7087 138.559 12.3424 138.559 11.9473V11.2245C137.288 11.2245 136.216 11.2823 135.315 11.4076C134.424 11.5329 133.731 11.7353 133.257 12.0244C132.782 12.3135 132.536 12.7087 132.536 13.2291C132.536 13.5568 132.631 13.8267 132.83 14.0194C133.029 14.2218 133.294 14.3663 133.636 14.453C133.987 14.5494 134.357 14.5879 134.765 14.5879ZM145.645 3.94747V16.9676H149.24V9.67209C149.24 9.07457 149.373 8.54457 149.629 8.07233C149.895 7.60009 150.246 7.24351 150.692 6.98326C151.137 6.72307 151.622 6.59773 152.162 6.59773C152.532 6.59773 152.864 6.6363 153.149 6.72307C153.433 6.80978 153.68 6.94469 153.879 7.14711C154.078 7.33984 154.239 7.60972 154.353 7.93736C154.467 8.26506 154.524 8.66016 154.524 9.12277V16.9676H158.081V9.67209C158.081 9.07457 158.214 8.54457 158.479 8.07233C158.745 7.60009 159.106 7.24351 159.551 6.98326C159.997 6.72307 160.49 6.59773 161.021 6.59773C161.353 6.59773 161.676 6.6363 161.98 6.72307C162.274 6.80978 162.52 6.94469 162.72 7.14711C162.909 7.33984 163.061 7.60972 163.165 7.93736C163.27 8.26506 163.326 8.66016 163.326 9.12277V16.9676H166.931V8.50593C166.931 7.37835 166.741 6.4532 166.371 5.73036C165.992 5.00756 165.47 4.47754 164.797 4.14987C164.124 3.82219 163.308 3.65836 162.35 3.65836C161.752 3.65836 161.164 3.73545 160.585 3.88965C160.007 4.04384 159.475 4.29443 159.001 4.63174C158.527 4.96905 158.11 5.39311 157.749 5.90389H157.578C157.227 5.11362 156.696 4.54499 156.023 4.1884C155.349 3.83182 154.505 3.65836 153.519 3.65836C152.93 3.65836 152.361 3.73545 151.811 3.88965C151.261 4.04384 150.749 4.29443 150.265 4.63174C149.781 4.96905 149.373 5.39311 149.032 5.90389H148.861L148.567 3.94747H145.645Z" fill="white" />
</svg>
