<svg viewBox="0 0 153 31" fill="none" xmlns="http://www.w3.org/2000/svg">
	<path d="M141.395 28.6765C140.778 28.6765 140.247 28.5771 139.802 28.3783C139.356 28.1796 139.013 27.8781 138.774 27.4737C138.541 27.0625 138.424 26.552 138.424 25.942V21.5011H139.761V25.9009C139.761 26.4423 139.901 26.8535 140.182 27.1345C140.47 27.4086 140.874 27.5457 141.395 27.5457C141.916 27.5457 142.32 27.4086 142.608 27.1345C142.903 26.8535 143.05 26.4423 143.05 25.9009V21.5011H144.386V25.942C144.386 26.552 144.266 27.0625 144.027 27.4737C143.787 27.8781 143.444 28.1796 142.999 28.3783C142.553 28.5771 142.019 28.6765 141.395 28.6765ZM145.904 28.5531V21.5011H147.24V24.7701L150.366 21.5011H152L149.266 24.3589L152.051 28.5531H150.468L148.361 25.2944L147.24 26.2813V28.5531H145.904Z" fill="white" />
	<path d="M18.15 3.75862H22.88V5.61496C22.88 8.13216 20.8778 10.1667 18.4 10.1667H18.1496L18.15 3.75862ZM11.4177 1.06323H18.15V18.5828H17.3492C12.4689 18.5828 11.493 15.1245 11.493 12.0479L11.4177 1.06323ZM0.480957 5.02997C0.480957 8.15762 2.68332 9.30178 5.13604 9.68343H0.480957V18.6338H4.96096C9.46566 18.6338 9.99129 16.5996 9.99129 14.6671C9.99129 12.3022 8.38949 10.6496 5.91199 10.0136H9.99129V1.06323H5.5113C1.00655 1.06323 0.480957 3.09745 0.480957 5.02997Z" fill="white" />
	<path fill-rule="evenodd" clip-rule="evenodd" d="M98.9196 15.6973C98.1093 15.6973 97.4452 15.5659 96.9278 15.3118C96.4104 15.0577 96.0308 14.6809 95.7896 14.1729C95.5479 13.6647 95.4273 13.0426 95.4273 12.298V6.06867H93.6338V3.59797H95.5568L96.1775 0.154785H98.6784V3.59797H101.291V6.06867H98.6784V11.8249C98.6784 12.2717 98.7729 12.6134 98.9541 12.8499C99.1353 13.0865 99.4887 13.2004 100.006 13.2004H101.291V15.3381C101.102 15.3995 100.86 15.452 100.584 15.5045C100.3 15.5571 100.015 15.601 99.7216 15.636C99.4198 15.671 99.1525 15.6973 98.9196 15.6973ZM33.3144 15.6974C32.4693 15.6974 31.6933 15.6185 30.9776 15.4521C30.2618 15.2856 29.6409 15.049 29.1063 14.7424C28.5717 14.4357 28.1577 14.0503 27.8645 13.5946C27.5714 13.1391 27.4248 12.6134 27.4248 12.0089V11.8249C27.4248 11.7636 27.4334 11.711 27.4506 11.6672H30.6585V11.7723V11.8775C30.6758 12.2367 30.8051 12.5258 31.0552 12.7536C31.3052 12.9814 31.6416 13.1391 32.0555 13.2354C32.4694 13.3319 32.9005 13.3844 33.3576 13.3844C33.7887 13.3844 34.2026 13.3582 34.608 13.2967C35.0132 13.2354 35.3495 13.1128 35.6255 12.9376C35.9014 12.7536 36.0308 12.517 36.0308 12.2192C36.0308 11.8424 35.867 11.5708 35.5479 11.3869C35.2202 11.2029 34.7804 11.0626 34.2113 10.9575C33.9191 10.9035 33.6088 10.845 33.2802 10.783L33.2796 10.7828L33.279 10.7827C32.9679 10.724 32.6406 10.6622 32.2969 10.5983C31.7105 10.4932 31.1414 10.3617 30.6068 10.1953C30.0721 10.0288 29.5806 9.81853 29.158 9.55574C28.7269 9.2929 28.3906 8.95998 28.1405 8.53942C27.8904 8.12768 27.7611 7.61074 27.7611 6.99741C27.7611 6.34907 27.899 5.79712 28.1836 5.33278C28.4682 4.86843 28.8648 4.48293 29.3822 4.18504C29.8996 3.88716 30.5119 3.66811 31.2104 3.51918C31.9089 3.37899 32.6677 3.30891 33.4783 3.30891C34.2285 3.30891 34.9442 3.37899 35.6083 3.51918C36.2722 3.65936 36.85 3.86965 37.3329 4.15001C37.8244 4.43037 38.2038 4.77207 38.497 5.19262C38.7902 5.61316 38.9282 6.08628 38.9282 6.61192V6.85721C38.9282 6.93609 38.9196 6.98866 38.9023 7.04123H35.6945V6.88352C35.6945 6.59442 35.591 6.36663 35.3927 6.18267C35.1943 5.99865 34.9184 5.8672 34.5734 5.76206C34.2285 5.65692 33.8318 5.61314 33.3921 5.61314C33.1679 5.61314 32.9178 5.63065 32.6419 5.65692C32.3659 5.68323 32.09 5.7358 31.8313 5.81463C31.5726 5.89351 31.3656 5.99865 31.2104 6.1301C31.0552 6.2615 30.9776 6.43671 30.9776 6.64698C30.9776 6.91858 31.1155 7.12886 31.4001 7.28657C31.6847 7.44428 32.0555 7.56692 32.5211 7.65455C32.8263 7.71198 33.1463 7.77313 33.4859 7.83807L33.4865 7.83818L33.4871 7.83829C33.6653 7.8724 33.849 7.90752 34.0388 7.94366C34.6597 8.07511 35.2805 8.21525 35.9014 8.35546C36.5223 8.49561 37.0915 8.68832 37.6089 8.93366C38.1262 9.1702 38.5315 9.52074 38.8247 9.96755C39.1179 10.4144 39.2645 11.0189 39.2645 11.7636C39.2645 12.4821 39.1179 13.0952 38.8333 13.5946C38.5488 14.0941 38.1348 14.5059 37.6089 14.8125C37.0742 15.1192 36.4533 15.3381 35.7289 15.4783C35.0046 15.6185 34.1854 15.6974 33.3144 15.6974ZM45.6722 15.6971C44.284 15.6971 43.2147 15.338 42.4472 14.6196C41.6884 13.9012 41.3089 12.7709 41.3089 11.2202V3.59787H44.5427V10.6857C44.5427 11.1238 44.5944 11.483 44.6978 11.7809C44.8013 12.07 44.9565 12.3066 45.1634 12.4905C45.3703 12.6746 45.6205 12.8059 45.905 12.8848C46.1896 12.9637 46.5173 13.0075 46.8881 13.0075C47.4228 13.0075 47.9057 12.8848 48.3369 12.6483C48.768 12.4118 49.1215 12.07 49.3888 11.6495C49.6562 11.2202 49.7855 10.7383 49.7855 10.1951V3.60663H53.0364V15.4432H50.3805L50.139 13.6471H49.9838C49.6303 14.1114 49.2336 14.4969 48.7852 14.8036C48.3454 15.1102 47.8539 15.338 47.3107 15.4869C46.7674 15.6358 46.2328 15.6971 45.6722 15.6971ZM55.7429 3.5888V19.5431H59.0113V14.0498H59.1408C59.4165 14.4089 59.7616 14.7157 60.1584 14.961C60.5547 15.2063 60.9948 15.3903 61.4778 15.5129C61.9518 15.6355 62.452 15.697 62.9694 15.697C64.0042 15.697 64.9012 15.4691 65.6687 15.0222C66.4362 14.5667 67.0309 13.8834 67.4705 12.9721C67.9107 12.061 68.1263 10.9045 68.1263 9.51142C68.1263 8.08335 67.919 6.90932 67.4877 5.99814C67.057 5.08698 66.4529 4.41236 65.6598 3.9743C64.8662 3.53623 63.9353 3.3172 62.8572 3.3172C62.0296 3.3172 61.2621 3.46615 60.5636 3.76404C59.8566 4.07068 59.2787 4.57884 58.8218 5.29726H58.6662L58.3817 3.5888H55.7429ZM63.5557 12.648C63.1245 12.8934 62.5815 13.016 61.9174 13.016C61.4172 13.016 60.9859 12.9371 60.6152 12.7969C60.2529 12.648 59.96 12.4201 59.7099 12.1311C59.4598 11.8419 59.2698 11.4827 59.1408 11.0534C59.0113 10.6329 58.9424 10.1598 58.9424 9.65162V9.33621C58.9424 8.64405 59.0547 8.04834 59.2875 7.54891C59.5198 7.04953 59.8477 6.66404 60.2873 6.39244C60.7186 6.12084 61.2532 5.98939 61.8913 5.98939C62.5726 5.98939 63.1245 6.11203 63.5557 6.35732C63.9781 6.60266 64.2977 6.9794 64.5044 7.47002C64.7112 7.96946 64.8145 8.57398 64.8145 9.29239V9.73926C64.8145 10.4314 64.7112 11.0271 64.5044 11.5266C64.2977 12.0259 63.987 12.4027 63.5557 12.648ZM76.5165 15.6966C75.111 15.6966 73.9212 15.4777 72.938 15.0309C71.9549 14.584 71.2046 13.9094 70.6872 12.9982C70.1698 12.087 69.9114 10.9218 69.9114 9.51125C69.9114 8.10069 70.1698 6.93541 70.6872 6.02423C71.2046 5.11307 71.9466 4.42968 72.9119 3.99162C73.8778 3.55355 75.0505 3.32576 76.4215 3.32576C77.767 3.32576 78.9052 3.54479 79.845 3.98286C80.7853 4.42092 81.4922 5.07803 81.9663 5.97166C82.4492 6.86534 82.6821 7.98674 82.6821 9.33598V10.2559H73.2481C73.2743 10.9481 73.421 11.5176 73.6711 11.9731C73.9212 12.4288 74.283 12.7617 74.7659 12.9719C75.2489 13.1822 75.8441 13.2874 76.551 13.2874C76.9045 13.2874 77.2407 13.2435 77.5686 13.1647C77.8965 13.0858 78.1894 12.9543 78.4567 12.7791C78.724 12.6039 78.9485 12.3936 79.1208 12.1396C79.302 11.8856 79.397 11.5964 79.4054 11.2635H82.6565C82.6565 11.9556 82.5009 12.5777 82.1992 13.1297C81.8974 13.6817 81.4833 14.1459 80.9487 14.5227C80.4141 14.8994 79.7761 15.1886 79.0258 15.3901C78.2844 15.5916 77.4391 15.6966 76.5165 15.6966ZM73.3004 8.20583H79.2759C79.2759 7.78527 79.207 7.41729 79.0691 7.10187C78.9313 6.78645 78.7329 6.52361 78.4828 6.31333C78.2327 6.10305 77.9393 5.95415 77.5947 5.84902C77.2585 5.75263 76.8789 5.70006 76.4649 5.70006C75.8269 5.70006 75.2833 5.79645 74.8348 5.98041C74.3869 6.16438 74.0329 6.45353 73.7828 6.82152C73.5416 7.20701 73.3776 7.66257 73.3004 8.20583ZM84.9857 3.58928V15.4258V15.4346H88.2452V9.67839C88.2452 9.18776 88.2969 8.7497 88.4092 8.35546C88.5209 7.96116 88.7021 7.61949 88.9438 7.33039C89.185 7.04123 89.4868 6.81345 89.8491 6.65574C90.2109 6.49803 90.6422 6.41915 91.1424 6.41915H92.4273V3.53671C92.2633 3.47538 92.0738 3.42282 91.8499 3.37902C91.6253 3.33521 91.3841 3.30891 91.1168 3.30891C90.6077 3.30891 90.142 3.4053 89.7369 3.59805C89.3317 3.7908 88.9866 4.06239 88.7109 4.40408C88.4264 4.74577 88.2108 5.12253 88.064 5.52555H87.909L87.6417 3.58928H84.9857ZM105.758 15.0309C106.741 15.4777 107.931 15.6966 109.337 15.6966C110.268 15.6966 111.105 15.5916 111.855 15.3901C112.605 15.1886 113.243 14.8994 113.778 14.5227C114.312 14.1459 114.726 13.6817 115.028 13.1297C115.33 12.5777 115.485 11.9556 115.485 11.2635H112.234C112.226 11.5964 112.131 11.8856 111.949 12.1396C111.777 12.3936 111.553 12.6039 111.285 12.7791C111.018 12.9543 110.725 13.0858 110.397 13.1647C110.07 13.2435 109.734 13.2874 109.38 13.2874C108.673 13.2874 108.078 13.1822 107.595 12.9719C107.112 12.7617 106.75 12.4288 106.5 11.9731C106.25 11.5176 106.103 10.9481 106.077 10.2559H115.502V9.33598C115.502 7.98674 115.269 6.86534 114.786 5.97166C114.312 5.07803 113.605 4.42092 112.665 3.98286C111.725 3.54479 110.587 3.32576 109.242 3.32576C107.871 3.32576 106.698 3.55355 105.732 3.99162C104.766 4.42968 104.025 5.11307 103.507 6.02423C102.99 6.93541 102.731 8.10069 102.731 9.51125C102.731 10.9218 102.99 12.087 103.507 12.9982C104.025 13.9094 104.775 14.584 105.758 15.0309ZM112.096 8.20583H106.12C106.198 7.66257 106.362 7.20701 106.603 6.82152C106.853 6.45353 107.207 6.16438 107.655 5.98041C108.104 5.79645 108.647 5.70006 109.285 5.70006C109.699 5.70006 110.078 5.75263 110.414 5.84902C110.759 5.95415 111.053 6.10305 111.303 6.31333C111.553 6.52361 111.751 6.78645 111.889 7.10187C112.027 7.41729 112.096 7.78527 112.096 8.20583ZM121.539 15.6974C121.022 15.6974 120.504 15.6449 119.987 15.5397C119.469 15.4346 119.012 15.2593 118.607 15.0227C118.202 14.7862 117.874 14.4446 117.624 13.9977C117.374 13.5596 117.245 12.9902 117.245 12.298C117.245 11.4131 117.451 10.6947 117.865 10.1515C118.279 9.60831 118.875 9.19651 119.659 8.91616C120.444 8.63581 121.367 8.45179 122.436 8.36421C123.505 8.27658 124.686 8.23276 125.971 8.23276V7.53185C125.971 7.12886 125.885 6.79588 125.713 6.53304C125.54 6.27025 125.281 6.05997 124.919 5.91107C124.557 5.76212 124.074 5.68323 123.471 5.68323C122.936 5.68323 122.488 5.7358 122.108 5.84969C121.728 5.96364 121.444 6.11254 121.245 6.28781C121.048 6.46302 120.944 6.68199 120.944 6.91858V7.19018H117.753C117.74 7.12293 117.732 7.06088 117.725 7.00791C117.723 6.99188 117.721 6.97663 117.719 6.96234C117.71 6.90102 117.71 6.83101 117.71 6.73462C117.71 6.04247 117.943 5.43794 118.4 4.92102C118.857 4.4041 119.53 4.0098 120.401 3.72944C121.272 3.44907 122.332 3.30891 123.557 3.30891C124.781 3.30891 125.808 3.44035 126.644 3.71195C127.481 3.98355 128.119 4.4041 128.558 4.97359C128.998 5.54307 129.222 6.27025 129.222 7.15512V12.3506C129.222 12.6222 129.291 12.8237 129.429 12.9726C129.567 13.1128 129.74 13.183 129.946 13.183H130.878V15.2944C130.714 15.3645 130.455 15.4433 130.102 15.531C129.748 15.6099 129.335 15.6536 128.86 15.6536C128.317 15.6536 127.86 15.5835 127.506 15.4433C127.153 15.3031 126.876 15.1104 126.679 14.8563C126.48 14.6022 126.333 14.3218 126.247 13.989H126.066C125.755 14.3218 125.376 14.611 124.928 14.8738C124.479 15.1366 123.971 15.3381 123.402 15.4696C122.841 15.6273 122.22 15.6974 121.539 15.6974ZM122.513 13.2617C122.944 13.2617 123.358 13.2092 123.764 13.0952C124.169 12.9813 124.531 12.8237 124.859 12.6222C125.186 12.4206 125.445 12.1666 125.652 11.86C125.859 11.5533 125.963 11.2203 125.963 10.8612V10.2041C124.807 10.2041 123.833 10.2566 123.013 10.3705C122.203 10.4844 121.573 10.6684 121.142 10.9312C120.711 11.1941 120.487 11.5533 120.487 12.0264C120.487 12.3243 120.573 12.5697 120.754 12.7449C120.935 12.9289 121.177 13.0602 121.487 13.1391C121.806 13.2267 122.142 13.2617 122.513 13.2617ZM132.405 3.58858V15.4251H135.673V8.79278C135.673 8.24959 135.794 7.76777 136.026 7.33846C136.268 6.90915 136.587 6.58499 136.992 6.3484C137.397 6.11186 137.838 5.99792 138.329 5.99792C138.665 5.99792 138.967 6.03298 139.226 6.11186C139.484 6.19069 139.709 6.31333 139.889 6.49735C140.071 6.67256 140.217 6.91791 140.321 7.21576C140.425 7.51367 140.476 7.87285 140.476 8.2934V15.4251H143.71V8.79278C143.71 8.24959 143.83 7.76777 144.072 7.33846C144.313 6.90915 144.641 6.58499 145.046 6.3484C145.451 6.11186 145.9 5.99792 146.383 5.99792C146.685 5.99792 146.978 6.03298 147.254 6.11186C147.522 6.19069 147.746 6.31333 147.927 6.49735C148.099 6.67256 148.237 6.91791 148.331 7.21576C148.427 7.51367 148.478 7.87285 148.478 8.2934V15.4251H151.755V7.73265C151.755 6.70757 151.583 5.86652 151.246 5.2094C150.902 4.5523 150.427 4.07047 149.815 3.77259C149.203 3.4747 148.461 3.32576 147.591 3.32576C147.047 3.32576 146.512 3.39584 145.986 3.53602C145.46 3.6762 144.977 3.904 144.546 4.21065C144.115 4.5173 143.736 4.9028 143.408 5.36715H143.253C142.934 4.64873 142.451 4.13179 141.838 3.80762C141.226 3.48345 140.459 3.32576 139.562 3.32576C139.027 3.32576 138.51 3.39584 138.01 3.53602C137.51 3.6762 137.044 3.904 136.604 4.21065C136.164 4.5173 135.794 4.9028 135.483 5.36715H135.328L135.06 3.58858H132.405Z" fill="white" />
</svg>
