<svg viewBox="0 0 162 31" fill="none" xmlns="http://www.w3.org/2000/svg">
	<path d="M113.583 22.9324L115.613 29.1694H115.692L117.718 22.9324H119.272L116.523 30.8563H114.778L112.033 22.9324H113.583ZM121.712 22.9324V30.8563H120.3V22.9324H121.712ZM123.242 30.8563V22.9324H128.315V24.1357H124.655V26.2869H128.052V27.4902H124.655V29.653H128.345V30.8563H123.242ZM129.413 24.1357V22.9324H135.635V24.1357H133.225V30.8563H131.824V24.1357H129.413ZM143.244 22.9324V30.8563H141.988L138.312 25.4589H138.248V30.8563H136.835V22.9324H138.1L141.771 28.3337H141.839V22.9324H143.244ZM145.785 30.8563H144.277L147.023 22.9324H148.767L151.516 30.8563H150.009L147.925 24.5574H147.865L145.785 30.8563ZM145.835 27.7494H149.948V28.9024H145.835V27.7494ZM152.544 22.9324H154.272L156.588 28.6741H156.679L158.995 22.9324H160.724V30.8563H159.368V25.4125H159.295L157.14 30.8331H156.127L153.972 25.4009H153.899V30.8563H152.544V22.9324Z" fill="white" />
	<path d="M19.2993 3.99659H24.3289V5.9705C24.3289 8.64712 22.1999 10.8105 19.5651 10.8105H19.2989L19.2993 3.99659ZM12.1406 1.13049H19.2993V19.7596H18.4478C13.2584 19.7596 12.2207 16.0824 12.2207 12.8108L12.1406 1.13049ZM0.51123 5.34846C0.51123 8.6742 2.85308 9.89082 5.46114 10.2966H0.51123V19.8139H5.27497C10.065 19.8139 10.6239 17.6508 10.6239 15.5959C10.6239 13.0813 8.92064 11.324 6.28623 10.6478H10.6239V1.13049H5.86017C1.07011 1.13049 0.51123 3.29354 0.51123 5.34846Z" fill="white" />
	<path fill-rule="evenodd" clip-rule="evenodd" d="M105.184 16.6914C104.323 16.6914 103.617 16.5517 103.066 16.2815C102.516 16.0114 102.113 15.6107 101.856 15.0704C101.599 14.5301 101.471 13.8686 101.471 13.0768V6.45298H99.5639V3.82581H101.609L102.269 0.164551H104.928V3.82581H107.706V6.45298H104.928V12.5737C104.928 13.0488 105.028 13.4122 105.221 13.6637C105.414 13.9152 105.79 14.0364 106.34 14.0364H107.706V16.3095C107.505 16.3747 107.247 16.4306 106.954 16.4864C106.652 16.5424 106.349 16.589 106.037 16.6262C105.716 16.6635 105.432 16.6914 105.184 16.6914ZM35.4243 16.6916C34.5257 16.6916 33.7004 16.6077 32.9394 16.4307C32.1783 16.2536 31.5181 16.0021 30.9496 15.6761C30.3811 15.3499 29.941 14.9401 29.6292 14.4556C29.3175 13.9712 29.1616 13.4122 29.1616 12.7694V12.5738C29.1616 12.5086 29.1708 12.4527 29.1891 12.4061H32.6001V12.5179V12.6297C32.6185 13.0117 32.756 13.3191 33.0219 13.5613C33.2878 13.8036 33.6454 13.9712 34.0856 14.0736C34.5257 14.1762 34.9841 14.232 35.4701 14.232C35.9286 14.232 36.3687 14.2042 36.7997 14.1388C37.2306 14.0736 37.5882 13.9432 37.8817 13.7569C38.1751 13.5613 38.3127 13.3097 38.3127 12.993C38.3127 12.5924 38.1385 12.3036 37.7992 12.108C37.4507 11.9124 36.9831 11.7632 36.3779 11.6514C36.0672 11.594 35.7372 11.5318 35.3879 11.4658L35.3872 11.4657L35.3866 11.4656C35.0558 11.4032 34.7077 11.3374 34.3423 11.2695C33.7188 11.1577 33.1136 11.0179 32.5451 10.8409C31.9766 10.6639 31.4539 10.4403 31.0046 10.1609C30.5462 9.88141 30.1886 9.52741 29.9227 9.08022C29.6567 8.64239 29.5192 8.09271 29.5192 7.44054C29.5192 6.75114 29.6659 6.16424 29.9685 5.67048C30.2711 5.17672 30.6928 4.76681 31.243 4.45006C31.7932 4.13331 32.4442 3.90039 33.187 3.74202C33.9297 3.59296 34.7366 3.51844 35.5985 3.51844C36.3962 3.51844 37.1573 3.59296 37.8634 3.74202C38.5694 3.89108 39.1837 4.11469 39.6972 4.41281C40.2199 4.71093 40.6233 5.07427 40.9351 5.52145C41.2468 5.96862 41.3935 6.47171 41.3935 7.03064V7.29146C41.3935 7.37534 41.3844 7.43124 41.3661 7.48713H37.955V7.31944C37.955 7.01202 37.845 6.76982 37.6341 6.5742C37.4232 6.37853 37.1298 6.23875 36.763 6.12695C36.3963 6.01516 35.9744 5.9686 35.5068 5.9686C35.2684 5.9686 35.0025 5.98722 34.7091 6.01516C34.4157 6.04314 34.1223 6.09903 33.8472 6.18285C33.5721 6.26673 33.352 6.37853 33.187 6.5183C33.0219 6.65802 32.9394 6.84433 32.9394 7.06792C32.9394 7.35672 33.0861 7.58032 33.3887 7.74801C33.6913 7.91571 34.0856 8.04612 34.5807 8.13931C34.9052 8.20037 35.2454 8.26539 35.6066 8.33444L35.6072 8.33456L35.6078 8.33468C35.7974 8.37095 35.9927 8.40829 36.1945 8.44672C36.8547 8.58649 37.5149 8.73552 38.1751 8.8846C38.8353 9.03362 39.4405 9.23855 39.9907 9.49943C40.5408 9.75094 40.9718 10.1237 41.2835 10.5988C41.5953 11.0739 41.7512 11.7167 41.7512 12.5086C41.7512 13.2726 41.5953 13.9245 41.2927 14.4556C40.9901 14.9867 40.55 15.4246 39.9907 15.7506C39.4222 16.0767 38.7619 16.3095 37.9917 16.4586C37.2215 16.6077 36.3504 16.6916 35.4243 16.6916ZM48.5647 16.6913C47.0885 16.6913 45.9515 16.3093 45.1354 15.5455C44.3286 14.7815 43.925 13.5797 43.925 11.9308V3.82569H47.3636V11.3625C47.3636 11.8283 47.4186 12.2102 47.5286 12.527C47.6386 12.8344 47.8037 13.0859 48.0237 13.2816C48.2437 13.4772 48.5097 13.617 48.8123 13.7008C49.1149 13.7847 49.4633 13.8312 49.8575 13.8312C50.4261 13.8312 50.9396 13.7008 51.3981 13.4493C51.8566 13.1978 52.2325 12.8344 52.5167 12.3872C52.801 11.9307 52.9385 11.4184 52.9385 10.8408V3.83502H56.3953V16.4212H53.5712L53.3144 14.5113H53.1494C52.7735 15.0051 52.3517 15.415 51.8748 15.7411C51.4072 16.0671 50.8846 16.3093 50.3069 16.4677C49.7293 16.6261 49.1608 16.6913 48.5647 16.6913ZM59.2732 3.81605V20.7808H62.7486V14.9396H62.8863C63.1794 15.3215 63.5464 15.6476 63.9684 15.9084C64.3897 16.1693 64.8577 16.3649 65.3713 16.4953C65.8754 16.6258 66.4072 16.6911 66.9574 16.6911C68.0578 16.6911 69.0116 16.4488 69.8277 15.9736C70.6438 15.4892 71.2761 14.7627 71.7435 13.7937C72.2116 12.8248 72.4409 11.5951 72.4409 10.1138C72.4409 8.59526 72.2204 7.34688 71.7619 6.37799C71.3039 5.40912 70.6615 4.69177 69.8182 4.22597C68.9743 3.76016 67.9845 3.52725 66.838 3.52725C65.9581 3.52725 65.142 3.68564 64.3992 4.00239C63.6475 4.32846 63.0329 4.86879 62.5471 5.63272H62.3816L62.0791 3.81605H59.2732ZM67.5809 13.449C67.1223 13.7099 66.5449 13.8403 65.8387 13.8403C65.3069 13.8403 64.8483 13.7564 64.4541 13.6073C64.0688 13.449 63.7574 13.2067 63.4915 12.8993C63.2255 12.5919 63.0234 12.2099 62.8863 11.7534C62.7486 11.3063 62.6754 10.8032 62.6754 10.2629V9.92746C62.6754 9.19147 62.7947 8.55803 63.0423 8.02697C63.2894 7.49596 63.638 7.08606 64.1055 6.79726C64.564 6.50846 65.1325 6.36868 65.811 6.36868C66.5355 6.36868 67.1223 6.49909 67.5809 6.75991C68.03 7.02079 68.3698 7.42139 68.5896 7.94309C68.8095 8.47416 68.9194 9.11696 68.9194 9.88087V10.356C68.9194 11.092 68.8095 11.7255 68.5896 12.2565C68.3698 12.7875 68.0394 13.1881 67.5809 13.449ZM81.3625 16.6907C79.868 16.6907 78.6028 16.4579 77.5574 15.9828C76.512 15.5076 75.7142 14.7903 75.164 13.8214C74.6138 12.8525 74.339 11.6135 74.339 10.1136C74.339 8.61369 74.6138 7.37462 75.164 6.40573C75.7142 5.43687 76.5031 4.71019 77.5296 4.24438C78.5567 3.77857 79.8036 3.53635 81.2615 3.53635C82.6922 3.53635 83.9024 3.76925 84.9017 4.23507C85.9016 4.70088 86.6533 5.3996 87.1574 6.34983C87.6709 7.3001 87.9186 8.49253 87.9186 9.92722V10.9054H77.8871C77.9149 11.6414 78.0709 12.247 78.3368 12.7314C78.6028 13.2159 78.9875 13.5699 79.501 13.7934C80.0145 14.017 80.6475 14.1289 81.3992 14.1289C81.775 14.1289 82.1325 14.0822 82.4812 13.9985C82.8298 13.9146 83.1413 13.7747 83.4255 13.5884C83.7098 13.4021 83.9485 13.1785 84.1317 12.9084C84.3244 12.6383 84.4254 12.3308 84.4343 11.9768H87.8914C87.8914 12.7128 87.7259 13.3743 87.405 13.9612C87.0841 14.5481 86.6439 15.0418 86.0754 15.4424C85.5069 15.843 84.8285 16.1505 84.0307 16.3648C83.2423 16.579 82.3435 16.6907 81.3625 16.6907ZM77.9427 8.72549H84.2966C84.2966 8.2783 84.2233 7.88701 84.0768 7.55162C83.9302 7.21623 83.7192 6.93673 83.4533 6.71314C83.1874 6.48954 82.8754 6.33121 82.509 6.21942C82.1514 6.11693 81.7478 6.06103 81.3076 6.06103C80.6291 6.06103 80.0512 6.16352 79.5743 6.35913C79.098 6.55475 78.7215 6.86222 78.4556 7.25351C78.1991 7.66342 78.0248 8.14783 77.9427 8.72549ZM90.3681 3.81656V16.4027V16.4121H93.834V10.2913C93.834 9.76961 93.889 9.30381 94.0083 8.8846C94.1271 8.46533 94.3198 8.10202 94.5768 7.79461C94.8333 7.48713 95.1542 7.24493 95.5395 7.07723C95.9242 6.90953 96.3828 6.82566 96.9147 6.82566H98.2809V3.76066C98.1066 3.69545 97.9051 3.63956 97.6669 3.59298C97.4282 3.5464 97.1717 3.51844 96.8875 3.51844C96.3462 3.51844 95.8509 3.62093 95.4201 3.82589C94.9893 4.03084 94.6223 4.31964 94.3292 4.68297C94.0267 5.0463 93.7974 5.44692 93.6414 5.87546H93.4765L93.1922 3.81656H90.3681ZM112.456 15.9828C113.501 16.4579 114.767 16.6907 116.261 16.6907C117.252 16.6907 118.141 16.579 118.939 16.3648C119.736 16.1505 120.415 15.843 120.984 15.4424C121.552 15.0418 121.992 14.5481 122.313 13.9612C122.634 13.3743 122.799 12.7128 122.799 11.9768H119.342C119.333 12.3308 119.232 12.6383 119.039 12.9084C118.856 13.1785 118.618 13.4021 118.333 13.5884C118.049 13.7747 117.738 13.9146 117.389 13.9985C117.041 14.0822 116.683 14.1289 116.307 14.1289C115.555 14.1289 114.923 14.017 114.409 13.7934C113.896 13.5699 113.51 13.2159 113.245 12.7314C112.979 12.247 112.823 11.6414 112.795 10.9054H122.817V9.92722C122.817 8.49253 122.57 7.3001 122.056 6.34983C121.552 5.3996 120.8 4.70088 119.801 4.23507C118.801 3.76925 117.591 3.53635 116.16 3.53635C114.702 3.53635 113.455 3.77857 112.428 4.24438C111.401 4.71019 110.613 5.43687 110.063 6.40573C109.513 7.37462 109.237 8.61369 109.237 10.1136C109.237 11.6135 109.513 12.8525 110.063 13.8214C110.613 14.7903 111.411 15.5076 112.456 15.9828ZM119.195 8.72549H112.841C112.924 8.14783 113.098 7.66342 113.354 7.25351C113.62 6.86222 113.996 6.55475 114.473 6.35913C114.95 6.16352 115.528 6.06103 116.206 6.06103C116.646 6.06103 117.05 6.11693 117.407 6.21942C117.774 6.33121 118.086 6.48954 118.352 6.71314C118.617 6.93673 118.828 7.21623 118.976 7.55162C119.122 7.88701 119.195 8.2783 119.195 8.72549ZM129.236 16.6916C128.686 16.6916 128.136 16.6357 127.586 16.5238C127.036 16.4121 126.55 16.2256 126.119 15.9741C125.688 15.7226 125.34 15.3594 125.074 14.8841C124.808 14.4183 124.67 13.8129 124.67 13.0768C124.67 12.1359 124.89 11.372 125.33 10.7944C125.77 10.2168 126.403 9.77892 127.237 9.48081C128.072 9.18271 129.053 8.98703 130.19 8.89391C131.327 8.80072 132.583 8.75413 133.949 8.75413V8.00883C133.949 7.58032 133.858 7.22625 133.674 6.94676C133.491 6.66733 133.216 6.44373 132.83 6.2854C132.446 6.12701 131.932 6.04313 131.29 6.04313C130.722 6.04313 130.245 6.09903 129.841 6.22014C129.438 6.3413 129.135 6.49963 128.924 6.686C128.714 6.87231 128.603 7.10515 128.603 7.35672V7.64552H125.211C125.197 7.57401 125.188 7.50803 125.181 7.45171C125.179 7.43466 125.176 7.41845 125.174 7.40326C125.165 7.33805 125.165 7.2636 125.165 7.16111C125.165 6.42512 125.413 5.7823 125.899 5.23265C126.384 4.68299 127.1 4.26371 128.026 3.9656C128.952 3.66748 130.08 3.51844 131.382 3.51844C132.684 3.51844 133.775 3.6582 134.665 3.947C135.554 4.2358 136.233 4.68299 136.7 5.28854C137.168 5.89409 137.406 6.66733 137.406 7.60824V13.1328C137.406 13.4215 137.48 13.6358 137.626 13.7941C137.773 13.9432 137.956 14.0179 138.176 14.0179H139.167V16.263C138.992 16.3375 138.718 16.4214 138.342 16.5146C137.965 16.5984 137.526 16.645 137.021 16.645C136.444 16.645 135.958 16.5705 135.581 16.4214C135.206 16.2723 134.912 16.0673 134.701 15.7972C134.49 15.527 134.334 15.2288 134.243 14.8749H134.05C133.72 15.2288 133.317 15.5363 132.84 15.8157C132.363 16.0952 131.822 16.3095 131.217 16.4494C130.621 16.617 129.961 16.6916 129.236 16.6916ZM130.272 14.1016C130.731 14.1016 131.171 14.0457 131.602 13.9245C132.033 13.8034 132.418 13.6358 132.767 13.4215C133.115 13.2072 133.39 12.9371 133.61 12.6111C133.83 12.285 133.94 11.9309 133.94 11.549V10.8503C132.712 10.8503 131.675 10.9062 130.804 11.0273C129.943 11.1484 129.273 11.344 128.814 11.6235C128.356 11.903 128.118 12.285 128.118 12.7881C128.118 13.1048 128.209 13.3657 128.402 13.5521C128.595 13.7477 128.851 13.8873 129.181 13.9712C129.521 14.0644 129.878 14.1016 130.272 14.1016ZM140.79 3.81582V16.402H144.265V9.34962C144.265 8.77202 144.394 8.25969 144.641 7.80319C144.898 7.3467 145.238 7.002 145.668 6.75042C146.099 6.49891 146.567 6.37775 147.09 6.37775C147.447 6.37775 147.768 6.41503 148.043 6.49891C148.318 6.58273 148.557 6.71314 148.749 6.90881C148.942 7.09512 149.098 7.356 149.208 7.67272C149.318 7.9895 149.372 8.37143 149.372 8.81862V16.402H152.811V9.34962C152.811 8.77202 152.939 8.25969 153.197 7.80319C153.453 7.3467 153.802 7.002 154.233 6.75042C154.663 6.49891 155.14 6.37775 155.654 6.37775C155.975 6.37775 156.286 6.41503 156.58 6.49891C156.865 6.58273 157.103 6.71314 157.296 6.90881C157.479 7.09512 157.625 7.356 157.726 7.67272C157.827 7.9895 157.882 8.37143 157.882 8.81862V16.402H161.367V8.22234C161.367 7.13235 161.183 6.23803 160.825 5.53929C160.459 4.84058 159.954 4.32823 159.303 4.01148C158.653 3.69472 157.864 3.53635 156.938 3.53635C156.36 3.53635 155.791 3.61087 155.232 3.75993C154.673 3.90899 154.159 4.15122 153.701 4.47729C153.242 4.80336 152.839 5.21328 152.49 5.70703H152.325C151.986 4.94311 151.473 4.39343 150.822 4.04873C150.17 3.70403 149.355 3.53635 148.401 3.53635C147.832 3.53635 147.282 3.61087 146.75 3.75993C146.219 3.90899 145.723 4.15122 145.256 4.47729C144.788 4.80336 144.394 5.21328 144.064 5.70703H143.898L143.614 3.81582H140.79Z" fill="white" />
</svg>
