<svg width="45" height="32" viewBox="0 0 45 32" fill="none" xmlns="http://www.w3.org/2000/svg">
	<path fill-rule="evenodd" clip-rule="evenodd" d="M6.71958 0.0133855C10.2985 0.0133855 13.8774 0.0133855 17.4563 0.0133855C17.4563 5.45625 17.4563 10.8993 17.4563 16.3422C15.1437 16.3051 12.8324 16.3422 10.5222 16.4541C17.1611 18.7329 19.1371 23.0947 16.4498 29.5395C14.8833 31.1241 12.982 31.9441 10.7459 32C7.24143 32 3.73722 32 0.232783 32C0.232783 26.6316 0.232783 21.2632 0.232783 15.8949C2.84674 15.9691 5.45622 15.8946 8.06168 15.6712C7.87714 15.473 7.65345 15.3985 7.39063 15.4475C4.81761 15.0572 2.72998 13.864 1.12751 11.8686C1.07047 11.3167 0.846792 10.8694 0.456466 10.5265C0.502545 9.85654 0.353572 9.25998 0.00910088 8.73701C-0.0276502 7.23789 0.0469033 5.74659 0.232783 4.26336C1.16711 1.95294 2.88208 0.573487 5.37748 0.125227C5.81881 0.014504 6.26617 -0.022851 6.71958 0.0133855Z" fill="#FDFDFD" />
	<path fill-rule="evenodd" clip-rule="evenodd" d="M31.101 16.3423C31.5866 15.2601 32.4066 14.589 33.5615 14.3291C33.8597 14.3291 34.158 14.3291 34.4562 14.3291C34.4562 9.55729 34.4562 4.78525 34.4562 0.0134277C34.8291 0.0134277 35.2017 0.0134277 35.5746 0.0134277C39.9812 0.386307 42.7399 2.69762 43.8509 6.94759C43.8308 7.54079 43.9797 8.06265 44.2982 8.51337C44.5175 16.3353 44.5919 24.1642 44.5219 32C41.0922 32 37.6623 32 34.2325 32C34.2325 27.6756 34.2325 23.3509 34.2325 19.0264C33.1141 19.0264 31.9957 19.0264 30.8773 19.0264C30.6543 23.312 30.5798 27.6367 30.6536 32C30.3554 32 30.057 32 29.7589 32C25.9207 31.8748 23.2365 30.0853 21.7063 26.6317C21.7669 26.2111 21.6177 25.913 21.2589 25.7369C21.0596 24.4443 20.836 23.1769 20.5879 21.9343C20.5879 14.6273 20.5879 7.32047 20.5879 0.0134277C23.9431 0.0134277 27.2984 0.0134277 30.6536 0.0134277C30.5791 5.53302 30.6536 11.0504 30.8773 16.5659C31.0131 16.5382 31.0876 16.4637 31.101 16.3423Z" fill="#FCFCFC" />
</svg>
