<svg viewBox="0 0 188 22" fill="none" xmlns="http://www.w3.org/2000/svg">
	<path d="M3.60107 8.01259C3.60107 3.60032 6.66483 0.651636 11.3882 0.56665H28.5694C27.5448 2.82744 26.7197 3.97372 26.0946 4.00547H11.2356C8.66321 4.0124 7.11463 5.50802 7.11463 8.01259C7.11463 10.49 8.65836 12.0917 11.1489 12.1016L17.7288 12.0917C18.6846 12.1016 19.5035 12.9251 19.5035 13.9166C19.5035 14.9081 18.7579 15.4816 17.8201 15.5292L11.3401 15.5366C6.72348 15.5366 3.67202 12.4873 3.6023 8.16377L3.60107 8.01259Z" fill="white" />
	<path d="M25.7467 13.8801C25.7467 18.2924 22.683 21.2411 17.9596 21.326H0.77832C1.80311 19.0652 2.62808 17.919 3.25321 17.8872H18.1121C20.6846 17.8802 22.2333 16.3847 22.2333 13.8801C22.2333 11.4027 20.6895 9.80103 18.199 9.79107L11.619 9.80103C10.6633 9.79107 9.84425 8.96754 9.84425 7.97605C9.84425 6.98454 10.5899 6.4111 11.5276 6.36346L18.0077 6.35596C22.6243 6.35596 25.6757 9.40539 25.7454 13.7289L25.7467 13.8801Z" fill="white" />
	<path d="M48.0164 17.9368H38.251V15.7337H48.2918C49.7746 15.7337 50.4312 15.0771 50.4312 13.7425C50.4312 12.408 49.7957 11.8573 48.1647 11.8573H42.7418C39.3526 11.8573 37.9121 10.438 37.9121 7.70539C37.9121 4.95161 39.3737 3.63827 42.9113 3.63827H52.7825V5.84129H42.9113C41.4497 5.84129 40.7718 6.37087 40.7718 7.74776C40.7718 9.12465 41.4497 9.65423 42.996 9.65423H48.4189C51.8717 9.65423 53.3121 11.0947 53.3121 13.8696C53.3121 16.6234 51.8717 17.9368 48.0164 17.9368ZM72.3427 17.9368H68.6568L65.4158 9.3153L62.0901 17.9368H58.3831L54.0618 7.197H56.985L60.3531 16.0938L63.7424 7.197H67.2164L70.5421 16.0938L73.8678 7.197H76.6852L72.3427 17.9368ZM80.6013 17.9368H77.8263V7.34528H80.6013V17.9368ZM80.6013 5.77774H77.8263V3.17224H80.6013V5.77774ZM88.8376 17.9368H87.4819C83.4148 17.9368 82.2285 17.2377 82.2285 14.1238V3.38407H85.0247V7.197H89.0918V9.14584H85.0247V13.9756C85.0247 15.6066 85.639 16.0091 87.7785 16.0091H88.8376V17.9368ZM101.825 17.9368H95.2374C92.06 17.9368 89.9417 16.6022 89.9417 12.5563C89.9417 8.53153 92.0176 7.197 95.2374 7.197H101.825V9.27293H95.7035C93.564 9.27293 92.6743 10.2685 92.6743 12.5563C92.6743 14.8652 93.564 15.8608 95.7035 15.8608H101.825V17.9368ZM117.208 17.9368H114.433V12.1538C114.433 10.3744 113.501 9.25175 111.467 9.25175H106.086V17.9368H103.312V3.17224H106.086V7.197H111.912C115.11 7.197 117.208 8.72218 117.208 12.1538V17.9368ZM127.024 17.9368H124.079C120.436 17.9368 118.678 16.0303 118.678 13.1282V3.17224H121.474V7.197H127.024C130.9 7.197 132.976 9.10347 132.976 12.5563C132.976 16.0303 130.9 17.9368 127.024 17.9368ZM124.185 15.9032H126.642C129.375 15.9032 130.244 14.4839 130.244 12.5563C130.244 10.671 129.375 9.25175 126.642 9.25175H121.474V12.7469C121.474 14.3145 121.897 15.9032 124.185 15.9032ZM142.557 17.9368H140.163C136.287 17.9368 134.211 16.0303 134.211 12.5563C134.211 9.10347 136.287 7.197 140.163 7.197H142.557C146.412 7.197 148.509 9.10347 148.509 12.5563C148.509 16.0303 146.412 17.9368 142.557 17.9368ZM140.417 15.9032H142.175C144.908 15.9032 145.777 14.4839 145.777 12.5563C145.777 10.6498 144.908 9.23057 142.175 9.23057H140.417C137.833 9.23057 136.943 10.6498 136.943 12.5563C136.943 14.4839 137.833 15.9032 140.417 15.9032ZM162.859 17.9368H152.712C150.382 17.9368 149.619 16.4963 149.619 14.5687C149.619 12.6198 150.382 11.37 152.712 11.37H160.084C159.851 9.61186 158.982 9.14584 157.054 9.14584H150.022V7.197H157.287C161.206 7.197 162.859 8.59508 162.859 12.5775V17.9368ZM160.168 15.9879V13.107H153.58C152.542 13.107 152.182 13.6154 152.182 14.5051C152.182 15.4584 152.564 15.9879 153.58 15.9879H160.168ZM167.129 17.9368H164.333V11.8784C164.333 8.59508 166.24 7.197 169.375 7.197H172.785V9.14584H169.819C167.955 9.14584 167.129 10.0355 167.129 11.8784V17.9368ZM182.515 17.9368H179.592C175.694 17.9368 173.618 16.0303 173.618 12.5563C173.618 9.10347 175.694 7.197 179.592 7.197H185.141V3.17224H187.938V13.1282C187.938 16.0303 186.158 17.9368 182.515 17.9368ZM185.141 13.3401V9.25175H179.952C177.24 9.25175 176.372 10.671 176.372 12.5563C176.372 14.4839 177.24 15.9032 179.952 15.9032H181.9C184.188 15.9032 185.141 14.9711 185.141 13.3401Z" fill="white" />
</svg>
