<svg width="508" height="196" viewBox="0 0 508 196" fill="none" xmlns="http://www.w3.org/2000/svg">
	<path d="M48.5997 65.6792C55.6475 65.6792 61.8683 62.1397 65.5812 56.742C67.5777 53.8391 70.574 51.4626 74.0975 51.4626C77.6213 51.4626 80.6173 53.8388 82.6138 56.7417C83.1235 57.4826 83.6805 58.1885 84.2805 58.8553C87.1858 62.084 89.7882 65.9036 89.7882 70.2464V71.3062C89.7882 76.5649 86.4236 81.1185 82.994 85.1057C79.8937 88.7096 78.0201 93.3982 78.0201 98.5243C78.0201 103.39 79.7081 107.862 82.5308 111.385C86.0956 115.836 89.7882 120.766 89.7882 126.467C89.7882 132.169 86.0956 137.099 82.5308 141.549C79.7081 145.073 78.0201 149.545 78.0201 154.411C78.0201 165.782 87.2404 175 98.614 175C109.988 175 119.208 165.782 119.208 154.411C119.208 149.545 117.52 145.073 114.697 141.549C111.132 137.099 107.44 132.169 107.44 126.467C107.44 120.766 111.132 115.836 114.697 111.385C117.52 107.862 119.208 103.39 119.208 98.5243C119.208 93.0587 117.078 88.0901 113.602 84.4039C110.39 80.997 107.44 76.9324 107.44 72.2505C107.44 67.3382 110.675 63.1274 114.151 59.6554C115.045 58.7618 115.858 57.7861 116.577 56.741C118.573 53.8384 121.569 51.4626 125.092 51.4626C128.615 51.4626 131.611 53.8387 133.608 56.7413C137.32 62.1393 143.541 65.6792 150.589 65.6792C161.963 65.6792 171.183 56.461 171.183 45.0894C171.183 33.7183 161.963 24.5 150.589 24.5C144.566 24.5 139.146 27.0853 135.38 31.2066C132.649 34.1953 129.141 36.7556 125.092 36.7556C121.043 36.7556 117.535 34.1953 114.804 31.2066C111.038 27.0853 105.619 24.5 99.5952 24.5C93.5722 24.5 88.153 27.0851 84.3873 31.206C81.656 34.195 78.1472 36.7556 74.0975 36.7556C70.0482 36.7556 66.5394 34.195 63.8081 31.206C60.042 27.0851 54.6228 24.5 48.5997 24.5C37.2261 24.5 28.0059 33.7183 28.0059 45.0894C28.0059 56.461 37.2261 65.6792 48.5997 65.6792Z" fill="white" />
	<path d="M164.535 91C164.535 98.7319 158.266 105 150.532 105C142.799 105 136.529 98.7319 136.529 91C136.529 83.2682 142.799 77 150.532 77C158.266 77 164.535 83.2682 164.535 91Z" fill="white" />
	<path d="M157.534 133C157.534 136.866 154.4 140 150.533 140C146.666 140 143.531 136.866 143.531 133C143.531 129.134 146.666 126 150.533 126C154.4 126 157.534 129.134 157.534 133Z" fill="white" />
	<path d="M63.0138 91C63.0138 98.7319 56.7443 105 49.0108 105C41.2773 105 35.0078 98.7319 35.0078 91C35.0078 83.2682 41.2773 77 49.0108 77C56.7443 77 63.0138 83.2682 63.0138 91Z" fill="white" />
	<path d="M56.0118 133C56.0118 136.866 52.8772 140 49.0103 140C45.1434 140 42.0088 136.866 42.0088 133C42.0088 129.134 45.1434 126 49.0103 126C52.8772 126 56.0118 129.134 56.0118 133Z" fill="white" />
	<path d="M438.312 110.675L455.141 110.098C455.869 120.129 463.738 124.164 473.184 124.164C481.295 124.164 486.381 121.167 486.381 116.324C486.381 111.482 481.9 110.329 475.242 109.061L460.952 106.64C448.846 104.449 440.248 97.993 440.248 85.6573C440.248 71.3612 451.993 62.4838 470.519 62.4838C491.223 62.4838 502.485 72.2834 502.845 88.424L485.895 88.8853C485.412 80.3537 479.236 76.2034 470.397 76.2034C462.65 76.2034 458.288 79.2008 458.288 84.1582C458.288 88.3089 461.68 89.8076 467.25 90.8453L481.536 93.2663C497.157 95.9179 504.302 103.297 504.302 115.171C504.302 130.159 490.617 137.884 473.184 137.884C452.841 137.884 438.312 128.315 438.312 110.675Z" fill="white" />
	<path d="M433.236 136.5H414.59C413.015 134.54 412.045 129.813 411.443 122.089C410.838 113.903 406.962 111.251 399.334 111.251H383.955V136.5H365.916V63.8673H402.723C422.46 63.8673 432.147 72.6292 432.147 86.5795C432.147 97.3014 425.002 103.988 415.679 105.141C423.79 106.64 428.394 111.136 429.241 119.668C430.33 130.39 430.694 133.848 433.236 136.5ZM383.955 97.7627H399.817C409.385 97.7627 414.104 95.1108 414.104 87.9631C414.104 81.5066 409.385 77.9328 399.817 77.9328H383.955V97.7627Z" fill="white" />
	<path d="M308.319 63.8673H328.781L359.538 136.5H339.921L333.383 120.821H302.628L296.211 136.5H277.807L308.319 63.8673ZM317.763 83.8124L307.956 107.678H328.055L318.248 83.8124H317.763Z" fill="white" />
	<path d="M257.751 136.5H239.468V78.2786H212.951V63.8673H284.631V78.2786H257.751V136.5Z" fill="white" />
</svg>
