<svg viewBox="0 0 282 48" fill="none" xmlns="http://www.w3.org/2000/svg">
	<path d="M158.815 15.5726C157.592 16.7945 156.39 17.9818 155.209 19.19C154.958 19.4465 154.705 19.5323 154.356 19.5319C147.614 19.5228 140.872 19.5251 134.131 19.5251C133.918 19.5251 133.705 19.5251 133.439 19.5251C133.439 20.1398 133.422 20.6993 133.454 21.2559C133.461 21.3636 133.65 21.4841 133.779 21.5529C133.864 21.5982 133.993 21.5612 134.102 21.5612C143.751 21.561 153.4 21.5609 163.049 21.5608C163.228 21.5608 163.407 21.5608 163.612 21.5608C163.612 24.4706 163.612 27.3543 163.612 30.2786C150.638 30.2786 137.658 30.2786 124.66 30.2786C124.66 20.2238 124.66 10.1641 124.66 0.0566406C137.647 0.0566406 150.608 0.0566406 163.605 0.0566406C163.605 2.95092 163.605 5.86402 163.605 8.81588C153.574 8.81588 143.55 8.81588 133.44 8.81588C133.44 9.40461 133.428 9.95939 133.452 10.5126C133.457 10.6066 133.604 10.7404 133.711 10.7729C133.861 10.8186 134.034 10.7879 134.198 10.7879C143.738 10.7881 153.278 10.788 162.818 10.788C163.032 10.788 163.246 10.788 163.46 10.788C163.487 10.8256 163.514 10.8633 163.54 10.901C161.974 12.4492 160.408 13.9974 158.815 15.5726Z" fill="white" />
	<path d="M81.5401 30.301C81.3406 30.307 81.1412 30.3183 80.9417 30.3183C68.4272 30.3191 55.9126 30.3191 43.3981 30.3191C43.2006 30.3191 43.0031 30.3191 42.7656 30.3191C42.7656 20.2153 42.7656 10.1471 42.7656 0.0126953C55.6609 0.0126953 68.5498 0.0126953 81.4893 0.0697634C81.5401 3.0251 81.5403 5.92336 81.5405 8.82163C81.3047 8.82768 81.0689 8.83901 80.8331 8.83903C71.2965 8.83993 61.7598 8.83978 52.2232 8.83986C51.4485 8.83986 51.4485 8.84019 51.4479 9.58393C51.447 10.7885 51.447 10.7885 52.6546 10.7885C62.0459 10.7885 71.4372 10.7885 80.8285 10.7886C81.0382 10.7886 81.2478 10.7886 81.5686 10.7886C81.3706 11.0049 81.2585 11.1373 81.1363 11.2596C78.491 13.9062 75.8494 16.5566 73.1883 19.1872C72.9987 19.3747 72.6648 19.5106 72.3976 19.5113C65.6402 19.5289 58.8828 19.5323 52.1255 19.512C51.5653 19.5103 51.4193 19.6631 51.4347 20.2114C51.4725 21.5604 51.4453 21.5609 52.7695 21.5612C62.3242 21.5632 71.879 21.5653 81.4856 21.627C81.5384 24.558 81.5392 27.4295 81.5401 30.301Z" fill="white" />
	<path d="M201.138 12.4282C200.412 13.1428 199.681 13.8518 198.962 14.5734C197.983 15.5568 197.019 16.5557 196.038 17.5371C194.991 18.5836 193.924 19.6091 192.881 20.6592C191.899 21.6482 190.947 22.6678 189.963 23.6544C189.099 24.5203 188.196 25.3471 187.332 26.2131C186.462 27.0849 185.628 27.9928 184.762 28.8688C183.38 30.2676 181.984 31.6533 180.593 33.0442C175.726 37.911 170.859 42.7773 165.995 47.6468C165.895 47.7464 165.831 47.8814 165.75 47.9999C165.712 47.974 165.674 47.948 165.637 47.922C165.637 31.9695 165.637 16.017 165.637 0.0366211C176.831 0.0366211 188.016 0.0366211 199.146 0.0366211C195.677 3.50307 192.172 7.00416 188.668 10.5052C188.681 10.5674 188.694 10.6295 188.707 10.6916C188.909 10.7237 189.111 10.7836 189.312 10.7839C193.219 10.7897 197.125 10.7885 201.086 10.8419C201.14 11.4061 201.139 11.9171 201.138 12.4282ZM174.325 25.7826C174.325 26.1162 174.325 26.4497 174.325 26.7073C176.743 24.3098 179.145 21.9284 181.55 19.5438C181.463 19.5388 181.342 19.5259 181.222 19.5258C179.114 19.5245 177.006 19.5381 174.899 19.5147C174.427 19.5094 174.313 19.6789 174.317 20.1167C174.335 21.9698 174.325 23.8233 174.325 25.7826ZM175.689 8.83809C175.399 8.8382 175.107 8.85366 174.818 8.83443C174.479 8.81196 174.228 8.93716 174.338 9.28332C174.499 9.78493 173.84 10.5965 174.754 10.7758C175.585 10.939 176.441 10.8869 177.025 10.038C177.274 9.67695 177.672 9.42029 177.994 9.10701C178.034 9.06837 178.018 8.97304 178.038 8.83809C177.271 8.83809 176.534 8.83809 175.689 8.83809Z" fill="white" />
	<path d="M124.476 40.0241C124.476 40.2777 124.476 40.5312 124.476 40.7189C114.509 30.8239 104.507 20.894 94.5049 10.9641C94.5295 10.9159 94.5542 10.8677 94.5788 10.8195C101.009 10.8195 107.439 10.8195 113.895 10.8195C113.895 10.1398 113.895 9.52956 113.895 8.8394C113.702 8.8394 113.511 8.8394 113.319 8.8394C106.56 8.83934 99.8007 8.84585 93.0416 8.82686C92.4956 8.82533 92.3828 9.00375 92.384 9.50963C92.4011 16.3958 92.3988 23.282 92.3998 30.1683C92.3998 30.2005 92.3803 30.2327 92.3611 30.2919C89.4723 30.2919 86.5749 30.2919 83.6445 30.2919C83.6445 20.2172 83.6445 10.1585 83.6445 0.0541992C96.6447 0.0541992 109.66 0.0541992 122.714 0.0541992C122.714 6.5485 122.714 13.0579 122.714 19.6229C120.372 19.6229 118.04 19.6229 115.708 19.6229C115.682 19.6665 115.657 19.7101 115.632 19.7537C118.545 22.6707 121.458 25.5877 124.382 28.5885C124.392 32.2999 124.389 35.9275 124.393 39.5552C124.393 39.7115 124.447 39.8678 124.476 40.0241Z" fill="white" />
	<path d="M201.17 12.4628C201.14 11.9172 201.141 11.4062 201.137 10.8439C201.173 10.5861 201.248 10.3797 201.249 10.173C201.256 7.01156 201.254 3.85008 201.254 0.688601C201.254 0.490291 201.254 0.291979 201.254 0.0512695C214.279 0.0512695 227.275 0.0512695 240.31 0.0512695C240.31 6.55542 240.31 13.0473 240.31 19.605C237.932 19.605 235.588 19.605 233.087 19.605C233.344 19.8481 233.491 19.9808 233.631 20.1206C236.329 22.8175 239.021 25.5194 241.729 28.2063C242.007 28.4821 242.038 28.7675 242.038 29.1227C242.029 32.7747 242.035 36.4267 242.036 40.0787C242.037 40.2782 242.037 40.4776 242.037 40.571C232.101 30.7377 222.121 20.8603 212.141 10.9828C212.17 10.9315 212.199 10.8801 212.228 10.8288C218.642 10.8288 225.055 10.8288 231.558 10.8288C231.558 10.1932 231.568 9.6205 231.546 9.04892C231.544 8.97701 231.388 8.88112 231.286 8.85044C231.169 8.81509 231.034 8.83866 230.907 8.83865C224.166 8.83843 217.425 8.83829 210.684 8.83857C209.977 8.8386 209.977 8.83982 209.977 9.56312C209.976 16.2495 209.977 22.9358 209.977 29.6221C209.977 29.8358 209.977 30.0494 209.977 30.2898C207.062 30.2898 204.199 30.2898 201.254 30.2898C201.254 30.0777 201.254 29.8681 201.254 29.6585C201.254 24.1532 201.255 18.6478 201.252 13.1425C201.252 12.9274 201.219 12.7124 201.17 12.4628Z" fill="white" />
	<path d="M276.702 0.00890336C278.083 0.00897325 279.409 0.0245483 280.734 0.000298983C281.17 -0.0076732 281.289 0.142852 281.288 0.563927C281.279 10.3 281.279 20.0362 281.289 29.7723C281.29 30.207 281.148 30.3263 280.726 30.326C268.084 30.317 255.442 30.3169 242.799 30.3264C242.369 30.3267 242.242 30.1923 242.242 29.7663C242.254 20.0302 242.259 10.2941 242.243 0.558053C242.242 -0.0638579 242.585 0.00745599 242.971 0.00750756C254.196 0.00902655 265.422 0.00882682 276.702 0.00890336ZM269.234 21.5749C270.106 21.5748 270.978 21.5767 271.85 21.574C272.543 21.5719 272.558 21.5582 272.558 20.8731C272.56 17.1118 272.559 13.3506 272.558 9.5893C272.558 8.84208 272.556 8.83984 271.796 8.83978C265.127 8.8392 258.459 8.83925 251.79 8.83983C251.073 8.8399 251.071 8.84201 251.07 9.5561C251.07 13.2992 251.069 17.0423 251.07 20.7854C251.07 21.5718 251.072 21.5742 251.845 21.5743C257.605 21.5751 263.365 21.5748 269.234 21.5749Z" fill="white" />
	<path d="M36.0753 21.5693C37.6516 21.5693 39.1735 21.5693 40.7326 21.5693C40.744 21.7763 40.7621 21.9529 40.7623 22.1296C40.7641 24.6553 40.7529 27.1811 40.773 29.7066C40.7767 30.17 40.6682 30.33 40.172 30.3295C26.962 30.316 13.7521 30.319 0.542066 30.3181C0.399797 30.3181 0.257527 30.3048 0 30.292C7.12819 23.1487 14.1907 16.0713 21.2531 8.99387C21.233 8.94241 21.2128 8.89095 21.1927 8.83948C20.9671 8.83948 20.7416 8.83948 20.5161 8.83948C14.5016 8.83942 8.48715 8.83948 2.4727 8.83913C1.70556 8.83908 1.7051 8.83807 1.70506 8.0667C1.70494 5.57734 1.71483 3.0879 1.69621 0.598674C1.69294 0.161413 1.79508 -0.000395159 2.26408 7.24455e-07C15.4741 0.0111455 28.6841 0.00876151 41.894 0.0101257C42.0337 0.0101391 42.1734 0.0303739 42.4675 0.053096C35.3195 7.21983 28.2586 14.2992 21.1978 21.3786C21.2271 21.4422 21.2565 21.5058 21.2858 21.5694C26.1975 21.5694 31.1091 21.5694 36.0753 21.5693Z" fill="white" />
	<path d="M124.484 39.9738C124.446 39.8681 124.392 39.7118 124.392 39.5555C124.389 35.9278 124.391 32.3002 124.399 28.6216C124.437 28.7207 124.495 28.8706 124.495 29.0207C124.498 32.6548 124.495 36.289 124.484 39.9738Z" fill="white" />
	<path d="M81.5867 8.8058C81.5414 5.92311 81.5412 3.02485 81.541 0.0766602C81.5934 0.103575 81.6914 0.180377 81.6915 0.257256C81.6937 3.03234 81.6871 5.80743 81.6791 8.58251C81.6789 8.65179 81.6483 8.72099 81.5867 8.8058Z" fill="white" />
	<path d="M81.5819 30.306C81.5404 27.4294 81.5395 24.5579 81.5371 21.6343C81.583 21.7158 81.6711 21.8491 81.672 21.9829C81.6897 24.7442 81.6977 27.5056 81.7038 30.2669C81.7038 30.2816 81.6508 30.2964 81.5819 30.306Z" fill="white" />
</svg>
