<svg width="37" height="37" viewBox="0 0 37 37" fill="none" xmlns="http://www.w3.org/2000/svg">
<path d="M31.5856 31.5167C28.2444 34.8579 23.6429 36.9234 18.5552 36.9234C8.39513 36.9234 0.125757 28.654 0.118164 18.4863C0.118164 8.32622 8.38748 0.0569098 18.5552 0.0493164C28.7152 0.0493164 36.9846 8.31868 36.9922 18.4864C36.9922 23.574 34.9267 28.1756 31.5856 31.5167ZM6.28414 6.21529C3.14043 9.35899 1.19648 13.7025 1.19648 18.4864C1.19648 28.0542 8.98737 35.845 18.5552 35.845C28.123 35.845 35.9139 28.0541 35.9139 18.4863C35.9139 8.91852 28.123 1.12763 18.5552 1.12763C13.7713 1.12763 9.42784 3.07158 6.28414 6.21529Z" fill="white" fill-opacity="0.6"/>
<path d="M18.9351 36.7716C18.8364 36.8703 18.6995 36.931 18.5552 36.9234C18.2515 36.9234 18.0163 36.688 18.0163 36.3843L18.0163 0.588572C18.0163 0.284833 18.2514 0.0493164 18.5552 0.0493164C18.8589 0.0493164 19.0946 0.284879 19.0946 0.588619L19.0946 36.3843C19.0946 36.5362 19.0338 36.6729 18.9351 36.7716Z" fill="white" fill-opacity="0.6"/>
<path d="M36.8405 18.8663C36.7418 18.965 36.6051 19.0257 36.4608 19.0181L0.66507 19.0181C0.36133 19.0181 0.125887 18.7827 0.125887 18.4789C0.125887 18.1752 0.361293 17.9398 0.665033 17.9398L36.4608 17.9398C36.7645 17.9398 36.9999 18.1753 36.9999 18.479C36.9923 18.6385 36.9316 18.7751 36.8405 18.8663Z" fill="white" fill-opacity="0.6"/>
</svg>
