<svg width="37" height="38" viewBox="0 0 37 38" fill="none" xmlns="http://www.w3.org/2000/svg">
<path d="M36.9838 18.8315C36.9838 23.5566 35.1905 28.271 31.593 31.8685C24.4088 39.0527 12.7141 39.0527 5.5191 31.8685C-1.66517 24.6842 -1.66517 12.9896 5.5191 5.79462C12.7034 -1.38965 24.398 -1.38965 31.593 5.79462C35.1905 9.39212 36.9838 14.1065 36.9838 18.8315ZM1.20218 18.8315C1.20218 23.2774 2.89889 27.7233 6.28162 31.106C13.0471 37.8715 24.0651 37.8715 30.8305 31.106C37.596 24.3406 37.596 13.3225 30.8305 6.55707C24.0651 -0.20838 13.0471 -0.208381 6.28162 6.55707C2.89889 9.9398 1.20218 14.3857 1.20218 18.8315Z" fill="#1BE1FF"/>
<path d="M31.7544 31.4925C31.7544 31.6321 31.7004 31.7718 31.593 31.8685C31.3782 32.0832 31.0455 32.0832 30.8308 31.8684L5.51936 6.55699C5.30458 6.34221 5.30433 6.0094 5.5191 5.79462C5.73388 5.57984 6.0671 5.57976 6.28188 5.79453L31.5933 31.1059C31.7007 31.2133 31.7544 31.3529 31.7544 31.4925Z" fill="#1BE1FF"/>
<path d="M31.7544 6.17054C31.7544 6.31015 31.7007 6.44976 31.5933 6.5464L6.28187 31.8578C6.0671 32.0726 5.73413 32.0726 5.51936 31.8578C5.30458 31.643 5.30458 31.3101 5.51936 31.0953L30.8308 5.78395C31.0455 5.56918 31.3785 5.56918 31.5933 5.78395C31.7007 5.90208 31.7544 6.04168 31.7544 6.17054Z" fill="#1BE1FF"/>
</svg>
