<svg width="76" height="21" viewBox="0 0 76 21" fill="none" xmlns="http://www.w3.org/2000/svg">
<path d="M74.0088 3.83643H70.5768L63.7047 17.0583H67.1366L74.0088 3.83643Z" fill="white"/>
<g opacity="0.9">
<path d="M67.1307 3.83643H63.6987L56.8347 17.0583H60.2667L67.1307 3.83643Z" fill="white"/>
</g>
<g opacity="0.8">
<path d="M60.2684 3.83643H56.8364L49.9642 17.0583H53.4044L60.2684 3.83643Z" fill="white"/>
</g>
<g opacity="0.7">
<path d="M53.4068 3.83643H49.9666L43.1026 17.0583H46.5346L53.4068 3.83643Z" fill="white"/>
</g>
<g opacity="0.6">
<path d="M46.5363 3.83643H43.1043L36.2321 17.0583H39.6723L46.5363 3.83643Z" fill="white"/>
</g>
<g opacity="0.5">
<path d="M39.6709 3.83643H36.2307L29.3667 17.0583H32.7987L39.6709 3.83643Z" fill="white"/>
</g>
<g opacity="0.4">
<path d="M32.7972 3.83643H29.3652L22.5012 17.0583H25.9332L32.7972 3.83643Z" fill="white"/>
</g>
<g opacity="0.3">
<path d="M25.9346 3.83643H22.5026L15.6304 17.0583H19.0624L25.9346 3.83643Z" fill="white"/>
</g>
<g opacity="0.2">
<path d="M19.061 3.83643H15.629L8.76495 17.0583H12.1969L19.061 3.83643Z" fill="white"/>
</g>
<g opacity="0.1">
<path d="M12.1982 3.83643H8.76624L1.89407 17.0583H5.32607L12.1982 3.83643Z" fill="white"/>
</g>
<path d="M74.008 10.4517L70.576 17.0626H74.008V10.4517Z" fill="white"/>
<g opacity="0.05">
<path d="M1.89291 3.83472H5.32491L1.89291 10.4456V3.83472Z" fill="white"/>
</g>
</svg>
