<svg width="76" height="21" viewBox="0 0 76 21" fill="none" xmlns="http://www.w3.org/2000/svg">
<path d="M2.01588 3.83643H5.44787L12.32 17.0583H8.88805L2.01588 3.83643Z" fill="white"/>
<g opacity="0.9">
<path d="M8.89401 3.83643H12.326L19.1901 17.0583H15.758L8.89401 3.83643Z" fill="white"/>
</g>
<g opacity="0.8">
<path d="M15.7562 3.83643H19.1883L26.0604 17.0583H22.6203L15.7562 3.83643Z" fill="white"/>
</g>
<g opacity="0.7">
<path d="M22.6198 3.83643H26.06L32.924 17.0583H29.492L22.6198 3.83643Z" fill="white"/>
</g>
<g opacity="0.6">
<path d="M29.4925 3.83643H32.9245L39.7967 17.0583H36.3565L29.4925 3.83643Z" fill="white"/>
</g>
<g opacity="0.5">
<path d="M36.3534 3.83643H39.7936L46.6576 17.0583H43.2256L36.3534 3.83643Z" fill="white"/>
</g>
<g opacity="0.4">
<path d="M43.2297 3.83643H46.6617L53.5258 17.0583H50.0938L43.2297 3.83643Z" fill="white"/>
</g>
<g opacity="0.3">
<path d="M50.092 3.83643H53.524L60.3962 17.0583H56.9642L50.092 3.83643Z" fill="white"/>
</g>
<g opacity="0.2">
<path d="M56.9615 3.83643H60.3935L67.2575 17.0583H63.8255L56.9615 3.83643Z" fill="white"/>
</g>
<g opacity="0.1">
<path d="M63.8282 3.83643H67.2602L74.1324 17.0583H70.7004L63.8282 3.83643Z" fill="white"/>
</g>
<path d="M2.01765 10.4517L5.44965 17.0626H2.01765V10.4517Z" fill="white"/>
<g opacity="0.05">
<path d="M74.1328 3.83472H70.7008L74.1328 10.4456V3.83472Z" fill="white"/>
</g>
</svg>
