<svg width="810" height="453" viewBox="0 0 810 453" fill="none" xmlns="http://www.w3.org/2000/svg">
<g clip-path="url(#clip0_298_271)">
<mask id="mask0_298_271" style="mask-type:luminance" maskUnits="userSpaceOnUse" x="205" y="107" width="399" height="60">
<path d="M603.85 107.22H205.186V166.464H603.85V107.22Z" fill="white"/>
</mask>
<g mask="url(#mask0_298_271)">
<path d="M272.16 153.93L261.224 165.656C260.988 165.91 260.701 166.114 260.383 166.253C260.064 166.392 259.72 166.464 259.373 166.464H207.534C207.287 166.464 207.045 166.392 206.838 166.256C206.631 166.121 206.469 165.928 206.37 165.701C206.271 165.475 206.24 165.224 206.282 164.98C206.323 164.737 206.434 164.51 206.602 164.329L217.525 152.603C217.762 152.349 218.048 152.146 218.367 152.006C218.686 151.867 219.029 151.795 219.377 151.795H271.216C271.465 151.79 271.71 151.859 271.921 151.993C272.131 152.127 272.298 152.32 272.399 152.548C272.5 152.776 272.531 153.029 272.488 153.275C272.445 153.521 272.331 153.749 272.16 153.93ZM261.224 130.313C260.987 130.059 260.7 129.857 260.382 129.718C260.064 129.579 259.72 129.506 259.373 129.504H207.534C207.287 129.505 207.045 129.577 206.838 129.712C206.631 129.848 206.469 130.041 206.37 130.267C206.271 130.494 206.24 130.744 206.282 130.988C206.323 131.232 206.434 131.458 206.602 131.64L217.525 143.371C217.763 143.625 218.05 143.827 218.368 143.966C218.686 144.105 219.03 144.178 219.377 144.18H271.216C271.462 144.178 271.703 144.105 271.909 143.969C272.115 143.833 272.277 143.64 272.375 143.414C272.473 143.188 272.503 142.938 272.461 142.694C272.42 142.451 272.309 142.225 272.141 142.044L261.224 130.313ZM207.534 121.889H259.373C259.72 121.889 260.064 121.817 260.383 121.678C260.701 121.539 260.988 121.335 261.224 121.081L272.16 109.355C272.331 109.174 272.445 108.946 272.488 108.7C272.531 108.454 272.5 108.201 272.399 107.973C272.298 107.745 272.131 107.552 271.921 107.418C271.71 107.284 271.465 107.215 271.216 107.22H219.377C219.029 107.22 218.686 107.292 218.367 107.431C218.048 107.571 217.762 107.774 217.525 108.028L206.602 119.754C206.434 119.935 206.323 120.162 206.282 120.405C206.24 120.649 206.271 120.9 206.37 121.126C206.469 121.353 206.631 121.546 206.838 121.681C207.045 121.817 207.287 121.889 207.534 121.889Z" fill="url(#paint0_linear_298_271)"/>
<path d="M272.16 153.93L261.224 165.656C260.988 165.91 260.701 166.114 260.383 166.253C260.064 166.392 259.72 166.464 259.373 166.464H207.534C207.287 166.464 207.045 166.392 206.838 166.256C206.631 166.121 206.469 165.928 206.37 165.701C206.271 165.475 206.24 165.224 206.282 164.98C206.323 164.737 206.434 164.51 206.602 164.329L217.525 152.603C217.762 152.349 218.048 152.146 218.367 152.006C218.686 151.867 219.029 151.795 219.377 151.795H271.216C271.465 151.79 271.71 151.859 271.921 151.993C272.131 152.127 272.298 152.32 272.399 152.548C272.5 152.776 272.531 153.029 272.488 153.275C272.445 153.521 272.331 153.749 272.16 153.93ZM261.224 130.313C260.987 130.059 260.7 129.857 260.382 129.718C260.064 129.579 259.72 129.506 259.373 129.504H207.534C207.287 129.505 207.045 129.577 206.838 129.712C206.631 129.848 206.469 130.041 206.37 130.267C206.271 130.494 206.24 130.744 206.282 130.988C206.323 131.232 206.434 131.458 206.602 131.64L217.525 143.371C217.763 143.625 218.05 143.827 218.368 143.966C218.686 144.105 219.03 144.178 219.377 144.18H271.216C271.462 144.178 271.703 144.105 271.909 143.969C272.115 143.833 272.277 143.64 272.375 143.414C272.473 143.188 272.503 142.938 272.461 142.694C272.42 142.451 272.309 142.225 272.141 142.044L261.224 130.313ZM207.534 121.889H259.373C259.72 121.889 260.064 121.817 260.383 121.678C260.701 121.539 260.988 121.335 261.224 121.081L272.16 109.355C272.331 109.174 272.445 108.946 272.488 108.7C272.531 108.454 272.5 108.201 272.399 107.973C272.298 107.745 272.131 107.552 271.921 107.418C271.71 107.284 271.465 107.215 271.216 107.22H219.377C219.029 107.22 218.686 107.292 218.367 107.431C218.048 107.571 217.762 107.774 217.525 108.028L206.602 119.754C206.434 119.935 206.323 120.162 206.282 120.405C206.24 120.649 206.271 120.9 206.37 121.126C206.469 121.353 206.631 121.546 206.838 121.681C207.045 121.817 207.287 121.889 207.534 121.889Z" fill="white"/>
<path d="M335.361 132.269H307.627V123.136H342.569V114.002H307.535C306.337 113.996 305.151 114.225 304.043 114.677C302.934 115.129 301.925 115.795 301.075 116.637C300.224 117.479 299.547 118.48 299.083 119.583C298.619 120.687 298.376 121.871 298.37 123.068V132.325C298.375 133.523 298.616 134.708 299.079 135.813C299.543 136.918 300.219 137.92 301.07 138.763C301.922 139.607 302.931 140.274 304.04 140.726C305.149 141.179 306.337 141.409 307.535 141.402H335.305V150.536H299.031V159.669H335.361C336.558 159.676 337.744 159.447 338.852 158.995C339.961 158.542 340.97 157.876 341.82 157.035C342.671 156.193 343.348 155.192 343.812 154.088C344.276 152.985 344.519 151.801 344.525 150.604V141.347C344.52 140.149 344.279 138.964 343.816 137.859C343.353 136.754 342.676 135.751 341.825 134.908C340.973 134.065 339.964 133.398 338.856 132.945C337.747 132.492 336.559 132.263 335.361 132.269Z" fill="white"/>
<path d="M389.087 114.002H361.248C360.049 113.993 358.86 114.219 357.749 114.67C356.638 115.121 355.626 115.786 354.773 116.628C353.919 117.47 353.24 118.473 352.775 119.578C352.309 120.683 352.066 121.869 352.059 123.068V150.604C352.066 151.803 352.309 152.989 352.775 154.094C353.24 155.199 353.919 156.201 354.773 157.044C355.626 157.886 356.638 158.551 357.749 159.002C358.86 159.452 360.049 159.679 361.248 159.67H389.087C390.284 159.676 391.47 159.447 392.579 158.995C393.687 158.543 394.696 157.877 395.547 157.035C396.398 156.193 397.075 155.192 397.539 154.088C398.003 152.985 398.245 151.801 398.251 150.604V123.068C398.245 121.871 398.003 120.687 397.539 119.583C397.075 118.48 396.398 117.479 395.547 116.637C394.696 115.795 393.687 115.129 392.579 114.677C391.47 114.225 390.284 113.996 389.087 114.002ZM389.019 150.536H361.316V123.136H389.007L389.019 150.536Z" fill="white"/>
<path d="M486.592 114.003H459.439C458.241 113.996 457.055 114.225 455.947 114.678C454.839 115.13 453.83 115.796 452.979 116.637C452.128 117.479 451.451 118.48 450.987 119.584C450.523 120.687 450.281 121.871 450.274 123.068V159.67H459.531V144.668H486.561V159.67H495.818V123.068C495.812 121.866 495.568 120.677 495.1 119.569C494.632 118.462 493.95 117.458 493.092 116.615C492.235 115.773 491.219 115.108 490.103 114.66C488.987 114.211 487.794 113.988 486.592 114.003ZM486.524 135.534H459.494V123.136H486.524V135.534Z" fill="white"/>
<path d="M594.684 114.002H567.531C566.334 113.996 565.147 114.225 564.039 114.677C562.931 115.129 561.922 115.795 561.071 116.637C560.22 117.479 559.543 118.48 559.079 119.583C558.615 120.687 558.373 121.871 558.366 123.068V159.669H567.623V144.667H594.592V159.669H603.849V123.068C603.842 121.871 603.6 120.687 603.136 119.583C602.672 118.48 601.995 117.479 601.144 116.637C600.293 115.795 599.284 115.129 598.176 114.677C597.068 114.225 595.882 113.996 594.684 114.002ZM594.592 135.534H567.562V123.136H594.592V135.534Z" fill="white"/>
<path d="M540.899 150.536H537.196L523.959 117.828C523.505 116.7 522.725 115.733 521.717 115.051C520.71 114.369 519.522 114.004 518.306 114.002H510.092C509.293 113.998 508.502 114.151 507.764 114.453C507.024 114.755 506.352 115.199 505.784 115.761C505.217 116.322 504.766 116.99 504.457 117.726C504.148 118.462 503.987 119.252 503.982 120.05V159.669H513.239V123.136H516.942L530.173 155.843C530.634 156.969 531.421 157.933 532.433 158.61C533.443 159.287 534.634 159.647 535.851 159.645H544.065C544.863 159.649 545.655 159.496 546.393 159.194C547.133 158.892 547.805 158.448 548.372 157.886C548.939 157.325 549.391 156.657 549.7 155.921C550.009 155.185 550.17 154.395 550.174 153.597V114.002H540.899V150.536Z" fill="white"/>
<path d="M415.685 114.002H406.428V150.604C406.434 151.803 406.678 152.99 407.144 154.095C407.61 155.201 408.289 156.203 409.143 157.046C409.998 157.888 411.01 158.553 412.122 159.003C413.234 159.454 414.424 159.68 415.623 159.669H443.394V150.536H415.685V114.002Z" fill="white"/>
</g>
</g>
<path d="M73.8472 208.056V280.018H55.8306V232.357L26.0822 262.001H47.5555V280.018H1.78071V262.001L55.8306 208.056H73.8472ZM114.719 262.001V280.018H80.466V262.001H88.5316V226.177H80.466V208.056H114.719V226.177H106.548V262.001H114.719Z" fill="white"/>
<path d="M206.258 208.086V282.018H187.856V255.329H167.516V282.018H149.007V208.086H167.516V236.819H187.856V208.086H206.258ZM286.261 208.086V282.018H267.751V233.053L237.188 263.508H259.249V282.018H212.222V263.508L267.751 208.086H286.261ZM347.621 252.531L360.104 264.907L343.101 282.018H321.04L293.061 254.253V235.959L320.825 208.086H342.886L358.49 223.798L346.007 236.174L336.214 226.704H327.497L311.893 242.2V247.796L327.605 263.508H336.429L347.621 252.531ZM443.535 208.086L444.073 209.163L408.345 245.213L444.073 280.941L443.535 282.018H419.322L395.324 257.912L371.326 282.018H364.761V208.086H383.271V246.72L419.214 208.086H443.535ZM521.142 208.086V282.018H502.632V233.053L472.07 263.508H494.131V282.018H447.103V263.508L502.632 208.086H521.142ZM578.844 208.086V226.704H562.056V282.018H543.761V226.704H526.973V208.086H578.844ZM641.865 208.086V282.018H623.463V255.329H603.124V282.018H584.614V208.086H603.124V236.819H623.463V208.086H641.865ZM726.281 235.959V254.253L698.839 282.018H676.778L648.798 254.253V235.959L676.563 208.086H698.516L726.281 235.959ZM692.059 263.508L707.771 248.119V242.308L691.844 226.704H683.127L667.523 242.2V247.796L683.342 263.508H692.059ZM804.243 208.086V282.018H792.944L749.683 238.649V282.018H733.11V208.086H746.669L787.671 251.885V208.086H804.243Z" fill="white"/>
<path d="M119.009 330.051H115.577L108.705 343.273H112.137L119.009 330.051Z" fill="white"/>
<g opacity="0.9">
<path d="M112.131 330.051H108.699L101.835 343.273H105.267L112.131 330.051Z" fill="white"/>
</g>
<g opacity="0.8">
<path d="M105.268 330.051H101.836L94.9642 343.273H98.4044L105.268 330.051Z" fill="white"/>
</g>
<g opacity="0.7">
<path d="M98.4068 330.051H94.9666L88.1026 343.273H91.5346L98.4068 330.051Z" fill="white"/>
</g>
<g opacity="0.6">
<path d="M91.5363 330.051H88.1043L81.2321 343.273H84.6723L91.5363 330.051Z" fill="white"/>
</g>
<g opacity="0.5">
<path d="M84.6709 330.051H81.2307L74.3667 343.273H77.7987L84.6709 330.051Z" fill="white"/>
</g>
<g opacity="0.4">
<path d="M77.7972 330.051H74.3652L67.5012 343.273H70.9332L77.7972 330.051Z" fill="white"/>
</g>
<g opacity="0.3">
<path d="M70.9346 330.051H67.5026L60.6304 343.273H64.0624L70.9346 330.051Z" fill="white"/>
</g>
<g opacity="0.2">
<path d="M64.061 330.051H60.629L53.765 343.273H57.1969L64.061 330.051Z" fill="white"/>
</g>
<g opacity="0.1">
<path d="M57.1982 330.051H53.7662L46.8941 343.273H50.3261L57.1982 330.051Z" fill="white"/>
</g>
<path d="M119.008 336.666L115.576 343.277H119.008V336.666Z" fill="white"/>
<g opacity="0.05">
<path d="M46.8929 330.049H50.3249L46.8929 336.66V330.049Z" fill="white"/>
</g>
<path d="M138.615 349.41C136.38 349.41 134.551 347.559 134.551 345.323H136.809C136.809 346.317 137.622 347.13 138.615 347.13H140.422C141.415 347.13 142.228 346.317 142.228 345.323V343.404L140.354 344.668H138.615C136.38 344.668 134.551 342.84 134.551 340.604V337.217C134.551 334.959 136.38 333.153 138.615 333.153H140.354L142.228 334.417V333.153H144.486V345.323C144.486 347.559 142.68 349.41 140.422 349.41H138.615ZM136.809 340.604C136.809 341.598 137.622 342.41 138.615 342.41H139.654L142.228 340.672V337.149L139.654 335.411H138.615C137.622 335.411 136.809 336.224 136.809 337.217V340.604ZM146.334 344.668V342.41H150.059V330.895H146.334V328.637H152.317V342.41H156.269V344.668H146.334ZM161.151 344.668C158.893 344.668 157.087 342.885 157.087 340.627V337.217C157.087 334.959 158.893 333.153 161.151 333.153H162.957C165.215 333.153 167.022 334.959 167.022 337.217V340.627C167.022 342.885 165.215 344.668 162.957 344.668H161.151ZM159.345 340.627C159.345 341.643 160.135 342.388 161.151 342.41H162.957C163.973 342.41 164.764 341.643 164.764 340.627V337.217C164.764 336.201 163.973 335.411 162.957 335.411H161.151C160.135 335.411 159.345 336.201 159.345 337.217V340.627ZM173.62 344.668L171.746 343.404V344.668H169.488V328.637H171.746V334.417L173.62 333.153H175.359C177.594 333.153 179.423 334.959 179.423 337.217V340.604C179.423 342.84 177.594 344.668 175.359 344.668H173.62ZM171.746 340.672L174.32 342.41H175.359C176.352 342.41 177.165 341.598 177.165 340.604V337.217C177.165 336.224 176.352 335.411 175.359 335.411H174.32L171.746 337.149V340.672ZM185.561 344.668C183.325 344.668 181.496 342.84 181.496 340.604V337.217C181.496 334.959 183.325 333.153 185.561 333.153H187.299L189.173 334.417V333.153H191.431V344.668H189.173V343.404L187.299 344.668H185.561ZM183.754 340.604C183.754 341.598 184.567 342.41 185.561 342.41H186.599L189.173 340.672V337.149L186.599 335.411H185.561C184.567 335.411 183.754 336.224 183.754 337.217V340.604ZM193.279 344.668V342.41H197.005V330.895H193.279V328.637H199.263V342.41H203.214V344.668H193.279ZM210.824 339.227C209.311 339.227 208.092 338.03 208.092 336.495C208.092 335.004 209.334 333.763 210.824 333.763C212.314 333.763 213.556 335.004 213.556 336.495C213.556 338.075 212.269 339.227 210.824 339.227ZM210.824 338.391C211.975 338.391 212.721 337.488 212.721 336.495C212.721 335.479 211.84 334.598 210.824 334.598C209.785 334.598 208.927 335.479 208.927 336.495C208.927 337.556 209.74 338.391 210.824 338.391ZM223.319 346.926V344.646C221.174 344.465 219.481 342.681 219.481 340.469V339.565H221.739V340.469C221.739 341.417 222.416 342.207 223.319 342.365V337.037C221.49 335.953 219.706 334.711 219.706 332.611C219.706 330.579 221.174 329.111 223.319 328.885V326.605H225.577V328.908C227.609 329.201 229.19 330.94 229.19 333.063V333.74H226.932V333.063C226.932 332.182 226.367 331.459 225.577 331.211V335.704C227.474 336.833 229.416 338.256 229.416 340.694C229.416 342.84 227.79 344.488 225.577 344.646V346.926H223.319ZM221.964 332.611C221.964 333.266 222.506 333.808 223.319 334.35V331.166C222.461 331.324 221.964 331.843 221.964 332.611ZM225.577 342.388C226.525 342.23 227.158 341.575 227.158 340.694C227.158 339.769 226.503 339.069 225.577 338.414V342.388ZM231.109 344.668V342.41H234.947V331.482L231.109 333.74V331.121L234.947 328.863H237.205V342.41H241.044V344.668H231.109ZM246.805 344.668C244.479 344.668 242.56 342.817 242.56 340.582V332.927C242.56 330.669 244.479 328.863 246.805 328.863H248.702C251.05 328.863 252.947 330.669 252.947 332.927V340.582C252.947 342.817 251.05 344.668 248.702 344.668H246.805ZM244.796 340.582C244.796 341.575 245.721 342.388 246.805 342.388H248.702C248.995 342.388 249.289 342.32 249.537 342.207L244.796 334.485V340.582ZM245.608 331.459L250.711 339.791V332.927C250.711 331.911 249.831 331.121 248.702 331.121H246.805C246.354 331.121 245.947 331.256 245.608 331.459ZM259.352 344.668C257.026 344.668 255.107 342.817 255.107 340.582V332.927C255.107 330.669 257.026 328.863 259.352 328.863H261.248C263.597 328.863 265.493 330.669 265.493 332.927V340.582C265.493 342.817 263.597 344.668 261.248 344.668H259.352ZM257.342 340.582C257.342 341.575 258.268 342.388 259.352 342.388H261.248C261.542 342.388 261.836 342.32 262.084 342.207L257.342 334.485V340.582ZM258.155 331.459L263.258 339.791V332.927C263.258 331.911 262.377 331.121 261.248 331.121H259.352C258.9 331.121 258.494 331.256 258.155 331.459ZM267.766 344.668V328.637H270.024V337.782H272.124L275.037 333.153H277.701L274.089 338.911L277.701 344.668H275.037L272.124 340.04H270.024V344.668H267.766ZM279.501 339.769V337.511H282.436V334.575H284.694V337.511H287.63V339.769H284.694V342.704H282.436V339.769H279.501ZM294.215 344.668V342.41H297.94V335.411H294.215V333.153H300.198V342.41H303.924V344.668H294.215ZM297.602 331.121V328.637H300.198V331.121H297.602ZM313.326 337.217C313.326 336.224 312.513 335.411 311.52 335.411H310.481L307.907 337.082V344.668H305.649V333.153H307.907V334.508L309.781 333.153H311.52C313.755 333.153 315.584 334.959 315.584 337.217V344.668H313.326V337.217ZM326.561 344.668L324.687 343.404V349.41H322.429V333.153H324.687V334.417L326.561 333.153H328.3C330.535 333.153 332.364 334.982 332.364 337.217V340.604C332.364 342.862 330.535 344.668 328.3 344.668H326.561ZM324.687 340.672L327.261 342.41H328.3C329.293 342.41 330.106 341.598 330.106 340.604V337.217C330.106 336.224 329.293 335.411 328.3 335.411H327.261L324.687 337.149V340.672ZM334.822 344.668V333.153H337.079V334.892L339.631 333.153H340.286C342.363 333.153 344.079 334.959 344.079 337.217V338.12H341.821V337.217C341.821 336.224 341.189 335.411 340.286 335.411H340.083L337.079 337.42V344.668H334.822ZM345.371 344.668V342.41H349.097V335.411H345.371V333.153H351.355V342.41H355.081V344.668H345.371ZM348.758 331.121V328.637H351.355V331.121H348.758ZM356.219 342.41L362.654 335.411H356.219V333.153H365.476V335.411L359.041 342.41H365.476V344.668H356.219V342.41ZM371.181 344.668C368.945 344.668 367.116 342.817 367.116 340.582V337.217C367.116 334.959 368.945 333.153 371.181 333.153H372.987C375.177 333.153 376.938 334.846 377.051 336.991V339.43H369.374V340.582C369.374 341.575 370.187 342.388 371.181 342.388H372.987C373.981 342.388 374.793 341.575 374.793 340.582V340.356H377.051V340.582C377.051 342.817 375.245 344.668 372.987 344.668H371.181ZM369.374 337.624H374.793V337.217C374.793 336.201 374.003 335.411 372.987 335.411H371.181C370.165 335.411 369.374 336.224 369.374 337.217V337.624ZM382.724 344.668C380.534 344.668 378.909 343.246 378.909 341.327V340.875H381.166V341.327C381.166 342.049 381.754 342.569 382.724 342.569H384.779C385.84 342.569 386.36 342.14 386.36 341.485C386.36 338.933 379.067 340.582 379.067 336.201C379.067 334.372 380.534 333.153 382.679 333.153H384.621C386.653 333.153 388.234 334.621 388.234 336.517V336.72H385.976V336.517C385.976 335.795 385.411 335.253 384.621 335.253H382.679C381.731 335.253 381.325 335.637 381.325 336.201C381.325 338.03 388.618 336.879 388.618 341.485C388.618 343.381 387.06 344.668 384.779 344.668H382.724ZM397.37 339.227C395.857 339.227 394.638 338.03 394.638 336.495C394.638 335.004 395.88 333.763 397.37 333.763C398.86 333.763 400.102 335.004 400.102 336.495C400.102 338.075 398.815 339.227 397.37 339.227ZM397.37 338.391C398.522 338.391 399.267 337.488 399.267 336.495C399.267 335.479 398.386 334.598 397.37 334.598C396.331 334.598 395.473 335.479 395.473 336.495C395.473 337.556 396.286 338.391 397.37 338.391ZM410.904 344.668L409.03 343.404V344.668H406.772V328.637H409.03V334.417L410.904 333.153H412.643C414.878 333.153 416.707 334.959 416.707 337.217V340.604C416.707 342.84 414.878 344.668 412.643 344.668H410.904ZM409.03 340.672L411.604 342.41H412.643C413.636 342.41 414.449 341.598 414.449 340.604V337.217C414.449 336.224 413.636 335.411 412.643 335.411H411.604L409.03 337.149V340.672ZM421.332 340.604C421.332 341.598 422.145 342.41 423.138 342.41H424.177L426.751 340.74V333.153H429.009V344.668H426.751V343.314L424.877 344.668H423.138C420.903 344.668 419.074 342.862 419.074 340.604V333.153H421.332V340.604ZM431.324 344.668V342.41H435.049V335.411H431.324V333.153H437.307V342.41H441.033V344.668H431.324ZM434.711 331.121V328.637H437.307V331.121H434.711ZM441.765 344.668V342.41H445.49V330.895H441.765V328.637H447.748V342.41H451.7V344.668H441.765ZM456.802 344.668C454.567 344.668 452.738 342.84 452.738 340.604V337.217C452.738 334.959 454.567 333.153 456.802 333.153H458.541L460.415 334.417V328.637H462.673V344.668H460.415V343.404L458.541 344.668H456.802ZM454.996 340.604C454.996 341.598 455.809 342.41 456.802 342.41H457.841L460.415 340.672V337.149L457.841 335.411H456.802C455.809 335.411 454.996 336.224 454.996 337.217V340.604ZM473.296 344.668C471.061 344.668 469.232 342.84 469.232 340.604V337.217C469.232 334.959 471.061 333.153 473.296 333.153H475.035L476.909 334.417V333.153H479.167V344.668H476.909V343.404L475.035 344.668H473.296ZM471.49 340.604C471.49 341.598 472.302 342.41 473.296 342.41H474.335L476.909 340.672V337.149L474.335 335.411H473.296C472.302 335.411 471.49 336.224 471.49 337.217V340.604ZM481.488 344.668V342.41H485.214V335.411H481.488V333.153H487.472V342.41H491.198V344.668H481.488ZM484.875 331.121V328.637H487.472V331.121H484.875ZM500.131 344.668C497.896 344.668 496.067 342.84 496.067 340.604V337.217C496.067 334.959 497.896 333.153 500.131 333.153H501.87L503.744 334.417V333.153H506.002V344.668H503.744V343.404L501.87 344.668H500.131ZM498.325 340.604C498.325 341.598 499.138 342.41 500.131 342.41H501.17L503.744 340.672V337.149L501.17 335.411H500.131C499.138 335.411 498.325 336.224 498.325 337.217V340.604ZM512.523 349.41C510.288 349.41 508.459 347.559 508.459 345.323H510.717C510.717 346.317 511.53 347.13 512.523 347.13H514.33C515.323 347.13 516.136 346.317 516.136 345.323V343.404L514.262 344.668H512.523C510.288 344.668 508.459 342.84 508.459 340.604V337.217C508.459 334.959 510.288 333.153 512.523 333.153H514.262L516.136 334.417V333.153H518.394V345.323C518.394 347.559 516.588 349.41 514.33 349.41H512.523ZM510.717 340.604C510.717 341.598 511.53 342.41 512.523 342.41H513.562L516.136 340.672V337.149L513.562 335.411H512.523C511.53 335.411 510.717 336.224 510.717 337.217V340.604ZM524.916 344.668C522.68 344.668 520.851 342.817 520.851 340.582V337.217C520.851 334.959 522.68 333.153 524.916 333.153H526.722C528.912 333.153 530.674 334.846 530.786 336.991V339.43H523.109V340.582C523.109 341.575 523.922 342.388 524.916 342.388H526.722C527.716 342.388 528.529 341.575 528.529 340.582V340.356H530.786V340.582C530.786 342.817 528.98 344.668 526.722 344.668H524.916ZM523.109 337.624H528.529V337.217C528.529 336.201 527.738 335.411 526.722 335.411H524.916C523.9 335.411 523.109 336.224 523.109 337.217V337.624ZM540.908 337.217C540.908 336.224 540.095 335.411 539.101 335.411H538.063L535.489 337.082V344.668H533.231V333.153H535.489V334.508L537.363 333.153H539.101C541.337 333.153 543.166 334.959 543.166 337.217V344.668H540.908V337.217ZM552.057 344.668C549.799 344.668 547.993 342.862 547.993 340.604V335.411H544.493V333.153H547.993V330.218H550.251V333.153H554.428V335.411H550.251V340.604C550.251 341.62 551.041 342.41 552.057 342.41H554.428V344.668H552.057ZM559.833 344.668C557.643 344.668 556.017 343.246 556.017 341.327V340.875H558.275V341.327C558.275 342.049 558.862 342.569 559.833 342.569H561.888C562.949 342.569 563.468 342.14 563.468 341.485C563.468 338.933 556.175 340.582 556.175 336.201C556.175 334.372 557.643 333.153 559.788 333.153H561.73C563.762 333.153 565.342 334.621 565.342 336.517V336.72H563.084V336.517C563.084 335.795 562.52 335.253 561.73 335.253H559.788C558.84 335.253 558.433 335.637 558.433 336.201C558.433 338.03 565.726 336.879 565.726 341.485C565.726 343.381 564.168 344.668 561.888 344.668H559.833ZM575.698 344.668C573.44 344.668 571.633 342.885 571.633 340.627V337.217C571.633 334.959 573.44 333.153 575.698 333.153H577.504C579.762 333.153 581.568 334.959 581.568 337.217V340.627C581.568 342.885 579.762 344.668 577.504 344.668H575.698ZM573.891 340.627C573.891 341.643 574.682 342.388 575.698 342.41H577.504C578.52 342.41 579.311 341.643 579.311 340.627V337.217C579.311 336.201 578.52 335.411 577.504 335.411H575.698C574.682 335.411 573.891 336.201 573.891 337.217V340.627ZM591.712 337.217C591.712 336.224 590.899 335.411 589.905 335.411H588.867L586.293 337.082V344.668H584.035V333.153H586.293V334.508L588.167 333.153H589.905C592.141 333.153 593.97 334.959 593.97 337.217V344.668H591.712V337.217ZM604.044 344.668C601.854 344.668 600.228 343.246 600.228 341.327V340.875H602.486V341.327C602.486 342.049 603.073 342.569 604.044 342.569H606.099C607.16 342.569 607.679 342.14 607.679 341.485C607.679 338.933 600.386 340.582 600.386 336.201C600.386 334.372 601.854 333.153 603.999 333.153H605.941C607.973 333.153 609.553 334.621 609.553 336.517V336.72H607.295V336.517C607.295 335.795 606.731 335.253 605.941 335.253H603.999C603.05 335.253 602.644 335.637 602.644 336.201C602.644 338.03 609.937 336.879 609.937 341.485C609.937 343.381 608.379 344.668 606.099 344.668H604.044ZM615.807 344.668C613.549 344.668 611.743 342.885 611.743 340.627V337.217C611.743 334.959 613.549 333.153 615.807 333.153H617.614C619.872 333.153 621.678 334.959 621.678 337.217V340.627C621.678 342.885 619.872 344.668 617.614 344.668H615.807ZM614.001 340.627C614.001 341.643 614.791 342.388 615.807 342.41H617.614C618.63 342.41 619.42 341.643 619.42 340.627V337.217C619.42 336.201 618.63 335.411 617.614 335.411H615.807C614.791 335.411 614.001 336.201 614.001 337.217V340.627ZM622.93 344.668V342.41H626.656V330.895H622.93V328.637H628.914V342.41H632.865V344.668H622.93ZM637.968 344.668C635.733 344.668 633.904 342.84 633.904 340.604V337.217C633.904 334.959 635.733 333.153 637.968 333.153H639.707L641.581 334.417V333.153H643.839V344.668H641.581V343.404L639.707 344.668H637.968ZM636.162 340.604C636.162 341.598 636.975 342.41 637.968 342.41H639.007L641.581 340.672V337.149L639.007 335.411H637.968C636.975 335.411 636.162 336.224 636.162 337.217V340.604ZM654.357 337.217C654.357 336.224 653.544 335.411 652.551 335.411H651.512L648.938 337.082V344.668H646.68V333.153H648.938V334.508L650.812 333.153H652.551C654.786 333.153 656.615 334.959 656.615 337.217V344.668H654.357V337.217ZM663.039 344.668C660.804 344.668 658.975 342.84 658.975 340.604V337.217C658.975 334.959 660.804 333.153 663.039 333.153H664.778L666.652 334.417V333.153H668.91V344.668H666.652V343.404L664.778 344.668H663.039ZM661.233 340.604C661.233 341.598 662.046 342.41 663.039 342.41H664.078L666.652 340.672V337.149L664.078 335.411H663.039C662.046 335.411 661.233 336.224 661.233 337.217V340.604ZM671.435 344.668V342.298H674.032V344.668H671.435Z" fill="white"/>
<path d="M690.016 330.05H693.448L700.32 343.272H696.888L690.016 330.05Z" fill="white"/>
<g opacity="0.9">
<path d="M696.894 330.05H700.326L707.19 343.272H703.758L696.894 330.05Z" fill="white"/>
</g>
<g opacity="0.8">
<path d="M703.756 330.05H707.188L714.06 343.272H710.62L703.756 330.05Z" fill="white"/>
</g>
<g opacity="0.7">
<path d="M710.62 330.05H714.06L720.924 343.272H717.492L710.62 330.05Z" fill="white"/>
</g>
<g opacity="0.6">
<path d="M717.492 330.05H720.925L727.797 343.272H724.357L717.492 330.05Z" fill="white"/>
</g>
<g opacity="0.5">
<path d="M724.353 330.05H727.794L734.658 343.272H731.226L724.353 330.05Z" fill="white"/>
</g>
<g opacity="0.4">
<path d="M731.23 330.05H734.662L741.526 343.272H738.094L731.23 330.05Z" fill="white"/>
</g>
<g opacity="0.3">
<path d="M738.092 330.05H741.524L748.396 343.272H744.964L738.092 330.05Z" fill="white"/>
</g>
<g opacity="0.2">
<path d="M744.961 330.05H748.393L755.257 343.272H751.825L744.961 330.05Z" fill="white"/>
</g>
<g opacity="0.1">
<path d="M751.828 330.05H755.26L762.132 343.272H758.7L751.828 330.05Z" fill="white"/>
</g>
<path d="M690.018 336.666L693.45 343.277H690.018V336.666Z" fill="white"/>
<g opacity="0.05">
<path d="M762.133 330.049H758.701L762.133 336.66V330.049Z" fill="white"/>
</g>
<path fill-rule="evenodd" clip-rule="evenodd" d="M405.129 0L337.957 116.329L349.471 122.977L405.129 26.5925L460.774 122.977L472.288 116.329L405.129 0ZM215.137 329.057L226.651 335.705L171.006 432.089H282.309V445.386H147.977L215.137 329.057ZM583.588 335.705L595.103 329.057L662.262 445.386H527.93V432.089H639.233L583.588 335.705ZM466.566 232.695V219.399H539.482L503.024 282.556L491.509 275.908L516.453 232.695H466.566ZM307.294 282.556L318.808 275.908L293.865 232.695H343.752V219.399H270.822L307.294 282.556ZM380.211 382.267L405.155 425.479L430.112 382.267L441.627 388.915L405.155 452.072L368.697 388.915L380.211 382.267Z" fill="url(#paint1_radial_298_271)"/>
<defs>
<linearGradient id="paint0_linear_298_271" x1="211.854" y1="167.877" x2="266.211" y2="106.597" gradientUnits="userSpaceOnUse">
<stop offset="0.08" stop-color="#9945FF"/>
<stop offset="0.3" stop-color="#8752F3"/>
<stop offset="0.5" stop-color="#5497D5"/>
<stop offset="0.6" stop-color="#43B4CA"/>
<stop offset="0.72" stop-color="#28E0B9"/>
<stop offset="0.97" stop-color="#19FB9B"/>
</linearGradient>
<radialGradient id="paint1_radial_298_271" cx="0" cy="0" r="1" gradientUnits="userSpaceOnUse" gradientTransform="translate(404.313 242.769) rotate(90.1726) scale(353.368 1153.49)">
<stop offset="0.385226" stop-color="#878A8C" stop-opacity="0"/>
<stop offset="1" stop-color="#2B2D2E"/>
</radialGradient>
<clipPath id="clip0_298_271">
<rect width="398.664" height="59.2441" fill="white" transform="translate(205.181 107.214)"/>
</clipPath>
</defs>
</svg>
