<svg width="810" height="453" viewBox="0 0 810 453" fill="none" xmlns="http://www.w3.org/2000/svg">
<g clip-path="url(#clip0_290_163)">
<mask id="mask0_290_163" style="mask-type:luminance" maskUnits="userSpaceOnUse" x="205" y="139" width="399" height="60">
<path d="M603.85 139.006H205.186V198.25H603.85V139.006Z" fill="white"/>
</mask>
<g mask="url(#mask0_290_163)">
<path d="M272.16 185.716L261.224 197.442C260.988 197.696 260.701 197.9 260.383 198.039C260.064 198.178 259.72 198.25 259.373 198.25H207.534C207.287 198.25 207.045 198.178 206.838 198.042C206.631 197.907 206.469 197.714 206.37 197.487C206.271 197.261 206.24 197.01 206.282 196.767C206.323 196.523 206.434 196.296 206.602 196.115L217.525 184.39C217.762 184.135 218.048 183.932 218.367 183.793C218.686 183.654 219.029 183.581 219.377 183.581H271.216C271.465 183.576 271.71 183.645 271.921 183.779C272.131 183.913 272.298 184.106 272.399 184.334C272.5 184.563 272.531 184.816 272.488 185.062C272.445 185.307 272.331 185.535 272.16 185.716ZM261.224 162.099C260.987 161.845 260.7 161.643 260.382 161.504C260.064 161.365 259.72 161.292 259.373 161.291H207.534C207.287 161.291 207.045 161.363 206.838 161.498C206.631 161.634 206.469 161.827 206.37 162.053C206.271 162.28 206.24 162.53 206.282 162.774C206.323 163.018 206.434 163.244 206.602 163.426L217.525 175.157C217.763 175.411 218.05 175.613 218.368 175.752C218.686 175.891 219.03 175.964 219.377 175.966H271.216C271.462 175.964 271.703 175.891 271.909 175.755C272.115 175.62 272.277 175.427 272.375 175.2C272.473 174.974 272.503 174.724 272.461 174.481C272.42 174.237 272.309 174.012 272.141 173.831L261.224 162.099ZM207.534 153.675H259.373C259.72 153.675 260.064 153.603 260.383 153.464C260.701 153.325 260.988 153.121 261.224 152.867L272.16 141.141C272.331 140.96 272.445 140.732 272.488 140.487C272.531 140.241 272.5 139.988 272.399 139.759C272.298 139.531 272.131 139.338 271.921 139.204C271.71 139.07 271.465 139.001 271.216 139.006H219.377C219.029 139.006 218.686 139.078 218.367 139.218C218.048 139.357 217.762 139.56 217.525 139.815L206.602 151.54C206.434 151.721 206.323 151.948 206.282 152.192C206.24 152.435 206.271 152.686 206.37 152.912C206.469 153.139 206.631 153.332 206.838 153.467C207.045 153.603 207.287 153.675 207.534 153.675Z" fill="url(#paint0_linear_290_163)"/>
<path d="M272.16 185.716L261.224 197.442C260.988 197.696 260.701 197.9 260.383 198.039C260.064 198.178 259.72 198.25 259.373 198.25H207.534C207.287 198.25 207.045 198.178 206.838 198.042C206.631 197.907 206.469 197.714 206.37 197.487C206.271 197.261 206.24 197.01 206.282 196.767C206.323 196.523 206.434 196.296 206.602 196.115L217.525 184.39C217.762 184.135 218.048 183.932 218.367 183.793C218.686 183.654 219.029 183.581 219.377 183.581H271.216C271.465 183.576 271.71 183.645 271.921 183.779C272.131 183.913 272.298 184.106 272.399 184.334C272.5 184.563 272.531 184.816 272.488 185.062C272.445 185.307 272.331 185.535 272.16 185.716ZM261.224 162.099C260.987 161.845 260.7 161.643 260.382 161.504C260.064 161.365 259.72 161.292 259.373 161.291H207.534C207.287 161.291 207.045 161.363 206.838 161.498C206.631 161.634 206.469 161.827 206.37 162.053C206.271 162.28 206.24 162.53 206.282 162.774C206.323 163.018 206.434 163.244 206.602 163.426L217.525 175.157C217.763 175.411 218.05 175.613 218.368 175.752C218.686 175.891 219.03 175.964 219.377 175.966H271.216C271.462 175.964 271.703 175.891 271.909 175.755C272.115 175.62 272.277 175.427 272.375 175.2C272.473 174.974 272.503 174.724 272.461 174.481C272.42 174.237 272.309 174.012 272.141 173.831L261.224 162.099ZM207.534 153.675H259.373C259.72 153.675 260.064 153.603 260.383 153.464C260.701 153.325 260.988 153.121 261.224 152.867L272.16 141.141C272.331 140.96 272.445 140.732 272.488 140.487C272.531 140.241 272.5 139.988 272.399 139.759C272.298 139.531 272.131 139.338 271.921 139.204C271.71 139.07 271.465 139.001 271.216 139.006H219.377C219.029 139.006 218.686 139.078 218.367 139.218C218.048 139.357 217.762 139.56 217.525 139.815L206.602 151.54C206.434 151.721 206.323 151.948 206.282 152.192C206.24 152.435 206.271 152.686 206.37 152.912C206.469 153.139 206.631 153.332 206.838 153.467C207.045 153.603 207.287 153.675 207.534 153.675Z" fill="white"/>
<path d="M335.361 164.055H307.627V154.922H342.569V145.788H307.535C306.337 145.782 305.151 146.011 304.043 146.463C302.934 146.915 301.925 147.581 301.075 148.423C300.224 149.265 299.547 150.266 299.083 151.369C298.619 152.473 298.376 153.657 298.37 154.854V164.111C298.375 165.309 298.616 166.494 299.079 167.599C299.543 168.704 300.219 169.706 301.07 170.549C301.922 171.393 302.931 172.06 304.04 172.513C305.149 172.965 306.337 173.195 307.535 173.189H335.305V182.322H299.031V191.456H335.361C336.558 191.462 337.744 191.233 338.852 190.781C339.961 190.329 340.97 189.663 341.82 188.821C342.671 187.979 343.348 186.978 343.812 185.874C344.276 184.771 344.519 183.587 344.525 182.39V173.133C344.52 171.935 344.279 170.75 343.816 169.645C343.353 168.54 342.676 167.537 341.825 166.694C340.973 165.851 339.964 165.184 338.856 164.731C337.747 164.278 336.559 164.049 335.361 164.055Z" fill="white"/>
<path d="M389.087 145.788H361.248C360.049 145.779 358.86 146.006 357.749 146.456C356.638 146.907 355.626 147.572 354.773 148.414C353.919 149.257 353.24 150.259 352.775 151.364C352.309 152.469 352.066 153.655 352.059 154.854V182.39C352.066 183.589 352.309 184.775 352.775 185.88C353.24 186.985 353.919 187.988 354.773 188.83C355.626 189.672 356.638 190.337 357.749 190.788C358.86 191.239 360.049 191.466 361.248 191.456H389.087C390.284 191.462 391.47 191.233 392.579 190.781C393.687 190.329 394.696 189.663 395.547 188.821C396.398 187.979 397.075 186.978 397.539 185.875C398.003 184.771 398.245 183.587 398.251 182.39V154.854C398.245 153.657 398.003 152.473 397.539 151.37C397.075 150.266 396.398 149.265 395.547 148.423C394.696 147.581 393.687 146.915 392.579 146.463C391.47 146.011 390.284 145.782 389.087 145.788ZM389.019 182.322H361.316V154.922H389.007L389.019 182.322Z" fill="white"/>
<path d="M486.592 145.789H459.439C458.241 145.782 457.055 146.012 455.947 146.464C454.839 146.916 453.83 147.582 452.979 148.424C452.128 149.265 451.451 150.267 450.987 151.37C450.523 152.473 450.281 153.657 450.274 154.854V191.456H459.531V176.454H486.561V191.456H495.818V154.854C495.812 153.652 495.568 152.463 495.1 151.356C494.632 150.248 493.95 149.244 493.092 148.401C492.235 147.559 491.219 146.894 490.103 146.446C488.987 145.997 487.794 145.774 486.592 145.789ZM486.524 167.32H459.494V154.922H486.524V167.32Z" fill="white"/>
<path d="M594.684 145.788H567.531C566.334 145.782 565.147 146.011 564.039 146.463C562.931 146.915 561.922 147.581 561.071 148.423C560.22 149.265 559.543 150.266 559.079 151.369C558.615 152.473 558.373 153.657 558.366 154.854V191.456H567.623V176.453H594.592V191.456H603.849V154.854C603.842 153.657 603.6 152.473 603.136 151.369C602.672 150.266 601.995 149.265 601.144 148.423C600.293 147.581 599.284 146.915 598.176 146.463C597.068 146.011 595.882 145.782 594.684 145.788ZM594.592 167.32H567.562V154.922H594.592V167.32Z" fill="white"/>
<path d="M540.899 182.322H537.196L523.959 149.614C523.505 148.486 522.725 147.519 521.717 146.837C520.71 146.155 519.522 145.79 518.306 145.788H510.092C509.293 145.784 508.502 145.937 507.764 146.239C507.024 146.541 506.352 146.985 505.784 147.547C505.217 148.108 504.766 148.776 504.457 149.512C504.148 150.248 503.987 151.038 503.982 151.836V191.456H513.239V154.922H516.942L530.173 187.629C530.634 188.756 531.421 189.719 532.433 190.396C533.443 191.073 534.634 191.433 535.851 191.431H544.065C544.863 191.435 545.655 191.282 546.393 190.98C547.133 190.678 547.805 190.234 548.372 189.672C548.939 189.111 549.391 188.443 549.7 187.707C550.009 186.971 550.17 186.181 550.174 185.383V145.788H540.899V182.322Z" fill="white"/>
<path d="M415.685 145.788H406.428V182.39C406.434 183.589 406.678 184.776 407.144 185.881C407.61 186.987 408.289 187.989 409.143 188.832C409.998 189.674 411.01 190.339 412.122 190.789C413.234 191.24 414.424 191.466 415.623 191.455H443.394V182.322H415.685V145.788Z" fill="white"/>
</g>
</g>
<path d="M73.8472 239.842V311.804H55.8306V264.143L26.0822 293.787H47.5555V311.804H1.78071V293.787L55.8306 239.842H73.8472ZM114.719 293.787V311.804H80.466V293.787H88.5316V257.963H80.466V239.842H114.719V257.963H106.548V293.787H114.719Z" fill="white"/>
<path d="M206.258 239.872V313.804H187.856V287.115H167.516V313.804H149.007V239.872H167.516V268.606H187.856V239.872H206.258ZM286.261 239.872V313.804H267.751V264.839L237.188 295.294H259.249V313.804H212.222V295.294L267.751 239.872H286.261ZM347.621 284.317L360.104 296.693L343.101 313.804H321.04L293.061 286.039V267.745L320.825 239.872H342.886L358.49 255.584L346.007 267.96L336.214 258.49H327.497L311.893 273.986V279.582L327.605 295.294H336.429L347.621 284.317ZM443.535 239.872L444.073 240.949L408.345 277L444.073 312.728L443.535 313.804H419.322L395.324 289.698L371.326 313.804H364.761V239.872H383.271V278.506L419.214 239.872H443.535ZM521.142 239.872V313.804H502.632V264.839L472.07 295.294H494.131V313.804H447.103V295.294L502.632 239.872H521.142ZM578.844 239.872V258.49H562.056V313.804H543.761V258.49H526.973V239.872H578.844ZM641.865 239.872V313.804H623.463V287.115H603.124V313.804H584.614V239.872H603.124V268.606H623.463V239.872H641.865ZM726.281 267.745V286.039L698.839 313.804H676.778L648.798 286.039V267.745L676.563 239.872H698.516L726.281 267.745ZM692.059 295.294L707.771 279.905V274.094L691.844 258.49H683.127L667.523 273.986V279.582L683.342 295.294H692.059ZM804.243 239.872V313.804H792.944L749.683 270.435V313.804H733.11V239.872H746.669L787.671 283.672V239.872H804.243Z" fill="white"/>
<path fill-rule="evenodd" clip-rule="evenodd" d="M405.152 0L337.979 116.329L349.494 122.977L405.152 26.5925L460.797 122.977L472.311 116.329L405.152 0ZM215.159 329.057L226.674 335.705L171.029 432.089H282.332V445.386H148L215.159 329.057ZM583.611 335.705L595.126 329.057L662.285 445.386H527.953V432.089H639.256L583.611 335.705ZM466.588 232.695V219.399H539.505L503.046 282.556L491.532 275.908L516.476 232.695H466.588ZM307.316 282.556L318.831 275.908L293.887 232.695H343.775V219.399H270.845L307.316 282.556ZM380.234 382.267L405.178 425.479L430.135 382.267L441.649 388.915L405.178 452.072L368.719 388.915L380.234 382.267Z" fill="url(#paint1_radial_290_163)"/>
<defs>
<linearGradient id="paint0_linear_290_163" x1="211.854" y1="199.664" x2="266.211" y2="138.383" gradientUnits="userSpaceOnUse">
<stop offset="0.08" stop-color="#9945FF"/>
<stop offset="0.3" stop-color="#8752F3"/>
<stop offset="0.5" stop-color="#5497D5"/>
<stop offset="0.6" stop-color="#43B4CA"/>
<stop offset="0.72" stop-color="#28E0B9"/>
<stop offset="0.97" stop-color="#19FB9B"/>
</linearGradient>
<radialGradient id="paint1_radial_290_163" cx="0" cy="0" r="1" gradientUnits="userSpaceOnUse" gradientTransform="translate(404.336 242.769) rotate(90.1726) scale(353.368 1153.49)">
<stop offset="0.385226" stop-color="#878A8C" stop-opacity="0"/>
<stop offset="1" stop-color="#2B2D2E"/>
</radialGradient>
<clipPath id="clip0_290_163">
<rect width="398.664" height="59.2441" fill="white" transform="translate(205.181 139)"/>
</clipPath>
</defs>
</svg>
