<svg width="810" height="175" viewBox="0 0 810 175" fill="none" xmlns="http://www.w3.org/2000/svg">
<g clip-path="url(#clip0_195_270)">
<mask id="mask0_195_270" style="mask-type:luminance" maskUnits="userSpaceOnUse" x="205" y="0" width="399" height="60">
<path d="M603.85 0.0065918H205.186V59.2507H603.85V0.0065918Z" fill="white"/>
</mask>
<g mask="url(#mask0_195_270)">
<path d="M272.16 46.7164L261.224 58.4418C260.988 58.6965 260.701 58.8998 260.383 59.0388C260.064 59.1779 259.72 59.2499 259.373 59.2502H207.534C207.287 59.2501 207.045 59.1779 206.838 59.0424C206.631 58.9069 206.469 58.7141 206.37 58.4875C206.271 58.2608 206.24 58.0104 206.282 57.7666C206.323 57.5228 206.434 57.2963 206.602 57.115L217.525 45.3896C217.762 45.1349 218.048 44.9317 218.367 44.7926C218.686 44.6535 219.029 44.5815 219.377 44.5811H271.216C271.465 44.576 271.71 44.6448 271.921 44.7788C272.131 44.9128 272.298 45.1061 272.399 45.3343C272.5 45.5626 272.531 45.8156 272.488 46.0616C272.445 46.3075 272.331 46.5353 272.16 46.7164ZM261.224 23.099C260.987 22.8454 260.7 22.643 260.382 22.504C260.064 22.365 259.72 22.2924 259.373 22.2906H207.534C207.287 22.2907 207.045 22.3629 206.838 22.4984C206.631 22.6339 206.469 22.8267 206.37 23.0534C206.271 23.28 206.24 23.5305 206.282 23.7742C206.323 24.018 206.434 24.2445 206.602 24.4258L217.525 36.1574C217.763 36.4109 218.05 36.6134 218.368 36.7524C218.686 36.8914 219.03 36.964 219.377 36.9658H271.216C271.462 36.9645 271.703 36.8914 271.909 36.7555C272.115 36.6195 272.277 36.4266 272.375 36.2002C272.473 35.9739 272.503 35.7238 272.461 35.4806C272.42 35.2374 272.309 35.0115 272.141 34.8306L261.224 23.099ZM207.534 14.6752H259.373C259.72 14.6749 260.064 14.6029 260.383 14.4638C260.701 14.3247 260.988 14.1214 261.224 13.8668L272.16 2.14139C272.331 1.96027 272.445 1.73242 272.488 1.4865C272.531 1.24059 272.5 0.987583 272.399 0.759333C272.298 0.531083 272.131 0.337785 271.921 0.203761C271.71 0.0697377 271.465 0.000976104 271.216 0.00612918H219.377C219.029 0.00649504 218.686 0.0784675 218.367 0.217559C218.048 0.35665 217.762 0.559877 217.525 0.814565L206.602 12.5399C206.434 12.7213 206.323 12.9478 206.282 13.1916C206.24 13.4353 206.271 13.6858 206.37 13.9124C206.469 14.139 206.631 14.3319 206.838 14.4673C207.045 14.6029 207.287 14.6751 207.534 14.6752Z" fill="url(#paint0_linear_195_270)"/>
<path d="M272.16 46.7164L261.224 58.4418C260.988 58.6965 260.701 58.8998 260.383 59.0388C260.064 59.1779 259.72 59.2499 259.373 59.2502H207.534C207.287 59.2501 207.045 59.1779 206.838 59.0424C206.631 58.9069 206.469 58.7141 206.37 58.4875C206.271 58.2608 206.24 58.0104 206.282 57.7666C206.323 57.5228 206.434 57.2963 206.602 57.115L217.525 45.3896C217.762 45.1349 218.048 44.9317 218.367 44.7926C218.686 44.6535 219.029 44.5815 219.377 44.5811H271.216C271.465 44.576 271.71 44.6448 271.921 44.7788C272.131 44.9128 272.298 45.1061 272.399 45.3343C272.5 45.5626 272.531 45.8156 272.488 46.0616C272.445 46.3075 272.331 46.5353 272.16 46.7164ZM261.224 23.099C260.987 22.8454 260.7 22.643 260.382 22.504C260.064 22.365 259.72 22.2924 259.373 22.2906H207.534C207.287 22.2907 207.045 22.3629 206.838 22.4984C206.631 22.6339 206.469 22.8267 206.37 23.0534C206.271 23.28 206.24 23.5305 206.282 23.7742C206.323 24.018 206.434 24.2445 206.602 24.4258L217.525 36.1574C217.763 36.4109 218.05 36.6134 218.368 36.7524C218.686 36.8914 219.03 36.964 219.377 36.9658H271.216C271.462 36.9645 271.703 36.8914 271.909 36.7555C272.115 36.6195 272.277 36.4266 272.375 36.2002C272.473 35.9739 272.503 35.7238 272.461 35.4806C272.42 35.2374 272.309 35.0115 272.141 34.8306L261.224 23.099ZM207.534 14.6752H259.373C259.72 14.6749 260.064 14.6029 260.383 14.4638C260.701 14.3247 260.988 14.1214 261.224 13.8668L272.16 2.14139C272.331 1.96027 272.445 1.73242 272.488 1.4865C272.531 1.24059 272.5 0.987583 272.399 0.759333C272.298 0.531083 272.131 0.337785 271.921 0.203761C271.71 0.0697377 271.465 0.000976104 271.216 0.00612918H219.377C219.029 0.00649504 218.686 0.0784675 218.367 0.217559C218.048 0.35665 217.762 0.559877 217.525 0.814565L206.602 12.5399C206.434 12.7213 206.323 12.9478 206.282 13.1916C206.24 13.4353 206.271 13.6858 206.37 13.9124C206.469 14.139 206.631 14.3319 206.838 14.4673C207.045 14.6029 207.287 14.6751 207.534 14.6752Z" fill="white"/>
<path d="M335.361 25.0549H307.627V15.9214H342.569V6.78798H307.535C306.337 6.7815 305.151 7.01082 304.043 7.46286C302.934 7.91497 301.925 8.58091 301.075 9.42273C300.224 10.2646 299.547 11.2658 299.083 12.3691C298.619 13.4726 298.376 14.6566 298.37 15.8536V25.1105C298.375 26.3085 298.616 27.4939 299.079 28.5986C299.543 29.7035 300.219 30.7061 301.07 31.5492C301.922 32.3924 302.931 33.0595 304.04 33.5123C305.149 33.9652 306.337 34.1949 307.535 34.1884H335.305V43.3219H299.031V52.4553H335.361C336.558 52.4619 337.744 52.2325 338.852 51.7804C339.961 51.3283 340.97 50.6624 341.82 49.8206C342.671 48.9787 343.348 47.9776 343.812 46.8742C344.276 45.7707 344.519 44.5867 344.525 43.3897V34.1328C344.52 32.9348 344.279 31.7495 343.816 30.6447C343.353 29.5398 342.676 28.5372 341.825 27.6941C340.973 26.8509 339.964 26.1839 338.856 25.731C337.747 25.2782 336.559 25.0484 335.361 25.0549Z" fill="white"/>
<path d="M389.087 6.78814H361.248C360.049 6.77839 358.86 7.00531 357.749 7.45594C356.638 7.90656 355.626 8.57195 354.773 9.41414C353.919 10.2563 353.24 11.2585 352.775 12.3636C352.309 13.4686 352.066 14.6547 352.059 15.8537V43.3899C352.066 44.589 352.309 45.7751 352.775 46.8801C353.24 47.9851 353.919 48.9874 354.773 49.8295C355.626 50.6717 356.638 51.3371 357.749 51.7877C358.86 52.2383 360.049 52.4653 361.248 52.4555H389.087C390.284 52.462 391.47 52.2327 392.579 51.7806C393.687 51.3285 394.696 50.6626 395.547 49.8207C396.398 48.9789 397.075 47.9777 397.539 46.8743C398.003 45.7709 398.245 44.5869 398.251 43.3899V15.8537C398.245 14.6568 398.003 13.4727 397.539 12.3693C397.075 11.266 396.398 10.2647 395.547 9.4229C394.696 8.58108 393.687 7.91514 392.579 7.46303C391.47 7.01099 390.284 6.78166 389.087 6.78814ZM389.019 43.322H361.316V15.9216H389.007L389.019 43.322Z" fill="white"/>
<path d="M486.592 6.78852H459.439C458.241 6.78204 457.055 7.01136 455.947 7.46341C454.839 7.91551 453.83 8.58145 452.979 9.42328C452.128 10.2651 451.451 11.2663 450.987 12.3697C450.523 13.4731 450.281 14.6571 450.274 15.8541V52.4559H459.531V37.4535H486.561V52.4559H495.818V15.8541C495.812 14.6519 495.568 13.4628 495.1 12.3553C494.632 11.2479 493.95 10.2439 493.092 9.40124C492.235 8.55862 491.219 7.89398 490.103 7.44557C488.987 6.99717 487.794 6.77389 486.592 6.78852ZM486.524 28.3201H459.494V15.922H486.524V28.3201Z" fill="white"/>
<path d="M594.684 6.78798H567.531C566.334 6.7815 565.147 7.01082 564.039 7.46286C562.931 7.91497 561.922 8.58091 561.071 9.42274C560.22 10.2646 559.543 11.2658 559.079 12.3691C558.615 13.4726 558.373 14.6566 558.366 15.8536V52.4553H567.623V37.453H594.592V52.4553H603.849V15.8536C603.842 14.6566 603.6 13.4726 603.136 12.3691C602.672 11.2658 601.995 10.2646 601.144 9.42274C600.293 8.58091 599.284 7.91497 598.176 7.46286C597.068 7.01082 595.882 6.7815 594.684 6.78798ZM594.592 28.3195H567.562V15.9214H594.592V28.3195Z" fill="white"/>
<path d="M540.899 43.3218H537.196L523.959 10.6141C523.505 9.48569 522.725 8.51859 521.717 7.83691C520.71 7.15517 519.522 6.7899 518.306 6.78792H510.092C509.293 6.78385 508.502 6.93708 507.764 7.23879C507.024 7.54057 506.352 7.9849 505.784 8.54648C505.217 9.10813 504.766 9.77592 504.457 10.5119C504.148 11.2478 503.987 12.0375 503.982 12.8358V52.4553H513.239V15.9214H516.942L530.173 48.6291C530.634 49.7553 531.421 50.7185 532.433 51.3956C533.443 52.0728 534.634 52.4331 535.851 52.4306H544.065C544.863 52.4347 545.655 52.2815 546.393 51.9797C547.133 51.678 547.805 51.2336 548.372 50.672C548.939 50.1104 549.391 49.4426 549.7 48.7067C550.009 47.9707 550.17 47.1811 550.174 46.3828V6.78792H540.899V43.3218Z" fill="white"/>
<path d="M415.685 6.78784H406.428V43.3896C406.434 44.5892 406.678 45.7758 407.144 46.8812C407.61 47.9866 408.289 48.9892 409.143 49.8314C409.998 50.6737 411.01 51.3389 412.122 51.7892C413.234 52.2394 414.424 52.4657 415.623 52.4552H443.394V43.3217H415.685V6.78784Z" fill="white"/>
</g>
</g>
<path d="M73.8472 100.842V172.804H55.8306V125.143L26.0822 154.787H47.5555V172.804H1.78071V154.787L55.8306 100.842H73.8472ZM114.719 154.787V172.804H80.466V154.787H88.5316V118.963H80.466V100.842H114.719V118.963H106.548V154.787H114.719Z" fill="white"/>
<path d="M206.258 100.872V174.804H187.856V148.115H167.516V174.804H149.007V100.872H167.516V129.606H187.856V100.872H206.258ZM286.261 100.872V174.804H267.751V125.839L237.188 156.294H259.249V174.804H212.222V156.294L267.751 100.872H286.261ZM347.621 145.317L360.104 157.693L343.101 174.804H321.04L293.061 147.039V128.745L320.825 100.872H342.886L358.49 116.584L346.007 128.96L336.214 119.49H327.497L311.893 134.986V140.582L327.605 156.294H336.429L347.621 145.317ZM443.535 100.872L444.073 101.949L408.345 138L444.073 173.728L443.535 174.804H419.322L395.324 150.698L371.326 174.804H364.761V100.872H383.271V139.506L419.214 100.872H443.535ZM521.142 100.872V174.804H502.632V125.839L472.07 156.294H494.131V174.804H447.103V156.294L502.632 100.872H521.142ZM578.844 100.872V119.49H562.056V174.804H543.761V119.49H526.973V100.872H578.844ZM641.865 100.872V174.804H623.463V148.115H603.124V174.804H584.614V100.872H603.124V129.606H623.463V100.872H641.865ZM726.281 128.745V147.039L698.839 174.804H676.778L648.798 147.039V128.745L676.563 100.872H698.516L726.281 128.745ZM692.059 156.294L707.771 140.905V135.094L691.844 119.49H683.127L667.523 134.986V140.582L683.342 156.294H692.059ZM804.243 100.872V174.804H792.944L749.683 131.435V174.804H733.11V100.872H746.669L787.671 144.672V100.872H804.243Z" fill="white"/>
<defs>
<linearGradient id="paint0_linear_195_270" x1="211.854" y1="60.6635" x2="266.211" y2="-0.617185" gradientUnits="userSpaceOnUse">
<stop offset="0.08" stop-color="#9945FF"/>
<stop offset="0.3" stop-color="#8752F3"/>
<stop offset="0.5" stop-color="#5497D5"/>
<stop offset="0.6" stop-color="#43B4CA"/>
<stop offset="0.72" stop-color="#28E0B9"/>
<stop offset="0.97" stop-color="#19FB9B"/>
</linearGradient>
<clipPath id="clip0_195_270">
<rect width="398.664" height="59.2441" fill="white" transform="translate(205.181)"/>
</clipPath>
</defs>
</svg>
