<svg width="1428" height="32" viewBox="0 0 1428 32" fill="none" xmlns="http://www.w3.org/2000/svg">
	<g opacity="0.6" clip-path="url(#clip0_195_1861)">
		<path d="M3.8399 19.6653C3.34822 19.6731 2.86004 19.5814 2.40466 19.3958C1.94928 19.2103 1.53609 18.9346 1.18991 18.5853C0.835853 18.2544 0.555057 17.8529 0.365599 17.4068C0.176142 16.9607 0.0822174 16.4799 0.0899035 15.9953C0.083566 15.502 0.177846 15.0126 0.366973 14.557C0.5561 14.1014 0.836111 13.6891 1.18991 13.3453C1.52976 12.985 1.94087 12.6994 2.39709 12.5066C2.85332 12.3137 3.34466 12.218 3.8399 12.2253C4.32598 12.2202 4.80773 12.3172 5.2539 12.5102C5.70008 12.7031 6.10072 12.9876 6.4299 13.3453C6.77868 13.6918 7.05407 14.1051 7.23962 14.5604C7.42518 15.0157 7.51712 15.5037 7.50992 15.9953C7.50466 16.967 7.11632 17.8975 6.4292 18.5846C5.74207 19.2717 4.81163 19.6601 3.8399 19.6653ZM3.8399 31.3953C3.34822 31.4031 2.86004 31.3114 2.40466 31.1258C1.94928 30.9403 1.53609 30.6646 1.18991 30.3153C0.834816 29.9809 0.553534 29.576 0.364104 29.1266C0.174674 28.6771 0.0812723 28.193 0.0899035 27.7053C0.105491 26.7175 0.506196 25.7747 1.20666 25.078C1.90713 24.3813 2.85198 23.9856 3.8399 23.9753C4.32598 23.9702 4.80773 24.0672 5.2539 24.2602C5.70008 24.4531 6.10072 24.7376 6.4299 25.0953C6.77566 25.4358 7.04945 25.8423 7.23498 26.2906C7.42052 26.739 7.51401 27.2201 7.50992 27.7053C7.50993 28.6805 7.12391 29.6161 6.43622 30.3075C5.74853 30.9989 4.81508 31.39 3.8399 31.3953ZM15.7399 8.12532C15.2482 8.13309 14.76 8.04144 14.3047 7.85585C13.8493 7.67026 13.4361 7.39456 13.0899 7.04531C12.7389 6.71462 12.4607 6.31439 12.273 5.87017C12.0854 5.42595 11.9923 4.94749 11.9999 4.46532C11.9924 3.97871 12.0854 3.49579 12.2729 3.04672C12.4605 2.59765 12.7386 2.19207 13.0899 1.85532C13.4293 1.49369 13.8401 1.20651 14.2962 1.01199C14.7524 0.817473 15.244 0.71985 15.7399 0.725315C16.2263 0.723912 16.7078 0.823639 17.1537 1.01817C17.5995 1.21269 18.0001 1.49777 18.3299 1.85532C18.6781 2.19811 18.9533 2.60786 19.1389 3.05985C19.3245 3.51185 19.4167 3.99674 19.4099 4.48532C19.4157 4.96634 19.3229 5.44344 19.1371 5.88719C18.9514 6.33093 18.6767 6.73189 18.3299 7.06532C17.9922 7.4078 17.5886 7.6783 17.1434 7.86049C16.6983 8.04267 16.2208 8.13276 15.7399 8.12532ZM3.8399 8.19532C3.34822 8.20309 2.86004 8.11144 2.40466 7.92585C1.94928 7.74026 1.53609 7.46456 1.18991 7.11531C0.836836 6.78359 0.55669 6.382 0.367308 5.93609C0.177927 5.49018 0.0834511 5.00973 0.0899035 4.52531C0.083566 4.03204 0.177846 3.54265 0.366973 3.08702C0.5561 2.6314 0.836111 2.2191 1.18991 1.87532C1.52927 1.51369 1.94006 1.22651 2.39624 1.03199C2.85242 0.837473 3.34401 0.739851 3.8399 0.745316C4.32515 0.739524 4.80625 0.835283 5.25229 1.02644C5.69833 1.2176 6.09944 1.49994 6.4299 1.85532C6.77915 2.2015 7.05486 2.61468 7.24045 3.07006C7.42604 3.52545 7.51769 4.01363 7.50992 4.50532C7.50466 5.47704 7.11632 6.40747 6.4292 7.09459C5.74207 7.78172 4.81163 8.17006 3.8399 8.17532V8.19532Z" fill="white" />
		<path opacity="0.77" d="M36.5799 19.6655C36.0883 19.6727 35.6003 19.5808 35.145 19.3952C34.6897 19.2097 34.2764 18.9343 33.9299 18.5855C33.5778 18.253 33.2983 17.8513 33.109 17.4055C32.9197 16.9598 32.8246 16.4797 32.8299 15.9955C32.8259 15.5025 32.9212 15.0138 33.1102 14.5585C33.2992 14.1032 33.578 13.6907 33.9299 13.3455C34.2701 12.9857 34.6813 12.7004 35.1374 12.5076C35.5936 12.3148 36.0847 12.2187 36.5799 12.2255C37.0661 12.2191 37.5483 12.3156 37.9946 12.5086C38.441 12.7016 38.8415 12.9868 39.1699 13.3455C39.5187 13.692 39.7941 14.1053 39.9796 14.5606C40.1652 15.0159 40.2571 15.5039 40.2499 15.9955C40.2446 16.9672 39.8563 17.8976 39.1692 18.5848C38.482 19.2719 37.5516 19.6602 36.5799 19.6655ZM36.5799 31.3955C36.0883 31.4027 35.6003 31.3108 35.145 31.1252C34.6897 30.9396 34.2764 30.6643 33.9299 30.3155C33.5767 29.9796 33.2968 29.5744 33.1075 29.1253C32.9182 28.6762 32.8237 28.1928 32.8299 27.7055C32.8289 27.2189 32.9259 26.7371 33.1148 26.2888C33.3038 25.8404 33.581 25.4346 33.9299 25.0955C34.2701 24.7357 34.6813 24.4504 35.1374 24.2576C35.5936 24.0648 36.0847 23.9687 36.5799 23.9755C37.0661 23.9691 37.5483 24.0656 37.9946 24.2586C38.441 24.4516 38.8415 24.7368 39.1699 25.0955C39.5157 25.4359 39.7894 25.8424 39.975 26.2908C40.1605 26.7392 40.254 27.2203 40.2499 27.7055C40.2499 28.6807 39.8639 29.6162 39.1762 30.3077C38.4885 30.9991 37.5551 31.3902 36.5799 31.3955ZM48.4799 19.6655C47.9883 19.6727 47.5003 19.5808 47.045 19.3952C46.5897 19.2097 46.1764 18.9343 45.8299 18.5855C45.4778 18.253 45.1983 17.8513 45.009 17.4055C44.8197 16.9598 44.7247 16.4797 44.7299 15.9955C44.7259 15.5025 44.8212 15.0138 45.0102 14.5585C45.1992 14.1032 45.4779 13.6907 45.8299 13.3455C46.1701 12.9857 46.5813 12.7004 47.0374 12.5076C47.4936 12.3148 47.9847 12.2187 48.4799 12.2255C48.9662 12.2191 49.4483 12.3156 49.8946 12.5086C50.341 12.7016 50.7415 12.9868 51.0699 13.3455C51.4187 13.692 51.6941 14.1053 51.8796 14.5606C52.0652 15.0159 52.1571 15.5039 52.1499 15.9955C52.1446 16.9672 51.7563 17.8976 51.0692 18.5848C50.382 19.2719 49.4516 19.6602 48.4799 19.6655ZM36.5799 8.19548C36.0883 8.20268 35.6003 8.11076 35.145 7.92521C34.6897 7.73965 34.2764 7.46426 33.9299 7.11548C33.5783 6.78263 33.2991 6.38083 33.1098 5.93518C32.9205 5.48954 32.8252 5.00963 32.8299 4.52548C32.8259 4.03253 32.9212 3.54383 33.1102 3.08853C33.2992 2.63323 33.578 2.22067 33.9299 1.87548C34.2696 1.51434 34.6805 1.22749 35.1366 1.03301C35.5927 0.838523 36.0841 0.740624 36.5799 0.745481C37.0653 0.738443 37.5468 0.833639 37.993 1.02488C38.4392 1.21611 38.8402 1.49911 39.1699 1.85548C39.5191 2.20166 39.7948 2.61485 39.9804 3.07023C40.166 3.52561 40.2577 4.0138 40.2499 4.50548C40.2446 5.47721 39.8563 6.40763 39.1692 7.09476C38.482 7.78188 37.5516 8.17023 36.5799 8.17548V8.19548Z" fill="white" />
		<path opacity="0.48" d="M81.2299 19.6654C80.7381 19.6743 80.2496 19.5832 79.794 19.3975C79.3385 19.2119 78.9254 18.9356 78.5799 18.5854C78.2245 18.2549 77.9422 17.8538 77.751 17.4077C77.5599 16.9617 77.4641 16.4806 77.4699 15.9954C77.4655 15.5015 77.5616 15.0118 77.7524 14.5562C77.9432 14.1006 78.2248 13.6887 78.5799 13.3454C78.919 12.9841 79.33 12.6978 79.7864 12.5049C80.2428 12.312 80.7345 12.2168 81.2299 12.2254C81.7145 12.2204 82.1947 12.3175 82.6392 12.5105C83.0838 12.7035 83.4826 12.9879 83.8099 13.3454C84.16 13.6914 84.437 14.1043 84.6242 14.5596C84.8115 15.0148 84.9052 15.5031 84.8999 15.9954C84.8921 16.9663 84.5029 17.8952 83.8163 18.5818C83.1298 19.2683 82.2008 19.6575 81.2299 19.6654ZM69.3299 8.19537C68.8382 8.20314 68.35 8.11149 67.8947 7.9259C67.4393 7.74031 67.0261 7.46461 66.6799 7.11536C66.3268 6.78364 66.0467 6.38205 65.8573 5.93614C65.6679 5.49023 65.5734 5.00978 65.5799 4.52536C65.5736 4.03209 65.6678 3.54269 65.857 3.08707C66.0461 2.63145 66.3261 2.21915 66.6799 1.87537C67.0193 1.51374 67.4301 1.22656 67.8862 1.03204C68.3424 0.837523 68.834 0.7399 69.3299 0.745365C69.8151 0.739573 70.2962 0.835333 70.7423 1.02649C71.1883 1.21765 71.5895 1.49999 71.9199 1.85537C72.2716 2.20389 72.5487 2.62032 72.7344 3.07933C72.9201 3.53835 73.0104 4.03033 72.9999 4.52536C72.9947 5.49709 72.6063 6.42752 71.9192 7.11464C71.2321 7.80177 70.3016 8.19011 69.3299 8.19537Z" fill="white" />
		<path opacity="0.67" d="M102.07 19.6653C101.579 19.6725 101.09 19.5806 100.635 19.395C100.18 19.2094 99.7666 18.9341 99.4201 18.5853C99.068 18.2528 98.7885 17.8511 98.5992 17.4053C98.4099 16.9596 98.3149 16.4795 98.3201 15.9953C98.3161 15.5023 98.4114 15.0136 98.6004 14.5583C98.7894 14.103 99.0682 13.6905 99.4201 13.3453C99.7603 12.9855 100.172 12.7001 100.628 12.5074C101.084 12.3146 101.575 12.2185 102.07 12.2253C102.556 12.2189 103.038 12.3153 103.485 12.5084C103.931 12.7014 104.332 12.9866 104.66 13.3453C105.009 13.6918 105.284 14.105 105.47 14.5603C105.655 15.0156 105.747 15.5037 105.74 15.9953C105.735 16.967 105.346 17.8974 104.659 18.5845C103.972 19.2717 103.042 19.66 102.07 19.6653ZM102.07 31.3953C101.579 31.4025 101.09 31.3105 100.635 31.125C100.18 30.9394 99.7666 30.6641 99.4201 30.3153C99.067 29.9794 98.787 29.5742 98.5977 29.1251C98.4084 28.676 98.3139 28.1926 98.3201 27.7053C98.3192 27.2187 98.4161 26.7369 98.6051 26.2886C98.794 25.8402 99.0712 25.4344 99.4201 25.0953C99.7603 24.7355 100.172 24.4501 100.628 24.2574C101.084 24.0646 101.575 23.9685 102.07 23.9753C102.556 23.9689 103.038 24.0653 103.485 24.2584C103.931 24.4514 104.332 24.7366 104.66 25.0953C105.006 25.4357 105.28 25.8422 105.465 26.2906C105.651 26.739 105.744 27.22 105.74 27.7053C105.74 28.6805 105.354 29.616 104.666 30.3074C103.979 30.9989 103.045 31.39 102.07 31.3953ZM114 19.6653C113.508 19.6725 113.02 19.5806 112.565 19.395C112.11 19.2094 111.697 18.9341 111.35 18.5853C110.996 18.2543 110.715 17.8529 110.526 17.4068C110.336 16.9607 110.242 16.4799 110.25 15.9953C110.244 15.502 110.338 15.0126 110.527 14.557C110.716 14.1014 110.996 13.6891 111.35 13.3453C111.69 12.9855 112.102 12.7001 112.558 12.5074C113.014 12.3146 113.505 12.2185 114 12.2253C114.486 12.2201 114.968 12.3172 115.414 12.5101C115.86 12.7031 116.261 12.9876 116.59 13.3453C116.939 13.6918 117.214 14.105 117.4 14.5603C117.585 15.0156 117.677 15.5037 117.67 15.9953C117.665 16.967 117.276 17.8974 116.589 18.5845C115.902 19.2717 114.972 19.66 114 19.6653ZM114 8.12527C113.508 8.13247 113.02 8.04055 112.565 7.855C112.11 7.66944 111.697 7.39405 111.35 7.04527C110.997 6.71584 110.716 6.31608 110.527 5.87173C110.338 5.42737 110.243 4.94828 110.25 4.46527C110.243 3.97785 110.338 3.49431 110.527 3.04511C110.716 2.59591 110.996 2.19079 111.35 1.85527C111.69 1.49413 112.101 1.20728 112.557 1.0128C113.013 0.818312 113.504 0.720413 114 0.72527C114.482 0.727404 114.957 0.828863 115.398 1.0233C115.838 1.21773 116.234 1.50096 116.56 1.85527C116.908 2.19807 117.183 2.60781 117.369 3.05981C117.555 3.5118 117.647 3.9967 117.64 4.48527C117.627 5.44663 117.24 6.36498 116.56 7.04483C115.88 7.72468 114.961 8.11233 114 8.12527Z" fill="white" />
		<path opacity="0.14" d="M134.82 19.6656C134.328 19.6734 133.84 19.5817 133.385 19.3962C132.929 19.2106 132.516 18.9349 132.17 18.5856C131.814 18.2552 131.532 17.854 131.341 17.408C131.15 16.962 131.054 16.4809 131.06 15.9956C131.055 15.5017 131.151 15.0121 131.342 14.5565C131.533 14.1009 131.815 13.6889 132.17 13.3456C132.51 12.9853 132.921 12.6997 133.377 12.5069C133.833 12.3141 134.325 12.2183 134.82 12.2256C135.306 12.2211 135.787 12.3184 136.233 12.5113C136.68 12.7042 137.08 12.9884 137.41 13.3456C137.759 13.6922 138.034 14.1054 138.22 14.5607C138.405 15.016 138.497 15.504 138.49 15.9956C138.485 16.9674 138.096 17.8978 137.409 18.5849C136.722 19.272 135.792 19.6604 134.82 19.6656ZM146.72 8.12563C146.227 8.13361 145.737 8.04209 145.28 7.85652C144.823 7.67096 144.408 7.39517 144.06 7.04563C143.708 6.71468 143.429 6.31463 143.24 5.87064C143.051 5.42664 142.955 4.94828 142.96 4.46563C142.978 3.47593 143.381 2.53213 144.082 1.83406C144.784 1.13599 145.73 0.738456 146.72 0.725631C147.205 0.72316 147.685 0.822447 148.13 1.01709C148.574 1.21172 148.973 1.49739 149.3 1.85563C149.648 2.19843 149.923 2.60817 150.109 3.06017C150.294 3.51216 150.387 3.99706 150.38 4.48563C150.372 5.4539 149.984 6.38029 149.299 7.06498C148.614 7.74967 147.688 8.13779 146.72 8.14563V8.12563Z" fill="white" />
		<path opacity="0.1" d="M167.56 31.3955C167.068 31.4027 166.58 31.3108 166.125 31.1252C165.67 30.9396 165.256 30.6643 164.91 30.3155C164.557 29.9796 164.277 29.5744 164.087 29.1253C163.898 28.6762 163.804 28.1928 163.81 27.7055C163.809 27.2189 163.906 26.7371 164.095 26.2888C164.284 25.8404 164.561 25.4346 164.91 25.0955C165.25 24.7357 165.661 24.4504 166.117 24.2576C166.574 24.0648 167.065 23.9687 167.56 23.9755C168.046 23.9691 168.528 24.0656 168.975 24.2586C169.421 24.4516 169.821 24.7368 170.15 25.0955C170.496 25.4359 170.769 25.8424 170.955 26.2908C171.14 26.7392 171.234 27.2203 171.23 27.7055C171.23 28.6807 170.844 29.6162 170.156 30.3077C169.468 30.9991 168.535 31.3902 167.56 31.3955ZM179.46 31.3955C178.968 31.4033 178.48 31.3116 178.025 31.126C177.569 30.9404 177.156 30.6647 176.81 30.3155C176.455 29.9811 176.173 29.5762 175.984 29.1267C175.795 28.6773 175.701 28.1932 175.71 27.7055C175.725 26.7176 176.126 25.7749 176.827 25.0782C177.527 24.3815 178.472 23.9858 179.46 23.9755C179.946 23.9703 180.428 24.0674 180.874 24.2603C181.32 24.4533 181.721 24.7378 182.05 25.0955C182.396 25.4359 182.669 25.8424 182.855 26.2908C183.04 26.7392 183.134 27.2203 183.13 27.7055C183.13 28.6807 182.744 29.6162 182.056 30.3077C181.368 30.9991 180.435 31.3902 179.46 31.3955ZM167.56 8.19548C167.068 8.20268 166.58 8.11076 166.125 7.92521C165.67 7.73965 165.256 7.46426 164.91 7.11548C164.558 6.78263 164.279 6.38083 164.09 5.93518C163.901 5.48954 163.805 5.00963 163.81 4.52548C163.806 4.03253 163.901 3.54383 164.09 3.08853C164.279 2.63323 164.558 2.22067 164.91 1.87548C165.25 1.51434 165.66 1.22749 166.117 1.03301C166.573 0.838523 167.064 0.740624 167.56 0.745481C168.045 0.738443 168.527 0.833639 168.973 1.02488C169.419 1.21611 169.82 1.49911 170.15 1.85548C170.499 2.20166 170.775 2.61485 170.96 3.07023C171.146 3.52561 171.238 4.0138 171.23 4.50548C171.225 5.47721 170.836 6.40763 170.149 7.09476C169.462 7.78188 168.532 8.17023 167.56 8.17548V8.19548Z" fill="white" />
		<path opacity="0.72" d="M200.31 31.3954C199.818 31.4044 199.33 31.3132 198.874 31.1276C198.419 30.9419 198.006 30.6656 197.66 30.3154C197.304 29.9815 197.021 29.577 196.83 29.1275C196.639 28.6781 196.543 28.1937 196.55 27.7054C196.549 27.2179 196.647 26.7352 196.837 26.2865C197.028 25.8379 197.308 25.4326 197.66 25.0954C197.999 24.7341 198.41 24.4478 198.867 24.2549C199.323 24.062 199.815 23.9668 200.31 23.9754C200.795 23.9704 201.275 24.0676 201.72 24.2606C202.164 24.4535 202.563 24.738 202.89 25.0954C203.241 25.4337 203.52 25.8391 203.711 26.2875C203.901 26.7359 204 27.2181 204 27.7054C204.006 28.1918 203.912 28.6742 203.725 29.123C203.537 29.5718 203.26 29.9776 202.91 30.3154C202.574 30.6647 202.17 30.9408 201.723 31.1267C201.276 31.3125 200.795 31.404 200.31 31.3954ZM212.2 8.12542C211.709 8.13263 211.221 8.0407 210.765 7.85515C210.31 7.66959 209.897 7.3942 209.55 7.04542C209.199 6.71447 208.92 6.31442 208.73 5.87043C208.541 5.42643 208.446 4.94807 208.45 4.46542C208.468 3.47743 208.869 2.53509 209.569 1.83729C210.269 1.13949 211.212 0.740819 212.2 0.725422C212.687 0.722171 213.169 0.821062 213.615 1.0157C214.061 1.21035 214.462 1.49641 214.79 1.85542C215.138 2.19822 215.414 2.60796 215.599 3.05996C215.785 3.51196 215.877 3.99685 215.87 4.48542C215.862 5.45541 215.473 6.38329 214.786 7.06826C214.099 7.75323 213.17 8.1402 212.2 8.14542V8.12542ZM200.31 8.19542C199.818 8.20436 199.33 8.11323 198.874 7.92757C198.419 7.74192 198.006 7.4656 197.66 7.11542C197.306 6.7842 197.024 6.38293 196.833 5.93706C196.642 5.4912 196.546 5.01048 196.55 4.52542C196.543 4.02815 196.638 3.53469 196.829 3.07547C197.02 2.61626 197.303 2.20103 197.66 1.85542C197.999 1.49282 198.409 1.20499 198.866 1.01039C199.322 0.815795 199.814 0.718729 200.31 0.725422C200.795 0.722327 201.276 0.821336 201.72 1.01601C202.165 1.21069 202.563 1.49668 202.89 1.85542C203.247 2.20175 203.529 2.61711 203.72 3.07616C203.911 3.53521 204.006 4.02832 204 4.52542C203.992 5.49634 203.603 6.42527 202.917 7.11184C202.23 7.79841 201.301 8.18758 200.33 8.19542H200.31Z" fill="white" />
		<path opacity="0.57" d="M244.93 19.6653C244.438 19.6731 243.95 19.5814 243.495 19.3958C243.039 19.2103 242.626 18.9346 242.28 18.5853C241.924 18.2549 241.642 17.8537 241.451 17.4077C241.26 16.9617 241.164 16.4806 241.17 15.9953C241.165 15.5014 241.261 15.0117 241.452 14.5562C241.643 14.1006 241.925 13.6886 242.28 13.3453C242.62 12.985 243.031 12.6994 243.487 12.5066C243.943 12.3137 244.435 12.218 244.93 12.2253C245.414 12.2203 245.895 12.3175 246.339 12.5105C246.784 12.7034 247.183 12.9879 247.51 13.3453C247.862 13.69 248.14 14.1026 248.327 14.5582C248.515 15.0138 248.607 15.5028 248.6 15.9953C248.592 16.9662 248.203 17.8952 247.516 18.5817C246.83 19.2683 245.901 19.6575 244.93 19.6653ZM244.93 31.3953C244.438 31.4031 243.95 31.3114 243.495 31.1258C243.039 30.9403 242.626 30.6646 242.28 30.3153C241.923 29.9814 241.641 29.5768 241.449 29.1274C241.258 28.678 241.163 28.1936 241.17 27.7053C241.168 27.2178 241.266 26.7351 241.457 26.2864C241.648 25.8377 241.928 25.4325 242.28 25.0953C242.62 24.735 243.031 24.4494 243.487 24.2566C243.943 24.0637 244.435 23.968 244.93 23.9753C245.414 23.9703 245.895 24.0675 246.339 24.2605C246.784 24.4534 247.183 24.7379 247.51 25.0953C247.859 25.4339 248.135 25.8398 248.323 26.2884C248.51 26.7371 248.604 27.2191 248.6 27.7053C248.597 28.6797 248.21 29.6137 247.523 30.3046C246.836 30.9955 245.904 31.3874 244.93 31.3953ZM256.82 19.6653C256.328 19.6725 255.84 19.5806 255.385 19.395C254.93 19.2095 254.516 18.9341 254.17 18.5853C253.818 18.2528 253.538 17.8511 253.349 17.4054C253.16 16.9596 253.065 16.4796 253.07 15.9953C253.066 15.5024 253.161 15.0137 253.35 14.5584C253.539 14.1031 253.818 13.6905 254.17 13.3453C254.51 12.9855 254.921 12.7002 255.377 12.5074C255.834 12.3146 256.325 12.2186 256.82 12.2253C257.306 12.2189 257.788 12.3154 258.235 12.5084C258.681 12.7014 259.081 12.9866 259.41 13.3453C259.759 13.6918 260.034 14.1051 260.22 14.5604C260.405 15.0157 260.497 15.5037 260.49 15.9953C260.485 16.967 260.096 17.8975 259.409 18.5846C258.722 19.2717 257.792 19.6601 256.82 19.6653ZM244.93 8.19532C244.438 8.20309 243.95 8.11144 243.495 7.92585C243.039 7.74026 242.626 7.46456 242.28 7.11531C241.925 6.78409 241.644 6.38282 241.453 5.93696C241.262 5.4911 241.165 5.01038 241.17 4.52531C241.163 4.02805 241.257 3.53458 241.448 3.07537C241.639 2.61615 241.922 2.20093 242.28 1.85532C242.619 1.49369 243.03 1.20651 243.486 1.01199C243.942 0.817473 244.434 0.71985 244.93 0.725315C245.415 0.72222 245.896 0.82123 246.34 1.01591C246.785 1.21058 247.183 1.49658 247.51 1.85532C247.862 2.1996 248.141 2.61221 248.328 3.06788C248.516 3.52355 248.608 4.01268 248.6 4.50532C248.592 5.47624 248.203 6.40517 247.516 7.09173C246.83 7.7783 245.901 8.16747 244.93 8.17532V8.19532Z" fill="white" />
		<path opacity="0.75" d="M277.67 31.3955C277.175 31.4054 276.683 31.3148 276.224 31.1292C275.765 30.9435 275.349 30.6667 275 30.3155C274.647 29.9796 274.367 29.5744 274.177 29.1253C273.988 28.6762 273.894 28.1928 273.9 27.7055C273.899 27.2189 273.996 26.7371 274.185 26.2888C274.374 25.8404 274.651 25.4346 275 25.0955C275.34 24.7357 275.751 24.4504 276.207 24.2576C276.663 24.0648 277.155 23.9687 277.65 23.9755C278.136 23.9691 278.618 24.0656 279.064 24.2586C279.511 24.4516 279.911 24.7368 280.24 25.0955C280.585 25.4359 280.859 25.8424 281.045 26.2908C281.23 26.7392 281.324 27.2203 281.32 27.7055C281.32 28.6807 280.934 29.6162 280.246 30.3077C279.558 30.9991 278.625 31.3902 277.65 31.3955H277.67ZM289.57 31.3955C289.078 31.4033 288.59 31.3116 288.134 31.126C287.679 30.9404 287.266 30.6647 286.92 30.3155C286.565 29.9811 286.283 29.5762 286.094 29.1267C285.904 28.6773 285.811 28.1932 285.82 27.7055C285.835 26.7176 286.236 25.7749 286.936 25.0782C287.637 24.3815 288.582 23.9858 289.57 23.9755C290.056 23.9703 290.538 24.0674 290.984 24.2603C291.43 24.4533 291.831 24.7378 292.16 25.0955C292.505 25.4359 292.779 25.8424 292.965 26.2908C293.15 26.7392 293.244 27.2203 293.24 27.7055C293.24 28.6807 292.854 29.6162 292.166 30.3077C291.478 30.9991 290.545 31.3902 289.57 31.3955ZM277.67 8.19549C277.175 8.2054 276.683 8.11479 276.224 7.92916C275.765 7.74353 275.349 7.46672 275 7.11548C274.648 6.78264 274.369 6.38083 274.18 5.93519C273.99 5.48954 273.895 5.00964 273.9 4.52548C273.893 4.02918 273.987 3.53668 274.176 3.07775C274.365 2.61882 274.645 2.20302 275 1.85549C275.339 1.49435 275.75 1.20749 276.206 1.01301C276.662 0.818527 277.154 0.720628 277.65 0.725485C278.14 0.718148 278.626 0.8151 279.076 1.00991C279.526 1.20473 279.93 1.49295 280.26 1.85549C280.609 2.20167 280.885 2.61485 281.07 3.07023C281.256 3.52562 281.348 4.0138 281.34 4.50549C281.335 5.47721 280.946 6.40764 280.259 7.09476C279.572 7.78189 278.641 8.17023 277.67 8.17549V8.19549Z" fill="white" />
		<path opacity="0.44" d="M310.42 19.6657C309.927 19.6736 309.437 19.5821 308.98 19.3966C308.523 19.211 308.108 18.9352 307.76 18.5857C307.408 18.2532 307.128 17.8515 306.939 17.4057C306.75 16.96 306.655 16.4799 306.66 15.9957C306.656 15.5027 306.751 15.014 306.94 14.5587C307.129 14.1034 307.408 13.6909 307.76 13.3457C308.102 12.9851 308.515 12.6994 308.972 12.5066C309.43 12.3138 309.923 12.2181 310.42 12.2257C310.905 12.2207 311.385 12.3178 311.829 12.5108C312.274 12.7038 312.673 12.9882 313 13.3457C313.349 13.6922 313.624 14.1054 313.81 14.5607C313.995 15.016 314.087 15.5041 314.08 15.9957C314.075 16.9657 313.688 17.8946 313.003 18.5814C312.318 19.2683 311.39 19.6578 310.42 19.6657ZM310.42 31.3957C309.927 31.4036 309.437 31.3121 308.98 31.1266C308.523 30.941 308.108 30.6652 307.76 30.3157C307.407 29.9798 307.127 29.5746 306.938 29.1255C306.748 28.6764 306.654 28.193 306.66 27.7057C306.659 27.2191 306.756 26.7373 306.945 26.289C307.134 25.8406 307.411 25.4348 307.76 25.0957C308.102 24.7351 308.515 24.4494 308.972 24.2566C309.43 24.0638 309.923 23.9681 310.42 23.9757C310.905 23.9707 311.385 24.0678 311.829 24.2608C312.274 24.4538 312.673 24.7382 313 25.0957C313.346 25.4361 313.62 25.8426 313.805 26.291C313.991 26.7394 314.084 27.2204 314.08 27.7057C314.08 28.6791 313.695 29.6132 313.01 30.3043C312.324 30.9955 311.393 31.3878 310.42 31.3957ZM322.31 19.6657C321.818 19.6729 321.33 19.5809 320.875 19.3954C320.42 19.2098 320.006 18.9345 319.66 18.5857C319.308 18.2532 319.028 17.8515 318.839 17.4057C318.65 16.96 318.555 16.4799 318.56 15.9957C318.556 15.5027 318.651 15.014 318.84 14.5587C319.029 14.1034 319.308 13.6909 319.66 13.3457C320 12.9858 320.411 12.7005 320.868 12.5078C321.324 12.315 321.815 12.2189 322.31 12.2257C322.796 12.2193 323.278 12.3157 323.725 12.5088C324.171 12.7018 324.572 12.987 324.9 13.3457C325.252 13.6905 325.531 14.103 325.721 14.5584C325.91 15.0138 326.005 15.5026 326 15.9957C325.995 16.9674 325.606 17.8978 324.919 18.5849C324.232 19.2721 323.302 19.6604 322.33 19.6657H322.31ZM322.31 8.12567C321.818 8.13287 321.33 8.04095 320.875 7.85539C320.42 7.66983 320.006 7.39444 319.66 7.04566C319.309 6.71471 319.03 6.31467 318.84 5.87067C318.651 5.42667 318.556 4.94831 318.56 4.46567C318.578 3.47767 318.979 2.53533 319.679 1.83753C320.379 1.13973 321.322 0.74106 322.31 0.725664C322.797 0.722413 323.279 0.821304 323.725 1.01595C324.171 1.21059 324.571 1.49666 324.9 1.85566C325.249 2.19443 325.527 2.60017 325.716 3.04862C325.905 3.49707 326.001 3.97902 326 4.46567C325.992 5.43565 325.603 6.36353 324.916 7.0485C324.229 7.73347 323.3 8.12044 322.33 8.12567H322.31Z" fill="white" />
		<path opacity="0.23" d="M343.16 19.6654C342.668 19.6731 342.18 19.5815 341.724 19.3959C341.269 19.2103 340.856 18.9346 340.51 18.5854C340.156 18.2544 339.875 17.853 339.685 17.4069C339.496 16.9608 339.402 16.48 339.41 15.9954C339.403 15.5021 339.498 15.0127 339.687 14.5571C339.876 14.1014 340.156 13.6892 340.51 13.3454C340.85 12.9851 341.261 12.6994 341.717 12.5066C342.173 12.3138 342.664 12.218 343.16 12.2254C343.646 12.2202 344.128 12.3173 344.574 12.5102C345.02 12.7031 345.421 12.9877 345.75 13.3454C346.099 13.6919 346.374 14.1051 346.56 14.5604C346.745 15.0157 346.837 15.5038 346.83 15.9954C346.825 16.9671 346.436 17.8975 345.749 18.5846C345.062 19.2718 344.131 19.6601 343.16 19.6654ZM343.16 31.3954C342.668 31.4031 342.18 31.3115 341.724 31.1259C341.269 30.9403 340.856 30.6646 340.51 30.3154C340.155 29.981 339.873 29.5761 339.684 29.1266C339.495 28.6771 339.401 28.193 339.41 27.7054C339.425 26.7175 339.826 25.7748 340.527 25.0781C341.227 24.3813 342.172 23.9857 343.16 23.9754C343.646 23.9702 344.128 24.0673 344.574 24.2602C345.02 24.4531 345.421 24.7377 345.75 25.0954C346.096 25.4358 346.369 25.8423 346.555 26.2907C346.74 26.7391 346.834 27.2201 346.83 27.7054C346.83 28.6806 346.444 29.6161 345.756 30.3075C345.068 30.999 344.135 31.3901 343.16 31.3954ZM355.06 19.6654C354.568 19.6731 354.08 19.5815 353.625 19.3959C353.169 19.2103 352.756 18.9346 352.41 18.5854C352.054 18.2549 351.772 17.8538 351.581 17.4077C351.39 16.9617 351.294 16.4806 351.3 15.9954C351.295 15.5015 351.391 15.0118 351.582 14.5562C351.773 14.1006 352.055 13.6887 352.41 13.3454C352.75 12.9851 353.161 12.6994 353.617 12.5066C354.073 12.3138 354.565 12.218 355.06 12.2254C355.546 12.2208 356.027 12.3182 356.473 12.5111C356.919 12.704 357.32 12.9882 357.65 13.3454C357.999 13.6919 358.274 14.1051 358.459 14.5604C358.645 15.0157 358.737 15.5038 358.73 15.9954C358.724 16.9671 358.336 17.8975 357.649 18.5846C356.962 19.2718 356.031 19.6601 355.06 19.6654ZM343.16 8.19537C342.668 8.20314 342.18 8.11149 341.724 7.9259C341.269 7.74031 340.856 7.46461 340.51 7.11536C340.157 6.78364 339.877 6.38205 339.687 5.93614C339.498 5.49023 339.403 5.00978 339.41 4.52536C339.403 4.03209 339.498 3.54269 339.687 3.08707C339.876 2.63145 340.156 2.21915 340.51 1.87537C340.849 1.51374 341.26 1.22656 341.716 1.03204C342.172 0.837523 342.664 0.7399 343.16 0.745365C343.645 0.739573 344.126 0.835333 344.572 1.02649C345.018 1.21765 345.419 1.49999 345.75 1.85537C346.099 2.20155 346.375 2.61473 346.56 3.07011C346.746 3.5255 346.838 4.01368 346.83 4.50537C346.825 5.47709 346.436 6.40752 345.749 7.09464C345.062 7.78177 344.131 8.17011 343.16 8.17537V8.19537Z" fill="white" />
		<path opacity="0.88" d="M375.9 31.3955C375.409 31.4027 374.921 31.3108 374.465 31.1252C374.01 30.9396 373.597 30.6643 373.25 30.3155C372.897 29.9796 372.617 29.5744 372.428 29.1253C372.238 28.6762 372.144 28.1928 372.15 27.7055C372.149 27.2189 372.246 26.7371 372.435 26.2888C372.624 25.8404 372.901 25.4346 373.25 25.0955C373.59 24.7357 374.002 24.4504 374.458 24.2576C374.914 24.0648 375.405 23.9687 375.9 23.9755C376.386 23.9691 376.869 24.0656 377.315 24.2586C377.761 24.4516 378.162 24.7368 378.49 25.0955C378.836 25.4359 379.11 25.8424 379.295 26.2908C379.481 26.7392 379.574 27.2203 379.57 27.7055C379.57 28.6807 379.184 29.6162 378.496 30.3077C377.809 30.9991 376.875 31.3902 375.9 31.3955ZM387.8 31.3955C387.309 31.4027 386.821 31.3108 386.365 31.1252C385.91 30.9396 385.497 30.6643 385.15 30.3155C384.797 29.9796 384.517 29.5744 384.328 29.1253C384.138 28.6762 384.044 28.1928 384.05 27.7055C384.049 27.2189 384.146 26.7371 384.335 26.2888C384.524 25.8404 384.801 25.4346 385.15 25.0955C385.49 24.7357 385.902 24.4504 386.358 24.2576C386.814 24.0648 387.305 23.9687 387.8 23.9755C388.286 23.9691 388.769 24.0656 389.215 24.2586C389.661 24.4516 390.062 24.7368 390.39 25.0955C390.736 25.4359 391.01 25.8424 391.195 26.2908C391.381 26.7392 391.474 27.2203 391.47 27.7055C391.47 28.6807 391.084 29.6162 390.396 30.3077C389.709 30.9991 388.775 31.3902 387.8 31.3955ZM375.9 8.19548C375.409 8.20268 374.921 8.11076 374.465 7.92521C374.01 7.73965 373.597 7.46426 373.25 7.11548C372.899 6.78263 372.619 6.38083 372.43 5.93518C372.241 5.48954 372.146 5.00963 372.15 4.52548C372.146 4.03253 372.241 3.54383 372.43 3.08853C372.619 2.63323 372.898 2.22067 373.25 1.87548C373.59 1.51434 374.001 1.22749 374.457 1.03301C374.913 0.838523 375.404 0.740624 375.9 0.745481C376.386 0.738443 376.867 0.833639 377.313 1.02488C377.759 1.21611 378.16 1.49911 378.49 1.85548C378.839 2.20166 379.115 2.61485 379.301 3.07023C379.486 3.52561 379.578 4.0138 379.57 4.50548C379.565 5.47721 379.177 6.40763 378.489 7.09476C377.802 7.78188 376.872 8.17023 375.9 8.17548V8.19548Z" fill="white" />
		<path d="M408.65 31.3953C408.158 31.4031 407.67 31.3114 407.215 31.1258C406.759 30.9403 406.346 30.6646 406 30.3153C405.645 29.9809 405.364 29.576 405.174 29.1266C404.985 28.6771 404.891 28.193 404.9 27.7053C404.916 26.7175 405.316 25.7747 406.017 25.078C406.717 24.3813 407.662 23.9856 408.65 23.9753C409.136 23.9702 409.618 24.0672 410.064 24.2602C410.51 24.4531 410.911 24.7376 411.24 25.0953C411.586 25.4358 411.86 25.8423 412.045 26.2906C412.231 26.739 412.324 27.2201 412.32 27.7053C412.32 28.6805 411.934 29.6161 411.246 30.3075C410.559 30.9989 409.625 31.39 408.65 31.3953ZM420.55 8.12532C420.058 8.13425 419.57 8.04312 419.114 7.85747C418.659 7.67181 418.246 7.3955 417.9 7.04531C417.545 6.71638 417.263 6.31695 417.072 5.87264C416.881 5.42833 416.785 4.94897 416.79 4.46532C416.813 3.47721 417.217 2.53628 417.918 1.83926C418.619 1.14225 419.562 0.74311 420.55 0.725315C421.035 0.722844 421.515 0.822131 421.96 1.01677C422.404 1.21141 422.803 1.49707 423.13 1.85532C423.48 2.19762 423.756 2.60705 423.944 3.059C424.131 3.51096 424.225 3.99611 424.22 4.48532C424.207 5.45369 423.816 6.3786 423.13 7.06247C422.444 7.74634 421.518 8.13496 420.55 8.14532V8.12532ZM408.65 8.19532C408.158 8.20309 407.67 8.11144 407.215 7.92585C406.759 7.74026 406.346 7.46456 406 7.11531C405.647 6.78359 405.367 6.382 405.177 5.93609C404.988 5.49018 404.894 5.00973 404.9 4.52531C404.891 4.02869 404.984 3.53549 405.173 3.07623C405.362 2.61697 405.644 2.20142 406 1.85532C406.339 1.49369 406.75 1.20651 407.206 1.01199C407.662 0.817473 408.154 0.71985 408.65 0.725315C409.137 0.722065 409.619 0.820955 410.065 1.0156C410.511 1.21024 410.911 1.49631 411.24 1.85532C411.589 2.2015 411.865 2.61468 412.051 3.07006C412.236 3.52545 412.328 4.01363 412.32 4.50532C412.315 5.47704 411.926 6.40747 411.239 7.09459C410.552 7.78172 409.622 8.17006 408.65 8.17532V8.19532Z" fill="white" />
		<path opacity="0.28" d="M453.27 19.6654C452.778 19.6731 452.29 19.5815 451.835 19.3959C451.379 19.2103 450.966 18.9346 450.62 18.5854C450.266 18.2544 449.985 17.853 449.796 17.4069C449.606 16.9608 449.512 16.48 449.52 15.9954C449.514 15.5021 449.608 15.0127 449.797 14.5571C449.986 14.1014 450.266 13.6892 450.62 13.3454C450.96 12.9851 451.371 12.6994 451.827 12.5066C452.283 12.3138 452.775 12.218 453.27 12.2254C453.756 12.2202 454.238 12.3173 454.684 12.5102C455.13 12.7031 455.531 12.9877 455.86 13.3454C456.209 13.6919 456.484 14.1051 456.67 14.5604C456.855 15.0157 456.947 15.5038 456.94 15.9954C456.935 16.9671 456.546 17.8975 455.859 18.5846C455.172 19.2718 454.242 19.6601 453.27 19.6654ZM453.27 31.3954C452.778 31.4031 452.29 31.3115 451.835 31.1259C451.379 30.9403 450.966 30.6646 450.62 30.3154C450.265 29.981 449.984 29.5761 449.794 29.1266C449.605 28.6771 449.511 28.193 449.52 27.7054C449.536 26.7175 449.936 25.7748 450.637 25.0781C451.337 24.3813 452.282 23.9857 453.27 23.9754C453.756 23.9702 454.238 24.0673 454.684 24.2602C455.13 24.4531 455.531 24.7377 455.86 25.0954C456.206 25.4358 456.48 25.8423 456.665 26.2907C456.851 26.7391 456.944 27.2201 456.94 27.7054C456.94 28.6806 456.554 29.6161 455.866 30.3075C455.179 30.999 454.245 31.3901 453.27 31.3954ZM453.27 8.19537C452.778 8.20314 452.29 8.11149 451.835 7.9259C451.379 7.74031 450.966 7.46461 450.62 7.11536C450.267 6.78364 449.987 6.38205 449.797 5.93614C449.608 5.49023 449.514 5.00978 449.52 4.52536C449.514 4.03209 449.608 3.54269 449.797 3.08707C449.986 2.63145 450.266 2.21915 450.62 1.87537C450.959 1.51374 451.37 1.22656 451.826 1.03204C452.283 0.837523 452.774 0.7399 453.27 0.745365C453.755 0.739573 454.236 0.835333 454.682 1.02649C455.128 1.21765 455.53 1.49999 455.86 1.85537C456.209 2.20155 456.485 2.61473 456.671 3.07011C456.856 3.5255 456.948 4.01368 456.94 4.50537C456.935 5.47709 456.546 6.40752 455.859 7.09464C455.172 7.78177 454.242 8.17011 453.27 8.17537V8.19537Z" fill="white" />
		<path opacity="0.74" d="M486 19.6653C485.509 19.6725 485.021 19.5805 484.565 19.395C484.11 19.2094 483.697 18.934 483.35 18.5853C482.998 18.2528 482.719 17.851 482.529 17.4053C482.34 16.9596 482.245 16.4795 482.25 15.9953C482.246 15.5023 482.341 15.0136 482.53 14.5583C482.719 14.103 482.998 13.6904 483.35 13.3453C483.69 12.9854 484.102 12.7001 484.558 12.5073C485.014 12.3146 485.505 12.2185 486 12.2253C486.486 12.2189 486.969 12.3153 487.415 12.5083C487.861 12.7014 488.262 12.9866 488.59 13.3453C488.939 13.6918 489.214 14.105 489.4 14.5603C489.585 15.0156 489.677 15.5036 489.67 15.9953C489.665 16.967 489.277 17.8974 488.589 18.5845C487.902 19.2717 486.972 19.66 486 19.6653ZM497.9 8.12526C497.409 8.13246 496.921 8.04054 496.465 7.85498C496.01 7.66943 495.597 7.39404 495.25 7.04526C494.899 6.7143 494.62 6.31426 494.43 5.87026C494.241 5.42626 494.146 4.94791 494.15 4.46526C494.168 3.47726 494.569 2.53492 495.269 1.83712C495.969 1.13932 496.912 0.740653 497.9 0.725256C498.389 0.720601 498.873 0.818811 499.321 1.0135C499.768 1.20819 500.17 1.49499 500.5 1.85526C500.848 2.19805 501.124 2.6078 501.309 3.05979C501.495 3.51179 501.587 3.99668 501.58 4.48526C501.572 5.45525 501.183 6.38312 500.496 7.06809C499.809 7.75306 498.88 8.14003 497.91 8.14526L497.9 8.12526Z" fill="white" />
		<path opacity="0.65" d="M518.76 19.6653C518.268 19.6731 517.78 19.5814 517.325 19.3958C516.869 19.2103 516.456 18.9346 516.11 18.5853C515.755 18.2549 515.472 17.8537 515.281 17.4077C515.09 16.9617 514.994 16.4806 515 15.9953C514.995 15.5014 515.092 15.0117 515.282 14.5562C515.473 14.1006 515.755 13.6886 516.11 13.3453C516.45 12.985 516.861 12.6994 517.317 12.5066C517.773 12.3137 518.265 12.218 518.76 12.2253C519.246 12.2208 519.727 12.3181 520.173 12.511C520.62 12.7039 521.02 12.9881 521.35 13.3453C521.699 13.6918 521.974 14.1051 522.16 14.5604C522.345 15.0157 522.437 15.5037 522.43 15.9953C522.425 16.967 522.036 17.8975 521.349 18.5846C520.662 19.2717 519.732 19.6601 518.76 19.6653ZM530.66 19.6653C530.167 19.6733 529.677 19.5818 529.22 19.3962C528.763 19.2106 528.348 18.9349 528 18.5853C527.648 18.2528 527.368 17.8511 527.179 17.4054C526.99 16.9596 526.895 16.4796 526.9 15.9953C526.896 15.5024 526.991 15.0137 527.18 14.5584C527.369 14.1031 527.648 13.6905 528 13.3453C528.342 12.9847 528.754 12.699 529.212 12.5062C529.67 12.3134 530.163 12.2178 530.66 12.2253C531.144 12.2203 531.625 12.3175 532.069 12.5105C532.514 12.7034 532.913 12.9879 533.24 13.3453C533.589 13.6918 533.864 14.1051 534.05 14.5604C534.235 15.0157 534.327 15.5037 534.32 15.9953C534.315 16.9653 533.928 17.8943 533.243 18.5811C532.558 19.2679 531.63 19.6574 530.66 19.6653ZM530.66 8.12532C530.167 8.1333 529.677 8.04177 529.22 7.85621C528.763 7.67065 528.348 7.39485 528 7.04531C527.649 6.71436 527.369 6.31432 527.18 5.87032C526.991 5.42632 526.895 4.94797 526.9 4.46532C526.918 3.47562 527.321 2.53181 528.022 1.83374C528.724 1.13567 529.67 0.73814 530.66 0.725315C531.145 0.722844 531.625 0.822131 532.07 1.01677C532.514 1.21141 532.913 1.49707 533.24 1.85532C533.588 2.19811 533.863 2.60786 534.049 3.05985C534.235 3.51185 534.327 3.99674 534.32 4.48532C534.312 5.45358 533.924 6.37997 533.239 7.06466C532.555 7.74935 531.628 8.13748 530.66 8.14532V8.12532ZM518.76 8.19532C518.268 8.20309 517.78 8.11144 517.325 7.92585C516.869 7.74026 516.456 7.46456 516.11 7.11531C515.755 6.78409 515.474 6.38282 515.283 5.93696C515.092 5.4911 514.995 5.01038 515 4.52531C514.993 4.02805 515.087 3.53458 515.278 3.07537C515.469 2.61615 515.752 2.20093 516.11 1.85532C516.449 1.49369 516.86 1.20651 517.316 1.01199C517.772 0.817473 518.264 0.71985 518.76 0.725315C519.247 0.722685 519.728 0.821857 520.174 1.01646C520.62 1.21106 521.021 1.4968 521.35 1.85532C521.699 2.2015 521.975 2.61468 522.16 3.07006C522.346 3.52545 522.438 4.01363 522.43 4.50532C522.425 5.47704 522.036 6.40747 521.349 7.09459C520.662 7.78172 519.732 8.17006 518.76 8.17532V8.19532Z" fill="white" />
		<path opacity="0.1" d="M551.5 31.3955C551.008 31.4027 550.52 31.3108 550.065 31.1252C549.61 30.9396 549.196 30.6643 548.85 30.3155C548.497 29.9796 548.217 29.5744 548.027 29.1253C547.838 28.6762 547.744 28.1928 547.75 27.7055C547.749 27.2189 547.846 26.7371 548.035 26.2888C548.224 25.8404 548.501 25.4346 548.85 25.0955C549.19 24.7357 549.601 24.4504 550.057 24.2576C550.513 24.0648 551.005 23.9687 551.5 23.9755C551.986 23.9691 552.468 24.0656 552.915 24.2586C553.361 24.4516 553.761 24.7368 554.09 25.0955C554.436 25.4359 554.709 25.8424 554.895 26.2908C555.08 26.7392 555.174 27.2203 555.17 27.7055C555.17 28.6807 554.784 29.6162 554.096 30.3077C553.408 30.9991 552.475 31.3902 551.5 31.3955ZM563.4 31.3955C562.908 31.4033 562.42 31.3116 561.965 31.126C561.509 30.9404 561.096 30.6647 560.75 30.3155C560.395 29.9811 560.113 29.5762 559.924 29.1267C559.735 28.6773 559.641 28.1932 559.65 27.7055C559.665 26.7176 560.066 25.7749 560.767 25.0782C561.467 24.3815 562.412 23.9858 563.4 23.9755C563.888 23.9689 564.371 24.0653 564.819 24.2583C565.267 24.4513 565.669 24.7365 566 25.0955C566.346 25.4359 566.619 25.8424 566.805 26.2908C566.99 26.7392 567.084 27.2203 567.08 27.7055C567.08 28.6807 566.694 29.6162 566.006 30.3077C565.318 30.9991 564.385 31.3902 563.41 31.3955H563.4ZM551.5 8.19548C551.008 8.20268 550.52 8.11076 550.065 7.92521C549.61 7.73965 549.196 7.46426 548.85 7.11548C548.498 6.78263 548.219 6.38083 548.03 5.93518C547.84 5.48954 547.745 5.00963 547.75 4.52548C547.746 4.03253 547.841 3.54383 548.03 3.08853C548.219 2.63323 548.498 2.22067 548.85 1.87548C549.19 1.51434 549.6 1.22749 550.056 1.03301C550.513 0.838523 551.004 0.740624 551.5 0.745481C551.985 0.738443 552.467 0.833639 552.913 1.02488C553.359 1.21611 553.76 1.49911 554.09 1.85548C554.439 2.20166 554.715 2.61485 554.9 3.07023C555.086 3.52561 555.178 4.0138 555.17 4.50548C555.165 5.47721 554.776 6.40763 554.089 7.09476C553.402 7.78188 552.472 8.17023 551.5 8.17548V8.19548Z" fill="white" />
		<path opacity="0.43" d="M584.25 19.6654C583.758 19.6744 583.27 19.5832 582.814 19.3976C582.359 19.2119 581.946 18.9356 581.6 18.5854C581.245 18.255 580.962 17.8538 580.771 17.4078C580.58 16.9618 580.484 16.4807 580.49 15.9954C580.486 15.5015 580.582 15.0119 580.773 14.5563C580.963 14.1007 581.245 13.6887 581.6 13.3454C581.939 12.9841 582.35 12.6978 582.807 12.5049C583.263 12.312 583.755 12.2168 584.25 12.2254C584.735 12.2204 585.215 12.3176 585.659 12.5106C586.104 12.7035 586.503 12.988 586.83 13.3454C587.182 13.6901 587.46 14.1027 587.648 14.5583C587.835 15.0139 587.928 15.5029 587.92 15.9954C587.912 16.9663 587.523 17.8953 586.837 18.5818C586.15 19.2684 585.221 19.6576 584.25 19.6654ZM584.25 31.3954C583.758 31.4044 583.27 31.3132 582.814 31.1276C582.359 30.9419 581.946 30.6656 581.6 30.3154C581.244 29.9815 580.961 29.577 580.77 29.1275C580.579 28.6781 580.483 28.1937 580.49 27.7054C580.489 27.2179 580.586 26.7352 580.777 26.2865C580.968 25.8379 581.248 25.4326 581.6 25.0954C581.939 24.7341 582.35 24.4478 582.807 24.2549C583.263 24.062 583.755 23.9668 584.25 23.9754C584.735 23.9704 585.215 24.0676 585.659 24.2606C586.104 24.4535 586.503 24.738 586.83 25.0954C587.179 25.434 587.456 25.8399 587.643 26.2886C587.83 26.7372 587.925 27.2192 587.92 27.7054C587.918 28.6798 587.531 29.6138 586.844 30.3047C586.156 30.9956 585.225 31.3875 584.25 31.3954ZM584.25 8.19542C583.758 8.20436 583.27 8.11323 582.814 7.92757C582.359 7.74192 581.946 7.4656 581.6 7.11542C581.246 6.7842 580.964 6.38293 580.773 5.93706C580.582 5.4912 580.486 5.01048 580.49 4.52542C580.483 4.02815 580.578 3.53469 580.769 3.07547C580.96 2.61626 581.243 2.20103 581.6 1.85542C581.939 1.49282 582.349 1.20499 582.806 1.01039C583.262 0.815795 583.754 0.718729 584.25 0.725422C584.735 0.722327 585.216 0.821336 585.66 1.01601C586.105 1.21069 586.503 1.49668 586.83 1.85542C587.183 2.19971 587.461 2.61232 587.649 3.06799C587.836 3.52365 587.928 4.01278 587.92 4.50542C587.912 5.47634 587.523 6.40527 586.837 7.09184C586.15 7.7784 585.221 8.16758 584.25 8.17542V8.19542Z" fill="white" />
		<path opacity="0.72" d="M617 8.19535C616.509 8.20255 616.021 8.11063 615.565 7.92508C615.11 7.73952 614.697 7.46413 614.35 7.11535C613.999 6.7825 613.719 6.3807 613.53 5.93505C613.341 5.48941 613.246 5.0095 613.25 4.52535C613.246 4.0324 613.341 3.5437 613.53 3.0884C613.719 2.6331 613.998 2.22055 614.35 1.87535C614.69 1.51421 615.101 1.22736 615.557 1.03288C616.013 0.838393 616.504 0.740495 617 0.745352C617.484 0.73972 617.963 0.835599 618.408 1.02679C618.852 1.21799 619.252 1.50025 619.58 1.85535C619.929 2.20153 620.205 2.61472 620.391 3.0701C620.576 3.52548 620.668 4.01367 620.66 4.50535C620.66 5.47883 620.276 6.41288 619.59 7.10403C618.904 7.79518 617.974 8.18744 617 8.19535Z" fill="white" />
		<path opacity="0.18" d="M680.78 19.6654C680.288 19.6726 679.8 19.5807 679.345 19.3951C678.89 19.2095 678.477 18.9342 678.13 18.5854C677.778 18.2529 677.498 17.8512 677.309 17.4054C677.12 16.9597 677.025 16.4796 677.03 15.9954C677.026 15.5024 677.121 15.0137 677.31 14.5584C677.499 14.1031 677.778 13.6906 678.13 13.3454C678.47 12.9856 678.881 12.7003 679.338 12.5075C679.794 12.3147 680.285 12.2186 680.78 12.2254C681.266 12.219 681.748 12.3155 682.195 12.5085C682.641 12.7015 683.042 12.9867 683.37 13.3454C683.719 13.6919 683.994 14.1051 684.18 14.5604C684.365 15.0157 684.457 15.5038 684.45 15.9954C684.445 16.9671 684.056 17.8975 683.369 18.5847C682.682 19.2718 681.752 19.6601 680.78 19.6654ZM680.78 31.3954C680.288 31.4026 679.8 31.3107 679.345 31.1251C678.89 30.9395 678.477 30.6642 678.13 30.3154C677.777 29.9795 677.497 29.5743 677.308 29.1252C677.118 28.6761 677.024 28.1927 677.03 27.7054C677.029 27.2188 677.126 26.737 677.315 26.2887C677.504 25.8403 677.781 25.4345 678.13 25.0954C678.47 24.7356 678.881 24.4503 679.338 24.2575C679.794 24.0647 680.285 23.9686 680.78 23.9754C681.266 23.969 681.748 24.0655 682.195 24.2585C682.641 24.4515 683.042 24.7367 683.37 25.0954C683.716 25.4358 683.99 25.8423 684.175 26.2907C684.361 26.7391 684.454 27.2202 684.45 27.7054C684.45 28.6806 684.064 29.6161 683.376 30.3076C682.689 30.999 681.755 31.3901 680.78 31.3954ZM692.68 8.12538C692.183 8.13665 691.69 8.04671 691.229 7.86104C690.768 7.67537 690.35 7.39784 690 7.04538C689.647 6.71594 689.366 6.31619 689.177 5.87184C688.987 5.42748 688.893 4.94838 688.9 4.46538C688.893 3.97796 688.987 3.49442 689.177 3.04522C689.366 2.59602 689.646 2.1909 690 1.85538C690.34 1.49424 690.751 1.20739 691.207 1.0129C691.663 0.818419 692.154 0.72052 692.65 0.725378C693.142 0.71916 693.629 0.816576 694.08 1.01127C694.532 1.20597 694.937 1.49358 695.27 1.85538C695.618 2.19818 695.893 2.60792 696.079 3.05992C696.265 3.51191 696.357 3.9968 696.35 4.48538C696.342 5.45537 695.953 6.38324 695.266 7.06821C694.579 7.75318 693.65 8.14015 692.68 8.14538V8.12538Z" fill="white" />
		<path opacity="0.95" d="M713.53 31.3953C713.038 31.4031 712.55 31.3115 712.095 31.1259C711.639 30.9403 711.226 30.6646 710.88 30.3153C710.523 29.9814 710.241 29.5769 710.049 29.1274C709.858 28.678 709.763 28.1937 709.77 27.7053C709.769 27.2178 709.866 26.7351 710.057 26.2864C710.248 25.8378 710.528 25.4325 710.88 25.0953C711.22 24.735 711.631 24.4494 712.087 24.2566C712.543 24.0638 713.035 23.968 713.53 23.9753C714.016 23.9708 714.497 24.0681 714.943 24.261C715.39 24.4539 715.79 24.7381 716.12 25.0953C716.466 25.4358 716.739 25.8423 716.925 26.2907C717.11 26.739 717.204 27.2201 717.2 27.7053C717.2 28.6805 716.814 29.6161 716.126 30.3075C715.438 30.999 714.505 31.3901 713.53 31.3953ZM725.43 31.3953C724.937 31.4033 724.447 31.3118 723.99 31.1262C723.533 30.9407 723.118 30.6649 722.77 30.3153C722.417 29.9794 722.137 29.5743 721.947 29.1251C721.758 28.676 721.664 28.1927 721.67 27.7053C721.669 27.2188 721.766 26.737 721.955 26.2886C722.144 25.8403 722.421 25.4345 722.77 25.0953C723.112 24.7348 723.524 24.449 723.982 24.2563C724.44 24.0635 724.933 23.9678 725.43 23.9753C725.914 23.9704 726.395 24.0675 726.839 24.2605C727.284 24.4535 727.683 24.7379 728.01 25.0953C728.356 25.4358 728.629 25.8423 728.815 26.2907C729 26.739 729.094 27.2201 729.09 27.7053C729.09 28.6788 728.705 29.6129 728.02 30.304C727.334 30.9952 726.403 31.3874 725.43 31.3953ZM713.53 8.19534C713.038 8.20311 712.55 8.11145 712.095 7.92587C711.639 7.74028 711.226 7.46458 710.88 7.11533C710.525 6.78411 710.244 6.38284 710.053 5.93698C709.862 5.49111 709.765 5.0104 709.77 4.52533C709.765 4.03142 709.862 3.54177 710.052 3.08619C710.243 2.6306 710.525 2.21863 710.88 1.87534C711.219 1.51371 711.63 1.22653 712.086 1.03201C712.542 0.837492 713.034 0.73987 713.53 0.745335C714.017 0.742704 714.498 0.841876 714.944 1.03648C715.39 1.23108 715.791 1.51682 716.12 1.87534C716.469 2.22152 716.745 2.6347 716.93 3.09008C717.116 3.54546 717.208 4.03365 717.2 4.52533C717.195 5.49706 716.806 6.42749 716.119 7.11461C715.432 7.80174 714.502 8.19008 713.53 8.19534Z" fill="white" />
		<path opacity="0.56" d="M746.27 19.6653C745.778 19.6725 745.29 19.5806 744.835 19.395C744.38 19.2095 743.966 18.9341 743.62 18.5853C743.268 18.2528 742.988 17.8511 742.799 17.4054C742.61 16.9596 742.515 16.4796 742.52 15.9953C742.516 15.5024 742.611 15.0137 742.8 14.5584C742.989 14.1031 743.268 13.6905 743.62 13.3453C743.96 12.9855 744.371 12.7002 744.827 12.5074C745.283 12.3146 745.775 12.2186 746.27 12.2253C746.756 12.2189 747.238 12.3154 747.684 12.5084C748.131 12.7014 748.531 12.9866 748.86 13.3453C749.209 13.6918 749.484 14.1051 749.669 14.5604C749.855 15.0157 749.947 15.5037 749.94 15.9953C749.934 16.967 749.546 17.8975 748.859 18.5846C748.172 19.2717 747.242 19.6601 746.27 19.6653ZM746.27 31.3953C745.778 31.4025 745.29 31.3106 744.835 31.125C744.38 30.9395 743.966 30.6641 743.62 30.3153C743.267 29.9794 742.987 29.5742 742.797 29.1251C742.608 28.676 742.514 28.1926 742.52 27.7053C742.519 27.2188 742.616 26.737 742.805 26.2886C742.994 25.8402 743.271 25.4344 743.62 25.0953C743.96 24.7355 744.371 24.4502 744.827 24.2574C745.283 24.0646 745.775 23.9686 746.27 23.9753C746.756 23.9689 747.238 24.0654 747.684 24.2584C748.131 24.4514 748.531 24.7366 748.86 25.0953C749.206 25.4358 749.479 25.8423 749.665 26.2906C749.85 26.739 749.944 27.2201 749.94 27.7053C749.94 28.6805 749.554 29.6161 748.866 30.3075C748.178 30.9989 747.245 31.39 746.27 31.3953ZM758.17 8.12532C757.678 8.13309 757.19 8.04144 756.735 7.85585C756.279 7.67026 755.866 7.39456 755.52 7.04531C755.167 6.71588 754.886 6.31612 754.697 5.87177C754.507 5.42742 754.413 4.94832 754.42 4.46532C754.413 3.9779 754.507 3.49436 754.697 3.04515C754.886 2.59595 755.166 2.19083 755.52 1.85532C755.859 1.49369 756.27 1.20651 756.726 1.01199C757.182 0.817473 757.674 0.71985 758.17 0.725315C758.655 0.720752 759.136 0.817068 759.581 1.00815C760.027 1.19924 760.429 1.48092 760.76 1.83532C761.108 2.17811 761.383 2.58786 761.569 3.03985C761.754 3.49185 761.847 3.97674 761.84 4.46532C761.832 5.4353 761.442 6.36318 760.756 7.04815C760.069 7.73312 759.14 8.12009 758.17 8.12532Z" fill="white" />
		<path opacity="0.38" d="M779 19.6654C778.508 19.6743 778.02 19.5832 777.564 19.3975C777.109 19.2119 776.696 18.9356 776.35 18.5854C775.995 18.2549 775.712 17.8538 775.521 17.4077C775.33 16.9617 775.234 16.4806 775.24 15.9954C775.236 15.5015 775.332 15.0118 775.523 14.5562C775.713 14.1006 775.995 13.6887 776.35 13.3454C776.689 12.9841 777.1 12.6978 777.557 12.5049C778.013 12.312 778.505 12.2168 779 12.2254C779.485 12.2204 779.965 12.3175 780.409 12.5105C780.854 12.7035 781.253 12.9879 781.58 13.3454C781.93 13.6914 782.207 14.1043 782.394 14.5596C782.582 15.0148 782.675 15.5031 782.67 15.9954C782.662 16.9663 782.273 17.8952 781.587 18.5818C780.9 19.2683 779.971 19.6575 779 19.6654ZM779 31.3954C778.508 31.4043 778.02 31.3132 777.564 31.1275C777.109 30.9419 776.696 30.6655 776.35 30.3154C775.994 29.9815 775.711 29.5769 775.52 29.1275C775.329 28.6781 775.233 28.1937 775.24 27.7054C775.239 27.2178 775.336 26.7351 775.527 26.2864C775.718 25.8378 775.998 25.4326 776.35 25.0954C776.689 24.7341 777.1 24.4478 777.557 24.2549C778.013 24.062 778.505 23.9668 779 23.9754C779.485 23.9704 779.965 24.0675 780.409 24.2605C780.854 24.4535 781.253 24.7379 781.58 25.0954C781.927 25.4353 782.203 25.8415 782.39 26.2898C782.577 26.7382 782.672 27.2195 782.67 27.7054C782.676 28.1917 782.582 28.6741 782.395 29.1229C782.207 29.5717 781.93 29.9775 781.58 30.3154C781.247 30.6621 780.846 30.9369 780.402 31.1226C779.958 31.3084 779.481 31.4012 779 31.3954ZM790.89 8.12537C790.398 8.13257 789.91 8.04065 789.455 7.85509C789 7.66953 788.587 7.39415 788.24 7.04536C787.889 6.71441 787.61 6.31437 787.42 5.87037C787.231 5.42637 787.136 4.94802 787.14 4.46537C787.158 3.47737 787.559 2.53503 788.259 1.83723C788.959 1.13943 789.902 0.740761 790.89 0.725364C791.38 0.719299 791.866 0.816826 792.316 1.01156C792.766 1.20629 793.169 1.49384 793.5 1.85537C793.848 2.19816 794.123 2.60791 794.309 3.0599C794.495 3.5119 794.587 3.99679 794.58 4.48537C794.572 5.45535 794.183 6.38323 793.496 7.0682C792.809 7.75317 791.88 8.14014 790.91 8.14537L790.89 8.12537ZM779 8.19537C778.508 8.2043 778.02 8.11317 777.564 7.92752C777.109 7.74186 776.696 7.46555 776.35 7.11536C775.996 6.78414 775.714 6.38287 775.523 5.93701C775.332 5.49114 775.236 5.01043 775.24 4.52536C775.236 4.03145 775.332 3.5418 775.523 3.08622C775.713 2.63063 775.995 2.21866 776.35 1.87537C776.689 1.51276 777.099 1.22493 777.556 1.03033C778.012 0.835738 778.504 0.738672 779 0.745365C779.487 0.736915 779.971 0.831426 780.419 1.02271C780.867 1.21399 781.269 1.49773 781.6 1.85537C781.951 2.20105 782.228 2.61392 782.415 3.06926C782.603 3.5246 782.696 4.01305 782.69 4.50537C782.682 5.47629 782.293 6.40521 781.607 7.09178C780.92 7.77835 779.991 8.16752 779.02 8.17536L779 8.19537Z" fill="white" />
		<path opacity="0.9" d="M823.66 19.6653C823.168 19.6731 822.68 19.5814 822.225 19.3958C821.769 19.2102 821.356 18.9345 821.01 18.5853C820.655 18.2548 820.372 17.8537 820.181 17.4077C819.99 16.9616 819.894 16.4805 819.9 15.9953C819.896 15.5014 819.992 15.0117 820.183 14.5561C820.373 14.1006 820.655 13.6886 821.01 13.3453C821.35 12.985 821.761 12.6993 822.217 12.5065C822.673 12.3137 823.165 12.2179 823.66 12.2253C824.146 12.2208 824.628 12.3181 825.074 12.511C825.52 12.7039 825.92 12.9881 826.25 13.3453C826.599 13.6918 826.874 14.1051 827.06 14.5604C827.245 15.0157 827.337 15.5037 827.33 15.9953C827.325 16.967 826.936 17.8974 826.249 18.5846C825.562 19.2717 824.632 19.66 823.66 19.6653ZM811.76 8.19529C811.268 8.20249 810.78 8.11057 810.325 7.92501C809.87 7.73946 809.457 7.46407 809.11 7.11529C808.757 6.78357 808.477 6.38197 808.287 5.93607C808.098 5.49016 808.004 5.0097 808.01 4.52529C808.004 4.03201 808.098 3.54262 808.287 3.08699C808.476 2.63137 808.756 2.21908 809.11 1.87529C809.45 1.51415 809.861 1.2273 810.317 1.03281C810.773 0.838331 811.264 0.740432 811.76 0.745289C812.247 0.742039 812.729 0.84093 813.175 1.03557C813.621 1.23022 814.021 1.51628 814.35 1.87529C814.699 2.22147 814.975 2.63466 815.161 3.09004C815.346 3.54542 815.438 4.0336 815.43 4.52529C815.425 5.49701 815.036 6.42744 814.349 7.11457C813.662 7.80169 812.732 8.19004 811.76 8.19529Z" fill="white" />
		<path opacity="0.21" d="M844.51 31.3953C844.017 31.4032 843.527 31.3117 843.07 31.1261C842.613 30.9406 842.198 30.6648 841.85 30.3153C841.497 29.9794 841.217 29.5742 841.028 29.1251C840.839 28.6759 840.744 28.1926 840.75 27.7053C840.749 27.2187 840.846 26.7369 841.035 26.2885C841.224 25.8402 841.501 25.4344 841.85 25.0953C842.192 24.7347 842.605 24.449 843.063 24.2562C843.521 24.0634 844.014 23.9677 844.51 23.9753C844.995 23.9703 845.475 24.0674 845.92 24.2604C846.364 24.4534 846.763 24.7378 847.09 25.0953C847.436 25.4357 847.71 25.8422 847.895 26.2906C848.081 26.7389 848.174 27.22 848.17 27.7053C848.17 28.6787 847.786 29.6128 847.1 30.3039C846.415 30.9951 845.484 31.3873 844.51 31.3953ZM856.4 19.6653C855.909 19.6725 855.421 19.5805 854.965 19.395C854.51 19.2094 854.097 18.934 853.75 18.5853C853.398 18.2528 853.119 17.851 852.929 17.4053C852.74 16.9596 852.645 16.4795 852.65 15.9953C852.646 15.5023 852.742 15.0136 852.931 14.5583C853.12 14.103 853.398 13.6904 853.75 13.3453C854.091 12.9854 854.502 12.7001 854.958 12.5073C855.414 12.3146 855.905 12.2185 856.4 12.2253C856.887 12.2189 857.369 12.3153 857.815 12.5083C858.261 12.7014 858.662 12.9866 858.99 13.3453C859.339 13.6918 859.614 14.105 859.8 14.5603C859.986 15.0156 860.077 15.5036 860.07 15.9953C860.065 16.967 859.677 17.8974 858.99 18.5845C858.302 19.2717 857.372 19.66 856.4 19.6653ZM856.4 8.12526C855.909 8.13246 855.421 8.04054 854.965 7.85498C854.51 7.66943 854.097 7.39404 853.75 7.04526C853.399 6.7143 853.12 6.31426 852.931 5.87026C852.741 5.42626 852.646 4.94791 852.65 4.46526C852.668 3.47726 853.07 2.53492 853.769 1.83712C854.469 1.13932 855.412 0.740653 856.4 0.725256C856.889 0.720601 857.373 0.818811 857.821 1.0135C858.269 1.20819 858.67 1.49499 859 1.85526C859.348 2.19805 859.624 2.6078 859.809 3.05979C859.995 3.51179 860.087 3.99668 860.08 4.48526C860.072 5.45525 859.683 6.38312 858.996 7.06809C858.309 7.75306 857.38 8.14003 856.41 8.14526L856.4 8.12526ZM844.51 8.19526C844.017 8.20324 843.527 8.11171 843.07 7.92615C842.613 7.74059 842.198 7.46479 841.85 7.11525C841.499 6.78241 841.219 6.3806 841.03 5.93496C840.841 5.48931 840.746 5.00941 840.75 4.52525C840.746 4.03231 840.842 3.5436 841.031 3.0883C841.22 2.63301 841.498 2.22045 841.85 1.87526C842.192 1.51335 842.604 1.2261 843.062 1.03161C843.52 0.837122 844.013 0.73962 844.51 0.745256C844.996 0.742162 845.476 0.841167 845.92 1.03584C846.365 1.23052 846.763 1.51652 847.09 1.87526C847.439 2.22144 847.715 2.63462 847.901 3.09001C848.086 3.54539 848.178 4.03357 848.17 4.52525C848.165 5.49526 847.778 6.4242 847.093 7.11104C846.408 7.79788 845.48 8.18738 844.51 8.19526Z" fill="white" />
		<path opacity="0.94" d="M889.15 19.6653C888.658 19.6742 888.169 19.5831 887.714 19.3974C887.258 19.2118 886.845 18.9355 886.5 18.5853C886.144 18.2548 885.862 17.8537 885.671 17.4077C885.48 16.9616 885.384 16.4805 885.39 15.9953C885.385 15.5014 885.481 15.0117 885.672 14.5561C885.863 14.1006 886.145 13.6886 886.5 13.3453C886.839 12.984 887.25 12.6977 887.706 12.5048C888.163 12.3119 888.654 12.2167 889.15 12.2253C889.634 12.2203 890.115 12.3175 890.559 12.5104C891.004 12.7034 891.403 12.9879 891.73 13.3453C892.082 13.6899 892.36 14.1026 892.547 14.5582C892.735 15.0138 892.827 15.5027 892.82 15.9953C892.812 16.9662 892.423 17.8951 891.736 18.5817C891.05 19.2683 890.121 19.6574 889.15 19.6653ZM889.15 8.12529C888.658 8.13422 888.169 8.04309 887.714 7.85744C887.258 7.67178 886.845 7.39547 886.5 7.04528C886.145 6.71635 885.863 6.31691 885.672 5.87261C885.481 5.4283 885.385 4.94894 885.39 4.46529C885.413 3.47718 885.817 2.53625 886.518 1.83923C887.219 1.14221 888.162 0.743079 889.15 0.725284C889.634 0.720273 890.113 0.816432 890.557 1.00759C891.001 1.19874 891.401 1.48067 891.73 1.83528C892.081 2.17617 892.359 2.58534 892.547 3.03762C892.734 3.4899 892.827 3.97575 892.82 4.46529C892.807 5.43366 892.416 6.35857 891.73 7.04244C891.044 7.72631 890.118 8.11493 889.15 8.12529ZM877.25 8.19529C876.758 8.20306 876.27 8.1114 875.815 7.92582C875.359 7.74023 874.946 7.46453 874.6 7.11528C874.247 6.78356 873.967 6.38197 873.777 5.93606C873.588 5.49015 873.493 5.0097 873.5 4.52528C873.493 4.03201 873.588 3.54261 873.777 3.08699C873.966 2.63137 874.246 2.21907 874.6 1.87529C874.939 1.51366 875.35 1.22648 875.806 1.03196C876.262 0.837442 876.754 0.739819 877.25 0.745284C877.737 0.742034 878.219 0.840925 878.665 1.03557C879.111 1.23021 879.511 1.51628 879.84 1.87529C880.189 2.22147 880.465 2.63465 880.65 3.09003C880.836 3.54541 880.928 4.0336 880.92 4.52528C880.915 5.49701 880.526 6.42744 879.839 7.11456C879.152 7.80169 878.222 8.19003 877.25 8.19529Z" fill="white" />
		<path opacity="0.66" d="M910 19.6653C909.509 19.6725 909.021 19.5806 908.565 19.3951C908.11 19.2095 907.697 18.9341 907.35 18.5854C906.998 18.2529 906.719 17.8511 906.529 17.4054C906.34 16.9597 906.245 16.4796 906.25 15.9953C906.246 15.5024 906.341 15.0137 906.53 14.5584C906.719 14.1031 906.998 13.6905 907.35 13.3453C907.69 12.9855 908.102 12.7002 908.558 12.5074C909.014 12.3147 909.505 12.2186 910 12.2253C910.486 12.219 910.969 12.3154 911.415 12.5084C911.861 12.7015 912.262 12.9867 912.59 13.3453C912.939 13.6919 913.214 14.1051 913.4 14.5604C913.586 15.0157 913.677 15.5037 913.67 15.9953C913.665 16.9671 913.277 17.8975 912.589 18.5846C911.902 19.2717 910.972 19.6601 910 19.6653ZM921.9 8.12535C921.409 8.13255 920.921 8.04063 920.465 7.85507C920.01 7.66952 919.597 7.39413 919.25 7.04535C918.899 6.71439 918.62 6.31435 918.431 5.87035C918.241 5.42635 918.146 4.948 918.15 4.46535C918.168 3.47735 918.569 2.53501 919.269 1.83721C919.969 1.13941 920.912 0.740743 921.9 0.725346C922.385 0.719554 922.867 0.815313 923.313 1.00647C923.759 1.19763 924.16 1.47997 924.49 1.83535C924.838 2.17814 925.114 2.58789 925.299 3.03988C925.485 3.49188 925.577 3.97677 925.57 4.46535C925.562 5.43533 925.173 6.36321 924.486 7.04818C923.799 7.73315 922.87 8.12012 921.9 8.12535Z" fill="white" />
		<path opacity="0.34" d="M942.74 19.6653C942.248 19.6731 941.76 19.5814 941.305 19.3958C940.849 19.2102 940.436 18.9345 940.09 18.5853C939.734 18.2548 939.452 17.8537 939.261 17.4077C939.07 16.9616 938.974 16.4805 938.98 15.9953C938.975 15.5014 939.071 15.0117 939.262 14.5561C939.453 14.1006 939.735 13.6886 940.09 13.3453C940.43 12.985 940.841 12.6993 941.297 12.5065C941.753 12.3137 942.245 12.2179 942.74 12.2253C943.226 12.2208 943.707 12.3181 944.153 12.511C944.599 12.7039 945 12.9881 945.33 13.3453C945.679 13.6918 945.954 14.1051 946.14 14.5604C946.325 15.0157 946.417 15.5037 946.41 15.9953C946.405 16.967 946.016 17.8974 945.329 18.5846C944.642 19.2717 943.712 19.66 942.74 19.6653ZM942.74 31.3953C942.248 31.4031 941.76 31.3114 941.305 31.1258C940.849 30.9402 940.436 30.6645 940.09 30.3153C939.733 29.9814 939.451 29.5768 939.259 29.1274C939.068 28.678 938.973 28.1936 938.98 27.7053C938.978 27.2177 939.076 26.735 939.267 26.2864C939.458 25.8377 939.738 25.4325 940.09 25.0953C940.43 24.735 940.841 24.4493 941.297 24.2565C941.753 24.0637 942.245 23.9679 942.74 23.9753C943.226 23.9708 943.707 24.0681 944.153 24.261C944.599 24.4539 945 24.7381 945.33 25.0953C945.676 25.4357 945.949 25.8422 946.135 26.2906C946.32 26.739 946.414 27.2201 946.41 27.7053C946.41 28.6805 946.024 29.616 945.336 30.3075C944.648 30.9989 943.715 31.39 942.74 31.3953ZM954.64 8.12529C954.147 8.13327 953.657 8.04174 953.2 7.85618C952.743 7.67062 952.328 7.39482 951.98 7.04528C951.628 6.71433 951.349 6.31429 951.16 5.87029C950.971 5.42629 950.875 4.94793 950.88 4.46529C950.898 3.47559 951.3 2.53178 952.002 1.83371C952.704 1.13564 953.65 0.738109 954.64 0.725284C955.124 0.720273 955.603 0.816432 956.047 1.00759C956.492 1.19874 956.891 1.48067 957.22 1.83528C957.568 2.17808 957.843 2.58783 958.029 3.03982C958.215 3.49182 958.307 3.97671 958.3 4.46529C958.292 5.43355 957.904 6.35994 957.219 7.04463C956.535 7.72932 955.608 8.11744 954.64 8.12529Z" fill="white" />
		<path opacity="0.53" d="M975.48 19.6654C974.988 19.6726 974.5 19.5807 974.045 19.3951C973.59 19.2095 973.176 18.9342 972.83 18.5854C972.478 18.2529 972.198 17.8512 972.009 17.4054C971.82 16.9597 971.725 16.4796 971.73 15.9954C971.726 15.5024 971.821 15.0137 972.01 14.5584C972.199 14.1031 972.478 13.6906 972.83 13.3454C973.17 12.9856 973.581 12.7003 974.037 12.5075C974.494 12.3147 974.985 12.2186 975.48 12.2254C975.966 12.219 976.448 12.3155 976.895 12.5085C977.341 12.7015 977.741 12.9867 978.07 13.3454C978.419 13.6919 978.694 14.1051 978.88 14.5604C979.065 15.0157 979.157 15.5038 979.15 15.9954C979.145 16.9671 978.756 17.8975 978.069 18.5847C977.382 19.2718 976.452 19.6601 975.48 19.6654ZM975.48 31.3954C974.988 31.4026 974.5 31.3107 974.045 31.1251C973.59 30.9395 973.176 30.6642 972.83 30.3154C972.477 29.9795 972.197 29.5743 972.007 29.1252C971.818 28.6761 971.724 28.1927 971.73 27.7054C971.729 27.2188 971.826 26.737 972.015 26.2887C972.204 25.8403 972.481 25.4345 972.83 25.0954C973.17 24.7356 973.581 24.4503 974.037 24.2575C974.494 24.0647 974.985 23.9686 975.48 23.9754C975.966 23.969 976.448 24.0655 976.895 24.2585C977.341 24.4515 977.741 24.7367 978.07 25.0954C978.416 25.4358 978.689 25.8423 978.875 26.2907C979.06 26.7391 979.154 27.2202 979.15 27.7054C979.15 28.6806 978.764 29.6161 978.076 30.3076C977.388 30.999 976.455 31.3901 975.48 31.3954ZM987.38 8.12538C986.888 8.13315 986.4 8.0415 985.944 7.85591C985.489 7.67032 985.076 7.39462 984.73 7.04538C984.376 6.71594 984.096 6.31619 983.907 5.87184C983.717 5.42748 983.623 4.94838 983.63 4.46538C983.623 3.97796 983.717 3.49442 983.907 3.04522C984.096 2.59602 984.376 2.1909 984.73 1.85538C985.069 1.49375 985.48 1.20658 985.936 1.01206C986.392 0.817535 986.884 0.719913 987.38 0.725378C987.871 0.71916 988.359 0.816576 988.81 1.01127C989.262 1.20597 989.667 1.49358 990 1.85538C990.348 2.19818 990.623 2.60792 990.809 3.05992C990.994 3.51191 991.087 3.9968 991.08 4.48538C991.072 5.45537 990.682 6.38324 989.996 7.06821C989.309 7.75318 988.38 8.14015 987.41 8.14538L987.38 8.12538Z" fill="white" />
		<path opacity="0.77" d="M1020.12 19.6654C1019.63 19.6726 1019.14 19.5807 1018.68 19.3952C1018.23 19.2096 1017.82 18.9342 1017.47 18.5854C1017.12 18.253 1016.84 17.8512 1016.65 17.4055C1016.46 16.9598 1016.36 16.4797 1016.37 15.9954C1016.37 15.5025 1016.46 15.0138 1016.65 14.5585C1016.84 14.1032 1017.12 13.6906 1017.47 13.3454C1017.81 12.9856 1018.22 12.7003 1018.68 12.5075C1019.13 12.3148 1019.62 12.2187 1020.12 12.2254C1020.61 12.219 1021.09 12.3155 1021.53 12.5085C1021.98 12.7016 1022.38 12.9868 1022.71 13.3454C1023.06 13.692 1023.33 14.1052 1023.52 14.5605C1023.71 15.0158 1023.8 15.5038 1023.79 15.9954C1023.78 16.9672 1023.4 17.8976 1022.71 18.5847C1022.02 19.2718 1021.09 19.6602 1020.12 19.6654ZM1008.23 8.19544C1007.74 8.20438 1007.25 8.11325 1006.79 7.92759C1006.34 7.74194 1005.93 7.46562 1005.58 7.11544C1005.23 6.78422 1004.94 6.38295 1004.75 5.93708C1004.56 5.49122 1004.47 5.0105 1004.47 4.52544C1004.47 4.03153 1004.56 3.54187 1004.75 3.08629C1004.94 2.63071 1005.22 2.21873 1005.58 1.87544C1005.92 1.51284 1006.33 1.22501 1006.79 1.03041C1007.24 0.835814 1007.73 0.738749 1008.23 0.745441C1008.72 0.742347 1009.2 0.841352 1009.64 1.03603C1010.08 1.23071 1010.48 1.5167 1010.81 1.87544C1011.16 2.21972 1011.44 2.63233 1011.63 3.088C1011.82 3.54367 1011.91 4.0328 1011.9 4.52544C1011.89 5.49636 1011.5 6.42529 1010.82 7.11186C1010.13 7.79842 1009.2 8.1876 1008.23 8.19544Z" fill="white" />
		<path opacity="0.91" d="M1052.85 19.6653C1052.36 19.6731 1051.87 19.5814 1051.42 19.3958C1050.96 19.2103 1050.55 18.9346 1050.2 18.5853C1049.84 18.2549 1049.56 17.8537 1049.37 17.4077C1049.18 16.9617 1049.08 16.4806 1049.09 15.9953C1049.09 15.5014 1049.18 15.0117 1049.37 14.5562C1049.56 14.1006 1049.85 13.6886 1050.2 13.3453C1050.54 12.985 1050.95 12.6994 1051.41 12.5066C1051.86 12.3137 1052.35 12.218 1052.85 12.2253C1053.33 12.2203 1053.82 12.3175 1054.26 12.5105C1054.7 12.7034 1055.1 12.9879 1055.43 13.3453C1055.78 13.69 1056.06 14.1026 1056.25 14.5582C1056.44 15.0138 1056.53 15.5028 1056.52 15.9953C1056.51 16.9662 1056.12 17.8952 1055.44 18.5817C1054.75 19.2683 1053.82 19.6575 1052.85 19.6653ZM1052.85 31.3953C1052.36 31.4031 1051.87 31.3114 1051.42 31.1258C1050.96 30.9403 1050.55 30.6646 1050.2 30.3153C1049.84 29.9814 1049.56 29.5768 1049.37 29.1274C1049.18 28.678 1049.08 28.1936 1049.09 27.7053C1049.09 27.2178 1049.19 26.7351 1049.38 26.2864C1049.57 25.8377 1049.85 25.4325 1050.2 25.0953C1050.54 24.735 1050.95 24.4494 1051.41 24.2566C1051.86 24.0637 1052.35 23.968 1052.85 23.9753C1053.33 23.9703 1053.82 24.0675 1054.26 24.2605C1054.7 24.4534 1055.1 24.7379 1055.43 25.0953C1055.78 25.4339 1056.06 25.8398 1056.24 26.2884C1056.43 26.7371 1056.52 27.2191 1056.52 27.7053C1056.52 28.6797 1056.13 29.6137 1055.44 30.3046C1054.76 30.9955 1053.82 31.3874 1052.85 31.3953ZM1052.85 8.19532C1052.36 8.20309 1051.87 8.11144 1051.42 7.92585C1050.96 7.74026 1050.55 7.46456 1050.2 7.11531C1049.85 6.78409 1049.56 6.38282 1049.37 5.93696C1049.18 5.4911 1049.09 5.01038 1049.09 4.52531C1049.08 4.02805 1049.18 3.53458 1049.37 3.07537C1049.56 2.61615 1049.84 2.20093 1050.2 1.85532C1050.54 1.49369 1050.95 1.20651 1051.41 1.01199C1051.86 0.817473 1052.35 0.71985 1052.85 0.725315C1053.34 0.72222 1053.82 0.82123 1054.26 1.01591C1054.7 1.21058 1055.1 1.49658 1055.43 1.85532C1055.78 2.1996 1056.06 2.61221 1056.25 3.06788C1056.44 3.52355 1056.53 4.01268 1056.52 4.50532C1056.51 5.47624 1056.12 6.40517 1055.44 7.09173C1054.75 7.7783 1053.82 8.16747 1052.85 8.17532V8.19532Z" fill="white" />
		<path opacity="0.14" d="M1097.49 19.6653C1097 19.6731 1096.51 19.5814 1096.05 19.3958C1095.6 19.2102 1095.19 18.9345 1094.84 18.5853C1094.49 18.2543 1094.21 17.8529 1094.02 17.4068C1093.83 16.9607 1093.73 16.4799 1093.74 15.9953C1093.73 15.502 1093.83 15.0126 1094.02 14.557C1094.21 14.1014 1094.49 13.6891 1094.84 13.3453C1095.18 12.985 1095.59 12.6993 1096.05 12.5065C1096.5 12.3137 1096.99 12.2179 1097.49 12.2253C1097.98 12.2202 1098.46 12.3172 1098.9 12.5101C1099.35 12.7031 1099.75 12.9876 1100.08 13.3453C1100.43 13.6918 1100.7 14.1051 1100.89 14.5604C1101.08 15.0157 1101.17 15.5037 1101.16 15.9953C1101.15 16.967 1100.77 17.8974 1100.08 18.5846C1099.39 19.2717 1098.46 19.66 1097.49 19.6653ZM1085.59 8.19529C1085.1 8.20249 1084.61 8.11057 1084.16 7.92501C1083.7 7.73946 1083.29 7.46407 1082.94 7.11529C1082.59 6.78244 1082.31 6.38064 1082.12 5.93499C1081.93 5.48934 1081.84 5.00944 1081.84 4.52529C1081.84 4.03234 1081.93 3.54364 1082.12 3.08834C1082.31 2.63304 1082.59 2.22048 1082.94 1.87529C1083.28 1.51415 1083.69 1.2273 1084.15 1.03281C1084.6 0.838331 1085.09 0.740432 1085.59 0.745289C1086.08 0.740787 1086.56 0.839111 1087.01 1.03383C1087.45 1.22856 1087.85 1.51529 1088.18 1.87529C1088.53 2.22147 1088.8 2.63466 1088.99 3.09004C1089.18 3.54542 1089.27 4.0336 1089.26 4.52529C1089.25 5.49701 1088.87 6.42744 1088.18 7.11457C1087.49 7.80169 1086.56 8.19004 1085.59 8.19529Z" fill="white" />
		<path opacity="0.3" d="M1130.23 8.12535C1129.74 8.13255 1129.25 8.04063 1128.8 7.85507C1128.34 7.66952 1127.93 7.39413 1127.58 7.04535C1127.23 6.71439 1126.95 6.31435 1126.76 5.87035C1126.57 5.42635 1126.48 4.948 1126.48 4.46535C1126.5 3.47735 1126.9 2.53501 1127.6 1.83721C1128.3 1.13941 1129.24 0.740743 1130.23 0.725346C1130.72 0.719554 1131.2 0.815313 1131.64 1.00647C1132.09 1.19763 1132.49 1.47997 1132.82 1.83535C1133.17 2.17814 1133.44 2.58789 1133.63 3.03988C1133.81 3.49188 1133.91 3.97677 1133.9 4.46535C1133.89 5.43533 1133.5 6.36321 1132.82 7.04818C1132.13 7.73315 1131.2 8.12012 1130.23 8.12535ZM1118.34 8.19535C1117.85 8.20428 1117.36 8.11315 1116.9 7.9275C1116.45 7.74184 1116.04 7.46553 1115.69 7.11535C1115.34 6.78412 1115.05 6.38285 1114.86 5.93699C1114.67 5.49113 1114.58 5.01041 1114.58 4.52534C1114.58 4.03143 1114.67 3.54178 1114.86 3.0862C1115.05 2.63061 1115.34 2.21864 1115.69 1.87535C1116.03 1.51274 1116.44 1.22491 1116.9 1.03032C1117.35 0.835719 1117.84 0.738653 1118.34 0.745346C1118.83 0.742251 1119.31 0.841257 1119.75 1.03593C1120.2 1.23061 1120.59 1.51661 1120.92 1.87535C1121.27 2.22104 1121.55 2.63391 1121.74 3.08924C1121.92 3.54458 1122.02 4.03303 1122.01 4.52534C1122 5.49626 1121.61 6.4252 1120.93 7.11176C1120.24 7.79833 1119.31 8.18751 1118.34 8.19535Z" fill="white" />
		<path opacity="0.28" d="M1151.08 19.6653C1150.59 19.6731 1150.1 19.5814 1149.64 19.3958C1149.19 19.2103 1148.78 18.9346 1148.43 18.5853C1148.08 18.2544 1147.8 17.8529 1147.61 17.4068C1147.42 16.9607 1147.32 16.4799 1147.33 15.9953C1147.32 15.502 1147.42 15.0126 1147.61 14.557C1147.8 14.1014 1148.08 13.6891 1148.43 13.3453C1148.77 12.985 1149.18 12.6994 1149.64 12.5066C1150.09 12.3137 1150.58 12.218 1151.08 12.2253C1151.57 12.2202 1152.05 12.3172 1152.49 12.5102C1152.94 12.7031 1153.34 12.9876 1153.67 13.3453C1154.02 13.6918 1154.29 14.1051 1154.48 14.5604C1154.67 15.0157 1154.76 15.5037 1154.75 15.9953C1154.74 16.967 1154.36 17.8975 1153.67 18.5846C1152.98 19.2717 1152.05 19.6601 1151.08 19.6653ZM1151.08 31.3953C1150.59 31.4031 1150.1 31.3114 1149.64 31.1258C1149.19 30.9403 1148.78 30.6646 1148.43 30.3153C1148.08 29.9809 1147.79 29.576 1147.6 29.1266C1147.41 28.6771 1147.32 28.193 1147.33 27.7053C1147.35 26.7175 1147.75 25.7747 1148.45 25.078C1149.15 24.3813 1150.09 23.9856 1151.08 23.9753C1151.57 23.9702 1152.05 24.0672 1152.49 24.2602C1152.94 24.4531 1153.34 24.7376 1153.67 25.0953C1154.02 25.4358 1154.29 25.8423 1154.48 26.2906C1154.66 26.739 1154.75 27.2201 1154.75 27.7053C1154.75 28.6805 1154.36 29.6161 1153.68 30.3075C1152.99 30.9989 1152.06 31.39 1151.08 31.3953ZM1163 19.6653C1162.51 19.6731 1162.02 19.5814 1161.56 19.3958C1161.11 19.2103 1160.7 18.9346 1160.35 18.5853C1159.99 18.2549 1159.71 17.8537 1159.52 17.4077C1159.33 16.9617 1159.23 16.4806 1159.24 15.9953C1159.24 15.5014 1159.33 15.0117 1159.52 14.5562C1159.71 14.1006 1160 13.6886 1160.35 13.3453C1160.69 12.985 1161.1 12.6994 1161.56 12.5066C1162.01 12.3137 1162.5 12.218 1163 12.2253C1163.49 12.2208 1163.97 12.3181 1164.41 12.511C1164.86 12.7039 1165.26 12.9881 1165.59 13.3453C1165.94 13.6918 1166.21 14.1051 1166.4 14.5604C1166.59 15.0157 1166.68 15.5037 1166.67 15.9953C1166.66 16.967 1166.28 17.8975 1165.59 18.5846C1164.9 19.2717 1163.97 19.6601 1163 19.6653ZM1163 8.12532C1162.51 8.13309 1162.02 8.04144 1161.56 7.85585C1161.11 7.67026 1160.7 7.39456 1160.35 7.04531C1160 6.71638 1159.71 6.31695 1159.52 5.87264C1159.33 5.42833 1159.24 4.94897 1159.24 4.46532C1159.24 3.97725 1159.33 3.49345 1159.52 3.04429C1159.71 2.59514 1160 2.19033 1160.35 1.85532C1160.69 1.49369 1161.1 1.20651 1161.56 1.01199C1162.01 0.817473 1162.5 0.71985 1163 0.725315C1163.49 0.72136 1163.97 0.817952 1164.41 1.009C1164.86 1.20005 1165.26 1.4814 1165.59 1.83532C1165.94 2.17811 1166.21 2.58786 1166.4 3.03985C1166.58 3.49185 1166.68 3.97674 1166.67 4.46532C1166.68 4.94634 1166.58 5.42344 1166.4 5.86719C1166.21 6.31093 1165.94 6.71189 1165.59 7.04531C1165.25 7.39142 1164.85 7.66562 1164.41 7.85127C1163.96 8.03693 1163.48 8.13016 1163 8.12532Z" fill="white" />
		<path opacity="0.34" d="M1183.83 31.3953C1183.34 31.4033 1182.85 31.3118 1182.39 31.1262C1181.93 30.9407 1181.52 30.6649 1181.17 30.3153C1180.82 29.9795 1180.54 29.5743 1180.35 29.1252C1180.16 28.676 1180.06 28.1927 1180.07 27.7053C1180.07 27.2188 1180.17 26.737 1180.36 26.2886C1180.54 25.8403 1180.82 25.4345 1181.17 25.0953C1181.51 24.7348 1181.92 24.4491 1182.38 24.2563C1182.84 24.0635 1183.33 23.9678 1183.83 23.9754C1184.31 23.9704 1184.79 24.0675 1185.24 24.2605C1185.68 24.4535 1186.08 24.7379 1186.41 25.0953C1186.76 25.4358 1187.03 25.8423 1187.22 26.2907C1187.4 26.739 1187.49 27.2201 1187.49 27.7053C1187.49 28.6788 1187.11 29.6129 1186.42 30.304C1185.73 30.9952 1184.8 31.3874 1183.83 31.3953ZM1195.72 31.3953C1195.23 31.4026 1194.74 31.3106 1194.29 31.1251C1193.83 30.9395 1193.42 30.6641 1193.07 30.3153C1192.72 29.9795 1192.44 29.5743 1192.25 29.1252C1192.06 28.676 1191.96 28.1927 1191.97 27.7053C1191.97 27.2188 1192.07 26.737 1192.26 26.2886C1192.44 25.8403 1192.72 25.4345 1193.07 25.0953C1193.41 24.7355 1193.82 24.4502 1194.28 24.2574C1194.73 24.0647 1195.22 23.9686 1195.72 23.9754C1196.21 23.969 1196.69 24.0654 1197.13 24.2584C1197.58 24.4515 1197.98 24.7367 1198.31 25.0953C1198.66 25.4358 1198.93 25.8423 1199.12 26.2907C1199.3 26.739 1199.39 27.2201 1199.39 27.7053C1199.39 28.6805 1199 29.6161 1198.32 30.3075C1197.63 30.999 1196.7 31.3901 1195.72 31.3953ZM1183.83 8.19535C1183.34 8.20333 1182.85 8.1118 1182.39 7.92624C1181.93 7.74068 1181.52 7.46489 1181.17 7.11535C1180.82 6.7825 1180.54 6.3807 1180.35 5.93505C1180.16 5.4894 1180.07 5.0095 1180.07 4.52535C1180.07 4.0324 1180.16 3.54369 1180.35 3.0884C1180.54 2.6331 1180.82 2.22054 1181.17 1.87535C1181.51 1.51345 1181.92 1.22619 1182.38 1.0317C1182.84 0.837214 1183.33 0.739712 1183.83 0.745348C1184.32 0.742254 1184.8 0.841259 1185.24 1.03594C1185.68 1.23061 1186.08 1.51661 1186.41 1.87535C1186.76 2.22153 1187.04 2.63472 1187.22 3.0901C1187.41 3.54548 1187.5 4.03366 1187.49 4.52535C1187.48 5.49535 1187.1 6.42429 1186.41 7.11113C1185.73 7.79797 1184.8 8.18748 1183.83 8.19535Z" fill="white" />
		<path opacity="0.67" d="M1216.57 19.6653C1216.08 19.6731 1215.59 19.5814 1215.13 19.3958C1214.68 19.2102 1214.27 18.9345 1213.92 18.5853C1213.57 18.2543 1213.29 17.8529 1213.1 17.4068C1212.91 16.9607 1212.81 16.4799 1212.82 15.9953C1212.81 15.502 1212.91 15.0126 1213.1 14.557C1213.29 14.1014 1213.57 13.6891 1213.92 13.3453C1214.26 12.985 1214.67 12.6993 1215.13 12.5065C1215.58 12.3137 1216.07 12.2179 1216.57 12.2253C1217.06 12.2201 1217.54 12.3172 1217.98 12.5101C1218.43 12.7031 1218.83 12.9876 1219.16 13.3453C1219.51 13.6918 1219.78 14.1051 1219.97 14.5604C1220.16 15.0157 1220.25 15.5037 1220.24 15.9953C1220.23 16.967 1219.85 17.8974 1219.16 18.5846C1218.47 19.2717 1217.54 19.66 1216.57 19.6653ZM1216.57 31.3953C1216.08 31.4031 1215.59 31.3114 1215.13 31.1258C1214.68 30.9402 1214.27 30.6645 1213.92 30.3153C1213.56 29.9809 1213.28 29.576 1213.09 29.1265C1212.9 28.6771 1212.81 28.193 1212.82 27.7053C1212.84 26.7174 1213.24 25.7747 1213.94 25.078C1214.64 24.3813 1215.58 23.9856 1216.57 23.9753C1217.06 23.9701 1217.54 24.0672 1217.98 24.2601C1218.43 24.4531 1218.83 24.7376 1219.16 25.0953C1219.51 25.4357 1219.78 25.8422 1219.97 26.2906C1220.15 26.739 1220.24 27.2201 1220.24 27.7053C1220.24 28.6805 1219.85 29.616 1219.17 30.3075C1218.48 30.9989 1217.55 31.39 1216.57 31.3953ZM1228.47 8.12529C1227.98 8.13422 1227.49 8.04309 1227.03 7.85744C1226.58 7.67178 1226.17 7.39547 1225.82 7.04528C1225.47 6.71635 1225.18 6.31691 1224.99 5.87261C1224.8 5.4283 1224.7 4.94894 1224.71 4.46529C1224.73 3.47718 1225.14 2.53625 1225.84 1.83923C1226.54 1.14221 1227.48 0.743079 1228.47 0.725284C1228.95 0.720273 1229.43 0.816432 1229.88 1.00759C1230.32 1.19874 1230.72 1.48067 1231.05 1.83528C1231.4 2.17617 1231.68 2.58534 1231.87 3.03762C1232.05 3.4899 1232.15 3.97575 1232.14 4.46529C1232.13 5.43366 1231.74 6.35857 1231.05 7.04244C1230.36 7.72631 1229.44 8.11493 1228.47 8.12529Z" fill="white" />
		<path opacity="0.41" d="M1280.36 19.6653C1279.87 19.6725 1279.38 19.5806 1278.93 19.395C1278.47 19.2095 1278.06 18.9341 1277.71 18.5853C1277.36 18.2528 1277.08 17.8511 1276.89 17.4054C1276.7 16.9596 1276.6 16.4796 1276.61 15.9953C1276.61 15.5024 1276.7 15.0137 1276.89 14.5584C1277.08 14.1031 1277.36 13.6905 1277.71 13.3453C1278.05 12.9855 1278.46 12.7002 1278.92 12.5074C1279.37 12.3146 1279.86 12.2186 1280.36 12.2253C1280.85 12.2189 1281.33 12.3154 1281.77 12.5084C1282.22 12.7014 1282.62 12.9866 1282.95 13.3453C1283.3 13.6918 1283.57 14.1051 1283.76 14.5604C1283.95 15.0157 1284.04 15.5037 1284.03 15.9953C1284.02 16.967 1283.64 17.8975 1282.95 18.5846C1282.26 19.2717 1281.33 19.6601 1280.36 19.6653ZM1280.36 31.3953C1279.87 31.4025 1279.38 31.3106 1278.93 31.125C1278.47 30.9395 1278.06 30.6641 1277.71 30.3153C1277.36 29.9794 1277.08 29.5742 1276.89 29.1251C1276.7 28.676 1276.6 28.1926 1276.61 27.7053C1276.61 27.2188 1276.71 26.737 1276.9 26.2886C1277.08 25.8402 1277.36 25.4344 1277.71 25.0953C1278.05 24.7355 1278.46 24.4502 1278.92 24.2574C1279.37 24.0646 1279.86 23.9686 1280.36 23.9753C1280.85 23.9689 1281.33 24.0654 1281.77 24.2584C1282.22 24.4514 1282.62 24.7366 1282.95 25.0953C1283.3 25.4358 1283.57 25.8423 1283.76 26.2906C1283.94 26.739 1284.03 27.2201 1284.03 27.7053C1284.03 28.6805 1283.64 29.6161 1282.96 30.3075C1282.27 30.9989 1281.34 31.39 1280.36 31.3953ZM1292.26 8.12532C1291.77 8.13309 1291.28 8.04144 1290.82 7.85585C1290.37 7.67026 1289.96 7.39456 1289.61 7.04531C1289.26 6.71588 1288.98 6.31612 1288.79 5.87177C1288.6 5.42742 1288.5 4.94832 1288.51 4.46532C1288.5 3.9779 1288.6 3.49436 1288.79 3.04515C1288.98 2.59595 1289.26 2.19083 1289.61 1.85532C1289.95 1.49369 1290.36 1.20651 1290.82 1.01199C1291.27 0.817473 1291.76 0.71985 1292.26 0.725315C1292.75 0.720752 1293.23 0.817068 1293.67 1.00815C1294.12 1.19924 1294.52 1.48092 1294.85 1.83532C1295.2 2.17811 1295.47 2.58786 1295.66 3.03985C1295.84 3.49185 1295.94 3.97674 1295.93 4.46532C1295.92 5.4353 1295.53 6.36318 1294.85 7.04815C1294.16 7.73312 1293.23 8.12009 1292.26 8.12532Z" fill="white" />
		<path opacity="0.49" d="M1325 19.6653C1324.51 19.6725 1324.02 19.5806 1323.56 19.3951C1323.11 19.2095 1322.7 18.9341 1322.35 18.5854C1322 18.2529 1321.72 17.8511 1321.53 17.4054C1321.34 16.9597 1321.24 16.4796 1321.25 15.9953C1321.25 15.5024 1321.34 15.0137 1321.53 14.5584C1321.72 14.1031 1322 13.6905 1322.35 13.3453C1322.69 12.9855 1323.1 12.7002 1323.56 12.5074C1324.01 12.3147 1324.5 12.2186 1325 12.2254C1325.49 12.219 1325.97 12.3154 1326.41 12.5084C1326.86 12.7015 1327.26 12.9867 1327.59 13.3453C1327.94 13.6919 1328.21 14.1051 1328.4 14.5604C1328.59 15.0157 1328.68 15.5037 1328.67 15.9953C1328.66 16.9671 1328.28 17.8975 1327.59 18.5846C1326.9 19.2717 1325.97 19.6601 1325 19.6653ZM1313.11 8.19535C1312.62 8.20333 1312.13 8.1118 1311.67 7.92624C1311.21 7.74068 1310.8 7.46489 1310.45 7.11535C1310.1 6.7825 1309.82 6.3807 1309.63 5.93505C1309.44 5.4894 1309.35 5.0095 1309.35 4.52535C1309.35 4.0324 1309.44 3.54369 1309.63 3.0884C1309.82 2.6331 1310.1 2.22054 1310.45 1.87535C1310.79 1.51345 1311.2 1.22619 1311.66 1.0317C1312.12 0.837214 1312.61 0.739712 1313.11 0.745348C1313.6 0.742254 1314.08 0.841259 1314.52 1.03594C1314.96 1.23061 1315.36 1.51661 1315.69 1.87535C1316.04 2.22153 1316.31 2.63472 1316.5 3.0901C1316.69 3.54548 1316.78 4.03366 1316.77 4.52535C1316.76 5.49535 1316.38 6.42429 1315.69 7.11113C1315.01 7.79797 1314.08 8.18748 1313.11 8.19535Z" fill="white" />
		<path opacity="0.22" d="M1357.75 19.6653C1357.26 19.6731 1356.77 19.5814 1356.31 19.3958C1355.86 19.2103 1355.45 18.9346 1355.1 18.5853C1354.74 18.2549 1354.46 17.8537 1354.27 17.4077C1354.08 16.9617 1353.98 16.4806 1353.99 15.9953C1353.99 15.5014 1354.08 15.0117 1354.27 14.5562C1354.46 14.1006 1354.74 13.6886 1355.1 13.3453C1355.44 12.985 1355.85 12.6994 1356.31 12.5066C1356.76 12.3137 1357.25 12.218 1357.75 12.2253C1358.23 12.2203 1358.71 12.3175 1359.16 12.5105C1359.6 12.7034 1360 12.9879 1360.33 13.3453C1360.68 13.69 1360.96 14.1026 1361.15 14.5582C1361.33 15.0138 1361.43 15.5028 1361.42 15.9953C1361.41 16.9662 1361.02 17.8952 1360.34 18.5817C1359.65 19.2683 1358.72 19.6575 1357.75 19.6653ZM1357.75 8.12532C1357.26 8.13309 1356.77 8.04144 1356.31 7.85585C1355.86 7.67026 1355.45 7.39456 1355.1 7.04531C1354.75 6.71638 1354.46 6.31695 1354.27 5.87264C1354.08 5.42833 1353.98 4.94897 1353.99 4.46532C1353.99 3.97725 1354.08 3.49345 1354.27 3.04429C1354.46 2.59514 1354.74 2.19033 1355.1 1.85532C1355.44 1.49369 1355.85 1.20651 1356.31 1.01199C1356.76 0.817473 1357.25 0.71985 1357.75 0.725315C1358.23 0.720304 1358.71 0.816463 1359.16 1.00762C1359.6 1.19877 1360 1.4807 1360.33 1.83532C1360.68 2.1762 1360.96 2.58537 1361.15 3.03765C1361.33 3.48994 1361.43 3.97578 1361.42 4.46532C1361.41 5.43369 1361.02 6.3586 1360.33 7.04247C1359.64 7.72634 1358.72 8.11496 1357.75 8.12532ZM1345.85 8.19532C1345.36 8.20309 1344.87 8.11144 1344.41 7.92585C1343.96 7.74026 1343.55 7.46456 1343.2 7.11531C1342.85 6.78359 1342.57 6.382 1342.38 5.93609C1342.19 5.49018 1342.09 5.00973 1342.1 4.52531C1342.09 4.03204 1342.19 3.54265 1342.38 3.08702C1342.57 2.6314 1342.85 2.2191 1343.2 1.87532C1343.54 1.51369 1343.95 1.22651 1344.41 1.03199C1344.86 0.837473 1345.35 0.739851 1345.85 0.745316C1346.34 0.742065 1346.82 0.840956 1347.26 1.0356C1347.71 1.23024 1348.11 1.51631 1348.44 1.87532C1348.79 2.2215 1349.06 2.63468 1349.25 3.09007C1349.44 3.54545 1349.53 4.03363 1349.52 4.52531C1349.51 5.49704 1349.13 6.42747 1348.44 7.11459C1347.75 7.80172 1346.82 8.19006 1345.85 8.19532Z" fill="white" />
		<path opacity="0.13" d="M1390.47 8.19529C1389.98 8.20249 1389.49 8.11057 1389.04 7.92501C1388.58 7.73946 1388.17 7.46407 1387.82 7.11529C1387.47 6.78357 1387.19 6.38197 1387 5.93607C1386.81 5.49016 1386.71 5.0097 1386.72 4.52529C1386.71 4.03201 1386.81 3.54262 1387 3.08699C1387.19 2.63137 1387.47 2.21908 1387.82 1.87529C1388.16 1.51415 1388.57 1.2273 1389.03 1.03281C1389.48 0.838331 1389.97 0.740432 1390.47 0.745289C1390.96 0.742039 1391.44 0.84093 1391.88 1.03557C1392.33 1.23022 1392.73 1.51628 1393.06 1.87529C1393.41 2.22147 1393.68 2.63466 1393.87 3.09004C1394.06 3.54542 1394.15 4.0336 1394.14 4.52529C1394.13 5.49701 1393.75 6.42744 1393.06 7.11457C1392.37 7.80169 1391.44 8.19004 1390.47 8.19529Z" fill="white" />
	</g>
	<defs>
		<clipPath id="clip0_195_1861">
			<rect width="1428" height="31" fill="white" transform="translate(0 0.855469)" />
		</clipPath>
	</defs>
</svg>
