<svg width="1512" height="699" viewBox="0 0 1512 699" fill="none" xmlns="http://www.w3.org/2000/svg">
<path opacity="0.2" d="M44.0615 10.168H10.1685V44.0611M44.0615 10.168V44.0611M44.0615 10.168H77.9546M44.0615 44.0611H10.1685M44.0615 44.0611V77.9542M44.0615 44.0611H77.9546M10.1685 44.0611V77.9542M44.0615 77.9542H10.1685M44.0615 77.9542V111.847M44.0615 77.9542H77.9546M10.1685 77.9542V111.847M44.0615 111.847H10.1685M44.0615 111.847V145.74M44.0615 111.847H77.9546M10.1685 111.847V145.74M44.0615 145.74H10.1685M44.0615 145.74V179.633M44.0615 145.74H77.9546M10.1685 145.74V179.633M44.0615 179.633H10.1685M44.0615 179.633V213.527M44.0615 179.633H77.9546M10.1685 179.633V213.527M44.0615 213.527H10.1685M44.0615 213.527V247.42M44.0615 213.527H77.9546M10.1685 213.527V247.42M44.0615 247.42H10.1685M44.0615 247.42V281.313M44.0615 247.42H77.9546M10.1685 247.42V281.313M44.0615 281.313H10.1685M44.0615 281.313V315.206M44.0615 281.313H77.9546M10.1685 281.313V315.206M44.0615 315.206H10.1685M44.0615 315.206V349.099M44.0615 315.206H77.9546M10.1685 315.206V349.099M44.0615 349.099H10.1685M44.0615 349.099V382.992M44.0615 349.099H77.9546M10.1685 349.099V382.992M44.0615 382.992H10.1685M44.0615 382.992V416.885M44.0615 382.992H77.9546M10.1685 382.992V416.885M44.0615 416.885H10.1685M44.0615 416.885V450.778M44.0615 416.885H77.9546M10.1685 416.885V450.778M44.0615 450.778H10.1685M44.0615 450.778V484.671M44.0615 450.778H77.9546M10.1685 450.778V484.671M44.0615 484.671H10.1685M44.0615 484.671V518.564M44.0615 484.671H77.9546M10.1685 484.671V518.564M44.0615 518.564H10.1685M44.0615 518.564V552.457M44.0615 518.564H77.9546M10.1685 518.564V552.457M44.0615 552.457H10.1685M44.0615 552.457V586.351M44.0615 552.457H77.9546M10.1685 552.457V586.351M44.0615 586.351H10.1685M44.0615 586.351V620.244M44.0615 586.351H77.9546M10.1685 586.351V620.244M44.0615 620.244H10.1685M44.0615 620.244V654.137M44.0615 620.244H77.9546M10.1685 620.244V654.137M44.0615 654.137H10.1685M44.0615 654.137V688.03M44.0615 654.137H77.9546M10.1685 654.137V688.03H44.0615M44.0615 688.03H77.9546M77.9546 10.168V44.0611M77.9546 10.168H111.848M77.9546 44.0611V77.9542M77.9546 44.0611H111.848M77.9546 77.9542V111.847M77.9546 77.9542H111.848M77.9546 111.847V145.74M77.9546 111.847H111.848M77.9546 145.74V179.633M77.9546 145.74H111.848M77.9546 179.633V213.527M77.9546 179.633H111.848M77.9546 213.527V247.42M77.9546 213.527H111.848M77.9546 247.42V281.313M77.9546 247.42H111.848M77.9546 281.313V315.206M77.9546 281.313H111.848M77.9546 315.206V349.099M77.9546 315.206H111.848M77.9546 349.099V382.992M77.9546 349.099H111.848M77.9546 382.992V416.885M77.9546 382.992H111.848M77.9546 416.885V450.778M77.9546 416.885H111.848M77.9546 450.778V484.671M77.9546 450.778H111.848M77.9546 484.671V518.564M77.9546 484.671H111.848M77.9546 518.564V552.457M77.9546 518.564H111.848M77.9546 552.457V586.351M77.9546 552.457H111.848M77.9546 586.351V620.244M77.9546 586.351H111.848M77.9546 620.244V654.137M77.9546 620.244H111.848M77.9546 654.137V688.03M77.9546 654.137H111.848M77.9546 688.03H111.848M111.848 10.168V44.0611M111.848 10.168H145.741M111.848 44.0611V77.9542M111.848 44.0611H145.741M111.848 77.9542V111.847M111.848 77.9542H145.741M111.848 111.847V145.74M111.848 111.847H145.741M111.848 145.74V179.633M111.848 145.74H145.741M111.848 179.633V213.527M111.848 179.633H145.741M111.848 213.527V247.42M111.848 213.527H145.741M111.848 247.42V281.313M111.848 247.42H145.741M111.848 281.313V315.206M111.848 281.313H145.741M111.848 315.206V349.099M111.848 315.206H145.741M111.848 349.099V382.992M111.848 349.099H145.741M111.848 382.992V416.885M111.848 382.992H145.741M111.848 416.885V450.778M111.848 416.885H145.741M111.848 450.778V484.671M111.848 450.778H145.741M111.848 484.671V518.564M111.848 484.671H145.741M111.848 518.564V552.457M111.848 518.564H145.741M111.848 552.457V586.351M111.848 552.457H145.741M111.848 586.351V620.244M111.848 586.351H145.741M111.848 620.244V654.137M111.848 620.244H145.741M111.848 654.137V688.03M111.848 654.137H145.741M111.848 688.03H145.741M145.741 10.168V44.0611M145.741 10.168H179.634M145.741 44.0611V77.9542M145.741 44.0611H179.634M145.741 77.9542V111.847M145.741 77.9542H179.634M145.741 111.847V145.74M145.741 111.847H179.634M145.741 145.74V179.633M145.741 145.74H179.634M145.741 179.633V213.527M145.741 179.633H179.634M145.741 213.527V247.42M145.741 213.527H179.634M145.741 247.42V281.313M145.741 247.42H179.634M145.741 281.313V315.206M145.741 281.313H179.634M145.741 315.206V349.099M145.741 315.206H179.634M145.741 349.099V382.992M145.741 349.099H179.634M145.741 382.992V416.885M145.741 382.992H179.634M145.741 416.885V450.778M145.741 416.885H179.634M145.741 450.778V484.671M145.741 450.778H179.634M145.741 484.671V518.564M145.741 484.671H179.634M145.741 518.564V552.457M145.741 518.564H179.634M145.741 552.457V586.351M145.741 552.457H179.634M145.741 586.351V620.244M145.741 586.351H179.634M145.741 620.244V654.137M145.741 620.244H179.634M145.741 654.137V688.03M145.741 654.137H179.634M145.741 688.03H179.634M179.634 10.168V44.0611M179.634 10.168H213.527M179.634 44.0611V77.9542M179.634 44.0611H213.527M179.634 77.9542V111.847M179.634 77.9542H213.527M179.634 111.847V145.74M179.634 111.847H213.527M179.634 145.74V179.633M179.634 145.74H213.527M179.634 179.633V213.527M179.634 179.633H213.527M179.634 213.527V247.42M179.634 213.527H213.527M179.634 247.42V281.313M179.634 247.42H213.527M179.634 281.313V315.206M179.634 281.313H213.527M179.634 315.206V349.099M179.634 315.206H213.527M179.634 349.099V382.992M179.634 349.099H213.527M179.634 382.992V416.885M179.634 382.992H213.527M179.634 416.885V450.778M179.634 416.885H213.527M179.634 450.778V484.671M179.634 450.778H213.527M179.634 484.671V518.564M179.634 484.671H213.527M179.634 518.564V552.457M179.634 518.564H213.527M179.634 552.457V586.351M179.634 552.457H213.527M179.634 586.351V620.244M179.634 586.351H213.527M179.634 620.244V654.137M179.634 620.244H213.527M179.634 654.137V688.03M179.634 654.137H213.527M179.634 688.03H213.527M213.527 10.168V44.0611M213.527 10.168H247.42M213.527 44.0611V77.9542M213.527 44.0611H247.42M213.527 77.9542V111.847M213.527 77.9542H247.42M213.527 111.847V145.74M213.527 111.847H247.42M213.527 145.74V179.633M213.527 145.74H247.42M213.527 179.633V213.527M213.527 179.633H247.42M213.527 213.527V247.42M213.527 213.527H247.42M213.527 247.42V281.313M213.527 247.42H247.42M213.527 281.313V315.206M213.527 281.313H247.42M213.527 315.206V349.099M213.527 315.206H247.42M213.527 349.099V382.992M213.527 349.099H247.42M213.527 382.992V416.885M213.527 382.992H247.42M213.527 416.885V450.778M213.527 416.885H247.42M213.527 450.778V484.671M213.527 450.778H247.42M213.527 484.671V518.564M213.527 484.671H247.42M213.527 518.564V552.457M213.527 518.564H247.42M213.527 552.457V586.351M213.527 552.457H247.42M213.527 586.351V620.244M213.527 586.351H247.42M213.527 620.244V654.137M213.527 620.244H247.42M213.527 654.137V688.03M213.527 654.137H247.42M213.527 688.03H247.42M247.42 10.168V44.0611M247.42 10.168H281.313M247.42 44.0611V77.9542M247.42 44.0611H281.313M247.42 77.9542V111.847M247.42 77.9542H281.313M247.42 111.847V145.74M247.42 111.847H281.313M247.42 145.74V179.633M247.42 145.74H281.313M247.42 179.633V213.527M247.42 179.633H281.313M247.42 213.527V247.42M247.42 213.527H281.313M247.42 247.42V281.313M247.42 247.42H281.313M247.42 281.313V315.206M247.42 281.313H281.313M247.42 315.206V349.099M247.42 315.206H281.313M247.42 349.099V382.992M247.42 349.099H281.313M247.42 382.992V416.885M247.42 382.992H281.313M247.42 416.885V450.778M247.42 416.885H281.313M247.42 450.778V484.671M247.42 450.778H281.313M247.42 484.671V518.564M247.42 484.671H281.313M247.42 518.564V552.457M247.42 518.564H281.313M247.42 552.457V586.351M247.42 552.457H281.313M247.42 586.351V620.244M247.42 586.351H281.313M247.42 620.244V654.137M247.42 620.244H281.313M247.42 654.137V688.03M247.42 654.137H281.313M247.42 688.03H281.313M281.313 10.168V44.0611M281.313 10.168H315.206M281.313 44.0611V77.9542M281.313 44.0611H315.206M281.313 77.9542V111.847M281.313 77.9542H315.206M281.313 111.847V145.74M281.313 111.847H315.206M281.313 145.74V179.633M281.313 145.74H315.206M281.313 179.633V213.527M281.313 179.633H315.206M281.313 213.527V247.42M281.313 213.527H315.206M281.313 247.42V281.313M281.313 247.42H315.206M281.313 281.313V315.206M281.313 281.313H315.206M281.313 315.206V349.099M281.313 315.206H315.206M281.313 349.099V382.992M281.313 349.099H315.206M281.313 382.992V416.885M281.313 382.992H315.206M281.313 416.885V450.778M281.313 416.885H315.206M281.313 450.778V484.671M281.313 450.778H315.206M281.313 484.671V518.564M281.313 484.671H315.206M281.313 518.564V552.457M281.313 518.564H315.206M281.313 552.457V586.351M281.313 552.457H315.206M281.313 586.351V620.244M281.313 586.351H315.206M281.313 620.244V654.137M281.313 620.244H315.206M281.313 654.137V688.03M281.313 654.137H315.206M281.313 688.03H315.206M315.206 10.168V44.0611M315.206 10.168H349.099M315.206 44.0611V77.9542M315.206 44.0611H349.099M315.206 77.9542V111.847M315.206 77.9542H349.099M315.206 111.847V145.74M315.206 111.847H349.099M315.206 145.74V179.633M315.206 145.74H349.099M315.206 179.633V213.527M315.206 179.633H349.099M315.206 213.527V247.42M315.206 213.527H349.099M315.206 247.42V281.313M315.206 247.42H349.099M315.206 281.313V315.206M315.206 281.313H349.099M315.206 315.206V349.099M315.206 315.206H349.099M315.206 349.099V382.992M315.206 349.099H349.099M315.206 382.992V416.885M315.206 382.992H349.099M315.206 416.885V450.778M315.206 416.885H349.099M315.206 450.778V484.671M315.206 450.778H349.099M315.206 484.671V518.564M315.206 484.671H349.099M315.206 518.564V552.457M315.206 518.564H349.099M315.206 552.457V586.351M315.206 552.457H349.099M315.206 586.351V620.244M315.206 586.351H349.099M315.206 620.244V654.137M315.206 620.244H349.099M315.206 654.137V688.03M315.206 654.137H349.099M315.206 688.03H349.099M349.099 10.168V44.0611M349.099 10.168H382.992M349.099 44.0611V77.9542M349.099 44.0611H382.992M349.099 77.9542V111.847M349.099 77.9542H382.992M349.099 111.847V145.74M349.099 111.847H382.992M349.099 145.74V179.633M349.099 145.74H382.992M349.099 179.633V213.527M349.099 179.633H382.992M349.099 213.527V247.42M349.099 213.527H382.992M349.099 247.42V281.313M349.099 247.42H382.992M349.099 281.313V315.206M349.099 281.313H382.992M349.099 315.206V349.099M349.099 315.206H382.992M349.099 349.099V382.992M349.099 349.099H382.992M349.099 382.992V416.885M349.099 382.992H382.992M349.099 416.885V450.778M349.099 416.885H382.992M349.099 450.778V484.671M349.099 450.778H382.992M349.099 484.671V518.564M349.099 484.671H382.992M349.099 518.564V552.457M349.099 518.564H382.992M349.099 552.457V586.351M349.099 552.457H382.992M349.099 586.351V620.244M349.099 586.351H382.992M349.099 620.244V654.137M349.099 620.244H382.992M349.099 654.137V688.03M349.099 654.137H382.992M349.099 688.03H382.992M382.992 10.168V44.0611M382.992 10.168H416.886M382.992 44.0611V77.9542M382.992 44.0611H416.886M382.992 77.9542V111.847M382.992 77.9542H416.886M382.992 111.847V145.74M382.992 111.847H416.886M382.992 145.74V179.633M382.992 145.74H416.886M382.992 179.633V213.527M382.992 179.633H416.886M382.992 213.527V247.42M382.992 213.527H416.886M382.992 247.42V281.313M382.992 247.42H416.886M382.992 281.313V315.206M382.992 281.313H416.886M382.992 315.206V349.099M382.992 315.206H416.886M382.992 349.099V382.992M382.992 349.099H416.886M382.992 382.992V416.885M382.992 382.992H416.886M382.992 416.885V450.778M382.992 416.885H416.886M382.992 450.778V484.671M382.992 450.778H416.886M382.992 484.671V518.564M382.992 484.671H416.886M382.992 518.564V552.457M382.992 518.564H416.886M382.992 552.457V586.351M382.992 552.457H416.886M382.992 586.351V620.244M382.992 586.351H416.886M382.992 620.244V654.137M382.992 620.244H416.886M382.992 654.137V688.03M382.992 654.137H416.886M382.992 688.03H416.886M416.886 10.168V44.0611M416.886 10.168H450.779M416.886 44.0611V77.9542M416.886 44.0611H450.779M416.886 77.9542V111.847M416.886 77.9542H450.779M416.886 111.847V145.74M416.886 111.847H450.779M416.886 145.74V179.633M416.886 145.74H450.779M416.886 179.633V213.527M416.886 179.633H450.779M416.886 213.527V247.42M416.886 213.527H450.779M416.886 247.42V281.313M416.886 247.42H450.779M416.886 281.313V315.206M416.886 281.313H450.779M416.886 315.206V349.099M416.886 315.206H450.779M416.886 349.099V382.992M416.886 349.099H450.779M416.886 382.992V416.885M416.886 382.992H450.779M416.886 416.885V450.778M416.886 416.885H450.779M416.886 450.778V484.671M416.886 450.778H450.779M416.886 484.671V518.564M416.886 484.671H450.779M416.886 518.564V552.457M416.886 518.564H450.779M416.886 552.457V586.351M416.886 552.457H450.779M416.886 586.351V620.244M416.886 586.351H450.779M416.886 620.244V654.137M416.886 620.244H450.779M416.886 654.137V688.03M416.886 654.137H450.779M416.886 688.03H450.779M450.779 10.168V44.0611M450.779 10.168H484.672M450.779 44.0611V77.9542M450.779 44.0611H484.672M450.779 77.9542V111.847M450.779 77.9542H484.672M450.779 111.847V145.74M450.779 111.847H484.672M450.779 145.74V179.633M450.779 145.74H484.672M450.779 179.633V213.527M450.779 179.633H484.672M450.779 213.527V247.42M450.779 213.527H484.672M450.779 247.42V281.313M450.779 247.42H484.672M450.779 281.313V315.206M450.779 281.313H484.672M450.779 315.206V349.099M450.779 315.206H484.672M450.779 349.099V382.992M450.779 349.099H484.672M450.779 382.992V416.885M450.779 382.992H484.672M450.779 416.885V450.778M450.779 416.885H484.672M450.779 450.778V484.671M450.779 450.778H484.672M450.779 484.671V518.564M450.779 484.671H484.672M450.779 518.564V552.457M450.779 518.564H484.672M450.779 552.457V586.351M450.779 552.457H484.672M450.779 586.351V620.244M450.779 586.351H484.672M450.779 620.244V654.137M450.779 620.244H484.672M450.779 654.137V688.03M450.779 654.137H484.672M450.779 688.03H484.672M484.672 10.168V44.0611M484.672 10.168H518.565M484.672 44.0611V77.9542M484.672 44.0611H518.565M484.672 77.9542V111.847M484.672 77.9542H518.565M484.672 111.847V145.74M484.672 111.847H518.565M484.672 145.74V179.633M484.672 145.74H518.565M484.672 179.633V213.527M484.672 179.633H518.565M484.672 213.527V247.42M484.672 213.527H518.565M484.672 247.42V281.313M484.672 247.42H518.565M484.672 281.313V315.206M484.672 281.313H518.565M484.672 315.206V349.099M484.672 315.206H518.565M484.672 349.099V382.992M484.672 349.099H518.565M484.672 382.992V416.885M484.672 382.992H518.565M484.672 416.885V450.778M484.672 416.885H518.565M484.672 450.778V484.671M484.672 450.778H518.565M484.672 484.671V518.564M484.672 484.671H518.565M484.672 518.564V552.457M484.672 518.564H518.565M484.672 552.457V586.351M484.672 552.457H518.565M484.672 586.351V620.244M484.672 586.351H518.565M484.672 620.244V654.137M484.672 620.244H518.565M484.672 654.137V688.03M484.672 654.137H518.565M484.672 688.03H518.565M518.565 10.168V44.0611M518.565 10.168H552.458M518.565 44.0611V77.9542M518.565 44.0611H552.458M518.565 77.9542V111.847M518.565 77.9542H552.458M518.565 111.847V145.74M518.565 111.847H552.458M518.565 145.74V179.633M518.565 145.74H552.458M518.565 179.633V213.527M518.565 179.633H552.458M518.565 213.527V247.42M518.565 213.527H552.458M518.565 247.42V281.313M518.565 247.42H552.458M518.565 281.313V315.206M518.565 281.313H552.458M518.565 315.206V349.099M518.565 315.206H552.458M518.565 349.099V382.992M518.565 349.099H552.458M518.565 382.992V416.885M518.565 382.992H552.458M518.565 416.885V450.778M518.565 416.885H552.458M518.565 450.778V484.671M518.565 450.778H552.458M518.565 484.671V518.564M518.565 484.671H552.458M518.565 518.564V552.457M518.565 518.564H552.458M518.565 552.457V586.351M518.565 552.457H552.458M518.565 586.351V620.244M518.565 586.351H552.458M518.565 620.244V654.137M518.565 620.244H552.458M518.565 654.137V688.03M518.565 654.137H552.458M518.565 688.03H552.458M552.458 10.168V44.0611M552.458 10.168H586.351M552.458 44.0611V77.9542M552.458 44.0611H586.351M552.458 77.9542V111.847M552.458 77.9542H586.351M552.458 111.847V145.74M552.458 111.847H586.351M552.458 145.74V179.633M552.458 145.74H586.351M552.458 179.633V213.527M552.458 179.633H586.351M552.458 213.527V247.42M552.458 213.527H586.351M552.458 247.42V281.313M552.458 247.42H586.351M552.458 281.313V315.206M552.458 281.313H586.351M552.458 315.206V349.099M552.458 315.206H586.351M552.458 349.099V382.992M552.458 349.099H586.351M552.458 382.992V416.885M552.458 382.992H586.351M552.458 416.885V450.778M552.458 416.885H586.351M552.458 450.778V484.671M552.458 450.778H586.351M552.458 484.671V518.564M552.458 484.671H586.351M552.458 518.564V552.457M552.458 518.564H586.351M552.458 552.457V586.351M552.458 552.457H586.351M552.458 586.351V620.244M552.458 586.351H586.351M552.458 620.244V654.137M552.458 620.244H586.351M552.458 654.137V688.03M552.458 654.137H586.351M552.458 688.03H586.351M586.351 10.168V44.0611M586.351 10.168H620.244M586.351 44.0611V77.9542M586.351 44.0611H620.244M586.351 77.9542V111.847M586.351 77.9542H620.244M586.351 111.847V145.74M586.351 111.847H620.244M586.351 145.74V179.633M586.351 145.74H620.244M586.351 179.633V213.527M586.351 179.633H620.244M586.351 213.527V247.42M586.351 213.527H620.244M586.351 247.42V281.313M586.351 247.42H620.244M586.351 281.313V315.206M586.351 281.313H620.244M586.351 315.206V349.099M586.351 315.206H620.244M586.351 349.099V382.992M586.351 349.099H620.244M586.351 382.992V416.885M586.351 382.992H620.244M586.351 416.885V450.778M586.351 416.885H620.244M586.351 450.778V484.671M586.351 450.778H620.244M586.351 484.671V518.564M586.351 484.671H620.244M586.351 518.564V552.457M586.351 518.564H620.244M586.351 552.457V586.351M586.351 552.457H620.244M586.351 586.351V620.244M586.351 586.351H620.244M586.351 620.244V654.137M586.351 620.244H620.244M586.351 654.137V688.03M586.351 654.137H620.244M586.351 688.03H620.244M620.244 10.168V44.0611M620.244 10.168H654.137M620.244 44.0611V77.9542M620.244 44.0611H654.137M620.244 77.9542V111.847M620.244 77.9542H654.137M620.244 111.847V145.74M620.244 111.847H654.137M620.244 145.74V179.633M620.244 145.74H654.137M620.244 179.633V213.527M620.244 179.633H654.137M620.244 213.527V247.42M620.244 213.527H654.137M620.244 247.42V281.313M620.244 247.42H654.137M620.244 281.313V315.206M620.244 281.313H654.137M620.244 315.206V349.099M620.244 315.206H654.137M620.244 349.099V382.992M620.244 349.099H654.137M620.244 382.992V416.885M620.244 382.992H654.137M620.244 416.885V450.778M620.244 416.885H654.137M620.244 450.778V484.671M620.244 450.778H654.137M620.244 484.671V518.564M620.244 484.671H654.137M620.244 518.564V552.457M620.244 518.564H654.137M620.244 552.457V586.351M620.244 552.457H654.137M620.244 586.351V620.244M620.244 586.351H654.137M620.244 620.244V654.137M620.244 620.244H654.137M620.244 654.137V688.03M620.244 654.137H654.137M620.244 688.03H654.137M654.137 10.168V44.0611M654.137 10.168H688.03M654.137 44.0611V77.9542M654.137 44.0611H688.03M654.137 77.9542V111.847M654.137 77.9542H688.03M654.137 111.847V145.74M654.137 111.847H688.03M654.137 145.74V179.633M654.137 145.74H688.03M654.137 179.633V213.527M654.137 179.633H688.03M654.137 213.527V247.42M654.137 213.527H688.03M654.137 247.42V281.313M654.137 247.42H688.03M654.137 281.313V315.206M654.137 281.313H688.03M654.137 315.206V349.099M654.137 315.206H688.03M654.137 349.099V382.992M654.137 349.099H688.03M654.137 382.992V416.885M654.137 382.992H688.03M654.137 416.885V450.778M654.137 416.885H688.03M654.137 450.778V484.671M654.137 450.778H688.03M654.137 484.671V518.564M654.137 484.671H688.03M654.137 518.564V552.457M654.137 518.564H688.03M654.137 552.457V586.351M654.137 552.457H688.03M654.137 586.351V620.244M654.137 586.351H688.03M654.137 620.244V654.137M654.137 620.244H688.03M654.137 654.137V688.03M654.137 654.137H688.03M654.137 688.03H688.03M688.03 10.168V44.0611M688.03 10.168H721.923M688.03 44.0611V77.9542M688.03 44.0611H721.923M688.03 77.9542V111.847M688.03 77.9542H721.923M688.03 111.847V145.74M688.03 111.847H721.923M688.03 145.74V179.633M688.03 145.74H721.923M688.03 179.633V213.527M688.03 179.633H721.923M688.03 213.527V247.42M688.03 213.527H721.923M688.03 247.42V281.313M688.03 247.42H721.923M688.03 281.313V315.206M688.03 281.313H721.923M688.03 315.206V349.099M688.03 315.206H721.923M688.03 349.099V382.992M688.03 349.099H721.923M688.03 382.992V416.885M688.03 382.992H721.923M688.03 416.885V450.778M688.03 416.885H721.923M688.03 450.778V484.671M688.03 450.778H721.923M688.03 484.671V518.564M688.03 484.671H721.923M688.03 518.564V552.457M688.03 518.564H721.923M688.03 552.457V586.351M688.03 552.457H721.923M688.03 586.351V620.244M688.03 586.351H721.923M688.03 620.244V654.137M688.03 620.244H721.923M688.03 654.137V688.03M688.03 654.137H721.923M688.03 688.03H721.923M721.923 10.168V44.0611M721.923 10.168H755.816M721.923 44.0611V77.9542M721.923 44.0611H755.816M721.923 77.9542V111.847M721.923 77.9542H755.816M721.923 111.847V145.74M721.923 111.847H755.816M721.923 145.74V179.633M721.923 145.74H755.816M721.923 179.633V213.527M721.923 179.633H755.816M721.923 213.527V247.42M721.923 213.527H755.816M721.923 247.42V281.313M721.923 247.42H755.816M721.923 281.313V315.206M721.923 281.313H755.816M721.923 315.206V349.099M721.923 315.206H755.816M721.923 349.099V382.992M721.923 349.099H755.816M721.923 382.992V416.885M721.923 382.992H755.816M721.923 416.885V450.778M721.923 416.885H755.816M721.923 450.778V484.671M721.923 450.778H755.816M721.923 484.671V518.564M721.923 484.671H755.816M721.923 518.564V552.457M721.923 518.564H755.816M721.923 552.457V586.351M721.923 552.457H755.816M721.923 586.351V620.244M721.923 586.351H755.816M721.923 620.244V654.137M721.923 620.244H755.816M721.923 654.137V688.03M721.923 654.137H755.816M721.923 688.03H755.816M755.816 10.168V44.0611M755.816 10.168H789.71M755.816 44.0611V77.9542M755.816 44.0611H789.71M755.816 77.9542V111.847M755.816 77.9542H789.71M755.816 111.847V145.74M755.816 111.847H789.71M755.816 145.74V179.633M755.816 145.74H789.71M755.816 179.633V213.527M755.816 179.633H789.71M755.816 213.527V247.42M755.816 213.527H789.71M755.816 247.42V281.313M755.816 247.42H789.71M755.816 281.313V315.206M755.816 281.313H789.71M755.816 315.206V349.099M755.816 315.206H789.71M755.816 349.099V382.992M755.816 349.099H789.71M755.816 382.992V416.885M755.816 382.992H789.71M755.816 416.885V450.778M755.816 416.885H789.71M755.816 450.778V484.671M755.816 450.778H789.71M755.816 484.671V518.564M755.816 484.671H789.71M755.816 518.564V552.457M755.816 518.564H789.71M755.816 552.457V586.351M755.816 552.457H789.71M755.816 586.351V620.244M755.816 586.351H789.71M755.816 620.244V654.137M755.816 620.244H789.71M755.816 654.137V688.03M755.816 654.137H789.71M755.816 688.03H789.71M789.71 10.168V44.0611M789.71 10.168H823.603M789.71 44.0611V77.9542M789.71 44.0611H823.603M789.71 77.9542V111.847M789.71 77.9542H823.603M789.71 111.847V145.74M789.71 111.847H823.603M789.71 145.74V179.633M789.71 145.74H823.603M789.71 179.633V213.527M789.71 179.633H823.603M789.71 213.527V247.42M789.71 213.527H823.603M789.71 247.42V281.313M789.71 247.42H823.603M789.71 281.313V315.206M789.71 281.313H823.603M789.71 315.206V349.099M789.71 315.206H823.603M789.71 349.099V382.992M789.71 349.099H823.603M789.71 382.992V416.885M789.71 382.992H823.603M789.71 416.885V450.778M789.71 416.885H823.603M789.71 450.778V484.671M789.71 450.778H823.603M789.71 484.671V518.564M789.71 484.671H823.603M789.71 518.564V552.457M789.71 518.564H823.603M789.71 552.457V586.351M789.71 552.457H823.603M789.71 586.351V620.244M789.71 586.351H823.603M789.71 620.244V654.137M789.71 620.244H823.603M789.71 654.137V688.03M789.71 654.137H823.603M789.71 688.03H823.603M823.603 10.168V44.0611M823.603 10.168H857.496M823.603 44.0611V77.9542M823.603 44.0611H857.496M823.603 77.9542V111.847M823.603 77.9542H857.496M823.603 111.847V145.74M823.603 111.847H857.496M823.603 145.74V179.633M823.603 145.74H857.496M823.603 179.633V213.527M823.603 179.633H857.496M823.603 213.527V247.42M823.603 213.527H857.496M823.603 247.42V281.313M823.603 247.42H857.496M823.603 281.313V315.206M823.603 281.313H857.496M823.603 315.206V349.099M823.603 315.206H857.496M823.603 349.099V382.992M823.603 349.099H857.496M823.603 382.992V416.885M823.603 382.992H857.496M823.603 416.885V450.778M823.603 416.885H857.496M823.603 450.778V484.671M823.603 450.778H857.496M823.603 484.671V518.564M823.603 484.671H857.496M823.603 518.564V552.457M823.603 518.564H857.496M823.603 552.457V586.351M823.603 552.457H857.496M823.603 586.351V620.244M823.603 586.351H857.496M823.603 620.244V654.137M823.603 620.244H857.496M823.603 654.137V688.03M823.603 654.137H857.496M823.603 688.03H857.496M857.496 10.168V44.0611M857.496 10.168H891.389M857.496 44.0611V77.9542M857.496 44.0611H891.389M857.496 77.9542V111.847M857.496 77.9542H891.389M857.496 111.847V145.74M857.496 111.847H891.389M857.496 145.74V179.633M857.496 145.74H891.389M857.496 179.633V213.527M857.496 179.633H891.389M857.496 213.527V247.42M857.496 213.527H891.389M857.496 247.42V281.313M857.496 247.42H891.389M857.496 281.313V315.206M857.496 281.313H891.389M857.496 315.206V349.099M857.496 315.206H891.389M857.496 349.099V382.992M857.496 349.099H891.389M857.496 382.992V416.885M857.496 382.992H891.389M857.496 416.885V450.778M857.496 416.885H891.389M857.496 450.778V484.671M857.496 450.778H891.389M857.496 484.671V518.564M857.496 484.671H891.389M857.496 518.564V552.457M857.496 518.564H891.389M857.496 552.457V586.351M857.496 552.457H891.389M857.496 586.351V620.244M857.496 586.351H891.389M857.496 620.244V654.137M857.496 620.244H891.389M857.496 654.137V688.03M857.496 654.137H891.389M857.496 688.03H891.389M891.389 10.168V44.0611M891.389 10.168H925.282M891.389 44.0611V77.9542M891.389 44.0611H925.282M891.389 77.9542V111.847M891.389 77.9542H925.282M891.389 111.847V145.74M891.389 111.847H925.282M891.389 145.74V179.633M891.389 145.74H925.282M891.389 179.633V213.527M891.389 179.633H925.282M891.389 213.527V247.42M891.389 213.527H925.282M891.389 247.42V281.313M891.389 247.42H925.282M891.389 281.313V315.206M891.389 281.313H925.282M891.389 315.206V349.099M891.389 315.206H925.282M891.389 349.099V382.992M891.389 349.099H925.282M891.389 382.992V416.885M891.389 382.992H925.282M891.389 416.885V450.778M891.389 416.885H925.282M891.389 450.778V484.671M891.389 450.778H925.282M891.389 484.671V518.564M891.389 484.671H925.282M891.389 518.564V552.457M891.389 518.564H925.282M891.389 552.457V586.351M891.389 552.457H925.282M891.389 586.351V620.244M891.389 586.351H925.282M891.389 620.244V654.137M891.389 620.244H925.282M891.389 654.137V688.03M891.389 654.137H925.282M891.389 688.03H925.282M925.282 10.168V44.0611M925.282 10.168H959.175M925.282 44.0611V77.9542M925.282 44.0611H959.175M925.282 77.9542V111.847M925.282 77.9542H959.175M925.282 111.847V145.74M925.282 111.847H959.175M925.282 145.74V179.633M925.282 145.74H959.175M925.282 179.633V213.527M925.282 179.633H959.175M925.282 213.527V247.42M925.282 213.527H959.175M925.282 247.42V281.313M925.282 247.42H959.175M925.282 281.313V315.206M925.282 281.313H959.175M925.282 315.206V349.099M925.282 315.206H959.175M925.282 349.099V382.992M925.282 349.099H959.175M925.282 382.992V416.885M925.282 382.992H959.175M925.282 416.885V450.778M925.282 416.885H959.175M925.282 450.778V484.671M925.282 450.778H959.175M925.282 484.671V518.564M925.282 484.671H959.175M925.282 518.564V552.457M925.282 518.564H959.175M925.282 552.457V586.351M925.282 552.457H959.175M925.282 586.351V620.244M925.282 586.351H959.175M925.282 620.244V654.137M925.282 620.244H959.175M925.282 654.137V688.03M925.282 654.137H959.175M925.282 688.03H959.175M959.175 10.168V44.0611M959.175 10.168H993.068M959.175 44.0611V77.9542M959.175 44.0611H993.068M959.175 77.9542V111.847M959.175 77.9542H993.068M959.175 111.847V145.74M959.175 111.847H993.068M959.175 145.74V179.633M959.175 145.74H993.068M959.175 179.633V213.527M959.175 179.633H993.068M959.175 213.527V247.42M959.175 213.527H993.068M959.175 247.42V281.313M959.175 247.42H993.068M959.175 281.313V315.206M959.175 281.313H993.068M959.175 315.206V349.099M959.175 315.206H993.068M959.175 349.099V382.992M959.175 349.099H993.068M959.175 382.992V416.885M959.175 382.992H993.068M959.175 416.885V450.778M959.175 416.885H993.068M959.175 450.778V484.671M959.175 450.778H993.068M959.175 484.671V518.564M959.175 484.671H993.068M959.175 518.564V552.457M959.175 518.564H993.068M959.175 552.457V586.351M959.175 552.457H993.068M959.175 586.351V620.244M959.175 586.351H993.068M959.175 620.244V654.137M959.175 620.244H993.068M959.175 654.137V688.03M959.175 654.137H993.068M959.175 688.03H993.068M993.068 10.168V44.0611M993.068 10.168H1026.96M993.068 44.0611V77.9542M993.068 44.0611H1026.96M993.068 77.9542V111.847M993.068 77.9542H1026.96M993.068 111.847V145.74M993.068 111.847H1026.96M993.068 145.74V179.633M993.068 145.74H1026.96M993.068 179.633V213.527M993.068 179.633H1026.96M993.068 213.527V247.42M993.068 213.527H1026.96M993.068 247.42V281.313M993.068 247.42H1026.96M993.068 281.313V315.206M993.068 281.313H1026.96M993.068 315.206V349.099M993.068 315.206H1026.96M993.068 349.099V382.992M993.068 349.099H1026.96M993.068 382.992V416.885M993.068 382.992H1026.96M993.068 416.885V450.778M993.068 416.885H1026.96M993.068 450.778V484.671M993.068 450.778H1026.96M993.068 484.671V518.564M993.068 484.671H1026.96M993.068 518.564V552.457M993.068 518.564H1026.96M993.068 552.457V586.351M993.068 552.457H1026.96M993.068 586.351V620.244M993.068 586.351H1026.96M993.068 620.244V654.137M993.068 620.244H1026.96M993.068 654.137V688.03M993.068 654.137H1026.96M993.068 688.03H1026.96M1026.96 10.168V44.0611M1026.96 10.168H1060.85M1026.96 44.0611V77.9542M1026.96 44.0611H1060.85M1026.96 77.9542V111.847M1026.96 77.9542H1060.85M1026.96 111.847V145.74M1026.96 111.847H1060.85M1026.96 145.74V179.633M1026.96 145.74H1060.85M1026.96 179.633V213.527M1026.96 179.633H1060.85M1026.96 213.527V247.42M1026.96 213.527H1060.85M1026.96 247.42V281.313M1026.96 247.42H1060.85M1026.96 281.313V315.206M1026.96 281.313H1060.85M1026.96 315.206V349.099M1026.96 315.206H1060.85M1026.96 349.099V382.992M1026.96 349.099H1060.85M1026.96 382.992V416.885M1026.96 382.992H1060.85M1026.96 416.885V450.778M1026.96 416.885H1060.85M1026.96 450.778V484.671M1026.96 450.778H1060.85M1026.96 484.671V518.564M1026.96 484.671H1060.85M1026.96 518.564V552.457M1026.96 518.564H1060.85M1026.96 552.457V586.351M1026.96 552.457H1060.85M1026.96 586.351V620.244M1026.96 586.351H1060.85M1026.96 620.244V654.137M1026.96 620.244H1060.85M1026.96 654.137V688.03M1026.96 654.137H1060.85M1026.96 688.03H1060.85M1060.85 10.168V44.0611M1060.85 10.168H1094.75M1060.85 44.0611V77.9542M1060.85 44.0611H1094.75M1060.85 77.9542V111.847M1060.85 77.9542H1094.75M1060.85 111.847V145.74M1060.85 111.847H1094.75M1060.85 145.74V179.633M1060.85 145.74H1094.75M1060.85 179.633V213.527M1060.85 179.633H1094.75M1060.85 213.527V247.42M1060.85 213.527H1094.75M1060.85 247.42V281.313M1060.85 247.42H1094.75M1060.85 281.313V315.206M1060.85 281.313H1094.75M1060.85 315.206V349.099M1060.85 315.206H1094.75M1060.85 349.099V382.992M1060.85 349.099H1094.75M1060.85 382.992V416.885M1060.85 382.992H1094.75M1060.85 416.885V450.778M1060.85 416.885H1094.75M1060.85 450.778V484.671M1060.85 450.778H1094.75M1060.85 484.671V518.564M1060.85 484.671H1094.75M1060.85 518.564V552.457M1060.85 518.564H1094.75M1060.85 552.457V586.351M1060.85 552.457H1094.75M1060.85 586.351V620.244M1060.85 586.351H1094.75M1060.85 620.244V654.137M1060.85 620.244H1094.75M1060.85 654.137V688.03M1060.85 654.137H1094.75M1060.85 688.03H1094.75M1094.75 10.168V44.0611M1094.75 10.168H1128.64M1094.75 44.0611V77.9542M1094.75 44.0611H1128.64M1094.75 77.9542V111.847M1094.75 77.9542H1128.64M1094.75 111.847V145.74M1094.75 111.847H1128.64M1094.75 145.74V179.633M1094.75 145.74H1128.64M1094.75 179.633V213.527M1094.75 179.633H1128.64M1094.75 213.527V247.42M1094.75 213.527H1128.64M1094.75 247.42V281.313M1094.75 247.42H1128.64M1094.75 281.313V315.206M1094.75 281.313H1128.64M1094.75 315.206V349.099M1094.75 315.206H1128.64M1094.75 349.099V382.992M1094.75 349.099H1128.64M1094.75 382.992V416.885M1094.75 382.992H1128.64M1094.75 416.885V450.778M1094.75 416.885H1128.64M1094.75 450.778V484.671M1094.75 450.778H1128.64M1094.75 484.671V518.564M1094.75 484.671H1128.64M1094.75 518.564V552.457M1094.75 518.564H1128.64M1094.75 552.457V586.351M1094.75 552.457H1128.64M1094.75 586.351V620.244M1094.75 586.351H1128.64M1094.75 620.244V654.137M1094.75 620.244H1128.64M1094.75 654.137V688.03M1094.75 654.137H1128.64M1094.75 688.03H1128.64M1128.64 10.168V44.0611M1128.64 10.168H1162.53M1128.64 44.0611V77.9542M1128.64 44.0611H1162.53M1128.64 77.9542V111.847M1128.64 77.9542H1162.53M1128.64 111.847V145.74M1128.64 111.847H1162.53M1128.64 145.74V179.633M1128.64 145.74H1162.53M1128.64 179.633V213.527M1128.64 179.633H1162.53M1128.64 213.527V247.42M1128.64 213.527H1162.53M1128.64 247.42V281.313M1128.64 247.42H1162.53M1128.64 281.313V315.206M1128.64 281.313H1162.53M1128.64 315.206V349.099M1128.64 315.206H1162.53M1128.64 349.099V382.992M1128.64 349.099H1162.53M1128.64 382.992V416.885M1128.64 382.992H1162.53M1128.64 416.885V450.778M1128.64 416.885H1162.53M1128.64 450.778V484.671M1128.64 450.778H1162.53M1128.64 484.671V518.564M1128.64 484.671H1162.53M1128.64 518.564V552.457M1128.64 518.564H1162.53M1128.64 552.457V586.351M1128.64 552.457H1162.53M1128.64 586.351V620.244M1128.64 586.351H1162.53M1128.64 620.244V654.137M1128.64 620.244H1162.53M1128.64 654.137V688.03M1128.64 654.137H1162.53M1128.64 688.03H1162.53M1162.53 10.168V44.0611M1162.53 10.168H1196.43M1162.53 44.0611V77.9542M1162.53 44.0611H1196.43M1162.53 77.9542V111.847M1162.53 77.9542H1196.43M1162.53 111.847V145.74M1162.53 111.847H1196.43M1162.53 145.74V179.633M1162.53 145.74H1196.43M1162.53 179.633V213.527M1162.53 179.633H1196.43M1162.53 213.527V247.42M1162.53 213.527H1196.43M1162.53 247.42V281.313M1162.53 247.42H1196.43M1162.53 281.313V315.206M1162.53 281.313H1196.43M1162.53 315.206V349.099M1162.53 315.206H1196.43M1162.53 349.099V382.992M1162.53 349.099H1196.43M1162.53 382.992V416.885M1162.53 382.992H1196.43M1162.53 416.885V450.778M1162.53 416.885H1196.43M1162.53 450.778V484.671M1162.53 450.778H1196.43M1162.53 484.671V518.564M1162.53 484.671H1196.43M1162.53 518.564V552.457M1162.53 518.564H1196.43M1162.53 552.457V586.351M1162.53 552.457H1196.43M1162.53 586.351V620.244M1162.53 586.351H1196.43M1162.53 620.244V654.137M1162.53 620.244H1196.43M1162.53 654.137V688.03M1162.53 654.137H1196.43M1162.53 688.03H1196.43M1196.43 10.168V44.0611M1196.43 10.168H1230.32M1196.43 44.0611V77.9542M1196.43 44.0611H1230.32M1196.43 77.9542V111.847M1196.43 77.9542H1230.32M1196.43 111.847V145.74M1196.43 111.847H1230.32M1196.43 145.74V179.633M1196.43 145.74H1230.32M1196.43 179.633V213.527M1196.43 179.633H1230.32M1196.43 213.527V247.42M1196.43 213.527H1230.32M1196.43 247.42V281.313M1196.43 247.42H1230.32M1196.43 281.313V315.206M1196.43 281.313H1230.32M1196.43 315.206V349.099M1196.43 315.206H1230.32M1196.43 349.099V382.992M1196.43 349.099H1230.32M1196.43 382.992V416.885M1196.43 382.992H1230.32M1196.43 416.885V450.778M1196.43 416.885H1230.32M1196.43 450.778V484.671M1196.43 450.778H1230.32M1196.43 484.671V518.564M1196.43 484.671H1230.32M1196.43 518.564V552.457M1196.43 518.564H1230.32M1196.43 552.457V586.351M1196.43 552.457H1230.32M1196.43 586.351V620.244M1196.43 586.351H1230.32M1196.43 620.244V654.137M1196.43 620.244H1230.32M1196.43 654.137V688.03M1196.43 654.137H1230.32M1196.43 688.03H1230.32M1230.32 10.168V44.0611M1230.32 10.168H1264.21M1230.32 44.0611V77.9542M1230.32 44.0611H1264.21M1230.32 77.9542V111.847M1230.32 77.9542H1264.21M1230.32 111.847V145.74M1230.32 111.847H1264.21M1230.32 145.74V179.633M1230.32 145.74H1264.21M1230.32 179.633V213.527M1230.32 179.633H1264.21M1230.32 213.527V247.42M1230.32 213.527H1264.21M1230.32 247.42V281.313M1230.32 247.42H1264.21M1230.32 281.313V315.206M1230.32 281.313H1264.21M1230.32 315.206V349.099M1230.32 315.206H1264.21M1230.32 349.099V382.992M1230.32 349.099H1264.21M1230.32 382.992V416.885M1230.32 382.992H1264.21M1230.32 416.885V450.778M1230.32 416.885H1264.21M1230.32 450.778V484.671M1230.32 450.778H1264.21M1230.32 484.671V518.564M1230.32 484.671H1264.21M1230.32 518.564V552.457M1230.32 518.564H1264.21M1230.32 552.457V586.351M1230.32 552.457H1264.21M1230.32 586.351V620.244M1230.32 586.351H1264.21M1230.32 620.244V654.137M1230.32 620.244H1264.21M1230.32 654.137V688.03M1230.32 654.137H1264.21M1230.32 688.03H1264.21M1264.21 10.168V44.0611M1264.21 10.168H1298.11M1264.21 44.0611V77.9542M1264.21 44.0611H1298.11M1264.21 77.9542V111.847M1264.21 77.9542H1298.11M1264.21 111.847V145.74M1264.21 111.847H1298.11M1264.21 145.74V179.633M1264.21 145.74H1298.11M1264.21 179.633V213.527M1264.21 179.633H1298.11M1264.21 213.527V247.42M1264.21 213.527H1298.11M1264.21 247.42V281.313M1264.21 247.42H1298.11M1264.21 281.313V315.206M1264.21 281.313H1298.11M1264.21 315.206V349.099M1264.21 315.206H1298.11M1264.21 349.099V382.992M1264.21 349.099H1298.11M1264.21 382.992V416.885M1264.21 382.992H1298.11M1264.21 416.885V450.778M1264.21 416.885H1298.11M1264.21 450.778V484.671M1264.21 450.778H1298.11M1264.21 484.671V518.564M1264.21 484.671H1298.11M1264.21 518.564V552.457M1264.21 518.564H1298.11M1264.21 552.457V586.351M1264.21 552.457H1298.11M1264.21 586.351V620.244M1264.21 586.351H1298.11M1264.21 620.244V654.137M1264.21 620.244H1298.11M1264.21 654.137V688.03M1264.21 654.137H1298.11M1264.21 688.03H1298.11M1298.11 10.168V44.0611M1298.11 10.168H1332M1298.11 44.0611V77.9542M1298.11 44.0611H1332M1298.11 77.9542V111.847M1298.11 77.9542H1332M1298.11 111.847V145.74M1298.11 111.847H1332M1298.11 145.74V179.633M1298.11 145.74H1332M1298.11 179.633V213.527M1298.11 179.633H1332M1298.11 213.527V247.42M1298.11 213.527H1332M1298.11 247.42V281.313M1298.11 247.42H1332M1298.11 281.313V315.206M1298.11 281.313H1332M1298.11 315.206V349.099M1298.11 315.206H1332M1298.11 349.099V382.992M1298.11 349.099H1332M1298.11 382.992V416.885M1298.11 382.992H1332M1298.11 416.885V450.778M1298.11 416.885H1332M1298.11 450.778V484.671M1298.11 450.778H1332M1298.11 484.671V518.564M1298.11 484.671H1332M1298.11 518.564V552.457M1298.11 518.564H1332M1298.11 552.457V586.351M1298.11 552.457H1332M1298.11 586.351V620.244M1298.11 586.351H1332M1298.11 620.244V654.137M1298.11 620.244H1332M1298.11 654.137V688.03M1298.11 654.137H1332M1298.11 688.03H1332M1332 10.168V44.0611M1332 10.168H1365.89M1332 44.0611V77.9542M1332 44.0611H1365.89M1332 77.9542V111.847M1332 77.9542H1365.89M1332 111.847V145.74M1332 111.847H1365.89M1332 145.74V179.633M1332 145.74H1365.89M1332 179.633V213.527M1332 179.633H1365.89M1332 213.527V247.42M1332 213.527H1365.89M1332 247.42V281.313M1332 247.42H1365.89M1332 281.313V315.206M1332 281.313H1365.89M1332 315.206V349.099M1332 315.206H1365.89M1332 349.099V382.992M1332 349.099H1365.89M1332 382.992V416.885M1332 382.992H1365.89M1332 416.885V450.778M1332 416.885H1365.89M1332 450.778V484.671M1332 450.778H1365.89M1332 484.671V518.564M1332 484.671H1365.89M1332 518.564V552.457M1332 518.564H1365.89M1332 552.457V586.351M1332 552.457H1365.89M1332 586.351V620.244M1332 586.351H1365.89M1332 620.244V654.137M1332 620.244H1365.89M1332 654.137V688.03M1332 654.137H1365.89M1332 688.03H1365.89M1365.89 10.168V44.0611M1365.89 10.168H1399.79M1365.89 44.0611V77.9542M1365.89 44.0611H1399.79M1365.89 77.9542V111.847M1365.89 77.9542H1399.79M1365.89 111.847V145.74M1365.89 111.847H1399.79M1365.89 145.74V179.633M1365.89 145.74H1399.79M1365.89 179.633V213.527M1365.89 179.633H1399.79M1365.89 213.527V247.42M1365.89 213.527H1399.79M1365.89 247.42V281.313M1365.89 247.42H1399.79M1365.89 281.313V315.206M1365.89 281.313H1399.79M1365.89 315.206V349.099M1365.89 315.206H1399.79M1365.89 349.099V382.992M1365.89 349.099H1399.79M1365.89 382.992V416.885M1365.89 382.992H1399.79M1365.89 416.885V450.778M1365.89 416.885H1399.79M1365.89 450.778V484.671M1365.89 450.778H1399.79M1365.89 484.671V518.564M1365.89 484.671H1399.79M1365.89 518.564V552.457M1365.89 518.564H1399.79M1365.89 552.457V586.351M1365.89 552.457H1399.79M1365.89 586.351V620.244M1365.89 586.351H1399.79M1365.89 620.244V654.137M1365.89 620.244H1399.79M1365.89 654.137V688.03M1365.89 654.137H1399.79M1365.89 688.03H1399.79M1399.79 10.168V44.0611M1399.79 10.168H1433.68M1399.79 44.0611V77.9542M1399.79 44.0611H1433.68M1399.79 77.9542V111.847M1399.79 77.9542H1433.68M1399.79 111.847V145.74M1399.79 111.847H1433.68M1399.79 145.74V179.633M1399.79 145.74H1433.68M1399.79 179.633V213.527M1399.79 179.633H1433.68M1399.79 213.527V247.42M1399.79 213.527H1433.68M1399.79 247.42V281.313M1399.79 247.42H1433.68M1399.79 281.313V315.206M1399.79 281.313H1433.68M1399.79 315.206V349.099M1399.79 315.206H1433.68M1399.79 349.099V382.992M1399.79 349.099H1433.68M1399.79 382.992V416.885M1399.79 382.992H1433.68M1399.79 416.885V450.778M1399.79 416.885H1433.68M1399.79 450.778V484.671M1399.79 450.778H1433.68M1399.79 484.671V518.564M1399.79 484.671H1433.68M1399.79 518.564V552.457M1399.79 518.564H1433.68M1399.79 552.457V586.351M1399.79 552.457H1433.68M1399.79 586.351V620.244M1399.79 586.351H1433.68M1399.79 620.244V654.137M1399.79 620.244H1433.68M1399.79 654.137V688.03M1399.79 654.137H1433.68M1399.79 688.03H1433.68M1433.68 10.168V44.0611M1433.68 10.168H1467.57M1433.68 44.0611V77.9542M1433.68 44.0611H1467.57M1433.68 77.9542V111.847M1433.68 77.9542H1467.57M1433.68 111.847V145.74M1433.68 111.847H1467.57M1433.68 145.74V179.633M1433.68 145.74H1467.57M1433.68 179.633V213.527M1433.68 179.633H1467.57M1433.68 213.527V247.42M1433.68 213.527H1467.57M1433.68 247.42V281.313M1433.68 247.42H1467.57M1433.68 281.313V315.206M1433.68 281.313H1467.57M1433.68 315.206V349.099M1433.68 315.206H1467.57M1433.68 349.099V382.992M1433.68 349.099H1467.57M1433.68 382.992V416.885M1433.68 382.992H1467.57M1433.68 416.885V450.778M1433.68 416.885H1467.57M1433.68 450.778V484.671M1433.68 450.778H1467.57M1433.68 484.671V518.564M1433.68 484.671H1467.57M1433.68 518.564V552.457M1433.68 518.564H1467.57M1433.68 552.457V586.351M1433.68 552.457H1467.57M1433.68 586.351V620.244M1433.68 586.351H1467.57M1433.68 620.244V654.137M1433.68 620.244H1467.57M1433.68 654.137V688.03M1433.68 654.137H1467.57M1433.68 688.03H1467.57M1467.57 10.168V44.0611M1467.57 10.168H1501.46V44.0611M1467.57 44.0611V77.9542M1467.57 44.0611H1501.46M1467.57 77.9542V111.847M1467.57 77.9542H1501.46M1467.57 111.847V145.74M1467.57 111.847H1501.46M1467.57 145.74V179.633M1467.57 145.74H1501.46M1467.57 179.633V213.527M1467.57 179.633H1501.46M1467.57 213.527V247.42M1467.57 213.527H1501.46M1467.57 247.42V281.313M1467.57 247.42H1501.46M1467.57 281.313V315.206M1467.57 281.313H1501.46M1467.57 315.206V349.099M1467.57 315.206H1501.46M1467.57 349.099V382.992M1467.57 349.099H1501.46M1467.57 382.992V416.885M1467.57 382.992H1501.46M1467.57 416.885V450.778M1467.57 416.885H1501.46M1467.57 450.778V484.671M1467.57 450.778H1501.46M1467.57 484.671V518.564M1467.57 484.671H1501.46M1467.57 518.564V552.457M1467.57 518.564H1501.46M1467.57 552.457V586.351M1467.57 552.457H1501.46M1467.57 586.351V620.244M1467.57 586.351H1501.46M1467.57 620.244V654.137M1467.57 620.244H1501.46M1467.57 654.137V688.03M1467.57 654.137H1501.46M1467.57 688.03H1501.46V654.137M1501.46 44.0611V77.9542M1501.46 77.9542V111.847M1501.46 111.847V145.74M1501.46 145.74V179.633M1501.46 179.633V213.527M1501.46 213.527V247.42M1501.46 247.42V281.313M1501.46 281.313V315.206M1501.46 315.206V349.099M1501.46 349.099V382.992M1501.46 382.992V416.885M1501.46 416.885V450.778M1501.46 450.778V484.671M1501.46 484.671V518.564M1501.46 518.564V552.457M1501.46 552.457V586.351M1501.46 586.351V620.244M1501.46 620.244V654.137" stroke="url(#paint0_radial_195_58)" stroke-opacity="0.6" stroke-width="0.383728"/>
<path d="M145.741 135.572V155.908M135.573 145.74H155.909" stroke="url(#paint1_radial_195_58)" stroke-opacity="0.6" stroke-width="0.767456"/>
<path d="M145.741 406.718V427.053M135.573 416.885H155.909" stroke="url(#paint2_radial_195_58)" stroke-opacity="0.6" stroke-width="0.767456"/>
<path d="M145.741 677.862V698.198M135.573 688.03H155.909" stroke="url(#paint3_radial_195_58)" stroke-opacity="0.6" stroke-width="0.767456"/>
<path d="M416.886 135.572V155.908M406.718 145.74H427.054" stroke="url(#paint4_radial_195_58)" stroke-opacity="0.6" stroke-width="0.767456"/>
<path d="M416.886 406.718V427.053M406.718 416.885H427.054" stroke="url(#paint5_radial_195_58)" stroke-opacity="0.6" stroke-width="0.767456"/>
<path d="M416.886 677.862V698.198M406.718 688.03H427.054" stroke="url(#paint6_radial_195_58)" stroke-opacity="0.6" stroke-width="0.767456"/>
<path d="M688.029 135.572V155.908M677.861 145.74H698.197" stroke="url(#paint7_radial_195_58)" stroke-opacity="0.6" stroke-width="0.767456"/>
<path d="M688.029 406.718V427.053M677.861 416.885H698.197" stroke="url(#paint8_radial_195_58)" stroke-opacity="0.6" stroke-width="0.767456"/>
<path d="M688.029 677.862V698.198M677.861 688.03H698.197" stroke="url(#paint9_radial_195_58)" stroke-opacity="0.6" stroke-width="0.767456"/>
<path d="M959.174 135.572V155.908M949.006 145.74H969.342" stroke="url(#paint10_radial_195_58)" stroke-opacity="0.6" stroke-width="0.767456"/>
<path d="M959.174 406.718V427.053M949.006 416.885H969.342" stroke="url(#paint11_radial_195_58)" stroke-opacity="0.6" stroke-width="0.767456"/>
<path d="M959.174 677.862V698.198M949.006 688.03H969.342" stroke="url(#paint12_radial_195_58)" stroke-opacity="0.6" stroke-width="0.767456"/>
<path d="M1230.32 135.572V155.908M1220.15 145.74H1240.49" stroke="url(#paint13_radial_195_58)" stroke-opacity="0.6" stroke-width="0.767456"/>
<path d="M1230.32 406.718V427.053M1220.15 416.885H1240.49" stroke="url(#paint14_radial_195_58)" stroke-opacity="0.6" stroke-width="0.767456"/>
<path d="M1230.32 677.862V698.198M1220.15 688.03H1240.49" stroke="url(#paint15_radial_195_58)" stroke-opacity="0.6" stroke-width="0.767456"/>
<path d="M1501.46 135.572V155.908M1491.3 145.74H1511.63" stroke="url(#paint16_radial_195_58)" stroke-opacity="0.6" stroke-width="0.767456"/>
<path d="M1501.46 406.718V427.053M1491.3 416.885H1511.63" stroke="url(#paint17_radial_195_58)" stroke-opacity="0.6" stroke-width="0.767456"/>
<path d="M1501.46 677.862V698.198M1491.3 688.03H1511.63" stroke="url(#paint18_radial_195_58)" stroke-opacity="0.6" stroke-width="0.767456"/>
<path d="M145.741 0V20.3359M135.573 10.1679H155.909" stroke="url(#paint19_radial_195_58)" stroke-opacity="0.6" stroke-width="0.767456"/>
<path d="M145.741 271.145V291.48M135.573 281.312H155.909" stroke="url(#paint20_radial_195_58)" stroke-opacity="0.6" stroke-width="0.767456"/>
<path d="M145.741 542.29V562.626M135.573 552.458H155.909" stroke="url(#paint21_radial_195_58)" stroke-opacity="0.6" stroke-width="0.767456"/>
<path d="M416.886 0V20.3359M406.718 10.1679H427.054" stroke="url(#paint22_radial_195_58)" stroke-opacity="0.6" stroke-width="0.767456"/>
<path d="M416.886 271.145V291.48M406.718 281.312H427.054" stroke="url(#paint23_radial_195_58)" stroke-opacity="0.6" stroke-width="0.767456"/>
<path d="M416.886 542.29V562.626M406.718 552.458H427.054" stroke="url(#paint24_radial_195_58)" stroke-opacity="0.6" stroke-width="0.767456"/>
<path d="M688.029 0V20.3359M677.861 10.1679H698.197" stroke="url(#paint25_radial_195_58)" stroke-opacity="0.6" stroke-width="0.767456"/>
<path d="M688.029 271.145V291.48M677.861 281.312H698.197" stroke="url(#paint26_radial_195_58)" stroke-opacity="0.6" stroke-width="0.767456"/>
<path d="M688.029 542.29V562.626M677.861 552.458H698.197" stroke="url(#paint27_radial_195_58)" stroke-opacity="0.6" stroke-width="0.767456"/>
<path d="M959.174 0V20.3359M949.006 10.1679H969.342" stroke="url(#paint28_radial_195_58)" stroke-opacity="0.6" stroke-width="0.767456"/>
<path d="M959.174 271.145V291.48M949.006 281.312H969.342" stroke="url(#paint29_radial_195_58)" stroke-opacity="0.6" stroke-width="0.767456"/>
<path d="M959.174 542.29V562.626M949.006 552.458H969.342" stroke="url(#paint30_radial_195_58)" stroke-opacity="0.6" stroke-width="0.767456"/>
<path d="M1230.32 0V20.3359M1220.15 10.1679H1240.49" stroke="url(#paint31_radial_195_58)" stroke-opacity="0.6" stroke-width="0.767456"/>
<path d="M1230.32 271.145V291.48M1220.15 281.312H1240.49" stroke="url(#paint32_radial_195_58)" stroke-opacity="0.6" stroke-width="0.767456"/>
<path d="M1230.32 542.29V562.626M1220.15 552.458H1240.49" stroke="url(#paint33_radial_195_58)" stroke-opacity="0.6" stroke-width="0.767456"/>
<path d="M1501.46 0V20.3359M1491.3 10.1679H1511.63" stroke="url(#paint34_radial_195_58)" stroke-opacity="0.6" stroke-width="0.767456"/>
<path d="M1501.46 271.145V291.48M1491.3 281.312H1511.63" stroke="url(#paint35_radial_195_58)" stroke-opacity="0.6" stroke-width="0.767456"/>
<path d="M1501.46 542.29V562.626M1491.3 552.458H1511.63" stroke="url(#paint36_radial_195_58)" stroke-opacity="0.6" stroke-width="0.767456"/>
<path d="M10.1679 135.572V155.908M0 145.74H20.3359" stroke="url(#paint37_radial_195_58)" stroke-opacity="0.6" stroke-width="0.767456"/>
<path d="M10.1679 406.718V427.053M0 416.885H20.3359" stroke="url(#paint38_radial_195_58)" stroke-opacity="0.6" stroke-width="0.767456"/>
<path d="M10.1679 677.862V698.198M0 688.03H20.3359" stroke="url(#paint39_radial_195_58)" stroke-opacity="0.6" stroke-width="0.767456"/>
<path d="M281.313 135.572V155.908M271.145 145.74H291.481" stroke="url(#paint40_radial_195_58)" stroke-opacity="0.6" stroke-width="0.767456"/>
<path d="M281.313 406.718V427.053M271.145 416.885H291.481" stroke="url(#paint41_radial_195_58)" stroke-opacity="0.6" stroke-width="0.767456"/>
<path d="M281.313 677.862V698.198M271.145 688.03H291.481" stroke="url(#paint42_radial_195_58)" stroke-opacity="0.6" stroke-width="0.767456"/>
<path d="M552.457 135.572V155.908M542.289 145.74H562.625" stroke="url(#paint43_radial_195_58)" stroke-opacity="0.6" stroke-width="0.767456"/>
<path d="M552.457 406.718V427.053M542.289 416.885H562.625" stroke="url(#paint44_radial_195_58)" stroke-opacity="0.6" stroke-width="0.767456"/>
<path d="M552.457 677.862V698.198M542.289 688.03H562.625" stroke="url(#paint45_radial_195_58)" stroke-opacity="0.6" stroke-width="0.767456"/>
<path d="M823.6 135.572V155.908M813.432 145.74H833.768" stroke="url(#paint46_radial_195_58)" stroke-opacity="0.6" stroke-width="0.767456"/>
<path d="M823.6 406.718V427.053M813.432 416.885H833.768" stroke="url(#paint47_radial_195_58)" stroke-opacity="0.6" stroke-width="0.767456"/>
<path d="M823.6 677.862V698.198M813.432 688.03H833.768" stroke="url(#paint48_radial_195_58)" stroke-opacity="0.6" stroke-width="0.767456"/>
<path d="M1094.75 135.572V155.908M1084.58 145.74H1104.91" stroke="url(#paint49_radial_195_58)" stroke-opacity="0.6" stroke-width="0.767456"/>
<path d="M1094.75 406.718V427.053M1084.58 416.885H1104.91" stroke="url(#paint50_radial_195_58)" stroke-opacity="0.6" stroke-width="0.767456"/>
<path d="M1094.75 677.862V698.198M1084.58 688.03H1104.91" stroke="url(#paint51_radial_195_58)" stroke-opacity="0.6" stroke-width="0.767456"/>
<path d="M1365.89 135.572V155.908M1355.72 145.74H1376.06" stroke="url(#paint52_radial_195_58)" stroke-opacity="0.6" stroke-width="0.767456"/>
<path d="M1365.89 406.718V427.053M1355.72 416.885H1376.06" stroke="url(#paint53_radial_195_58)" stroke-opacity="0.6" stroke-width="0.767456"/>
<path d="M1365.89 677.862V698.198M1355.72 688.03H1376.06" stroke="url(#paint54_radial_195_58)" stroke-opacity="0.6" stroke-width="0.767456"/>
<path d="M10.1679 0V20.3359M0 10.1679H20.3359" stroke="url(#paint55_radial_195_58)" stroke-opacity="0.6" stroke-width="0.767456"/>
<path d="M10.1679 271.145V291.48M0 281.312H20.3359" stroke="url(#paint56_radial_195_58)" stroke-opacity="0.6" stroke-width="0.767456"/>
<path d="M10.1679 542.29V562.626M0 552.458H20.3359" stroke="url(#paint57_radial_195_58)" stroke-opacity="0.6" stroke-width="0.767456"/>
<path d="M281.313 0V20.3359M271.145 10.1679H291.481" stroke="url(#paint58_radial_195_58)" stroke-opacity="0.6" stroke-width="0.767456"/>
<path d="M281.313 271.145V291.48M271.145 281.312H291.481" stroke="url(#paint59_radial_195_58)" stroke-opacity="0.6" stroke-width="0.767456"/>
<path d="M281.313 542.29V562.626M271.145 552.458H291.481" stroke="url(#paint60_radial_195_58)" stroke-opacity="0.6" stroke-width="0.767456"/>
<path d="M552.457 0V20.3359M542.289 10.1679H562.625" stroke="url(#paint61_radial_195_58)" stroke-opacity="0.6" stroke-width="0.767456"/>
<path d="M552.457 271.145V291.48M542.289 281.312H562.625" stroke="url(#paint62_radial_195_58)" stroke-opacity="0.6" stroke-width="0.767456"/>
<path d="M552.457 542.29V562.626M542.289 552.458H562.625" stroke="url(#paint63_radial_195_58)" stroke-opacity="0.6" stroke-width="0.767456"/>
<path d="M823.6 0V20.3359M813.432 10.1679H833.768" stroke="url(#paint64_radial_195_58)" stroke-opacity="0.6" stroke-width="0.767456"/>
<path d="M823.6 271.145V291.48M813.432 281.312H833.768" stroke="url(#paint65_radial_195_58)" stroke-opacity="0.6" stroke-width="0.767456"/>
<path d="M823.6 542.29V562.626M813.432 552.458H833.768" stroke="url(#paint66_radial_195_58)" stroke-opacity="0.6" stroke-width="0.767456"/>
<path d="M1094.75 0V20.3359M1084.58 10.1679H1104.91" stroke="url(#paint67_radial_195_58)" stroke-opacity="0.6" stroke-width="0.767456"/>
<path d="M1094.75 271.145V291.48M1084.58 281.312H1104.91" stroke="url(#paint68_radial_195_58)" stroke-opacity="0.6" stroke-width="0.767456"/>
<path d="M1094.75 542.29V562.626M1084.58 552.458H1104.91" stroke="url(#paint69_radial_195_58)" stroke-opacity="0.6" stroke-width="0.767456"/>
<path d="M1365.89 0V20.3359M1355.72 10.1679H1376.06" stroke="url(#paint70_radial_195_58)" stroke-opacity="0.6" stroke-width="0.767456"/>
<path d="M1365.89 271.145V291.48M1355.72 281.312H1376.06" stroke="url(#paint71_radial_195_58)" stroke-opacity="0.6" stroke-width="0.767456"/>
<path d="M1365.89 542.29V562.626M1355.72 552.458H1376.06" stroke="url(#paint72_radial_195_58)" stroke-opacity="0.6" stroke-width="0.767456"/>
<defs>
<radialGradient id="paint0_radial_195_58" cx="0" cy="0" r="1" gradientUnits="userSpaceOnUse" gradientTransform="translate(755.816 349.099) rotate(90) scale(338.931 745.648)">
<stop stop-color="#7B8692"/>
<stop offset="1" stop-color="#7B8692" stop-opacity="0"/>
</radialGradient>
<radialGradient id="paint1_radial_195_58" cx="0" cy="0" r="1" gradientUnits="userSpaceOnUse" gradientTransform="translate(145.741 145.74) rotate(90) scale(10.1679)">
<stop stop-color="#7B8692"/>
<stop offset="1" stop-color="#7B8692" stop-opacity="0"/>
</radialGradient>
<radialGradient id="paint2_radial_195_58" cx="0" cy="0" r="1" gradientUnits="userSpaceOnUse" gradientTransform="translate(145.741 416.885) rotate(90) scale(10.1679)">
<stop stop-color="#7B8692"/>
<stop offset="1" stop-color="#7B8692" stop-opacity="0"/>
</radialGradient>
<radialGradient id="paint3_radial_195_58" cx="0" cy="0" r="1" gradientUnits="userSpaceOnUse" gradientTransform="translate(145.741 688.03) rotate(90) scale(10.1679)">
<stop stop-color="#7B8692"/>
<stop offset="1" stop-color="#7B8692" stop-opacity="0"/>
</radialGradient>
<radialGradient id="paint4_radial_195_58" cx="0" cy="0" r="1" gradientUnits="userSpaceOnUse" gradientTransform="translate(416.886 145.74) rotate(90) scale(10.1679)">
<stop stop-color="#7B8692"/>
<stop offset="1" stop-color="#7B8692" stop-opacity="0"/>
</radialGradient>
<radialGradient id="paint5_radial_195_58" cx="0" cy="0" r="1" gradientUnits="userSpaceOnUse" gradientTransform="translate(416.886 416.885) rotate(90) scale(10.1679)">
<stop stop-color="#7B8692"/>
<stop offset="1" stop-color="#7B8692" stop-opacity="0"/>
</radialGradient>
<radialGradient id="paint6_radial_195_58" cx="0" cy="0" r="1" gradientUnits="userSpaceOnUse" gradientTransform="translate(416.886 688.03) rotate(90) scale(10.1679)">
<stop stop-color="#7B8692"/>
<stop offset="1" stop-color="#7B8692" stop-opacity="0"/>
</radialGradient>
<radialGradient id="paint7_radial_195_58" cx="0" cy="0" r="1" gradientUnits="userSpaceOnUse" gradientTransform="translate(688.029 145.74) rotate(90) scale(10.1679)">
<stop stop-color="#7B8692"/>
<stop offset="1" stop-color="#7B8692" stop-opacity="0"/>
</radialGradient>
<radialGradient id="paint8_radial_195_58" cx="0" cy="0" r="1" gradientUnits="userSpaceOnUse" gradientTransform="translate(688.029 416.885) rotate(90) scale(10.1679)">
<stop stop-color="#7B8692"/>
<stop offset="1" stop-color="#7B8692" stop-opacity="0"/>
</radialGradient>
<radialGradient id="paint9_radial_195_58" cx="0" cy="0" r="1" gradientUnits="userSpaceOnUse" gradientTransform="translate(688.029 688.03) rotate(90) scale(10.1679)">
<stop stop-color="#7B8692"/>
<stop offset="1" stop-color="#7B8692" stop-opacity="0"/>
</radialGradient>
<radialGradient id="paint10_radial_195_58" cx="0" cy="0" r="1" gradientUnits="userSpaceOnUse" gradientTransform="translate(959.174 145.74) rotate(90) scale(10.1679)">
<stop stop-color="#7B8692"/>
<stop offset="1" stop-color="#7B8692" stop-opacity="0"/>
</radialGradient>
<radialGradient id="paint11_radial_195_58" cx="0" cy="0" r="1" gradientUnits="userSpaceOnUse" gradientTransform="translate(959.174 416.885) rotate(90) scale(10.1679)">
<stop stop-color="#7B8692"/>
<stop offset="1" stop-color="#7B8692" stop-opacity="0"/>
</radialGradient>
<radialGradient id="paint12_radial_195_58" cx="0" cy="0" r="1" gradientUnits="userSpaceOnUse" gradientTransform="translate(959.174 688.03) rotate(90) scale(10.1679)">
<stop stop-color="#7B8692"/>
<stop offset="1" stop-color="#7B8692" stop-opacity="0"/>
</radialGradient>
<radialGradient id="paint13_radial_195_58" cx="0" cy="0" r="1" gradientUnits="userSpaceOnUse" gradientTransform="translate(1230.32 145.74) rotate(90) scale(10.1679)">
<stop stop-color="#7B8692"/>
<stop offset="1" stop-color="#7B8692" stop-opacity="0"/>
</radialGradient>
<radialGradient id="paint14_radial_195_58" cx="0" cy="0" r="1" gradientUnits="userSpaceOnUse" gradientTransform="translate(1230.32 416.885) rotate(90) scale(10.1679)">
<stop stop-color="#7B8692"/>
<stop offset="1" stop-color="#7B8692" stop-opacity="0"/>
</radialGradient>
<radialGradient id="paint15_radial_195_58" cx="0" cy="0" r="1" gradientUnits="userSpaceOnUse" gradientTransform="translate(1230.32 688.03) rotate(90) scale(10.1679)">
<stop stop-color="#7B8692"/>
<stop offset="1" stop-color="#7B8692" stop-opacity="0"/>
</radialGradient>
<radialGradient id="paint16_radial_195_58" cx="0" cy="0" r="1" gradientUnits="userSpaceOnUse" gradientTransform="translate(1501.46 145.74) rotate(90) scale(10.1679)">
<stop stop-color="#7B8692"/>
<stop offset="1" stop-color="#7B8692" stop-opacity="0"/>
</radialGradient>
<radialGradient id="paint17_radial_195_58" cx="0" cy="0" r="1" gradientUnits="userSpaceOnUse" gradientTransform="translate(1501.46 416.885) rotate(90) scale(10.1679)">
<stop stop-color="#7B8692"/>
<stop offset="1" stop-color="#7B8692" stop-opacity="0"/>
</radialGradient>
<radialGradient id="paint18_radial_195_58" cx="0" cy="0" r="1" gradientUnits="userSpaceOnUse" gradientTransform="translate(1501.46 688.03) rotate(90) scale(10.1679)">
<stop stop-color="#7B8692"/>
<stop offset="1" stop-color="#7B8692" stop-opacity="0"/>
</radialGradient>
<radialGradient id="paint19_radial_195_58" cx="0" cy="0" r="1" gradientUnits="userSpaceOnUse" gradientTransform="translate(145.741 10.1679) rotate(90) scale(10.1679)">
<stop stop-color="#7B8692"/>
<stop offset="1" stop-color="#7B8692" stop-opacity="0"/>
</radialGradient>
<radialGradient id="paint20_radial_195_58" cx="0" cy="0" r="1" gradientUnits="userSpaceOnUse" gradientTransform="translate(145.741 281.312) rotate(90) scale(10.1679)">
<stop stop-color="#7B8692"/>
<stop offset="1" stop-color="#7B8692" stop-opacity="0"/>
</radialGradient>
<radialGradient id="paint21_radial_195_58" cx="0" cy="0" r="1" gradientUnits="userSpaceOnUse" gradientTransform="translate(145.741 552.458) rotate(90) scale(10.1679)">
<stop stop-color="#7B8692"/>
<stop offset="1" stop-color="#7B8692" stop-opacity="0"/>
</radialGradient>
<radialGradient id="paint22_radial_195_58" cx="0" cy="0" r="1" gradientUnits="userSpaceOnUse" gradientTransform="translate(416.886 10.1679) rotate(90) scale(10.1679)">
<stop stop-color="#7B8692"/>
<stop offset="1" stop-color="#7B8692" stop-opacity="0"/>
</radialGradient>
<radialGradient id="paint23_radial_195_58" cx="0" cy="0" r="1" gradientUnits="userSpaceOnUse" gradientTransform="translate(416.886 281.312) rotate(90) scale(10.1679)">
<stop stop-color="#7B8692"/>
<stop offset="1" stop-color="#7B8692" stop-opacity="0"/>
</radialGradient>
<radialGradient id="paint24_radial_195_58" cx="0" cy="0" r="1" gradientUnits="userSpaceOnUse" gradientTransform="translate(416.886 552.458) rotate(90) scale(10.1679)">
<stop stop-color="#7B8692"/>
<stop offset="1" stop-color="#7B8692" stop-opacity="0"/>
</radialGradient>
<radialGradient id="paint25_radial_195_58" cx="0" cy="0" r="1" gradientUnits="userSpaceOnUse" gradientTransform="translate(688.029 10.1679) rotate(90) scale(10.1679)">
<stop stop-color="#7B8692"/>
<stop offset="1" stop-color="#7B8692" stop-opacity="0"/>
</radialGradient>
<radialGradient id="paint26_radial_195_58" cx="0" cy="0" r="1" gradientUnits="userSpaceOnUse" gradientTransform="translate(688.029 281.312) rotate(90) scale(10.1679)">
<stop stop-color="#7B8692"/>
<stop offset="1" stop-color="#7B8692" stop-opacity="0"/>
</radialGradient>
<radialGradient id="paint27_radial_195_58" cx="0" cy="0" r="1" gradientUnits="userSpaceOnUse" gradientTransform="translate(688.029 552.458) rotate(90) scale(10.1679)">
<stop stop-color="#7B8692"/>
<stop offset="1" stop-color="#7B8692" stop-opacity="0"/>
</radialGradient>
<radialGradient id="paint28_radial_195_58" cx="0" cy="0" r="1" gradientUnits="userSpaceOnUse" gradientTransform="translate(959.174 10.1679) rotate(90) scale(10.1679)">
<stop stop-color="#7B8692"/>
<stop offset="1" stop-color="#7B8692" stop-opacity="0"/>
</radialGradient>
<radialGradient id="paint29_radial_195_58" cx="0" cy="0" r="1" gradientUnits="userSpaceOnUse" gradientTransform="translate(959.174 281.312) rotate(90) scale(10.1679)">
<stop stop-color="#7B8692"/>
<stop offset="1" stop-color="#7B8692" stop-opacity="0"/>
</radialGradient>
<radialGradient id="paint30_radial_195_58" cx="0" cy="0" r="1" gradientUnits="userSpaceOnUse" gradientTransform="translate(959.174 552.458) rotate(90) scale(10.1679)">
<stop stop-color="#7B8692"/>
<stop offset="1" stop-color="#7B8692" stop-opacity="0"/>
</radialGradient>
<radialGradient id="paint31_radial_195_58" cx="0" cy="0" r="1" gradientUnits="userSpaceOnUse" gradientTransform="translate(1230.32 10.1679) rotate(90) scale(10.1679)">
<stop stop-color="#7B8692"/>
<stop offset="1" stop-color="#7B8692" stop-opacity="0"/>
</radialGradient>
<radialGradient id="paint32_radial_195_58" cx="0" cy="0" r="1" gradientUnits="userSpaceOnUse" gradientTransform="translate(1230.32 281.312) rotate(90) scale(10.1679)">
<stop stop-color="#7B8692"/>
<stop offset="1" stop-color="#7B8692" stop-opacity="0"/>
</radialGradient>
<radialGradient id="paint33_radial_195_58" cx="0" cy="0" r="1" gradientUnits="userSpaceOnUse" gradientTransform="translate(1230.32 552.458) rotate(90) scale(10.1679)">
<stop stop-color="#7B8692"/>
<stop offset="1" stop-color="#7B8692" stop-opacity="0"/>
</radialGradient>
<radialGradient id="paint34_radial_195_58" cx="0" cy="0" r="1" gradientUnits="userSpaceOnUse" gradientTransform="translate(1501.46 10.1679) rotate(90) scale(10.1679)">
<stop stop-color="#7B8692"/>
<stop offset="1" stop-color="#7B8692" stop-opacity="0"/>
</radialGradient>
<radialGradient id="paint35_radial_195_58" cx="0" cy="0" r="1" gradientUnits="userSpaceOnUse" gradientTransform="translate(1501.46 281.312) rotate(90) scale(10.1679)">
<stop stop-color="#7B8692"/>
<stop offset="1" stop-color="#7B8692" stop-opacity="0"/>
</radialGradient>
<radialGradient id="paint36_radial_195_58" cx="0" cy="0" r="1" gradientUnits="userSpaceOnUse" gradientTransform="translate(1501.46 552.458) rotate(90) scale(10.1679)">
<stop stop-color="#7B8692"/>
<stop offset="1" stop-color="#7B8692" stop-opacity="0"/>
</radialGradient>
<radialGradient id="paint37_radial_195_58" cx="0" cy="0" r="1" gradientUnits="userSpaceOnUse" gradientTransform="translate(10.1679 145.74) rotate(90) scale(10.1679)">
<stop stop-color="#7B8692"/>
<stop offset="1" stop-color="#7B8692" stop-opacity="0"/>
</radialGradient>
<radialGradient id="paint38_radial_195_58" cx="0" cy="0" r="1" gradientUnits="userSpaceOnUse" gradientTransform="translate(10.1679 416.885) rotate(90) scale(10.1679)">
<stop stop-color="#7B8692"/>
<stop offset="1" stop-color="#7B8692" stop-opacity="0"/>
</radialGradient>
<radialGradient id="paint39_radial_195_58" cx="0" cy="0" r="1" gradientUnits="userSpaceOnUse" gradientTransform="translate(10.1679 688.03) rotate(90) scale(10.1679)">
<stop stop-color="#7B8692"/>
<stop offset="1" stop-color="#7B8692" stop-opacity="0"/>
</radialGradient>
<radialGradient id="paint40_radial_195_58" cx="0" cy="0" r="1" gradientUnits="userSpaceOnUse" gradientTransform="translate(281.313 145.74) rotate(90) scale(10.1679)">
<stop stop-color="#7B8692"/>
<stop offset="1" stop-color="#7B8692" stop-opacity="0"/>
</radialGradient>
<radialGradient id="paint41_radial_195_58" cx="0" cy="0" r="1" gradientUnits="userSpaceOnUse" gradientTransform="translate(281.313 416.885) rotate(90) scale(10.1679)">
<stop stop-color="#7B8692"/>
<stop offset="1" stop-color="#7B8692" stop-opacity="0"/>
</radialGradient>
<radialGradient id="paint42_radial_195_58" cx="0" cy="0" r="1" gradientUnits="userSpaceOnUse" gradientTransform="translate(281.313 688.03) rotate(90) scale(10.1679)">
<stop stop-color="#7B8692"/>
<stop offset="1" stop-color="#7B8692" stop-opacity="0"/>
</radialGradient>
<radialGradient id="paint43_radial_195_58" cx="0" cy="0" r="1" gradientUnits="userSpaceOnUse" gradientTransform="translate(552.457 145.74) rotate(90) scale(10.1679)">
<stop stop-color="#7B8692"/>
<stop offset="1" stop-color="#7B8692" stop-opacity="0"/>
</radialGradient>
<radialGradient id="paint44_radial_195_58" cx="0" cy="0" r="1" gradientUnits="userSpaceOnUse" gradientTransform="translate(552.457 416.885) rotate(90) scale(10.1679)">
<stop stop-color="#7B8692"/>
<stop offset="1" stop-color="#7B8692" stop-opacity="0"/>
</radialGradient>
<radialGradient id="paint45_radial_195_58" cx="0" cy="0" r="1" gradientUnits="userSpaceOnUse" gradientTransform="translate(552.457 688.03) rotate(90) scale(10.1679)">
<stop stop-color="#7B8692"/>
<stop offset="1" stop-color="#7B8692" stop-opacity="0"/>
</radialGradient>
<radialGradient id="paint46_radial_195_58" cx="0" cy="0" r="1" gradientUnits="userSpaceOnUse" gradientTransform="translate(823.6 145.74) rotate(90) scale(10.1679)">
<stop stop-color="#7B8692"/>
<stop offset="1" stop-color="#7B8692" stop-opacity="0"/>
</radialGradient>
<radialGradient id="paint47_radial_195_58" cx="0" cy="0" r="1" gradientUnits="userSpaceOnUse" gradientTransform="translate(823.6 416.885) rotate(90) scale(10.1679)">
<stop stop-color="#7B8692"/>
<stop offset="1" stop-color="#7B8692" stop-opacity="0"/>
</radialGradient>
<radialGradient id="paint48_radial_195_58" cx="0" cy="0" r="1" gradientUnits="userSpaceOnUse" gradientTransform="translate(823.6 688.03) rotate(90) scale(10.1679)">
<stop stop-color="#7B8692"/>
<stop offset="1" stop-color="#7B8692" stop-opacity="0"/>
</radialGradient>
<radialGradient id="paint49_radial_195_58" cx="0" cy="0" r="1" gradientUnits="userSpaceOnUse" gradientTransform="translate(1094.75 145.74) rotate(90) scale(10.1679)">
<stop stop-color="#7B8692"/>
<stop offset="1" stop-color="#7B8692" stop-opacity="0"/>
</radialGradient>
<radialGradient id="paint50_radial_195_58" cx="0" cy="0" r="1" gradientUnits="userSpaceOnUse" gradientTransform="translate(1094.75 416.885) rotate(90) scale(10.1679)">
<stop stop-color="#7B8692"/>
<stop offset="1" stop-color="#7B8692" stop-opacity="0"/>
</radialGradient>
<radialGradient id="paint51_radial_195_58" cx="0" cy="0" r="1" gradientUnits="userSpaceOnUse" gradientTransform="translate(1094.75 688.03) rotate(90) scale(10.1679)">
<stop stop-color="#7B8692"/>
<stop offset="1" stop-color="#7B8692" stop-opacity="0"/>
</radialGradient>
<radialGradient id="paint52_radial_195_58" cx="0" cy="0" r="1" gradientUnits="userSpaceOnUse" gradientTransform="translate(1365.89 145.74) rotate(90) scale(10.1679)">
<stop stop-color="#7B8692"/>
<stop offset="1" stop-color="#7B8692" stop-opacity="0"/>
</radialGradient>
<radialGradient id="paint53_radial_195_58" cx="0" cy="0" r="1" gradientUnits="userSpaceOnUse" gradientTransform="translate(1365.89 416.885) rotate(90) scale(10.1679)">
<stop stop-color="#7B8692"/>
<stop offset="1" stop-color="#7B8692" stop-opacity="0"/>
</radialGradient>
<radialGradient id="paint54_radial_195_58" cx="0" cy="0" r="1" gradientUnits="userSpaceOnUse" gradientTransform="translate(1365.89 688.03) rotate(90) scale(10.1679)">
<stop stop-color="#7B8692"/>
<stop offset="1" stop-color="#7B8692" stop-opacity="0"/>
</radialGradient>
<radialGradient id="paint55_radial_195_58" cx="0" cy="0" r="1" gradientUnits="userSpaceOnUse" gradientTransform="translate(10.1679 10.1679) rotate(90) scale(10.1679)">
<stop stop-color="#7B8692"/>
<stop offset="1" stop-color="#7B8692" stop-opacity="0"/>
</radialGradient>
<radialGradient id="paint56_radial_195_58" cx="0" cy="0" r="1" gradientUnits="userSpaceOnUse" gradientTransform="translate(10.1679 281.312) rotate(90) scale(10.1679)">
<stop stop-color="#7B8692"/>
<stop offset="1" stop-color="#7B8692" stop-opacity="0"/>
</radialGradient>
<radialGradient id="paint57_radial_195_58" cx="0" cy="0" r="1" gradientUnits="userSpaceOnUse" gradientTransform="translate(10.1679 552.458) rotate(90) scale(10.1679)">
<stop stop-color="#7B8692"/>
<stop offset="1" stop-color="#7B8692" stop-opacity="0"/>
</radialGradient>
<radialGradient id="paint58_radial_195_58" cx="0" cy="0" r="1" gradientUnits="userSpaceOnUse" gradientTransform="translate(281.313 10.1679) rotate(90) scale(10.1679)">
<stop stop-color="#7B8692"/>
<stop offset="1" stop-color="#7B8692" stop-opacity="0"/>
</radialGradient>
<radialGradient id="paint59_radial_195_58" cx="0" cy="0" r="1" gradientUnits="userSpaceOnUse" gradientTransform="translate(281.313 281.312) rotate(90) scale(10.1679)">
<stop stop-color="#7B8692"/>
<stop offset="1" stop-color="#7B8692" stop-opacity="0"/>
</radialGradient>
<radialGradient id="paint60_radial_195_58" cx="0" cy="0" r="1" gradientUnits="userSpaceOnUse" gradientTransform="translate(281.313 552.458) rotate(90) scale(10.1679)">
<stop stop-color="#7B8692"/>
<stop offset="1" stop-color="#7B8692" stop-opacity="0"/>
</radialGradient>
<radialGradient id="paint61_radial_195_58" cx="0" cy="0" r="1" gradientUnits="userSpaceOnUse" gradientTransform="translate(552.457 10.1679) rotate(90) scale(10.1679)">
<stop stop-color="#7B8692"/>
<stop offset="1" stop-color="#7B8692" stop-opacity="0"/>
</radialGradient>
<radialGradient id="paint62_radial_195_58" cx="0" cy="0" r="1" gradientUnits="userSpaceOnUse" gradientTransform="translate(552.457 281.312) rotate(90) scale(10.1679)">
<stop stop-color="#7B8692"/>
<stop offset="1" stop-color="#7B8692" stop-opacity="0"/>
</radialGradient>
<radialGradient id="paint63_radial_195_58" cx="0" cy="0" r="1" gradientUnits="userSpaceOnUse" gradientTransform="translate(552.457 552.458) rotate(90) scale(10.1679)">
<stop stop-color="#7B8692"/>
<stop offset="1" stop-color="#7B8692" stop-opacity="0"/>
</radialGradient>
<radialGradient id="paint64_radial_195_58" cx="0" cy="0" r="1" gradientUnits="userSpaceOnUse" gradientTransform="translate(823.6 10.1679) rotate(90) scale(10.1679)">
<stop stop-color="#7B8692"/>
<stop offset="1" stop-color="#7B8692" stop-opacity="0"/>
</radialGradient>
<radialGradient id="paint65_radial_195_58" cx="0" cy="0" r="1" gradientUnits="userSpaceOnUse" gradientTransform="translate(823.6 281.312) rotate(90) scale(10.1679)">
<stop stop-color="#7B8692"/>
<stop offset="1" stop-color="#7B8692" stop-opacity="0"/>
</radialGradient>
<radialGradient id="paint66_radial_195_58" cx="0" cy="0" r="1" gradientUnits="userSpaceOnUse" gradientTransform="translate(823.6 552.458) rotate(90) scale(10.1679)">
<stop stop-color="#7B8692"/>
<stop offset="1" stop-color="#7B8692" stop-opacity="0"/>
</radialGradient>
<radialGradient id="paint67_radial_195_58" cx="0" cy="0" r="1" gradientUnits="userSpaceOnUse" gradientTransform="translate(1094.75 10.1679) rotate(90) scale(10.1679)">
<stop stop-color="#7B8692"/>
<stop offset="1" stop-color="#7B8692" stop-opacity="0"/>
</radialGradient>
<radialGradient id="paint68_radial_195_58" cx="0" cy="0" r="1" gradientUnits="userSpaceOnUse" gradientTransform="translate(1094.75 281.312) rotate(90) scale(10.1679)">
<stop stop-color="#7B8692"/>
<stop offset="1" stop-color="#7B8692" stop-opacity="0"/>
</radialGradient>
<radialGradient id="paint69_radial_195_58" cx="0" cy="0" r="1" gradientUnits="userSpaceOnUse" gradientTransform="translate(1094.75 552.458) rotate(90) scale(10.1679)">
<stop stop-color="#7B8692"/>
<stop offset="1" stop-color="#7B8692" stop-opacity="0"/>
</radialGradient>
<radialGradient id="paint70_radial_195_58" cx="0" cy="0" r="1" gradientUnits="userSpaceOnUse" gradientTransform="translate(1365.89 10.1679) rotate(90) scale(10.1679)">
<stop stop-color="#7B8692"/>
<stop offset="1" stop-color="#7B8692" stop-opacity="0"/>
</radialGradient>
<radialGradient id="paint71_radial_195_58" cx="0" cy="0" r="1" gradientUnits="userSpaceOnUse" gradientTransform="translate(1365.89 281.312) rotate(90) scale(10.1679)">
<stop stop-color="#7B8692"/>
<stop offset="1" stop-color="#7B8692" stop-opacity="0"/>
</radialGradient>
<radialGradient id="paint72_radial_195_58" cx="0" cy="0" r="1" gradientUnits="userSpaceOnUse" gradientTransform="translate(1365.89 552.458) rotate(90) scale(10.1679)">
<stop stop-color="#7B8692"/>
<stop offset="1" stop-color="#7B8692" stop-opacity="0"/>
</radialGradient>
</defs>
</svg>
