<svg width="516" height="453" viewBox="0 0 516 453" fill="none" xmlns="http://www.w3.org/2000/svg">
<path fill-rule="evenodd" clip-rule="evenodd" d="M258.129 0.786133L190.957 117.115L202.471 123.763L258.129 27.3786L313.774 123.763L325.288 117.115L258.129 0.786133ZM68.1366 329.843L79.6511 336.491L24.0064 432.875H135.309V446.172H0.977295L68.1366 329.843ZM436.588 336.491L448.103 329.843L515.262 446.172H380.93V432.875H492.233L436.588 336.491ZM319.565 233.482V220.185H392.482L356.024 283.342L344.509 276.694L369.453 233.482H319.565ZM160.294 283.342L171.808 276.694L146.865 233.481H196.752V220.185H123.822L160.294 283.342ZM233.211 383.053L258.155 426.265L283.112 383.053L294.626 389.701L258.155 452.858L221.697 389.701L233.211 383.053Z" fill="url(#paint0_radial_195_351)"/>
<defs>
<radialGradient id="paint0_radial_195_351" cx="0" cy="0" r="1" gradientUnits="userSpaceOnUse" gradientTransform="translate(257.313 243.555) rotate(90.1726) scale(353.368 1153.49)">
<stop offset="0.385226" stop-color="#878A8C" stop-opacity="0"/>
<stop offset="1" stop-color="#2B2D2E"/>
</radialGradient>
</defs>
</svg>
