<svg width="228" height="50" viewBox="0 0 228 50" fill="none" xmlns="http://www.w3.org/2000/svg">
<g id="Group 14">
<g id="Subtract">
<path d="M209.458 17.7196H227.76V12.9809C227.596 11.5647 225.668 8.63434 219.263 8.24216C212.857 7.84998 200.689 7.75194 195.406 7.91535C192.628 7.91535 187.072 10.0396 187.072 12.6541V18.2098C187.072 20.9877 188.543 22.6544 194.425 24.0923C200.308 25.5303 205.809 27.3059 207.824 28.014C208.369 28.1229 209.458 28.8637 209.458 30.9553C209.458 34.3868 205.047 33.9946 205.047 32.4259V28.9944H187.072V35.5306C187.399 37.2736 189.327 40.7595 194.425 40.7595H220.733C222.858 40.5416 227.171 39.1908 227.433 35.5306C227.694 31.8703 227.542 28.9944 227.433 28.014C227.197 25.8898 225.014 23.8636 218.609 22.2949C212.204 20.7262 207.552 18.9179 206.027 18.2098C204.883 18.0464 204.733 15.4534 206.027 15.2685C209.458 14.7783 209.458 16.2489 209.458 17.7196Z" fill="#171717"/>
<path d="M162.725 29.4846H165.176V32.4259C165.176 34.0599 160.601 34.2233 160.601 32.4259V16.7392C160.601 14.7783 165.176 14.9417 165.176 17.7196H183.15V13.4711C183.15 9.0265 177.159 8.13322 174.163 8.24216H150.47C144.326 8.24216 142.572 11.7281 142.463 13.4711C142.408 18.3732 142.332 29.452 142.463 34.5502C142.594 39.6484 147.855 40.814 150.47 40.7595H177.922C181.843 40.7595 183.041 38.254 183.15 37.0012V21.9681H162.725V29.4846Z" fill="#171717"/>
<path fill-rule="evenodd" clip-rule="evenodd" d="M54.7151 8.24216V40.7595H88.0494C90.3916 40.5961 95.0758 39.1255 95.0758 34.5502V30.3017C94.9669 28.014 93.4091 23.4714 88.0494 23.6021C90.3916 23.2208 95.0758 21.3145 95.0758 16.7392C95.0758 11.02 93.2784 8.24216 83.4741 8.24216H54.7151ZM72.5261 20.334V15.7587H75.1406C75.7942 15.5953 77.0687 15.7587 76.938 17.7196C76.8073 19.6804 76.012 20.2796 75.6308 20.334H72.5261ZM72.5261 33.2429V27.3604H74.9772C76.2844 27.3604 76.938 28.4715 76.938 30.3017C76.938 31.9357 76.2844 33.2429 74.9772 33.2429H72.5261Z" fill="#171717"/>
<path fill-rule="evenodd" clip-rule="evenodd" d="M97.0367 40.7595L104.717 8.24216H132.985L140.665 40.7595H122.364L121.22 33.7331H116.318L115.501 40.7595H97.0367ZM118.769 15.7587L116.809 26.5434H121.22L118.769 15.7587Z" fill="#171717"/>
</g>
<path id="Subtract_2" fill-rule="evenodd" clip-rule="evenodd" d="M31.6751 6.93758C31.6751 8.4082 27.4266 13.7352 23.5049 14.1274C19.5832 14.5195 17.0777 13.9639 16.3152 13.6371C14.1909 12.6022 9.9751 9.68277 10.1058 6.28397C10.1058 4.97674 15.364 0.639286 16.3152 0.401435C16.3665 0.388599 16.4229 0.37274 16.4843 0.355441L16.4844 0.355436C17.2058 0.152454 18.6319 -0.248771 20.8905 1.70867C21.4982 2.14273 22.7516 1.83882 23.9156 1.55659C24.9425 1.3076 25.8998 1.07549 26.2828 1.38184C27.8248 2.99399 29.0362 3.79433 29.9167 4.37614C31.089 5.15066 31.6751 5.53792 31.6751 6.93758ZM12.0655 14.6176C8.36167 16.7963 1.28202 22.2975 0.300952 34.226C-0.462596 43.5098 6.67451 48.2676 13.3727 49.4226C22.8501 51.0568 31.3629 49.0246 35.9225 46.3179C41.1525 43.2132 43.4046 31.2848 37.5565 22.9512C32.3276 15.4999 29.7143 14.6175 29.0595 14.6176C28.407 15.4346 25.2359 17.3628 20.3991 17.232C15.5624 17.1013 12.828 15.4346 12.0655 14.6176ZM17.9377 22.902H22.362V24.4283C23.87 24.4618 25.2927 24.5116 26.3832 24.5784C29.6046 24.7757 30.5744 26.2494 30.6565 26.9616V29.3448H21.4525C21.4525 28.6052 21.4525 27.8656 19.7267 28.1121C19.0759 28.2051 19.1515 29.5092 19.7267 29.5913C20.4937 29.9474 22.8331 30.8569 26.0545 31.6458C29.2759 32.4347 30.3735 33.4537 30.4922 34.5221C30.547 35.0151 30.6237 36.4615 30.4922 38.3023C30.3607 40.1431 28.1912 40.8225 27.1228 40.932H22.362V42.8116H17.9377V40.932H13.892C11.328 40.932 10.3583 39.1789 10.194 38.3023V35.0151H19.2337V36.7409C19.2337 37.5298 21.4525 37.7271 21.4525 36.0013C21.4525 34.9494 20.9046 34.5769 20.6307 34.5221C19.6172 34.166 16.8505 33.273 13.892 32.5498C10.9336 31.8266 10.194 30.9884 10.194 29.5913V26.7972C10.194 25.4824 12.9881 24.4141 14.3851 24.4141C15.266 24.3868 16.5274 24.374 17.9377 24.3763V22.902Z" fill="#171717"/>
</g>
</svg>
