<svg width="144" height="32" viewBox="0 0 144 32" fill="none" xmlns="http://www.w3.org/2000/svg">
<g clip-path="url(#clip0_195_504)">
<mask id="mask0_195_504" style="mask-type:luminance" maskUnits="userSpaceOnUse" x="0" y="0" width="71" height="12">
<path d="M70.3291 0.610352H0.00109863V11.0616H70.3291V0.610352Z" fill="white"/>
</mask>
<g mask="url(#mask0_195_504)">
<path d="M11.8157 8.85004L9.8866 10.9185C9.84488 10.9634 9.79435 10.9993 9.73815 11.0238C9.68197 11.0484 9.62132 11.0611 9.56 11.0611H0.415179C0.371564 11.0611 0.328901 11.0484 0.292416 11.0245C0.255931 11.0006 0.227208 10.9665 0.209762 10.9266C0.192316 10.8866 0.186905 10.8424 0.194193 10.7994C0.20148 10.7564 0.221148 10.7164 0.25079 10.6844L2.17774 8.61598C2.21946 8.57106 2.26999 8.5352 2.32619 8.51066C2.38237 8.48613 2.44302 8.47343 2.50434 8.47336H11.6492C11.6931 8.47246 11.7365 8.48459 11.7736 8.50823C11.8107 8.53188 11.8401 8.56597 11.8579 8.60623C11.8757 8.6465 11.8812 8.69114 11.8736 8.73452C11.8661 8.77791 11.846 8.8181 11.8157 8.85004ZM9.8866 4.6837C9.84472 4.63898 9.79416 4.60327 9.738 4.57875C9.68185 4.55423 9.62127 4.54142 9.56 4.5411H0.415179C0.371564 4.54112 0.328901 4.55386 0.292416 4.57777C0.255931 4.60166 0.227208 4.63568 0.209762 4.67566C0.192316 4.71564 0.186905 4.75982 0.194193 4.80283C0.20148 4.84583 0.221148 4.88578 0.25079 4.91778L2.17774 6.98734C2.21962 7.03206 2.27019 7.06777 2.32634 7.0923C2.38249 7.11681 2.44307 7.12963 2.50434 7.12994H11.6492C11.6927 7.12971 11.7352 7.11681 11.7715 7.09284C11.8079 7.06886 11.8364 7.03483 11.8537 6.99489C11.871 6.95496 11.8764 6.91085 11.869 6.86794C11.8617 6.82504 11.8421 6.78519 11.8125 6.75328L9.8866 4.6837ZM0.415179 3.19767H9.56C9.62132 3.19762 9.68197 3.18491 9.73815 3.16037C9.79435 3.13585 9.84488 3.09999 9.8866 3.05506L11.8157 0.98659C11.846 0.95464 11.8661 0.914445 11.8736 0.871063C11.8812 0.827681 11.8757 0.783049 11.8579 0.742783C11.8401 0.702518 11.8107 0.668418 11.7736 0.644775C11.7365 0.621132 11.6931 0.609002 11.6492 0.609911H2.50434C2.44302 0.609975 2.38237 0.622672 2.32619 0.647209C2.26999 0.671746 2.21946 0.707597 2.17774 0.752527L0.25079 2.82099C0.221148 2.85299 0.20148 2.89294 0.194193 2.93594C0.186905 2.97895 0.192316 3.02314 0.209762 3.06311C0.227208 3.10309 0.255931 3.13711 0.292416 3.16101C0.328901 3.18491 0.371564 3.19765 0.415179 3.19767Z" fill="url(#paint0_linear_195_504)"/>
<path d="M11.8157 8.85004L9.8866 10.9185C9.84488 10.9634 9.79435 10.9993 9.73815 11.0238C9.68197 11.0484 9.62132 11.0611 9.56 11.0611H0.415179C0.371564 11.0611 0.328901 11.0484 0.292416 11.0245C0.255931 11.0006 0.227208 10.9665 0.209762 10.9266C0.192316 10.8866 0.186905 10.8424 0.194193 10.7994C0.20148 10.7564 0.221148 10.7164 0.25079 10.6844L2.17774 8.61598C2.21946 8.57106 2.26999 8.5352 2.32619 8.51066C2.38237 8.48613 2.44302 8.47343 2.50434 8.47336H11.6492C11.6931 8.47246 11.7365 8.48459 11.7736 8.50823C11.8107 8.53188 11.8401 8.56597 11.8579 8.60623C11.8757 8.6465 11.8812 8.69114 11.8736 8.73452C11.8661 8.77791 11.846 8.8181 11.8157 8.85004ZM9.8866 4.6837C9.84472 4.63898 9.79416 4.60327 9.738 4.57875C9.68185 4.55423 9.62127 4.54142 9.56 4.5411H0.415179C0.371564 4.54112 0.328901 4.55386 0.292416 4.57777C0.255931 4.60166 0.227208 4.63568 0.209762 4.67566C0.192316 4.71564 0.186905 4.75982 0.194193 4.80283C0.20148 4.84583 0.221148 4.88578 0.25079 4.91778L2.17774 6.98734C2.21962 7.03206 2.27019 7.06777 2.32634 7.0923C2.38249 7.11681 2.44307 7.12963 2.50434 7.12994H11.6492C11.6927 7.12971 11.7352 7.11681 11.7715 7.09284C11.8079 7.06886 11.8364 7.03483 11.8537 6.99489C11.871 6.95496 11.8764 6.91085 11.869 6.86794C11.8617 6.82504 11.8421 6.78519 11.8125 6.75328L9.8866 4.6837ZM0.415179 3.19767H9.56C9.62132 3.19762 9.68197 3.18491 9.73815 3.16037C9.79435 3.13585 9.84488 3.09999 9.8866 3.05506L11.8157 0.98659C11.846 0.95464 11.8661 0.914445 11.8736 0.871063C11.8812 0.827681 11.8757 0.783049 11.8579 0.742783C11.8401 0.702518 11.8107 0.668418 11.7736 0.644775C11.7365 0.621132 11.6931 0.609002 11.6492 0.609911H2.50434C2.44302 0.609975 2.38237 0.622672 2.32619 0.647209C2.26999 0.671746 2.21946 0.707597 2.17774 0.752527L0.25079 2.82099C0.221148 2.85299 0.20148 2.89294 0.194193 2.93594C0.186905 2.97895 0.192316 3.02314 0.209762 3.06311C0.227208 3.10309 0.255931 3.13711 0.292416 3.16101C0.328901 3.18491 0.371564 3.19765 0.415179 3.19767Z" fill="white"/>
<path d="M22.9649 5.02864H18.0725V3.41741H24.2365V1.80618H18.0561C17.8449 1.80503 17.6357 1.84549 17.4402 1.92523C17.2446 2.00499 17.0666 2.12247 16.9166 2.27097C16.7665 2.41948 16.6471 2.5961 16.5652 2.79075C16.4833 2.9854 16.4405 3.19427 16.4395 3.40543V5.03843C16.4403 5.24978 16.4828 5.45889 16.5645 5.65378C16.6463 5.84869 16.7656 6.02556 16.9157 6.1743C17.066 6.32304 17.244 6.44072 17.4396 6.5206C17.6352 6.60049 17.8448 6.64102 18.0561 6.63987H22.9551V8.2511H16.5559V9.86233H22.9649C23.1761 9.86348 23.3854 9.82301 23.5809 9.74327C23.7764 9.66351 23.9544 9.54603 24.1044 9.39753C24.2546 9.24902 24.374 9.07241 24.4559 8.87776C24.5377 8.6831 24.5805 8.47423 24.5816 8.26307V6.63007C24.5807 6.41873 24.5383 6.20962 24.4565 6.01472C24.3748 5.81982 24.2554 5.64294 24.1053 5.49421C23.9551 5.34547 23.7771 5.2278 23.5814 5.14791C23.3858 5.06802 23.1762 5.02749 22.9649 5.02864Z" fill="white"/>
<path d="M32.4428 1.80621H27.5319C27.3203 1.80449 27.1105 1.84452 26.9145 1.92401C26.7185 2.00351 26.5401 2.12089 26.3895 2.26946C26.2388 2.41802 26.1191 2.59483 26.037 2.78976C25.9548 2.9847 25.9119 3.19393 25.9108 3.40546V8.2631C25.9119 8.47463 25.9548 8.68386 26.037 8.8788C26.1191 9.07374 26.2388 9.25055 26.3895 9.39911C26.5401 9.54768 26.7185 9.66506 26.9145 9.74455C27.1105 9.82405 27.3203 9.86408 27.5319 9.86236H32.4428C32.654 9.8635 32.8633 9.82305 33.0588 9.7433C33.2543 9.66355 33.4323 9.54607 33.5824 9.39756C33.7325 9.24906 33.8519 9.07243 33.9338 8.87779C34.0156 8.68313 34.0584 8.47426 34.0595 8.2631V3.40546C34.0584 3.1943 34.0156 2.98543 33.9338 2.79078C33.8519 2.59613 33.7325 2.41951 33.5824 2.271C33.4323 2.1225 33.2543 2.00502 33.0588 1.92526C32.8633 1.84552 32.654 1.80506 32.4428 1.80621ZM32.4309 8.25113H27.5438V3.41744H32.4287L32.4309 8.25113Z" fill="white"/>
<path d="M49.6436 1.80627H44.8535C44.6423 1.80513 44.433 1.84558 44.2375 1.92533C44.042 2.00508 43.864 2.12256 43.714 2.27107C43.5639 2.41957 43.4444 2.5962 43.3626 2.79084C43.2807 2.9855 43.2379 3.19437 43.2368 3.40553V9.86242H44.8698V7.21587H49.6382V9.86242H51.2712V3.40553C51.2701 3.19344 51.227 2.98368 51.1445 2.78831C51.0618 2.59294 50.9415 2.41584 50.7902 2.26718C50.639 2.11853 50.4598 2.00128 50.263 1.92218C50.0661 1.84308 49.8557 1.80369 49.6436 1.80627ZM49.6317 5.60464H44.8633V3.4175H49.6317V5.60464Z" fill="white"/>
<path d="M68.7121 1.80618H63.922C63.7108 1.80503 63.5015 1.84549 63.306 1.92523C63.1105 2.00499 62.9326 2.12247 62.7825 2.27097C62.6323 2.41948 62.5129 2.5961 62.431 2.79075C62.3492 2.9854 62.3064 3.19427 62.3053 3.40543V9.86233H63.9383V7.21577H68.6958V9.86233H70.3288V3.40543C70.3277 3.19427 70.2849 2.9854 70.203 2.79075C70.1212 2.5961 70.0018 2.41948 69.8516 2.27097C69.7015 2.12247 69.5236 2.00499 69.3281 1.92523C69.1326 1.84549 68.9233 1.80503 68.7121 1.80618ZM68.6958 5.60454H63.9274V3.41741H68.6958V5.60454Z" fill="white"/>
<path d="M59.2239 8.25109H58.5707L56.2355 2.48114C56.1555 2.28208 56.0178 2.11147 55.8401 1.99122C55.6624 1.87095 55.4529 1.80651 55.2383 1.80617H53.7893C53.6484 1.80545 53.5088 1.83248 53.3785 1.8857C53.2481 1.93894 53.1295 2.01732 53.0294 2.11639C52.9293 2.21547 52.8497 2.33328 52.7952 2.46311C52.7407 2.59294 52.7122 2.73224 52.7115 2.87306V9.86232H54.3445V3.4174H54.9977L57.3318 9.18734C57.4131 9.38602 57.5519 9.55593 57.7304 9.67538C57.9087 9.79484 58.1187 9.8584 58.3334 9.85796H59.7824C59.9233 9.85868 60.0628 9.83166 60.1932 9.77842C60.3236 9.7252 60.4421 9.6468 60.5423 9.54774C60.6423 9.44867 60.7219 9.33085 60.7765 9.20103C60.831 9.07119 60.8594 8.9319 60.8602 8.79107V1.80617H59.2239V8.25109Z" fill="white"/>
<path d="M37.135 1.80615H35.502V8.26305C35.503 8.47467 35.546 8.68399 35.6282 8.87899C35.7104 9.07401 35.8303 9.25086 35.981 9.39944C36.1316 9.54803 36.3103 9.66538 36.5064 9.74481C36.7025 9.82424 36.9124 9.86416 37.1241 9.8623H42.0231V8.25107H37.135V1.80615Z" fill="white"/>
</g>
</g>
<path d="M13.0274 18.6969V31.3916H9.84905V22.9839L4.60115 28.2133H8.38924V31.3916H0.314135V28.2133L9.84905 18.6969H13.0274ZM20.2374 28.2133V31.3916H14.195V28.2133H15.6178V21.8936H14.195V18.6969H20.2374V21.8936H18.7961V28.2133H20.2374Z" fill="white"/>
<path d="M36.5695 18.3494V31.3916H33.3232V26.6835H29.7352V31.3916H26.4699V18.3494H29.7352V23.4182H33.3232V18.3494H36.5695ZM50.6828 18.3494V31.3916H47.4175V22.7538L42.026 28.1263H45.9177V31.3916H37.6216V28.1263L47.4175 18.3494H50.6828ZM61.5073 26.1899L63.7095 28.3731L60.71 31.3916H56.8182L51.8823 26.4937V23.2664L56.7803 18.3494H60.672L63.4247 21.1211L61.2226 23.3043L59.495 21.6337H57.9573L55.2046 24.3674V25.3546L57.9763 28.1263H59.533L61.5073 26.1899ZM78.4275 18.3494L78.5224 18.5393L72.2196 24.899L78.5224 31.2018L78.4275 31.3916H74.156L69.9225 27.1391L65.6891 31.3916H64.531V18.3494H67.7963V25.1648L74.137 18.3494H78.4275ZM92.1181 18.3494V31.3916H88.8528V22.7538L83.4613 28.1263H87.353V31.3916H79.0569V28.1263L88.8528 18.3494H92.1181ZM102.297 18.3494V21.6337H99.3356V31.3916H96.1083V21.6337H93.1468V18.3494H102.297ZM113.415 18.3494V31.3916H110.169V26.6835H106.58V31.3916H103.315V18.3494H106.58V23.4182H110.169V18.3494H113.415ZM128.306 23.2664V26.4937L123.465 31.3916H119.574L114.638 26.4937V23.2664L119.536 18.3494H123.409L128.306 23.2664ZM122.269 28.1263L125.041 25.4116V24.3864L122.232 21.6337H120.694L117.941 24.3674V25.3546L120.732 28.1263H122.269ZM142.06 18.3494V31.3916H140.066L132.435 23.741V31.3916H129.511V18.3494H131.903L139.136 26.076V18.3494H142.06Z" fill="white"/>
<defs>
<linearGradient id="paint0_linear_195_504" x1="1.17725" y1="11.3104" x2="10.7662" y2="0.499951" gradientUnits="userSpaceOnUse">
<stop offset="0.08" stop-color="#9945FF"/>
<stop offset="0.3" stop-color="#8752F3"/>
<stop offset="0.5" stop-color="#5497D5"/>
<stop offset="0.6" stop-color="#43B4CA"/>
<stop offset="0.72" stop-color="#28E0B9"/>
<stop offset="0.97" stop-color="#19FB9B"/>
</linearGradient>
<clipPath id="clip0_195_504">
<rect width="70.328" height="10.4512" fill="white" transform="translate(0 0.608887)"/>
</clipPath>
</defs>
</svg>
