<svg width="82" height="23" viewBox="0 0 82 23" fill="none" xmlns="http://www.w3.org/2000/svg">
	<path fill-rule="evenodd" clip-rule="evenodd" d="M1.50108 5.07776C1.83887 4.97324 2.25716 4.98526 3.09374 5.00932C4.21253 5.04149 4.77193 5.05758 5.30652 4.98385C6.32971 4.84273 7.3045 4.45961 8.14996 3.86628C8.59169 3.55629 8.99043 3.16362 9.78791 2.37829L10.3639 1.81113C11.1402 1.04663 11.5284 0.66438 11.9986 0.508133C12.2598 0.421349 12.5353 0.385978 12.8099 0.403975C13.3044 0.436377 13.7765 0.708182 14.7208 1.25179L18.9553 3.68958C19.9973 4.28949 20.5184 4.58945 20.8045 5.08432C21.0907 5.57919 21.0908 6.1804 21.0909 7.38281L21.0918 14.6351C21.0919 15.8362 21.092 16.4367 20.8065 16.9313C20.521 17.4259 20.0009 17.7262 18.9607 18.3267L12.6771 21.9546C11.6371 22.555 11.117 22.8553 10.546 22.8553C9.97501 22.8553 9.455 22.555 8.41497 21.9546L2.13106 18.3266C1.09103 17.7261 0.571015 17.4259 0.285507 16.9314C0 16.4368 0 15.8364 0 14.6355V8.01538C0 7.17845 0 6.75999 0.114193 6.42534C0.334346 5.78019 0.849859 5.27928 1.50108 5.07776ZM2.1818 8.71407V13.7784C2.1818 14.5871 2.1818 14.9914 2.29826 15.3544C2.40133 15.6755 2.56998 15.9718 2.79354 16.2244C3.04617 16.5098 3.39385 16.7162 4.08919 17.1291L7.93245 19.4108C8.89769 19.9839 9.38031 20.2705 9.85898 20.2993C10.2799 20.3248 10.698 20.215 11.0522 19.9861C11.455 19.7258 11.7346 19.2392 12.2939 18.2659L17.7797 8.71992C18.3064 7.80343 18.5698 7.34519 18.5959 6.89025C18.6189 6.48996 18.5166 6.09244 18.3031 5.75304C18.0605 5.36731 17.6086 5.09323 16.7048 4.54508L14.7372 3.35178C13.9429 2.87003 13.5457 2.62916 13.1507 2.60272C12.8033 2.57947 12.4577 2.66849 12.1648 2.85665C11.8317 3.07062 11.6003 3.47338 11.1375 4.27889L8.71783 8.49054C8.4976 8.87386 8.38749 9.06552 8.24018 9.13501C8.11153 9.19569 7.96361 9.20088 7.83103 9.14935C7.67921 9.09034 7.55595 8.90686 7.30944 8.53989L6.99056 8.0652C6.81021 7.79673 6.72002 7.66248 6.60122 7.56532C6.49603 7.47931 6.37498 7.41479 6.24493 7.37545C6.09803 7.33101 5.93631 7.331 5.61287 7.331H3.56487C3.08075 7.331 2.83869 7.331 2.65378 7.42522C2.49113 7.5081 2.35889 7.64033 2.27601 7.80298C2.1818 7.98789 2.1818 8.22995 2.1818 8.71407Z" fill="#787B7E" />
	<path d="M29.5659 18.0163C26.974 18.0163 26.1981 16.5635 26.6438 13.9551L26.8419 12.816H29.6649L29.3513 14.5494C29.2192 15.2593 29.3183 15.5235 29.698 15.5235C30.0777 15.5235 30.2428 15.3089 30.3748 14.5825L31.8936 5.94833H34.7002L33.2474 14.2358C32.7851 16.8937 31.7946 18.0163 29.5659 18.0163Z" fill="#787B7E" />
	<path d="M37.7426 16.6791C37.3463 17.5045 36.719 17.9833 35.811 17.9833C34.3087 17.9833 33.7309 17.0423 34.0611 15.1108L35.2827 8.17703H37.9902L36.8511 14.632C36.7685 15.2263 36.7355 15.6225 37.2143 15.6225C37.561 15.6225 37.7921 15.2593 37.9242 14.5329L39.0468 8.17703H41.7377L40.0373 17.8347H37.8416L37.7426 16.6791Z" fill="#787B7E" />
	<path d="M44.1685 7.91288C43.0129 7.91288 42.6827 7.54969 42.8643 6.57567C43.0459 5.5191 43.4421 5.23845 44.5317 5.23845C45.6213 5.23845 46.0175 5.55212 45.8359 6.57567C45.6543 7.61573 45.2251 7.91288 44.1685 7.91288ZM42.6662 8.24306C42.8808 8.42466 43.3431 8.52371 44.0364 8.52371C44.7463 8.52371 45.1755 8.40815 45.4397 8.22655L43.7558 17.8347H40.9823L42.6662 8.24306Z" fill="#787B7E" />
	<path d="M48.1238 18.0163C47.2984 18.0163 46.6545 17.8512 46.1923 17.5706C45.2843 16.9763 45.0201 15.8702 45.2678 14.4339L45.8786 10.9175C46.1923 9.15105 47.4634 8.04496 49.3455 8.04496C51.7723 8.04496 52.6307 9.39868 52.251 11.6934L52.1189 12.4693H49.4115L49.5931 11.4458C49.7417 10.5543 49.6591 10.3232 49.2134 10.3232C48.7511 10.3232 48.586 10.5378 48.4375 11.4293L47.8762 14.6485C47.7441 15.4244 47.8597 15.6721 48.3054 15.6721C48.7511 15.6721 48.8997 15.4079 49.0153 14.698L49.2464 13.3443H51.9539L51.6402 15.1438C51.3265 16.9597 50.1214 18.0163 48.1238 18.0163Z" fill="#787B7E" />
	<path d="M58.8782 15.1933C58.4654 17.2734 57.4584 18.0163 55.4278 18.0163C54.5859 18.0163 53.942 17.8512 53.4798 17.5706C52.5553 16.9763 52.2911 15.8702 52.5388 14.4504C52.5388 14.4504 52.5553 14.3183 52.6048 14.1037C52.6708 13.625 52.8029 12.8821 52.9185 12.2217C53.0505 11.5283 53.1331 11 53.1331 11C53.4467 9.16756 54.7344 8.02845 56.6165 8.02845C59.0267 8.02845 59.9512 9.39868 59.555 11.5613L59.1753 13.691H55.2627L55.0811 14.6815C54.9325 15.5235 55.0976 15.7546 55.5764 15.7546C56.0551 15.7546 56.2037 15.4079 56.3358 14.7145L56.4018 14.3679H59.0433L58.8782 15.1933ZM55.5434 12.0896H56.8971L57.0127 11.3963C57.1943 10.5543 57.0127 10.2571 56.5009 10.2571C55.9891 10.2571 55.8075 10.6038 55.6589 11.4458L55.5434 12.0896Z" fill="#787B7E" />
	<path d="M63.6882 17.9668C62.5986 17.9668 62.1364 17.4385 62.0703 16.481L61.5751 17.8347H59.2968L61.509 5.25496H64.1669L63.4405 9.34916C63.8533 8.45768 64.4476 8.04496 65.273 8.04496C66.6433 8.04496 67.3366 9.20058 66.8909 11.4623L66.3131 14.7971C65.8673 17.2074 64.9924 17.9668 63.6882 17.9668ZM62.9618 15.7216C63.3085 15.7216 63.5396 15.4574 63.6882 14.698L64.2495 11.4953C64.3981 10.6699 64.2825 10.3397 63.8368 10.3397C63.4406 10.3397 63.2094 10.5543 63.0608 11.3963L62.4995 14.599C62.351 15.3584 62.4995 15.7216 62.9618 15.7216Z" fill="#787B7E" />
	<path d="M70.0976 18.0163C69.2722 18.0163 68.6613 17.8677 68.1991 17.5541C67.2746 16.9267 66.994 15.8206 67.2416 14.4339L67.8359 11.0166C68.1496 9.18407 69.4208 8.04496 71.3028 8.04496C73.6966 8.04496 74.588 9.46472 74.2083 11.6934L73.5975 15.1438C73.2838 16.9597 72.0622 18.0163 70.0976 18.0163ZM70.2957 15.6721C70.6754 15.6721 70.9231 15.4244 71.0386 14.731L71.6329 11.3137C71.765 10.5543 71.5834 10.3232 71.1707 10.3232C70.824 10.3232 70.5599 10.5543 70.4443 11.2147L69.8335 14.731C69.7179 15.4409 69.949 15.6721 70.2957 15.6721Z" fill="#787B7E" />
	<path d="M75.9082 17.8347H73.0852L76.1559 12.75L74.9837 8.17703H77.7572L78.0379 10.3727L78.0214 10.7689L78.1204 10.3892L79.21 8.17703H82L79.2265 12.7335L80.4977 17.8347H77.7572L77.3115 15.573L77.328 14.9292L77.1299 15.573L75.9082 17.8347Z" fill="#787B7E" />
</svg>
