<svg width="206" height="65" viewBox="0 0 206 65" fill="none" xmlns="http://www.w3.org/2000/svg">
<g id="Clip path group">
<mask id="mask0_65_633" style="mask-type:luminance" maskUnits="userSpaceOnUse" x="0" y="0" width="206" height="65">
<g id="clip0_941_6962">
<path id="Vector" d="M205.534 0.972229H0.470947V64.8424H205.534V0.972229Z" fill="white"/>
</g>
</mask>
<g mask="url(#mask0_65_633)">
<g id="Group">
<path id="Vector_2" d="M128.292 43.3511C128.292 43.8005 128.656 44.1647 129.106 44.1647C129.555 44.1647 129.919 43.8005 129.919 43.3511V23.084C129.919 22.6347 129.555 22.2704 129.106 22.2704C128.656 22.2704 128.292 22.6347 128.292 23.084V43.3511Z" fill="#171717"/>
<path id="Vector_3" d="M88.1281 23.0774C88.1281 22.628 87.7639 22.2638 87.3144 22.2638C86.8653 22.2638 86.5007 22.628 86.5007 23.0774V43.3442C86.5007 43.7937 86.8653 44.1579 87.3144 44.1579C87.7639 44.1579 88.1281 43.7937 88.1281 43.3442V23.0774Z" fill="#171717"/>
<path id="Vector_4" d="M114.01 23.0682C114.01 23.0682 114.01 23.036 114.01 23.0198C113.994 22.8185 113.905 22.6332 113.768 22.5043C113.768 22.5043 113.688 22.4318 113.639 22.4077H113.623C113.623 22.4077 113.543 22.3513 113.502 22.3351C113.486 22.3351 113.478 22.3271 113.462 22.3191C113.43 22.311 113.39 22.2949 113.349 22.2868C113.333 22.2868 113.309 22.2868 113.285 22.2868C113.261 22.2868 113.229 22.2787 113.204 22.2787H113.188C113.188 22.2787 113.148 22.2787 113.132 22.2787C113.1 22.2787 113.067 22.2787 113.035 22.2949C113.027 22.2949 113.011 22.2949 113.003 22.3029C112.963 22.311 112.923 22.3271 112.882 22.3432C112.874 22.3432 112.858 22.3593 112.85 22.3593C112.818 22.3754 112.777 22.3915 112.745 22.4157C112.729 22.4318 112.713 22.4479 112.697 22.456C112.673 22.4721 112.649 22.4963 112.624 22.5124C112.608 22.5285 112.592 22.5446 112.584 22.5687C112.568 22.5929 112.544 22.6171 112.528 22.6413L100.276 41.8531L94.1375 32.2431C93.896 31.8645 93.3964 31.7518 93.0179 31.9934C92.6393 32.2351 92.5266 32.7345 92.7681 33.1131L99.591 43.8025C99.591 43.8025 99.6312 43.8586 99.6476 43.8828C99.6636 43.8992 99.6796 43.9152 99.6878 43.9312C99.7038 43.9476 99.728 43.9636 99.744 43.9796C99.7682 43.9956 99.7924 44.0198 99.8166 44.0362H99.8248C99.8248 44.0362 99.8568 44.0604 99.8809 44.0682C99.9051 44.0842 99.9293 44.0924 99.9535 44.1084C99.9777 44.1166 100.01 44.1248 100.034 44.1326C100.058 44.1326 100.082 44.149 100.098 44.149C100.131 44.149 100.155 44.1568 100.187 44.1568C100.211 44.1568 100.235 44.1568 100.252 44.1568C100.284 44.1568 100.308 44.1568 100.34 44.1568C100.364 44.1568 100.389 44.1568 100.412 44.149C100.445 44.149 100.469 44.1326 100.501 44.1248C100.525 44.1248 100.542 44.1166 100.566 44.1006C100.598 44.0842 100.63 44.0682 100.662 44.0522C100.679 44.0522 100.686 44.044 100.703 44.0362C100.703 44.0362 100.759 43.9878 100.783 43.9636C100.799 43.9476 100.815 43.9394 100.823 43.9234C100.839 43.907 100.864 43.8828 100.88 43.8586C100.896 43.8349 100.912 43.8184 100.928 43.7942H100.936L112.375 25.8553V43.3353C112.375 43.7865 112.737 44.149 113.188 44.149C113.639 44.149 114.002 43.7865 114.002 43.3353V23.0682H114.01Z" fill="#171717"/>
<path id="Vector_5" d="M165.539 22.2638H165.491C165.055 22.2638 164.701 22.6172 164.701 23.0532V35.5952C164.701 36.0312 165.055 36.3847 165.491 36.3847H165.539C165.975 36.3847 166.328 36.0312 166.328 35.5952V23.0532C166.328 22.6172 165.975 22.2638 165.539 22.2638Z" fill="#171717"/>
<path id="Vector_6" d="M166.079 42.7713L145.812 22.5044C145.498 22.1902 144.982 22.1902 144.66 22.5044C144.499 22.6655 144.418 22.8749 144.418 23.0844V43.3594C144.418 43.8106 144.781 44.1731 145.232 44.1731C145.683 44.1731 146.045 43.8106 146.045 43.3594V25.0418L164.927 43.9234C165.241 44.2375 165.757 44.2375 166.079 43.9234C166.393 43.6092 166.393 43.0937 166.079 42.7713Z" fill="#171717"/>
<path id="Vector_7" d="M75.143 42.9653L71.1393 35.1841C70.9298 34.7813 70.4466 34.6283 70.0439 34.8297C69.6412 35.0391 69.4882 35.5224 69.6895 35.9252L70.0115 36.5535H57.9612L64.7114 23.4476C64.9128 23.0529 64.7598 22.5615 64.3649 22.352C63.9703 22.1426 63.479 22.3037 63.2694 22.6984L52.8379 42.9653C52.6365 43.3603 52.7895 43.8516 53.184 44.0612C53.579 44.2704 54.0703 44.1092 54.2799 43.7146L57.1233 38.1887H70.8494L73.6928 43.7146C73.9024 44.1174 74.3855 44.2704 74.7886 44.069C75.1914 43.8594 75.3444 43.3763 75.143 42.9735V42.9653Z" fill="#171717"/>
<path id="Vector_8" d="M41.1098 42.6985L24.9751 31.9448V23.084C24.9751 22.633 24.6126 22.2704 24.1615 22.2704C23.7104 22.2704 23.3479 22.633 23.3479 23.084V43.3511C23.3479 43.8022 23.7104 44.1647 24.1615 44.1647C24.6126 44.1647 24.9751 43.8022 24.9751 43.3511V33.9023L40.2076 44.0602C40.5782 44.3017 41.0776 44.2049 41.3192 43.8346L41.3353 43.8182C41.5771 43.4478 41.4803 42.9483 41.1098 42.7067V42.6985Z" fill="#171717"/>
<path id="Vector_9" d="M41.0133 23.8029C41.3871 23.5537 41.4882 23.0486 41.2389 22.6747C40.9897 22.3008 40.4845 22.1998 40.1107 22.449L30.982 28.5348C30.6082 28.7841 30.5071 29.2892 30.7564 29.663C31.0056 30.0369 31.5107 30.1379 31.8846 29.8887L41.0133 23.8029Z" fill="#171717"/>
<path id="Vector_10" d="M203.883 29.6979C203.681 29.8993 203.609 30.1812 203.665 30.4632C203.826 31.2204 203.907 32.0339 203.907 32.912C203.907 34.6438 203.593 36.1421 202.964 37.4068C202.336 38.6715 201.474 39.7106 200.378 40.5323C199.283 41.3539 197.986 41.958 196.496 42.3529C195.005 42.7474 193.394 42.9406 191.671 42.9406C189.947 42.9406 188.32 42.7474 186.821 42.3529C185.323 41.958 184.018 41.3539 182.914 40.5323C181.811 39.7106 180.941 38.6715 180.313 37.4068C179.684 36.1421 179.37 34.6438 179.37 32.912C179.37 31.7601 179.515 30.7129 179.805 29.7704C180.095 28.8279 180.506 27.9821 181.03 27.2411C181.553 26.4919 182.189 25.8475 182.939 25.3078C183.688 24.7601 184.509 24.309 185.428 23.9464C186.338 23.584 187.321 23.3181 188.376 23.1409C189.423 22.9637 190.527 22.8832 191.679 22.8832C193.403 22.8832 195.014 23.0765 196.504 23.4712C196.56 23.4873 196.616 23.5034 196.673 23.5195C196.874 23.5759 197.092 23.5195 197.237 23.3665L197.406 23.1973C197.72 22.8832 197.583 22.3354 197.156 22.2226H197.148C195.457 21.7715 193.636 21.554 191.687 21.554C190.382 21.554 189.133 21.6507 187.941 21.8521C186.749 22.0454 185.637 22.3515 184.606 22.7623C183.567 23.1732 182.633 23.6806 181.787 24.3009C180.941 24.9212 180.224 25.6461 179.628 26.4919C179.032 27.3377 178.573 28.2963 178.242 29.3596C177.912 30.4309 177.751 31.6151 177.751 32.92C177.751 34.8855 178.105 36.5852 178.814 38.0109C179.523 39.4367 180.506 40.6209 181.762 41.5472C183.019 42.4735 184.493 43.1662 186.193 43.6095C187.893 44.0525 189.721 44.278 191.687 44.278C193.652 44.278 195.465 44.0525 197.148 43.6095C198.84 43.1662 200.298 42.4735 201.546 41.5472C202.787 40.6209 203.762 39.4367 204.478 38.0109C205.187 36.5852 205.542 34.8855 205.542 32.92C205.542 31.9131 205.445 30.9868 205.26 30.1248C205.123 29.4885 204.342 29.2549 203.89 29.714L203.883 29.6979Z" fill="#171717"/>
<path id="Vector_11" d="M201.595 26.1612C202.044 26.1612 202.408 25.797 202.408 25.3476C202.408 24.8983 202.044 24.5341 201.595 24.5341C201.145 24.5341 200.781 24.8983 200.781 25.3476C200.781 25.797 201.145 26.1612 201.595 26.1612Z" fill="#171717"/>
<path id="Vector_12" d="M57.5748 50.4886C57.3333 50.4886 57.0995 50.6096 56.9547 50.8028C50.9534 59.0193 41.3112 63.6832 31.1696 63.2805C15.4457 62.6522 2.63782 49.8443 2.03368 34.1122C1.71146 25.775 4.72414 17.8648 10.5078 11.8475C16.2996 5.82214 24.0729 2.51142 32.402 2.51142C42.0602 2.51142 51.2351 7.18347 56.9547 15.0132C57.0995 15.2065 57.3333 15.3273 57.5748 15.3273C57.8648 15.3273 58.1306 15.1663 58.2593 14.9085C58.3885 14.6507 58.3643 14.3366 58.1949 14.103C51.9762 5.59657 41.9958 0.690931 31.4999 0.988976C23.2674 1.21452 15.5262 4.59774 9.70229 10.5023C3.87028 16.4148 0.591783 24.2043 0.470954 32.4287C0.34207 41.0398 3.61251 49.1594 9.66202 55.3056C15.7196 61.4517 23.791 64.8349 32.394 64.8349C42.5355 64.8349 52.1776 59.9293 58.1872 51.7129C58.3643 51.4795 58.3885 51.1654 58.2515 50.9074C58.1224 50.6498 57.8566 50.4886 57.5666 50.4886H57.5748Z" fill="#171717"/>
</g>
</g>
</g>
</svg>
