<svg width="248" height="24" viewBox="0 0 248 24" fill="none" xmlns="http://www.w3.org/2000/svg">
<g id="svgexport-1 (10) 1" clip-path="url(#clip0_65_616)">
<path id="Vector" fill-rule="evenodd" clip-rule="evenodd" d="M17.3777 17.2599C17.5414 17.0187 17.5524 16.7019 17.4059 16.4495L8.28863 0.741817C8.15669 0.514471 7.91745 0.375122 7.65909 0.375122H1.25781C0.692004 0.375122 0.33995 1.00387 0.625992 1.50352L12.6043 22.4268C12.8747 22.8991 13.5324 22.925 13.8376 22.4755L17.3777 17.2599ZM33.9062 23.4388C34.4716 23.4388 34.8237 22.8108 34.5385 22.3112L22.2285 0.746524C22.0972 0.516517 21.8565 0.375122 21.5962 0.375122H15.1985C14.6327 0.375122 14.2806 1.00387 14.5667 1.50352L26.9122 23.0682C27.0436 23.2978 27.2841 23.4388 27.544 23.4388H33.9062ZM6.30635 22.1029C6.5959 22.6025 6.24408 23.2348 5.67652 23.2348H1.28714C0.882707 23.2348 0.55485 22.8993 0.55485 22.4854V14.9123C0.55485 14.1501 1.53704 13.8744 1.91695 14.5299L6.30635 22.1029ZM50.4199 23.4388H46.6518V0.375122H50.3541L60.799 18.5625L71.2113 0.375122H74.9135V23.4388H71.1455V8.18381L62.3861 23.4388H59.1798L50.4199 8.18381V23.4388ZM98.2468 23.4388H83.6701V0.375122H98.2468V4.1312H87.4381V10.0289H98.2468V13.785H87.4381V19.6827H98.2468V23.4388ZM112.671 23.4388H116.439V4.1312H125.165V0.375122H103.911V4.1312H112.671V23.4388ZM151.819 23.4388H147.687L145.803 19.4191H132.647L130.796 23.4388H126.665L137.407 0.375122H141.076L151.819 23.4388ZM139.225 5.28437L134.399 15.663H144.051L139.225 5.28437ZM158.344 23.4388H162.112V16.1902H166.972C171.599 16.1902 174.938 12.8625 174.938 8.28265C174.938 3.73583 171.599 0.375122 166.972 0.375122H158.344V23.4388ZM162.112 12.4341V4.1312H166.972C169.417 4.1312 171.169 5.87744 171.169 8.28265C171.169 10.6879 169.417 12.4341 166.972 12.4341H162.112ZM196.838 23.4388H182.063V0.375122H185.831V19.6827H196.838V23.4388ZM203.458 23.4388H218.035V19.6827H207.226V13.785H218.035V10.0289H207.226V4.1312H218.035V0.375122H203.458V23.4388ZM228.789 23.4388H223.93L233.285 11.907L223.93 0.375122H228.789L235.73 8.90868L242.672 0.375122H247.498L238.143 11.907L247.498 23.4388H242.639L235.73 14.9052L228.789 23.4388Z" fill="#171717"/>
</g>
<defs>
<clipPath id="clip0_65_616">
<rect width="246.974" height="23.0637" fill="white" transform="translate(0.525146 0.375183)"/>
</clipPath>
</defs>
</svg>
