<svg width="182" height="44" viewBox="0 0 182 44" fill="none" xmlns="http://www.w3.org/2000/svg">
<path fill-rule="evenodd" clip-rule="evenodd" d="M21.8113 43.6226C33.8573 43.6226 43.6226 33.8573 43.6226 21.8113C43.6226 9.76525 33.8573 0 21.8113 0C9.76525 0 0 9.76525 0 21.8113C0 33.8573 9.76525 43.6226 21.8113 43.6226ZM40.2851 18.32C39.1648 12.3556 35.2275 7.38476 29.9075 4.84199C28.6926 4.26133 28.0852 3.97099 27.9973 4.10237C27.9095 4.23375 28.4322 4.70431 29.4778 5.64544C33.0129 8.82758 35.9255 13.8902 36.5494 16.0739C35.7649 16.6623 34.196 17.4467 33.2786 17.6959C33.4396 19.0061 33.5241 20.3633 33.5241 21.7529C33.5241 22.5945 33.5055 23.4283 33.4666 24.2503C33.4439 24.7295 33.4325 24.9691 33.5853 25.0853C33.738 25.2014 33.9585 25.1289 34.3994 24.9839C35.6097 24.5858 36.6202 24.14 37.402 23.6701C38.3889 23.0768 39.4816 22.2676 39.9379 21.4463C40.3942 20.6249 40.4855 19.3873 40.2851 18.32ZM20.3068 5.83919C20.3068 5.59019 20.3068 5.4657 20.2193 5.40749C20.1318 5.34929 20.0219 5.39538 19.802 5.48757C18.0376 6.22744 16.5023 7.80459 15.3165 10.217C14.7695 11.3296 14.315 12.5885 13.96 13.9639C13.8993 14.199 13.8689 14.3166 13.934 14.3894C13.9991 14.4621 14.1213 14.4448 14.3657 14.41C16.2291 14.1453 18.2273 13.9782 20.3068 13.9236V5.83919ZM20.3068 16.9386C18.3902 16.9918 16.5674 17.1453 14.8829 17.3808C14.1213 17.4874 13.7405 17.5406 13.4757 17.8246C13.2109 18.1086 13.1846 18.489 13.132 19.2498C13.0758 20.0642 13.0472 20.8994 13.0472 21.7517C13.0472 22.729 13.0895 23.7002 13.1702 24.6545C13.2238 25.2884 13.2506 25.6053 13.4686 25.8369C13.6867 26.0686 14.0031 26.1147 14.6359 26.207C16.8218 26.5257 19.2471 26.7052 21.8113 26.7052C22.0001 26.7052 22.1883 26.7043 22.3757 26.7023C22.7025 26.699 22.9624 26.9854 22.9266 27.3103C22.7716 28.7185 21.537 29.7197 20.1211 29.669C17.9193 29.5902 15.6241 29.4096 13.8524 29.1372C13.853 29.1395 13.8535 29.1419 13.854 29.1442C13.1864 29.0411 12.4695 28.9224 11.9887 28.8216C11.4405 28.7067 10.7858 28.5466 10.2579 28.4123C9.99617 28.3458 9.76988 28.2866 9.60929 28.2442C9.52904 28.223 9.46536 28.206 9.42203 28.1944L9.42084 28.1941C8.94015 28.0585 8.47728 27.915 8.0338 27.764C6.24325 27.1543 4.68602 26.3945 3.54611 25.4768C3.47573 25.4202 3.40617 25.3622 3.33763 25.3031C4.44898 31.2193 8.33213 36.1579 13.587 38.7188C14.1679 39.0019 14.4583 39.1434 14.55 39.0343C14.6416 38.9252 14.4434 38.6516 14.0469 38.1044C13.3705 37.1709 12.7745 36.0889 12.2595 34.9174C12.0529 34.4473 11.857 33.9576 11.6726 33.4507C11.3982 32.6964 11.261 32.3192 11.462 32.0775C11.6629 31.8357 12.0762 31.9046 12.9026 32.0423C13.1752 32.0878 13.4343 32.1293 13.653 32.1624C14.3341 32.2656 14.8995 32.7342 15.162 33.371C15.2219 33.5165 15.2829 33.6598 15.3449 33.8008C16.0482 35.4006 16.8458 36.6289 17.6517 37.4312C18.4621 38.2381 19.1352 38.4798 19.6347 38.4798C21.6064 38.4798 23.2554 37.2269 24.4746 34.1378C24.9874 32.8384 25.38 31.3046 25.662 29.5884C25.6571 29.5887 25.6523 29.5891 25.6474 29.5894C25.8232 28.5708 25.9404 27.6092 26.0268 26.5389C26.0291 26.5388 26.0313 26.5386 26.0336 26.5384C26.161 25.0303 26.2223 23.4261 26.2223 21.7517C26.2223 20.8376 26.1908 19.9407 26.1303 19.0661C24.4572 19.1704 22.3196 19.2311 20.3116 19.146V19.099H20.3068V16.9386ZM9.72539 21.7517C9.72539 22.595 9.75461 23.4366 9.81132 24.2704C9.83501 24.6187 9.84685 24.7929 9.76827 24.9003C9.72749 24.9561 9.6704 24.9999 9.60603 25.025C9.48197 25.0733 9.32308 25.0192 9.00529 24.911C7.39419 24.3624 6.19861 23.743 5.43612 23.1291C4.66007 22.5044 4.52089 22.0495 4.52089 21.8116C4.52089 21.5792 4.6525 21.141 5.38429 20.5363C6.10592 19.9399 7.24187 19.3333 8.7821 18.7895C8.80277 18.7822 8.82349 18.775 8.84427 18.7677C9.29424 18.6105 9.51922 18.5318 9.67509 18.6493C9.83097 18.7668 9.81685 19.0139 9.78861 19.5083C9.74644 20.2466 9.72539 20.9953 9.72539 21.7517ZM12.2828 8.98937C11.5687 10.4421 11.0054 12.0691 10.5914 13.8199C10.4307 14.4995 10.3504 14.8392 10.1492 15.0527C9.94811 15.2662 9.61437 15.3665 8.9469 15.567C8.54368 15.6881 8.15398 15.8151 7.77881 15.9475C6.05816 16.5549 4.56085 17.3069 3.46444 18.2129C3.42179 18.2481 3.37947 18.2839 3.33753 18.3201C4.51015 12.0767 8.76953 6.92203 14.4704 4.50134C15.2379 4.17544 15.6217 4.01249 15.7062 4.13525C15.7907 4.258 15.487 4.57327 14.8798 5.20381C13.8429 6.28042 12.9799 7.57112 12.2828 8.98937ZM29.1442 38.2109C28.5498 38.8836 28.2526 39.22 28.3405 39.3387C28.4283 39.4574 28.8155 39.2812 29.5899 38.9288C34.7615 36.5749 38.6791 31.9462 40.0642 26.321C40.1661 25.9072 40.2171 25.7003 40.1141 25.6286C40.0112 25.557 39.8262 25.6824 39.4561 25.9333C39.2917 26.0448 39.1241 26.1514 38.9548 26.2532C37.7415 26.9825 36.2157 27.6066 34.4751 28.1156C33.7773 28.3197 33.4284 28.4217 33.2219 28.647C33.0153 28.8724 32.9441 29.2284 32.8016 29.9403C32.4028 31.934 31.824 33.7691 31.0294 35.365C30.4991 36.4301 29.8721 37.3872 29.1442 38.2109Z" fill="white" fill-opacity="0.6"/>
<path d="M69.4268 19.472C75.5725 20.3047 80.1719 21.7321 80.1719 27.6002C80.1719 32.1203 76.4052 36.2438 69.07 36.2438C61.3383 36.2438 57.9681 31.248 57.9681 26.0935H61.9331C62.0124 28.869 63.4794 32.7547 69.07 32.7547C74.5416 32.7547 76.0483 29.9395 76.0483 27.8381C76.0483 25.3798 74.502 24.0317 69.0304 23.3577C62.5278 22.5647 58.9197 20.3047 58.9197 15.5467C58.9197 11.1853 62.6468 7.6961 69.1097 7.6961C75.969 7.6961 78.9824 12.0576 79.1014 16.5776H75.2553C75.2553 14.1193 73.5901 11.1853 69.0304 11.1853C64.3517 11.1853 63.0036 13.4849 63.0036 15.3088C63.0036 17.0138 63.757 18.7187 69.4268 19.472Z" fill="white" fill-opacity="0.6"/>
<path d="M101.742 25.4988C101.742 26.0539 101.703 26.4504 101.623 26.8865H86.4771C86.7547 30.1378 88.975 32.7547 92.6625 32.7547C95.3983 32.7547 96.7464 31.4066 97.4601 29.0672H101.385C100.553 32.834 97.7773 36.2438 92.5832 36.2438C86.1996 36.2438 82.7104 31.5255 82.7104 25.7763C82.7104 19.6703 86.6754 15.3088 92.5039 15.3088C97.0239 15.3088 101.742 18.2826 101.742 25.4988ZM86.6754 23.7145H97.9358C97.698 20.7408 95.7948 18.6394 92.7021 18.6394C88.8957 18.6394 87.2305 20.9787 86.6754 23.7145Z" fill="white" fill-opacity="0.6"/>
<path d="M115.791 15.3088C120.47 15.3088 123.324 17.9257 123.324 23.8731V35.9266H119.518V24.6661C119.518 19.9478 117.496 18.6394 114.839 18.6394C111.905 18.6394 108.733 21.6131 108.733 26.4504V35.9266H104.927V15.626H108.733V16.9741C108.733 17.8068 108.654 18.6394 108.297 19.6703C108.178 20.0271 108.02 20.4236 108.337 20.5029C108.575 20.5822 108.694 20.3047 108.773 20.1461C109.566 18.1636 112.143 15.3088 115.791 15.3088Z" fill="white" fill-opacity="0.6"/>
<path d="M142.363 7.37891H146.169V35.9266H142.363V34.2217C142.363 33.508 142.442 32.9529 142.759 32.0806C142.878 31.7634 143.077 31.4066 142.68 31.2876C142.442 31.2083 142.323 31.5255 142.284 31.6445C141.332 34.4992 138.636 36.2438 135.464 36.2438C130.19 36.2438 126.503 31.8031 126.503 25.7763C126.503 19.7496 130.19 15.3088 135.464 15.3088C138.715 15.3088 141.372 17.0931 142.284 19.8289C142.323 19.9478 142.442 20.3443 142.759 20.2254C143.116 20.1064 142.878 19.7099 142.759 19.3927C142.442 18.5601 142.363 17.9654 142.363 17.212V7.37891ZM136.257 32.7547C139.865 32.7547 142.363 29.543 142.363 25.7763C142.363 22.0096 139.865 18.798 136.257 18.798C132.292 18.798 130.309 22.0096 130.309 25.7763C130.309 29.543 132.292 32.7547 136.257 32.7547Z" fill="white" fill-opacity="0.6"/>
<path d="M170.744 35.9266L168.484 29.2655H155.558L153.298 35.9266H148.699L158.849 8.0133H165.193L175.343 35.9266H170.744ZM156.708 25.7763H167.334L162.735 12.1369C162.576 11.6214 162.418 11.1456 162.338 10.4716C162.299 10.2337 162.299 9.99578 162.021 9.99578C161.744 9.99578 161.744 10.2337 161.704 10.4716C161.625 11.1456 161.466 11.6214 161.307 12.1369L156.708 25.7763Z" fill="white" fill-opacity="0.6"/>
<path d="M182 35.9266H177.876V8.0133H182V35.9266Z" fill="white" fill-opacity="0.6"/>
</svg>
