<svg width="226" height="71" viewBox="0 0 226 71" fill="none" xmlns="http://www.w3.org/2000/svg">
	<path fill-rule="evenodd" clip-rule="evenodd" d="M32.6667 68.1493C50.6983 68.1493 65.3161 53.5317 65.3161 35.5C65.3161 17.4683 50.6983 2.85071 32.6667 2.85071C14.6351 2.85071 0.017334 17.4683 0.017334 35.5C0.017334 53.5317 14.6351 68.1493 32.6667 68.1493ZM40.9426 25.0046C44.14 25.3057 46.372 26.0224 50.3462 27.5088C51.041 27.7686 51.4642 28.4733 51.3677 29.2086C50.9105 32.6852 50.4771 34.6297 49.1217 37.5526C48.7515 38.3508 47.8041 38.6978 47.006 38.3277C46.2078 37.9576 45.8607 37.0105 46.2309 36.2122C47.0121 34.5278 47.438 33.2548 47.7627 31.6239C46.288 32.2695 45.2641 32.7332 44.3667 33.2267C43.0814 33.934 42.0616 34.7037 40.3698 36.2519C39.7205 36.846 38.7129 36.8012 38.1187 36.1521C37.5248 35.503 37.5697 34.4952 38.2186 33.9013C40.0084 32.2637 41.2383 31.3114 42.8309 30.4352C43.5889 30.018 44.4313 29.6183 45.4487 29.1627C43.7239 28.6232 42.3461 28.3371 40.6437 28.1768C39.7677 28.0944 39.1246 27.3174 39.2072 26.4414C39.2894 25.5655 40.0665 24.9221 40.9426 25.0046ZM28.0362 42.881C26.8597 42.881 25.8746 43.8575 26.2393 44.976C26.2981 45.1568 26.3648 45.3352 26.4392 45.5112C26.791 46.3449 27.3071 47.1026 27.9577 47.7408C28.608 48.379 29.3803 48.8853 30.2302 49.2306C31.08 49.5761 31.991 49.7538 32.9109 49.7538C33.8308 49.7538 34.7418 49.5761 35.5916 49.2306C36.4415 48.8853 37.2138 48.379 37.8641 47.7408C38.5147 47.1026 39.0308 46.3449 39.3826 45.5112C39.4332 45.3914 39.4801 45.2705 39.5237 45.1484C39.5441 45.0913 39.5638 45.0337 39.5825 44.976C39.9476 43.8575 38.9621 42.881 37.7856 42.881H28.0362ZM15.0405 27.6462C17.9602 26.3081 20.2517 25.8129 24.4367 25.113C25.1679 24.9906 25.8872 25.3893 26.171 26.0744C27.5134 29.3138 28.1103 31.2146 28.3979 34.4236C28.4764 35.2999 27.8299 36.074 26.9535 36.1526C26.0772 36.2311 25.3028 35.5844 25.2243 34.708C25.0587 32.8587 24.7909 31.5433 24.2568 29.9685C23.3023 31.2651 22.6476 32.1786 22.1173 33.0546C21.3579 34.3098 20.8595 35.4862 20.1681 37.6731C19.9029 38.5121 19.0079 38.9772 18.1689 38.712C17.33 38.4468 16.8649 37.5517 17.1301 36.7128C17.8613 34.3998 18.4504 32.9601 19.3913 31.4049C19.6415 30.9918 19.9169 30.5702 20.2249 30.1213C20.4689 29.7658 20.7334 29.3932 21.0223 28.994C19.2588 29.3893 17.9225 29.8305 16.368 30.5428C15.5681 30.9093 14.6227 30.5581 14.2559 29.7582C13.8895 28.9583 14.2406 28.0128 15.0405 27.6462Z" fill="white" />
	<path d="M96.7504 57.2124C87.4892 57.2124 82.132 53.8784 80.3652 49.8604C79.9378 48.9201 79.7383 47.9512 79.7383 47.0108C79.7383 44.1042 81.9325 42.1095 84.9246 42.1095C87.2043 42.1095 88.7431 42.8219 90.3673 45.1016C91.7921 47.1248 94.1858 47.9512 96.8929 47.9512C100.512 47.9512 102.735 46.4694 102.735 44.4462C102.735 42.5085 101.139 41.6821 96.5225 40.8557L92.3905 40.1148C84.2122 38.6615 79.7383 34.5296 79.7383 28.1465C79.7383 19.8827 86.8623 14.6679 96.6364 14.6679C104.786 14.6679 110.628 17.546 112.765 22.6753C113.107 23.5016 113.278 24.271 113.278 25.2114C113.278 27.947 111.283 29.7993 108.263 29.8278C105.698 29.8278 104.074 28.9444 102.621 26.7502C101.281 24.6985 99.3721 23.9291 96.7789 23.9291C93.4164 23.9291 91.7066 25.4109 91.7066 27.2631C91.7066 29.1154 93.4734 29.9987 97.5768 30.7396L101.709 31.4805C110.542 33.0763 114.703 36.6953 114.703 43.3633C114.703 51.8267 108.092 57.2124 96.7504 57.2124ZM134.194 57.2979C123.879 57.2979 117.752 51.1712 117.752 40.9412C117.752 30.6541 123.936 24.2425 133.824 24.2425C143.569 24.2425 149.867 30.4547 149.867 38.918C149.867 41.7106 148.271 43.2494 145.365 43.2494H129.008V43.9903C129.008 47.0678 131.231 49.2905 134.365 49.2905C136.901 49.2905 138.725 48.5211 140.948 46.5549C142.173 45.4721 143.085 45.1016 144.51 45.1016C146.761 45.1016 148.784 46.5549 148.784 49.0625C148.784 49.9459 148.528 50.8008 148.015 51.6272C145.906 55.1322 140.606 57.2979 134.194 57.2979ZM129.179 36.9233H138.981C138.782 34.1022 136.816 32.2784 134.08 32.2784C131.43 32.2784 129.407 34.2161 129.179 36.9233ZM159.271 57.2124C155.851 57.2124 153.429 55.3032 153.429 51.1712V30.1982C153.429 26.4652 155.452 24.328 159.1 24.328C162.747 24.328 165.112 26.4652 165.112 30.2267V30.9391H165.34C166.936 26.5222 169.928 24.4135 174.715 24.4135C181.782 24.4135 185.658 28.8019 185.658 36.3533V51.1712C185.658 55.3032 183.236 57.2124 179.816 57.2124C176.397 57.2124 173.975 55.3032 173.975 51.1712V38.9465C173.975 35.7834 172.493 33.8457 169.558 33.8457C166.794 33.8457 165.112 35.9829 165.112 38.918V51.1712C165.112 55.3032 162.69 57.2124 159.271 57.2124ZM201.359 56.9559C193.608 56.9559 189.106 50.9433 189.106 40.6847C189.106 30.5686 193.722 24.5845 201.559 24.5845C206.147 24.5845 209.566 27.1776 210.791 30.7111H211.019V20.709C211.019 16.5771 213.442 14.6679 216.861 14.6679C220.281 14.6679 222.703 16.5771 222.703 20.7375V51.1712C222.703 55.3032 220.281 57.2124 216.861 57.2124C213.442 57.2124 211.019 55.3032 211.019 51.1712V51.0573H210.791C209.737 54.3628 206.09 56.9559 201.359 56.9559ZM206.061 47.9512C209.224 47.9512 211.076 45.3296 211.076 40.7987C211.076 36.2963 209.196 33.5892 206.061 33.5892C202.926 33.5892 201.074 36.3248 201.074 40.7702C201.074 45.2726 202.898 47.9512 206.061 47.9512Z" fill="white" />
</svg>
