<svg width="97" height="24" viewBox="0 0 97 24" fill="none" xmlns="http://www.w3.org/2000/svg">
	<path fill-rule="evenodd" clip-rule="evenodd" d="M11.782 23.847C18.1375 23.847 23.2897 18.6949 23.2897 12.3394C23.2897 5.98392 18.1375 0.831787 11.782 0.831787C5.42655 0.831787 0.274414 5.98392 0.274414 12.3394C0.274414 18.6949 5.42655 23.847 11.782 23.847ZM21.5288 10.4974C20.9377 7.35059 18.8604 4.72798 16.0536 3.38642C15.4126 3.08006 15.0921 2.92688 15.0458 2.99619C14.9994 3.06551 15.2752 3.31378 15.8269 3.81032C17.692 5.48921 19.2287 8.16025 19.5578 9.31236C19.1439 9.62278 18.3162 10.0367 17.8322 10.1681C17.9171 10.8594 17.9617 11.5755 17.9617 12.3086C17.9617 12.7526 17.9519 13.1925 17.9313 13.6262C17.9194 13.879 17.9134 14.0055 17.994 14.0668C18.0746 14.128 18.1909 14.0898 18.4235 14.0132C19.0621 13.8032 19.5952 13.568 20.0077 13.3201C20.5284 13.0071 21.1049 12.5802 21.3456 12.1468C21.5864 11.7135 21.6345 11.0605 21.5288 10.4974ZM10.9883 3.91254C10.9883 3.78117 10.9883 3.71548 10.9421 3.68478C10.8959 3.65407 10.8379 3.67839 10.722 3.72702C9.79105 4.11738 8.98103 4.94948 8.35538 6.22226C8.06681 6.80929 7.82699 7.47348 7.63968 8.19911C7.60766 8.32317 7.59165 8.38521 7.62598 8.4236C7.66031 8.46199 7.72479 8.45283 7.85375 8.43451C8.83688 8.29482 9.8911 8.20668 10.9883 8.17788V3.91254ZM10.9883 9.7686C9.97706 9.79663 9.01534 9.87761 8.12663 10.0019C7.72478 10.0581 7.52386 10.0862 7.38417 10.236C7.24448 10.3859 7.23061 10.5866 7.20287 10.988C7.17318 11.4176 7.15809 11.8583 7.15809 12.3079C7.15809 12.8236 7.18042 13.336 7.22299 13.8395C7.25127 14.1739 7.2654 14.3411 7.38045 14.4633C7.49549 14.5855 7.66243 14.6099 7.9963 14.6586C9.14956 14.8267 10.4291 14.9214 11.782 14.9214C11.8817 14.9214 11.9809 14.9209 12.0798 14.9199C12.2522 14.9181 12.3894 15.0693 12.3705 15.2407C12.2887 15.9837 11.6373 16.5119 10.8903 16.4851C9.72861 16.4435 8.51765 16.3483 7.58294 16.2045C7.58322 16.2058 7.5835 16.207 7.58377 16.2082C7.23152 16.1539 6.85332 16.0912 6.59962 16.038C6.31043 15.9774 5.96499 15.893 5.68647 15.8221C5.54839 15.787 5.42899 15.7558 5.34426 15.7334C5.30193 15.7222 5.26833 15.7132 5.24547 15.7071L5.24484 15.7069C4.99123 15.6354 4.74702 15.5597 4.51304 15.4801C3.56835 15.1584 2.74675 14.7575 2.14534 14.2733C2.1082 14.2434 2.07151 14.2129 2.03534 14.1817C2.62169 17.3031 4.67044 19.9086 7.44292 21.2598C7.74938 21.4091 7.90261 21.4838 7.95096 21.4262C7.99931 21.3687 7.89473 21.2243 7.68556 20.9357C7.32869 20.4431 7.01423 19.8722 6.74251 19.2542C6.63349 19.0062 6.53015 18.7478 6.43286 18.4804C6.28808 18.0824 6.21569 17.8834 6.32173 17.7558C6.42777 17.6283 6.64578 17.6646 7.08182 17.7373C7.22565 17.7613 7.36233 17.7832 7.47774 17.8007C7.83707 17.8551 8.13535 18.1023 8.27385 18.4383C8.30549 18.5151 8.33766 18.5907 8.37037 18.6651C8.74142 19.5091 9.16225 20.1572 9.58741 20.5804C10.015 21.0062 10.3701 21.1337 10.6337 21.1337C11.6739 21.1337 12.5439 20.4727 13.1872 18.8428C13.4577 18.1573 13.6649 17.3481 13.8137 16.4426C13.8111 16.4428 13.8085 16.443 13.806 16.4431C13.8987 15.9057 13.9605 15.3983 14.0061 14.8337C14.0073 14.8336 14.0085 14.8335 14.0097 14.8334C14.0769 14.0378 14.1093 13.1914 14.1093 12.3079C14.1093 11.8257 14.0927 11.3525 14.0607 10.891C13.178 10.9461 12.0502 10.9781 10.9908 10.9332V10.9084H10.9883V9.7686ZM5.40552 12.3079C5.40552 12.7529 5.42094 13.1969 5.45086 13.6368C5.46336 13.8206 5.4696 13.9125 5.42814 13.9692C5.40663 13.9986 5.37651 14.0217 5.34254 14.0349C5.27709 14.0604 5.19326 14.0319 5.0256 13.9748C4.17558 13.6853 3.54479 13.3586 3.1425 13.0347C2.73306 12.7051 2.65963 12.4651 2.65963 12.3395C2.65963 12.217 2.72907 11.9857 3.11516 11.6667C3.49589 11.3521 4.09522 11.032 4.90784 10.7451C4.91874 10.7413 4.92968 10.7374 4.94064 10.7336C5.17804 10.6506 5.29674 10.6092 5.37898 10.6711C5.46122 10.7331 5.45377 10.8635 5.43888 11.1243C5.41662 11.5139 5.40552 11.9089 5.40552 12.3079ZM6.75479 5.57457C6.37802 6.34104 6.08086 7.19944 5.86242 8.12318C5.77764 8.4817 5.73525 8.66096 5.62914 8.7736C5.52303 8.88623 5.34695 8.93913 4.99479 9.04492C4.78205 9.10883 4.57645 9.17579 4.3785 9.24567C3.47069 9.56615 2.68072 9.96289 2.10225 10.4409C2.07975 10.4595 2.05742 10.4783 2.03529 10.4974C2.65396 7.20344 4.90121 4.48384 7.90897 3.20669C8.31391 3.03474 8.51639 2.94877 8.56097 3.01354C8.60555 3.07831 8.44536 3.24464 8.12497 3.57731C7.57794 4.14533 7.12261 4.8263 6.75479 5.57457ZM15.6509 20.9918C15.3373 21.3467 15.1805 21.5242 15.2268 21.5868C15.2732 21.6495 15.4775 21.5565 15.886 21.3706C18.6146 20.1287 20.6814 17.6866 21.4123 14.7187C21.466 14.5004 21.4929 14.3912 21.4386 14.3534C21.3843 14.3156 21.2867 14.3818 21.0914 14.5142C21.0047 14.573 20.9163 14.6292 20.8269 14.6829C20.1868 15.0678 19.3818 15.397 18.4634 15.6656C18.0953 15.7732 17.9112 15.827 17.8022 15.9459C17.6933 16.0648 17.6557 16.2527 17.5805 16.6283C17.3701 17.6801 17.0647 18.6483 16.6455 19.4903C16.3657 20.0523 16.0349 20.5572 15.6509 20.9918Z" fill="white" />
	<path d="M36.9041 11.1053C40.1466 11.5446 42.5732 12.2977 42.5732 15.3937C42.5732 17.7785 40.5859 19.9541 36.7159 19.9541C32.6366 19.9541 30.8585 17.3183 30.8585 14.5988H32.9504C32.9923 16.0631 33.7663 18.1132 36.7159 18.1132C39.6027 18.1132 40.3976 16.6279 40.3976 15.5192C40.3976 14.2222 39.5818 13.511 36.6949 13.1554C33.2642 12.737 31.3606 11.5446 31.3606 9.03431C31.3606 6.73321 33.327 4.89233 36.7368 4.89233C40.3558 4.89233 41.9456 7.19343 42.0084 9.57821H39.9792C39.9792 8.28122 39.1006 6.73321 36.6949 6.73321C34.2265 6.73321 33.5152 7.94652 33.5152 8.90879C33.5152 9.80832 33.9127 10.7078 36.9041 11.1053Z" fill="white" />
	<path d="M53.9537 14.285C53.9537 14.5779 53.9328 14.7871 53.8909 15.0172H45.8998C46.0463 16.7325 47.2177 18.1132 49.1632 18.1132C50.6066 18.1132 51.3179 17.4019 51.6944 16.1677H53.7654C53.3261 18.155 51.8618 19.9541 49.1214 19.9541C45.7534 19.9541 43.9125 17.4647 43.9125 14.4314C43.9125 11.2099 46.0044 8.90879 49.0795 8.90879C51.4643 8.90879 53.9537 10.4777 53.9537 14.285ZM46.0044 13.3436H51.9455C51.8199 11.7747 50.8158 10.666 49.1841 10.666C47.1759 10.666 46.2973 11.9002 46.0044 13.3436Z" fill="white" />
	<path d="M61.3658 8.90879C63.8342 8.90879 65.3404 10.2895 65.3404 13.4273V19.7867H63.3321V13.8457C63.3321 11.3563 62.2653 10.666 60.8637 10.666C59.3157 10.666 57.6422 12.2349 57.6422 14.7871V19.7867H55.6339V9.07615H57.6422V9.7874C57.6422 10.2267 57.6003 10.666 57.412 11.2099C57.3493 11.3982 57.2656 11.6074 57.433 11.6492C57.5585 11.691 57.6212 11.5446 57.6631 11.4609C58.0815 10.415 59.4412 8.90879 61.3658 8.90879Z" fill="white" />
	<path d="M75.3851 4.72498H77.3934V19.7867H75.3851V18.8872C75.3851 18.5107 75.427 18.2178 75.5943 17.7576C75.6571 17.5902 75.7617 17.4019 75.5525 17.3392C75.427 17.2974 75.3642 17.4647 75.3433 17.5275C74.8413 19.0336 73.4188 19.9541 71.7452 19.9541C68.963 19.9541 67.0175 17.6111 67.0175 14.4314C67.0175 11.2517 68.963 8.90879 71.7452 8.90879C73.4606 8.90879 74.8622 9.85015 75.3433 11.2936C75.3642 11.3563 75.427 11.5655 75.5943 11.5028C75.7826 11.44 75.6571 11.2308 75.5943 11.0635C75.427 10.6242 75.3851 10.3104 75.3851 9.91291V4.72498ZM72.1636 18.1132C74.0672 18.1132 75.3851 16.4188 75.3851 14.4314C75.3851 12.4441 74.0672 10.7497 72.1636 10.7497C70.0717 10.7497 69.0257 12.4441 69.0257 14.4314C69.0257 16.4188 70.0717 18.1132 72.1636 18.1132Z" fill="white" />
	<path d="M90.359 19.7867L89.1666 16.2723H82.347L81.1546 19.7867H78.728L84.0832 5.05968H87.4303L92.7856 19.7867H90.359ZM82.9536 14.4314H88.5599L86.1333 7.23527C86.0496 6.96332 85.966 6.71229 85.9241 6.35667C85.9032 6.23115 85.9032 6.10564 85.7568 6.10564C85.6103 6.10564 85.6103 6.23115 85.5894 6.35667C85.5476 6.71229 85.4639 6.96332 85.3802 7.23527L82.9536 14.4314Z" fill="white" />
	<path d="M96.2974 19.7867H94.1218V5.05968H96.2974V19.7867Z" fill="white" />
</svg>
