<svg width="421" height="63" viewBox="0 0 421 63" fill="none" xmlns="http://www.w3.org/2000/svg">
	<g clip-path="url(#clip0_65_23)">
		<mask id="mask0_65_23" style="mask-type:luminance" maskUnits="userSpaceOnUse" x="0" y="0" width="421" height="63">
			<path d="M420.302 0.312744H0.903809V62.6382H420.302V0.312744Z" fill="white" />
		</mask>
		<g mask="url(#mask0_65_23)">
			<path d="M71.3637 49.4525L59.8594 61.7878C59.6106 62.0557 59.3093 62.2696 58.9741 62.4158C58.6391 62.5622 58.2774 62.6379 57.9117 62.6382H3.37693C3.11683 62.6381 2.86241 62.5622 2.64483 62.4196C2.42726 62.2771 2.25597 62.0742 2.15193 61.8358C2.04789 61.5974 2.01562 61.3339 2.05908 61.0774C2.10254 60.821 2.21983 60.5827 2.3966 60.3919L13.8879 48.0567C14.1367 47.7888 14.438 47.575 14.7731 47.4286C15.1082 47.2824 15.4699 47.2066 15.8355 47.2062H70.3704C70.6326 47.2008 70.891 47.2731 71.1124 47.4141C71.3338 47.5552 71.5091 47.7585 71.6149 47.9986C71.7214 48.2387 71.7538 48.5049 71.7091 48.7636C71.6643 49.0223 71.5442 49.262 71.3637 49.4525ZM59.8594 24.6067C59.6097 24.34 59.3081 24.1271 58.9732 23.9808C58.6384 23.8346 58.2771 23.7582 57.9117 23.7563H3.37693C3.11683 23.7564 2.86241 23.8324 2.64483 23.975C2.42726 24.1175 2.25597 24.3203 2.15193 24.5587C2.04789 24.7971 2.01562 25.0606 2.05908 25.3171C2.10254 25.5735 2.21983 25.8118 2.3966 26.0026L13.8879 38.3444C14.1376 38.6111 14.4392 38.824 14.7741 38.9703C15.1089 39.1165 15.4702 39.1929 15.8355 39.1948H70.3704C70.63 39.1934 70.8832 39.1165 71.1001 38.9735C71.3169 38.8305 71.487 38.6275 71.5902 38.3894C71.6935 38.1513 71.7253 37.8882 71.6811 37.6324C71.6376 37.3765 71.5208 37.1389 71.3442 36.9485L59.8594 24.6067ZM3.37693 15.7448H57.9117C58.2774 15.7445 58.6391 15.6687 58.9741 15.5224C59.3093 15.3761 59.6106 15.1623 59.8594 14.8943L71.3637 2.5591C71.5442 2.36857 71.6643 2.12887 71.7091 1.87016C71.7538 1.61145 71.7214 1.34528 71.6149 1.10516C71.5091 0.865041 71.3338 0.661689 71.1124 0.520695C70.891 0.379701 70.6326 0.307363 70.3704 0.312784H15.8355C15.4699 0.313169 15.1082 0.388885 14.7731 0.535211C14.438 0.681536 14.1367 0.895333 13.8879 1.16327L2.3966 13.4985C2.21983 13.6893 2.10254 13.9276 2.05908 14.184C2.01562 14.4404 2.04789 14.704 2.15193 14.9424C2.25597 15.1808 2.42726 15.3836 2.64483 15.5261C2.86241 15.6687 3.11683 15.7447 3.37693 15.7448Z" fill="url(#paint0_linear_65_23)" />
			<path d="M71.3637 49.4525L59.8594 61.7878C59.6106 62.0557 59.3093 62.2696 58.9741 62.4158C58.6391 62.5622 58.2774 62.6379 57.9117 62.6382H3.37693C3.11683 62.6381 2.86241 62.5622 2.64483 62.4196C2.42726 62.2771 2.25597 62.0742 2.15193 61.8358C2.04789 61.5974 2.01562 61.3339 2.05908 61.0774C2.10254 60.821 2.21983 60.5827 2.3966 60.3919L13.8879 48.0567C14.1367 47.7888 14.438 47.575 14.7731 47.4286C15.1082 47.2824 15.4699 47.2066 15.8355 47.2062H70.3704C70.6326 47.2008 70.891 47.2731 71.1124 47.4141C71.3338 47.5552 71.5091 47.7585 71.6149 47.9986C71.7214 48.2387 71.7538 48.5049 71.7091 48.7636C71.6643 49.0223 71.5442 49.262 71.3637 49.4525ZM59.8594 24.6067C59.6097 24.34 59.3081 24.1271 58.9732 23.9808C58.6384 23.8346 58.2771 23.7582 57.9117 23.7563H3.37693C3.11683 23.7564 2.86241 23.8324 2.64483 23.975C2.42726 24.1175 2.25597 24.3203 2.15193 24.5587C2.04789 24.7971 2.01562 25.0606 2.05908 25.3171C2.10254 25.5735 2.21983 25.8118 2.3966 26.0026L13.8879 38.3444C14.1376 38.6111 14.4392 38.824 14.7741 38.9703C15.1089 39.1165 15.4702 39.1929 15.8355 39.1948H70.3704C70.63 39.1934 70.8832 39.1165 71.1001 38.9735C71.3169 38.8305 71.487 38.6275 71.5902 38.3894C71.6935 38.1513 71.7253 37.8882 71.6811 37.6324C71.6376 37.3765 71.5208 37.1389 71.3442 36.9485L59.8594 24.6067ZM3.37693 15.7448H57.9117C58.2774 15.7445 58.6391 15.6687 58.9741 15.5224C59.3093 15.3761 59.6106 15.1623 59.8594 14.8943L71.3637 2.5591C71.5442 2.36857 71.6643 2.12887 71.7091 1.87016C71.7538 1.61145 71.7214 1.34528 71.6149 1.10516C71.5091 0.865041 71.3338 0.661689 71.1124 0.520695C70.891 0.379701 70.6326 0.307363 70.3704 0.312784H15.8355C15.4699 0.313169 15.1082 0.388885 14.7731 0.535211C14.438 0.681536 14.1367 0.895333 13.8879 1.16327L2.3966 13.4985C2.21983 13.6893 2.10254 13.9276 2.05908 14.184C2.01562 14.4404 2.04789 14.704 2.15193 14.9424C2.25597 15.1808 2.42726 15.3836 2.64483 15.5261C2.86241 15.6687 3.11683 15.7447 3.37693 15.7448Z" fill="#171717" />
			<path d="M137.851 26.6661H108.675V17.0576H145.434V7.44912H108.578C107.318 7.4423 106.07 7.68355 104.904 8.15911C103.738 8.63473 102.677 9.33531 101.782 10.2209C100.887 11.1065 100.175 12.1598 99.6864 13.3206C99.1982 14.4814 98.943 15.727 98.9365 16.9862V26.7246C98.9417 27.9849 99.1949 29.2319 99.6825 30.3942C100.17 31.5565 100.882 32.6113 101.777 33.4982C102.673 34.3853 103.734 35.087 104.901 35.5634C106.068 36.0398 107.317 36.2815 108.578 36.2747H137.793V45.8832H99.6312V55.4917H137.851C139.11 55.4986 140.358 55.2573 141.524 54.7817C142.69 54.3061 143.752 53.6055 144.646 52.7199C145.542 51.8343 146.254 50.781 146.742 49.6202C147.23 48.4594 147.485 47.2138 147.492 45.9546V36.2162C147.487 34.9559 147.234 33.7089 146.746 32.5466C146.258 31.3843 145.547 30.3295 144.652 29.4425C143.756 28.5556 142.694 27.8538 141.528 27.3774C140.361 26.901 139.111 26.6593 137.851 26.6661Z" fill="#171717" />
			<path d="M194.372 7.44929H165.086C163.824 7.43903 162.573 7.67775 161.404 8.15182C160.235 8.62588 159.171 9.32587 158.273 10.2119C157.375 11.0978 156.661 12.1522 156.171 13.3147C155.681 14.4772 155.425 15.7249 155.419 16.9864V45.9548C155.425 47.2162 155.681 48.464 156.171 49.6265C156.661 50.789 157.375 51.8434 158.273 52.7293C159.171 53.6153 160.235 54.3153 161.404 54.7893C162.573 55.2634 163.824 55.5021 165.086 55.4919H194.372C195.632 55.4987 196.879 55.2574 198.045 54.7819C199.211 54.3063 200.273 53.6057 201.168 52.7201C202.063 51.8345 202.775 50.7812 203.263 49.6204C203.751 48.4596 204.007 47.214 204.013 45.9548V16.9864C204.007 15.7272 203.751 14.4816 203.263 13.3207C202.775 12.16 202.063 11.1067 201.168 10.2211C200.273 9.33548 199.211 8.6349 198.045 8.15928C196.879 7.68373 195.632 7.44247 194.372 7.44929ZM194.301 45.8834H165.157V17.0578H194.288L194.301 45.8834Z" fill="#171717" />
			<path d="M296.949 7.44968H268.383C267.124 7.44287 265.876 7.68412 264.71 8.15968C263.544 8.6353 262.483 9.33587 261.588 10.2215C260.693 11.1071 259.981 12.1604 259.492 13.3211C259.004 14.4819 258.749 15.7275 258.742 16.9868V55.4923H268.481V39.7096H296.917V55.4923H306.655V16.9868C306.649 15.722 306.392 14.4711 305.899 13.306C305.407 12.141 304.689 11.0848 303.787 10.1983C302.885 9.31185 301.817 8.61264 300.643 8.14091C299.469 7.66919 298.214 7.4343 296.949 7.44968ZM296.878 30.1011H268.442V17.0582H296.878V30.1011Z" fill="#171717" />
			<path d="M410.662 7.44912H382.096C380.836 7.4423 379.589 7.68355 378.423 8.15911C377.257 8.63473 376.196 9.3353 375.3 10.2209C374.405 11.1065 373.693 12.1598 373.205 13.3206C372.716 14.4814 372.461 15.727 372.455 16.9862V55.4917H382.193V39.709H410.564V55.4917H420.303V16.9862C420.296 15.727 420.041 14.4814 419.553 13.3206C419.065 12.1598 418.352 11.1065 417.457 10.2209C416.562 9.3353 415.501 8.63473 414.335 8.15911C413.169 7.68355 411.921 7.4423 410.662 7.44912ZM410.564 30.1005H382.128V17.0576H410.564V30.1005Z" fill="#171717" />
			<path d="M354.08 45.8831H350.185L336.259 11.4742C335.782 10.2871 334.961 9.26974 333.901 8.55261C332.842 7.83541 331.592 7.45114 330.312 7.44906H321.671C320.831 7.44477 319.999 7.60597 319.221 7.92338C318.444 8.24085 317.737 8.70829 317.139 9.29909C316.543 9.88995 316.068 10.5925 315.743 11.3667C315.418 12.1409 315.248 12.9717 315.244 13.8115V55.4916H324.982V17.0576H328.877L342.797 51.4664C343.282 52.6513 344.109 53.6645 345.174 54.3768C346.237 55.0892 347.489 55.4683 348.77 55.4657H357.411C358.251 55.4699 359.083 55.3088 359.86 54.9913C360.638 54.6739 361.345 54.2064 361.942 53.6156C362.539 53.0248 363.014 52.3222 363.339 51.548C363.664 50.7738 363.834 49.9431 363.838 49.1033V7.44906H354.08V45.8831Z" fill="#171717" />
			<path d="M222.351 7.44897H212.613V45.9544C212.62 47.2165 212.876 48.4647 213.366 49.6276C213.856 50.7906 214.571 51.8452 215.47 52.7313C216.368 53.6174 217.434 54.3172 218.603 54.7909C219.773 55.2646 221.024 55.5027 222.286 55.4916H251.502V45.883H222.351V7.44897Z" fill="#171717" />
		</g>
	</g>
	<defs>
		<linearGradient id="paint0_linear_65_23" x1="7.9215" y1="64.125" x2="65.1051" y2="-0.342937" gradientUnits="userSpaceOnUse">
			<stop offset="0.08" stop-color="#9945FF" />
			<stop offset="0.3" stop-color="#8752F3" />
			<stop offset="0.5" stop-color="#5497D5" />
			<stop offset="0.6" stop-color="#43B4CA" />
			<stop offset="0.72" stop-color="#28E0B9" />
			<stop offset="0.97" stop-color="#19FB9B" />
		</linearGradient>
		<clipPath id="clip0_65_23">
			<rect width="419.399" height="62.3255" fill="white" transform="translate(0.903809 0.309814)" />
		</clipPath>
	</defs>
</svg>
