<svg width="296" height="50" viewBox="0 0 296 50" fill="none" xmlns="http://www.w3.org/2000/svg">
	<g clip-path="url(#clip0_65_551)">
		<path d="M92.4063 5.62325H76.503V9.59915H88.1791C90.5309 9.59915 92.4063 11.5031 92.4063 13.8271V17.299C92.4063 19.6509 90.5309 21.5269 88.1791 21.5269H72.5271V17.551H88.4311V13.5751H76.755C74.403 13.5751 72.5271 11.6711 72.5271 9.34717V5.87524C72.5271 3.5233 74.403 1.64734 76.755 1.64734H92.4063V5.62325Z" fill="#fff" />
		<path d="M111.686 1.64734C114.038 1.64734 115.942 3.5233 115.942 5.87524V17.299C115.942 19.6509 114.038 21.5269 111.686 21.5269H99.4505C97.0987 21.5269 95.2224 19.6509 95.2224 17.299V5.87524C95.2224 3.5233 97.0987 1.64734 99.4505 1.64734H111.686ZM111.938 5.62325H99.1984V17.551H111.938V5.62325Z" fill="#fff" />
		<path d="M123.021 17.411H138.532V21.6949H121.481C119.969 21.6949 118.737 20.463 118.737 18.951V1.47937H123.021V17.411Z" fill="#fff" />
		<path d="M158.598 1.64734C160.502 1.64734 162.042 3.1593 162.042 5.06326V21.5269H158.038V15.0031H145.299V21.5269H141.323V5.06326C141.323 3.1593 142.834 1.64734 144.738 1.64734H158.598ZM158.038 5.62325H145.299V11.0271H158.038V5.62325Z" fill="#fff" />
		<path d="M181.553 1.64734H185.557V18.9509C185.557 20.3789 184.381 21.5269 182.953 21.5269H179.873C178.893 21.5549 178.025 21.0229 177.577 20.1549L169.85 5.62325H168.814V21.5269H164.838V4.25128C164.838 2.79531 165.985 1.64734 167.413 1.64734H170.661C171.613 1.64734 172.509 2.15133 172.957 3.01931L180.685 17.551H181.553V1.64734Z" fill="#fff" />
		<path d="M205.628 1.64734C207.532 1.64734 209.072 3.1593 209.072 5.06326V21.5269H205.068V15.0031H192.328V21.5269H188.353V5.06326C188.353 3.1593 189.864 1.64734 191.768 1.64734H205.628ZM205.068 5.62325H192.328V11.0271H205.068V5.62325Z" fill="#fff" />
		<path d="M92.0148 31.7801H76.503V35.756H92.0148V39.732H76.503V47.6838H72.5271V27.8043H92.0148V31.7801Z" fill="#fff" />
		<path d="M111.276 27.8043C113.628 27.8043 115.532 29.6802 115.532 32.0321V43.4559C115.532 45.8078 113.628 47.6838 111.276 47.6838H99.04C96.6882 47.6838 94.8127 45.8078 94.8127 43.4559V32.0321C94.8127 29.6802 96.6882 27.8043 99.04 27.8043H111.276ZM111.528 31.7801H98.788V43.7079H111.528V31.7801Z" fill="#fff" />
		<path d="M135.042 27.8043H139.047V41.0199C139.018 44.7159 136.051 47.6838 132.354 47.6838H124.991C121.295 47.6838 118.327 44.7159 118.327 41.0199V27.8043H122.303V40.208C122.303 42.1399 123.871 43.7079 125.803 43.7079H131.543C133.474 43.7079 135.042 42.1399 135.042 40.208V27.8043Z" fill="#fff" />
		<path d="M158.558 27.8043H162.561V45.1078C162.561 46.5358 161.386 47.6838 159.957 47.6838H156.878C155.897 47.7118 155.029 47.1798 154.582 46.3118L146.854 31.7801H145.818V47.6838H141.842V30.4082C141.842 28.9522 142.99 27.8043 144.418 27.8043H147.666C148.617 27.8043 149.514 28.3082 149.962 29.1762L157.69 43.7079H158.558V27.8043Z" fill="#fff" />
		<path d="M179.385 27.8043C183.081 27.8043 186.049 30.8001 186.077 34.468V41.0199C186.049 44.7159 183.081 47.6838 179.385 47.6838H165.357V27.8043H179.385ZM182.073 35.308C182.073 33.3481 180.505 31.7801 178.573 31.7801H169.333V43.7079H178.573C180.505 43.7079 182.073 42.1399 182.073 40.208V35.308Z" fill="#fff" />
		<path d="M206.148 27.8043C208.052 27.8043 209.592 29.3162 209.592 31.2202V47.6838H205.588V41.16H192.848V47.6838H188.872V31.2202C188.872 29.3162 190.384 27.8043 192.288 27.8043H206.148ZM205.588 31.7801H192.848V37.184H205.588V31.7801Z" fill="#fff" />
		<path d="M212.387 27.8043H232.267V31.7801H224.315V47.6838H220.339V31.7801H212.387V27.8043Z" fill="#fff" />
		<path d="M239.059 47.6838H235.083V27.8043H239.059V47.6838Z" fill="#fff" />
		<path d="M258.327 27.8043C260.679 27.8043 262.583 29.6802 262.583 32.0321V43.4559C262.583 45.8078 260.679 47.6838 258.327 47.6838H246.091C243.739 47.6838 241.864 45.8078 241.864 43.4559V32.0321C241.864 29.6802 243.739 27.8043 246.091 27.8043H258.327ZM258.579 31.7801H245.84V43.7079H258.579V31.7801Z" fill="#fff" />
		<path d="M282.093 27.8043H286.098V45.1078C286.098 46.5358 284.922 47.6838 283.494 47.6838H280.414C279.434 47.7118 278.566 47.1798 278.118 46.3118L270.39 31.7801H269.354V47.6838H265.378V30.4082C265.378 28.9522 266.526 27.8043 267.954 27.8043H271.202C272.154 27.8043 273.05 28.3082 273.498 29.1762L281.225 43.7079H282.093V27.8043Z" fill="#fff" />
		<mask id="mask0_65_551" style="mask-type:luminance" maskUnits="userSpaceOnUse" x="0" y="2" width="52" height="47">
			<path d="M51.9795 2.2063H0.575684V48.2627H51.9795V2.2063Z" fill="white" />
		</mask>
		<g mask="url(#mask0_65_551)">
			<path d="M51.7146 38.5184L43.229 47.6354C43.0446 47.8335 42.8214 47.9913 42.5733 48.0993C42.3253 48.2072 42.0578 48.2628 41.7874 48.2627H1.56082C1.36887 48.2627 1.18112 48.2065 1.02061 48.1011C0.860098 47.9956 0.733834 47.8455 0.657327 47.6691C0.58082 47.4928 0.557403 47.2979 0.589954 47.1084C0.622504 46.9189 0.709604 46.7431 0.840551 46.6024L9.33266 37.4855C9.51663 37.288 9.73914 37.1304 9.98637 37.0225C10.2336 36.9146 10.5003 36.8587 10.7699 36.8582H50.9943C51.1863 36.8583 51.3741 36.9144 51.5346 37.0199C51.6951 37.1253 51.8213 37.2755 51.8979 37.4518C51.9743 37.6281 51.9977 37.823 51.9652 38.0126C51.9326 38.202 51.8455 38.3779 51.7146 38.5184ZM43.229 20.1595C43.0446 19.9614 42.8214 19.8035 42.5733 19.6957C42.3253 19.5878 42.0578 19.5321 41.7874 19.5323H1.56082C1.36887 19.5323 1.18112 19.5885 1.02061 19.6939C0.860098 19.7993 0.733834 19.9495 0.657327 20.1258C0.58082 20.3021 0.557403 20.497 0.589954 20.6866C0.622504 20.8761 0.709604 21.0519 0.840551 21.1925L9.33266 30.3094C9.51663 30.507 9.73914 30.6646 9.98637 30.7724C10.2336 30.8803 10.5003 30.9363 10.7699 30.9367H50.9943C51.1863 30.9367 51.3741 30.8806 51.5346 30.7751C51.6951 30.6696 51.8213 30.5195 51.8979 30.3431C51.9743 30.1668 51.9977 29.9719 51.9652 29.7824C51.9326 29.593 51.8455 29.4171 51.7146 29.2765L43.229 20.1595ZM1.56082 13.6108H41.7874C42.0578 13.6108 42.3253 13.5553 42.5733 13.4473C42.8214 13.3394 43.0446 13.1815 43.229 12.9835L51.7146 3.86652C51.8455 3.72593 51.9326 3.55009 51.9652 3.36059C51.9977 3.17108 51.9743 2.97619 51.8979 2.79984C51.8213 2.62349 51.6951 2.47337 51.5346 2.36792C51.3741 2.26248 51.1863 2.20631 50.9943 2.2063H10.7699C10.5003 2.20676 10.2336 2.26267 9.98637 2.37055C9.73914 2.47844 9.51663 2.63603 9.33266 2.83354L0.842741 11.9505C0.711919 12.091 0.624858 12.2666 0.592234 12.4559C0.55961 12.6452 0.582841 12.8399 0.659078 13.0162C0.735315 13.1925 0.861245 13.3426 1.02142 13.4482C1.1816 13.5538 1.36906 13.6103 1.56082 13.6108Z" fill="#fff" />
		</g>
	</g>
	<defs>
		<clipPath id="clip0_65_551">
			<rect width="294.871" height="48.3526" fill="white" transform="translate(0.576172 0.91687)" />
		</clipPath>
	</defs>
</svg>
