<svg width="36" height="33" viewBox="0 0 36 33" fill="none" xmlns="http://www.w3.org/2000/svg">
	<path d="M35.7752 25.3593L29.8383 31.7251C29.7099 31.8633 29.5544 31.9737 29.3814 32.0492C29.2085 32.1247 29.0219 32.1638 28.8332 32.164H0.689793C0.555566 32.1639 0.424271 32.1247 0.311985 32.0511C0.199703 31.9776 0.111306 31.8729 0.0576163 31.7499C0.00392611 31.6268 -0.0127254 31.4908 0.00970219 31.3585C0.0321298 31.2262 0.0926581 31.1032 0.183883 31.0047L6.11409 24.639C6.24251 24.5007 6.398 24.3904 6.57095 24.3149C6.74387 24.2394 6.93052 24.2003 7.11921 24.2001H35.2626C35.3979 24.1973 35.5313 24.2346 35.6455 24.3074C35.7598 24.3802 35.8502 24.4851 35.9048 24.609C35.9598 24.7329 35.9765 24.8703 35.9534 25.0038C35.9303 25.1373 35.8683 25.261 35.7752 25.3593ZM29.8383 12.5373C29.7094 12.3997 29.5538 12.2898 29.3809 12.2143C29.2081 12.1389 29.0217 12.0994 28.8332 12.0985H0.689793C0.555566 12.0985 0.424271 12.1377 0.311985 12.2113C0.199703 12.2848 0.111306 12.3895 0.0576163 12.5126C0.00392611 12.6356 -0.0127254 12.7716 0.00970219 12.9039C0.0321298 13.0363 0.0926581 13.1592 0.183883 13.2577L6.11409 19.6268C6.24298 19.7644 6.39861 19.8743 6.57142 19.9498C6.74424 20.0253 6.93065 20.0647 7.11921 20.0657H35.2626C35.3966 20.065 35.5273 20.0253 35.6392 19.9515C35.7511 19.8777 35.8388 19.773 35.8921 19.6501C35.9454 19.5272 35.9618 19.3914 35.939 19.2594C35.9166 19.1273 35.8563 19.0047 35.7651 18.9065L29.8383 12.5373ZM0.689793 7.96403H28.8332C29.0219 7.96386 29.2085 7.92476 29.3814 7.84925C29.5544 7.77376 29.7099 7.6634 29.8383 7.52513L35.7752 1.15939C35.8683 1.06106 35.9303 0.937358 35.9534 0.803848C35.9765 0.670337 35.9598 0.532981 35.9048 0.409063C35.8502 0.285146 35.7598 0.180203 35.6455 0.107442C35.5313 0.0346797 35.3979 -0.00265114 35.2626 0.00014648H7.11921C6.93052 0.000345106 6.74387 0.0394192 6.57095 0.114933C6.398 0.190446 6.24251 0.300778 6.11409 0.439049L0.183883 6.80479C0.0926581 6.90326 0.0321298 7.02622 0.00970219 7.15856C-0.0127254 7.2909 0.00392611 7.42689 0.0576163 7.54992C0.111306 7.67295 0.199703 7.77765 0.311985 7.85119C0.424271 7.92476 0.555566 7.96396 0.689793 7.96403Z" fill="url(#paint0_linear_113_75)" />
	<path d="M35.7752 25.3593L29.8383 31.7251C29.7099 31.8633 29.5544 31.9737 29.3814 32.0492C29.2085 32.1247 29.0219 32.1638 28.8332 32.164H0.689793C0.555566 32.1639 0.424271 32.1247 0.311985 32.0511C0.199703 31.9776 0.111306 31.8729 0.0576163 31.7499C0.00392611 31.6268 -0.0127254 31.4908 0.00970219 31.3585C0.0321298 31.2262 0.0926581 31.1032 0.183883 31.0047L6.11409 24.639C6.24251 24.5007 6.398 24.3904 6.57095 24.3149C6.74387 24.2394 6.93052 24.2003 7.11921 24.2001H35.2626C35.3979 24.1973 35.5313 24.2346 35.6455 24.3074C35.7598 24.3802 35.8502 24.4851 35.9048 24.609C35.9598 24.7329 35.9765 24.8703 35.9534 25.0038C35.9303 25.1373 35.8683 25.261 35.7752 25.3593ZM29.8383 12.5373C29.7094 12.3997 29.5538 12.2898 29.3809 12.2143C29.2081 12.1389 29.0217 12.0994 28.8332 12.0985H0.689793C0.555566 12.0985 0.424271 12.1377 0.311985 12.2113C0.199703 12.2848 0.111306 12.3895 0.0576163 12.5126C0.00392611 12.6356 -0.0127254 12.7716 0.00970219 12.9039C0.0321298 13.0363 0.0926581 13.1592 0.183883 13.2577L6.11409 19.6268C6.24298 19.7644 6.39861 19.8743 6.57142 19.9498C6.74424 20.0253 6.93065 20.0647 7.11921 20.0657H35.2626C35.3966 20.065 35.5273 20.0253 35.6392 19.9515C35.7511 19.8777 35.8388 19.773 35.8921 19.6501C35.9454 19.5272 35.9618 19.3914 35.939 19.2594C35.9166 19.1273 35.8563 19.0047 35.7651 18.9065L29.8383 12.5373ZM0.689793 7.96403H28.8332C29.0219 7.96386 29.2085 7.92476 29.3814 7.84925C29.5544 7.77376 29.7099 7.6634 29.8383 7.52513L35.7752 1.15939C35.8683 1.06106 35.9303 0.937358 35.9534 0.803848C35.9765 0.670337 35.9598 0.532981 35.9048 0.409063C35.8502 0.285146 35.7598 0.180203 35.6455 0.107442C35.5313 0.0346797 35.3979 -0.00265114 35.2626 0.00014648H7.11921C6.93052 0.000345106 6.74387 0.0394192 6.57095 0.114933C6.398 0.190446 6.24251 0.300778 6.11409 0.439049L0.183883 6.80479C0.0926581 6.90326 0.0321298 7.02622 0.00970219 7.15856C-0.0127254 7.2909 0.00392611 7.42689 0.0576163 7.54992C0.111306 7.67295 0.199703 7.77765 0.311985 7.85119C0.424271 7.92476 0.555566 7.96396 0.689793 7.96403Z" fill="#171717" />
	<defs>
		<linearGradient id="paint0_linear_113_75" x1="3.03507" y1="32.9312" x2="32.5454" y2="-0.338247" gradientUnits="userSpaceOnUse">
			<stop offset="0.08" stop-color="#9945FF" />
			<stop offset="0.3" stop-color="#8752F3" />
			<stop offset="0.5" stop-color="#5497D5" />
			<stop offset="0.6" stop-color="#43B4CA" />
			<stop offset="0.72" stop-color="#28E0B9" />
			<stop offset="0.97" stop-color="#19FB9B" />
		</linearGradient>
	</defs>
</svg>
