<svg width="226" height="54" viewBox="0 0 226 54" fill="none" xmlns="http://www.w3.org/2000/svg">
<g id="Group 11">
<path id="Vector" d="M52.5594 14.651L39.6839 1.77555C39.5763 1.66793 39.4629 1.56612 39.3465 1.47014C38.5263 0.797642 37.4988 0.429761 36.4381 0.428955H18.2287C17.168 0.42928 16.1402 0.797215 15.3203 1.47014C15.2024 1.56578 15.0898 1.66773 14.9829 1.77555L2.09577 14.651C1.66832 15.0778 1.32916 15.5846 1.09759 16.1425C0.866032 16.7004 0.746693 17.2985 0.746338 17.9026V36.112C0.746456 36.7162 0.865792 37.3143 1.09735 37.8722C1.32892 38.4302 1.6682 38.937 2.09577 39.3636L14.9713 52.2391C15.0785 52.342 15.1911 52.4391 15.3087 52.5299C16.1286 53.2029 17.1564 53.5708 18.217 53.5711H36.4265C37.4872 53.5703 38.5147 53.2025 39.3349 52.5299C39.4513 52.434 39.5647 52.3322 39.6723 52.2391L52.5478 39.3636C53.4095 38.5009 53.8938 37.3315 53.8944 36.112V17.9026C53.8963 16.6849 53.4163 15.5161 52.5594 14.651ZM46.8851 27.0175V42.2836C46.8844 43.4186 46.433 44.5068 45.6302 45.309C44.8273 46.1113 43.7389 46.562 42.6039 46.562H12.0658C10.9311 46.562 9.8429 46.1112 9.04061 45.3089C8.23832 44.5066 7.78752 43.4183 7.78752 42.2836V11.7456C7.78752 10.6108 8.23832 9.52267 9.04061 8.72033C9.8429 7.918 10.9311 7.46726 12.0658 7.46726H42.6039C43.7364 7.46725 44.8227 7.91591 45.625 8.71501C46.4274 9.51411 46.8805 10.5986 46.8851 11.731V27.0175Z" fill="#171717"/>
<path id="Vector_2" d="M79.6041 39.7616C67.763 39.7616 66.4077 34.6578 66.4077 31.6833V31.348H73.787C73.8762 32.7141 74.6644 34.9147 80.4957 34.9147H80.9202C86.8727 34.9147 87.5433 33.7306 87.5433 32.5144C87.5433 31.2089 86.83 30.3745 81.6192 30.2389L77.7316 30.1462C69.2895 29.9036 66.7109 27.0503 66.7109 23.5266V23.2519C66.7109 19.8815 68.7153 16.3613 79.0085 16.3613H81.102C91.8019 16.3613 94.2236 20.0955 94.2236 23.4945V23.8011H86.8727C86.7231 22.9488 86.2664 21.0978 80.3459 21.0978H79.8573C74.3933 21.0978 73.9974 22.0678 73.9974 23.0415C73.9974 24.0152 74.6037 24.8925 79.2225 24.9852L83.0173 25.046C91.5201 25.1957 94.9511 27.2607 94.9511 31.7546V32.1826C94.9511 35.9169 93.068 39.7438 81.7119 39.7438L79.6041 39.7616Z" fill="#171717"/>
<path id="Vector_3" d="M122.209 23.0266V45.0752H115.433V37.1182C114.766 37.8778 112.58 39.7611 107.447 39.7611H107.201C99.5794 39.7611 96.7261 35.902 96.7261 31.3475V30.7697C96.7261 26.4292 99.4582 22.6343 106.837 22.6343H107.262C112.301 22.6343 114.702 24.6067 115.49 25.2451C115.804 24.5426 115.999 23.7929 116.068 23.0266H122.209ZM115.433 31.0764C115.433 28.9365 113.293 26.9142 109.238 26.9142H109.088C104.837 26.9142 103.652 28.9792 103.652 31.1049V31.2261C103.652 33.2021 105.018 35.4776 109.149 35.4776H109.302C113.368 35.4776 115.433 33.2627 115.433 31.1976V31.0764Z" fill="#171717"/>
<path id="Vector_4" d="M147.962 39.367H141.253V36.5529C140.433 37.3125 138.065 39.7413 133.324 39.7413H133.082C127.465 39.7413 125.31 36.2782 125.31 33.2146V23.0391H132.14V31.1174C132.14 33.5462 133.449 35.1868 136.331 35.1868C139.277 35.1868 141.192 33.425 141.192 30.7537V23.0391H147.969L147.962 39.367Z" fill="#171717"/>
<path id="Vector_5" d="M158.169 39.6666H157.773C152.277 39.6666 150.179 37.1164 150.179 34.3167V34.1026C150.179 31.096 152.155 29.6693 157.042 29.2129L164.514 28.4996C165.273 28.4104 165.548 28.1678 165.548 27.6508C165.548 27.0445 165.273 26.3132 161.297 26.3132H161.143C157.106 26.3132 156.952 27.59 156.863 28.1357H150.579V28.0751C150.579 25.9352 151.217 22.5469 160.327 22.5469H161.996C171.472 22.5469 172.078 25.4643 172.078 27.8326V34.0884C172.078 34.5735 172.232 34.9088 172.931 34.9088H173.808V39.3419H168.312C167.007 39.3419 165.976 38.6287 165.733 37.095C165.031 37.9974 162.966 39.6666 158.169 39.6666ZM165.548 31.5882L159.078 32.5904C157.348 32.8651 156.617 33.1682 156.617 34.1098V34.1419C156.617 35.0192 157.288 35.9929 159.595 35.9929C163.208 35.9929 165.548 34.0492 165.548 32.1054V31.5882Z" fill="#171717"/>
<path id="Vector_6" d="M200.468 16.771V39.3653H193.727V36.8688C193.271 37.5072 190.903 39.7541 185.649 39.7541H185.257C177.999 39.7541 174.96 35.9272 174.96 31.3406V30.7628C174.96 26.3901 177.663 22.6273 184.982 22.6273H185.467C190.571 22.6273 192.907 24.5391 193.67 25.206V16.7639L200.468 16.771ZM193.667 31.1052C193.667 28.9651 191.48 26.9144 187.472 26.9144H187.318C183.067 26.9144 181.883 28.9795 181.883 31.1052V31.2264C181.883 33.2022 183.402 35.4492 187.382 35.4492H187.532C191.541 35.4492 193.667 33.3093 193.667 31.2264V31.1052Z" fill="#171717"/>
<path id="Vector_7" d="M213.223 39.8211C203.69 39.8211 202.716 36.1154 202.716 34.0182V33.8363H209.703C209.703 34.4462 209.946 36.0547 213.894 36.0547H213.954C217.721 36.0547 218.174 35.2951 218.174 34.5068V34.4462C218.174 33.5937 217.782 33.1088 214.607 33.0196L211.69 32.959C204.585 32.8091 202.884 30.2591 202.884 27.8588V27.6768C202.884 25.1553 204.221 22.5731 213.209 22.5731H214.422C222.682 22.5731 224.657 25.1553 224.657 27.7053V27.9194H217.767C217.674 27.3131 217.372 26.2502 213.73 26.2502H213.698C210.449 26.2502 209.81 26.6425 209.81 27.4629V27.5235C209.81 28.2368 210.42 28.7397 213.242 28.8288L216.159 28.8896C223.688 29.0429 225.268 30.744 225.268 34.0219V34.2037C225.268 37.2103 223.506 39.8247 214.49 39.8247L213.223 39.8211Z" fill="#171717"/>
</g>
</svg>
