<svg width="271" height="55" viewBox="0 0 271 55" fill="none" xmlns="http://www.w3.org/2000/svg">
	<path d="M189.964 37.7774L193.374 48.0907H193.508L196.912 37.7774H199.522L194.903 50.8801H191.973L187.36 37.7774H189.964ZM203.622 37.7774V50.8801H201.248V37.7774H203.622ZM206.192 50.8801V37.7774H214.714V39.7671H208.565V43.3243H214.272V45.314H208.565V48.8904H214.765V50.8801H206.192ZM216.559 39.7671V37.7774H227.013V39.7671H222.964V50.8801H220.609V39.7671H216.559ZM239.796 37.7774V50.8801H237.685L231.511 41.9552H231.402V50.8801H229.029V37.7774H231.153L237.32 46.7088H237.436V37.7774H239.796ZM244.065 50.8801H241.532L246.145 37.7774H249.075L253.694 50.8801H251.16L247.661 40.4645H247.558L244.065 50.8801ZM244.148 45.7427H251.058V47.6492H244.148V45.7427ZM255.42 37.7774H258.324L262.214 47.2718H262.368L266.258 37.7774H269.162V50.8801H266.885V41.8784H266.763L263.142 50.8417H261.44L257.819 41.8592H257.697V50.8801H255.42V37.7774Z" fill="#171717" />
	<path d="M31.5646 6.33737H40.0146V9.60135C40.0146 14.0273 36.4378 17.6047 32.0113 17.6047H31.564L31.5646 6.33737ZM19.5379 1.59808H31.5646V32.4026H30.1341C21.4157 32.4026 19.6724 26.3219 19.6724 20.9123L19.5379 1.59808ZM0 8.57277C0 14.0721 3.9344 16.0839 8.31603 16.7549H0V32.4923H8.00327C16.0507 32.4923 16.9897 28.9155 16.9897 25.5176C16.9897 21.3596 14.1281 18.4538 9.70223 17.3355H16.9897V1.59808H8.98642C0.938946 1.59808 0 5.17483 0 8.57277Z" fill="#171717" />
	<path fill-rule="evenodd" clip-rule="evenodd" d="M175.855 27.3285C174.407 27.3285 173.221 27.0975 172.297 26.6507C171.372 26.2039 170.695 25.5414 170.263 24.648C169.832 23.7546 169.616 22.6607 169.616 21.3514V10.3985H166.412V6.05431H169.847L170.956 0.000183105H175.424V6.05431H180.092V10.3985H175.424V20.5195C175.424 21.3052 175.593 21.9061 175.917 22.322C176.24 22.7379 176.872 22.9382 177.796 22.9382H180.092V26.6969C179.753 26.8047 179.321 26.8972 178.828 26.9895C178.32 27.0819 177.811 27.1591 177.288 27.2206C176.748 27.2822 176.271 27.3285 175.855 27.3285ZM58.655 27.3287C57.1454 27.3287 55.759 27.19 54.4804 26.8972C53.2018 26.6044 52.0925 26.1885 51.1374 25.6495C50.1823 25.1102 49.4429 24.4324 48.9191 23.6313C48.3953 22.8303 48.1335 21.906 48.1335 20.8431V20.5196C48.1335 20.4118 48.1489 20.3194 48.1797 20.2424H53.9104V20.4272V20.6121C53.9412 21.2437 54.1722 21.752 54.619 22.1526C55.0657 22.5531 55.6665 22.8303 56.406 22.9997C57.1454 23.1693 57.9156 23.2616 58.732 23.2616C59.5023 23.2616 60.2417 23.2156 60.9658 23.1075C61.6898 22.9997 62.2906 22.7841 62.7836 22.476C63.2765 22.1526 63.5076 21.7364 63.5076 21.2128C63.5076 20.5504 63.2149 20.0729 62.645 19.7494C62.0596 19.4259 61.2739 19.1793 60.2572 18.9945C59.7349 18.8995 59.1801 18.7964 58.5927 18.6873C58.0367 18.584 57.4516 18.4753 56.8373 18.3629C55.7897 18.1781 54.7731 17.9469 53.818 17.6542C52.8629 17.3615 51.9847 16.9919 51.2298 16.5297C50.4596 16.0676 49.8588 15.4822 49.4121 14.7428C48.9653 14.0187 48.7343 13.1098 48.7343 12.0315C48.7343 10.8915 48.9807 9.92099 49.4891 9.10453C49.9975 8.28807 50.7061 7.61026 51.6304 7.08649C52.5547 6.56272 53.6484 6.17758 54.8962 5.91569C56.144 5.66921 57.4997 5.546 58.9477 5.546C60.288 5.546 61.5666 5.66921 62.7528 5.91569C63.939 6.16217 64.9711 6.53193 65.8338 7.02489C66.7119 7.51785 67.3896 8.11866 67.9134 8.8581C68.4372 9.59753 68.6837 10.4294 68.6837 11.3537V11.785C68.6837 11.9236 68.6683 12.0161 68.6375 12.1085H62.9068V11.8312C62.9068 11.3229 62.722 10.9224 62.3677 10.5989C62.0134 10.2754 61.5204 10.0442 60.9042 9.85935C60.288 9.67449 59.5794 9.59749 58.7937 9.59749C58.3932 9.59749 57.9465 9.62828 57.4535 9.67449C56.9605 9.72071 56.4676 9.81314 56.0054 9.95178C55.5433 10.0904 55.1735 10.2753 54.8962 10.5064C54.619 10.7375 54.4804 11.0456 54.4804 11.4153C54.4804 11.8928 54.7268 12.2626 55.2352 12.5399C55.7436 12.8172 56.4059 13.0328 57.2378 13.1869C57.7833 13.2879 58.3554 13.3956 58.9626 13.5098C59.2813 13.5698 59.6097 13.6316 59.9491 13.6953C61.0582 13.9263 62.1674 14.1728 63.2765 14.4193C64.3857 14.6657 65.4025 15.0046 66.3267 15.4359C67.251 15.8519 67.975 16.4682 68.4988 17.2538C69.0226 18.0395 69.2845 19.1024 69.2845 20.4118C69.2845 21.6751 69.0226 22.7532 68.5142 23.6313C68.0059 24.5095 67.2664 25.2335 66.3267 25.7726C65.3716 26.3119 64.2624 26.6969 62.9684 26.9434C61.6744 27.19 60.2109 27.3287 58.655 27.3287ZM80.7315 27.3282C78.2514 27.3282 76.3412 26.6966 74.9701 25.4335C73.6145 24.1703 72.9366 22.183 72.9366 19.4564V6.05406H78.7135V18.5166C78.7135 19.2868 78.806 19.9184 78.9907 20.4422C79.1757 20.9506 79.4529 21.3665 79.8225 21.6899C80.1922 22.0136 80.639 22.2445 81.1474 22.3832C81.6558 22.522 82.2411 22.5989 82.9035 22.5989C83.8587 22.5989 84.7214 22.3832 85.4917 21.9673C86.2619 21.5514 86.8934 20.9506 87.3709 20.2112C87.8486 19.4563 88.0796 18.609 88.0796 17.6539V6.06948H93.8872V26.8816H89.1426L88.7111 23.7234H88.4339C87.8024 24.5399 87.0937 25.2177 86.2926 25.757C85.507 26.296 84.6289 26.6966 83.6584 26.9585C82.6879 27.2203 81.7329 27.3282 80.7315 27.3282ZM98.7226 6.038V34.0903H104.561V24.4314H104.792C105.285 25.063 105.901 25.6023 106.61 26.0335C107.318 26.465 108.104 26.7884 108.967 27.004C109.814 27.2197 110.708 27.3277 111.632 27.3277C113.48 27.3277 115.083 26.9271 116.454 26.1413C117.825 25.3404 118.888 24.1389 119.673 22.5366C120.459 20.9346 120.844 18.9011 120.844 16.4517C120.844 13.9407 120.474 11.8765 119.704 10.2743C118.934 8.67223 117.855 7.48606 116.438 6.71581C115.021 5.94557 113.357 5.56044 111.432 5.56044C109.953 5.56044 108.582 5.82235 107.334 6.34611C106.071 6.88529 105.039 7.77877 104.222 9.04197H103.945L103.436 6.038H98.7226ZM112.679 21.9667C111.909 22.3981 110.939 22.6137 109.753 22.6137C108.859 22.6137 108.089 22.475 107.426 22.2285C106.779 21.9667 106.256 21.5661 105.809 21.0578C105.362 20.5494 105.023 19.9179 104.792 19.163C104.561 18.4236 104.438 17.5917 104.438 16.6982V16.1436C104.438 14.9266 104.638 13.8791 105.054 13.0011C105.47 12.123 106.055 11.4451 106.841 10.9676C107.611 10.49 108.566 10.2589 109.706 10.2589C110.923 10.2589 111.909 10.4746 112.679 10.9059C113.434 11.3372 114.004 11.9997 114.374 12.8624C114.744 13.7405 114.928 14.8034 114.928 16.0666V16.8523C114.928 18.0693 114.744 19.1168 114.374 19.9948C114.004 20.8729 113.45 21.5354 112.679 21.9667ZM135.833 27.3273C133.322 27.3273 131.196 26.9422 129.44 26.1567C127.684 25.3709 126.344 24.1847 125.419 22.5826C124.495 20.9805 124.033 18.9317 124.033 16.4515C124.033 13.9713 124.495 11.9225 125.419 10.3204C126.344 8.71825 127.669 7.51664 129.394 6.7464C131.119 5.97615 133.214 5.57562 135.664 5.57562C138.067 5.57562 140.1 5.96075 141.779 6.73099C143.459 7.50124 144.722 8.65663 145.569 10.2279C146.432 11.7992 146.848 13.771 146.848 16.1434V17.7609H129.995C130.041 18.9779 130.303 19.9792 130.749 20.7803C131.196 21.5814 131.843 22.1667 132.706 22.5364C133.569 22.9061 134.632 23.091 135.895 23.091C136.526 23.091 137.127 23.0139 137.713 22.8754C138.298 22.7367 138.822 22.5055 139.299 22.1974C139.777 21.8893 140.177 21.5196 140.485 21.073C140.809 20.6262 140.978 20.1179 140.994 19.5325H146.801C146.801 20.7495 146.524 21.8433 145.985 22.8138C145.446 23.7843 144.706 24.6006 143.751 25.263C142.796 25.9255 141.656 26.4339 140.316 26.7882C138.991 27.1425 137.482 27.3273 135.833 27.3273ZM130.087 14.1562H140.763C140.763 13.4167 140.639 12.7697 140.393 12.2151C140.147 11.6606 139.792 11.1984 139.345 10.8287C138.899 10.4589 138.375 10.1971 137.759 10.0122C137.158 9.84279 136.48 9.75029 135.741 9.75029C134.601 9.75029 133.63 9.91977 132.829 10.2433C132.028 10.5668 131.396 11.0752 130.95 11.7222C130.518 12.4 130.226 13.2011 130.087 14.1562ZM150.962 6.03895V26.8509V26.8665H156.786V16.7454C156.786 15.8827 156.878 15.1125 157.078 14.4192C157.278 13.726 157.602 13.1253 158.033 12.6169C158.465 12.1085 159.004 11.708 159.651 11.4307C160.298 11.1534 161.068 11.0147 161.961 11.0147H164.257V5.94652C163.964 5.83869 163.625 5.74628 163.225 5.66926C162.824 5.59223 162.393 5.546 161.915 5.546C161.006 5.546 160.174 5.71547 159.45 6.05438C158.726 6.39329 158.11 6.87082 157.617 7.47161C157.109 8.0724 156.724 8.73486 156.462 9.44348H156.185L155.707 6.03895H150.962ZM188.071 26.1567C189.827 26.9422 191.953 27.3273 194.464 27.3273C196.128 27.3273 197.622 27.1425 198.962 26.7882C200.303 26.4339 201.443 25.9255 202.398 25.263C203.353 24.6006 204.092 23.7843 204.631 22.8138C205.171 21.8433 205.448 20.7495 205.448 19.5325H199.64C199.625 20.1179 199.456 20.6262 199.132 21.073C198.824 21.5196 198.423 21.8893 197.946 22.1974C197.468 22.5055 196.945 22.7367 196.359 22.8754C195.774 23.0139 195.173 23.091 194.541 23.091C193.278 23.091 192.215 22.9061 191.352 22.5364C190.49 22.1667 189.843 21.5814 189.396 20.7803C188.949 19.9792 188.687 18.9779 188.641 17.7609H205.479V16.1434C205.479 13.771 205.063 11.7992 204.2 10.2279C203.353 8.65663 202.09 7.50124 200.411 6.73099C198.732 5.96075 196.698 5.57562 194.295 5.57562C191.845 5.57562 189.75 5.97615 188.025 6.7464C186.3 7.51664 184.975 8.71825 184.051 10.3204C183.126 11.9225 182.664 13.9713 182.664 16.4515C182.664 18.9317 183.126 20.9805 184.051 22.5826C184.975 24.1847 186.315 25.3709 188.071 26.1567ZM199.394 14.1562H188.718C188.857 13.2011 189.15 12.4 189.581 11.7222C190.028 11.0752 190.659 10.5668 191.46 10.2433C192.261 9.91977 193.232 9.75029 194.372 9.75029C195.111 9.75029 195.789 9.84279 196.39 10.0122C197.006 10.1971 197.53 10.4589 197.977 10.8287C198.423 11.1984 198.778 11.6606 199.024 12.2151C199.271 12.7697 199.394 13.4167 199.394 14.1562ZM216.263 27.3287C215.339 27.3287 214.414 27.2362 213.49 27.0512C212.566 26.8665 211.749 26.5582 211.025 26.1423C210.301 25.7264 209.716 25.1257 209.269 24.3399C208.822 23.5697 208.591 22.5685 208.591 21.3514C208.591 19.7956 208.961 18.5323 209.7 17.5772C210.44 16.6221 211.503 15.8981 212.905 15.4052C214.306 14.9122 215.955 14.5887 217.865 14.4347C219.775 14.2806 221.886 14.2036 224.181 14.2036V12.9712C224.181 12.2625 224.027 11.6771 223.719 11.215C223.411 10.7528 222.949 10.3832 222.302 10.1213C221.655 9.85942 220.792 9.72075 219.714 9.72075C218.758 9.72075 217.958 9.8132 217.28 10.0135C216.602 10.2137 216.093 10.4756 215.739 10.7837C215.385 11.0918 215.2 11.4769 215.2 11.8928V12.3704H209.5C209.477 12.2525 209.462 12.1437 209.45 12.0508L209.45 12.0504L209.443 12.0045C209.442 11.9926 209.44 11.9811 209.439 11.9698C209.423 11.862 209.423 11.7388 209.423 11.5694C209.423 10.3524 209.839 9.28944 210.656 8.38054C211.472 7.47165 212.673 6.77835 214.229 6.28539C215.785 5.79243 217.68 5.546 219.868 5.546C222.055 5.546 223.888 5.77709 225.383 6.25464C226.877 6.7322 228.017 7.47165 228.803 8.47297C229.588 9.47429 229.989 10.7529 229.989 12.3088V21.4439C229.989 21.9214 230.112 22.2757 230.358 22.5376C230.605 22.7841 230.913 22.9075 231.283 22.9075H232.946V26.62C232.654 26.7431 232.192 26.8819 231.56 27.0359C230.928 27.1746 230.189 27.2515 229.342 27.2515C228.371 27.2515 227.555 27.1284 226.923 26.8819C226.292 26.6353 225.799 26.2963 225.444 25.8497C225.09 25.4029 224.828 24.9099 224.674 24.3246H224.35C223.796 24.9099 223.118 25.4183 222.317 25.8804C221.516 26.3426 220.607 26.6969 219.591 26.9281C218.589 27.2053 217.48 27.3287 216.263 27.3287ZM218.004 23.046C218.774 23.046 219.513 22.9535 220.237 22.7532C220.961 22.5529 221.609 22.2757 222.194 21.9214C222.779 21.567 223.241 21.1204 223.611 20.5812C223.981 20.042 224.166 19.4566 224.166 18.825V17.6697C222.101 17.6697 220.361 17.7621 218.897 17.9624C217.449 18.1626 216.325 18.4861 215.554 18.9483C214.784 19.4104 214.384 20.042 214.384 20.8739C214.384 21.3977 214.538 21.8291 214.861 22.1372C215.185 22.4607 215.616 22.6916 216.171 22.8303C216.741 22.9844 217.341 23.046 218.004 23.046ZM235.674 6.03775V26.8498H241.512V15.1883C241.512 14.2332 241.728 13.3859 242.144 12.6311C242.575 11.8763 243.145 11.3063 243.869 10.8903C244.593 10.4744 245.379 10.2741 246.257 10.2741C246.858 10.2741 247.397 10.3357 247.859 10.4744C248.321 10.613 248.722 10.8287 249.045 11.1522C249.369 11.4603 249.631 11.8916 249.816 12.4154C250.001 12.9392 250.093 13.5708 250.093 14.3102V26.8498H255.87V15.1883C255.87 14.2332 256.086 13.3859 256.517 12.6311C256.948 11.8763 257.534 11.3063 258.258 10.8903C258.982 10.4744 259.783 10.2741 260.645 10.2741C261.185 10.2741 261.708 10.3357 262.202 10.4744C262.679 10.613 263.08 10.8287 263.404 11.1522C263.711 11.4603 263.958 11.8916 264.126 12.4154C264.297 12.9392 264.388 13.5708 264.388 14.3102V26.8498H270.243V13.3243C270.243 11.5219 269.934 10.043 269.334 8.88762C268.718 7.73225 267.87 6.88504 266.777 6.36127C265.684 5.83751 264.358 5.57562 262.803 5.57562C261.831 5.57562 260.876 5.69884 259.937 5.94532C258.997 6.1918 258.134 6.59235 257.364 7.13152C256.594 7.67069 255.916 8.34853 255.331 9.16499H255.053C254.483 7.90179 253.621 6.99285 252.527 6.42287C251.433 5.85289 250.062 5.57562 248.46 5.57562C247.505 5.57562 246.581 5.69884 245.687 5.94532C244.794 6.1918 243.962 6.59235 243.176 7.13152C242.39 7.67069 241.728 8.34853 241.174 9.16499H240.896L240.419 6.03775H235.674Z" fill="#171717" />
</svg>
