<svg width="274" height="57" viewBox="0 0 274 57" fill="none" xmlns="http://www.w3.org/2000/svg">
	<path d="M192.035 38.8616L195.47 49.2493H195.605L199.034 38.8616H201.663L197.01 52.0589H194.059L189.413 38.8616H192.035ZM205.792 38.8616V52.0589H203.401V38.8616H205.792ZM208.381 52.0589V38.8616H216.964V40.8657H210.771V44.4485H216.519V46.4526H210.771V50.0549H217.016V52.0589H208.381ZM218.823 40.8657V38.8616H229.353V40.8657H225.274V52.0589H222.902V40.8657H218.823ZM242.228 38.8616V52.0589H240.101L233.883 43.0695H233.773V52.0589H231.383V38.8616H233.522L239.734 47.8574H239.85V38.8616H242.228ZM246.528 52.0589H243.976L248.622 38.8616H251.573L256.226 52.0589H253.674L250.149 41.5681H250.046L246.528 52.0589ZM246.611 46.8844H253.571V48.8047H246.611V46.8844ZM257.964 38.8616H260.89L264.808 48.4245H264.962L268.88 38.8616H271.806V52.0589H269.512V42.9922H269.39L265.742 52.0203H264.028L260.381 42.9729H260.258V52.0589H257.964V38.8616Z" fill="white" />
	<path d="M32.4916 7.32454H41.0027V10.6121C41.0027 15.07 37.4 18.6732 32.9416 18.6732H32.4911L32.4916 7.32454ZM20.378 2.55101H32.4916V33.5781H31.0508C22.2694 33.5781 20.5135 27.4535 20.5135 22.0048L20.378 2.55101ZM0.698975 9.57609C0.698975 15.1152 4.6618 17.1415 9.0751 17.8173H0.698975V33.6684H8.76007C16.8656 33.6684 17.8114 30.0658 17.8114 26.6434C17.8114 22.4553 14.9292 19.5285 10.4713 18.4021H17.8114V2.55101H9.75032C1.64471 2.55101 0.698975 6.1536 0.698975 9.57609Z" fill="white" />
	<path fill-rule="evenodd" clip-rule="evenodd" d="M177.825 28.467C176.366 28.467 175.172 28.2344 174.241 27.7843C173.31 27.3343 172.627 26.6671 172.192 25.7672C171.758 24.8674 171.541 23.7656 171.541 22.4468V11.4147H168.313V7.03914H171.774L172.891 0.941269H177.39V7.03914H182.092V11.4147H177.39V21.6089C177.39 22.4002 177.561 23.0054 177.887 23.4243C178.213 23.8433 178.849 24.045 179.78 24.045H182.092V27.8309C181.75 27.9395 181.316 28.0326 180.82 28.1256C180.307 28.2187 179.795 28.2964 179.268 28.3584C178.725 28.4204 178.244 28.467 177.825 28.467ZM59.7779 28.4673C58.2573 28.4673 56.8609 28.3276 55.5731 28.0327C54.2853 27.7378 53.168 27.3189 52.206 26.7759C51.244 26.2328 50.4992 25.5501 49.9717 24.7432C49.4441 23.9365 49.1804 23.0055 49.1804 21.9348V21.609C49.1804 21.5004 49.1959 21.4073 49.2269 21.3298H54.999V21.516V21.7021C55.03 22.3383 55.2627 22.8503 55.7127 23.2538C56.1627 23.6572 56.7679 23.9364 57.5126 24.1071C58.2574 24.2779 59.0331 24.3708 59.8555 24.3708C60.6313 24.3708 61.3761 24.3245 62.1054 24.2157C62.8346 24.1071 63.4398 23.8899 63.9363 23.5796C64.4328 23.2538 64.6656 22.8346 64.6656 22.3072C64.6656 21.64 64.3708 21.1591 63.7967 20.8332C63.2071 20.5074 62.4158 20.2591 61.3917 20.0729C60.866 19.9773 60.3075 19.8735 59.7163 19.7637L59.7152 19.7635L59.7141 19.7633C59.1544 19.6593 58.5654 19.5499 57.947 19.4367C56.8919 19.2505 55.8679 19.0178 54.9059 18.723C53.9439 18.4281 53.0594 18.0558 52.2991 17.5903C51.5233 17.1248 50.9182 16.5352 50.4682 15.7905C50.0182 15.0612 49.7855 14.1457 49.7855 13.0596C49.7855 11.9114 50.0337 10.9338 50.5458 10.1115C51.0578 9.28911 51.7716 8.6064 52.7025 8.07885C53.6335 7.55129 54.7352 7.16337 55.992 6.89959C57.2488 6.65133 58.6142 6.52722 60.0727 6.52722C61.4227 6.52722 62.7106 6.65133 63.9053 6.89959C65.1001 7.14785 66.1397 7.52028 67.0086 8.0168C67.893 8.51332 68.5757 9.11847 69.1032 9.86325C69.6308 10.608 69.879 11.4459 69.879 12.3769V12.8113C69.879 12.9509 69.8635 13.0441 69.8325 13.1372H64.0604V12.8579C64.0604 12.3458 63.8743 11.9424 63.5174 11.6166C63.1605 11.2907 62.664 11.0579 62.0433 10.8717C61.4227 10.6855 60.709 10.608 59.9176 10.608C59.5142 10.608 59.0642 10.639 58.5677 10.6855C58.0712 10.7321 57.5747 10.8252 57.1092 10.9648C56.6437 11.1045 56.2713 11.2907 55.992 11.5235C55.7127 11.7562 55.5731 12.0665 55.5731 12.4389C55.5731 12.9199 55.8213 13.2924 56.3334 13.5717C56.8454 13.8509 57.5126 14.0681 58.3505 14.2233C58.8995 14.325 59.4753 14.4333 60.0864 14.5484L60.0875 14.5486L60.0885 14.5488C60.4093 14.6091 60.7398 14.6713 61.0813 14.7354C62.1985 14.9681 63.3156 15.2163 64.4328 15.4646C65.55 15.7128 66.5741 16.0542 67.5051 16.4886C68.4361 16.9076 69.1653 17.5283 69.6928 18.3196C70.2204 19.1109 70.4842 20.1815 70.4842 21.5004C70.4842 22.7728 70.2204 23.8588 69.7084 24.7432C69.1963 25.6278 68.4516 26.357 67.5051 26.9C66.5431 27.4432 65.4258 27.831 64.1225 28.0793C62.8191 28.3276 61.3451 28.4673 59.7779 28.4673ZM82.0139 28.4668C79.5159 28.4668 77.5919 27.8307 76.2109 26.5585C74.8456 25.286 74.1627 23.2844 74.1627 20.5381V7.03895H79.9814V19.5915C79.9814 20.3673 80.0745 21.0035 80.2606 21.5311C80.4469 22.0431 80.7261 22.462 81.0984 22.7878C81.4708 23.1138 81.9208 23.3464 82.4329 23.4861C82.9449 23.6258 83.5344 23.7033 84.2017 23.7033C85.1637 23.7033 86.0327 23.4861 86.8085 23.0672C87.5843 22.6483 88.2204 22.0431 88.7014 21.2984C89.1825 20.5381 89.4152 19.6846 89.4152 18.7226V7.05449H95.2647V28.0169H90.4858L90.0513 24.836H89.772C89.1359 25.6584 88.4222 26.3411 87.6152 26.8842C86.824 27.4272 85.9396 27.8307 84.962 28.0944C83.9845 28.3582 83.0226 28.4668 82.0139 28.4668ZM100.135 7.02289V35.2779H106.016V25.5492H106.248C106.745 26.1853 107.365 26.7285 108.079 27.1629C108.793 27.5975 109.584 27.9232 110.453 28.1404C111.307 28.3576 112.207 28.4664 113.138 28.4664C114.999 28.4664 116.613 28.063 117.994 27.2715C119.375 26.4648 120.446 25.2546 121.237 23.6407C122.028 22.0271 122.416 19.979 122.416 17.5119C122.416 14.9827 122.044 12.9035 121.268 11.2899C120.492 9.67617 119.406 8.48142 117.979 7.70561C116.551 6.9298 114.875 6.54189 112.936 6.54189C111.446 6.54189 110.065 6.80569 108.809 7.33324C107.536 7.87631 106.497 8.77625 105.674 10.0486H105.395L104.883 7.02289H100.135ZM114.193 23.0666C113.417 23.5012 112.439 23.7184 111.245 23.7184C110.345 23.7184 109.569 23.5787 108.902 23.3304C108.25 23.0666 107.723 22.6632 107.272 22.1512C106.822 21.6392 106.481 21.0031 106.248 20.2428C106.016 19.498 105.891 18.66 105.891 17.7601V17.2015C105.891 15.9758 106.093 14.9207 106.512 14.0363C106.931 13.1518 107.521 12.4691 108.312 11.9881C109.088 11.5071 110.05 11.2743 111.198 11.2743C112.424 11.2743 113.417 11.4915 114.193 11.926C114.953 12.3604 115.527 13.0277 115.9 13.8966C116.272 14.781 116.458 15.8516 116.458 17.124V17.9153C116.458 19.1411 116.272 20.1962 115.9 21.0806C115.527 21.965 114.968 22.6323 114.193 23.0666ZM137.514 28.4659C134.985 28.4659 132.843 28.0781 131.074 27.2868C129.306 26.4953 127.956 25.3006 127.025 23.6869C126.094 22.0732 125.628 20.0096 125.628 17.5115C125.628 15.0134 126.094 12.9498 127.025 11.3361C127.956 9.72238 129.29 8.51209 131.028 7.73628C132.766 6.96047 134.876 6.55705 137.343 6.55705C139.764 6.55705 141.812 6.94496 143.503 7.72077C145.194 8.49658 146.467 9.66032 147.32 11.243C148.189 12.8256 148.608 14.8117 148.608 17.2012V18.8303H131.633C131.68 20.0561 131.943 21.0647 132.393 21.8716C132.843 22.6785 133.495 23.268 134.364 23.6404C135.233 24.0127 136.303 24.199 137.576 24.199C138.212 24.199 138.817 24.1213 139.407 23.9818C139.996 23.8421 140.524 23.6093 141.005 23.2989C141.486 22.9886 141.889 22.6163 142.2 22.1664C142.525 21.7164 142.696 21.2044 142.712 20.6147H148.561C148.561 21.8405 148.282 22.9422 147.739 23.9198C147.196 24.8973 146.451 25.7195 145.489 26.3867C144.527 27.0539 143.379 27.566 142.029 27.9229C140.694 28.2798 139.174 28.4659 137.514 28.4659ZM131.726 15.1996H142.479C142.479 14.4548 142.355 13.8031 142.106 13.2445C141.858 12.686 141.501 12.2204 141.051 11.848C140.601 11.4757 140.074 11.2119 139.453 11.0257C138.848 10.855 138.165 10.7619 137.421 10.7619C136.272 10.7619 135.295 10.9326 134.488 11.2584C133.681 11.5843 133.045 12.0963 132.595 12.748C132.161 13.4307 131.866 14.2376 131.726 15.1996ZM152.752 7.02374V27.9861V28.0018H158.617V17.8075C158.617 16.9386 158.71 16.1628 158.912 15.4646C159.114 14.7664 159.44 14.1612 159.874 13.6492C160.309 13.1372 160.852 12.7337 161.503 12.4544C162.155 12.1751 162.931 12.0355 163.831 12.0355H166.143V6.93064C165.848 6.82203 165.507 6.72895 165.103 6.65137C164.7 6.57379 164.265 6.52722 163.784 6.52722C162.869 6.52722 162.031 6.69792 161.302 7.03928C160.572 7.38064 159.952 7.86162 159.455 8.46675C158.943 9.07188 158.555 9.73912 158.291 10.4529H158.012L157.531 7.02374H152.752ZM190.129 27.2868C191.898 28.0781 194.039 28.4659 196.569 28.4659C198.244 28.4659 199.749 28.2798 201.099 27.9229C202.449 27.566 203.597 27.0539 204.559 26.3867C205.521 25.7195 206.266 24.8973 206.809 23.9198C207.352 22.9422 207.632 21.8405 207.632 20.6147H201.782C201.766 21.2044 201.596 21.7164 201.27 22.1664C200.959 22.6163 200.556 22.9886 200.075 23.2989C199.594 23.6093 199.067 23.8421 198.477 23.9818C197.887 24.1213 197.282 24.199 196.646 24.199C195.374 24.199 194.303 24.0127 193.434 23.6404C192.565 23.268 191.913 22.6785 191.464 21.8716C191.014 21.0647 190.75 20.0561 190.703 18.8303H207.663V17.2012C207.663 14.8117 207.244 12.8256 206.375 11.243C205.521 9.66032 204.249 8.49658 202.558 7.72077C200.867 6.94496 198.818 6.55705 196.398 6.55705C193.931 6.55705 191.821 6.96047 190.083 7.73628C188.345 8.51209 187.011 9.72238 186.08 11.3361C185.149 12.9498 184.683 15.0134 184.683 17.5115C184.683 20.0096 185.149 22.0732 186.08 23.6869C187.011 25.3006 188.36 26.4953 190.129 27.2868ZM201.534 15.1996H190.781C190.92 14.2376 191.215 13.4307 191.65 12.748C192.1 12.0963 192.736 11.5843 193.543 11.2584C194.35 10.9326 195.327 10.7619 196.475 10.7619C197.22 10.7619 197.903 10.855 198.508 11.0257C199.129 11.2119 199.656 11.4757 200.106 11.848C200.556 12.2204 200.913 12.686 201.161 13.2445C201.41 13.8031 201.534 14.4548 201.534 15.1996ZM218.524 28.4673C217.594 28.4673 216.663 28.3741 215.732 28.1879C214.801 28.0018 213.978 27.6912 213.249 27.2723C212.52 26.8534 211.93 26.2484 211.48 25.457C211.03 24.6811 210.798 23.6727 210.798 22.4468C210.798 20.8798 211.17 19.6074 211.915 18.6454C212.659 17.6834 213.73 16.9542 215.142 16.4577C216.554 15.9611 218.214 15.6353 220.138 15.4801C222.062 15.3249 224.188 15.2473 226.5 15.2473V14.006C226.5 13.2923 226.345 12.7027 226.035 12.2372C225.724 11.7717 225.259 11.3994 224.607 11.1356C223.955 10.8718 223.086 10.7321 222 10.7321C221.038 10.7321 220.232 10.8253 219.549 11.027C218.866 11.2287 218.354 11.4925 217.997 11.8028C217.64 12.1131 217.454 12.501 217.454 12.9199V13.4009H211.713C211.689 13.2818 211.674 13.1719 211.662 13.0782C211.658 13.0497 211.655 13.0228 211.651 12.9975C211.635 12.8889 211.635 12.7648 211.635 12.5941C211.635 11.3683 212.054 10.2977 212.877 9.38225C213.699 8.46679 214.909 7.76848 216.476 7.27196C218.044 6.77544 219.952 6.52722 222.155 6.52722C224.359 6.52722 226.205 6.75999 227.71 7.24099C229.215 7.72199 230.363 8.46679 231.155 9.47535C231.946 10.4839 232.35 11.7717 232.35 13.3389V22.54C232.35 23.0209 232.474 23.3778 232.722 23.6416C232.97 23.8899 233.281 24.0141 233.653 24.0141H235.329V27.7535C235.034 27.8775 234.568 28.0172 233.932 28.1724C233.296 28.3121 232.551 28.3896 231.698 28.3896C230.72 28.3896 229.898 28.2655 229.262 28.0172C228.626 27.7689 228.129 27.4275 227.772 26.9777C227.416 26.5276 227.152 26.031 226.996 25.4415H226.671C226.112 26.031 225.429 26.5431 224.622 27.0086C223.816 27.4741 222.9 27.831 221.876 28.0638C220.868 28.343 219.75 28.4673 218.524 28.4673ZM220.278 24.1536C221.054 24.1536 221.799 24.0605 222.528 23.8588C223.257 23.657 223.909 23.3778 224.498 23.0209C225.088 22.664 225.554 22.2141 225.926 21.6711C226.298 21.128 226.484 20.5384 226.484 19.9022V18.7385C224.405 18.7385 222.652 18.8316 221.178 19.0333C219.719 19.235 218.587 19.5609 217.811 20.0264C217.035 20.4918 216.632 21.128 216.632 21.9659C216.632 22.4934 216.787 22.928 217.113 23.2383C217.439 23.5641 217.873 23.7967 218.432 23.9365C219.006 24.0916 219.611 24.1536 220.278 24.1536ZM238.076 7.02252V27.9849H243.957V16.2392C243.957 15.2771 244.174 14.4238 244.593 13.6635C245.027 12.9032 245.601 12.3291 246.331 11.9102C247.06 11.4912 247.851 11.2895 248.736 11.2895C249.341 11.2895 249.884 11.3515 250.349 11.4912C250.815 11.6308 251.218 11.8481 251.544 12.1739C251.87 12.4842 252.134 12.9187 252.32 13.4463C252.506 13.9738 252.599 14.6099 252.599 15.3547V27.9849H258.418V16.2392C258.418 15.2771 258.635 14.4238 259.069 13.6635C259.504 12.9032 260.093 12.3291 260.823 11.9102C261.552 11.4912 262.359 11.2895 263.228 11.2895C263.771 11.2895 264.298 11.3515 264.796 11.4912C265.276 11.6308 265.68 11.8481 266.006 12.1739C266.315 12.4842 266.564 12.9187 266.734 13.4463C266.905 13.9738 266.998 14.6099 266.998 15.3547V27.9849H272.895V14.3617C272.895 12.5463 272.584 11.0567 271.979 9.89297C271.358 8.72926 270.504 7.87593 269.403 7.34838C268.302 6.82083 266.968 6.55705 265.401 6.55705C264.422 6.55705 263.46 6.68116 262.514 6.92942C261.567 7.17768 260.699 7.58112 259.923 8.12419C259.147 8.66726 258.464 9.34999 257.875 10.1724H257.595C257.021 8.90002 256.152 7.98452 255.051 7.41042C253.949 6.83632 252.568 6.55705 250.954 6.55705C249.992 6.55705 249.061 6.68116 248.162 6.92942C247.262 7.17768 246.424 7.58112 245.632 8.12419C244.841 8.66726 244.174 9.34999 243.615 10.1724H243.336L242.855 7.02252H238.076Z" fill="white" />
</svg>
