<svg width="14" height="12" viewBox="0 0 14 12" fill="none" xmlns="http://www.w3.org/2000/svg">
	<path d="M1.06108 5.28724L9.14198 1.95777C9.93967 1.61095 12.6449 0.501129 12.6449 0.501129C12.6449 0.501129 13.8934 0.0155812 13.7894 1.19477C13.7547 1.68032 13.4772 3.37973 13.1998 5.21788L12.3327 10.663C12.3327 10.663 12.2634 11.4606 11.6738 11.5994C11.0842 11.7381 10.1131 11.1138 9.93967 10.9751C9.80094 10.871 7.33852 9.31036 6.43679 8.54735C6.19401 8.33926 5.91656 7.92308 6.47147 7.43753C7.72002 6.29302 9.21135 4.87106 10.1131 3.96933C10.5293 3.55315 10.9454 2.58205 9.21135 3.76124L4.32119 7.05603C4.32119 7.05603 3.76627 7.40285 2.72581 7.09071C1.68535 6.77857 0.471483 6.36239 0.471483 6.36239C0.471483 6.36239 -0.360885 5.84216 1.06108 5.28724Z" fill="black" />
</svg>
