<svg width="206" height="58" viewBox="0 0 206 58" fill="none" xmlns="http://www.w3.org/2000/svg">
<g id="Vector">
<path d="M29.3681 0.204224L0.470703 29.1887H13.1042L21.0328 21.2601V49.4604L29.3681 57.7957V0.204224ZM38.6326 0.204224L67.53 29.1887H54.8965L46.9679 21.2601V49.4604L38.6326 57.7957V0.204224Z" fill="#171717"/>
<path d="M76.1805 12.2512V8.2064H95.2374V12.2512H88.1336V31.41H83.2844V12.2512H76.1805Z" fill="#171717"/>
<path d="M98.3758 31.41V8.2064H114.011V12.2512H103.282V17.7802H113.207V21.8249H103.282V27.3653H114.056V31.41H98.3758Z" fill="#171717"/>
<path d="M137.319 8.2064V31.41H133.082L122.987 16.8058H122.817V31.41H117.911V8.2064H122.217L132.232 22.7993H132.436V8.2064H137.319Z" fill="#171717"/>
<path d="M153.96 14.8797C153.87 13.9658 153.481 13.2558 152.793 12.7497C152.106 12.2436 151.173 11.9906 149.995 11.9906C149.194 11.9906 148.518 12.1039 147.967 12.3305C147.415 12.5495 146.992 12.8554 146.698 13.2482C146.411 13.641 146.267 14.0866 146.267 14.5851C146.252 15.0006 146.339 15.3631 146.528 15.6728C146.724 15.9825 146.992 16.2506 147.332 16.4772C147.672 16.6963 148.065 16.8889 148.511 17.0551C148.956 17.2137 149.432 17.3496 149.938 17.4629L152.023 17.9614C153.035 18.188 153.964 18.4902 154.81 18.8678C155.656 19.2455 156.389 19.71 157.008 20.2614C157.627 20.8128 158.107 21.4624 158.447 22.2102C158.794 22.9579 158.972 23.8152 158.979 24.782C158.972 26.2021 158.609 27.4332 157.892 28.4756C157.182 29.5104 156.154 30.3148 154.81 30.8889C153.473 31.4554 151.86 31.7386 149.972 31.7386C148.099 31.7386 146.467 31.4516 145.078 30.8775C143.695 30.3035 142.615 29.4537 141.837 28.3283C141.067 27.1953 140.663 25.7942 140.625 24.1249H145.372C145.425 24.9029 145.648 25.5525 146.041 26.0737C146.441 26.5873 146.973 26.9763 147.638 27.2406C148.31 27.4974 149.07 27.6259 149.915 27.6259C150.746 27.6259 151.468 27.505 152.08 27.2633C152.699 27.0216 153.179 26.6855 153.518 26.2549C153.858 25.8244 154.028 25.3297 154.028 24.7707C154.028 24.2495 153.873 23.8115 153.564 23.4564C153.262 23.1014 152.816 22.7993 152.227 22.5501C151.645 22.3008 150.931 22.0742 150.085 21.8703L147.559 21.2358C145.603 20.7599 144.058 20.0159 142.925 19.0038C141.792 17.9917 141.229 16.6283 141.237 14.9137C141.229 13.5088 141.603 12.2814 142.358 11.2315C143.121 10.1816 144.167 9.36205 145.497 8.7729C146.826 8.18374 148.337 7.88917 150.029 7.88917C151.751 7.88917 153.254 8.18374 154.538 8.7729C155.83 9.36205 156.834 10.1816 157.552 11.2315C158.269 12.2814 158.64 13.4975 158.662 14.8797H153.96Z" fill="#171717"/>
<path d="M183.602 19.8082C183.602 22.3386 183.122 24.4912 182.163 26.2663C181.212 28.0413 179.912 29.3971 178.266 30.3337C176.627 31.2628 174.784 31.7273 172.737 31.7273C170.675 31.7273 168.824 31.259 167.185 30.3224C165.546 29.3858 164.251 28.03 163.299 26.2549C162.347 24.4799 161.871 22.331 161.871 19.8082C161.871 17.2779 162.347 15.1252 163.299 13.3502C164.251 11.5752 165.546 10.2231 167.185 9.29408C168.824 8.35747 170.675 7.88917 172.737 7.88917C174.784 7.88917 176.627 8.35747 178.266 9.29408C179.912 10.2231 181.212 11.5752 182.163 13.3502C183.122 15.1252 183.602 17.2779 183.602 19.8082ZM178.628 19.8082C178.628 18.1692 178.383 16.7869 177.892 15.6615C177.408 14.536 176.725 13.6825 175.841 13.1009C174.957 12.5193 173.923 12.2285 172.737 12.2285C171.551 12.2285 170.516 12.5193 169.632 13.1009C168.749 13.6825 168.061 14.536 167.57 15.6615C167.087 16.7869 166.845 18.1692 166.845 19.8082C166.845 21.4473 167.087 22.8295 167.57 23.955C168.061 25.0804 168.749 25.9339 169.632 26.5155C170.516 27.0971 171.551 27.3879 172.737 27.3879C173.923 27.3879 174.957 27.0971 175.841 26.5155C176.725 25.9339 177.408 25.0804 177.892 23.955C178.383 22.8295 178.628 21.4473 178.628 19.8082Z" fill="#171717"/>
<path d="M187.236 31.41V8.2064H196.391C198.143 8.2064 199.639 8.51987 200.877 9.14679C202.124 9.76615 203.072 10.6461 203.721 11.7867C204.378 12.9196 204.707 14.2528 204.707 15.7861C204.707 17.327 204.375 18.6526 203.71 19.7629C203.045 20.8657 202.082 21.7116 200.821 22.3008C199.567 22.89 198.049 23.1845 196.266 23.1845H190.137V19.2417H195.473C196.41 19.2417 197.188 19.1133 197.807 18.8565C198.426 18.5997 198.887 18.2145 199.189 17.7009C199.499 17.1872 199.654 16.549 199.654 15.7861C199.654 15.0157 199.499 14.3661 199.189 13.8374C198.887 13.3086 198.423 12.9083 197.796 12.6364C197.176 12.3569 196.395 12.2172 195.45 12.2172H192.142V31.41H187.236ZM199.767 20.8506L205.534 31.41H200.118L194.476 20.8506H199.767Z" fill="#171717"/>
<path d="M84.0297 53.0607V39.4715H92.1778V40.9313H85.6752V45.5229H91.5674V46.9827H85.6752V53.0607H84.0297Z" fill="#171717"/>
<path d="M106.462 46.2661C106.462 47.6993 106.203 48.9379 105.686 49.9819C105.168 51.0258 104.458 51.8309 103.556 52.3971C102.653 52.9633 101.623 53.2464 100.464 53.2464C99.3047 53.2464 98.274 52.9633 97.3716 52.3971C96.4692 51.8309 95.7593 51.0258 95.2417 49.9819C94.7241 48.9379 94.4654 47.6993 94.4654 46.2661C94.4654 44.8329 94.7241 43.5943 95.2417 42.5503C95.7593 41.5063 96.4692 40.7013 97.3716 40.135C98.274 39.5688 99.3047 39.2857 100.464 39.2857C101.623 39.2857 102.653 39.5688 103.556 40.135C104.458 40.7013 105.168 41.5063 105.686 42.5503C106.203 43.5943 106.462 44.8329 106.462 46.2661ZM104.87 46.2661C104.87 45.0894 104.673 44.0963 104.279 43.2868C103.89 42.4773 103.361 41.8647 102.693 41.4488C102.03 41.033 101.286 40.8251 100.464 40.8251C99.6409 40.8251 98.8956 41.033 98.2276 41.4488C97.5641 41.8647 97.0354 42.4773 96.6418 43.2868C96.2525 44.0963 96.0578 45.0894 96.0578 46.2661C96.0578 47.4427 96.2525 48.4358 96.6418 49.2453C97.0354 50.0549 97.5641 50.6675 98.2276 51.0833C98.8956 51.4991 99.6409 51.7071 100.464 51.7071C101.286 51.7071 102.03 51.4991 102.693 51.0833C103.361 50.6675 103.89 50.0549 104.279 49.2453C104.673 48.4358 104.87 47.4427 104.87 46.2661Z" fill="#171717"/>
<path d="M118.147 39.4715H119.792V48.469C119.792 49.398 119.573 50.2274 119.136 50.9573C118.702 51.6827 118.089 52.2556 117.298 52.6758C116.506 53.0916 115.577 53.2995 114.511 53.2995C113.445 53.2995 112.516 53.0916 111.724 52.6758C110.932 52.2556 110.317 51.6827 109.879 50.9573C109.446 50.2274 109.229 49.398 109.229 48.469V39.4715H110.875V48.3363C110.875 48.9998 111.021 49.5904 111.312 50.1079C111.604 50.6211 112.02 51.0258 112.56 51.3222C113.104 51.6142 113.754 51.7601 114.511 51.7601C115.267 51.7601 115.917 51.6142 116.461 51.3222C117.006 51.0258 117.421 50.6211 117.709 50.1079C118.001 49.5904 118.147 48.9998 118.147 48.3363V39.4715Z" fill="#171717"/>
<path d="M133.854 39.4715V53.0607H132.262L124.857 42.3911H124.724V53.0607H123.079V39.4715H124.671L132.103 50.1677H132.235V39.4715H133.854Z" fill="#171717"/>
<path d="M141.341 53.0607H137.147V39.4715H141.526C142.845 39.4715 143.973 39.7436 144.91 40.2877C145.848 40.8273 146.567 41.6037 147.067 42.6167C147.567 43.6252 147.817 44.8329 147.817 46.2395C147.817 47.6551 147.565 48.8738 147.06 49.8956C146.556 50.913 145.822 51.696 144.857 52.2445C143.893 52.7886 142.721 53.0607 141.341 53.0607ZM138.793 51.6009H141.234C142.358 51.6009 143.289 51.3841 144.028 50.9506C144.767 50.5171 145.317 49.9 145.68 49.0994C146.043 48.2987 146.224 47.3454 146.224 46.2395C146.224 45.1425 146.045 44.1981 145.687 43.4063C145.328 42.61 144.793 41.9996 144.081 41.5749C143.369 41.1458 142.482 40.9313 141.42 40.9313H138.793V51.6009Z" fill="#171717"/>
<path d="M150.496 53.0607H148.771L153.76 39.4715H155.459L160.449 53.0607H158.724L154.663 41.6214H154.557L150.496 53.0607ZM151.133 47.7524H158.087V49.2122H151.133V47.7524Z" fill="#171717"/>
<path d="M160.235 40.9313V39.4715H170.427V40.9313H166.153V53.0607H164.508V40.9313H160.235Z" fill="#171717"/>
<path d="M174.612 39.4715V53.0607H172.966V39.4715H174.612Z" fill="#171717"/>
<path d="M189.377 46.2661C189.377 47.6993 189.118 48.9379 188.601 49.9819C188.083 51.0258 187.373 51.8309 186.471 52.3971C185.568 52.9633 184.538 53.2464 183.379 53.2464C182.22 53.2464 181.189 52.9633 180.287 52.3971C179.384 51.8309 178.674 51.0258 178.157 49.9819C177.639 48.9379 177.38 47.6993 177.38 46.2661C177.38 44.8329 177.639 43.5943 178.157 42.5503C178.674 41.5063 179.384 40.7013 180.287 40.135C181.189 39.5688 182.22 39.2857 183.379 39.2857C184.538 39.2857 185.568 39.5688 186.471 40.135C187.373 40.7013 188.083 41.5063 188.601 42.5503C189.118 43.5943 189.377 44.8329 189.377 46.2661ZM187.785 46.2661C187.785 45.0894 187.588 44.0963 187.194 43.2868C186.805 42.4773 186.276 41.8647 185.608 41.4488C184.945 41.033 184.202 40.8251 183.379 40.8251C182.556 40.8251 181.811 41.033 181.143 41.4488C180.479 41.8647 179.95 42.4773 179.557 43.2868C179.168 44.0963 178.973 45.0894 178.973 46.2661C178.973 47.4427 179.168 48.4358 179.557 49.2453C179.95 50.0549 180.479 50.6675 181.143 51.0833C181.811 51.4991 182.556 51.7071 183.379 51.7071C184.202 51.7071 184.945 51.4991 185.608 51.0833C186.276 50.6675 186.805 50.0549 187.194 49.2453C187.588 48.4358 187.785 47.4427 187.785 46.2661Z" fill="#171717"/>
<path d="M202.92 39.4715V53.0607H201.327L193.922 42.3911H193.79V53.0607H192.144V39.4715H193.736L201.168 50.1677H201.301V39.4715H202.92Z" fill="#171717"/>
</g>
</svg>
